<?xml version="1.0" encoding="UTF-8" standalone="no"?>
<!-- Generator: Adobe Illustrator 16.0.0, SVG Export Plug-In . SVG Version: 6.00 Build 0)  -->

<svg
   xmlns:dc="http://purl.org/dc/elements/1.1/"
   xmlns:cc="http://creativecommons.org/ns#"
   xmlns:rdf="http://www.w3.org/1999/02/22-rdf-syntax-ns#"
   xmlns:svg="http://www.w3.org/2000/svg"
   xmlns="http://www.w3.org/2000/svg"
   xmlns:sodipodi="http://sodipodi.sourceforge.net/DTD/sodipodi-0.dtd"
   xmlns:inkscape="http://www.inkscape.org/namespaces/inkscape"
   version="1.1"
   id="Capa_1"
   x="0px"
   y="0px"
   width="16"
   height="16"
   viewBox="0 0 16.000001 16.000001"
   xml:space="preserve"
   sodipodi:docname="headphone-warning-symbolic.svg"
   inkscape:version="0.92.3 (2405546, 2018-03-11)"><metadata
   id="metadata47"><rdf:RDF><cc:Work
       rdf:about=""><dc:format>image/svg+xml</dc:format><dc:type
         rdf:resource="http://purl.org/dc/dcmitype/StillImage" /><dc:title></dc:title></cc:Work></rdf:RDF></metadata><defs
   id="defs45">
		
		
		
	</defs><sodipodi:namedview
   pagecolor="#ffffff"
   bordercolor="#666666"
   borderopacity="1"
   objecttolerance="10"
   gridtolerance="10"
   guidetolerance="10"
   inkscape:pageopacity="0"
   inkscape:pageshadow="2"
   inkscape:window-width="3440"
   inkscape:window-height="1380"
   id="namedview43"
   showgrid="false"
   inkscape:zoom="32.000002"
   inkscape:cx="22.028239"
   inkscape:cy="9.5929371"
   inkscape:window-x="0"
   inkscape:window-y="0"
   inkscape:window-maximized="1"
   inkscape:current-layer="g10" />
<g
   id="g10"
   transform="translate(0,-271.38599)">
	<path
   style="opacity:1;fill:#bebebe;fill-opacity:1;stroke:none;stroke-width:0.06069851"
   d="M 7.9980469 0.005859375 C 4.2756792 0.005859375 1.2419311 3.5901475 1.1796875 8.0234375 C 0.49740189 8.2672275 0 9.0413244 0 9.9589844 L 0 13.990234 C 0 15.103254 0.73291057 16.005859 1.6386719 16.005859 L 2.9394531 16.005859 L 2.9394531 8.2734375 C 2.9430131 8.2363375 2.9492188 8.2000394 2.9492188 8.1621094 C 2.9492188 4.8260194 5.2138985 2.1113281 7.9980469 2.1113281 C 10.725704 2.1113281 12.95022 4.719497 13.039062 7.9628906 C 13.117926 8.0474484 13.193064 8.1408313 13.261719 8.2480469 L 16 13.066406 L 16 9.9570312 C 16 9.0386312 15.497685 8.2649544 14.814453 8.0214844 C 14.751593 3.5895844 11.719412 0.005859375 7.9980469 0.005859375 z M 4.0820312 8.0820312 C 3.7555587 8.0820312 3.4921875 8.3953431 3.4921875 8.7832031 L 3.4921875 15.296875 C 3.4921875 15.685135 3.7555587 15.998047 4.0820312 15.998047 C 4.4079473 15.998047 4.6738281 15.685135 4.6738281 15.296875 L 4.6738281 8.7832031 C 4.6738281 8.3956731 4.4079472 8.0820312 4.0820312 8.0820312 z "
   transform="translate(0,271.38599)"
   id="path2" />
<path
   style="color:#bebebe;display:inline;overflow:visible;visibility:visible;fill:#f57900;fill-opacity:1;fill-rule:nonzero;stroke:none;stroke-width:1.89999986;marker:none;enable-background:new"
   d="m 12.218777,280.38745 c -0.246671,-0.0134 -0.485497,0.13438 -0.672916,0.45625 l -2.9354173,5.44166 c -0.250411,0.45222 0.02381,1.1 0.514583,1.1 h 6.1750003 c 0.460821,0 0.894156,-0.54406 0.572917,-1.1 l -2.964583,-5.4125 c -0.187161,-0.30331 -0.442913,-0.47197 -0.689584,-0.48541 z m -0.502083,1.66458 h 1.066667 v 2.13333 h -1.066667 z m 0,3.2 h 1.066667 v 1.06667 h -1.066667 z"
   id="path18112"
   class="warning"
   inkscape:connector-curvature="0" /></g>
<g
   id="g12"
   transform="translate(0,-271.38599)">
</g>
<g
   id="g14"
   transform="translate(0,-271.38599)">
</g>
<g
   id="g16"
   transform="translate(0,-271.38599)">
</g>
<g
   id="g18"
   transform="translate(0,-271.38599)">
</g>
<g
   id="g20"
   transform="translate(0,-271.38599)">
</g>
<g
   id="g22"
   transform="translate(0,-271.38599)">
</g>
<g
   id="g24"
   transform="translate(0,-271.38599)">
</g>
<g
   id="g26"
   transform="translate(0,-271.38599)">
</g>
<g
   id="g28"
   transform="translate(0,-271.38599)">
</g>
<g
   id="g30"
   transform="translate(0,-271.38599)">
</g>
<g
   id="g32"
   transform="translate(0,-271.38599)">
</g>
<g
   id="g34"
   transform="translate(0,-271.38599)">
</g>
<g
   id="g36"
   transform="translate(0,-271.38599)">
</g>
<g
   id="g38"
   transform="translate(0,-271.38599)">
</g>
<g
   id="g40"
   transform="translate(0,-271.38599)">
</g>
</svg>