<?xml version="1.0" encoding="UTF-8" standalone="no"?>
<!-- Generator: Adobe Illustrator 16.0.0, SVG Export Plug-In . SVG Version: 6.00 Build 0)  -->

<svg
   xmlns:dc="http://purl.org/dc/elements/1.1/"
   xmlns:cc="http://creativecommons.org/ns#"
   xmlns:rdf="http://www.w3.org/1999/02/22-rdf-syntax-ns#"
   xmlns:svg="http://www.w3.org/2000/svg"
   xmlns="http://www.w3.org/2000/svg"
   xmlns:sodipodi="http://sodipodi.sourceforge.net/DTD/sodipodi-0.dtd"
   xmlns:inkscape="http://www.inkscape.org/namespaces/inkscape"
   version="1.1"
   id="Capa_1"
   x="0px"
   y="0px"
   width="16"
   height="16"
   viewBox="0 0 16.000001 16.000001"
   xml:space="preserve"
   sodipodi:docname="icon.svg"
   inkscape:version="0.92.3 (2405546, 2018-03-11)"
   inkscape:export-filename="/home/sammy/Dokumente/Projekte/Linux/bose@tuuxx/icon.png"
   inkscape:export-xdpi="383.98001"
   inkscape:export-ydpi="383.98001"><metadata
   id="metadata47"><rdf:RDF><cc:Work
       rdf:about=""><dc:format>image/svg+xml</dc:format><dc:type
         rdf:resource="http://purl.org/dc/dcmitype/StillImage" /><dc:title></dc:title></cc:Work></rdf:RDF></metadata><defs
   id="defs45" /><sodipodi:namedview
   pagecolor="#ffffff"
   bordercolor="#666666"
   borderopacity="1"
   objecttolerance="10"
   gridtolerance="10"
   guidetolerance="10"
   inkscape:pageopacity="0"
   inkscape:pageshadow="2"
   inkscape:window-width="1920"
   inkscape:window-height="1023"
   id="namedview43"
   showgrid="false"
   inkscape:zoom="29.322834"
   inkscape:cx="3.2219627"
   inkscape:cy="6.6471193"
   inkscape:window-x="0"
   inkscape:window-y="0"
   inkscape:window-maximized="1"
   inkscape:current-layer="g8" />
<rect
   style="opacity:1;fill:#000000;fill-opacity:1;fill-rule:nonzero;stroke:none;stroke-width:3.95385098;stroke-linejoin:miter;stroke-miterlimit:10;stroke-dasharray:none;stroke-dashoffset:0;stroke-opacity:1;paint-order:fill markers stroke"
   id="rect863"
   width="16"
   height="16"
   x="0"
   y="-7.808424e-16" /><g
   id="g10"
   transform="translate(0,-271.38599)">
	<g
   id="g8"
   transform="matrix(0.05567406,0,0,0.06617641,-9.2089e-4,269.88354)">
		<path
   d="m 62.743,155.437 v 98.42 c 0,5.867 4.741,10.605 10.605,10.605 5.854,0 10.605,-4.738 10.605,-10.605 v -98.42 c 0,-5.856 -4.751,-10.605 -10.605,-10.605 -5.864,0 -10.605,4.744 -10.605,10.605 z"
   id="path2"
   style="opacity:1;fill:#e3e3e3;fill-opacity:1;stroke:none"
   inkscape:connector-curvature="0" />
		<path
   d="m 29.456,264.582 h 23.351 v -116.85 c 0.064,-0.56 0.166,-1.119 0.166,-1.693 0,-50.412 40.69,-91.42 90.698,-91.42 50.002,0 90.692,41.008 90.692,91.42 0,0.771 0.113,1.518 0.228,2.263 v 116.28 h 23.354 c 16.254,0 29.442,-13.64 29.442,-30.469 v -60.936 c 0,-13.878 -8.989,-25.57 -21.261,-29.249 C 264.997,76.957 210.518,22.804 143.676,22.804 76.816,22.804 22.329,76.962 21.211,143.954 8.956,147.638 0,159.32 0,173.187 v 60.926 c 0,16.819 13.187,30.469 29.456,30.469 z"
   id="path4"
   style="opacity:1;fill:#e3e3e3;fill-opacity:1;stroke:none"
   inkscape:connector-curvature="0" />
		<path
   d="m 203.454,155.437 v 98.42 c 0,5.867 4.748,10.605 10.604,10.605 5.856,0 10.604,-4.738 10.604,-10.605 v -98.42 c 0,-5.856 -4.748,-10.605 -10.604,-10.605 -5.867,0 -10.604,4.744 -10.604,10.605 z"
   id="path6"
   style="opacity:1;fill:#e3e3e3;fill-opacity:1;stroke:none"
   inkscape:connector-curvature="0" />
	</g>
</g>
<g
   id="g12"
   transform="translate(0,-271.38599)">
</g>
<g
   id="g14"
   transform="translate(0,-271.38599)">
</g>
<g
   id="g16"
   transform="translate(0,-271.38599)">
</g>
<g
   id="g18"
   transform="translate(0,-271.38599)">
</g>
<g
   id="g20"
   transform="translate(0,-271.38599)">
</g>
<g
   id="g22"
   transform="translate(0,-271.38599)">
</g>
<g
   id="g24"
   transform="translate(0,-271.38599)">
</g>
<g
   id="g26"
   transform="translate(0,-271.38599)">
</g>
<g
   id="g28"
   transform="translate(0,-271.38599)">
</g>
<g
   id="g30"
   transform="translate(0,-271.38599)">
</g>
<g
   id="g32"
   transform="translate(0,-271.38599)">
</g>
<g
   id="g34"
   transform="translate(0,-271.38599)">
</g>
<g
   id="g36"
   transform="translate(0,-271.38599)">
</g>
<g
   id="g38"
   transform="translate(0,-271.38599)">
</g>
<g
   id="g40"
   transform="translate(0,-271.38599)">
</g>
</svg>