<?xml version="1.0" encoding="UTF-8" standalone="no"?>
<svg
   width="22"
   height="22"
   version="1.1"
   id="svg350"
   sodipodi:docname="gpm-headphones-100.svg"
   inkscape:version="1.1.2 (0a00cf5339, 2022-02-04)"
   xmlns:inkscape="http://www.inkscape.org/namespaces/inkscape"
   xmlns:sodipodi="http://sodipodi.sourceforge.net/DTD/sodipodi-0.dtd"
   xmlns="http://www.w3.org/2000/svg"
   xmlns:svg="http://www.w3.org/2000/svg">
  <sodipodi:namedview
     id="namedview352"
     pagecolor="#ffffff"
     bordercolor="#666666"
     borderopacity="1.0"
     inkscape:pageshadow="2"
     inkscape:pageopacity="0.0"
     inkscape:pagecheckerboard="0"
     showgrid="false"
     inkscape:zoom="34.954545"
     inkscape:cx="10.985696"
     inkscape:cy="10.985696"
     inkscape:window-width="1920"
     inkscape:window-height="1014"
     inkscape:window-x="1920"
     inkscape:window-y="0"
     inkscape:window-maximized="1"
     inkscape:current-layer="g348" />
  <defs
     id="defs342">
    <style
       id="current-color-scheme"
       type="text/css">
   .ColorScheme-Text { color:#dfdfdf; } .ColorScheme-Highlight { color:#4285f4; } .ColorScheme-NeutralText { color:#ff9800; } .ColorScheme-PositiveText { color:#4caf50; } .ColorScheme-NegativeText { color:#f44336; }
  </style>
  </defs>
  <g
     transform="translate(-33 -767.36)"
     id="g348">
    <path
       style="fill:currentColor"
       class="ColorScheme-Text"
       d="m36.5 770.36c-0.277 0-0.5 0.22301-0.5 0.50001v0.5h-2v-0.00026l-0.000015 14.502c0 0.277 0.223 0.5 0.5 0.5h6c0.277 0 0.5-0.223 0.5-0.5v-14.5l-0.50002 0.002h-1.5v-0.5c0-0.277-0.223-0.50001-0.5-0.50001z"
       id="path344" />
    <path
       style="fill:#dfdfdf;fill-opacity:1;stroke-width:0.717355"
       d="m 48.5,770.36067 c -3.047,0 -5.5,3.38091 -5.5,7.58074 v 5.05368 c 0,0 0,2.52684 1.833333,2.52684 h 6.11e-4 v -6.31721 h -6.11e-4 v -1.26344 c 0,-2.79976 1.635334,-5.05368 3.666667,-5.05368 2.031333,0 3.666667,2.25397 3.666667,5.05368 v 0.83815 h 6.11e-4 v 6.74246 C 52.170678,785.52105 54,785.51889 54,782.99441 v -5.05368 C 54,773.74091 51.547,770.36 48.5,770.36 Z"
       id="path538" />
    <path
       style="fill:#dfdfdf;fill-opacity:1;stroke-width:0.717355"
       d="M 44.833944,780.46551 V 786.36 h 1.833334 v -5.89449 z m 5.5,0 V 786.36 h 1.833334 v -5.89449 z"
       id="path542" />
  </g>
</svg>
