<?xml version="1.0" encoding="UTF-8" standalone="no"?>
<svg
   width="22"
   height="22"
   version="1.1"
   id="svg60"
   sodipodi:docname="headphones-060.svg"
   inkscape:version="1.1.2 (0a00cf5339, 2022-02-04)"
   xmlns:inkscape="http://www.inkscape.org/namespaces/inkscape"
   xmlns:sodipodi="http://sodipodi.sourceforge.net/DTD/sodipodi-0.dtd"
   xmlns="http://www.w3.org/2000/svg"
   xmlns:svg="http://www.w3.org/2000/svg">
  <sodipodi:namedview
     id="namedview62"
     pagecolor="#ffffff"
     bordercolor="#666666"
     borderopacity="1.0"
     inkscape:pageshadow="2"
     inkscape:pageopacity="0.0"
     inkscape:pagecheckerboard="0"
     showgrid="false"
     inkscape:zoom="34.954545"
     inkscape:cx="5.5214565"
     inkscape:cy="9.3550066"
     inkscape:window-width="1920"
     inkscape:window-height="1014"
     inkscape:window-x="1920"
     inkscape:window-y="0"
     inkscape:window-maximized="1"
     inkscape:current-layer="g58" />
  <defs
     id="defs50">
    <style
       id="current-color-scheme"
       type="text/css">
   .ColorScheme-Text { color:#dfdfdf; } .ColorScheme-Highlight { color:#4285f4; } .ColorScheme-NeutralText { color:#ff9800; } .ColorScheme-PositiveText { color:#4caf50; } .ColorScheme-NegativeText { color:#f44336; }
  </style>
  </defs>
  <g
     transform="translate(-57 -719.36)"
     id="g58">
    <path
       opacity="0.35"
       style="fill:currentColor;stroke-width:0.999938"
       class="ColorScheme-Text"
       d="m 60.5,722.36 c -0.277,0 -0.5,0.22298 -0.5,0.49995 v 0.49994 h -2 v -2.6e-4 l -1.5e-5,14.50018 c 0,0.27697 0.223,0.49994 0.5,0.49994 h 6 c 0.277,0 0.5,-0.22297 0.5,-0.49994 v -14.49819 l -0.50002,0.002 h -1.5 v -0.49993 c 0,-0.27697 -0.223,-0.49995 -0.5,-0.49995 z"
       id="path52" />
    <path
       style="fill:currentColor;stroke-width:0.904442"
       class="ColorScheme-Text"
       d="m 58,729.36 -1.5e-5,8.59098 c 0,0.22659 0.223,0.40902 0.5,0.40902 h 6 c 0.277,0 0.5,-0.18243 0.5,-0.40902 v -8.58935 z"
       id="path54" />
    <path
       style="fill:#dfdfdf;fill-opacity:1;stroke-width:0.717355"
       d="m 72.5,722.36067 c -3.047,0 -5.5,3.38091 -5.5,7.58074 v 5.05368 c 0,0 0,2.52684 1.833333,2.52684 h 6.11e-4 v -6.31721 h -6.11e-4 v -1.26344 c 0,-2.79976 1.635334,-5.05368 3.666667,-5.05368 2.031333,0 3.666667,2.25397 3.666667,5.05368 v 0.83815 h 6.11e-4 v 6.74246 C 76.170678,737.52105 78,737.51889 78,734.99441 v -5.05368 C 78,725.74091 75.547,722.36 72.5,722.36 Z"
       id="path538" />
    <path
       style="fill:#dfdfdf;fill-opacity:1;stroke-width:0.717355"
       d="M 68.833944,732.46551 V 738.36 h 1.833334 v -5.89449 z m 5.5,0 V 738.36 h 1.833334 v -5.89449 z"
       id="path542" />
  </g>
</svg>
