<?xml version="1.0" encoding="UTF-8" standalone="no"?>
<svg
   width="22"
   height="22"
   version="1.1"
   id="svg60"
   sodipodi:docname="headphones-010.svg"
   inkscape:version="1.4 (e7c3feb100, 2024-10-09)"
   xml:space="preserve"
   xmlns:inkscape="http://www.inkscape.org/namespaces/inkscape"
   xmlns:sodipodi="http://sodipodi.sourceforge.net/DTD/sodipodi-0.dtd"
   xmlns="http://www.w3.org/2000/svg"
   xmlns:svg="http://www.w3.org/2000/svg"><sodipodi:namedview
     id="namedview62"
     pagecolor="#ffffff"
     bordercolor="#666666"
     borderopacity="1.0"
     inkscape:pageshadow="2"
     inkscape:pageopacity="0.0"
     inkscape:pagecheckerboard="0"
     showgrid="false"
     inkscape:zoom="32"
     inkscape:cx="11.78125"
     inkscape:cy="11.75"
     inkscape:window-width="1920"
     inkscape:window-height="1124"
     inkscape:window-x="4480"
     inkscape:window-y="0"
     inkscape:window-maximized="1"
     inkscape:current-layer="g58"
     inkscape:showpageshadow="2"
     inkscape:deskcolor="#d1d1d1" /><defs
     id="defs50"><style
       id="current-color-scheme"
       type="text/css">
   .ColorScheme-Text { color:#dfdfdf; } .ColorScheme-Highlight { color:#4285f4; } .ColorScheme-NeutralText { color:#ff9800; } .ColorScheme-PositiveText { color:#4caf50; } .ColorScheme-NegativeText { color:#f44336; }
  </style></defs><g
     transform="translate(-57 -719.36)"
     id="g58"><g
       id="g1"
       transform="matrix(0.69444444,0,0,0.69227929,64.361436,724.16827)"><path
         style="opacity:0.2"
         d="m 5.001,13.5 v 7 h 3 v -7 z m 9,0 v 7 h 3 v -7 z"
         id="path1" /><path
         style="opacity:0.2"
         d="m 11,1.5 c -4.986,0 -9,4.015 -9,9.0025 v 6.0015 c 0,0 0,3.00075 3,3.00075 h 0.001 v -7.502 H 5 v -1.5004 c 0,-3.32485 2.676,-6.0015 6,-6.0015 3.324,0 6,2.6767 6,6.0015 v 0.99535 h 0.001 v 8.007 C 17.0065,19.5037 20,19.5007 20,16.5032 V 10.5017 C 20,5.5142 15.986,1.4992 11,1.4992 Z"
         id="path2" /><path
         style="fill:#afafaf;fill-opacity:1"
         d="M 11,1 C 6.014,1 2,5.015 2,10.0025 v 6.0015 c 0,0 0,3.00075 3,3.00075 h 0.001 v -7.502 H 5 v -1.5004 c 0,-3.32485 2.676,-6.0015 6,-6.0015 3.324,0 6,2.6767 6,6.0015 v 0.99535 h 0.001 v 8.007 C 17.0065,19.0037 20,19.0007 20,16.0032 V 10.0017 C 20,5.0142 15.986,0.9992 11,0.9992 Z"
         id="path3" /><path
         style="opacity:0.1;fill:#ffffff"
         d="M 11,1 C 6.014,1 2,5.015 2,10.0025 v 0.49524 c 0,-4.9873 4.014,-9.0025 9,-9.0025 4.986,0 9,4.01505 9,9.0025 v -0.495 c 0,-4.9875 -4.014,-9.0025 -9,-9.0025 z M 5,11.5025 v 0.49524 H 5.001 V 11.5025 Z"
         id="path4" /><path
         style="fill:#dedede;fill-opacity:1"
         d="m 5.001,13 v 7 h 3 v -7 z m 9,0 v 7 h 3 v -7 z"
         id="path5" /><path
         style="opacity:0.1;fill:#ffffff"
         d="m 5.0019531,13 v 0.5 h 3 V 13 Z m 8.9999999,0 v 0.5 h 3 V 13 Z"
         id="path6" /></g><path
       opacity="0.35"
       style="color:#f44336;fill:currentColor"
       class="ColorScheme-NegativeText"
       d="m 60.50002,722.36 c -0.277,0 -0.5,0.223 -0.5,0.5 v 0.5 l -2,-0.002 v -2.6e-4 l -2e-5,14.502 c 0,0.277 0.223,0.5 0.5,0.5 h 6 c 0.277,0 0.5,-0.223 0.5,-0.5 v -14.501 l -0.50002,0.002 h -1.5 v -0.5 c 0,-0.277 -0.223,-0.50001 -0.5,-0.50001 z"
       id="path5-7" /><path
       style="color:#f44336;fill:currentColor;stroke-width:0.707104"
       class="ColorScheme-NegativeText"
       d="m 58.00002,736.86 v 1.25 c 0,0.1385 0.223,0.25 0.5,0.25 h 6 c 0.277,0 0.5,-0.1115 0.5,-0.25 v -1.25 z"
       id="path7" /></g></svg>
