<?xml version="1.0" encoding="UTF-8" standalone="no"?>
<svg
   width="22"
   height="22"
   version="1.1"
   id="svg60"
   sodipodi:docname="keyboard-010.svg"
   inkscape:version="1.1.2 (0a00cf5339, 2022-02-04)"
   xmlns:inkscape="http://www.inkscape.org/namespaces/inkscape"
   xmlns:sodipodi="http://sodipodi.sourceforge.net/DTD/sodipodi-0.dtd"
   xmlns="http://www.w3.org/2000/svg"
   xmlns:svg="http://www.w3.org/2000/svg">
  <sodipodi:namedview
     id="namedview62"
     pagecolor="#ffffff"
     bordercolor="#666666"
     borderopacity="1.0"
     inkscape:pageshadow="2"
     inkscape:pageopacity="0.0"
     inkscape:pagecheckerboard="0"
     showgrid="false"
     inkscape:zoom="34.954545"
     inkscape:cx="5.5214565"
     inkscape:cy="10.356307"
     inkscape:window-width="1920"
     inkscape:window-height="1014"
     inkscape:window-x="1920"
     inkscape:window-y="0"
     inkscape:window-maximized="1"
     inkscape:current-layer="g58" />
  <defs
     id="defs50">
    <style
       id="current-color-scheme"
       type="text/css">
   .ColorScheme-Text { color:#dfdfdf; } .ColorScheme-Highlight { color:#4285f4; } .ColorScheme-NeutralText { color:#ff9800; } .ColorScheme-PositiveText { color:#4caf50; } .ColorScheme-NegativeText { color:#f44336; }
  </style>
  </defs>
  <g
     transform="translate(-57 -719.36)"
     id="g58">
    <path
       fill-rule="evenodd"
       style="fill:currentColor"
       class="ColorScheme-Text"
       d="m68 723.36c-0.554 0-1 0.446-1 1v13c0 0.554 0.446 1 1 1h5c0.554 0 1-0.446 1-1v-13c0-0.554-0.446-1-1-1h-5zm0 3h1v1h-1v-1zm2 0h1v1h-1v-1zm2 1h1v7h-1v-7zm-4 1h1v1h-1v-1zm2 0h1v1h-1v-1zm-2 2h1v1h-1v-1zm2 0h1v1h-1v-1zm-2 2h1v1h-1v-1zm2 0h1v1h-1v-1zm-2 2h1v1h-1v-1zm2 0h1v1h-1v-1z"
       id="path56" />
    <path
       opacity="0.35"
       style="color:#f44336;fill:currentColor"
       class="ColorScheme-NegativeText"
       d="m 60.50002,722.36 c -0.277,0 -0.5,0.223 -0.5,0.5 v 0.5 l -2,-0.002 v -2.6e-4 l -2e-5,14.502 c 0,0.277 0.223,0.5 0.5,0.5 h 6 c 0.277,0 0.5,-0.223 0.5,-0.5 v -14.501 l -0.50002,0.002 h -1.5 v -0.5 c 0,-0.277 -0.223,-0.50001 -0.5,-0.50001 z"
       id="path5" />
    <path
       style="color:#f44336;fill:currentColor;stroke-width:0.707104"
       class="ColorScheme-NegativeText"
       d="m 58.00002,736.86 v 1.25 c 0,0.1385 0.223,0.25 0.5,0.25 h 6 c 0.277,0 0.5,-0.1115 0.5,-0.25 v -1.25 z"
       id="path7" />
  </g>
</svg>
