<?xml version="1.0" encoding="UTF-8" standalone="no"?>
<svg
   width="22"
   height="22"
   version="1.1"
   id="svg60"
   sodipodi:docname="mouse-020.svg"
   inkscape:version="1.3.2 (091e20ef0f, 2023-11-25, custom)"
   xmlns:inkscape="http://www.inkscape.org/namespaces/inkscape"
   xmlns:sodipodi="http://sodipodi.sourceforge.net/DTD/sodipodi-0.dtd"
   xmlns="http://www.w3.org/2000/svg"
   xmlns:svg="http://www.w3.org/2000/svg">
  <sodipodi:namedview
     id="namedview62"
     pagecolor="#ffffff"
     bordercolor="#666666"
     borderopacity="1.0"
     inkscape:pageshadow="2"
     inkscape:pageopacity="0.0"
     inkscape:pagecheckerboard="0"
     showgrid="false"
     inkscape:zoom="34.954545"
     inkscape:cx="5.5357608"
     inkscape:cy="10.342003"
     inkscape:window-width="1920"
     inkscape:window-height="997"
     inkscape:window-x="0"
     inkscape:window-y="0"
     inkscape:window-maximized="1"
     inkscape:current-layer="g58"
     inkscape:showpageshadow="2"
     inkscape:deskcolor="#d1d1d1" />
  <defs
     id="defs50">
    <style
       id="current-color-scheme"
       type="text/css">
   .ColorScheme-Text { color:#dfdfdf; } .ColorScheme-Highlight { color:#4285f4; } .ColorScheme-NeutralText { color:#ff9800; } .ColorScheme-PositiveText { color:#4caf50; } .ColorScheme-NegativeText { color:#f44336; }
  </style>
  </defs>
  <g
     transform="translate(-57 -719.36)"
     id="g58">
    <path
       opacity="0.35"
       style="color:#f44336;fill:#ff9800;fill-opacity:1"
       class="ColorScheme-NegativeText"
       d="m 60.50002,722.36 c -0.277,0 -0.5,0.223 -0.5,0.5 v 0.5 l -2,-0.002 v -2.6e-4 l -2e-5,14.502 c 0,0.277 0.223,0.5 0.5,0.5 h 6 c 0.277,0 0.5,-0.223 0.5,-0.5 v -14.501 l -0.50002,0.002 h -1.5 v -0.5 c 0,-0.277 -0.223,-0.50001 -0.5,-0.50001 z"
       id="path5" />
    <path
       style="color:#f44336;fill:#ff9800;stroke-width:0.999996;fill-opacity:1"
       class="ColorScheme-NegativeText"
       d="m 58.00002,735.36 v 2.5 c 0,0.277 0.223,0.5 0.5,0.5 h 6 c 0.277,0 0.5,-0.223 0.5,-0.5 v -2.5 z"
       id="path7" />
    <path
       style="color:#dfdfdf;fill:currentColor"
       class="ColorScheme-Text"
       d="m 72,722.36 c -2.77,0 -5,2.676 -5,6 h 5 z m 1,0 v 6 h 5 c 0,-3.324 -2.23,-6 -5,-6 z m -6,7 v 3 c 0,3.324 2.23,6 5,6 h 1 c 2.77,0 5,-2.676 5,-6 v -3 h -5 z"
       id="path86" />
  </g>
</svg>
