<?xml version="1.0" encoding="UTF-8" standalone="no"?>
<svg
   xmlns:dc="http://purl.org/dc/elements/1.1/"
   xmlns:cc="http://creativecommons.org/ns#"
   xmlns:rdf="http://www.w3.org/1999/02/22-rdf-syntax-ns#"
   xmlns:svg="http://www.w3.org/2000/svg"
   xmlns="http://www.w3.org/2000/svg"
   version="1.1"
   height="16"
   width="16"
   id="svg7384">
  <defs
     id="defs9" />
  <metadata
     id="metadata90">
    <rdf:RDF>
      <cc:Work
         rdf:about="">
        <dc:format>image/svg+xml</dc:format>
        <dc:type
           rdf:resource="http://purl.org/dc/dcmitype/StillImage" />
        <dc:title>Gnome Symbolic Icon Theme</dc:title>
      </cc:Work>
    </rdf:RDF>
  </metadata>
  <title
     id="title9167">Gnome Symbolic Icon Theme</title>
  <g
     transform="translate(-601 -321)"
     id="layer14">
    <path
       style="color-rendering:auto;color:#000000;enable-background:new;fill:#bebebe;image-rendering:auto;isolation:auto;mix-blend-mode:normal;shape-rendering:auto;solid-color:#000000"
       d="m607.5 322c-0.831 0-1.5 0.669-1.5 1.5v1.5h-3c-0.554 0-1 0.446-1 1v3h1.5c0.831 0 1.5 0.669 1.5 1.5s-0.669 1.5-1.5 1.5h-1.5v3c0 0.554 0.446 1 1 1h3v-1.5c0-0.831 0.669-1.5 1.5-1.5s1.5 0.669 1.5 1.5v1.5h3c0.554 0 1-0.446 1-1v-3h1.5c0.831 0 1.5-0.669 1.5-1.5s-0.669-1.5-1.5-1.5h-1.5v-3c0-0.554-0.446-1-1-1h-3v-1.5c0-0.831-0.669-1.5-1.5-1.5z"
       id="rect6917" />
  </g>
</svg>
