<?xml version="1.0" encoding="UTF-8"?>
<!-- Created with Inkscape (http://www.inkscape.org/) -->
<svg id="svg7384" width="16" height="16" version="1.1" xmlns="http://www.w3.org/2000/svg" xmlns:cc="http://creativecommons.org/ns#" xmlns:dc="http://purl.org/dc/elements/1.1/" xmlns:rdf="http://www.w3.org/1999/02/22-rdf-syntax-ns#">
 <metadata id="metadata90">
  <rdf:RDF>
   <cc:Work rdf:about="">
    <dc:format>image/svg+xml</dc:format>
    <dc:type rdf:resource="http://purl.org/dc/dcmitype/StillImage"/>
    <dc:title>Gnome Symbolic Icon Theme</dc:title>
   </cc:Work>
  </rdf:RDF>
 </metadata>
 <title id="title9167">Gnome Symbolic Icon Theme</title>
 <g id="g71291" transform="translate(-461 -679)">
  <path id="path8527" d="m469 680c-2.791 0-5.1883 1.637-6.3125 4h2.5625c0.35037-0.58405 0.99227-0.96875 1.7188-0.96875 0.56579 0 1.0727 0.24358 1.4375 0.625 0.20065-0.13245 0.41238-0.15625 0.5625-0.15625 0.16562 0 0.39413 0.0219 0.59375 0.15625 0.36484-0.38142 0.87171-0.625 1.4375-0.625 0.72648 0 1.3684 0.3847 1.7188 0.96875h2.5938c-1.1242-2.363-3.5215-4-6.3125-4zm-2.0312 4.0312c-0.56265 0-1 0.43735-1 1v0.96875c0 0.56265 0.43735 1 1 1s1-0.43735 1-1v-0.96875c0-0.56265-0.43735-1-1-1zm4.0312 0c-0.56265 0-1 0.43735-1 1v0.96875c0 0.56265 0.43735 1 1 1s1-0.43735 1-1v-0.96875c0-0.56265-0.43735-1-1-1zm-2.0312 0.78125c1e-3 9e-3 -0.0322 0.0218-0.0312 0.0312 6e-3 0.0624 0.0312 0.12364 0.0312 0.1875v0.96875c0 1.0994-0.90065 2-2 2s-2-0.90065-2-2v-0.96875c0-0.0105-1.6e-4 -0.0208 0-0.0312h-2.6875c-0.18662 0.63065-0.28125 1.3088-0.28125 2 0 3.866 3.134 7 7 7s7-3.134 7-7c0-0.69117-0.0946-1.3694-0.28125-2h-2.7188c1.6e-4 0.0105 0 0.0207 0 0.0312v0.9688c0 1.0994-0.90065 2-2 2s-2-0.90065-2-2v-0.96875c0-0.042-3e-3 -0.0836 0-0.125-1e-3 -0.0208-1e-3 -0.0417 0-0.0625-0.0109-0.01-0.0213-0.0204-0.0312-0.0312zm-4.9688 4.25c0.99656 0.6369 4.0165 0.9375 5 0.9375s3.8046 0.0308 5-0.9375v0.5c0 0.68098-1.7442 1.4062-5 1.4062s-5-0.87374-5-1.4062z" style="fill:#babdb6"/>
 </g>
</svg>
