<?xml version="1.0" encoding="UTF-8" standalone="no"?>
<svg
   xmlns:dc="http://purl.org/dc/elements/1.1/"
   xmlns:cc="http://creativecommons.org/ns#"
   xmlns:rdf="http://www.w3.org/1999/02/22-rdf-syntax-ns#"
   xmlns:svg="http://www.w3.org/2000/svg"
   xmlns="http://www.w3.org/2000/svg"
   id="svg8"
   viewBox="0 0 16 16"
   version="1.1"
   height="16"
   width="16">
  <metadata
     id="metadata14">
    <rdf:RDF>
      <cc:Work
         rdf:about="">
        <dc:format>image/svg+xml</dc:format>
        <dc:type
           rdf:resource="http://purl.org/dc/dcmitype/StillImage" />
        <dc:title></dc:title>
      </cc:Work>
    </rdf:RDF>
  </metadata>
  <defs
     id="defs12" />
  <path
     style="opacity:0.5;fill:#bebebe"
     id="path2"
     d="m 13.244,9 -5.2441,5.2441 v 0.75586 h 6 c 0.554,0 1,-0.446 1,-1 v -4 c 0,-0.554 -0.446,-1 -1,-1 h -0.75586 z" />
  <path
     style="opacity:0.75;fill:#bebebe"
     id="path4"
     d="m 10.363,2.8086 c -0.25562,0 -0.51116,0.0971 -0.70703,0.29297 l -1.6562,1.6562 v 8.4863 l 5.8984,-5.8984 c 0.39174,-0.39174 0.39174,-1.0243 0,-1.416 l -2.8281,-2.8281 C 10.8742,2.9057 10.61866,2.8086 10.36304,2.8086 Z" />
  <path
     style="fill:#bebebe"
     id="path6"
     d="M 2,1 C 1.446,1 1,1.446 1,2 v 12 c 0,0.554 0.446,1 1,1 h 4 c 0.554,0 1,-0.446 1,-1 V 2 C 7,1.446 6.554,1 6,1 Z m 2,11 a 1,1 0 0 1 1,1 1,1 0 0 1 -1,1 1,1 0 0 1 -1,-1 1,1 0 0 1 1,-1 z" />
</svg>
