<?xml version="1.0" encoding="UTF-8" standalone="no"?>
<svg
   width="22"
   height="22"
   version="1"
   id="svg1"
   sodipodi:docname="envy-intel-dark.svg"
   inkscape:version="1.4.2 (ebf0e940d0, 2025-05-08)"
   xmlns:inkscape="http://www.inkscape.org/namespaces/inkscape"
   xmlns:sodipodi="http://sodipodi.sourceforge.net/DTD/sodipodi-0.dtd"
   xmlns="http://www.w3.org/2000/svg"
   xmlns:svg="http://www.w3.org/2000/svg">
  <sodipodi:namedview
     id="namedview1"
     pagecolor="#ffffff"
     bordercolor="#000000"
     borderopacity="0.25"
     inkscape:showpageshadow="2"
     inkscape:pageopacity="0.0"
     inkscape:pagecheckerboard="0"
     inkscape:deskcolor="#d1d1d1"
     inkscape:zoom="36.318182"
     inkscape:cx="10.986233"
     inkscape:cy="11"
     inkscape:window-width="1920"
     inkscape:window-height="1008"
     inkscape:window-x="0"
     inkscape:window-y="0"
     inkscape:window-maximized="1"
     inkscape:current-layer="svg1" />
  <defs
     id="defs1">
    <style
       id="current-color-scheme"
       type="text/css">
   .ColorScheme-Text { color:#dfdfdf; } .ColorScheme-Highlight { color:#4285f4; } .ColorScheme-NeutralText { color:#ff9800; } .ColorScheme-PositiveText { color:#4caf50; } .ColorScheme-NegativeText { color:#f44336; }
  </style>
  </defs>
  <path
     style="fill:#202020;fill-opacity:1"
     class="ColorScheme-Text"
     d="M 4,3 C 2.892,3 2,3.892 2,5 V 17 C 2,18.108 2.892,19 4,19 H 18 C 19.108,19 20,18.108 20,17 V 5 C 20,3.892 19.108,3 18,3 Z M 3,7 H 4 V 8 H 3 Z M 10,8 H 11 V 9 H 12 V 10 H 11 V 12 C 11,12.258 11.053,13 11.324,13 H 12 V 14 H 11 C 10.069,14 10,12.83 10,12.199 Z M 18,8 H 19 V 14 C 18.14,13.918 18,13.594 18,13 Z M 3,9 H 4 V 14 C 3.1401,13.918 3,13.094 3,12.5 Z M 5,9 H 7.5 C 8.4976,8.9884 9,9.8671 9,10.5 V 14 H 8 V 10.5 C 8,10.236 7.664,10 7.3301,10 H 6 V 14 H 5 Z M 15.098,9 H 15.1 C 16.306,9.0012 17,10.055 17,11.439 V 12 H 14.145 C 14.191,12.561 14.535,12.969 15.131,12.969 15.634,12.969 15.884,12.818 16.174,12.508 L 16.871,13.232 C 16.422,13.709 15.954,13.998 15.123,13.998 14.039,13.998 13.002,13.359 13.002,11.494 13.002,9.9012 13.906,9.001 15.098,9 Z M 15,10 A 1,1 0 0 0 14,11 H 16 A 1,1 0 0 0 15,10 Z"
     id="path1" />
</svg>
