<?xml version="1.0" encoding="UTF-8" standalone="no"?>
<svg
   width="22"
   height="22"
   viewBox="0 0 22 22"
   version="1.1"
   id="svg1"
   sodipodi:docname="envy-configure-dark.svg"
   inkscape:version="1.4.2 (ebf0e940d0, 2025-05-08)"
   xmlns:inkscape="http://www.inkscape.org/namespaces/inkscape"
   xmlns:sodipodi="http://sodipodi.sourceforge.net/DTD/sodipodi-0.dtd"
   xmlns="http://www.w3.org/2000/svg"
   xmlns:svg="http://www.w3.org/2000/svg">
  <sodipodi:namedview
     id="namedview1"
     pagecolor="#ffffff"
     bordercolor="#000000"
     borderopacity="0.25"
     inkscape:showpageshadow="2"
     inkscape:pageopacity="0.0"
     inkscape:pagecheckerboard="0"
     inkscape:deskcolor="#d1d1d1"
     inkscape:zoom="36.318182"
     inkscape:cx="10.986233"
     inkscape:cy="11"
     inkscape:window-width="1920"
     inkscape:window-height="1008"
     inkscape:window-x="0"
     inkscape:window-y="0"
     inkscape:window-maximized="1"
     inkscape:current-layer="svg1" />
  <defs
     id="defs1">
    <style
       id="current-color-scheme"
       type="text/css">
   .ColorScheme-Text { color:#444444; } .ColorScheme-Highlight { color:#4285f4; } .ColorScheme-NeutralText { color:#ff9800; } .ColorScheme-PositiveText { color:#4caf50; } .ColorScheme-NegativeText { color:#f44336; }
  </style>
  </defs>
  <path
     style="fill:#bbbbbb;fill-opacity:1"
     class="ColorScheme-Text"
     d="M 6.25 1 L 6.0957031 2.84375 A 5.5 5.5 0 0 0 4.4882812 3.7734375 L 2.8125 2.984375 L 1.0625 6.015625 L 2.5839844 7.0722656 A 5.5 5.5 0 0 0 2.5 8 A 5.5 5.5 0 0 0 2.5800781 8.9316406 L 1.0625 9.984375 L 2.8125 13.015625 L 4.484375 12.228516 A 5.5 5.5 0 0 0 6.0957031 13.152344 L 6.2460938 15.001953 L 9.7460938 15.001953 L 9.9003906 13.158203 A 5.5 5.5 0 0 0 11.507812 12.228516 L 13.183594 13.017578 L 14.933594 9.9863281 L 13.412109 8.9296875 A 5.5 5.5 0 0 0 13.496094 8.0019531 A 5.5 5.5 0 0 0 13.416016 7.0703125 L 14.933594 6.0175781 L 13.183594 2.9863281 L 11.511719 3.7734375 A 5.5 5.5 0 0 0 9.9003906 2.8496094 L 9.75 1 L 6.25 1 z M 8 6 A 2 2 0 0 1 10 8 A 2 2 0 0 1 8 10 A 2 2 0 0 1 6 8 A 2 2 0 0 1 8 6 z"
     transform="translate(3 3)"
     id="path1" />
</svg>
