<?xml version="1.0" encoding="UTF-8" standalone="no"?>
<svg
   xmlns:dc="http://purl.org/dc/elements/1.1/"
   xmlns:cc="http://creativecommons.org/ns#"
   xmlns:rdf="http://www.w3.org/1999/02/22-rdf-syntax-ns#"
   xmlns:svg="http://www.w3.org/2000/svg"
   xmlns="http://www.w3.org/2000/svg"
   xmlns:sodipodi="http://sodipodi.sourceforge.net/DTD/sodipodi-0.dtd"
   xmlns:inkscape="http://www.inkscape.org/namespaces/inkscape"
   height="16"
   width="16"
   version="1.1"
   id="svg2"
   inkscape:version="0.92.3 (2405546, 2018-03-11)"
   sodipodi:docname="pomodoro-off-symbolic.svg">
  <metadata
     id="metadata14">
    <rdf:RDF>
      <cc:Work
         rdf:about="">
        <dc:format>image/svg+xml</dc:format>
        <dc:type
           rdf:resource="http://purl.org/dc/dcmitype/StillImage" />
      </cc:Work>
    </rdf:RDF>
  </metadata>
  <defs
     id="defs12" />
  <sodipodi:namedview
     pagecolor="#ffffff"
     bordercolor="#666666"
     borderopacity="1"
     objecttolerance="10"
     gridtolerance="10"
     guidetolerance="10"
     inkscape:pageopacity="0"
     inkscape:pageshadow="2"
     inkscape:window-width="1920"
     inkscape:window-height="1015"
     id="namedview10"
     showgrid="true"
     inkscape:zoom="41.7193"
     inkscape:cx="3.2606393"
     inkscape:cy="7.2705308"
     inkscape:window-x="0"
     inkscape:window-y="0"
     inkscape:window-maximized="1"
     inkscape:current-layer="svg2"
     showguides="true"
     inkscape:guide-bbox="true">
    <inkscape:grid
       type="xygrid"
       id="grid4148" />
    <sodipodi:guide
       position="-16,-1"
       orientation="1,0"
       id="guide837"
       inkscape:locked="false" />
  </sodipodi:namedview>
  <path
     d="m 7.91118,5.9914 a 0.50005,0.50005 0 0 0 -0.41,0.5 v 2.5 h -1.5 a 0.50005,0.50005 0 1 0 0,1 h 2 a 0.50005,0.50005 0 0 0 0.5,-0.5 v -3 a 0.50005,0.50005 0 0 0 -0.59375,-0.5 z"
     style="color:#000000;text-indent:0;text-transform:none;fill:#bebebe;opacity:0.35"
     id="path59045"
     inkscape:connector-curvature="0" />
  <path
     style="color:#000000;text-indent:0;text-transform:none;fill:#bebebe;stroke-width:1.0824945;opacity:0.35"
     d="M 7.984375 2 C 4.1259648 2 1 5.1508271 1 9 C 1 12.849173 4.1259648 16 7.984375 16 C 8.684551 16 9.360682 15.894033 10 15.701172 L 10 13.570312 C 9.3825147 13.843188 8.703988 14 7.9882812 14 C 5.2322739 14 3 11.749409 3 9 C 3 6.2505908 5.2322739 4 7.9882812 4 C 10.744284 4 13 6.2505908 13 9 C 13 9.3423493 12.964996 9.6765006 12.898438 10 L 14.919922 10 C 14.967539 9.6724452 15 9.3401547 15 9 C 15 5.1508271 11.842785 2 7.984375 2 z "
     id="path59049" />
  <path
     d="M 4.2812,0 C 2.475,0 1,1.4751 1,3.2812 c 0,0.40491 0.0842,0.76711 0.21875,1.125 1.206,-1.8223 3.184,-3.1023 5.4688,-3.3438 -0.6,-0.65 -1.46,-1.06 -2.41,-1.06 z"
     style="color:#000000;fill:#bebebe;opacity:0.35"
     id="path59561-6"
     inkscape:connector-curvature="0"
     sodipodi:nodetypes="cscccc" />
  <path
     d="m 11.71835,0 c 1.8062,0 3.2812,1.4751 3.2812,3.2812 0,0.40491 -0.0842,0.76711 -0.21875,1.125 -1.206,-1.8223 -3.184,-3.1023 -5.4688,-3.3438 0.6,-0.65 1.46,-1.06 2.41,-1.06 z"
     style="color:#000000;fill:#bebebe;opacity:0.35"
     id="path59561-6-7"
     inkscape:connector-curvature="0"
     sodipodi:nodetypes="cscccc" />
  <path
     inkscape:connector-curvature="0"
     d="m 11,11 h 1.375 L 13.5,12.0938 14.5938,11 H 16 v 1.4688 L 14.9062,13.5313 16,14.5938 V 16 H 14.5625 L 13.5,14.9375 12.4375,16 H 11 V 14.5938 L 12.0625,13.5313 11,12.4688 Z"
     style="color:#bebebe;fill:#bebebe"
     id="path3761-2-3-5-4-8-9-8-0-1-7-8-3" />
</svg>
