<?xml version="1.0" encoding="UTF-8" standalone="no"?>
<svg
   xmlns:dc="http://purl.org/dc/elements/1.1/"
   xmlns:cc="http://creativecommons.org/ns#"
   xmlns:rdf="http://www.w3.org/1999/02/22-rdf-syntax-ns#"
   xmlns:svg="http://www.w3.org/2000/svg"
   xmlns="http://www.w3.org/2000/svg"
   xmlns:sodipodi="http://sodipodi.sourceforge.net/DTD/sodipodi-0.dtd"
   xmlns:inkscape="http://www.inkscape.org/namespaces/inkscape"
   height="16"
   width="16"
   version="1.1"
   id="svg2"
   inkscape:version="0.92.3 (2405546, 2018-03-11)"
   sodipodi:docname="pomodoro-pause-symbolic.svg">
  <metadata
     id="metadata14">
    <rdf:RDF>
      <cc:Work
         rdf:about="">
        <dc:format>image/svg+xml</dc:format>
        <dc:type
           rdf:resource="http://purl.org/dc/dcmitype/StillImage" />
      </cc:Work>
    </rdf:RDF>
  </metadata>
  <defs
     id="defs12" />
  <sodipodi:namedview
     pagecolor="#ffffff"
     bordercolor="#666666"
     borderopacity="1"
     objecttolerance="10"
     gridtolerance="10"
     guidetolerance="10"
     inkscape:pageopacity="0"
     inkscape:pageshadow="2"
     inkscape:window-width="1920"
     inkscape:window-height="1015"
     id="namedview10"
     showgrid="false"
     inkscape:zoom="20.85965"
     inkscape:cx="17.476804"
     inkscape:cy="2.5630551"
     inkscape:window-x="0"
     inkscape:window-y="0"
     inkscape:window-maximized="1"
     inkscape:current-layer="svg2"
     showguides="true"
     inkscape:guide-bbox="true">
    <inkscape:grid
       type="xygrid"
       id="grid4148" />
    <sodipodi:guide
       position="-16,-1"
       orientation="1,0"
       id="guide837"
       inkscape:locked="false" />
  </sodipodi:namedview>
  <path
     style="color:#000000;text-indent:0;text-transform:none;fill:#bebebe;stroke-width:1.0824945"
     d="M 7.984375,2 C 4.1259648,2 1,5.1508271 1,9 1,12.849173 4.1259648,16 7.984375,16 11.842785,16 15,12.849173 15,9 15,5.1508271 11.842785,2 7.984375,2 Z m 0.00391,2 C 10.744288,4 13,6.2505908 13,9 13,11.749409 10.744288,14 7.9882812,14 5.2322739,14 3,11.749409 3,9 3,6.2505908 5.2322739,4 7.9882812,4 Z"
     id="path59049"
     inkscape:connector-curvature="0" />
  <path
     d="M 4.2812,0 C 2.475,0 1,1.4751 1,3.2812 c 0,0.40491 0.0842,0.76711 0.21875,1.125 1.206,-1.8223 3.184,-3.1023 5.4688,-3.3438 -0.6,-0.65 -1.46,-1.06 -2.41,-1.06 z"
     style="color:#000000;fill:#bebebe"
     id="path59561-6"
     inkscape:connector-curvature="0"
     sodipodi:nodetypes="cscccc" />
  <path
     d="m 11.71835,0 c 1.8062,0 3.2812,1.4751 3.2812,3.2812 0,0.40491 -0.0842,0.76711 -0.21875,1.125 -1.206,-1.8223 -3.184,-3.1023 -5.4688,-3.3438 0.6,-0.65 1.46,-1.06 2.41,-1.06 z"
     style="color:#000000;fill:#bebebe"
     id="path59561-6-7"
     inkscape:connector-curvature="0"
     sodipodi:nodetypes="cscccc" />
  <g
     transform="translate(-5.077993,5.0169492)"
     style="font-style:normal;font-weight:bold;font-size:4px;line-height:125%;font-family:Sans;-inkscape-font-specification:'Sans Bold';letter-spacing:0px;word-spacing:0px;fill:#bebebe;fill-opacity:1;stroke:none"
     id="text3805" />
  <path
     inkscape:connector-curvature="0"
     d="m 6,6 h 4 V 6.9765625 L 7.4415869,10 10,10.000001 V 11 H 6 V 10 L 8.6063525,7 H 6 V 6"
     style="font-style:normal;font-weight:bold;font-size:8px;line-height:125%;font-family:Sans;-inkscape-font-specification:'Sans Bold';letter-spacing:0px;word-spacing:0px;fill:#bebebe;fill-opacity:1;stroke:none"
     id="path3889"
     sodipodi:nodetypes="ccccccccccc" />
</svg>
