<?xml version="1.0" encoding="UTF-8" standalone="no"?>
<svg height="24" width="24" viewBox="0 0 512.00096 512.00096">
   <path d="M 324.99993,265.87702 V 62.846638 C 324.99993,29.300995 304.3548,4.0369263 252.51657,2.0076946 201.50946,0.01099701 180.72111,37.570705 180.72111,71.116347 V 265.87702 c -38.22194,21.74846 -60.33544,61.75121 -61.92329,113.35492 -0.11296,40.87497 8.19957,66.00486 34.18428,92.16318 23.52256,23.26457 46.15845,39.7225 95.02467,41.13295 1.28317,0.0375 3.27442,-0.64275 4.55181,-0.64275 56.136,-1.93691 73.3118,-15.0113 99.85105,-38.06659 24.06868,-27.11033 36.50438,-40.16932 37.37469,-94.14293 -0.27378,-55.85636 -26.40602,-91.9667 -64.78439,-113.79874 z m -2.95653,185.1034 c -19.54619,18.86944 -45.35479,28.8236 -72.6204,27.99361 -25.69419,-0.76947 -49.97629,-11.63146 -68.37399,-30.5859 -18.39477,-18.95156 -28.47491,-43.48254 -28.38221,-69.07551 0.13469,-37.72588 21.39564,-71.64905 55.48416,-88.52994 3.94515,-1.95251 6.43622,-5.95982 6.43622,-10.34181 V 71.116347 c 0,-20.807519 17.01456,-37.735965 37.92794,-37.735965 20.91336,0 37.92793,16.928446 37.92793,37.735965 V 280.44233 c 0,4.3834 2.49252,8.38784 6.43622,10.34179 34.2261,16.94862 55.48562,51.01014 55.48562,88.89163 9.7e-4,27.1031 -10.76662,52.42662 -30.32149,71.30467 z" />
   <path d="M 264.1261,307.43591 V 162.11177 c 0,-6.37915 -5.19793,-11.55221 -11.61098,-11.55221 -6.4116,0 -11.61099,5.17162 -11.61099,11.55221 v 145.32414 c -35.04871,5.5549 -61.92328,35.83101 -61.92328,72.23984 0,40.3398 32.98782,73.16064 73.53283,73.16064 40.545,0 73.5328,-32.82084 73.5328,-73.16064 0.003,-36.40883 -26.87166,-66.68494 -61.92038,-72.23984 z" />
   <path d="m 440.04793,76.258249 h -70.31809 c -12.13496,0 -21.9756,8.712355 -21.9756,19.46136 0,10.746591 9.8379,19.461361 21.9756,19.461361 h 70.31809 c 12.13497,0 21.97561,-8.71234 21.97561,-19.461361 0,-10.746592 -9.84064,-19.46136 -21.97561,-19.46136 z" />
   <path d="m 439.32319,137.24241 h -72.63714 c -12.53517,0 -22.70035,8.86 -22.70035,19.79117 0,10.92873 10.16234,19.79119 22.70035,19.79119 h 72.63714 c 12.53517,0 22.70035,-8.85999 22.70035,-19.79119 0,-10.92869 -10.16518,-19.79117 -22.70035,-19.79117 z" />
   <path d="m 439.32319,207.31144 h -72.63714 c -12.53517,0 -22.70035,8.85999 -22.70035,19.79118 0,10.92872 10.16234,19.79118 22.70035,19.79118 h 72.63714 c 12.53517,0 22.70035,-8.85999 22.70035,-19.79118 0,-10.92872 -10.16518,-19.79118 -22.70035,-19.79118 z" />
</svg>
