<?xml version="1.0" encoding="UTF-8" standalone="no"?>
<svg
   width="48px"
   height="48px"
   viewBox="0 0 48 48"
   version="1.1"
   id="svg4"
   xmlns="http://www.w3.org/2000/svg"
   xmlns:svg="http://www.w3.org/2000/svg">
  <defs
     id="defs8" />
  <path
     d="M 11.994534,5.0686945 C 8.2165864,5.1089661 5.4506961,4.9881511 3.192336,6.1023344 A 5.6459,5.0473843 0 0 0 0.67570612,8.7817437 C 0.1801883,9.9603617 0,11.359131 0,13.123031 v 21.478231 c 0,1.766584 0.1801883,3.165355 0.67570612,4.341287 0.49251468,1.178618 1.38444668,2.120976 2.51662988,2.67941 2.2583601,1.116868 5.0242504,0.993368 8.802198,1.03364 h 24.061144 c 3.777948,-0.03759 6.543838,0.08054 8.805202,-1.03364 a 5.6459,5.0473843 0 0 0 2.51663,-2.67941 c 0.492515,-1.175932 0.672703,-2.577387 0.672703,-4.341287 V 13.123031 c 0,-1.766585 -0.180188,-3.1626693 -0.675706,-4.3412873 A 5.6459,5.0473843 0 0 0 44.86088,6.1023344 C 42.599516,4.9854663 39.833626,5.1089661 36.055678,5.0686945 H 12.006547 Z M 16.499242,15.80781 a 1.5015692,1.3423895 0 0 1 1.462529,0.969205 l 4.820036,14.865621 2.837966,-6.899882 a 1.5015692,1.3423895 0 0 1 2.750875,-0.134239 l 2.591708,4.623189 h 14.084718 v 2.684779 H 30.031383 a 1.5015692,1.3423895 0 0 1 -1.342402,-0.743684 l -1.450517,-2.590811 -3.213358,7.823445 a 1.5015692,1.3423895 0 0 1 -2.852981,-0.0886 L 16.496239,21.891518 13.45406,30.963386 a 1.5015692,1.3423895 0 0 1 -1.441506,0.953096 H 3.0031383 V 29.231704 H 10.898389 L 15.08176,16.763591 a 1.5015692,1.3423895 0 0 1 1.417482,-0.955781 z"
     style="line-height:normal;font-variant-ligatures:normal;font-variant-position:normal;font-variant-caps:normal;font-variant-numeric:normal;font-variant-alternates:normal;font-feature-settings:normal;text-indent:0;text-align:start;text-decoration-line:none;text-decoration-style:solid;text-decoration-color:#000000;text-transform:none;text-orientation:mixed;shape-padding:0;isolation:auto;mix-blend-mode:normal;stroke-width:2.8395;marker:none"
     color="#000000"
     font-weight="400"
     font-family="sans-serif"
     white-space="normal"
     overflow="visible"
     fill="#808080"
     id="path2" />
</svg>
