<svg xmlns="http://www.w3.org/2000/svg" width="340" height="240" version="1">
	<path fill="#dfdbd2" d="M318.682 76.8C304.556 7.407 171.32 3.012 85.432 55.88v5.84c85.774-44.62 207.48-44.334 218.556 19.588 3.732 21.176-8.022 43.2-29.097 55.872v16.584c25.37-9.38 51.304-39.744 43.792-76.964M162.504 198.297c-59.27 5.53-121.03-3.173-129.676-50.033-4.293-23.075 6.16-47.565 19.947-62.76v-8.136c-24.862 22.054-38.367 49.95-30.57 82.886 9.945 42.267 62.946 66.192 143.86 58.226 32.037-3.117 73.964-13.55 103.06-29.733v-22.992c-26.442 15.958-70.177 29.143-106.62 32.542z" />
	<path fill="#dfdbd2" d="M264.38 66.77h-15.54v70.05c0 8.228 3.9 15.384 15.54 16.52M79.275 92.37h-15.54v45.755c0 8.23 3.9 15.383 15.54 16.517M63.736 68.897h15.54V83.8h-15.54zM172.39 153.906c-12.598 0-17.91-8.857-17.91-17.598v-60.77h15.37V92.37h11.638v12.602H169.85v30.4c0 3.574 1.695 5.535 5.366 5.535h6.272v13h-9.097M213.243 104.207c-5.253 0-9.32 2.752-11.016 6.47-1.017 2.243-1.357 3.946-1.524 6.7h23.787c-.34-6.727-3.336-13.17-11.247-13.17m-12.54 23.786c0 7.976 4.97 13.848 13.67 13.848 6.84 0 10.23-1.93 14.185-5.87l9.493 9.223c-6.102 6.072-12.487 9.763-23.787 9.763-14.747 0-28.874-8.146-28.874-31.875 0-20.292 12.316-31.76 28.533-31.76 16.443 0 25.877 13.426 25.877 31.053v5.62h-39.097M121.144 104.972c4.52 0 6.385 2.243 6.385 5.904v43.115h15.425v-43.17c0-8.77-4.634-18.45-18.138-18.45h-31.81v61.62h15.367v-49.018" />
	<text fill="#dfdbd2" style="line-height:125%;text-align:start" x="271.313" y="77.54" transform="scale(1.007 .993)" font-size="14.443" font-family="Arial">
		<tspan x="271.313" y="77.54">®</tspan>
	</text>
</svg>
