<?xml version="1.0" encoding="UTF-8" standalone="no"?>
<svg
   xmlns:dc="http://purl.org/dc/elements/1.1/"
   xmlns:cc="http://creativecommons.org/ns#"
   xmlns:rdf="http://www.w3.org/1999/02/22-rdf-syntax-ns#"
   xmlns:svg="http://www.w3.org/2000/svg"
   xmlns="http://www.w3.org/2000/svg"
   xml:space="preserve"
   style="enable-background:new 0 0 496.159 496.159;"
   viewBox="0 0 496.159 496.159"
   y="0px"
   x="0px"
   id="Layer_1"
   version="1.1"><metadata
   id="metadata45"><rdf:RDF><cc:Work
       rdf:about=""><dc:format>image/svg+xml</dc:format><dc:type
         rdf:resource="http://purl.org/dc/dcmitype/StillImage" /><dc:title></dc:title></cc:Work></rdf:RDF></metadata><defs
   id="defs43" />
<path
   id="path2"
   d="M496.159,248.086c0-137.022-111.07-248.082-248.076-248.082C111.071,0.004,0,111.063,0,248.086  c0,137.001,111.07,248.07,248.083,248.07C385.089,496.155,496.159,385.086,496.159,248.086z"
   style="fill:#006600;" />
<g
   id="g8">
	<path
   id="path4"
   d="M259.432,128.917c-3.409-1.851-7.559-1.688-10.813,0.425l-95.137,61.791h-35.164   c-5.845,0-10.583,4.738-10.583,10.582v92.728c0,5.845,4.738,10.583,10.583,10.583h35.164l95.137,61.79   c1.748,1.135,3.754,1.708,5.765,1.708c1.733,0,3.471-0.426,5.049-1.283c3.41-1.852,5.534-5.42,5.534-9.301V138.219   C264.966,134.339,262.842,130.768,259.432,128.917z"
   style="fill:#FFFFFF;" />
	<path
   id="path6"
   d="M355.405,248.079l30.384-30.384c3.515-3.516,3.515-9.213,0-12.729   c-3.515-3.514-9.213-3.514-12.728,0l-30.384,30.385l-30.384-30.385c-3.515-3.514-9.213-3.514-12.728,0   c-3.515,3.516-3.515,9.213,0,12.729l30.385,30.384l-30.384,30.384c-3.515,3.516-3.515,9.213,0,12.729   c1.757,1.757,4.061,2.636,6.364,2.636c2.303,0,4.606-0.879,6.364-2.636l30.384-30.385l30.384,30.385   c1.757,1.757,4.061,2.636,6.364,2.636c2.303,0,4.606-0.879,6.364-2.636c3.515-3.516,3.515-9.213,0-12.729L355.405,248.079z"
   style="fill:#FFFFFF;" />
</g>
<g
   id="g10">
</g>
<g
   id="g12">
</g>
<g
   id="g14">
</g>
<g
   id="g16">
</g>
<g
   id="g18">
</g>
<g
   id="g20">
</g>
<g
   id="g22">
</g>
<g
   id="g24">
</g>
<g
   id="g26">
</g>
<g
   id="g28">
</g>
<g
   id="g30">
</g>
<g
   id="g32">
</g>
<g
   id="g34">
</g>
<g
   id="g36">
</g>
<g
   id="g38">
</g>
<path
   id="path3781"
   d="m 300.21824,290.54734 c -4.84414,-4.84414 -2.40472,-9.25626 14.29881,-25.86182 l 16.82166,-16.72299 -16.82166,-16.9095 c -17.41032,-17.50124 -19.78429,-22.44646 -12.61691,-26.28233 5.66246,-3.03045 8.69155,-1.10669 26.18034,16.62706 l 14.61732,14.82206 17.18692,-16.77574 c 9.45281,-9.22666 18.18101,-16.77574 19.39601,-16.77574 1.21499,0 3.69575,1.48667 5.5128,3.30372 1.81704,1.81705 3.30372,4.29781 3.30372,5.5128 0,1.21499 -7.54909,9.94319 -16.77574,19.396 l -16.77574,17.18692 14.82206,14.61732 c 17.73374,17.48879 19.65751,20.51788 16.62705,26.18035 -3.86501,7.22184 -9.02009,4.74713 -26.2823,-12.61692 l -16.72299,-16.82165 -16.9095,16.82165 c -16.84383,16.75633 -21.06853,19.09214 -25.86185,14.29881 z"
   style="fill:#006600;fill-opacity:1;stroke-width:2.10236859" /><path
   id="path3783"
   d="m 301.19935,289.56624 c -3.63981,-3.63981 -0.18043,-9.37732 14.36618,-23.82685 8.67227,-8.61439 15.76777,-16.56434 15.76777,-17.66656 0,-1.10222 -7.17087,-9.37278 -15.93527,-18.37904 -16.12672,-16.57173 -18.94076,-23.24141 -10.32286,-24.46666 2.85222,-0.40552 9.18351,4.44425 19.8984,15.24217 8.64333,8.71032 16.55702,15.83693 17.58597,15.83693 1.02896,0 9.24948,-7.1805 18.26784,-15.95668 16.49503,-16.05207 23.21027,-18.93339 24.80668,-10.64386 0.48427,2.51458 -4.75674,9.48255 -15.21803,20.23252 -8.77617,9.01835 -15.95668,17.23888 -15.95668,18.26783 0,1.02895 7.12662,8.94264 15.83693,17.58597 10.79793,10.71489 15.64769,17.04618 15.24217,19.89841 -1.22525,8.61789 -7.89492,5.80385 -24.46666,-10.32286 -9.00625,-8.7644 -17.27682,-15.93527 -18.37903,-15.93527 -1.10222,0 -9.05218,7.09549 -17.66657,15.76776 -14.44953,14.54661 -20.18704,18.006 -23.82684,14.36619 z"
   style="fill:#006600;fill-opacity:1;stroke-width:2.10236859" /><path
   id="path3785"
   d="m 299.79777,286.17676 c 0,-3.12032 4.8179,-9.53532 13.81586,-18.39573 7.59872,-7.48257 14.70179,-15.21224 15.7846,-17.17705 1.57033,-2.84946 -1.25294,-7.01734 -13.95123,-20.59565 -16.0455,-17.15749 -18.96943,-24.18644 -10.06117,-24.18644 2.68308,0 10.98926,6.16709 20.71354,15.37919 l 16.23424,15.3792 5.53728,-4.81205 c 3.0455,-2.64664 10.86081,-9.89557 17.36736,-16.10874 7.56931,-7.22802 13.2396,-11.02522 15.74362,-10.54299 7.44294,1.43337 5.75844,8.21366 -4.80857,19.355 -5.62521,5.93095 -12.90542,13.77094 -16.17822,17.42219 l -5.95056,6.63864 16.15027,16.9043 c 10.34758,10.83068 15.88984,18.25657 15.42545,20.66801 -1.50493,7.81444 -7.98257,5.00033 -24.89353,-10.81461 l -17.05379,-15.94853 -5.64422,4.0866 c -3.10432,2.24764 -10.81526,9.36356 -17.13543,15.81316 -12.57032,12.82777 -21.0955,15.63056 -21.0955,6.9355 z"
   style="fill:#006600;fill-opacity:1;stroke-width:2.10236859" /><path
   id="path3787"
   d="M 206.83562,491.73704 C 116.53336,476.54659 41.568712,411.40678 12.734117,323.07441 -4.8478838,269.21341 -1.954452,204.5685 20.388361,152.06366 64.725678,47.872498 173.64655,-12.9204 285.71921,3.9723713 385.13537,18.957418 467.17763,95.632178 489.18302,194.12479 c 30.77994,137.76618 -60.9431,273.77099 -200.69808,297.59051 -22.25859,3.79373 -59.16778,3.80355 -81.64932,0.0217 z m 55.47956,-126.46098 c 3.63361,-3.28838 3.84469,-9.66852 3.84469,-116.21366 0,-98.63071 -0.40944,-113.31883 -3.27276,-117.40681 -1.80003,-2.56989 -5.34777,-4.6537 -7.88388,-4.6307 -2.53613,0.023 -26.37064,14.20365 -52.9656,31.51254 l -48.35448,31.47073 -19.44691,0.023 c -29.21013,0.0345 -27.85639,-2.7535 -27.85639,57.37033 0,61.26021 -1.35797,58.28294 26.58376,58.28294 h 20.03822 l 48.46949,31.53553 c 26.65821,17.34454 50.38868,31.53553 52.73433,31.53553 2.34566,0 5.99495,-1.56572 8.10953,-3.4794 z m 63.58919,-86.87578 17.1834,-16.77228 16.6739,16.77228 c 9.17064,9.22475 17.87869,16.77228 19.35119,16.77228 3.31863,0 11.08676,-7.56119 11.08676,-10.79142 0,-1.31007 -7.51587,-10.05056 -16.70191,-19.4233 l -16.70189,-17.04134 16.70189,-17.11128 c 9.18604,-9.41121 16.70191,-18.17294 16.70191,-19.47052 0,-3.05698 -7.71176,-10.76873 -10.76873,-10.76873 -1.29759,0 -10.05931,7.51585 -19.47052,16.70191 l -17.11129,16.70189 -17.04133,-16.70189 c -9.37274,-9.18606 -18.11323,-16.70191 -19.4233,-16.70191 -3.23023,0 -10.79142,7.76812 -10.79142,11.08675 0,1.4725 7.73852,10.22361 17.19674,19.44691 16.73442,16.31878 16.88984,16.4137 5.78152,3.53091 -17.89261,-20.75082 -19.43148,-23.01042 -18.07625,-26.54212 2.39626,-6.24454 8.77354,-3.18734 25.55862,12.25253 l 16.79523,15.44922 17.27355,-15.68212 c 17.46154,-15.85279 24.29016,-18.56423 25.33541,-10.05994 0.33281,2.70768 -4.95257,10.10748 -14.98413,20.97849 l -15.4983,16.79523 15.68211,17.27355 c 15.48794,17.05965 18.41524,23.96849 10.77868,25.43916 -1.97038,0.37946 -10.96928,-6.09798 -20.90827,-15.0498 l -17.44903,-15.71601 -11.65433,10.13144 c -6.40987,5.57229 -13.94787,12.5921 -16.7511,15.59956 -2.80326,3.00743 -7.29707,5.46809 -9.98626,5.46809 -8.53982,0 -6.10582,-8.43035 5.78921,-20.05153 5.87328,-5.73806 12.63911,-13.27101 15.0352,-16.73992 2.39607,-3.46891 -2.88792,0.77022 -11.74219,9.42029 -8.8543,8.65007 -16.65146,17.46898 -17.32705,19.59757 -1.39078,4.38194 4.43986,11.97833 9.19401,11.97833 1.69653,0 10.81711,-7.54753 20.26797,-16.77228 z"
   style="fill:#006600;fill-opacity:1;stroke-width:2.10236859" /><path
   id="path3789"
   d="M 210.62528,492.57105 C 130.02469,480.81547 55.407614,423.55414 21.980584,347.80464 -1.8964192,293.69659 -5.299042,228.0565 12.875884,172.16565 50.357483,56.903624 165.59486,-14.134036 285.71921,3.9723713 391.53204,19.921591 476.23741,104.62697 492.18663,210.43978 c 20.48532,135.90695 -72.72736,262.03776 -208.55934,282.21219 -17.4744,2.5954 -54.93693,2.55388 -73.00201,-0.0809 z m 52.38635,-128.78458 c 2.85607,-4.35891 3.18467,-18.80502 2.67645,-117.65877 -0.5237,-101.85854 -0.91592,-113.02618 -4.0806,-116.18978 -2.23889,-2.2381 -5.27084,-3.05089 -8.40947,-2.25436 -2.69955,0.68511 -26.1857,14.99875 -52.19141,31.80811 l -47.28314,30.56245 h -19.06524 c -29.08305,0 -27.22718,-3.94081 -27.22718,57.81514 0,61.70683 -1.81591,57.81514 26.97724,57.81514 h 18.81529 l 44.37953,28.62127 c 24.40875,15.74169 46.27166,29.88304 48.58427,31.42524 6.51786,4.34656 13.20895,3.57324 16.82426,-1.94444 z m 62.79612,-85.31582 17.04133,-16.70189 17.11129,16.70189 c 9.41121,9.18604 18.17293,16.70191 19.47052,16.70191 4.32148,0 10.48918,-7.97317 9.39735,-12.14829 -0.58261,-2.22796 -8.06065,-11.00546 -16.61785,-19.50554 L 356.65183,248.064 373.44551,230.8587 c 14.53872,-14.89507 16.55569,-17.84862 15.02131,-21.99644 -0.9748,-2.63512 -3.92838,-5.5887 -6.56351,-6.5635 -4.1478,-1.53437 -7.10136,0.4826 -21.99643,15.02132 l -17.2053,16.79368 -15.45472,-15.55856 c -8.50009,-8.55721 -17.27758,-16.03524 -19.50555,-16.61787 -4.17137,-1.09084 -12.14828,5.07449 -12.14828,9.38936 0,1.29319 6.73132,9.09823 14.95848,17.34454 l 14.95846,14.99329 -12.97357,-15.43264 c -13.12496,-15.61272 -15.14242,-21.9067 -7.37997,-23.02358 2.8814,-0.41458 9.69833,4.43452 21.01828,14.95099 l 16.75376,15.56455 16.80289,-15.49734 c 11.01273,-10.15709 18.25177,-15.30907 21.0076,-14.95098 8.60007,1.1175 5.64698,8.57687 -10.19586,25.75434 l -15.49334,16.79849 15.53043,16.8394 c 10.23887,11.10188 15.3316,18.26473 14.94696,21.02266 -1.14258,8.19211 -7.66331,5.59632 -25.25187,-10.05231 l -17.52921,-15.59583 -16.74383,15.40225 c -17.95411,16.5156 -26.20447,19.7873 -26.20447,10.39146 0,-2.82252 0.84868,-5.65638 1.88599,-6.29746 1.03729,-0.64107 6.8488,-7.08286 12.91449,-14.31507 l 11.02852,-13.14945 -15.01686,14.99329 c -8.25928,8.24631 -15.01688,16.05136 -15.01688,17.34454 0,3.06202 7.72065,10.76073 10.79142,10.76073 1.31007,0 10.05056,-7.51587 19.4233,-16.70191 z"
   style="fill:#006600;fill-opacity:1;stroke-width:2.10236859" /><path
   id="path3791"
   d="M 205.68493,491.8804 C 153.65505,482.00268 110.56151,459.3416 73.68945,422.46955 34.878888,383.65898 11.123119,336.49211 3.2428084,282.59835 -0.60534866,256.28065 1.7175179,212.80823 8.3330932,187.33374 25.330866,121.88068 68.521019,65.348664 126.35235,32.857148 c 96.77134,-54.369267 218.06811,-37.7728363 296.39521,40.554279 86.66105,86.661033 96.56377,222.298073 23.5582,322.674823 -12.95189,17.80782 -41.14827,44.4257 -61.17752,57.75272 -22.51124,14.97845 -49.49055,27.01085 -76.30299,34.03009 -25.63704,6.71154 -78.15793,8.75418 -103.14032,4.01134 z m 55.34278,-126.10732 c 3.91045,-2.85775 4.10982,-6.74501 4.77152,-93.02981 0.37979,-49.52609 0.0442,-101.70215 -0.74567,-115.9468 -1.3563,-24.45808 -1.71028,-26.02423 -6.36097,-28.14323 -5.52841,-2.51891 -9.38356,-0.35759 -70.92534,39.76261 l -33.19169,21.63827 h -19.56727 c -27.53844,0 -27.02441,-0.78211 -28.22087,42.9395 -1.1053,40.39049 0.73672,65.12526 5.18092,69.56946 2.30479,2.30478 8.16934,3.12439 22.41807,3.13303 l 19.29674,0.0126 23.12605,15.05172 c 45.40635,29.55211 75.25448,47.99502 77.67691,47.99502 1.35336,0 4.29707,-1.34207 6.5416,-2.98238 z m 64.71617,-87.34171 17.43799,-16.74116 12.47144,12.69724 c 6.85929,6.98345 15.12395,14.61762 18.36593,16.96477 5.64072,4.08383 6.07063,4.10813 9.98625,0.56454 2.25046,-2.03664 4.09176,-5.46737 4.09176,-7.62381 0,-2.15647 -7.21316,-11.23397 -16.02928,-20.17225 l -16.02926,-16.25144 15.08185,16.61744 c 10.35894,11.41367 14.88475,17.99726 14.45248,21.02368 -1.25589,8.79295 -8.50959,5.98711 -25.83731,-9.99434 l -16.79849,-15.49334 -16.815,15.47257 c -10.55347,9.71094 -18.58553,15.47255 -21.56974,15.47255 -7.91106,0 -5.74522,-7.95402 5.96648,-21.91177 l 10.72122,-12.77731 -12.82358,13.19574 c -7.05297,7.25767 -12.82359,14.11665 -12.82359,15.24218 0,2.70856 7.82533,10.4559 10.56116,10.4559 1.18343,0 9.99879,-7.53353 19.58969,-16.74119 z m 61.65452,-64.90354 c 1.65139,-6.51566 -3.64498,-11.81203 -10.16064,-10.16064 -2.69955,0.68419 -11.53074,8.06764 -19.62486,16.40768 l -14.71658,15.16369 16.81895,-15.12638 c 10.95969,-9.85676 18.28376,-14.92848 21.02369,-14.55833 8.51487,1.15032 5.69519,8.58349 -9.78556,25.79646 l -15.12637,16.81895 15.16369,-14.71658 c 8.34003,-8.09412 15.72349,-16.92531 16.40768,-19.62485 z m -77.04472,12.31744 c -11.29155,-13.03401 -12.88881,-19.5315 -5.07699,-20.65273 3.0014,-0.43079 9.62742,4.12885 21.0022,14.45249 l 16.61743,15.08184 -16.25143,-16.02926 c -8.93829,-8.81611 -18.01579,-16.02927 -20.17225,-16.02927 -2.15644,0 -5.61711,1.87438 -7.69036,4.1653 -4.35853,4.8161 -4.02652,5.44876 11.32901,21.58871 13.17029,13.84307 13.29732,12.4924 0.24239,-2.57708 z"
   style="fill:#006600;fill-opacity:1;stroke-width:2.10236859" /><path
   id="path3793"
   d="M 204.13999,491.68814 C 86.597438,470.06398 1.2614212,367.50741 1.2614212,247.86926 1.2614212,181.12132 26.00088,120.97681 72.645897,74.325284 102.3151,44.651934 132.2839,26.041401 170.34512,13.654351 196.91664,5.0066338 208.90581,2.803846 236.72671,1.4579561 306.31606,-1.9085628 373.36065,24.024504 422.74756,73.411427 c 79.92331,79.923293 95.32419,202.344433 37.81628,300.599953 -32.92083,56.24706 -87.17224,96.95485 -151.73859,113.85768 -26.20285,6.85965 -77.90493,8.74581 -104.68526,3.81908 z M 261.02771,365.7707 c 3.95056,-2.88939 4.08097,-6.53426 4.08097,-114.05349 0,-61.08782 -0.70139,-113.56608 -1.55863,-116.61837 -3.51604,-12.51916 -7.25412,-10.97212 -67.02502,27.73903 l -42.02254,27.21625 H 135.93 c -15.1539,0 -19.48606,0.73977 -23.53572,4.01899 -4.96316,4.01892 -4.96324,4.01978 -4.96324,53.79615 0,49.77637 8e-5,49.77724 4.96324,53.79615 4.03071,3.26388 8.37579,4.01905 23.12605,4.01926 l 18.16282,3e-4 16.81895,10.83872 c 59.70136,38.47368 81.82357,52.23177 83.98573,52.23177 1.35239,0 4.29535,-1.34314 6.53988,-2.98476 z m 64.22772,-87.61137 17.64089,-17.01325 -16.6874,14.91088 c -9.17806,8.20096 -18.45804,14.91086 -20.62216,14.91086 -2.16413,0 -3.35008,0.94606 -2.63544,2.10237 2.31664,3.74839 4.40207,2.35425 22.30411,-14.91086 z m 58.99713,13.53383 c 5.1536,-4.66394 4.84561,-9.73807 -0.88564,-14.59048 l -4.73033,-4.005 3.86342,4.57392 c 2.12488,2.51563 3.53433,6.29989 3.13209,8.40947 -1.52523,7.99903 -8.90818,5.14088 -25.91683,-10.03317 l -16.81895,-15.0048 17.27693,17.06472 c 9.50233,9.3856 17.94242,17.06474 18.75578,17.06474 0.81336,0 3.20895,-1.56572 5.32353,-3.4794 z m -75.71813,-20.17225 c 4.58291,-5.49244 7.87638,-9.98625 7.31881,-9.98625 -0.55757,0 -5.42485,5.16323 -10.81618,11.47384 -6.44464,7.54353 -9.21782,12.40459 -8.09576,14.19099 1.2527,1.99441 1.9133,1.59875 2.48361,-1.48759 0.42733,-2.31261 4.52661,-8.69855 9.10952,-14.19099 z m 69.05098,-2.2615 c 0,-0.37657 -2.60169,-2.97826 -5.78152,-5.78151 l -5.78151,-5.0968 5.09679,5.78152 c 4.76374,5.4037 6.46624,6.74564 6.46624,5.09679 z m 10.51184,-58.00075 c 0,-4.62072 -4.07147,-8.59032 -8.81075,-8.59032 -2.0708,0 -10.15966,6.25247 -17.97526,13.89438 l -14.21018,13.89439 14.71658,-12.90222 c 9.37062,-8.21534 16.24399,-12.68987 18.92132,-12.31762 8.12025,1.12902 5.7808,8.52888 -7.49604,23.71067 l -12.86998,14.71658 13.86215,-14.43061 c 7.62418,-7.93682 13.86216,-16.02569 13.86216,-17.97525 z m -78.81797,13.17562 c -5.31897,-6.52957 -9.38085,-13.37768 -9.02643,-15.21803 0.9436,-4.89977 7.58381,-5.39138 12.84114,-0.95068 l 4.57391,3.86342 -4.00499,-4.73032 c -4.94088,-5.83574 -9.93897,-6.02552 -14.88063,-0.56503 -3.20538,3.54187 -3.35025,4.72185 -0.96804,7.88388 3.67719,4.88094 19.47036,21.58871 20.4069,21.58871 0.40092,0 -3.62291,-5.34237 -8.94186,-11.87195 z m 22.05402,-1.42698 c 0,-0.37657 -2.60169,-2.97826 -5.78152,-5.78151 l -5.78151,-5.0968 5.09679,5.78152 c 4.76374,5.4037 6.46624,6.74564 6.46624,5.09679 z"
   style="fill:#006600;fill-opacity:1;stroke-width:2.10236859" /><path
   id="path3795"
   d="M 202.98653,491.64565 C 155.42226,483.03015 109.62883,458.57499 73.606411,422.55259 25.837272,374.78345 1.2614212,315.4429 1.2614212,247.86926 1.2614212,97.703123 133.50037,-17.567975 282.0657,3.095561 c 79.91843,11.115632 150.46522,61.854027 186.86916,134.399349 74.18104,147.827 -15.41673,325.73393 -178.35676,354.1483 -22.73861,3.96528 -65.70701,3.96648 -87.59157,0.002 z m 57.53296,-125.95963 c 2.38137,-2.38137 3.41647,-12.78701 4.61745,-46.41864 1.49756,-41.93632 -0.27642,-179.02788 -2.41335,-186.5028 -1.21759,-4.25905 -9.23405,-4.89355 -16.14884,-1.27818 -2.52566,1.32054 -24.07055,14.94197 -47.87751,30.26986 l -43.2854,27.86889 -20.48293,0.74008 c -26.39397,0.95365 -26.35149,0.90089 -26.73583,33.20303 -0.15903,13.36555 -0.35433,28.08526 -0.43399,32.71048 -0.81641,47.39987 0.30583,49.40566 27.64232,49.40566 16.78376,0 19.38125,0.56057 27.85638,6.01189 64.18406,41.284 89.52136,57.05917 91.64568,57.05917 1.40062,0 3.92784,-1.38126 5.61602,-3.06944 z m 55.05451,-79.25381 4.16618,-4.92505 -5.37638,4.73033 c -2.95701,2.60168 -7.02686,4.73033 -9.0441,4.73033 -2.01724,0 -3.08144,0.94863 -2.36487,2.10804 1.67527,2.71065 7.13998,-0.16629 12.61917,-6.64365 z m 72.09912,-1.1452 c 0.34487,-2.28128 -0.98971,-5.48409 -2.96573,-7.11738 -3.29641,-2.72463 -3.36413,-2.60238 -0.82083,1.48225 3.37449,5.41959 1.49224,11.31937 -3.60722,11.3065 -2.05982,-0.004 -9.89455,-5.2904 -17.41051,-11.74486 l -13.6654,-11.7354 14.60154,13.83104 c 13.43426,12.72536 14.94687,13.603 18.92132,10.97834 2.37588,-1.569 4.60195,-4.71923 4.94683,-7.00049 z m -83.97916,-7.98459 c 3.43367,-4.17021 3.42327,-4.17185 -1.26823,-0.19972 -2.60168,2.20273 -4.62059,5.987 -4.48646,8.40947 0.23456,4.23604 0.28307,4.24367 1.26824,0.19973 0.56339,-2.31261 2.58229,-6.09687 4.48645,-8.40948 z m 24.61804,-1.57677 6.17485,-6.8327 -6.8327,6.17484 c -6.36904,5.75583 -7.79905,7.49055 -6.17484,7.49055 0.36181,0 3.43653,-3.07471 6.83269,-6.83269 z m -17.73421,-7.35829 c 2.61507,-3.33449 2.54071,-3.40885 -0.79377,-0.79377 -2.02353,1.58697 -3.67915,3.24258 -3.67915,3.67914 0,1.73033 1.72645,0.61665 4.47292,-2.88537 z m -2.32167,-44.86413 c -4.6521,-5.88535 -8.45835,-12.06446 -8.45835,-13.73137 0,-4.47675 6.2188,-6.06653 11.31593,-2.89283 4.04534,2.51882 4.18836,2.45314 1.56646,-0.71939 -5.1046,-6.17653 -15.0037,-2.99409 -14.97118,4.81305 0.0126,2.93432 15.79896,23.23118 18.06902,23.23118 0.51508,0 -2.86978,-4.81529 -7.52188,-10.70064 z m 66.17573,6.4959 c 2.09289,-2.31261 3.33222,-4.20474 2.75406,-4.20474 -0.57815,0 -2.76354,1.89213 -4.85643,4.20474 -2.09288,2.3126 -3.33221,4.20474 -2.75406,4.20474 0.57815,0 2.76355,-1.89214 4.85643,-4.20474 z m 6.71186,-24.85147 c 5.67696,1.09329 5.8245,7.73373 0.31111,14.00159 l -4.9206,5.59396 5.78152,-5.0968 c 6.19973,-5.4655 7.31245,-10.40144 3.25867,-14.45523 -4.44357,-4.44357 -8.77699,-2.71943 -20.60322,8.19743 l -11.56302,10.67391 11.99193,-9.81869 c 6.81365,-5.57884 13.61195,-9.50669 15.74361,-9.09617 z"
   style="fill:#006600;fill-opacity:1;stroke-width:2.10236859" /><path
   id="path3797"
   d="M 203.4639,491.72939 C 129.60827,478.34889 60.97649,426.82801 27.045732,359.2948 -8.1265457,289.29057 -7.3047376,201.16144 29.158606,132.71411 83.215682,31.240637 197.78026,-19.364975 310.23659,8.55598 c 67.52119,16.764338 127.68642,65.896888 159.51876,130.2673 72.93417,147.48533 -16.9793,324.53498 -179.17725,352.81993 -22.54706,3.93187 -65.65192,3.97453 -87.1142,0.0862 z m 57.9093,-128.65098 c 3.45206,-5.26851 3.69276,-13.67488 3.34474,-116.81965 -0.39296,-116.46495 -0.451,-117.17333 -9.60478,-117.17333 -4.986,0 -7.40198,1.41532 -59.38264,34.7875 l -39.945,25.64514 -20.74657,0.90166 c -17.26825,0.75048 -21.23362,1.56774 -23.65165,4.87458 -4.25387,5.81752 -4.22513,99.37168 0.0323,105.19408 2.43442,3.32929 6.48696,4.20806 23.66716,5.13216 l 20.72977,1.11503 43.08304,27.5592 c 42.38377,27.11191 54.1995,34.20984 57.22557,34.3765 0.84057,0.0462 3.20218,-2.47049 5.24804,-5.59287 z m 52.28971,-74.73855 c 3.97089,-4.69005 3.96919,-4.70134 -0.19973,-1.32552 -2.3126,1.87264 -5.62383,3.92661 -7.35829,4.56434 -2.67661,0.98418 -2.6464,1.18467 0.19973,1.32552 1.84432,0.0913 5.15555,-1.96266 7.35829,-4.56434 z m 71.15961,2.82403 c 0.64799,-1.04848 -0.74639,-1.40304 -3.0986,-0.78791 -2.50836,0.65594 -6.20413,-0.51176 -8.93797,-2.82403 l -4.6612,-3.94242 4.00499,4.73033 c 4.08189,4.82115 10.56678,6.26398 12.69278,2.82403 z m -82.11451,-12.81028 c 2.03833,-2.74036 1.86361,-2.77549 -1.33347,-0.26818 -2.02353,1.58697 -3.60444,4.42517 -3.51316,6.3071 0.13876,2.86227 0.35686,2.90613 1.33347,0.26818 0.64213,-1.73445 2.22304,-4.57265 3.51316,-6.3071 z m 62.26318,3.41096 c 0,-0.43655 -1.65561,-2.09217 -3.67914,-3.67914 -3.33448,-2.61507 -3.40884,-2.54071 -0.79377,0.79377 2.74647,3.50202 4.47291,4.61571 4.47291,2.88537 z M 307.40931,222.8126 c -8.79169,-10.7291 -9.52525,-15.30581 -2.88121,-17.97638 2.90169,-1.16633 3.47059,-1.95288 1.47165,-2.03462 -3.99414,-0.16334 -8.30435,3.89406 -8.30435,7.81726 0,2.8095 14.14593,21.48264 16.27427,21.48264 0.57815,0 -2.374,-4.18 -6.56036,-9.2889 z m 76.75138,-4.90209 c 2.61507,-3.33448 2.54071,-3.40885 -0.79377,-0.79377 -3.50202,2.74647 -4.61571,4.47291 -2.88538,4.47291 0.43656,0 2.09218,-1.65561 3.67915,-3.67914 z m 1.77553,-12.15931 c -1.40722,-1.69557 -4.09833,-3.0229 -5.98027,-2.9496 -2.31555,0.0902 -1.89251,0.74794 1.3086,2.03462 2.60168,1.04575 4.80503,3.58746 4.89631,5.64826 0.10281,2.31944 0.57893,2.71878 1.24994,1.04824 0.59617,-1.48425 -0.0673,-4.08594 -1.47458,-5.78152 z m -12.28737,1.64747 c 2.61507,-3.33448 2.54071,-3.40884 -0.79377,-0.79376 -3.50202,2.74646 -4.61571,4.4729 -2.88538,4.4729 0.43656,0 2.09217,-1.65561 3.67915,-3.67914 z"
   style="fill:#006600;fill-opacity:1;stroke-width:2.10236859" /><path
   id="path3799"
   d="M 197.83289,490.6256 C 112.48346,472.69034 41.686171,409.83522 13.62913,327.08618 -3.2394911,277.33532 -2.9585032,216.06589 14.363631,166.92807 37.245558,102.01874 87.076734,48.091405 148.73838,21.507616 204.27492,-2.4354944 268.06859,-5.730541 323.99334,12.45541 c 89.66272,29.157058 155.21428,106.72616 169.07911,200.07629 19.44337,130.90968 -72.86564,258.21653 -202.4725,279.23749 -26.78002,4.34345 -69.14069,3.82126 -92.76706,-1.14359 z m 63.56566,-128.34327 c 3.26685,-6.40285 3.83569,-219.31626 0.60861,-227.80411 -1.32615,-3.48805 -3.65181,-5.39279 -6.58455,-5.39279 -5.2854,0 -6.98382,0.99406 -59.95242,35.08914 l -40.20535,25.87955 -14.45624,0.0118 c -19.22323,0.0155 -29.40146,2.95545 -31.01006,8.95688 -0.69239,2.58323 -1.27182,25.16891 -1.28761,50.1904 -0.0359,56.98632 -0.96692,55.07514 27.35821,56.16394 l 19.3516,0.74384 32.8691,21.17978 c 47.6818,30.72463 65.98479,41.62762 68.49412,40.80155 1.21969,-0.40151 3.38626,-3.02047 4.81459,-5.81992 z m 51.28161,-72.89129 c 2.66897,-3.40323 2.57004,-3.44784 -1.31937,-0.59491 -2.3126,1.69634 -4.59893,3.35196 -5.08073,3.67915 -0.48178,0.32719 0.11185,0.59491 1.31937,0.59491 1.20743,0 3.49375,-1.65562 5.08073,-3.67915 z m 68.0588,2.15785 c -2.31261,-0.56844 -5.62384,-2.11431 -7.35829,-3.43527 -2.74269,-2.08881 -2.77763,-1.92236 -0.26818,1.27742 1.58697,2.02353 4.8982,3.5694 7.35829,3.43527 4.24845,-0.23164 4.2619,-0.29574 0.26818,-1.27742 z m -74.63409,-70.75301 c 0,-0.43655 -1.65561,-2.09217 -3.67914,-3.67914 -3.33449,-2.61508 -3.40885,-2.54071 -0.79377,0.79377 2.74647,3.50202 4.47291,4.61571 4.47291,2.88537 z m -5.69719,-11.82334 c 0.60517,-2.3142 0.24249,-3.67746 -0.80598,-3.02948 -1.04847,0.64799 -1.9063,2.54143 -1.9063,4.20765 0,4.35138 1.42856,3.73084 2.71228,-1.17817 z"
   style="fill:#006600;fill-opacity:1;stroke-width:2.10236859" /><path
   id="path3801"
   d="M 207.12408,492.77315 C 132.17431,480.08815 63.129019,429.36378 28.243847,361.35817 9.2608527,324.35247 1.2614212,290.7066 1.2614212,247.86926 1.2614212,178.21901 25.598579,120.57109 75.816021,71.270297 108.29665,39.382549 142.74999,19.820177 187.71382,7.7354898 c 18.66914,-5.0176067 24.32927,-5.5559451 59.52473,-5.6614279 33.48155,-0.100346 41.456,0.5321972 57.30611,4.5455922 92.77942,23.4925869 161.50331,92.2053559 184.98538,184.9554859 4.02248,15.88817 4.65611,23.8547 4.56107,57.34531 -0.1005,35.42367 -0.60998,40.71152 -5.70953,59.26688 -12.54591,45.64978 -33.39426,82.05114 -65.51414,114.38803 -36.55678,36.80381 -81.48896,60.50852 -131.22895,69.23201 -18.61451,3.26464 -67.62253,3.82467 -84.51441,0.96578 z m 55.571,-136.02611 c 1.71509,-10.37819 1.27622,-212.07429 -0.4793,-220.27764 -2.67408,-12.49567 -8.23384,-10.13706 -68.53889,29.07615 l -35.78901,23.27171 -20.76812,1.48914 c -14.81379,1.06219 -21.74554,2.46655 -24.17724,4.89825 -2.94989,2.9499 -3.40911,10.04405 -3.40911,52.66461 0,59.48928 -1.57571,56.09305 26.65069,57.44256 l 19.39072,0.92708 29.53851,18.99637 c 58.84235,37.84182 68.75683,43.49445 72.64114,41.41563 1.99347,-1.06687 4.21672,-5.52359 4.94061,-9.90386 z m 48.65083,-65.75515 c 0.73654,-1.19175 -0.10743,-1.54419 -1.97829,-0.82625 -3.64218,1.39763 -4.30857,2.90455 -1.28446,2.90455 1.08806,0 2.55631,-0.93524 3.26275,-2.0783 z m 70.44423,1.27231 c 0,-0.44328 -1.89343,-1.30111 -4.20764,-1.9063 -2.3142,-0.60517 -3.67746,-0.24249 -3.02947,0.80599 1.1316,1.83097 7.23711,2.75923 7.23711,1.10031 z m -82.65859,-83.68295 c -0.67112,-1.67713 -1.1693,-1.17896 -1.27017,1.27019 -0.0912,2.21623 0.40559,3.45795 1.10421,2.75935 0.69859,-0.69861 0.77327,-2.51191 0.16587,-4.02954 z"
   style="fill:#006600;fill-opacity:1;stroke-width:2.10236859" /><path
   id="path3803"
   d="M 207.12408,492.77315 C 172.36031,486.88951 129.21314,468.24679 100.78941,446.82887 55.874119,412.98418 22.555552,363.96233 8.1122112,310.47223 2.984906,291.48353 2.5613403,286.71147 2.5556151,247.86926 2.549829,208.61242 2.9299944,204.42662 8.2839063,184.7982 34.457517,88.84095 115.27963,17.19292 213.56064,2.8223346 239.87835,-1.0258225 283.35077,1.2970441 308.82525,7.9126194 404.09205,32.652844 475.44291,110.0873 492.34597,207.08086 c 4.93739,28.33183 3.16649,73.54551 -3.9444,100.70591 -25.00992,95.52675 -101.93017,167.50067 -196.66832,184.02163 -18.70835,3.26245 -67.73039,3.82143 -84.60917,0.96475 z m 54.07189,-129.79921 c 2.17385,-4.46049 3.72663,-195.00889 1.76578,-216.68381 -1.59543,-17.63541 -3.76091,-19.67769 -15.12083,-14.26052 -4.0837,1.94738 -25.99375,15.52037 -48.68897,30.1622 l -41.26407,26.62151 -21.02368,1.74906 c -13.83619,1.1511 -22.09333,2.81788 -24.15243,4.87541 -2.47409,2.4722 -3.29319,11.04514 -3.91469,40.9723 -0.84247,40.56745 0.45058,58.23282 4.68648,64.02577 2.07352,2.83571 6.99762,3.87302 22.47856,4.73535 l 19.8234,1.10423 36.79145,23.50038 c 55.01444,35.14023 57.44482,36.57268 62.32053,36.73099 2.47798,0.0805 5.31229,-1.50934 6.29847,-3.53287 z"
   style="fill:#006600;fill-opacity:1;stroke-width:2.10236859" /><path
   id="path3805"
   d="M 196.7817,490.90457 C 106.15205,470.88737 32.376185,400.33251 8.1122112,310.47223 2.9834585,291.47817 2.5618127,286.72242 2.5618127,247.86926 c 0,-39.05758 0.4028229,-43.54227 5.665152,-63.07106 C 11.342798,173.23518 19.049041,153.24621 25.35195,140.37827 67.779932,53.757858 152.3249,0.84094745 248.28974,0.84094745 c 113.63516,0 210.07231,74.88673855 240.16044,186.49279255 5.08258,18.85279 5.55105,23.96167 5.55105,60.53552 0,36.57386 -0.46847,41.68274 -5.55105,60.53552 -19.56843,72.58531 -66.44101,129.96258 -132.66945,162.40226 -35.83811,17.55406 -57.07022,22.33893 -103.28626,23.27665 -31.30355,0.63514 -40.93053,0.0858 -55.71277,-3.17912 z m 64.60779,-130.03299 c 0.88926,-3.17984 1.61683,-55.17921 1.61683,-115.55415 0,-102.26597 -0.25479,-110.02749 -3.72584,-113.49952 -3.56659,-3.56757 -4.12546,-3.51491 -13.07358,1.23206 -5.14124,2.72743 -27.2985,16.52361 -49.23834,30.65818 l -39.89063,25.69922 -19.15189,1.35944 c -26.63197,1.89039 -26.65719,1.91125 -28.45879,23.53927 -1.6857,20.23656 -0.27462,77.93487 2.03797,83.33188 2.16208,5.04575 6.31121,6.21673 26.41016,7.45344 l 17.87014,1.09959 34.68908,22.26189 c 44.53359,28.57967 61.06111,38.20021 65.6256,38.20021 2.21277,0 4.31509,-2.29795 5.28929,-5.78151 z"
   style="fill:#006600;fill-opacity:1;stroke-width:2.10236859" /><path
   id="path3807"
   d="M 196.7817,490.90457 C 136.82341,477.66171 80.598382,440.15764 44.74184,389.48866 31.064849,370.16169 15.167618,335.97301 8.2179956,310.94032 2.71214,291.10811 2.3864762,287.5337 2.4715877,247.86926 2.5550559,208.97069 2.9860589,204.24749 8.2269647,184.7982 30.611162,101.72923 96.705089,34.183059 178.91522,10.359496 203.73571,3.1667995 220.14564,0.93317689 248.53994,0.88259243 361.65311,0.68108082 457.29074,74.871557 488.35801,186.92043 c 5.42195,19.5551 5.82362,23.75902 5.82362,60.94883 0,37.18926 -0.40188,41.39541 -5.8253,60.96869 -20.31704,73.32473 -66.30505,129.50877 -132.5756,161.96909 -35.83811,17.55406 -57.07022,22.33893 -103.28626,23.27665 -31.30355,0.63514 -40.93053,0.0858 -55.71277,-3.17912 z m 63.31746,-127.70193 c 2.33701,-2.81593 2.86763,-24.06541 2.8854,-115.55291 0.0189,-102.78342 -0.27577,-112.40018 -3.5573,-115.68379 -3.37127,-3.37343 -4.16456,-3.27641 -13.66539,1.67117 -5.54748,2.88887 -27.76701,16.62439 -49.3767,30.52337 l -39.29035,25.27087 -19.08138,1.44045 c -23.17273,1.74931 -24.9465,2.36868 -26.92141,9.40047 -2.02901,7.22447 -2.02901,87.96951 0,95.19399 1.97236,7.02273 4.22228,7.82524 26.47281,9.44251 l 18.22068,1.32439 39.5424,25.1458 c 60.05788,38.19201 59.65166,37.99241 64.77124,31.82368 z"
   style="fill:#006600;fill-opacity:1;stroke-width:2.10236859" /><path
   id="path3809"
   d="M 203.32714,492.64905 C 172.30498,487.15857 128.87749,467.8135 101.0744,447.09989 81.591665,432.58503 56.018285,406.39547 43.917272,388.56555 23.519648,358.51122 7.5510816,318.02326 3.1774781,285.27067 -0.71388576,256.12943 1.8299267,208.30356 8.577425,183.74702 30.362452,104.46357 89.757271,41.140877 168.14497,13.627025 204.77408,0.77031548 250.88301,-2.7363892 291.5434,4.2422505 380.50185,19.510394 454.49472,83.862925 483.52439,171.21056 c 19.29792,58.06565 15.51735,123.85297 -10.35414,180.17757 -23.58416,51.34482 -65.53291,94.01876 -117.38952,119.41891 -35.98216,17.62462 -57.08984,22.36119 -103.28626,23.17758 -20.81345,0.36781 -42.93875,-0.23319 -49.16733,-1.33557 z m 56.56315,-129.19474 c 2.05746,-2.47909 2.70665,-28.14035 2.8854,-114.05349 0.24799,-119.19713 -5.7e-4,-122.19352 -9.87588,-119.05922 -5.08784,1.61482 -33.73217,19.08869 -71.06961,43.35452 l -24.41216,15.86561 -19.25934,1.52432 c -30.02979,2.37677 -28.5377,-0.57982 -28.5377,56.54739 0,57.6916 -1.29269,54.98047 27.2432,57.13632 l 18.92132,1.42947 28.38197,18.05768 c 44.53351,28.33392 67.95625,42.39618 70.61697,42.39618 1.3481,0 3.64573,-1.43945 5.10583,-3.19878 z"
   style="fill:#006600;fill-opacity:1;stroke-width:2.10236859" /><path
   id="path3811"
   d="m 199.10401,491.64658 c -22.08582,-4.79109 -39.95853,-11.36288 -63.291,-23.27213 -27.305,-13.9369 -44.601465,-26.84771 -66.434648,-49.58966 C 50.009722,398.60995 38.644975,382.65401 26.838411,359.05923 8.2894682,321.9902 1.2614212,291.98122 1.2614212,249.84837 c 0,-32.80225 2.9064481,-53.96209 10.5799508,-77.02529 C 41.217648,84.530831 115.41893,19.6317 204.94098,3.9311625 c 20.68524,-3.62781558 58.30322,-4.019248 81.56486,-0.8487203 19.19653,2.6164608 53.53061,13.5847078 72.51878,23.1666158 68.75505,34.695514 120.1675,103.418502 133.17635,178.016692 3.65188,20.94149 4.05383,58.50134 0.87558,81.81961 -2.61647,19.19654 -13.58471,53.53062 -23.16661,72.51879 -34.99773,69.35397 -104.1631,121.26456 -177.47046,133.19672 -23.7874,3.87185 -75.16738,3.78691 -93.33547,-0.15431 z M 259.7788,362.58656 c 1.42148,-2.65607 2.17633,-42.62218 2.17633,-115.22845 0,-126.70301 0.62935,-121.87427 -14.86158,-114.02802 -5.12362,2.59514 -27.47115,16.34427 -49.66119,30.55362 l -40.34553,25.83519 -19.34057,1.51298 c -28.5758,2.23544 -27.16167,-0.7133 -27.16167,56.63738 0,57.27433 -1.26947,54.5645 26.59932,56.77939 l 18.60161,1.47838 40.99618,25.7274 c 55.0434,34.5428 55.34496,34.72272 58.26677,34.76323 1.4047,0.0189 3.53335,-1.79451 4.73033,-4.0311 z"
   style="fill:#006600;fill-opacity:1;stroke-width:2.10236859" /><path
   id="path3813"
   d="M 199.10401,491.64658 C 168.65846,485.04203 134.37725,470.33371 107.75903,452.45513 90.918374,441.14379 54.855589,405.00166 43.40422,387.9587 23.965352,359.02803 9.8755916,324.88737 4.347223,293.32039 c -3.96048998,-22.6144 -3.96048998,-68.28786 0,-90.90226 C 21.649076,103.62454 104.61926,21.525763 204.94098,3.9311625 227.58275,-0.03979166 269.0415,-0.02698022 291.89326,3.9580329 392.03843,21.42189 474.7371,104.12057 492.20097,204.26575 c 3.99473,22.90758 3.99473,64.29944 0,87.20704 -5.89548,33.80709 -23.06754,74.18928 -43.24494,101.69565 -38.58717,52.60302 -100.78024,91.15668 -160.43453,99.45385 -22.52862,3.13343 -73.01471,2.58255 -89.41749,-0.97571 z M 259.9048,361.2603 c 2.25628,-5.93448 2.93684,-212.50018 0.73635,-223.5026 -2.39994,-11.99968 -4.73804,-11.00339 -66.09252,28.16252 l -36.92215,23.56942 -20.51786,2.11461 c -11.28482,1.16303 -21.63273,3.22947 -22.99535,4.59209 -3.63194,3.63194 -3.48954,99.85629 0.15315,103.499 1.44686,1.44685 11.85359,3.66695 23.12606,4.93352 l 20.4954,2.3029 39.94501,25.38349 c 39.69535,25.22485 55.18406,34.33784 58.36163,34.33784 0.91297,0 2.58259,-2.42674 3.71028,-5.39279 z"
   style="fill:#006600;fill-opacity:1;stroke-width:2.10236859" /></svg>
