<?xml version="1.0" standalone="no"?>
<!DOCTYPE svg PUBLIC "-//W3C//DTD SVG 20010904//EN"
 "http://www.w3.org/TR/2001/REC-SVG-20010904/DTD/svg10.dtd">
<svg version="1.0" xmlns="http://www.w3.org/2000/svg"
 width="409.000000pt" height="405.000000pt" viewBox="0 0 409.000000 405.000000"
 preserveAspectRatio="xMidYMid meet">

<g transform="translate(0.000000,405.000000) scale(0.100000,-0.100000)"
fill="#ffffff" stroke="none">
<path d="M1750 4035 c-333 -46 -675 -185 -934 -380 -412 -310 -685 -744 -787
-1253 -41 -204 -37 -559 7 -782 163 -811 811 -1446 1624 -1592 107 -19 160
-23 365 -23 212 0 254 3 355 23 305 62 537 155 766 308 567 379 903 1010 904
1697 l0 127 -108 0 -108 0 -61 -132 c-53 -116 -63 -146 -73 -230 -52 -435
-298 -852 -665 -1130 -150 -113 -356 -215 -538 -268 -110 -31 -259 -60 -313
-60 l-34 0 0 110 0 110 -130 0 -130 0 0 -111 0 -112 -71 7 c-568 53 -1124 470
-1353 1015 -68 162 -126 391 -126 497 l0 34 95 0 95 0 0 135 0 135 -98 0 -98
0 7 71 c30 276 144 562 322 802 113 153 290 319 451 421 210 134 484 232 705
252 l71 7 0 -107 0 -106 130 0 130 0 0 275 0 275 -152 -1 c-84 -1 -196 -7
-248 -14z"/>
<path d="M3675 3281 c-126 -59 -275 -129 -330 -155 l-100 -48 102 -51 102 -52
-394 -819 c-217 -451 -395 -821 -395 -823 0 -2 115 -2 256 -1 l256 3 346 721
347 721 109 -54 c59 -30 111 -52 114 -48 8 8 -162 708 -173 711 -6 1 -113 -46
-240 -105z"/>
<path d="M700 2591 c0 -9 456 -964 542 -1134 22 -44 43 -76 47 -71 5 5 62 123
129 262 l121 252 -167 350 -167 349 -252 1 c-153 0 -253 -4 -253 -9z"/>
<path d="M2010 2592 c0 -5 105 -227 233 -493 128 -266 260 -539 292 -606 32
-67 61 -121 64 -118 4 2 62 118 130 258 l123 253 -171 355 -170 354 -251 3
c-137 1 -250 -1 -250 -6z"/>
<path d="M1644 1949 c-159 -331 -291 -605 -292 -610 -2 -6 102 -8 253 -7 l257
3 152 315 c83 173 157 329 164 346 12 29 7 42 -109 285 -66 139 -124 257 -128
262 -4 4 -137 -263 -297 -594z"/>
</g>
</svg>
