<?xml version="1.0" encoding="UTF-8" standalone="no"?>
<svg
   enable-background="new 0 0 64 64"
   height="64px"
   id="Layer_1"
   version="1.1"
   viewBox="0 0 64 64"
   width="64px"
   xml:space="preserve"
   sodipodi:docname="sun-full.svg"
   inkscape:version="1.2.2 (b0a8486541, 2022-12-01)"
   xmlns:inkscape="http://www.inkscape.org/namespaces/inkscape"
   xmlns:sodipodi="http://sodipodi.sourceforge.net/DTD/sodipodi-0.dtd"
   xmlns="http://www.w3.org/2000/svg"
   xmlns:svg="http://www.w3.org/2000/svg"><defs
     id="defs19" /><sodipodi:namedview
     id="namedview17"
     pagecolor="#ffffff"
     bordercolor="#000000"
     borderopacity="0.25"
     inkscape:showpageshadow="2"
     inkscape:pageopacity="0.0"
     inkscape:pagecheckerboard="0"
     inkscape:deskcolor="#d1d1d1"
     showgrid="false"
     inkscape:zoom="12.3125"
     inkscape:cx="30.335025"
     inkscape:cy="32"
     inkscape:window-width="1860"
     inkscape:window-height="968"
     inkscape:window-x="0"
     inkscape:window-y="40"
     inkscape:window-maximized="1"
     inkscape:current-layer="Layer_1" /><circle
     cx="32"
     cy="32"
     fill="#4F5D73"
     r="32"
     id="circle2" /><g
     opacity="0.2"
     id="g8"><path
       d="M54.5,32.5h-2.576c-0.119-1.603-0.416-3.155-0.891-4.631l2.371-0.965c0.767-0.312,1.136-1.188,0.823-1.955   c-0.312-0.767-1.187-1.137-1.955-0.823l-2.383,0.97c-0.744-1.491-1.661-2.876-2.737-4.127l1.818-1.818   c0.586-0.586,0.586-1.536,0-2.121c-0.586-0.586-1.535-0.586-2.121,0l-1.818,1.818c-1.19-1.025-2.501-1.909-3.911-2.633l0.998-2.368   c0.322-0.764-0.037-1.643-0.8-1.965c-0.762-0.32-1.643,0.036-1.965,0.8l-0.997,2.367c-1.544-0.518-3.17-0.848-4.856-0.973V11.5   c0-0.829-0.671-1.5-1.5-1.5c-0.829,0-1.5,0.671-1.5,1.5v2.576c-1.603,0.119-3.155,0.416-4.631,0.891l-0.965-2.371   c-0.312-0.767-1.187-1.137-1.955-0.823c-0.767,0.312-1.136,1.188-0.823,1.955l0.97,2.383c-1.491,0.744-2.876,1.661-4.127,2.737   l-1.818-1.818c-0.586-0.586-1.535-0.586-2.121,0c-0.586,0.585-0.586,1.536,0,2.121l1.818,1.818   c-1.025,1.19-1.909,2.501-2.633,3.911l-2.368-0.998c-0.764-0.321-1.643,0.036-1.965,0.8c-0.322,0.764,0.037,1.643,0.8,1.965   l2.367,0.997c-0.518,1.544-0.847,3.17-0.973,4.856H9.5C8.671,32.5,8,33.171,8,34s0.671,1.5,1.5,1.5h2.576   c0.119,1.603,0.416,3.155,0.891,4.631l-2.371,0.965c-0.767,0.312-1.136,1.188-0.823,1.955c0.237,0.582,0.798,0.935,1.39,0.935   c0.189,0,0.38-0.036,0.565-0.111l2.383-0.97c0.744,1.491,1.661,2.876,2.737,4.127l-1.818,1.818c-0.586,0.586-0.586,1.536,0,2.121   c0.293,0.293,0.677,0.439,1.061,0.439c0.384,0,0.768-0.146,1.061-0.439l1.818-1.818c1.19,1.025,2.501,1.909,3.911,2.633   l-0.997,2.368c-0.322,0.764,0.037,1.643,0.8,1.965c0.191,0.08,0.388,0.118,0.582,0.118c0.585,0,1.141-0.345,1.383-0.918   l0.997-2.367c1.544,0.518,3.17,0.847,4.856,0.973V56.5c0,0.829,0.671,1.5,1.5,1.5c0.829,0,1.5-0.671,1.5-1.5v-2.576   c1.603-0.119,3.155-0.416,4.631-0.891l0.965,2.371c0.237,0.582,0.798,0.935,1.39,0.935c0.188,0,0.38-0.036,0.566-0.111   c0.767-0.312,1.136-1.188,0.823-1.955l-0.97-2.383c1.491-0.744,2.876-1.661,4.127-2.737l1.818,1.818   c0.293,0.293,0.677,0.439,1.061,0.439s0.767-0.146,1.061-0.439c0.586-0.585,0.586-1.536,0-2.121l-1.818-1.818   c1.025-1.19,1.909-2.501,2.633-3.911l2.368,0.997c0.191,0.08,0.388,0.118,0.582,0.118c0.585,0,1.141-0.345,1.383-0.918   c0.322-0.764-0.037-1.643-0.8-1.965l-2.367-0.997c0.518-1.544,0.847-3.17,0.973-4.856H54.5c0.829,0,1.5-0.671,1.5-1.5   S55.329,32.5,54.5,32.5z M49,34c0,9.374-7.626,17-17,17c-9.374,0-17-7.626-17-17s7.626-17,17-17C41.374,17,49,24.626,49,34z"
       fill="#231F20"
       id="path4" /><path
       d="M32,20c-7.732,0-14,6.268-14,14s6.268,14,14,14s14-6.268,14-14S39.732,20,32,20z M21,34   c0-6.065,4.935-11,11-11v22C25.935,45,21,40.065,21,34z"
       fill="#231F20"
       id="path6" /></g><g
     id="g14"
     transform="rotate(-45,32,32)"><path
       d="m 54.5,30.5 h -2.576 c -0.119,-1.603 -0.416,-3.155 -0.891,-4.631 l 2.371,-0.965 c 0.767,-0.312 1.136,-1.188 0.823,-1.955 -0.312,-0.767 -1.187,-1.137 -1.955,-0.823 l -2.383,0.97 C 49.145,21.605 48.228,20.22 47.152,18.969 l 1.818,-1.818 c 0.586,-0.586 0.586,-1.536 0,-2.121 -0.586,-0.586 -1.535,-0.586 -2.121,0 l -1.818,1.818 C 43.841,15.823 42.53,14.939 41.12,14.215 l 0.998,-2.368 c 0.322,-0.764 -0.037,-1.643 -0.8,-1.965 -0.762,-0.32 -1.643,0.036 -1.965,0.8 l -0.997,2.367 C 36.812,12.531 35.186,12.201 33.5,12.076 V 9.5 C 33.5,8.671 32.829,8 32,8 31.171,8 30.5,8.671 30.5,9.5 v 2.576 c -1.603,0.119 -3.155,0.416 -4.631,0.891 L 24.904,10.596 C 24.592,9.829 23.717,9.459 22.949,9.773 c -0.767,0.312 -1.136,1.188 -0.823,1.955 l 0.97,2.383 c -1.491,0.744 -2.876,1.661 -4.127,2.737 L 17.151,15.03 c -0.586,-0.586 -1.535,-0.586 -2.121,0 -0.586,0.585 -0.586,1.536 0,2.121 l 1.818,1.818 c -1.025,1.19 -1.909,2.501 -2.633,3.911 l -2.368,-0.998 c -0.764,-0.321 -1.643,0.036 -1.965,0.8 -0.322,0.764 0.037,1.643 0.8,1.965 l 2.367,0.997 c -0.518,1.544 -0.847,3.17 -0.973,4.856 H 9.5 C 8.671,30.5 8,31.171 8,32 c 0,0.829 0.671,1.5 1.5,1.5 h 2.576 c 0.119,1.603 0.416,3.155 0.891,4.631 l -2.371,0.965 c -0.767,0.312 -1.136,1.188 -0.823,1.955 0.237,0.582 0.798,0.935 1.39,0.935 0.189,0 0.38,-0.036 0.565,-0.111 l 2.383,-0.97 c 0.744,1.491 1.661,2.876 2.737,4.127 L 15.03,46.85 c -0.586,0.586 -0.586,1.536 0,2.121 0.293,0.293 0.677,0.439 1.061,0.439 0.384,0 0.768,-0.146 1.061,-0.439 l 1.818,-1.818 c 1.19,1.025 2.501,1.909 3.911,2.633 l -0.997,2.368 c -0.322,0.764 0.037,1.643 0.8,1.965 0.191,0.08 0.388,0.118 0.582,0.118 0.585,0 1.141,-0.345 1.383,-0.918 l 0.997,-2.367 c 1.544,0.518 3.17,0.847 4.856,0.973 V 54.5 c 0,0.829 0.671,1.5 1.5,1.5 0.829,0 1.5,-0.671 1.5,-1.5 v -2.576 c 1.603,-0.119 3.155,-0.416 4.631,-0.891 l 0.965,2.371 c 0.237,0.582 0.798,0.935 1.39,0.935 0.188,0 0.38,-0.036 0.566,-0.111 0.767,-0.312 1.136,-1.188 0.823,-1.955 l -0.97,-2.383 c 1.491,-0.744 2.876,-1.661 4.127,-2.737 l 1.818,1.818 c 0.293,0.293 0.677,0.439 1.061,0.439 0.384,0 0.767,-0.146 1.061,-0.439 0.586,-0.585 0.586,-1.536 0,-2.121 l -1.818,-1.818 c 1.025,-1.19 1.909,-2.501 2.633,-3.911 l 2.368,0.997 c 0.191,0.08 0.388,0.118 0.582,0.118 0.585,0 1.141,-0.345 1.383,-0.918 0.322,-0.764 -0.037,-1.643 -0.8,-1.965 l -2.367,-0.997 c 0.518,-1.544 0.847,-3.17 0.973,-4.856 H 54.5 c 0.829,0 1.5,-0.671 1.5,-1.5 0,-0.829 -0.671,-1.5 -1.5,-1.5 z M 49,32 c 0,9.374 -7.626,17 -17,17 -9.374,0 -17,-7.626 -17,-17 0,-9.374 7.626,-17 17,-17 9.374,0 17,7.626 17,17 z"
       fill="#e0e0d1"
       id="path10" /><path
       d="m 32,18 c -7.732,0 -14,6.268 -14,14 0,7.732 6.268,14 14,14 7.732,0 14,-6.268 14,-14 0,-7.732 -6.268,-14 -14,-14 z m -0.266126,14.793038 c 0,0 0.156032,-0.206979 0.01761,-0.210151 0.130246,0.08593 -0.01234,0.147212 -0.01761,0.210151 z"
       fill="#e0e0d1"
       id="path12"
       sodipodi:nodetypes="sssssccc" /></g></svg>
