<?xml version="1.0" encoding="UTF-8" standalone="no"?>
<svg
   height="16px"
   viewBox="0 0 16 16"
   width="16px"
   version="1.1"
   id="svg1"
   sodipodi:docname="night-light-is-day-symbolic.svg"
   inkscape:version="1.3.2 (1:1.3.2+202404261509+091e20ef0f)"
   xmlns:inkscape="http://www.inkscape.org/namespaces/inkscape"
   xmlns:sodipodi="http://sodipodi.sourceforge.net/DTD/sodipodi-0.dtd"
   xmlns="http://www.w3.org/2000/svg"
   xmlns:svg="http://www.w3.org/2000/svg">
  <defs
     id="defs1" />
  <sodipodi:namedview
     id="namedview1"
     pagecolor="#ffffff"
     bordercolor="#000000"
     borderopacity="0.25"
     inkscape:showpageshadow="2"
     inkscape:pageopacity="0.0"
     inkscape:pagecheckerboard="0"
     inkscape:deskcolor="#d1d1d1"
     inkscape:zoom="42.5625"
     inkscape:cx="7.9882526"
     inkscape:cy="6.6138032"
     inkscape:window-width="1536"
     inkscape:window-height="928"
     inkscape:window-x="0"
     inkscape:window-y="0"
     inkscape:window-maximized="1"
     inkscape:current-layer="svg1" />
  <path
     d="M 8,0 C 7.449219,0 7,0.449219 7,1 7,1.550781 7.449219,2 8,2 8.550781,2 9,1.550781 9,1 9,0.449219 8.550781,0 8,0 Z M 3.050781,2.050781 c -0.257812,0 -0.511719,0.097657 -0.707031,0.292969 -0.390625,0.390625 -0.390625,1.023438 0,1.414062 0.390625,0.390626 1.023438,0.390626 1.414062,0 0.390626,-0.390624 0.390626,-1.023437 0,-1.414062 C 3.5625,2.148438 3.308594,2.050781 3.050781,2.050781 Z m 9.898438,0 c -0.257813,0 -0.511719,0.097657 -0.707031,0.292969 -0.390626,0.390625 -0.390626,1.023438 0,1.414062 0.390624,0.390626 1.023437,0.390626 1.414062,0 0.390625,-0.390624 0.390625,-1.023437 0,-1.414062 C 13.460938,2.148438 13.207031,2.050781 12.949219,2.050781 Z M 8,3 C 5.238281,3 3,5.238281 3,8 c 0,2.761719 2.238281,5 5,5 2.761719,0 5,-2.238281 5,-5 C 13,5.238281 10.761719,3 8,3 Z M 1,7 C 0.449219,7 0,7.449219 0,8 0,8.550781 0.449219,9 1,9 1.550781,9 2,8.550781 2,8 2,7.449219 1.550781,7 1,7 Z m 14,0 c -0.550781,0 -1,0.449219 -1,1 0,0.550781 0.449219,1 1,1 0.550781,0 1,-0.449219 1,-1 C 16,7.449219 15.550781,7 15,7 Z M 3.050781,11.949219 c -0.257812,0 -0.511719,0.09766 -0.707031,0.292969 -0.390625,0.390624 -0.390625,1.023437 0,1.414062 0.390625,0.390625 1.023438,0.390625 1.414062,0 0.390626,-0.390625 0.390626,-1.023438 0,-1.414062 C 3.5625,12.046875 3.308594,11.949219 3.050781,11.949219 Z m 9.898438,0 c -0.257813,0 -0.511719,0.09766 -0.707031,0.292969 -0.390626,0.390624 -0.390626,1.023437 0,1.414062 0.390624,0.390625 1.023437,0.390625 1.414062,0 0.390625,-0.390625 0.390625,-1.023438 0,-1.414062 -0.195312,-0.195313 -0.449219,-0.292969 -0.707031,-0.292969 z M 8,14 c -0.550781,0 -1,0.449219 -1,1 0,0.550781 0.449219,1 1,1 0.550781,0 1,-0.449219 1,-1 0,-0.550781 -0.449219,-1 -1,-1 z"
     fill="#808080"
     id="path1"
     sodipodi:nodetypes="sssssssccsssscsssssssssssssssssssssssssssssssssss" />
</svg>
