<?xml version="1.0" encoding="UTF-8" standalone="no"?>
<!-- Created with Inkscape (http://www.inkscape.org/) -->

<svg
   xmlns:dc="http://purl.org/dc/elements/1.1/"
   xmlns:cc="http://creativecommons.org/ns#"
   xmlns:rdf="http://www.w3.org/1999/02/22-rdf-syntax-ns#"
   xmlns:svg="http://www.w3.org/2000/svg"
   xmlns="http://www.w3.org/2000/svg"
   xmlns:sodipodi="http://sodipodi.sourceforge.net/DTD/sodipodi-0.dtd"
   xmlns:inkscape="http://www.inkscape.org/namespaces/inkscape"
   width="16"
   height="16"
   id="svg5238"
   version="1.1"
   inkscape:version="0.48.3.1 r9886"
   sodipodi:docname="New document 13">
  <defs
     id="defs5240" />
  <sodipodi:namedview
     id="base"
     pagecolor="#ffffff"
     bordercolor="#666666"
     borderopacity="1.0"
     inkscape:pageopacity="0.0"
     inkscape:pageshadow="2"
     inkscape:zoom="15.839192"
     inkscape:cx="15.800423"
     inkscape:cy="3.1431788"
     inkscape:document-units="px"
     inkscape:current-layer="layer1"
     showgrid="false"
     fit-margin-top="0"
     fit-margin-left="0"
     fit-margin-right="0"
     fit-margin-bottom="0"
     inkscape:window-width="1151"
     inkscape:window-height="673"
     inkscape:window-x="1"
     inkscape:window-y="29"
     inkscape:window-maximized="0" />
  <metadata
     id="metadata5243">
    <rdf:RDF>
      <cc:Work
         rdf:about="">
        <dc:format>image/svg+xml</dc:format>
        <dc:type
           rdf:resource="http://purl.org/dc/dcmitype/StillImage" />
        <dc:title></dc:title>
      </cc:Work>
    </rdf:RDF>
  </metadata>
  <g
     inkscape:label="Layer 1"
     inkscape:groupmode="layer"
     id="layer1"
     transform="translate(-272,-392.93362)">
    <path
       style="fill:#bebebe;fill-opacity:1"
       d="M 3.4375 0 C 1.533125 0 0 1.533125 0 3.4375 L 0 12.5625 C 0 14.466875 1.533125 16 3.4375 16 L 12.5625 16 C 14.466875 16 16 14.466875 16 12.5625 L 16 3.4375 C 16 1.533125 14.466875 0 12.5625 0 L 3.4375 0 z M 2.84375 2.5 A 10.765199 10.713849 0 0 1 13.59375 13.1875 L 11.46875 13.1875 A 8.6121577 8.5710802 0 0 0 2.84375 4.625 L 2.84375 2.5 z M 2.8125 6.125 A 7.1219231 7.1359988 0 0 1 9.9375 13.25 L 7.84375 13.25 A 5.0344639 5.0444137 0 0 0 2.8125 8.21875 L 2.8125 6.125 z M 4.21875 10.375 C 5.02544 10.375 5.6875 11.03544 5.6875 11.84375 C 5.6875 12.65206 5.02544 13.3125 4.21875 13.3125 C 3.41206 13.3125 2.78125 12.65206 2.78125 11.84375 C 2.78125 11.03544 3.41206 10.375 4.21875 10.375 z "
       transform="translate(272,392.93362)"
       id="rect20" />
  </g>
</svg>
