<?xml version="1.0" encoding="UTF-8"?>
<svg xmlns="http://www.w3.org/2000/svg" xmlns:xlink="http://www.w3.org/1999/xlink" width="256" height="256" viewBox="0 0 256 256">
<path fill-rule="nonzero" fill="rgb(84%, 25%, 18%)" fill-opacity="1" d="M 229.761719 142.71875 C 229.761719 186.042969 184.199219 221.160156 128 221.160156 C 71.800781 221.160156 26.238281 186.042969 26.238281 142.71875 C 26.238281 99.398438 71.800781 64.28125 128 64.28125 C 184.199219 64.28125 229.761719 99.398438 229.761719 142.71875 "/>
<path fill-rule="nonzero" fill="rgb(32%, 64%, 30%)" fill-opacity="1" d="M 132.453125 91.203125 L 92.789062 90.3125 L 85.832031 55.703125 L 121.042969 53.203125 Z M 132.453125 91.203125 "/>
<path fill-rule="nonzero" fill="rgb(32%, 64%, 30%)" fill-opacity="1" d="M 128 93.410156 L 104.679688 61.3125 L 128 34.8125 L 151.320312 61.3125 Z M 128 93.410156 "/>
<path fill-rule="nonzero" fill="rgb(32%, 64%, 30%)" fill-opacity="1" d="M 123.546875 91.203125 L 134.957031 53.203125 L 170.167969 55.703125 L 163.210938 90.3125 Z M 123.546875 91.203125 "/>
<path fill="none" stroke-width="19.08" stroke-linecap="butt" stroke-linejoin="miter" stroke="rgb(25.6%, 51.2%, 24%)" stroke-opacity="1" stroke-miterlimit="10" d="M 128 87.8125 L 128 56.011719 "/>
</svg>
