<?xml version="1.0" encoding="UTF-8" standalone="no"?>
<svg
   height="16px"
   viewBox="0 0 16 16"
   width="16px"
   version="1.1"
   id="svg1"
   sodipodi:docname="night-light-is-night-symbolic.svg"
   inkscape:version="1.3.2 (1:1.3.2+202404261509+091e20ef0f)"
   xmlns:inkscape="http://www.inkscape.org/namespaces/inkscape"
   xmlns:sodipodi="http://sodipodi.sourceforge.net/DTD/sodipodi-0.dtd"
   xmlns="http://www.w3.org/2000/svg"
   xmlns:svg="http://www.w3.org/2000/svg">
  <defs
     id="defs1" />
  <sodipodi:namedview
     id="namedview1"
     pagecolor="#ffffff"
     bordercolor="#000000"
     borderopacity="0.25"
     inkscape:showpageshadow="2"
     inkscape:pageopacity="0.0"
     inkscape:pagecheckerboard="0"
     inkscape:deskcolor="#d1d1d1"
     inkscape:zoom="42.5625"
     inkscape:cx="7.9882526"
     inkscape:cy="6.6138032"
     inkscape:window-width="1536"
     inkscape:window-height="928"
     inkscape:window-x="0"
     inkscape:window-y="0"
     inkscape:window-maximized="1"
     inkscape:current-layer="svg1" />
  <path
     d="M 8,3 C 5.238281,3 3,5.238281 3,8 c 0,2.761719 2.238281,5 5,5 2.761719,0 5,-2.238281 5,-5 C 13,5.238281 10.761719,3 8,3 Z M 8,5 C 8.183594,5 8.367188,5.019531 8.550781,5.050781 7.640625,5.261719 7,6.070312 7,7 7,8.105469 7.894531,9 9,9 9.929688,9 10.738281,8.355469 10.949219,7.449219 10.980469,7.628906 11,7.816406 11,8 11,9.65625 9.65625,11 8,11 6.34375,11 5,9.65625 5,8 5,6.34375 6.34375,5 8,5 Z"
     fill="#808080"
     id="path1"
     sodipodi:nodetypes="sssssscsscssss" />
</svg>
