<?xml version="1.0" encoding="UTF-8" standalone="no"?>
<svg
   width="22"
   height="22"
   version="1.1"
   id="svg1"
   sodipodi:docname="update-notifier-none-dark.svg"
   inkscape:version="1.4 (e7c3feb100, 2024-10-09)"
   xmlns:inkscape="http://www.inkscape.org/namespaces/inkscape"
   xmlns:sodipodi="http://sodipodi.sourceforge.net/DTD/sodipodi-0.dtd"
   xmlns="http://www.w3.org/2000/svg"
   xmlns:svg="http://www.w3.org/2000/svg">
  <sodipodi:namedview
     id="namedview1"
     pagecolor="#ffffff"
     bordercolor="#000000"
     borderopacity="0.25"
     inkscape:showpageshadow="2"
     inkscape:pageopacity="0.0"
     inkscape:pagecheckerboard="0"
     inkscape:deskcolor="#d1d1d1"
     inkscape:zoom="53.181818"
     inkscape:cx="11"
     inkscape:cy="11"
     inkscape:window-width="1920"
     inkscape:window-height="1124"
     inkscape:window-x="4480"
     inkscape:window-y="0"
     inkscape:window-maximized="1"
     inkscape:current-layer="svg1" />
  <defs
     id="defs1">
    <style
       id="current-color-scheme"
       type="text/css">
   .ColorScheme-Text { color:#dfdfdf; } .ColorScheme-Highlight { color:#4285f4; } .ColorScheme-NeutralText { color:#ff9800; } .ColorScheme-PositiveText { color:#4caf50; } .ColorScheme-NegativeText { color:#f44336; }
  </style>
  </defs>
  <path
     style="opacity:0.35;fill:#202020;fill-opacity:1"
     class="ColorScheme-Text"
     d="m 11,3 c -4.4183,0 -8,3.5817 -8,8 0,4.418 3.5817,8 8,8 4.418,0 8,-3.582 8,-8 0,-4.4183 -3.582,-8 -8,-8 z m 0,2 c 1.495771,0 2.989091,0.5601607 4.148438,1.671875 -0.370703,0.1438242 -0.713602,0.3779669 -0.976563,0.75 L 13.710938,8.076172 C 12.142097,6.6218791 9.697474,6.6462762 8.171875,8.171875 7.3909653,8.952785 7.0040093,9.976418 7.0039062,11 h 0.296875 A 0.69923716,0.5746971 1.1588047e-6 0 1 7.90625,11.861328 l -0.6503906,0.925781 -0.6523438,0.925782 a 0.69923716,0.5746971 1.1588047e-6 0 1 -1.2089844,0 L 4.7441406,12.787109 4.09375,11.861328 A 0.69923716,0.5746971 1.1588047e-6 0 1 4.4921875,11.025391 0.69923716,0.5746971 1.1588047e-6 0 1 4.6972656,11 H 5.0019531 C 5.0020237,9.464515 5.5863637,7.9292613 6.7578125,6.7578125 7.9293912,5.5862339 9.464469,5 11,5 Z m 4.962891,3.001953 a 0.69923716,0.5746971 1.1588047e-6 0 1 0.642578,0.285156 l 0.65039,0.925782 0.650391,0.925781 A 0.69923716,0.5746971 1.1588047e-6 0 1 17.507812,10.974609 0.69923716,0.5746971 1.1588047e-6 0 1 17.302734,11 h -0.304687 c -7.1e-5,1.535485 -0.584412,3.070735 -1.755859,4.242188 C 14.070609,16.413764 12.535531,17 11,17 9.505091,17 8.0125771,16.440509 6.8535156,15.330078 c 0.363732,-0.140945 0.7082551,-0.373476 0.9746094,-0.75 v -0.002 l 0.4609375,-0.654297 c 1.5688395,1.454293 4.0134635,1.429896 5.5390625,-0.0957 C 14.609035,13.047215 14.995991,12.023583 14.996094,11 H 14.699219 A 0.69923716,0.5746971 1.1588047e-6 0 1 14.09375,10.138672 l 0.650391,-0.925781 0.652343,-0.925782 a 0.69923716,0.5746971 1.1588047e-6 0 1 0.566407,-0.285156 z"
     id="path1" />
</svg>
