<?xml version="1.0" encoding="UTF-8" standalone="no"?>
<svg
   xmlns:dc="http://purl.org/dc/elements/1.1/"
   xmlns:cc="http://creativecommons.org/ns#"
   xmlns:rdf="http://www.w3.org/1999/02/22-rdf-syntax-ns#"
   xmlns:svg="http://www.w3.org/2000/svg"
   xmlns="http://www.w3.org/2000/svg"
   xmlns:sodipodi="http://sodipodi.sourceforge.net/DTD/sodipodi-0.dtd"
   xmlns:inkscape="http://www.inkscape.org/namespaces/inkscape"
   width="16"
   height="16"
   version="1.1"
   id="svg8"
   sodipodi:docname="vpn-sentinel-symbolic.svg"
   inkscape:version="0.92.5 (2060ec1f9f, 2020-04-08)"
   inkscape:export-filename="/home/claude/.local/share/cinnamon/applets/VPN-Sentinel@claudiux/icons/vpn-sentinel-symbolic.png"
   inkscape:export-xdpi="288"
   inkscape:export-ydpi="288">
  <metadata
     id="metadata14">
    <rdf:RDF>
      <cc:Work
         rdf:about="">
        <dc:format>image/svg+xml</dc:format>
        <dc:type
           rdf:resource="http://purl.org/dc/dcmitype/StillImage" />
      </cc:Work>
    </rdf:RDF>
  </metadata>
  <defs
     id="defs12" />
  <sodipodi:namedview
     pagecolor="#ffffff"
     bordercolor="#666666"
     borderopacity="1"
     objecttolerance="10"
     gridtolerance="10"
     guidetolerance="10"
     inkscape:pageopacity="0"
     inkscape:pageshadow="2"
     inkscape:window-width="1880"
     inkscape:window-height="969"
     id="namedview10"
     showgrid="false"
     inkscape:zoom="41.7193"
     inkscape:cx="11.357677"
     inkscape:cy="8.844617"
     inkscape:window-x="0"
     inkscape:window-y="40"
     inkscape:window-maximized="1"
     inkscape:current-layer="svg8" />
  <g
     id="layer9"
     transform="matrix(0.74285469,0,0,0.64115978,-159.02372,-146.08656)">
    <path
       id="path12679-6"
       style="color:#bebebe;text-indent:0;text-transform:none;fill:#bebebe"
       d="m 228,247 v 3 h 2 v -3 z"
       inkscape:connector-curvature="0" />
    <path
       id="path12681-3"
       style="color:#bebebe;text-indent:0;text-transform:none;fill:#bebebe"
       d="m 223,250 v 2 h 12 v -2 z"
       inkscape:connector-curvature="0" />
    <rect
       id="rect13312"
       style="color:#bebebe;fill:#bebebe"
       ry="0"
       height="6"
       width="8"
       y="242"
       x="225" />
    <path
       id="path13314"
       style="color:#bebebe;text-indent:0;text-transform:none;fill:#bebebe"
       d="m 229,238 c -1.645,0 -3,1.355 -3,3 v 2 1 h 1 4 1 v -1 -2 c 0,-1.645 -1.355,-3 -3,-3 z m 0,2 c 0.56413,0 1,0.43588 1,1 v 1 h -2 v -1 c 0,-0.56412 0.43587,-1 1,-1 z"
       inkscape:connector-curvature="0" />
  </g>
  <g
     id="g150"
     style="fill:#bebebe"
     transform="matrix(-0.01796464,2.7955015e-5,-2.6107708e-5,-0.01593086,10.603767,8.0297289)">
    <path
       id="path148"
       d="m 279.6,160.4 c 2.8,-0.3 5.6,-0.4 8.4,-0.4 53,0 96,42.1 96,96 0,53 -43,96 -96,96 -53.9,0 -96,-43 -96,-96 0,-2.8 0.1,-5.6 0.4,-8.4 9.3,4.5 20.1,8.4 31.6,8.4 35.3,0 64,-28.7 64,-64 0,-11.5 -3.9,-22.3 -8.4,-31.6 z m 201,-47.8 c 46.8,43.4 78.1,94.5 92.9,131.1 3.3,7.9 3.3,16.7 0,24.6 C 558.7,304 527.4,355.1 480.6,399.4 433.5,443.2 368.8,480 288,480 207.2,480 142.5,443.2 95.42,399.4 48.62,355.1 17.34,304 2.461,268.3 c -3.2815,-7.9 -3.2815,-16.7 0,-24.6 C 17.34,207.1 48.62,156 95.42,112.6 142.5,68.84 207.2,32 288,32 c 80.8,0 145.5,36.84 192.6,80.6 z M 288,112 c -79.5,0 -144,64.5 -144,144 0,79.5 64.5,144 144,144 79.5,0 144,-64.5 144,-144 0,-79.5 -64.5,-144 -144,-144 z"
       inkscape:connector-curvature="0" />
  </g>
</svg>
