<?xml version="1.0" encoding="UTF-8" standalone="no"?>
<!-- Created with Inkscape (http://www.inkscape.org/) -->

<svg
   xmlns:dc="http://purl.org/dc/elements/1.1/"
   xmlns:cc="http://creativecommons.org/ns#"
   xmlns:rdf="http://www.w3.org/1999/02/22-rdf-syntax-ns#"
   xmlns:svg="http://www.w3.org/2000/svg"
   xmlns="http://www.w3.org/2000/svg"
   xmlns:sodipodi="http://sodipodi.sourceforge.net/DTD/sodipodi-0.dtd"
   xmlns:inkscape="http://www.inkscape.org/namespaces/inkscape"
   width="16"
   height="16"
   id="svg2513"
   sodipodi:version="0.32"
   inkscape:version="0.48.3.1 r9886"
   version="1.0"
   sodipodi:docname="Alarm_clock_symbolized16.svg"
   inkscape:output_extension="org.inkscape.output.svg.inkscape">
  <defs
     id="defs2515">
    <inkscape:perspective
       sodipodi:type="inkscape:persp3d"
       id="perspective2521"
       inkscape:vp_x="-50 : 600 : 1"
       inkscape:vp_y="0 : 1000 : 0"
       inkscape:vp_z="700 : 600 : 1"
       inkscape:persp3d-origin="300 : 400 : 1" />
  </defs>
  <sodipodi:namedview
     id="base"
     pagecolor="#ffffff"
     bordercolor="#666666"
     borderopacity="1.0"
     gridtolerance="10000"
     guidetolerance="10"
     objecttolerance="10"
     inkscape:pageopacity="0.0"
     inkscape:pageshadow="2"
     inkscape:zoom="30.633427"
     inkscape:cx="15.541049"
     inkscape:cy="8.4385923"
     inkscape:document-units="px"
     inkscape:current-layer="layer1"
     showgrid="false"
     inkscape:window-width="1360"
     inkscape:window-height="743"
     inkscape:window-x="0"
     inkscape:window-y="-29"
     inkscape:window-maximized="1"
     borderlayer="true" />
  <metadata
     id="metadata2518">
    <rdf:RDF>
      <cc:Work
         rdf:about="">
        <dc:format>image/svg+xml</dc:format>
        <dc:type
           rdf:resource="http://purl.org/dc/dcmitype/StillImage" />
        <dc:title></dc:title>
        <dc:date>2008-03-05</dc:date>
        <dc:creator>
          <cc:Agent>
            <dc:title>Risto Pekkala</dc:title>
          </cc:Agent>
        </dc:creator>
        <dc:rights>
          <cc:Agent>
            <dc:title>Risto Pekkala</dc:title>
          </cc:Agent>
        </dc:rights>
        <dc:publisher>
          <cc:Agent>
            <dc:title>Risto Pekkala</dc:title>
          </cc:Agent>
        </dc:publisher>
        <dc:identifier />
        <dc:source>risto@pekkala.se</dc:source>
        <dc:relation />
        <dc:language />
        <dc:subject>
          <rdf:Bag>
            <rdf:li>Alarm clock</rdf:li>
          </rdf:Bag>
        </dc:subject>
        <dc:coverage />
        <dc:description />
        <dc:contributor>
          <cc:Agent>
            <dc:title />
          </cc:Agent>
        </dc:contributor>
        <cc:license
           rdf:resource="http://creativecommons.org/licenses/publicdomain/" />
      </cc:Work>
      <cc:License
         rdf:about="http://creativecommons.org/licenses/publicdomain/">
        <cc:permits
           rdf:resource="http://creativecommons.org/ns#Reproduction" />
        <cc:permits
           rdf:resource="http://creativecommons.org/ns#Distribution" />
        <cc:permits
           rdf:resource="http://creativecommons.org/ns#DerivativeWorks" />
      </cc:License>
    </rdf:RDF>
  </metadata>
  <g
     inkscape:label="Layer 1"
     inkscape:groupmode="layer"
     id="layer1"
     transform="translate(-188.85479,-627.57041)">
    <path
       style="fill:#ffffff"
       d="M 1 0 C 0.44712829 0 0 0.44712829 0 1 L 0 15 C 0 15.552872 0.44712829 16 1 16 L 15 16 C 15.552872 16 16 15.552872 16 15 L 16 1 C 16 0.44712829 15.552872 0 15 0 L 1 0 z M 3.65625 0.75 C 4.5134121 0.80755003 5.3591011 1.2088451 5.96875 1.90625 L 0.90625 6.3125 C -0.31304868 4.9176903 -0.17605972 2.7817987 1.21875 1.5625 C 1.9161549 0.95285109 2.7990879 0.69244997 3.65625 0.75 z M 12.40625 0.75 C 13.263412 0.69244997 14.146345 0.95285109 14.84375 1.5625 C 16.23856 2.7817987 16.375549 4.9176903 15.15625 6.3125 L 10.09375 1.90625 C 10.703399 1.2088451 11.549088 0.80755003 12.40625 0.75 z M 7.3125 0.9375 C 7.6857921 0.9375 8 1.2204579 8 1.59375 C 8 1.9670421 7.6857921 2.28125 7.3125 2.28125 C 6.9392079 2.28125 6.625 1.9670421 6.625 1.59375 C 6.625 1.2204579 6.9392079 0.9375 7.3125 0.9375 z M 8.0625 2.84375 C 11.523935 2.84375 14.3125 5.6323149 14.3125 9.09375 C 14.3125 12.555185 11.523935 15.375 8.0625 15.375 C 4.6010647 15.375 1.78125 12.555185 1.78125 9.09375 C 1.78125 5.6323149 4.6010647 2.84375 8.0625 2.84375 z M 4.625 4.8125 C 4.6102161 4.8116541 4.60313 4.837327 4.59375 4.84375 C 4.4436703 4.9465183 5.0549507 5.9449663 5.96875 7.09375 C 6.5457819 7.8191662 7.0991125 8.4281308 7.46875 8.75 C 7.409008 8.8507985 7.375 8.9680824 7.375 9.09375 C 7.375 9.2439641 7.4171094 9.3877887 7.5 9.5 C 7.254079 9.7106584 6.9302664 10.076401 6.625 10.53125 C 6.1002132 11.313186 5.8309329 12.042783 6 12.15625 C 6.1690671 12.269717 6.7252132 11.719436 7.25 10.9375 C 7.5547728 10.483386 7.7729961 10.057321 7.875 9.75 C 7.9291934 9.764003 8.0039309 9.78125 8.0625 9.78125 C 8.4357922 9.78125 8.71875 9.4670422 8.71875 9.09375 C 8.71875 8.7204578 8.4357922 8.40625 8.0625 8.40625 C 7.9504205 8.40625 7.8430586 8.4517179 7.75 8.5 C 7.5184429 8.0754755 7.0542383 7.4155111 6.5 6.71875 C 5.6433132 5.6417652 4.8467592 4.8251885 4.625 4.8125 z "
       transform="translate(188.85479,627.57041)"
       id="rect2989" />
    <g
       id="g3200"
       transform="matrix(0.08602428,0,0,0.08602428,179.70111,606.7851)"
       style="fill:#241f1c">
      <g
         id="g2991"
         style="fill:#241f1c" />
    </g>
  </g>
</svg>
