<?xml version="1.0" encoding="UTF-8" standalone="no"?>
<!-- Created with Inkscape (http://www.inkscape.org/) -->

<svg
   xmlns:dc="http://purl.org/dc/elements/1.1/"
   xmlns:cc="http://creativecommons.org/ns#"
   xmlns:rdf="http://www.w3.org/1999/02/22-rdf-syntax-ns#"
   xmlns:svg="http://www.w3.org/2000/svg"
   xmlns="http://www.w3.org/2000/svg"
   xmlns:sodipodi="http://sodipodi.sourceforge.net/DTD/sodipodi-0.dtd"
   xmlns:inkscape="http://www.inkscape.org/namespaces/inkscape"
   width="16"
   height="16"
   id="svg2513"
   sodipodi:version="0.32"
   inkscape:version="0.48.3.1 r9886"
   version="1.0"
   sodipodi:docname="risto_pekkala_Alarm_clock_symbolized.svg"
   inkscape:output_extension="org.inkscape.output.svg.inkscape">
  <defs
     id="defs2515">
    <inkscape:perspective
       sodipodi:type="inkscape:persp3d"
       id="perspective2521"
       inkscape:vp_x="-50 : 600 : 1"
       inkscape:vp_y="0 : 1000 : 0"
       inkscape:vp_z="700 : 600 : 1"
       inkscape:persp3d-origin="300 : 400 : 1" />
  </defs>
  <sodipodi:namedview
     id="base"
     pagecolor="#ffffff"
     bordercolor="#666666"
     borderopacity="1.0"
     gridtolerance="10000"
     guidetolerance="10"
     objecttolerance="10"
     inkscape:pageopacity="0.0"
     inkscape:pageshadow="2"
     inkscape:zoom="31.007657"
     inkscape:cx="7.8405891"
     inkscape:cy="8.0154721"
     inkscape:document-units="px"
     inkscape:current-layer="layer1"
     showgrid="false"
     inkscape:window-width="1360"
     inkscape:window-height="743"
     inkscape:window-x="0"
     inkscape:window-y="-29"
     inkscape:window-maximized="1"
     borderlayer="true" />
  <metadata
     id="metadata2518">
    <rdf:RDF>
      <cc:Work
         rdf:about="">
        <dc:format>image/svg+xml</dc:format>
        <dc:type
           rdf:resource="http://purl.org/dc/dcmitype/StillImage" />
        <dc:title></dc:title>
        <dc:date>2008-03-05</dc:date>
        <dc:creator>
          <cc:Agent>
            <dc:title>Risto Pekkala</dc:title>
          </cc:Agent>
        </dc:creator>
        <dc:rights>
          <cc:Agent>
            <dc:title>Risto Pekkala</dc:title>
          </cc:Agent>
        </dc:rights>
        <dc:publisher>
          <cc:Agent>
            <dc:title>Risto Pekkala</dc:title>
          </cc:Agent>
        </dc:publisher>
        <dc:identifier />
        <dc:source>risto@pekkala.se</dc:source>
        <dc:relation />
        <dc:language />
        <dc:subject>
          <rdf:Bag>
            <rdf:li>Alarm clock</rdf:li>
          </rdf:Bag>
        </dc:subject>
        <dc:coverage />
        <dc:description />
        <dc:contributor>
          <cc:Agent>
            <dc:title />
          </cc:Agent>
        </dc:contributor>
        <cc:license
           rdf:resource="http://creativecommons.org/licenses/publicdomain/" />
      </cc:Work>
      <cc:License
         rdf:about="http://creativecommons.org/licenses/publicdomain/">
        <cc:permits
           rdf:resource="http://creativecommons.org/ns#Reproduction" />
        <cc:permits
           rdf:resource="http://creativecommons.org/ns#Distribution" />
        <cc:permits
           rdf:resource="http://creativecommons.org/ns#DerivativeWorks" />
      </cc:License>
    </rdf:RDF>
  </metadata>
  <g
     inkscape:label="Layer 1"
     inkscape:groupmode="layer"
     id="layer1"
     transform="translate(-188.85479,-627.57041)">
    <g
       id="g3200"
       transform="matrix(0.08602428,0,0,0.08602428,179.70111,606.7851)"
       style="fill:#ffffff">
      <path
         style="fill:#ffffff;fill-opacity:1;fill-rule:nonzero;stroke:none"
         d="m 174.4375,45.5625 c -75.665794,0 -137,61.33421 -137,137 0,75.66579 61.334206,137 137,137 75.66579,0 137.03125,-61.33421 137.03125,-137 0,-75.66579 -61.36546,-137 -137.03125,-137 z m -75,43.65625 c 4.84758,0.277367 22.61687,18.05123 41.34375,41.59375 12.11546,15.23096 21.81324,29.34504 26.875,38.625 2.03423,-1.05543 4.33123,-1.65625 6.78125,-1.65625 8.16004,0 14.78125,6.62121 14.78125,14.78125 0,8.16004 -6.62121,14.78125 -14.78125,14.78125 -1.2803,0 -2.50285,-0.1939 -3.6875,-0.5 -2.22977,6.71793 -7.11902,16.19822 -13.78125,26.125 -11.47166,17.09286 -23.773,28.94911 -27.46875,26.46875 -3.69575,-2.48036 2.62209,-18.34464 14.09375,-35.4375 6.67302,-9.94285 13.593,-18.08258 18.96875,-22.6875 -1.81196,-2.4529 -2.875,-5.46637 -2.875,-8.75 0,-2.74705 0.75656,-5.32783 2.0625,-7.53125 -8.08015,-7.03595 -20.26128,-20.2364 -32.875,-36.09375 -19.97534,-25.11202 -33.499442,-47.28477 -30.21875,-49.53125 0.205043,-0.140405 0.458078,-0.205991 0.78125,-0.1875 z"
         id="path3183"
         transform="matrix(0.53178438,0,0,0.53178438,107.23007,250.2827)"
         inkscape:connector-curvature="0" />
      <g
         id="g2991"
         style="fill:#ffffff" />
      <path
         sodipodi:nodetypes="csc"
         id="path3194"
         d="m 282.65783,314.96919 c 14.17389,-16.21414 12.51803,-40.87689 -3.69611,-55.05078 -16.21414,-14.17388 -40.87688,-12.51802 -55.05076,3.69612"
         style="fill:#ffffff;fill-opacity:1;fill-rule:nonzero;stroke:none"
         inkscape:connector-curvature="0" />
      <path
         transform="translate(-25.000002,-95.7143)"
         d="m 224.28572,355.93362 c 0,4.33938 -3.51777,7.85715 -7.85715,7.85715 -4.33938,0 -7.85714,-3.51777 -7.85714,-7.85715 0,-4.33938 3.51776,-7.85714 7.85714,-7.85714 4.33938,0 7.85715,3.51776 7.85715,7.85714 z"
         sodipodi:ry="7.8571429"
         sodipodi:rx="7.8571429"
         sodipodi:cy="355.93362"
         sodipodi:cx="216.42857"
         id="path3196"
         style="fill:#ffffff;fill-opacity:1;fill-rule:nonzero;stroke:none"
         sodipodi:type="arc" />
      <path
         sodipodi:nodetypes="csc"
         id="path3198"
         d="m 116.86579,314.96919 c -14.17389,-16.21414 -12.51803,-40.87689 3.69611,-55.05078 16.21414,-14.17388 40.87688,-12.51802 55.05076,3.69612"
         style="fill:#ffffff;fill-opacity:1;fill-rule:nonzero;stroke:none"
         inkscape:connector-curvature="0" />
    </g>
  </g>
</svg>
