<?xml version="1.0" encoding="UTF-8" standalone="no"?>
<!-- Created with Inkscape (http://www.inkscape.org/) -->

<svg
   xmlns:dc="http://purl.org/dc/elements/1.1/"
   xmlns:cc="http://creativecommons.org/ns#"
   xmlns:rdf="http://www.w3.org/1999/02/22-rdf-syntax-ns#"
   xmlns:svg="http://www.w3.org/2000/svg"
   xmlns="http://www.w3.org/2000/svg"
   xmlns:sodipodi="http://sodipodi.sourceforge.net/DTD/sodipodi-0.dtd"
   xmlns:inkscape="http://www.inkscape.org/namespaces/inkscape"
   width="16"
   height="16"
   id="svg2513"
   sodipodi:version="0.32"
   inkscape:version="0.48.3.1 r9886"
   version="1.0"
   sodipodi:docname="Alarm_clock_symbolized_concentric16.svg"
   inkscape:output_extension="org.inkscape.output.svg.inkscape">
  <defs
     id="defs2515">
    <inkscape:perspective
       sodipodi:type="inkscape:persp3d"
       id="perspective2521"
       inkscape:vp_x="-50 : 600 : 1"
       inkscape:vp_y="0 : 1000 : 0"
       inkscape:vp_z="700 : 600 : 1"
       inkscape:persp3d-origin="300 : 400 : 1" />
  </defs>
  <sodipodi:namedview
     id="base"
     pagecolor="#ffffff"
     bordercolor="#666666"
     borderopacity="1.0"
     gridtolerance="10000"
     guidetolerance="10"
     objecttolerance="10"
     inkscape:pageopacity="0.0"
     inkscape:pageshadow="2"
     inkscape:zoom="31.007657"
     inkscape:cx="7.8405891"
     inkscape:cy="8.4934726"
     inkscape:document-units="px"
     inkscape:current-layer="layer1"
     showgrid="false"
     inkscape:window-width="1360"
     inkscape:window-height="743"
     inkscape:window-x="0"
     inkscape:window-y="-29"
     inkscape:window-maximized="1"
     borderlayer="true"
     showguides="true"
     inkscape:guide-bbox="true" />
  <metadata
     id="metadata2518">
    <rdf:RDF>
      <cc:Work
         rdf:about="">
        <dc:format>image/svg+xml</dc:format>
        <dc:type
           rdf:resource="http://purl.org/dc/dcmitype/StillImage" />
        <dc:title />
        <dc:date>2008-03-05</dc:date>
        <dc:creator>
          <cc:Agent>
            <dc:title>Risto Pekkala</dc:title>
          </cc:Agent>
        </dc:creator>
        <dc:rights>
          <cc:Agent>
            <dc:title>Risto Pekkala</dc:title>
          </cc:Agent>
        </dc:rights>
        <dc:publisher>
          <cc:Agent>
            <dc:title>Risto Pekkala</dc:title>
          </cc:Agent>
        </dc:publisher>
        <dc:identifier />
        <dc:source>risto@pekkala.se</dc:source>
        <dc:relation />
        <dc:language />
        <dc:subject>
          <rdf:Bag>
            <rdf:li>Alarm clock</rdf:li>
          </rdf:Bag>
        </dc:subject>
        <dc:coverage />
        <dc:description />
        <dc:contributor>
          <cc:Agent>
            <dc:title />
          </cc:Agent>
        </dc:contributor>
        <cc:license
           rdf:resource="http://creativecommons.org/licenses/publicdomain/" />
      </cc:Work>
      <cc:License
         rdf:about="http://creativecommons.org/licenses/publicdomain/">
        <cc:permits
           rdf:resource="http://creativecommons.org/ns#Reproduction" />
        <cc:permits
           rdf:resource="http://creativecommons.org/ns#Distribution" />
        <cc:permits
           rdf:resource="http://creativecommons.org/ns#DerivativeWorks" />
      </cc:License>
    </rdf:RDF>
  </metadata>
  <g
     inkscape:label="Layer 1"
     inkscape:groupmode="layer"
     id="layer1"
     transform="translate(-188.85479,-627.57041)">
    <rect
       style="fill:#2b0000;display:none"
       id="rect2992"
       width="17.995556"
       height="17.544054"
       x="-0.80625248"
       y="-0.77005136"
       transform="translate(188.85479,627.57041)"
       rx="0.99796337"
       ry="0.99796337" />
    <g
       id="g3200"
       transform="matrix(0.08602428,0,0,0.08602428,179.70111,606.7851)"
       style="fill:#ffffff">
      <path
         style="fill:#ffffff;fill-opacity:1;fill-rule:nonzero;stroke:none"
         d="M 8.0625 2.84375 C 4.6010645 2.84375 1.78125 5.6323145 1.78125 9.09375 C 1.78125 12.555186 4.6010645 15.375 8.0625 15.375 C 11.523935 15.375 14.3125 12.555186 14.3125 9.09375 C 14.3125 5.6323145 11.523935 2.84375 8.0625 2.84375 z M 8.0625 4.0625 C 10.841053 4.0625 13.09375 6.3151967 13.09375 9.09375 C 13.09375 11.872303 10.841053 14.125 8.0625 14.125 C 5.2839467 14.125 3.03125 11.872303 3.03125 9.09375 C 3.03125 6.3151967 5.2839467 4.0625 8.0625 4.0625 z "
         transform="matrix(11.624625,0,0,11.624625,106.4081,241.62144)"
         id="path2998" />
      <path
         style="fill:#ffffff;fill-opacity:1;fill-rule:nonzero;stroke:none"
         d="m 199.76837,321.54074 c -14.17542,0 -25.42887,11.25345 -25.42887,25.42886 0,14.17542 11.25345,25.79214 25.42887,25.79214 14.17542,0 25.79214,-11.61672 25.79214,-25.79214 0,-14.17541 -11.61672,-25.42886 -25.79214,-25.42886 z"
         id="path2995" />
      <g
         id="g2991"
         style="fill:#ffffff" />
      <path
         sodipodi:nodetypes="csc"
         id="path3194"
         d="m 282.65783,314.96919 c 14.17389,-16.21414 12.51803,-40.87689 -3.69611,-55.05078 -16.21414,-14.17388 -40.87688,-12.51802 -55.05076,3.69612"
         style="fill:#ffffff;fill-opacity:1;fill-rule:nonzero;stroke:none"
         inkscape:connector-curvature="0" />
      <path
         transform="translate(-25.000002,-95.7143)"
         d="m 224.28572,355.93362 c 0,4.33938 -3.51777,7.85715 -7.85715,7.85715 -4.33938,0 -7.85714,-3.51777 -7.85714,-7.85715 0,-4.33938 3.51776,-7.85714 7.85714,-7.85714 4.33938,0 7.85715,3.51776 7.85715,7.85714 z"
         sodipodi:ry="7.8571429"
         sodipodi:rx="7.8571429"
         sodipodi:cy="355.93362"
         sodipodi:cx="216.42857"
         id="path3196"
         style="fill:#ffffff;fill-opacity:1;fill-rule:nonzero;stroke:none"
         sodipodi:type="arc" />
      <path
         sodipodi:nodetypes="csc"
         id="path3198"
         d="m 116.86579,314.96919 c -14.17389,-16.21414 -12.51803,-40.87689 3.69611,-55.05078 16.21414,-14.17388 40.87688,-12.51802 55.05076,3.69612"
         style="fill:#ffffff;fill-opacity:1;fill-rule:nonzero;stroke:none"
         inkscape:connector-curvature="0" />
    </g>
  </g>
</svg>
