<?xml version="1.0" encoding="UTF-8" standalone="no"?>
<!-- Created with Inkscape (http://www.inkscape.org/) -->

<svg
   xmlns:dc="http://purl.org/dc/elements/1.1/"
   xmlns:cc="http://creativecommons.org/ns#"
   xmlns:rdf="http://www.w3.org/1999/02/22-rdf-syntax-ns#"
   xmlns:svg="http://www.w3.org/2000/svg"
   xmlns="http://www.w3.org/2000/svg"
   xmlns:xlink="http://www.w3.org/1999/xlink"
   xmlns:sodipodi="http://sodipodi.sourceforge.net/DTD/sodipodi-0.dtd"
   xmlns:inkscape="http://www.inkscape.org/namespaces/inkscape"
   width="226"
   height="226"
   viewBox="0 0 226 226"
   id="svg2"
   version="1.1"
   inkscape:version="0.91 r13725"
   sodipodi:docname="vpn-on.svg"
   inkscape:export-filename="/home/claude/.local/share/cinnamon/applets/vpnLookOut@claudiux/icons/orig/vpn-on6.png"
   inkscape:export-xdpi="10.622167"
   inkscape:export-ydpi="10.622167">
  <defs
     id="defs4">
    <linearGradient
       inkscape:collect="always"
       id="linearGradient5106">
      <stop
         style="stop-color:#004400;stop-opacity:1;"
         offset="0"
         id="stop5108" />
      <stop
         style="stop-color:#3baf00;stop-opacity:1"
         offset="1"
         id="stop5110" />
    </linearGradient>
    <linearGradient
       inkscape:collect="always"
       xlink:href="#linearGradient5106"
       id="linearGradient5112"
       x1="130"
       y1="231"
       x2="130"
       y2="26"
       gradientUnits="userSpaceOnUse" />
  </defs>
  <sodipodi:namedview
     id="base"
     pagecolor="#ffffff"
     bordercolor="#666666"
     borderopacity="1.0"
     inkscape:pageopacity="0.0"
     inkscape:pageshadow="2"
     inkscape:zoom="2"
     inkscape:cx="102.75"
     inkscape:cy="108.35717"
     inkscape:document-units="px"
     inkscape:current-layer="layer5"
     showgrid="true"
     units="px"
     inkscape:window-width="1334"
     inkscape:window-height="748"
     inkscape:window-x="0"
     inkscape:window-y="0"
     inkscape:window-maximized="1"
     fit-margin-top="10"
     fit-margin-bottom="10"
     fit-margin-right="10"
     fit-margin-left="10">
    <inkscape:grid
       type="xygrid"
       id="grid3336"
       originx="-14.5"
       originy="-14.499974" />
  </sodipodi:namedview>
  <metadata
     id="metadata7">
    <rdf:RDF>
      <cc:Work
         rdf:about="">
        <dc:format>image/svg+xml</dc:format>
        <dc:type
           rdf:resource="http://purl.org/dc/dcmitype/StillImage" />
        <dc:title />
        <cc:license
           rdf:resource="http://creativecommons.org/publicdomain/zero/1.0/" />
      </cc:Work>
      <cc:License
         rdf:about="http://creativecommons.org/publicdomain/zero/1.0/">
        <cc:permits
           rdf:resource="http://creativecommons.org/ns#Reproduction" />
        <cc:permits
           rdf:resource="http://creativecommons.org/ns#Distribution" />
        <cc:permits
           rdf:resource="http://creativecommons.org/ns#DerivativeWorks" />
      </cc:License>
    </rdf:RDF>
  </metadata>
  <g
     inkscape:label="Calque 1"
     inkscape:groupmode="layer"
     id="layer1"
     transform="translate(-14.5,-811.86218)"
     style="display:none">
    <rect
       style="fill:none;fill-rule:evenodd;stroke:#000000;stroke-width:1px;stroke-linecap:butt;stroke-linejoin:miter;stroke-opacity:1"
       id="rect3338"
       width="205"
       height="205"
       x="25"
       y="822.36218"
       ry="24.999977" />
    <rect
       style="fill:none"
       id="rect3340"
       width="160"
       height="9.9999771"
       x="45"
       y="987.36218"
       ry="4.9999776" />
    <rect
       style="fill:#ffffff"
       id="rect3344"
       width="165"
       height="9.9999771"
       x="45"
       y="987.36218"
       ry="4.75" />
    <path
       style="fill:#ffffff"
       d="M 42.587803,229.07193 C 34.566957,226.50786 27.78254,218.85155 26.217181,210.59745 25.523737,206.94093 25.513273,50.223191 26.206223,46.486102 28.013413,36.7399 36.628469,28.48898 46.485018,27.064438 51.163874,26.388214 203.653,26.37928 208.45683,27.054948 c 7.25021,1.019756 14.76231,6.29159 17.90461,12.565071 2.99279,5.974991 2.83299,0.99285 2.83945,88.523231 0.004,56.91839 -0.15561,81.10366 -0.54803,82.93343 -1.44084,6.7184 -6.51683,13.44488 -12.41129,16.44691 -5.20536,2.65106 -0.57708,2.52145 -89.00049,2.49238 -77.903901,-0.0256 -81.920376,-0.0704 -84.653277,-0.94404 z"
       id="path3346"
       inkscape:connector-curvature="0"
       transform="translate(0,796.36216)" />
  </g>
  <g
     inkscape:groupmode="layer"
     id="layer2"
     inkscape:label="Calque 2"
     transform="translate(-14.5,-15.500026)">
    <rect
       style="fill:#ffffff"
       id="rect3349"
       width="165"
       height="10"
       x="45"
       y="196"
       ry="4.75" />
    <rect
       style="fill:#ffffff"
       id="rect3352"
       width="165"
       height="10"
       x="45"
       y="196"
       ry="4.75" />
    <path
       style="fill:url(#linearGradient5112);fill-opacity:1;stroke:none"
       d="m 42.565461,229.00696 c -6.595233,-2.09018 -12.570364,-7.69982 -15.233822,-14.30199 l -1.174811,-2.91211 -0.130877,-82.22683 C 25.907942,55.423616 25.973727,47.068646 26.695049,44.587384 29.494925,34.956151 37.207238,28.337019 47.156828,27.02596 c 2.700917,-0.355901 29.73809,-0.479343 83.250002,-0.380092 l 79.25,0.146989 2.95963,1.127189 c 8.8484,3.369944 14.95653,10.635397 16.28689,19.372811 0.36496,2.396935 0.48888,28.712915 0.3932,83.500003 l -0.13972,80 -1.12719,2.95963 c -2.91689,7.65881 -8.86592,13.38934 -16.08856,15.49764 -2.43187,0.70986 -11.2649,0.78979 -84.5,0.76464 -79.793786,-0.0274 -81.859489,-0.0519 -84.875619,-1.00781 z"
       id="path3373"
       inkscape:connector-curvature="0" />
  </g>
  <g
     inkscape:groupmode="layer"
     id="layer3"
     inkscape:label="Calque 3"
     transform="translate(-14.5,-15.500026)">
    <rect
       style="fill:#f2f2f2;fill-opacity:0.50196078"
       id="rect4205"
       width="165"
       height="10"
       x="45"
       y="196"
       ry="4.75" />
    <path
       style="fill:#f2f2f2;fill-opacity:0.50196078"
       d="m 48.643965,205.7012 c -3.286017,-0.65422 -4.499995,-5.57272 -1.993996,-8.0788 l 1.329505,-1.32954 78.863676,-0.13159 c 58.71541,-0.098 79.22099,0.0158 80.26226,0.44543 3.03519,1.25223 3.60679,5.58243 1.05354,7.98119 l -1.28257,1.20497 -78.58478,0.06 c -43.221623,0.033 -79.06306,-0.0353 -79.647635,-0.15163 z"
       id="path4207"
       inkscape:connector-curvature="0" />
    <rect
       style="fill:#f2f2f2;fill-opacity:0.50196078"
       id="rect4209"
       width="65"
       height="30"
       x="95"
       y="186"
       ry="4.75" />
    <path
       style="fill:#f2f2f2;fill-opacity:0.50196078"
       d="m 95.076497,192.49237 c 0.213533,-2.9844 0.465176,-3.76167 1.578293,-4.875 l 1.324257,-1.32451 28.856273,-0.13704 c 21.1007,-0.10021 29.23421,0.0195 30.26247,0.44543 1.94597,0.80604 2.85904,2.85532 2.85904,6.41678 l 0,3.02483 -32.56719,0 -32.567179,0 0.254036,-3.55049 z"
       id="path4211"
       inkscape:connector-curvature="0" />
    <path
       style="fill:#f2f2f2;fill-opacity:0.50196078"
       d="m 98.643965,215.70592 c -2.182166,-0.44415 -3.29939,-2.36583 -3.569399,-6.13956 l -0.252105,-3.5235 32.623609,0 32.6236,0 -0.19806,3.50528 c -0.17017,3.01158 -0.39094,3.69819 -1.56748,4.875 l -1.36941,1.36972 -28.61395,0.0647 c -15.73767,0.0356 -29.09223,-0.0327 -29.676805,-0.15164 z"
       id="path4213"
       inkscape:connector-curvature="0" />
    <rect
       style="fill:#f2f2f2;fill-opacity:0.50196078"
       id="rect4215"
       width="5"
       height="25"
       x="125"
       y="166"
       ry="2.5" />
    <path
       style="fill:#f2f2f2;fill-opacity:0.50196078"
       d="m 124.95683,177.04286 c 0,-8.33334 0.0741,-9.07408 1,-10 1.24149,-1.24149 2.10536,-1.26481 3.1725,-0.0856 0.70609,0.78021 0.8275,2.24739 0.8275,10 l 0,9.08563 -2.5,0 -2.5,0 0,-9 z"
       id="path4217"
       inkscape:connector-curvature="0" />
    <path
       style="fill:#f2f2f2;fill-opacity:0.50196078"
       d="m 95.138866,193.72307 c 0.174879,-1.27588 0.317962,-2.83833 0.317962,-3.47212 0,-0.63378 0.50625,-1.70874 1.125,-2.3888 l 1.125,-1.23648 13.625002,-0.2155 13.625,-0.2155 0,1.5966 c 0,1.68791 1.26411,3.25159 2.62865,3.25159 1.31683,0 2.37135,-1.46114 2.37135,-3.28572 l 0,-1.71428 9.375,0.0529 c 5.15625,0.0291 11.37704,0.19787 13.82399,0.375 4.03904,0.29238 4.53917,0.44322 5.42775,1.63695 0.64251,0.86317 1.07004,2.45209 1.24446,4.625 l 0.26571,3.31011 -32.63642,0 -32.636416,0 0.317962,-2.31979 z"
       id="path4219"
       inkscape:connector-curvature="0" />
    <path
       style="fill:#f2f2f2;fill-opacity:0.50196078"
       d="m 97.571308,215.20821 c -1.071253,-0.43102 -1.98026,-2.76232 -2.355216,-6.04035 l -0.357451,-3.125 32.618139,0 32.61814,0 -0.34103,3.32869 c -0.21416,2.09031 -0.71756,3.85747 -1.3531,4.75 l -1.01206,1.42131 -29.59095,-0.0395 c -16.27502,-0.0217 -29.876936,-0.15453 -30.226472,-0.29517 z"
       id="path4221"
       inkscape:connector-curvature="0" />
    <path
       style="fill:#f2f2f2;fill-opacity:0.50196078"
       d="m 47.571308,205.20821 c -0.869832,-0.34997 -2.114889,-2.86384 -2.112611,-4.26552 10e-4,-0.63241 0.447721,-1.88108 0.992651,-2.77483 l 0.990782,-1.625 23.757349,0 23.757349,0 0,4.5 0,4.5 -23.375,-0.0395 c -12.85625,-0.0217 -23.660984,-0.15453 -24.01052,-0.29517 z"
       id="path4223"
       inkscape:connector-curvature="0" />
    <path
       style="fill:#f2f2f2;fill-opacity:0.50196078"
       d="m 159.95683,200.71328 0,-4.82958 23.625,0.33697 23.625,0.33697 1.125,1.27049 c 1.43561,1.62128 1.47479,4.31911 0.0909,6.26254 l -1.03405,1.45219 -23.71595,0 -23.71595,0 0,-4.82958 z"
       id="path4225"
       inkscape:connector-curvature="0" />
    <path
       style="fill:#f2f2f2;fill-opacity:0.50196078"
       d="m 125.03326,177.05624 c 0.16179,-8.37652 0.24581,-9.05881 1.23765,-10.05019 0.85332,-0.85291 1.26114,-0.95812 2.05895,-0.53114 1.37956,0.73831 1.62697,2.50693 1.62697,11.63045 l 0,7.9375 -2.54857,0 -2.54856,0 0.17356,-8.98662 z"
       id="path4227"
       inkscape:connector-curvature="0" />
    <rect
       style="fill:#f2f2f2;fill-opacity:0.50196078"
       id="rect4229"
       width="105"
       height="55"
       x="75"
       y="116"
       ry="2.5" />
    <path
       style="fill:#f2f2f2;fill-opacity:0.50196078"
       d="m 129.9567,169.01786 c 1.5e-4,-2.04222 -0.72544,-2.975 -2.31416,-2.975 -1.54199,0 -2.68571,1.29277 -2.68571,3.03571 l 0,1.46429 -24.47049,0 c -17.084047,0 -24.571914,-0.1641 -24.806487,-0.54365 -0.184795,-0.299 -0.456768,-11.98707 -0.604383,-25.97349 -0.244954,-23.20905 -0.195349,-25.54132 0.568009,-26.70635 l 0.836402,-1.27651 50.910979,0 c 48.68673,0 50.94713,0.0399 51.73847,0.91437 0.74722,0.82566 0.8275,3.38732 0.8275,26.40443 0,19.61026 -0.14417,25.68403 -0.625,26.33094 -0.56831,0.7646 -2.83599,0.85263 -25.00013,0.97056 l -24.37512,0.1297 1.2e-4,-1.775 z"
       id="path4231"
       inkscape:connector-curvature="0" />
    <path
       style="fill:#f2f2f2;fill-opacity:0.50196078"
       d="m 80.8598,170.17044 -4.847028,-0.16312 -0.276204,-2.10723 c -0.151912,-1.15898 -0.33325,-12.79473 -0.402972,-25.85723 -0.100431,-18.81584 0.009,-23.98788 0.526521,-24.89499 l 0.653288,-1.14499 50.946915,0.14499 c 41.02726,0.11676 51.07343,0.27175 51.59671,0.79602 0.95358,0.95539 0.95361,51.74533 3e-5,52.69908 -0.5102,0.51029 -5.82854,0.68689 -24.75866,0.82215 l -24.10889,0.17226 -0.59213,-2.21393 c -0.41861,-1.56512 -0.85566,-2.21889 -1.49135,-2.23085 -1.28984,-0.0243 -2.54209,1.22432 -2.91059,2.9021 l -0.31807,1.44816 -19.58527,-0.10465 c -10.771899,-0.0575 -21.766434,-0.17805 -24.4323,-0.26777 z"
       id="path4233"
       inkscape:connector-curvature="0" />
    <path
       style="fill:none;fill-opacity:0.50196078"
       id="path4259"
       sodipodi:type="arc"
       sodipodi:cx="132.5"
       sodipodi:cy="93.5"
       sodipodi:rx="42.5"
       sodipodi:ry="37.5"
       sodipodi:start="3.155468"
       sodipodi:end="6.2349723"
       sodipodi:open="true"
       d="M 90.004091,92.979691 A 42.5,37.5 0 0 1 131.77036,56.005527 42.5,37.5 0 0 1 174.95061,91.692713" />
    <path
       style="fill:none;fill-opacity:0.50196078"
       id="path4265"
       sodipodi:type="arc"
       sodipodi:cx="127.5"
       sodipodi:cy="91"
       sodipodi:rx="37.5"
       sodipodi:ry="40"
       sodipodi:start="3.1415927"
       sodipodi:end="0"
       sodipodi:open="true"
       d="M 90,90.999998 A 37.5,40 0 0 1 127.5,51 37.5,40 0 0 1 165,91" />
    <path
       style="fill:none;fill-opacity:0.50196078"
       id="path4267"
       sodipodi:type="arc"
       sodipodi:cx="127.5"
       sodipodi:cy="93.5"
       sodipodi:rx="22.5"
       sodipodi:ry="27.5"
       sodipodi:start="3.1415927"
       sodipodi:end="0"
       sodipodi:open="true"
       d="M 105,93.499999 A 22.5,27.5 0 0 1 127.5,66 22.5,27.5 0 0 1 150,93.5" />
    <rect
       style="fill:#ffffff;fill-opacity:0.50196078;stroke:none;stroke-opacity:1"
       id="rect4297"
       width="20"
       height="35"
       x="85"
       y="81"
       ry="0" />
    <path
       style="fill:#ffffff;fill-opacity:0.50196078;stroke:none;stroke-opacity:1"
       d="m 85.256828,98.542857 0,-17.5 9.75,0 9.750002,0 0,17.5 0,17.500003 -9.750002,0 -9.75,0 0,-17.500003 z"
       id="path4299"
       inkscape:connector-curvature="0" />
    <path
       style="fill:#ffffff;fill-opacity:0.50196078;stroke:none;stroke-opacity:1"
       d="m 53.020043,205.06729 c -5.759746,-0.26403 -6.01071,-0.32184 -6.617629,-1.52443 -0.938613,-1.85984 -0.777929,-4.1969 0.390704,-5.68257 l 1.03629,-1.31743 30.33871,-0.10919 c 16.68629,-0.0601 27.331672,-0.17926 23.656412,-0.26491 l -6.682297,-0.15573 0.20565,-3.2297 c 0.14254,-2.23851 0.521855,-3.65334 1.23596,-4.61009 l 1.03031,-1.38038 13.821337,-0.13291 13.82134,-0.13291 -0.002,-8.11709 -0.002,-8.11709 -24.3546,-0.13198 c -14.133163,-0.0766 -24.549534,-0.32691 -24.819063,-0.59643 -0.272477,-0.27248 -0.486599,-11.08662 -0.518023,-26.16257 -0.0458,-21.973 0.05339,-25.8275 0.684267,-26.59075 0.701488,-0.84868 3.232037,-0.88233 51.372329,-0.68313 39.75507,0.16449 50.76935,0.3445 51.26216,0.83776 0.90526,0.90609 0.91532,51.74002 0.0104,52.64458 -0.47165,0.47147 -6.33895,0.62474 -24.87355,0.64977 l -24.2563,0.0327 -0.002,7.81905 -0.001,7.81905 11.875,0.32004 c 6.53125,0.17602 12.83552,0.44063 14.00948,0.58801 2.73831,0.34377 3.64902,1.68654 3.98531,5.87602 l 0.25461,3.17193 11.2686,0.32795 c 6.19786,0.18037 16.84104,0.32795 23.65164,0.32795 l 12.38291,0 1.03629,1.31743 c 1.30457,1.6585 1.32045,3.96038 0.0418,6.05757 l -0.99076,1.625 -74.13235,-0.10057 c -40.772795,-0.0553 -76.826405,-0.22406 -80.119137,-0.375 z"
       id="path4301"
       inkscape:connector-curvature="0" />
    <path
       style="fill:#ffffff;fill-opacity:0.50196078;stroke:none;stroke-opacity:1"
       d="m 85.256828,98.542857 0,-17.5 9.75,0 9.750002,0 0,17.5 0,17.500003 -9.750002,0 -9.75,0 0,-17.500003 z"
       id="path4303"
       inkscape:connector-curvature="0" />
    <path
       style="fill:#ffffff;fill-opacity:0.50196078;stroke:none;stroke-opacity:1"
       d="m 69.922944,205.05571 c -12.421136,-0.14457 -22.684408,-0.37535 -22.807272,-0.51285 -1.560126,-1.74598 -1.69952,-4.18512 -0.364324,-6.375 l 0.990782,-1.625 26.632349,-0.0945 c 14.647792,-0.052 25.308769,-0.17662 23.691059,-0.27693 l -2.941285,-0.18239 0.33493,-3.26912 c 0.4608,-4.49767 1.193775,-5.46515 4.435515,-5.85456 1.436672,-0.17257 7.730882,-0.31573 13.987132,-0.31812 l 11.375,-0.004 0,-8.18493 0,-8.18493 -22.875,-0.0808 c -22.060354,-0.0779 -25.867364,-0.22795 -26.368606,-1.03897 -0.127908,-0.20696 -0.272945,-11.91512 -0.322306,-26.01812 -0.104109,-29.7452 -0.68153,-26.99223 5.661475,-26.99223 l 3.904435,0 0,-17.500003 0,-17.5 9.75,0 9.750002,0 0,17.417833 0,17.41783 36.2863,0.334 c 21.48807,0.19779 36.65143,0.52942 37.18163,0.81317 0.80583,0.43127 0.93183,1.67938 1.26049,12.48529 0.20084,6.60337 0.20034,18.20823 -0.001,25.78859 -0.31696,11.92683 -0.47473,13.83867 -1.1718,14.19987 -0.44303,0.22956 -11.54865,0.50199 -24.67916,0.6054 l -23.87375,0.18802 -10e-4,7.875 -0.001,7.875 3.125,0.0306 c 7.09718,0.0694 23.68254,0.87608 24.43227,1.18828 1.1492,0.47853 1.92246,2.4405 2.26915,5.75748 l 0.30014,2.87161 8.26658,0.32602 c 4.54661,0.1793 15.20894,0.32601 23.69406,0.32601 l 15.4275,0 1.01655,1.625 c 1.15446,1.84544 1.04566,4.02971 -0.30328,6.08844 l -0.848,1.29422 -57.31499,-0.11598 c -31.52324,-0.0638 -67.477729,-0.23426 -79.898866,-0.37883 z"
       id="path4305"
       inkscape:connector-curvature="0" />
    <rect
       style="fill:#ffffff;fill-opacity:0.50196078;stroke:none;stroke-opacity:1"
       id="rect4307"
       width="20"
       height="35"
       x="150"
       y="81" />
    <path
       style="fill:#ffffff;fill-opacity:0.50196078;stroke:none;stroke-opacity:1"
       d="m 150.25683,98.542857 0,-17.5 9.75,0 9.75,0 0,17.5 0,17.500003 -9.75,0 -9.75,0 0,-17.500003 z"
       id="path4309"
       inkscape:connector-curvature="0" />
    <path
       style="fill:#ffffff;fill-opacity:0.50196078;stroke:none;stroke-opacity:1"
       d="m 154.13183,116.17859 -3.875,-0.1778 0,-17.478965 0,-17.478968 9.75639,0 9.7564,0 -0.1314,17.625 -0.13139,17.625003 -5.75,0.0318 c -3.1625,0.0175 -7.49375,-0.0482 -9.625,-0.14604 z"
       id="path4311"
       inkscape:connector-curvature="0" />
    <path
       style="fill:#ffffff;fill-opacity:0.50196078;stroke:none;stroke-opacity:1"
       d="m 94.656152,170.06516 c -11.419886,-0.17421 -18.039247,-0.46112 -18.374112,-0.79641 -0.347524,-0.34798 -0.565742,-9.1016 -0.649323,-26.04699 -0.103756,-21.03569 -0.0052,-25.66846 0.560334,-26.35089 0.538844,-0.65018 1.585833,-0.82801 4.875,-0.82801 l 4.188777,0 0,-17.500003 0,-17.5 9.75,0 9.750002,0 0,17.5 0,17.500003 22.75,0 22.75,0 0,-17.500003 0,-17.5 9.75648,0 9.75648,0 -0.13148,17.375 -0.13148,17.375003 -2.5,0.29645 c -1.57035,0.18621 0.0337,0.32565 4.31378,0.375 5.18082,0.0597 6.95408,0.2476 7.39921,0.78396 0.79282,0.95529 1.29658,26.65439 0.80235,40.93184 -0.32291,9.32852 -0.49416,10.94929 -1.19611,11.32058 -0.45058,0.23832 -11.5326,0.59877 -24.62672,0.80099 l -23.80749,0.36768 -0.33903,-1.80717 c -0.63966,-3.40968 -3.33432,-3.49394 -4.20404,-0.13145 l -0.40405,1.56212 -6.21895,0.0223 c -3.42042,0.0122 -14.25176,-0.10024 -24.069628,-0.25 z"
       id="path4313"
       inkscape:connector-curvature="0" />
    <rect
       style="fill:#ffffff;fill-opacity:0.50196078;stroke:none;stroke-opacity:1"
       id="rect4315"
       width="30"
       height="5"
       x="80"
       y="111"
       ry="0" />
    <path
       style="fill:#ffffff;fill-opacity:0.50196078;stroke:none;stroke-opacity:1"
       d="m 80.256828,113.54286 0,-2.5 2.25,0 2.25,0 0,2.5 0,2.5 -2.25,0 -2.25,0 0,-2.5 z"
       id="path4317"
       inkscape:connector-curvature="0" />
    <path
       style="fill:#ffffff;fill-opacity:0.50196078;stroke:none;stroke-opacity:1"
       d="m 80.256828,113.54286 0,-2.5 2.25,0 2.25,0 0,2.5 0,2.5 -2.25,0 -2.25,0 0,-2.5 z"
       id="path4319"
       inkscape:connector-curvature="0" />
    <path
       style="fill:#ffffff;fill-opacity:0.50196078;stroke:none;stroke-opacity:1"
       d="m 105.25683,113.54286 0,-2.5 2.25,0 2.25,0 0,2.5 0,2.5 -2.25,0 -2.25,0 0,-2.5 z"
       id="path4321"
       inkscape:connector-curvature="0" />
    <path
       style="fill:#ffffff;fill-opacity:0.50196078;stroke:none;stroke-opacity:1"
       d="m 105.25683,113.54286 0,-2.5 2.25,0 2.25,0 0,2.5 0,2.5 -2.25,0 -2.25,0 0,-2.5 z"
       id="path4323"
       inkscape:connector-curvature="0" />
    <path
       style="fill:#ffffff;fill-opacity:0.50196078;stroke:none;stroke-opacity:1"
       d="m 80.256828,113.54286 0,-2.5 2.25,0 2.25,0 0,2.5 0,2.5 -2.25,0 -2.25,0 0,-2.5 z"
       id="path4325"
       inkscape:connector-curvature="0" />
    <rect
       style="fill:#ffffff;fill-opacity:0.50196078;stroke:none;stroke-opacity:1"
       id="rect4327"
       width="30"
       height="5"
       x="145"
       y="111" />
    <path
       style="fill:#ffffff;fill-opacity:0.50196078;stroke:none;stroke-opacity:1"
       d="m 145.25683,113.54286 0,-2.5 2.25,0 2.25,0 0,2.5 0,2.5 -2.25,0 -2.25,0 0,-2.5 z"
       id="path4329"
       inkscape:connector-curvature="0" />
    <path
       style="fill:#ffffff;fill-opacity:0.50196078;stroke:none;stroke-opacity:1"
       d="m 145.25683,113.54286 0,-2.5 2.25,0 2.25,0 0,2.5 0,2.5 -2.25,0 -2.25,0 0,-2.5 z"
       id="path4331"
       inkscape:connector-curvature="0" />
    <path
       style="fill:#ffffff;fill-opacity:0.50196078;stroke:none;stroke-opacity:1"
       d="m 170.25683,113.54286 0,-2.5 2.25,0 2.25,0 0,2.5 0,2.5 -2.25,0 -2.25,0 0,-2.5 z"
       id="path4333"
       inkscape:connector-curvature="0" />
    <path
       style="fill:#ffffff;fill-opacity:0.50196078;stroke:none;stroke-opacity:1"
       d="m 169.63183,116.25673 c 0.37495,-0.1783 0.625,-1.28072 0.625,-2.75554 l 0,-2.45833 2.25,0 2.25,0 0,2.5 c 0,2.48578 -0.009,2.50004 -1.625,2.50682 -0.89375,0.004 -2.1875,0.11875 -2.875,0.25555 -0.6875,0.13679 -0.96875,0.11497 -0.625,-0.0485 z"
       id="path4335"
       inkscape:connector-curvature="0" />
    <path
       style="fill:#ffffff;stroke:none;stroke-width:1px;stroke-linecap:butt;stroke-linejoin:miter;stroke-opacity:1"
       d="m 98.511609,215.10462 c -1.909399,-0.40855 -2.803026,-2.22824 -3.136907,-6.38768 l -0.254784,-3.17408 32.318452,0 32.31846,0 0,2.42539 c 0,2.70837 -0.75693,5.37979 -1.8983,6.69961 -0.70532,0.8156 -2.69463,0.87098 -29.3042,0.81584 -15.70112,-0.0325 -29.22035,-0.20312 -30.042721,-0.37908 z"
       id="path4348"
       inkscape:connector-curvature="0" />
  </g>
  <g
     inkscape:groupmode="layer"
     id="layer4"
     inkscape:label="Calque 4"
     transform="translate(-14.5,-15.500026)">
    <path
       style="fill:none;fill-opacity:0.50196078;stroke:#ffffff;stroke-width:20;stroke-linejoin:round;stroke-miterlimit:4;stroke-dasharray:none;stroke-opacity:1"
       id="path4340"
       sodipodi:type="arc"
       sodipodi:cx="127.5"
       sodipodi:cy="81"
       sodipodi:rx="32.5"
       sodipodi:ry="30"
       sodipodi:start="3.1415927"
       sodipodi:end="0"
       d="M 95,80.999999 A 32.5,30 0 0 1 127.5,51 32.5,30 0 0 1 160,81"
       sodipodi:open="true" />
  </g>
  <g
     inkscape:groupmode="layer"
     id="layer5"
     inkscape:label="Oeil"
     transform="translate(-14.5,-15.500026)">
    <ellipse
       style="fill:#b3b3b3;fill-opacity:0.50196078;stroke:#4d4d4d;stroke-width:4;stroke-linejoin:round;stroke-miterlimit:4;stroke-dasharray:none;stroke-opacity:1"
       id="path4357"
       cx="127.5"
       cy="143.5"
       rx="42.5"
       ry="17.5" />
    <ellipse
       style="fill:#008080;fill-opacity:0.50196078;stroke:#4d4d4d;stroke-width:3;stroke-linejoin:round;stroke-miterlimit:4;stroke-dasharray:none;stroke-opacity:1"
       id="path4359"
       cx="127.5"
       cy="143.5"
       rx="22.5"
       ry="17.5" />
    <ellipse
       style="fill:#000000;fill-opacity:0.50196078;stroke:#4d4d4d;stroke-width:0.54621786;stroke-linejoin:round;stroke-miterlimit:4;stroke-dasharray:none;stroke-opacity:1"
       id="path4361"
       cx="127.25"
       cy="142.75"
       rx="5.3768911"
       ry="4.8768911" />
    <path
       style="fill:#14ccfc;fill-opacity:1;stroke:none;stroke-width:3;stroke-miterlimit:4;stroke-dasharray:none"
       d="m 108.11472,143.07149 c -6.7932,-0.7175 -13.327267,-5.49661 -15.192374,-11.11192 -2.286372,-6.88362 1.472573,-13.69185 9.715964,-17.59764 3.22153,-1.52638 3.50226,-1.5691 10.31169,-1.5691 6.88135,0 7.05932,0.028 10.5,1.652 8.65513,4.0852 12.36775,11.79951 9.07088,18.848 -1.8661,3.98958 -6.41812,7.66534 -11.32088,9.14162 -2.43496,0.73319 -9.1019,1.05776 -13.08528,0.63704 z m 7.92773,-7.06047 c 1.91545,-0.72371 4.1366,-2.88139 4.96913,-4.82713 2.32622,-5.43673 -1.94038,-11.64106 -8.00534,-11.64106 -2.78286,0 -4.70454,0.89056 -6.48336,3.00457 -2.87231,3.41354 -2.8569,7.59562 0.0406,11.03917 2.26646,2.69353 6.1427,3.68496 9.47892,2.42445 z"
       id="path5114"
       inkscape:connector-curvature="0"
       transform="translate(14.5,15.500026)" />
    <path
       style="fill:#14ccfc;fill-opacity:1;stroke:none;stroke-width:0.80000001;stroke-miterlimit:4;stroke-dasharray:none"
       d="m 110.7,135.97391 c -3.41066,-0.9936 -6,-4.41977 -6,-7.93912 0,-2.41683 0.55987,-3.65027 2.66744,-5.87662 4.9713,-5.25146 13.94794,-1.44024 13.94794,5.92189 0,5.39555 -5.402,9.41261 -10.61538,7.89385 z m 5.34776,-4.40904 c 2.21125,-1.34828 3.08543,-4.234 1.9486,-6.43239 -1.94263,-3.75663 -8.41567,-4.10375 -10.31587,-0.5532 -2.68245,5.01221 3.34744,10.04638 8.36727,6.98559 z"
       id="path5116"
       inkscape:connector-curvature="0"
       transform="translate(14.5,15.500026)" />
    <path
       style="fill:#14ccfc;fill-opacity:1;stroke:none;stroke-width:0.80000001;stroke-miterlimit:4;stroke-dasharray:none"
       d="m 104.61819,142.11795 c -1.5575,-0.5171 -3.61147,-1.42203 -4.56437,-2.01096 -2.369249,-1.46427 -5.77102,-5.24387 -6.681995,-7.42414 -1.094583,-2.6197 -0.942593,-7.26496 0.323262,-9.87987 1.417319,-2.92779 5.346474,-6.49112 9.132493,-8.28221 2.99926,-1.41889 3.40081,-1.47717 10.18024,-1.47755 l 7.05782,-3.9e-4 3.53298,1.76748 c 4.51156,2.25704 8.25879,6.20933 9.34041,9.85156 0.94686,3.18841 0.94513,3.57931 -0.0302,6.8637 -1.05083,3.53852 -4.77638,7.49557 -9.02741,9.58834 -2.95831,1.45637 -3.57783,1.56702 -9.79473,1.74946 -5.5217,0.16203 -7.11242,0.0368 -9.46848,-0.74542 z m 11.98164,-6.28048 c 1.53716,-0.80305 3.7096,-3.02224 4.53908,-4.63677 0.97378,-1.8954 0.66588,-5.1412 -0.71048,-7.48978 -1.55015,-2.64513 -4.28446,-4.16809 -7.48334,-4.16809 -2.78169,0 -4.59386,0.87628 -6.64621,3.21377 -3.54394,4.03633 -2.36273,9.81022 2.62981,12.85477 1.83038,1.1162 5.74641,1.23162 7.67114,0.2261 z"
       id="path5118"
       inkscape:connector-curvature="0"
       transform="translate(14.5,15.500026)" />
    <path
       style="fill:#14ccfc;fill-opacity:1;stroke:none;stroke-width:0.80000001;stroke-miterlimit:4;stroke-dasharray:none"
       d="m 109.2,135.02384 c -5.07327,-3.11545 -5.7391,-8.59164 -1.54282,-12.6892 6.19582,-6.05005 16.16383,0.88875 12.659,8.812 -1.30101,2.94114 -3.56842,4.52507 -6.82036,4.76445 -1.95885,0.1442 -2.94931,-0.0604 -4.29582,-0.88725 z m 7.75866,-3.98915 c 2.47375,-2.32397 2.05017,-6.2086 -0.8712,-7.98976 -4.97637,-3.03409 -10.99538,1.20833 -8.66921,6.11037 0.43308,0.91264 1.40489,2.05553 2.15958,2.53976 1.91463,1.22847 5.734,0.88675 7.38083,-0.66037 z"
       id="path5120"
       inkscape:connector-curvature="0"
       transform="translate(14.5,15.500026)" />
    <path
       style="fill:#14ccfc;fill-opacity:1;stroke:none;stroke-width:0.80000001;stroke-miterlimit:4;stroke-dasharray:none"
       d="m 105.95,142.60677 c -5.10393,-1.3469 -10.321376,-5.32994 -12.279018,-9.37388 -1.447257,-2.98964 -1.447257,-7.39048 0,-10.38012 1.439475,-2.97356 5.348294,-6.53037 9.156598,-8.332 3.00688,-1.42249 3.38799,-1.47717 10.2993,-1.47755 l 7.17689,-3.9e-4 3.42037,1.79736 c 4.53508,2.38311 8.13826,6.19627 9.18467,9.7199 0.97939,3.29798 0.97939,3.6675 0,6.96548 -1.05637,3.55718 -4.77453,7.49465 -9.0776,9.61305 -3.03944,1.49631 -3.55484,1.5869 -9.79473,1.7217 -3.62257,0.0783 -7.26148,-0.0358 -8.08648,-0.25355 z m 10.39887,-6.73946 c 2.18937,-0.91478 4.72911,-3.91558 5.13211,-6.06379 0.56779,-3.02655 -0.17663,-5.28792 -2.50827,-7.61956 -1.17762,-1.17762 -2.42901,-2.14113 -2.78086,-2.14113 -0.35185,0 0.1041,0.50625 1.01323,1.125 2.82506,1.92271 3.74492,3.59928 3.74492,6.82559 0,2.40037 -0.23882,3.19036 -1.44091,4.76638 -1.82152,2.38813 -4.30847,3.45836 -7.35594,3.16554 -2.98193,-0.28653 -5.08317,-1.8025 -6.47043,-4.66821 -1.28844,-2.66155 -1.11661,-4.98012 0.54859,-7.40244 1.66266,-2.41861 3.35323,-3.42598 6.40946,-3.81926 2.67526,-0.34424 2.70712,-0.36461 0.66817,-0.42704 -4.10886,-0.12581 -7.44694,2.35885 -8.67476,6.45697 -0.73451,2.45156 -0.0319,5.19033 1.92935,7.52121 2.35231,2.79556 6.33276,3.72332 9.78534,2.28074 z m -0.6325,-4.08294 c 1.48389,-0.76735 2.98363,-3.02506 2.98363,-4.49154 0,-1.50314 -1.51544,-3.73231 -3.09132,-4.54722 -1.80246,-0.93209 -5.4099,-0.73887 -6.73586,0.36077 -1.45756,1.20879 -2.23242,3.7146 -1.63474,5.28662 1.40838,3.70432 5.0535,5.16239 8.47829,3.39137 z"
       id="path5122"
       inkscape:connector-curvature="0"
       transform="translate(14.5,15.500026)" />
    <path
       style="fill:#14ccfc;fill-opacity:1;stroke:none;stroke-width:0.80000001;stroke-miterlimit:4;stroke-dasharray:none"
       d="m 104.84302,142.3452 c -4.81966,-1.56973 -9.85603,-5.77561 -11.422786,-9.5392 -1.156829,-2.77888 -1.102445,-7.01116 0.125456,-9.76317 1.313752,-2.94443 5.376287,-6.6744 9.28189,-8.52206 3.0045,-1.42136 3.39204,-1.47717 10.26168,-1.47755 6.98824,-3.8e-4 7.20412,0.0323 10.20551,1.54745 1.68645,0.85132 4.26141,2.67816 5.72215,4.05967 7.67833,7.26184 5.31974,17.30961 -5.29059,22.53831 -3.08249,1.51903 -3.52042,1.59417 -10,1.71569 -4.69817,0.0881 -7.4225,-0.0834 -8.88331,-0.55914 z m 12.01141,-6.80515 c 0.46701,-0.50493 0.44974,-0.56101 -0.08,-0.2598 -0.37157,0.21127 -1.83407,0.57064 -3.25,0.79861 l -2.57441,0.41447 2.65443,-0.15468 c 1.45994,-0.0851 2.92244,-0.44445 3.25,-0.7986 z m -9.1071,-1.45301 c -0.85713,-0.80068 -1.88462,-2.20693 -2.28331,-3.125 -0.39868,-0.91806 -0.73369,-1.35827 -0.74445,-0.97823 -0.0283,0.99961 1.8832,3.93422 3.13269,4.80939 1.64789,1.15423 1.60941,0.89528 -0.10493,-0.70616 z m 13.1745,-2.80547 c 0.42799,-0.90193 0.75171,-2.39337 0.71936,-3.3143 -0.0492,-1.40206 -0.12532,-1.27771 -0.4677,0.76449 -0.25887,1.54414 -1.00318,3.19511 -2.02873,4.5 -1.33687,1.70101 -1.39111,1.85393 -0.31048,0.87538 0.72016,-0.65213 1.65956,-1.92364 2.08755,-2.82557 z m -4.4974,0.074 c 0.65248,-0.42752 1.44603,-1.56421 1.76344,-2.52598 1.47998,-4.48437 -3.98663,-8.36443 -8.49788,-6.03158 -1.76169,0.91101 -2.48999,2.15259 -2.48999,4.24483 0,2.08731 0.73534,3.34742 2.65691,4.55302 1.81666,1.13977 4.61769,1.03729 6.56752,-0.24029 z m -11.89329,-3.93773 c -0.13871,-0.34375 -0.25219,-0.0625 -0.25219,0.625 0,0.6875 0.11348,0.96875 0.25219,0.625 0.13871,-0.34375 0.13871,-0.90625 0,-1.25 z m 3.2199,-5.34912 c 1.17264,-1.17264 1.34995,-1.50808 0.57909,-1.09553 -1.30576,0.69883 -3.63872,3.96879 -3.61056,5.06072 0.0108,0.41741 0.31697,0.0763 0.68045,-0.75805 0.36348,-0.83435 1.42144,-2.27755 2.35102,-3.20714 z M 120.2,123.37999 c 0,-0.0896 -0.61875,-0.70832 -1.375,-1.375 l -1.375,-1.21216 1.21216,1.375 c 1.13294,1.28514 1.53784,1.60429 1.53784,1.21216 z m -6.625,-3.68182 c -0.48125,-0.12577 -1.26875,-0.12577 -1.75,0 -0.48125,0.12576 -0.0875,0.22866 0.875,0.22866 0.9625,0 1.35625,-0.1029 0.875,-0.22866 z"
       id="path5124"
       inkscape:connector-curvature="0"
       transform="translate(14.5,15.500026)" />
    <path
       style="fill:#14ccfc;fill-opacity:1;stroke:none;stroke-width:0.80000001;stroke-miterlimit:4;stroke-dasharray:none"
       d="m 104.84302,142.3452 c -5.002387,-1.62924 -10.393347,-6.28951 -11.660688,-10.08022 -0.911323,-2.72582 -0.836655,-6.15011 0.19289,-8.84593 1.135183,-2.97244 5.379161,-6.97134 9.434818,-8.88998 3.02773,-1.43236 3.39648,-1.48547 10.31684,-1.48585 l 7.17689,-3.9e-4 3.45467,1.81538 c 6.51263,3.42229 9.65457,7.71303 9.65457,13.18462 0,5.46942 -3.33883,10.02238 -9.61583,13.11254 -3.16487,1.55806 -3.56118,1.62689 -10.07085,1.74897 -4.69817,0.0881 -7.4225,-0.0834 -8.88331,-0.55914 z m 9.22156,-6.10445 c -0.16614,-0.16615 -0.59739,-0.18391 -0.95833,-0.0395 -0.39887,0.15961 -0.28039,0.27809 0.30208,0.30208 0.52709,0.0217 0.8224,-0.0965 0.65625,-0.26261 z M 108.2,134.87032 c 0,-0.0949 -0.50625,-0.60112 -1.125,-1.125 l -1.125,-0.95249 0.95249,1.125 c 0.89511,1.05722 1.29751,1.35262 1.29751,0.95249 z m -2.59194,-3.5796 c -0.31378,-0.68867 -0.66468,-1.15794 -0.77979,-1.04283 -0.23352,0.23353 0.78024,2.29494 1.1286,2.29494 0.12193,0 -0.035,-0.56345 -0.34881,-1.25211 z m 9.81899,0.47949 c 6.17795,-2.93163 1.64098,-11.41153 -4.94291,-9.23865 -2.21273,0.73027 -3.28414,2.20202 -3.28414,4.51127 0,2.18829 1.13266,3.88651 3.18915,4.78154 2.04767,0.89119 3.06884,0.88022 5.0379,-0.0542 z m 6.10409,-3.85238 c -0.13871,-0.34375 -0.25219,-0.0625 -0.25219,0.625 0,0.6875 0.11348,0.96875 0.25219,0.625 0.13871,-0.34375 0.13871,-0.90625 0,-1.25 z m -14.64984,-5.125 1.39085,-2 -1.53607,1.73111 c -0.84485,0.95212 -1.53608,1.94586 -1.53608,2.20834 0,0.26247 0.0653,0.38347 0.14522,0.26888 0.0799,-0.11458 0.77111,-1.10833 1.53608,-2.20833 z"
       id="path5126"
       inkscape:connector-curvature="0"
       transform="translate(14.5,15.500026)" />
    <path
       style="fill:#14ccfc;fill-opacity:1;stroke:none;stroke-width:0.80000001;stroke-miterlimit:4;stroke-dasharray:none"
       d="m 104.95,142.37068 c -4.71019,-1.55384 -9.478213,-5.35486 -11.370859,-9.06475 -1.407946,-2.75981 -1.407946,-7.76639 0,-10.5262 1.445307,-2.83303 5.575555,-6.52139 9.248439,-8.25896 3.00762,-1.42284 3.38672,-1.47717 10.31106,-1.47755 7.02945,-3.8e-4 7.2584,0.0339 10.33836,1.55021 3.71884,1.83078 7.22028,5.02894 8.80123,8.0389 1.57242,2.99372 1.57581,7.82099 0.008,10.80613 -1.54536,2.94163 -4.72192,5.90077 -8.32101,7.75151 -2.88979,1.48599 -3.3051,1.55629 -10.01481,1.69538 -4.8105,0.0997 -7.62557,-0.0613 -9,-0.51467 z m 9.59245,-10.36116 c 3.59291,-1.36131 4.80331,-4.87523 2.63073,-7.63723 -3.10283,-3.9446 -9.97318,-2.10492 -9.97318,2.67054 0,1.79111 1.49159,4.04368 3.15736,4.76817 1.95696,0.85114 2.40637,0.87246 4.18509,0.19852 z"
       id="path5128"
       inkscape:connector-curvature="0"
       transform="translate(14.5,15.500026)" />
    <path
       style="fill:#0050dc;fill-opacity:1;stroke:none;stroke-width:0.80000001;stroke-miterlimit:4;stroke-dasharray:none"
       d="m 103.5651,141.86043 c -7.150134,-3.0089 -11.045314,-7.88173 -11.045314,-13.8176 0,-5.03088 2.389167,-8.72098 7.930214,-12.24829 3.84551,-2.44798 5.28092,-2.75171 13.00438,-2.75171 6.99567,0 7.15239,0.0244 10.17026,1.5808 6.39162,3.29641 9.78837,7.95313 9.78837,13.4192 0,5.43045 -3.25517,9.96063 -9.4482,13.14895 -2.90008,1.49302 -3.29072,1.55838 -10.26481,1.71738 -6.75377,0.15397 -7.44746,0.0822 -10.1349,-1.04873 z m 11.33561,-10.01478 c 4.43877,-1.85464 4.41365,-7.2615 -0.0424,-9.12335 -2.35425,-0.98367 -4.85767,-0.43111 -6.41113,1.41507 -2.5174,2.99175 -1.03823,6.66574 3.25282,8.07943 1.19453,0.39353 1.43818,0.36528 3.20071,-0.37115 z"
       id="path5130"
       inkscape:connector-curvature="0"
       transform="translate(14.5,15.500026)" />
    <path
       style="fill:#ffffff;fill-opacity:1;stroke:none;stroke-width:0.80000001;stroke-miterlimit:4;stroke-dasharray:none"
       d="m 132.72679,139.01865 c 5.75772,-6.40398 5.75772,-15.54766 0,-21.95164 -2.64183,-2.93834 -2.39051,-3.05101 3.29132,-1.4755 4.98281,1.38168 11.33248,4.36778 13.69089,6.4385 6.05971,5.32049 3.85553,11.02613 -6.01696,15.57522 -3.08106,1.41971 -11.07053,3.9376 -12.49431,3.9376 -0.45195,0 0.14376,-0.9834 1.52906,-2.52418 z"
       id="path5132"
       inkscape:connector-curvature="0"
       transform="translate(14.5,15.500026)" />
    <path
       style="fill:#ffffff;fill-opacity:1;stroke:none;stroke-width:0.80000001;stroke-miterlimit:4;stroke-dasharray:none"
       d="m 89.55,140.2472 c -11.730999,-3.42932 -18.180157,-8.86345 -16.513251,-13.91422 1.248103,-3.78179 8.588875,-8.42487 17.003201,-10.75463 5.518147,-1.52787 6.005489,-1.41905 3.759524,0.83948 -6.362819,6.3984 -6.415855,16.564 -0.119995,23 2.503841,2.55957 2.080222,2.64465 -4.129479,0.82937 z"
       id="path5134"
       inkscape:connector-curvature="0"
       transform="translate(14.5,15.500026)" />
  </g>
</svg>
