<?xml version="1.0" encoding="UTF-8" standalone="no"?>
<!-- Created with Inkscape (http://www.inkscape.org/) -->

<svg
   width="60"
   height="50"
   viewBox="0 0 60 50"
   version="1.1"
   id="SVGRoot"
   sodipodi:docname="comp3_glow.svg"
   inkscape:version="1.2.2 (b0a8486541, 2022-12-01)"
   xmlns:inkscape="http://www.inkscape.org/namespaces/inkscape"
   xmlns:sodipodi="http://sodipodi.sourceforge.net/DTD/sodipodi-0.dtd"
   xmlns:xlink="http://www.w3.org/1999/xlink"
   xmlns="http://www.w3.org/2000/svg"
   xmlns:svg="http://www.w3.org/2000/svg">
  <sodipodi:namedview
     id="namedview1216"
     pagecolor="#0e0e0e"
     bordercolor="#999999"
     borderopacity="1"
     inkscape:showpageshadow="false"
     inkscape:pageopacity="0"
     inkscape:pagecheckerboard="false"
     inkscape:deskcolor="#d1d1d1"
     inkscape:document-units="px"
     showgrid="true"
     inkscape:zoom="16"
     inkscape:cx="17"
     inkscape:cy="29.46875"
     inkscape:window-width="1920"
     inkscape:window-height="1004"
     inkscape:window-x="0"
     inkscape:window-y="0"
     inkscape:window-maximized="1"
     inkscape:current-layer="layer1"
     showborder="true"
     shape-rendering="crispEdges"
     showguides="true">
    <inkscape:grid
       type="xygrid"
       id="grid1702"
       originx="0"
       originy="0" />
  </sodipodi:namedview>
  <defs
     id="defs1211">
    <linearGradient
       inkscape:collect="always"
       id="linearGradient4121">
      <stop
         style="stop-color:#ffffff;stop-opacity:1;"
         offset="0"
         id="stop4117" />
      <stop
         style="stop-color:#ffffff;stop-opacity:0;"
         offset="1"
         id="stop4119" />
    </linearGradient>
    <radialGradient
       inkscape:collect="always"
       xlink:href="#linearGradient4121"
       id="radialGradient4123"
       cx="29.999996"
       cy="23.616812"
       fx="29.999996"
       fy="23.616812"
       r="25.630433"
       gradientTransform="matrix(1.8247079e-6,-0.70229016,0.93638688,0,7.885473,44.068703)"
       gradientUnits="userSpaceOnUse" />
  </defs>
  <g
     inkscape:label="Слой 1"
     inkscape:groupmode="layer"
     id="layer1">
    <path
       id="rect2850"
       style="fill:url(#radialGradient4123);stroke:#dfdfdf;stroke-width:5;stroke-linecap:round;stroke-linejoin:round;stroke-dasharray:none;stroke-opacity:1;fill-opacity:1"
       d="M 6.8695668,10 H 53.130433 V 34.347824 H 6.8695668 Z"
       sodipodi:nodetypes="ccccc" />
    <path
       id="path4025"
       style="fill:none;stroke:#dfdfdf;stroke-width:5;stroke-linecap:round;stroke-linejoin:round;stroke-dasharray:none;stroke-opacity:1"
       d="M 2.7999716,34.347824 H 57.200028 C 57.200028,34.347824 53.200003,44 50,44 H 10 C 6.7999973,44 2.7999716,34.347824 2.7999716,34.347824 Z"
       sodipodi:nodetypes="ccscc" />
    <path
       style="display:inline;fill:#ffffff;stroke:none;stroke-width:0.2;stroke-dasharray:none;stroke-opacity:1"
       d="m 29.969465,13.401717 c -0.208024,0.05429 -0.198677,0.29506 -0.198927,0.465116 -6.23e-4,0.498598 -0.03233,1.009784 0.0022,1.507113 0.01197,0.171852 0.122354,0.355673 0.323019,0.301436 0.207773,-0.05616 0.198653,-0.29384 0.198881,-0.465227 6.27e-4,-0.497703 0.03605,-1.011 -0.0022,-1.507135 -0.01284,-0.165133 -0.131215,-0.351317 -0.322888,-0.301311 m -4.160362,1.213965 c -0.205602,0.08325 -0.155546,0.311242 -0.07165,0.463414 0.235372,0.426918 0.526848,0.835397 0.791644,1.245003 0.09037,0.139782 0.227039,0.338246 0.42239,0.266204 0.199111,-0.07343 0.179295,-0.307239 0.100887,-0.462754 -0.22256,-0.441161 -0.536508,-0.866686 -0.810872,-1.27768 -0.09479,-0.141981 -0.24019,-0.312005 -0.432389,-0.234179 m 8.418231,0.06617 c -0.178518,0.03847 -0.280326,0.259437 -0.372198,0.397236 -0.256287,0.384362 -0.612356,0.786395 -0.792197,1.212263 -0.07066,0.167348 0.03508,0.40506 0.245801,0.370983 0.172028,-0.02774 0.274074,-0.241105 0.360732,-0.370983 0.260869,-0.391071 0.637913,-0.808862 0.813758,-1.245028 0.07159,-0.177627 -0.03566,-0.411905 -0.255897,-0.364471 M 30,17 c -2.825629,0.08155 -4.826914,2.751023 -4.09903,5.483728 0.14404,0.540704 0.409682,1.071186 0.760712,1.507141 0.252236,0.313292 0.584376,0.56495 0.785746,0.917392 0.228842,0.400502 0.309259,0.890423 0.350968,1.343322 0.01805,0.194812 -0.06449,0.52396 0.114445,0.660354 0.221806,0.169056 0.802092,0.06045 1.071446,0.06045 0.98816,0 1.995261,0.05702 2.981517,-0.0014 0.327343,-0.01942 0.283712,-0.309193 0.313483,-0.55561 0.07151,-0.592012 0.100363,-1.208794 0.483203,-1.703724 0.655511,-0.847374 1.301678,-1.487419 1.509334,-2.588352 0.491264,-2.604731 -1.566243,-5.201401 -4.271857,-5.123328 m -6.683582,0.401475 c -0.246197,0.0047 -0.328225,0.283379 -0.157076,0.443625 0.326018,0.305293 0.876831,0.503353 1.270721,0.713926 0.144903,0.07746 0.316877,0.20743 0.490426,0.178861 0.252422,-0.04155 0.225213,-0.353098 0.06143,-0.480715 -0.339815,-0.264832 -0.794536,-0.445225 -1.17436,-0.648293 -0.148579,-0.07946 -0.314674,-0.21095 -0.491117,-0.207409 m 13.301812,0.02928 c -0.483304,0.15354 -1.131735,0.521141 -1.536691,0.826435 -0.202928,0.152942 -0.178794,0.505811 0.127891,0.480321 0.179433,-0.01478 0.370429,-0.146415 0.52419,-0.23232 0.354571,-0.19822 0.930787,-0.374197 1.198764,-0.682636 0.20967,-0.241379 -0.05944,-0.472719 -0.31414,-0.391791 m -4.849059,9.017448 h -3.440213 c -0.106425,-0.586376 -0.112924,-1.154305 -0.387629,-1.703723 -0.273343,-0.546665 -0.779124,-0.901828 -1.107911,-1.408848 -0.669005,-1.031669 -0.775684,-2.41172 -0.29207,-3.538501 1.165053,-2.71433 5.043023,-3.088231 6.66202,-0.589754 0.246044,0.379734 0.430682,0.801178 0.52448,1.245029 0.196553,0.929676 0.05843,1.925111 -0.415279,2.752168 -0.277584,0.484677 -0.715693,0.820574 -1.021935,1.277796 -0.376919,0.562751 -0.521378,1.297579 -0.521477,1.965833 m -1.799658,-8.330863 c -0.199205,0.06842 -0.24858,0.335698 -0.05904,0.449847 0.228228,0.137443 0.644271,0.09408 0.908543,0.172714 0.747936,0.22256 1.379164,0.752783 1.728167,1.450393 0.218125,0.436056 0.178517,0.87247 0.327116,1.308461 0.04331,0.127116 0.166328,0.214103 0.302713,0.18037 0.202448,-0.05013 0.201444,-0.272488 0.196735,-0.44038 -0.01085,-0.387991 -0.113735,-0.793608 -0.272062,-1.146739 -0.416165,-0.927938 -1.223568,-1.640487 -2.2171,-1.887855 -0.255714,-0.06365 -0.657671,-0.17523 -0.915064,-0.08683 m -1.673285,9.164524 c -0.635064,0.0896 -0.903467,0.967782 -0.229362,1.245748 0.308405,0.127187 0.752551,0.05026 1.081207,0.05026 h 1.867547 c 0.288076,0 0.641288,0.05445 0.917387,-0.03755 0.608361,-0.202699 0.599906,-1.069382 -0.03276,-1.231595 -0.448246,-0.114895 -0.981343,-0.04141 -1.441615,-0.04141 -0.703175,0 -1.46615,-0.08374 -2.162415,0.01461 m -0.0192,0.533166 c 0.191705,-0.100787 0.591224,-0.02346 0.805437,-0.02346 h 2.031361 c 0.189718,0 0.436513,-0.0415 0.619174,0.01355 0.08203,0.0247 0.148403,0.11215 0.07678,0.188346 -0.142528,0.151551 -0.665533,0.06029 -0.859757,0.06029 -0.835512,0 -1.725122,0.08825 -2.555094,-0.0034 -0.106288,-0.0116 -0.277158,-0.151586 -0.117876,-0.235308 m 0.477798,1.041169 c -0.625039,0.111527 -0.803897,0.939146 -0.196573,1.229663 0.240217,0.114895 0.560031,0.0647 0.819093,0.0647 0.6156,0 1.439973,0.144215 2.031365,-0.02744 0.556856,-0.161632 0.6463,-0.975382 0.0983,-1.215576 -0.264345,-0.115806 -0.603476,-0.06753 -0.884625,-0.06753 -0.598988,0 -1.277791,-0.08901 -1.867538,0.01619 m 0.0402,0.531464 c 0.161878,-0.07558 0.439397,-0.02346 0.615074,-0.02346 h 1.441615 c 0.08072,0 0.681884,-0.0097 0.443818,0.20183 -0.137583,0.122242 -0.469602,0.06029 -0.6404,0.06029 -0.569111,0 -1.206336,0.08092 -1.768238,-0.0079 -0.116192,-0.01827 -0.257422,-0.153522 -0.09187,-0.230856 z"
       id="path10468"
       inkscape:label="path10468" />
  </g>
</svg>
