<?xml version="1.0" encoding="UTF-8" standalone="no"?>
<svg
   version="1.1"
   width="512"
   height="512"
   x="0"
   y="0"
   viewBox="0 0 512 512"
   style="enable-background:new 0 0 512 512"
   xml:space="preserve"
   class="hovered-paths"
   id="svg22"
   sodipodi:docname="laptop_empty.svg"
   inkscape:version="1.2.2 (b0a8486541, 2022-12-01)"
   xmlns:inkscape="http://www.inkscape.org/namespaces/inkscape"
   xmlns:sodipodi="http://sodipodi.sourceforge.net/DTD/sodipodi-0.dtd"
   xmlns="http://www.w3.org/2000/svg"
   xmlns:svg="http://www.w3.org/2000/svg"><defs
     id="defs26" /><sodipodi:namedview
     id="namedview24"
     pagecolor="#505050"
     bordercolor="#eeeeee"
     borderopacity="1"
     inkscape:showpageshadow="0"
     inkscape:pageopacity="0"
     inkscape:pagecheckerboard="0"
     inkscape:deskcolor="#505050"
     showgrid="false"
     inkscape:zoom="1.137409"
     inkscape:cx="70.335299"
     inkscape:cy="284.41837"
     inkscape:window-width="1920"
     inkscape:window-height="1004"
     inkscape:window-x="0"
     inkscape:window-y="0"
     inkscape:window-maximized="1"
     inkscape:current-layer="svg22" /><g
     id="g20"><path
       id="path2"
       style="fill-opacity:1;fill:#6393b1"
       class="hovered-path"
       d="M 58.626953 88.763672 C 46.402965 88.763672 36.494141 98.672497 36.494141 110.89648 L 36.494141 382.45898 L 475.50586 382.45898 L 475.50586 110.89648 C 475.50586 98.672497 465.59608 88.763672 453.37109 88.763672 L 58.626953 88.763672 z M 68.457031 120.72656 L 443.53906 120.72656 L 443.53906 350.49414 L 68.457031 350.49414 L 68.457031 120.72656 z " /><path
       d="M475.485 110.884V382.47H444.64V110.884c0-12.2-9.909-22.108-22.162-22.108h30.898c12.2 0 22.109 9.909 22.109 22.108z"
       opacity="1"
       fill="#00000015"
       data-original="#00000015"
       class=""
       id="path4"
       style="fill:#6393b1;fill-opacity:1" /><path
       fill="#efefef"
       d="M506.383 398.139v-2.568c0-7.241-5.87-13.112-13.112-13.112H18.728c-7.241 0-13.112 5.87-13.112 13.112v2.568c0 3.477 1.381 6.812 3.84 9.271l11.987 11.987a13.111 13.111 0 0 0 9.271 3.84h450.57c3.477 0 6.812-1.381 9.271-3.84l11.987-11.987a13.106 13.106 0 0 0 3.841-9.271z"
       id="path10" /><path
       d="M506.383 395.575v2.557c0 3.464-1.385 6.819-3.835 9.269l-11.986 11.986a13.149 13.149 0 0 1-9.269 3.836h-30.899c3.516 0 6.819-1.385 9.27-3.836l11.986-11.986a13.15 13.15 0 0 0 3.836-9.269v-2.557c0-7.244-5.86-13.105-13.105-13.105h30.899c7.243 0 13.103 5.861 13.103 13.105z"
       opacity=".15"
       id="path12" /><path
       d="M448.868 110.071H63.13a5.327 5.327 0 0 0-5.327 5.327v240.423a5.327 5.327 0 0 0 5.327 5.327h385.738a5.327 5.327 0 0 0 5.327-5.327V115.399a5.328 5.328 0 0 0-5.327-5.328zm-5.328 240.424H68.457V120.726H443.54z"
       id="path14" /><path
       d="M493.271 377.131h-12.439V110.896c0-15.142-12.317-27.461-27.458-27.461H58.627c-15.142 0-27.461 12.319-27.461 27.461v266.235H18.729c-10.168 0-18.44 8.272-18.44 18.44v2.567c0 4.927 1.917 9.557 5.4 13.037l11.986 11.986a18.32 18.32 0 0 0 13.04 5.403h450.568a18.32 18.32 0 0 0 13.04-5.403l11.986-11.986a18.307 18.307 0 0 0 5.4-13.037v-2.567c.002-10.168-8.27-18.44-18.438-18.44zM41.821 110.896c0-9.268 7.538-16.806 16.806-16.806h394.746c9.266 0 16.804 7.538 16.804 16.806v266.235H41.821zm459.235 287.243a7.733 7.733 0 0 1-2.279 5.504l-11.986 11.986a7.745 7.745 0 0 1-5.507 2.281H30.716a7.753 7.753 0 0 1-5.507-2.281l-11.986-11.986a7.734 7.734 0 0 1-2.279-5.504v-2.567c0-4.292 3.493-7.785 7.785-7.785H493.27c4.292 0 7.785 3.493 7.785 7.785v2.567z"
       id="path16" /><path
       d="M475.504 397.522h-7.218a5.327 5.327 0 0 0 0 10.654h7.218a5.327 5.327 0 0 0 0-10.654zM446.594 397.522h-7.218a5.327 5.327 0 0 0 0 10.654h7.218a5.327 5.327 0 0 0 0-10.654zM417.684 397.522h-7.218a5.327 5.327 0 0 0 0 10.654h7.218a5.327 5.327 0 0 0 0-10.654zM388.774 397.522h-7.218a5.327 5.327 0 0 0 0 10.654h7.218a5.327 5.327 0 0 0 0-10.654z"
       id="path18" /></g></svg>
