<?xml version="1.0" encoding="UTF-8" standalone="no"?>
<svg
   height="16"
   viewBox="0 0 16 16"
   width="16"
   version="1.1"
   id="svg8"
   xmlns="http://www.w3.org/2000/svg"
   xmlns:svg="http://www.w3.org/2000/svg">
  <defs
     id="defs10" />
  <g
     aria-label="รก"
     transform="scale(1.0380275,0.96336561)"
     id="text6"
     style="font-size:20.6899px;stroke:#ffffff;stroke-width:39.086;stroke-linecap:round;paint-order:fill markers stroke">
    <g
       id="path289">
      <path
         style="color:#000000;fill:#2e3335;fill-opacity:1;stroke:none;stroke-width:39.0859;stroke-linecap:butt;-inkscape-stroke:none"
         d="m 8.224172,4.8490067 q 2.02761,0 3.000035,0.8896657 0.972426,0.8896657 0.972426,2.8345162 V 16.125002 H 10.872479 L 10.520751,14.55257 h -0.08276 q -0.7241462,0.910355 -1.5310523,1.344843 -0.7862162,0.434488 -2.1931293,0.434488 -1.5103627,0 -2.5034779,-0.786216 -0.9931151,-0.806906 -0.9931151,-2.503478 0,-1.655192 1.3034636,-2.544858 1.3034637,-0.9103553 4.0138405,-0.9931149 l 1.8827805,-0.06207 V 8.7800876 q 0,-1.3862233 -0.6000067,-1.9241606 -0.6000071,-0.5379374 -1.6965718,-0.5379374 -0.8689757,0 -1.6551919,0.2689687 Q 5.6793144,6.8352371 4.9965477,7.1662754 L 4.4379204,5.8007421 Q 5.1620669,5.407634 6.1551821,5.1386653 7.1482973,4.8490067 8.224172,4.8490067 Z m 0.5379374,5.9173113 q -2.0689899,0.08276 -2.875896,0.662077 -0.7862162,0.579317 -0.7862162,1.634502 0,0.931045 0.5586273,1.365533 0.5793172,0.434488 1.4689829,0.434488 1.4069131,0 2.3379586,-0.765526 0.931045,-0.786216 0.931045,-2.400029 V 10.704248 Z M 10.996619,0.48343793 Q 10.74834,0.85585612 10.231092,1.4558632 9.7138448,2.0351804 9.1138377,2.6351875 8.5345205,3.2145047 8.0379629,3.5869228 H 6.8379488 V 3.3386441 Q 7.1482973,2.945536 7.5000256,2.4075986 7.8724437,1.8696612 8.224172,1.3110339 8.5759003,0.73171672 8.8034892,0.27653893 h 2.1931298 z"
         id="path294" />
      <path
         style="color:#000000;fill:#ffffff;fill-opacity:0.028414;stroke:none;stroke-linecap:butt;-inkscape-stroke:none"
         d="m -3.2753906,-19.265625 -4.8144532,9.6289062 -0.265625,0.1445313 0.1972657,-0.00586 -0.3300782,0.6601563 c -0.026734,0.039778 -0.05327,0.082371 -0.080078,0.1210937 l -0.1464844,0.2128906 -0.017578,0.027344 L -9.125,-7.9804687 v -1.0937501 l -11.158203,6.0585938 4.662109,11.3945313 c -0.425543,1.6198069 -0.705078,3.2160097 -0.705078,4.6640627 0,4.9443 2.348247,12.904899 8.2128907,17.669922 l 0.095703,0.07813 0.097656,0.07813 c 0.6359862,0.503489 1.3459766,0.874904 2.0292969,1.296875 l 0.6816406,1.667968 1.1621094,-0.564453 c 0.6605358,0.325998 1.3382369,0.565265 2.0136719,0.826172 h -3.099609 L -4.78125,35.667969 H 4.1777344 C 5.0452067,35.767952 5.920044,35.875 6.7128906,35.875 c 0.7041909,0 1.633101,-0.153606 2.4414063,-0.207031 H 31.740234 V 8.5722656 c 0,-2.0209463 -0.371031,-4.6153288 -1.201172,-7.3144531 v -0.7734375 -19.75 z m 10.4121093,3.609375 0.9707032,0.970703 c -2.1096917,0.0092 -4.2907359,0.316549 -6.4277344,0.849609 z m -6.0898437,1.931641 c -0.040324,0.01092 -0.0903875,0.04161 -0.13085937,0.05273 -0.0765685,0.02156 -0.15604299,0.02655 -0.23242188,0.04883 z m -1.58984375,0.628906 c -1.14983825,0.375195 -2.31770855,0.788274 -3.58007815,1.417969 0.1544745,-0.133429 0.1609691,-0.163208 0.4355469,-0.369141 z m 1.12304687,1.046875 c -0.0783871,0.02475 -0.15973703,0.06827 -0.23828124,0.09375 -0.0659689,0.02191 -0.13540609,0.02828 -0.20117188,0.05078 z m -2.26367182,2.3378905 2.06249995,0.7890625 c -2.13808825,0.6303522 -4.42681085,1.6003784 -6.92773435,3.328125 -0.077947,0.05376 -0.1413063,0.1493941 -0.21875,0.2050781 l 1.2695312,-4.1972656 z m 12.8906247,7.2832031 c 1.734082,0.5492558 3.558313,1.4039123 5.132813,2.65039065 l 0.193359,0.15625 c 1.587448,1.28980115 2.716748,2.91153715 3.65625,4.57226565 L 16.607422,14.996094 8.8027344,19.820312 H 0.32226563 L -5.4667969,14.246094 Z M 3.7597656,23.128906 h 9.6308594 c -0.830095,0.410114 -1.516609,0.676562 -1.943359,0.796875 -1.102093,0.301876 -2.2407728,0.466797 -3.2226566,0.466797 -0.702207,0 -2.1125515,-0.121085 -3.7597657,-0.583984 z m 14.5996094,9.873047 -0.1875,0.101563 c 0.02581,-0.0139 0.04071,-0.03292 0.06641,-0.04687 0.04228,-0.02307 0.07866,-0.03124 0.121094,-0.05469 z"
         id="path296" />
    </g>
  </g>
</svg>
