<?xml version="1.0" encoding="UTF-8" standalone="no"?>
<svg
   xmlns:dc="http://purl.org/dc/elements/1.1/"
   xmlns:cc="http://creativecommons.org/ns#"
   xmlns:rdf="http://www.w3.org/1999/02/22-rdf-syntax-ns#"
   xmlns:svg="http://www.w3.org/2000/svg"
   xmlns="http://www.w3.org/2000/svg"
   xmlns:xlink="http://www.w3.org/1999/xlink"
   id="SVGRoot"
   version="1.1"
   viewBox="0 0 48 48"
   height="48px"
   width="48px">
  <defs
     id="defs815">
    <linearGradient
       id="linearGradient843">
      <stop
         id="stop839"
         offset="0"
         style="stop-color:#ff0000;stop-opacity:1;" />
      <stop
         id="stop841"
         offset="1"
         style="stop-color:#ff0000;stop-opacity:0;" />
    </linearGradient>
    <linearGradient
       gradientUnits="userSpaceOnUse"
       y2="31.6875"
       x2="-6.375"
       y1="25.875"
       x1="52.3125"
       id="linearGradient845"
       xlink:href="#linearGradient843" />
  </defs>
  <metadata
     id="metadata818">
    <rdf:RDF>
      <cc:Work
         rdf:about="">
        <dc:format>image/svg+xml</dc:format>
        <dc:type
           rdf:resource="http://purl.org/dc/dcmitype/StillImage" />
        <dc:title></dc:title>
      </cc:Work>
    </rdf:RDF>
  </metadata>
  <g
     id="layer1">
    <path
       id="path1371"
       d="M 23.570312,3.1894531 A 22.96875,22.96875 0 0 0 5.7070312,12.142578 22.96875,22.96875 0 0 0 3.4472656,36.566406 19.971109,19.972252 0 0 1 5.5390625,15.556641 19.971109,19.972252 0 0 1 27.25,8.65625 19.971109,19.972252 0 0 1 41.300781,26.589844 l 5.535157,-1.759766 A 22.96875,22.96875 0 0 0 30.677734,4.2089844 22.96875,22.96875 0 0 0 23.570312,3.1894531 Z"
       style="opacity:1;fill:url(#linearGradient845);fill-opacity:1;stroke:#bebebe;stroke-width:0.1;stroke-miterlimit:4;stroke-dasharray:none;stroke-opacity:1" />
    <path
       style="opacity:1;fill:url(#linearGradient845);fill-opacity:1;stroke:#bebebe;stroke-width:0.1;stroke-miterlimit:4;stroke-dasharray:none;stroke-opacity:1"
       d="M 23.570312,3.1894531 A 22.96875,22.96875 0 0 0 5.7070312,12.142578 22.96875,22.96875 0 0 0 3.4472656,36.566406 19.971109,19.972252 0 0 1 5.5390625,15.556641 19.971109,19.972252 0 0 1 27.25,8.65625 19.971109,19.972252 0 0 1 41.300781,26.589844 l 5.535157,-1.759766 A 22.96875,22.96875 0 0 0 30.677734,4.2089844 22.96875,22.96875 0 0 0 23.570312,3.1894531 Z"
       id="path888" />
  </g>
  <g
     id="layer3" />
  <g
     id="layer2">
    <path
       id="path1378"
       d="M 37.394531,4.5527344 22.072266,27.476562 22.257812,31.267578 25.787109,29.224609 38.1875,4.7207031 Z"
       style="opacity:0.75;fill:#800000;fill-opacity:1;stroke:#fefefe;stroke-width:0.75590551;stroke-miterlimit:4;stroke-dasharray:none;stroke-opacity:1" />
  </g>
</svg>
