<?xml version="1.0" encoding="UTF-8" standalone="no"?>
<!-- Created with Inkscape (http://www.inkscape.org/) -->

<svg
   xmlns:dc="http://purl.org/dc/elements/1.1/"
   xmlns:cc="http://creativecommons.org/ns#"
   xmlns:rdf="http://www.w3.org/1999/02/22-rdf-syntax-ns#"
   xmlns:svg="http://www.w3.org/2000/svg"
   xmlns="http://www.w3.org/2000/svg"
   xmlns:sodipodi="http://sodipodi.sourceforge.net/DTD/sodipodi-0.dtd"
   xmlns:inkscape="http://www.inkscape.org/namespaces/inkscape"
   width="16"
   height="16"
   id="svg5238"
   version="1.1"
   inkscape:version="0.48.4 r9939"
   sodipodi:docname="feed-new-symbolic.svg">
  <defs
     id="defs5240" />
  <sodipodi:namedview
     id="base"
     pagecolor="#ffffff"
     bordercolor="#666666"
     borderopacity="1.0"
     inkscape:pageopacity="0.0"
     inkscape:pageshadow="2"
     inkscape:zoom="15.839192"
     inkscape:cx="5.0044177"
     inkscape:cy="8.1939415"
     inkscape:document-units="px"
     inkscape:current-layer="layer1"
     showgrid="false"
     fit-margin-top="0"
     fit-margin-left="0"
     fit-margin-right="0"
     fit-margin-bottom="0"
     inkscape:window-width="1018"
     inkscape:window-height="548"
     inkscape:window-x="0"
     inkscape:window-y="0"
     inkscape:window-maximized="0" />
  <metadata
     id="metadata5243">
    <rdf:RDF>
      <cc:Work
         rdf:about="">
        <dc:format>image/svg+xml</dc:format>
        <dc:type
           rdf:resource="http://purl.org/dc/dcmitype/StillImage" />
        <dc:title></dc:title>
      </cc:Work>
    </rdf:RDF>
  </metadata>
  <g
     inkscape:label="Layer 1"
     inkscape:groupmode="layer"
     id="layer1"
     transform="translate(-272,-392.93362)">
    <path
       style="fill:#bebebe;fill-opacity:1"
       d="m 275.4375,392.93362 c -1.90438,0 -3.4375,1.53312 -3.4375,3.4375 l 0,9.125 c 0,1.90438 1.53312,3.4375 3.4375,3.4375 l 9.125,0 c 1.90438,0 3.4375,-1.53312 3.4375,-3.4375 l 0,-9.125 c 0,-1.90438 -1.53312,-3.4375 -3.4375,-3.4375 l -9.125,0 z"
       id="path3960" />
    <path
       style="fill:#ff9000;fill-opacity:1"
       d="m 274.84375,395.43362 a 10.765199,10.713849 0 0 1 10.75,10.6875 l -2.125,0 a 8.6121577,8.5710802 0 0 0 -8.625,-8.5625 l 0,-2.125 z"
       id="path3958" class="warning" />
    <path
       style="fill:#ff9000;fill-opacity:1"
       d="m 274.8125,399.05862 a 7.1219231,7.1359988 0 0 1 7.125,7.125 l -2.09375,0 a 5.0344639,5.0444137 0 0 0 -5.03125,-5.03125 l 0,-2.09375 z"
       id="path3956" class="warning" />
    <path
       style="fill:#ff9000;fill-opacity:1"
       d="m 276.21875,403.30862 c 0.80669,0 1.46875,0.66044 1.46875,1.46875 0,0.80831 -0.66206,1.46875 -1.46875,1.46875 -0.80669,0 -1.4375,-0.66044 -1.4375,-1.46875 0,-0.80831 0.63081,-1.46875 1.4375,-1.46875 z"
       id="rect20" class="warning" />
  </g>
</svg>
