<?xml version="1.0" encoding="UTF-8" standalone="no"?>
<svg
   xmlns:dc="http://purl.org/dc/elements/1.1/"
   xmlns:cc="http://creativecommons.org/ns#"
   xmlns:rdf="http://www.w3.org/1999/02/22-rdf-syntax-ns#"
   xmlns:svg="http://www.w3.org/2000/svg"
   xmlns="http://www.w3.org/2000/svg"
   xmlns:sodipodi="http://sodipodi.sourceforge.net/DTD/sodipodi-0.dtd"
   xmlns:inkscape="http://www.inkscape.org/namespaces/inkscape"
   id="svg7384"
   height="16.001"
   width="16"
   version="1.1"
   inkscape:version="1.0.1 (3bc2e813f5, 2020-09-07)"
   sodipodi:docname="slideshow-play-symbolic.svg">
  <defs
     id="defs10">
    <inkscape:perspective
       sodipodi:type="inkscape:persp3d"
       inkscape:vp_x="0 : 8.0004997 : 1"
       inkscape:vp_y="0 : 1000 : 0"
       inkscape:vp_z="16 : 8.0004997 : 1"
       inkscape:persp3d-origin="8 : 5.3336665 : 1"
       id="perspective14" />
  </defs>
  <sodipodi:namedview
     pagecolor="#ffffff"
     bordercolor="#666666"
     borderopacity="1"
     objecttolerance="10"
     gridtolerance="10"
     guidetolerance="10"
     inkscape:pageopacity="0"
     inkscape:pageshadow="2"
     inkscape:window-width="1873"
     inkscape:window-height="1028"
     id="namedview8"
     showgrid="true"
     inkscape:snap-bbox="false"
     inkscape:zoom="64"
     inkscape:cx="6.8727551"
     inkscape:cy="7.437125"
     inkscape:window-x="47"
     inkscape:window-y="25"
     inkscape:window-maximized="1"
     inkscape:current-layer="svg7384"
     inkscape:document-rotation="0"
     showguides="false">
    <inkscape:grid
       type="xygrid"
       id="grid3757" />
  </sodipodi:namedview>
  <title
     id="title9167">Gnome Symbolic Icon Theme</title>
  <metadata
     id="metadata90">
    <rdf:RDF>
      <cc:Work
         rdf:about="">
        <dc:format>image/svg+xml</dc:format>
        <dc:type
           rdf:resource="http://purl.org/dc/dcmitype/StillImage" />
        <dc:title>Gnome Symbolic Icon Theme</dc:title>
      </cc:Work>
    </rdf:RDF>
  </metadata>
  <path
     inkscape:connector-curvature="0"
     d="M 2.19,0 C 0.99,0 0,0.99 0,2.19 v 8.625 c 0,1.1999 0.9859,2.1875 2.1875,2.1875 h 11.625 C 15.0141,13.0025 16,12.01492 16,10.815 V 2.19 c -0.01,-1.21 -1,-2.2 -2.2,-2.2 H 2.175 z m 0,2 h 11.625 c 0.1238,0 0.1875,0.0566 0.1875,0.1875 v 8.625 C 14.0025,10.9434 13.9388,11 13.815,11 H 2.19 C 2.05,10.99 1.99,10.93 1.99,10.8 V 2.175 c 0,-0.12 0.06,-0.18 0.19,-0.18 z"
     style="text-indent:0;text-transform:none;block-progression:tb;color:#bebebe;fill:#bebebe"
     id="rect11749-5" />
  <path
     inkscape:connector-curvature="0"
     d="M 4.91,14 A 1.0011,1.0011 0 1 0 5,16 h 6 a 1.0001,1.0001 0 1 0 0,-2 H 5 a 1.0001,1.0001 0 0 0 -0.0937,0 z"
     style="text-indent:0;text-transform:none;block-progression:tb;color:#bebebe;fill:#bebebe"
     id="path11751-2" />
  <g
     transform="matrix(0.469874,0,0,0.50009904,-32.469416,-300.56032)"
     id="layer12">
    <path
       d="m 84,609 v 10 h 0.90625 0.094 c 0.17491,10e-4 0.34778,-0.0388 0.5,-0.125 l 7,-4 c 0.3107,-0.17189 0.46875,-0.52345 0.46875,-0.875 0,-0.35155 -0.15805,-0.70311 -0.46875,-0.875 l -7,-4 c -0.152,-0.09 -0.325,-0.13 -0.5,-0.13 H 84.9065 Z"
       style="color:#000000;text-indent:0;text-transform:none;fill:#bebebe"
       id="path3807-1-1-9-38-4"
       inkscape:connector-curvature="0" />
  </g>
  <rect
     style="opacity:1;fill:#bebebe;fill-opacity:0.952941;stroke:none;stroke-opacity:1"
     id="rect30"
     width="3"
     height="1"
     x="4"
     y="6" />
</svg>
