<?xml version="1.0" encoding="UTF-8" standalone="no"?>
<!-- Generator: Adobe Illustrator 15.1.0, SVG Export Plug-In . SVG Version: 6.00 Build 0)  -->

<svg
   xmlns:dc="http://purl.org/dc/elements/1.1/"
   xmlns:cc="http://creativecommons.org/ns#"
   xmlns:rdf="http://www.w3.org/1999/02/22-rdf-syntax-ns#"
   xmlns:svg="http://www.w3.org/2000/svg"
   xmlns="http://www.w3.org/2000/svg"
   xmlns:sodipodi="http://sodipodi.sourceforge.net/DTD/sodipodi-0.dtd"
   xmlns:inkscape="http://www.inkscape.org/namespaces/inkscape"
   version="1.1"
   id="Layer_1"
   x="0px"
   y="0px"
   width="100px"
   height="100px"
   viewBox="0 0 100 100"
   enable-background="new 0 0 100 100"
   xml:space="preserve"
   sodipodi:docname="Cloud-Lightning-Sun-symbolic.svg"
   inkscape:version="0.92.4 5da689c313, 2019-01-14"><metadata
   id="metadata9"><rdf:RDF><cc:Work
       rdf:about=""><dc:format>image/svg+xml</dc:format><dc:type
         rdf:resource="http://purl.org/dc/dcmitype/StillImage" /></cc:Work></rdf:RDF></metadata><defs
   id="defs7" /><sodipodi:namedview
   pagecolor="#ffffff"
   bordercolor="#666666"
   borderopacity="1"
   objecttolerance="10"
   gridtolerance="10"
   guidetolerance="10"
   inkscape:pageopacity="0"
   inkscape:pageshadow="2"
   inkscape:window-width="1078"
   inkscape:window-height="936"
   id="namedview5"
   showgrid="false"
   inkscape:zoom="2.36"
   inkscape:cx="50"
   inkscape:cy="50"
   inkscape:window-x="0"
   inkscape:window-y="0"
   inkscape:window-maximized="0"
   inkscape:current-layer="Layer_1"
   showguides="true"
   inkscape:guide-bbox="true"><sodipodi:guide
     position="14.830508,17.372881"
     orientation="1,0"
     id="guide7"
     inkscape:locked="false" /><sodipodi:guide
     position="137.28814,50"
     orientation="0,1"
     id="guide9"
     inkscape:locked="false" /></sodipodi:namedview>
<path
   d="m 95.879735,41.469074 h -6.19845 c -1.7112,0 -3.1,-1.38725 -3.1,-3.1 0,-1.7112 1.3888,-3.1 3.1,-3.1 h 6.19845 c 1.7112,0 3.1,1.3888 3.1,3.1 0,1.7143 -1.38725,3.1 -3.1,3.1 z m -12.1768,-20.6336 c -1.21055,1.21055 -3.17285,1.21055 -4.3834,0 -1.21055,-1.21055 -1.21055,-3.17285 0,-4.3834 l 4.3834,-4.3834 c 1.21055,-1.21055 3.17285,-1.21055 4.3834,0 1.209,1.21055 1.209,3.17285 0,4.3834 z m -4.5694,24.19085 v 0 c 2.0801,2.48 3.52005,5.51025 4.08115,8.8412 h -0.0124 c 0.16895,1.0106 0.279,2.0429 0.279,3.1 0,10.27185 -8.3266,18.6 -18.5969,18.6 -0.434,0 -1.00595,0 -1.6461,0 l 5.5552,-6.8386 c 4.93055,-1.63835 8.4909,-6.28215 8.4909,-11.7614 0,-1.07105 -0.1519,-2.10645 -0.40765,-3.1 v 0 c -1.37795,-5.3444 -6.21705,-9.29845 -11.9908,-9.29845 -2.48155,0 -4.77865,0.744 -6.7177,2.00105 -1.90805,-8.2398 -9.25815,-14.40105 -18.0792,-14.40105 -10.27185,0 -18.59845,8.32815 -18.59845,18.6 0,1.0571 0.1085,2.0894 0.28055,3.09845 h -0.0217 c 1.1842,7.05095 6.3364,12.74565 13.0789,14.7343 l -2.0925,5.85435 c -9.14965,-2.8365 -16.0115,-10.8345 -17.229799,-20.58865 v 0 c -0.1271,-1.01835 -0.2139,-2.04755 -0.2139,-3.09845 0,-13.6958 11.101099,-24.79845 24.796899,-24.79845 2.4366,0 4.78795,0.3596 7.01065,1.01525 3.40225,-4.3834 8.7079,-7.2137 14.68625,-7.2137 10.27185,0 18.59845,8.32505 18.59845,18.5969 -0.0015,2.3498 -0.4557,4.58645 -1.25085,6.65725 z m -17.34915,-19.05415 c -3.4286,0 -6.53325,1.3919 -8.7761,3.64405 3.627,2.22425 6.64175,5.34905 8.72495,9.07215 1.0292,-0.17515 2.07235,-0.31775 3.15115,-0.31775 3.29375,0 6.3829,0.86645 9.0675,2.36685 v 0 c 0.1488,-0.7657 0.23095,-1.5562 0.23095,-2.36685 0,-6.8479 -5.55055,-12.39845 -12.39845,-12.39845 z m 0,-12.39845 c -1.7112,0 -3.1,-1.3888 -3.1,-3.1 V 4.2752737 c 0,-1.7112 1.3888,-3.1 3.1,-3.1 1.7112,0 3.1,1.3888 3.1,3.1 v 6.1984503 c 0,1.7112 -1.38725,3.1 -3.1,3.1 z m -21.91855,7.26175 -4.38185,-4.3834 c -1.21055,-1.21055 -1.21055,-3.17285 0,-4.3834 1.209,-1.21055 3.17285,-1.21055 4.38185,0 l 4.3834,4.3834 c 1.21055,1.21055 1.21055,3.17285 0,4.3834 -1.209,1.21055 -3.1713,1.21055 -4.3834,0 z m 6.4201,33.03205 h 15.49845 l -9.29845,15.5 h 10.84845 l -20.1469,24.7969 5.58,-18.5969 h -10.23 z"
   id="path2"
   inkscape:connector-curvature="0"
   style="clip-rule:evenodd;fill-rule:evenodd;stroke-width:1.54999995" />
</svg>