<?xml version="1.0" encoding="UTF-8" standalone="no"?>
<!-- Generator: Adobe Illustrator 15.1.0, SVG Export Plug-In . SVG Version: 6.00 Build 0)  -->

<svg
   xmlns:dc="http://purl.org/dc/elements/1.1/"
   xmlns:cc="http://creativecommons.org/ns#"
   xmlns:rdf="http://www.w3.org/1999/02/22-rdf-syntax-ns#"
   xmlns:svg="http://www.w3.org/2000/svg"
   xmlns="http://www.w3.org/2000/svg"
   xmlns:sodipodi="http://sodipodi.sourceforge.net/DTD/sodipodi-0.dtd"
   xmlns:inkscape="http://www.inkscape.org/namespaces/inkscape"
   version="1.1"
   id="Layer_1"
   x="0px"
   y="0px"
   width="100px"
   height="100px"
   viewBox="0 0 100 100"
   enable-background="new 0 0 100 100"
   xml:space="preserve"
   sodipodi:docname="Cloud-Refresh-symbolic.svg"
   inkscape:version="0.92.4 5da689c313, 2019-01-14"><metadata
   id="metadata9"><rdf:RDF><cc:Work
       rdf:about=""><dc:format>image/svg+xml</dc:format><dc:type
         rdf:resource="http://purl.org/dc/dcmitype/StillImage" /></cc:Work></rdf:RDF></metadata><defs
   id="defs7" /><sodipodi:namedview
   pagecolor="#ffffff"
   bordercolor="#666666"
   borderopacity="1"
   objecttolerance="10"
   gridtolerance="10"
   guidetolerance="10"
   inkscape:pageopacity="0"
   inkscape:pageshadow="2"
   inkscape:window-width="1078"
   inkscape:window-height="936"
   id="namedview5"
   showgrid="false"
   inkscape:zoom="2.36"
   inkscape:cx="50"
   inkscape:cy="50"
   inkscape:window-x="0"
   inkscape:window-y="0"
   inkscape:window-maximized="0"
   inkscape:current-layer="Layer_1"
   showguides="true"
   inkscape:guide-bbox="true"><sodipodi:guide
     position="14.830508,38.559322"
     orientation="1,0"
     id="guide7"
     inkscape:locked="false" /><sodipodi:guide
     position="96.186441,50"
     orientation="0,1"
     id="guide9"
     inkscape:locked="false" /></sodipodi:namedview>
<path
   d="m 70.975236,74.110358 c -0.1054,-2.1731 -0.527,-4.2563 -1.22605,-6.2155 4.3865,-1.90495 7.4772,-6.2279 7.4772,-11.315 0,-6.8479 -5.549,-12.4 -12.3969,-12.4 -2.48,0 -4.7802,0.74555 -6.7177,1.9995 -1.9065,-8.2398 -9.25815,-14.39795 -18.0792,-14.39795 -10.27185,0 -18.59845,8.32505 -18.59845,18.5969 0,6.4666 3.32165,12.1334 8.33125,15.4628 -0.9114,1.9065 -1.54845,3.96645 -1.87085,6.13335 -7.5485,-4.2501 -12.6604,-12.3163 -12.6604,-21.59615 0,-13.69425 11.10265,-24.7969 24.79845,-24.7969 9.3062,0 17.40495,5.1336 21.64575,12.7162 1.0292,-0.1767 2.0708,-0.31775 3.15115,-0.31775 10.27185,0 18.5969,8.3266 18.5969,18.6 0,8.1127 -5.20335,14.99315 -12.45115,17.5305 z m -21.64265,-15.0133 v 0.0279 h 4.6252 l -3.45185,-3.45185 c -1.21055,-1.21055 -1.21055,-3.17285 0,-4.38495 1.20745,-1.209 3.17285,-1.209 4.3803,0 l 8.7668,8.76835 c 1.21055,1.209 1.21055,3.1713 0,4.38185 l -8.7668,8.7668 c -1.20745,1.21055 -3.17285,1.21055 -4.3803,0 -1.21055,-1.21055 -1.21055,-3.17285 0,-4.3834 l 3.4999,-3.4999 h -4.6748 v 0 c -5.1367,0 -9.3,4.1633 -9.3,9.3 0,5.1336 4.1633,9.2969 9.3,9.2969 5.1336,0 9.2969,-4.1633 9.2969,-9.2969 0,-0.2418 -0.05115,-0.46655 -0.06975,-0.70215 l 5.1336,-5.1336 c 0.72695,1.7949 1.1346,3.7541 1.1346,5.8094 0,8.56065 -6.93935,15.5 -15.4969,15.5 -8.56065,0 -15.5,-6.93935 -15.5,-15.5 0.0046,-8.5591 6.94245,-15.49845 15.5031,-15.49845 z"
   id="path2"
   inkscape:connector-curvature="0"
   style="clip-rule:evenodd;fill:#231f20;fill-rule:evenodd;stroke-width:1.54999995" />
</svg>