<?xml version="1.0" encoding="UTF-8" standalone="no"?>
<!-- Generator: Adobe Illustrator 15.1.0, SVG Export Plug-In . SVG Version: 6.00 Build 0)  -->

<svg
   xmlns:dc="http://purl.org/dc/elements/1.1/"
   xmlns:cc="http://creativecommons.org/ns#"
   xmlns:rdf="http://www.w3.org/1999/02/22-rdf-syntax-ns#"
   xmlns:svg="http://www.w3.org/2000/svg"
   xmlns="http://www.w3.org/2000/svg"
   xmlns:sodipodi="http://sodipodi.sourceforge.net/DTD/sodipodi-0.dtd"
   xmlns:inkscape="http://www.inkscape.org/namespaces/inkscape"
   version="1.1"
   id="Layer_1"
   x="0px"
   y="0px"
   width="100px"
   height="100px"
   viewBox="0 0 100 100"
   enable-background="new 0 0 100 100"
   xml:space="preserve"
   sodipodi:docname="Cloud-Snow-Alt-symbolic.svg"
   inkscape:version="0.92.4 5da689c313, 2019-01-14"><metadata
   id="metadata9"><rdf:RDF><cc:Work
       rdf:about=""><dc:format>image/svg+xml</dc:format><dc:type
         rdf:resource="http://purl.org/dc/dcmitype/StillImage" /></cc:Work></rdf:RDF></metadata><defs
   id="defs7" /><sodipodi:namedview
   pagecolor="#ffffff"
   bordercolor="#666666"
   borderopacity="1"
   objecttolerance="10"
   gridtolerance="10"
   guidetolerance="10"
   inkscape:pageopacity="0"
   inkscape:pageshadow="2"
   inkscape:window-width="1078"
   inkscape:window-height="936"
   id="namedview5"
   showgrid="false"
   inkscape:zoom="2.36"
   inkscape:cx="50"
   inkscape:cy="50"
   inkscape:window-x="0"
   inkscape:window-y="0"
   inkscape:window-maximized="0"
   inkscape:current-layer="Layer_1"
   showguides="true"
   inkscape:guide-bbox="true"><sodipodi:guide
     position="14.40678,-41.949153"
     orientation="1,0"
     id="guide7"
     inkscape:locked="false" /><sodipodi:guide
     position="161.44068,50"
     orientation="0,1"
     id="guide9"
     inkscape:locked="false" /></sodipodi:namedview>
<path
   d="m 67.559656,75.622422 v -6.3271 c 5.3444,-1.38105 9.3,-6.2186 9.3,-11.9939 0,-6.84635 -5.5521,-12.39845 -12.39845,-12.39845 -2.48155,0 -4.7802,0.744 -6.7177,2.00105 -1.90805,-8.24135 -9.25815,-14.40105 -18.0792,-14.40105 -10.27185,0 -18.59845,8.32815 -18.59845,18.6 0,6.8789 3.74635,12.87275 9.29845,16.08745 v 6.88975 c -9.083,-3.68125 -15.4969,-12.57515 -15.4969,-22.97875 0,-13.69425 11.1011,-24.79845 24.7969,-24.79845 9.3062,0 17.40495,5.1336 21.64575,12.7162 1.0292,-0.17515 2.0708,-0.31775 3.15115,-0.31775 10.2703,0 18.5969,8.32815 18.5969,18.5969 0,9.21785 -6.7053,16.84385 -15.49845,18.3241 z m -29.3353,-9.021 c 0.85715,-1.48335 2.75125,-1.98865 4.2346,-1.1346 l 3.4038,1.96385 v -3.92925 c 0,-1.7112 1.3888,-3.1 3.1,-3.1 1.7112,0 3.1,1.3888 3.1,3.1 v 3.92925 l 3.40225,-1.9654 c 1.48335,-0.85405 3.379,-0.34875 4.23305,1.1346 0.85715,1.48335 0.34875,3.379 -1.13305,4.2346 l -3.4038,1.9654 3.4038,1.9654 c 1.4818,0.85715 1.9902,2.75125 1.13305,4.2346 -0.8556,1.48025 -2.7497,1.98865 -4.23305,1.1315 l -3.40225,-1.9623 v 3.92925 c 0,1.71275 -1.3888,3.1 -3.1,3.1 -1.7112,0 -3.1,-1.38725 -3.1,-3.1 v -3.92925 l -3.40225,1.9654 c -1.48335,0.85715 -3.379,0.34875 -4.2346,-1.1315 -0.8556,-1.48335 -0.34875,-3.379 1.1346,-4.2346 l 3.40225,-1.96695 -3.40225,-1.9654 c -1.48335,-0.85715 -1.9902,-2.75125 -1.13615,-4.2346 z m 10.7384,9.3 c 1.7112,0 3.1,-1.3888 3.1,-3.1 0,-1.71275 -1.3888,-3.1 -3.1,-3.1 -1.7112,0 -3.1,1.38725 -3.1,3.1 0,1.70965 1.3888,3.1 3.1,3.1 z"
   id="path2"
   inkscape:connector-curvature="0"
   style="clip-rule:evenodd;fill-rule:evenodd;stroke-width:1.54999995" />
</svg>