<?xml version="1.0" encoding="UTF-8" standalone="no"?>
<!-- Generator: Adobe Illustrator 15.1.0, SVG Export Plug-In . SVG Version: 6.00 Build 0)  -->

<svg
   xmlns:dc="http://purl.org/dc/elements/1.1/"
   xmlns:cc="http://creativecommons.org/ns#"
   xmlns:rdf="http://www.w3.org/1999/02/22-rdf-syntax-ns#"
   xmlns:svg="http://www.w3.org/2000/svg"
   xmlns="http://www.w3.org/2000/svg"
   xmlns:sodipodi="http://sodipodi.sourceforge.net/DTD/sodipodi-0.dtd"
   xmlns:inkscape="http://www.inkscape.org/namespaces/inkscape"
   version="1.1"
   id="Layer_1"
   x="0px"
   y="0px"
   width="100px"
   height="100px"
   viewBox="0 0 100 100"
   enable-background="new 0 0 100 100"
   xml:space="preserve"
   sodipodi:docname="Cloud-Snow-Alt-symbolic.svg"
   inkscape:version="0.92.4 5da689c313, 2019-01-14"><metadata
   id="metadata9"><rdf:RDF><cc:Work
       rdf:about=""><dc:format>image/svg+xml</dc:format><dc:type
         rdf:resource="http://purl.org/dc/dcmitype/StillImage" /></cc:Work></rdf:RDF></metadata><defs
   id="defs7" /><sodipodi:namedview
   pagecolor="#ffffff"
   bordercolor="#666666"
   borderopacity="1"
   objecttolerance="10"
   gridtolerance="10"
   guidetolerance="10"
   inkscape:pageopacity="0"
   inkscape:pageshadow="2"
   inkscape:window-width="640"
   inkscape:window-height="480"
   id="namedview5"
   showgrid="false"
   inkscape:zoom="2.36"
   inkscape:cx="50"
   inkscape:cy="50"
   inkscape:window-x="200"
   inkscape:window-y="389"
   inkscape:window-maximized="0"
   inkscape:current-layer="Layer_1" />
<path
   d="m 77.020657,79.87774 v -9.193059 c 7.76523,-2.006618 13.512581,-9.035412 13.512581,-17.426725 0,-9.947511 -8.067011,-18.014522 -18.014523,-18.014522 -3.605606,0 -6.945466,1.081007 -9.760587,2.907457 -2.772331,-11.9744 -13.451774,-20.924233 -26.268457,-20.924233 -14.924645,0 -27.0229089,12.100517 -27.0229089,27.025163 0,9.994806 5.4433179,18.703664 13.5103279,23.374513 v 10.01057 C 9.7798036,72.288174 0.46062712,59.365643 0.46062712,44.249569 c 0,-19.897276 16.12951688,-36.0312978 36.02904388,-36.0312978 13.521589,0 25.288795,7.4589448 31.450532,18.4762028 1.495392,-0.254487 3.008801,-0.46168 4.578512,-0.46168 14.922394,0 27.020658,12.100517 27.020658,27.020658 0,13.39322 -9.742571,24.473536 -22.518716,26.624288 z M 34.397473,66.770537 c 1.24541,-2.155257 3.997472,-2.88944 6.152729,-1.648535 l 4.945604,2.853407 v -5.709066 c 0,-2.486314 2.017879,-4.504193 4.504194,-4.504193 2.486315,0 4.504193,2.017879 4.504193,4.504193 v 5.709066 l 4.943353,-2.855659 c 2.155256,-1.240905 4.909571,-0.506722 6.150476,1.648535 1.24541,2.155257 0.506722,4.909571 -1.646283,6.152728 l -4.945604,2.855659 4.945604,2.855659 c 2.153005,1.245409 2.891693,3.997472 1.646283,6.152728 -1.243157,2.150753 -3.99522,2.88944 -6.150476,1.644031 l -4.943353,-2.851155 v 5.709066 c 0,2.488567 -2.017878,4.504193 -4.504193,4.504193 -2.486315,0 -4.504194,-2.015626 -4.504194,-4.504193 v -5.709066 l -4.943352,2.855659 c -2.155257,1.24541 -4.909571,0.506722 -6.152729,-1.644031 -1.243157,-2.155256 -0.506722,-4.909571 1.648535,-6.152728 L 40.991613,75.778924 36.04826,72.923265 C 33.893003,71.677856 33.156568,68.925794 34.397473,66.770537 Z M 50,80.283118 c 2.486315,0 4.504193,-2.017879 4.504193,-4.504194 0,-2.488567 -2.017878,-4.504193 -4.504193,-4.504193 -2.486315,0 -4.504194,2.015626 -4.504194,4.504193 0,2.484063 2.017879,4.504194 4.504194,4.504194 z"
   id="path2"
   inkscape:connector-curvature="0"
   style="clip-rule:evenodd;fill-rule:evenodd;stroke-width:2.25209689" />
</svg>