<?xml version="1.0" encoding="UTF-8" standalone="no"?>
<!-- Generator: Adobe Illustrator 15.1.0, SVG Export Plug-In . SVG Version: 6.00 Build 0)  -->

<svg
   xmlns:dc="http://purl.org/dc/elements/1.1/"
   xmlns:cc="http://creativecommons.org/ns#"
   xmlns:rdf="http://www.w3.org/1999/02/22-rdf-syntax-ns#"
   xmlns:svg="http://www.w3.org/2000/svg"
   xmlns="http://www.w3.org/2000/svg"
   xmlns:sodipodi="http://sodipodi.sourceforge.net/DTD/sodipodi-0.dtd"
   xmlns:inkscape="http://www.inkscape.org/namespaces/inkscape"
   version="1.1"
   id="Layer_1"
   x="0px"
   y="0px"
   width="100px"
   height="100px"
   viewBox="0 0 100 100"
   enable-background="new 0 0 100 100"
   xml:space="preserve"
   sodipodi:docname="Cloud-Wind-Sun-symbolic.svg"
   inkscape:version="0.92.4 5da689c313, 2019-01-14"><metadata
   id="metadata9"><rdf:RDF><cc:Work
       rdf:about=""><dc:format>image/svg+xml</dc:format><dc:type
         rdf:resource="http://purl.org/dc/dcmitype/StillImage" /></cc:Work></rdf:RDF></metadata><defs
   id="defs7" /><sodipodi:namedview
   pagecolor="#ffffff"
   bordercolor="#666666"
   borderopacity="1"
   objecttolerance="10"
   gridtolerance="10"
   guidetolerance="10"
   inkscape:pageopacity="0"
   inkscape:pageshadow="2"
   inkscape:window-width="959"
   inkscape:window-height="500"
   id="namedview5"
   showgrid="false"
   inkscape:zoom="2.36"
   inkscape:cx="50"
   inkscape:cy="50"
   inkscape:window-x="16"
   inkscape:window-y="261"
   inkscape:window-maximized="0"
   inkscape:current-layer="Layer_1"
   showguides="true"
   inkscape:guide-bbox="true"><sodipodi:guide
     position="14.830508,22.033898"
     orientation="1,0"
     id="guide7"
     inkscape:locked="false" /><sodipodi:guide
     position="134.74576,50"
     orientation="0,1"
     id="guide9"
     inkscape:locked="false" /></sodipodi:namedview>
<path
   d="m 95.881285,40.118631 h -6.2 c -1.7112,0 -3.09845,-1.3888 -3.09845,-3.1 0,-1.7112 1.38725,-3.1 3.09845,-3.1 h 6.2 c 1.7112,0 3.1,1.3888 3.1,3.1 0,1.7112 -1.38725,3.1 -3.1,3.1 z m -12.1768,-20.63515 c -1.21055,1.21055 -3.1744,1.21055 -4.3834,0 -1.21055,-1.21055 -1.21055,-3.17285 0,-4.3834 l 4.3834,-4.3834 c 1.209,-1.2105496 3.17285,-1.2105496 4.38185,0 1.21055,1.21055 1.21055,3.17285 0,4.3834 z m -4.57095,24.1924 v 0 c 1.4136,1.68485 2.5265,3.627 3.2767,5.7412 h -0.0155 c 0.33015,0.9331 0.59675,1.8941 0.775,2.88765 -2.1607,-1.54225 -4.72595,-2.5513 -7.5144,-2.81325 -0.0155,-0.02635 -0.0341,-0.04805 -0.0496,-0.0744 h 0.0046 c -2.1452,-3.70295 -6.13955,-6.19845 -10.726,-6.19845 -2.48155,0 -4.7802,0.744 -6.7177,1.9995 -1.90805,-8.2398 -9.2597,-14.3995 -18.08075,-14.3995 -10.2703,0 -18.5969,8.3266 -18.5969,18.59845 v 0 c 0,10.2703 8.3266,18.59845 18.5969,18.59845 4.02845,0 12.63715,0 18.91,0 h 15.1869 c 1.7112,0 3.09845,-1.3888 3.09845,-3.1 0,-1.71275 -1.38725,-3.1 -3.09845,-3.1 -1.7112,0 -3.1,-1.3888 -3.1,-3.1 0,-1.7112 1.3888,-3.1 3.1,-3.1 0.2139,0 0.4216,0.0217 0.6231,0.06355 4.8391,0.32705 8.67535,4.31365 8.67535,9.23645 0,4.74145 -3.55105,8.64435 -8.13595,9.21785 v 0.0806 h -1.16245 -12.37675 c -6.2186,0 -17.6049,0 -21.72015,0 -1.7112,0 -3.09845,1.3888 -3.09845,3.09845 0,1.71275 1.3888,3.1 3.09845,3.1 h 34.0969 1.1625 v 0.08215 c 4.5849,0.57195 8.13595,4.47795 8.13595,9.21785 0,4.92125 -3.83625,8.90785 -8.67535,9.2349 -0.2015,0.0403 -0.41075,0.06355 -0.6231,0.06355 -1.7112,0 -3.1,-1.3888 -3.1,-3.1 0,-1.7112 1.3888,-3.09845 3.1,-3.09845 1.7112,0 3.09845,-1.3888 3.09845,-3.1 0,-1.71275 -1.38725,-3.1 -3.09845,-3.1 h -34.09535 -1.16095 v -0.0806 c -4.58645,-0.5735 -8.1375,-4.4795 -8.1375,-9.2194 0,-1.63525 0.4557,-3.1496 1.19815,-4.4795 -9.7123,-3.3604 -16.695049,-12.5612 -16.695049,-23.41585 0,-13.69425 11.101099,-24.7969 24.795349,-24.7969 2.43815,0 4.7895,0.3596 7.0122,1.01525 3.40225,-4.3834 8.70635,-7.2137 14.68625,-7.2137 10.2703,0 18.5969,8.32505 18.5969,18.5969 0,2.34825 -0.45415,4.58645 -1.2493,6.65725 z m -17.3476,-19.0557 c -3.43015,0 -6.53325,1.3919 -8.77765,3.64405 3.62855,2.22425 6.6433,5.34905 8.7265,9.0737 1.02765,-0.1767 2.0708,-0.31775 3.15115,-0.31775 3.29375,0 6.3829,0.86645 9.0675,2.36685 v 0 c 0.1488,-0.7657 0.23095,-1.55775 0.23095,-2.36685 0,-6.84945 -5.5521,-12.4 -12.39845,-12.4 z m 0,-12.39845 c -1.7112,0 -3.1,-1.3888 -3.1,-3.0999996 v -6.19845 c 0,-1.7112 1.3888,-3.10000004 3.1,-3.10000004 1.7112,0 3.1,1.38880004 3.1,3.10000004 v 6.19845 c 0,1.7111996 -1.3888,3.0999996 -3.1,3.0999996 z m -21.91855,7.26175 -4.3834,-4.3834 c -1.21055,-1.21055 -1.21055,-3.17285 0,-4.3834 1.21055,-1.2105496 3.17285,-1.2105496 4.3834,0 l 4.3834,4.3834 c 1.21055,1.21055 1.21055,3.17285 0,4.3834 -1.21055,1.21055 -3.1713,1.21055 -4.3834,0 z m 42.06545,57.82895 c 0,-1.7112 1.3888,-3.09845 3.1,-3.09845 h 4.64845 c 1.7112,0 3.1,-1.3888 3.1,-3.1 0,-1.7112 -1.3888,-3.09845 -3.1,-3.09845 -1.7112,0 -3.09845,-1.3888 -3.09845,-3.1 0,-1.71275 1.38725,-3.1 3.09845,-3.1 0.21545,0 0.42315,0.0217 0.62465,0.06355 4.8391,0.32705 8.67535,4.31365 8.67535,9.2349 0,4.74145 -3.55105,8.64435 -8.1375,9.2194 v 0.07905 h -1.1625 -4.64845 c -1.7112,0 -3.1,-1.38725 -3.1,-3.1 z"
   id="path2"
   inkscape:connector-curvature="0"
   style="clip-rule:evenodd;fill-rule:evenodd;stroke-width:1.54999995" />
</svg>