<?xml version="1.0" encoding="UTF-8" standalone="no"?>
<!-- Generator: Adobe Illustrator 15.1.0, SVG Export Plug-In . SVG Version: 6.00 Build 0)  -->

<svg
   xmlns:dc="http://purl.org/dc/elements/1.1/"
   xmlns:cc="http://creativecommons.org/ns#"
   xmlns:rdf="http://www.w3.org/1999/02/22-rdf-syntax-ns#"
   xmlns:svg="http://www.w3.org/2000/svg"
   xmlns="http://www.w3.org/2000/svg"
   xmlns:sodipodi="http://sodipodi.sourceforge.net/DTD/sodipodi-0.dtd"
   xmlns:inkscape="http://www.inkscape.org/namespaces/inkscape"
   version="1.1"
   id="Layer_1"
   x="0px"
   y="0px"
   width="100px"
   height="100px"
   viewBox="0 0 100 100"
   enable-background="new 0 0 100 100"
   xml:space="preserve"
   sodipodi:docname="Cloud-Fog-Sun-Alt.svg"
   inkscape:version="0.92.4 5da689c313, 2019-01-14"><metadata
   id="metadata9"><rdf:RDF><cc:Work
       rdf:about=""><dc:format>image/svg+xml</dc:format><dc:type
         rdf:resource="http://purl.org/dc/dcmitype/StillImage" /></cc:Work></rdf:RDF></metadata><defs
   id="defs7" /><sodipodi:namedview
   pagecolor="#ffffff"
   bordercolor="#666666"
   borderopacity="1"
   objecttolerance="10"
   gridtolerance="10"
   guidetolerance="10"
   inkscape:pageopacity="0"
   inkscape:pageshadow="2"
   inkscape:window-width="640"
   inkscape:window-height="480"
   id="namedview5"
   showgrid="false"
   inkscape:zoom="2.36"
   inkscape:cx="50"
   inkscape:cy="50"
   inkscape:window-x="0"
   inkscape:window-y="0"
   inkscape:window-maximized="0"
   inkscape:current-layer="Layer_1" />
<path
   d="M 94.921493,54.755534 H 87.71963 c -1.987714,0 -3.600931,-1.613217 -3.600931,-3.600931 0,-1.987714 1.613217,-3.600931 3.600931,-3.600931 h 7.201863 c 1.987714,0 3.600931,1.613217 3.600931,3.600931 0,1.985914 -1.613217,3.600931 -3.600931,3.600931 z M 80.775235,30.785936 c -1.406164,1.406163 -3.685553,1.406163 -5.091717,0 -1.406164,-1.406164 -1.406164,-3.685553 0,-5.091717 l 5.091717,-5.091716 c 1.406163,-1.406164 3.685553,-1.406164 5.091716,0 1.406164,1.406163 1.406164,3.685553 0,5.091716 z M 76.594554,54.755534 H 3.4218313 C 3.9277621,53.507812 4.5255167,52.308701 5.1934894,51.154603 H 55.015974 c 0.07382,0.126033 0.169243,0.241262 0.239462,0.369095 1.195509,-0.205253 2.407222,-0.369095 3.660346,-0.369095 3.825989,0 7.416118,1.00646 10.532724,2.749311 v 0 c 0.172844,-0.88943 0.27007,-1.811268 0.27007,-2.749311 0,-7.954457 -6.449268,-14.401924 -14.403725,-14.401924 -3.645943,0 -6.966001,1.366553 -9.501057,3.599131 H 16.17993 c 4.130269,-2.288392 8.876296,-3.599131 13.932004,-3.599131 2.830332,0 5.563438,0.417708 8.143505,1.179305 3.952022,-5.091717 10.115016,-8.379367 17.059412,-8.379367 11.931685,0 21.603786,9.670301 21.603786,21.601986 0,1.229718 -0.120631,2.428828 -0.324083,3.600931 z M 55.314851,22.350755 c -1.987714,0 -3.599131,-1.613218 -3.599131,-3.600932 v -7.200061 c 0,-1.9877143 1.613217,-3.6009323 3.599131,-3.6009323 1.989514,0 3.600931,1.613218 3.600931,3.6009323 v 7.200061 c 0,1.987714 -1.611417,3.600932 -3.600931,3.600932 z m -25.460384,8.435181 -5.089916,-5.091717 c -1.406164,-1.406163 -1.406164,-3.685553 0,-5.091716 1.404363,-1.406164 3.685553,-1.406164 5.089916,0 l 5.091717,5.091716 c 1.406163,1.406164 1.406163,3.685553 0,5.091717 -1.404363,1.406163 -3.683753,1.406163 -5.091717,0 z M 11.104418,43.952741 h 37.955615 c 1.253125,1.100084 2.407223,2.300995 3.453293,3.600931 H 7.647524 c 1.0442701,-1.301737 2.2055704,-2.499046 3.456894,-3.600931 z m 69.10367,25.202917 H 1.5583494 C 1.4107112,67.974552 1.3080847,66.779043 1.3080847,65.554727 H 79.273646 c 0.410507,1.1595 0.727389,2.362211 0.934442,3.600931 z m -69.10367,18.004656 h 63.880519 c -1.224316,1.364753 -2.605273,2.581867 -4.13927,3.59733 H 16.17993 c -1.829273,-1.010061 -3.51991,-2.230777 -5.075512,-3.59733 z M 5.1934894,79.958451 H 79.262844 c -0.442915,1.258526 -0.999259,2.461237 -1.656429,3.600932 H 7.647524 C 6.7400894,82.42689 5.9244785,81.220578 5.1934894,79.958451 Z M 1.5583494,61.953796 C 1.711389,60.725878 1.9508509,59.530369 2.2551296,58.356465 H 75.649309 c -0.06302,0.176446 -0.111629,0.354692 -0.180046,0.531138 v 0 c 0.801207,0.952446 1.521393,1.984113 2.149756,3.066193 z M 2.2533291,72.756589 H 80.519569 c 0,1.231519 -0.127833,2.427028 -0.325885,3.600931 H 3.4218313 C 2.9501093,75.192619 2.5702111,73.986307 2.2533291,72.756589 Z"
   id="path2"
   inkscape:connector-curvature="0"
   style="clip-rule:evenodd;fill-rule:evenodd;stroke-width:1.80046558" />
</svg>