<?xml version="1.0" encoding="UTF-8" standalone="no"?>
<!-- Generator: Adobe Illustrator 15.1.0, SVG Export Plug-In . SVG Version: 6.00 Build 0)  -->

<svg
   xmlns:dc="http://purl.org/dc/elements/1.1/"
   xmlns:cc="http://creativecommons.org/ns#"
   xmlns:rdf="http://www.w3.org/1999/02/22-rdf-syntax-ns#"
   xmlns:svg="http://www.w3.org/2000/svg"
   xmlns="http://www.w3.org/2000/svg"
   xmlns:sodipodi="http://sodipodi.sourceforge.net/DTD/sodipodi-0.dtd"
   xmlns:inkscape="http://www.inkscape.org/namespaces/inkscape"
   version="1.1"
   id="Layer_1"
   x="0px"
   y="0px"
   width="100px"
   height="100px"
   viewBox="0 0 100 100"
   enable-background="new 0 0 100 100"
   xml:space="preserve"
   sodipodi:docname="Cloud-Drizzle-Moon-Alt.svg"
   inkscape:version="0.92.4 5da689c313, 2019-01-14"><metadata
   id="metadata9"><rdf:RDF><cc:Work
       rdf:about=""><dc:format>image/svg+xml</dc:format><dc:type
         rdf:resource="http://purl.org/dc/dcmitype/StillImage" /></cc:Work></rdf:RDF></metadata><defs
   id="defs7" /><sodipodi:namedview
   pagecolor="#ffffff"
   bordercolor="#666666"
   borderopacity="1"
   objecttolerance="10"
   gridtolerance="10"
   guidetolerance="10"
   inkscape:pageopacity="0"
   inkscape:pageshadow="2"
   inkscape:window-width="640"
   inkscape:window-height="480"
   id="namedview5"
   showgrid="false"
   inkscape:zoom="2.36"
   inkscape:cx="50"
   inkscape:cy="50"
   inkscape:window-x="0"
   inkscape:window-y="0"
   inkscape:window-maximized="0"
   inkscape:current-layer="Layer_1" />
<path
   d="m 88.805115,40.654996 c 2.741551,3.903056 4.363652,8.647201 4.363652,13.781852 v 0 c 0,10.467559 -6.706687,19.345059 -16.046786,22.639326 -0.05407,-2.675465 -0.869126,-5.3269 -2.449173,-7.623875 6.117925,-2.256924 10.485583,-8.120519 10.485583,-15.015451 v 0 0 c 0,-8.845458 -7.17129,-16.020752 -16.01875,-16.020752 -3.206153,0 -6.173998,0.96525 -8.679243,2.585349 -2.465193,-10.64579 -11.961494,-18.604099 -23.358257,-18.604099 -13.271191,0 -24.029126,10.757935 -24.029126,24.029126 0,2.811642 0.508659,5.499123 1.397811,8.010376 h 0.03004 c 1.952529,5.487108 5.79751,10.075051 10.801992,12.906719 l -0.114148,0.114148 c -1.964545,1.962542 -3.19614,4.373665 -3.748856,6.898936 C 13.928123,70.137186 8.3208593,62.969902 6.1160033,54.436848 v 0 C 5.4551473,51.871525 5.0666441,49.19606 5.0666441,46.426472 c 0,-17.692918 14.3425789,-32.0375 32.0374999,-32.0375 4.009193,0 7.838153,0.750973 11.372731,2.096716 3.276244,-9.3761452 12.17377,-16.11487419 22.667363,-16.11487419 1.511958,0 2.985867,0.15620234 4.419725,0.42454994 -0.264343,1.15149155 -0.41654,2.34904285 -0.41654,3.58063815 0,8.8474611 7.173292,16.0187501 16.020753,16.0187501 1.231595,0 2.427144,-0.152197 3.578635,-0.41654 0.268348,1.43586 0.42455,2.909769 0.42455,4.421728 -0.002,6.278132 -2.427144,11.977515 -6.366246,16.255056 z M 67.561597,8.7997322 C 61.754074,10.129455 57.198173,14.627281 55.69823,20.364713 v 0 c 3.838972,2.747559 7.051133,6.312176 9.370137,10.455544 1.329723,-0.226294 2.677468,-0.410532 4.071274,-0.410532 5.242791,0 10.077053,1.700202 14.028171,4.547891 1.718226,-1.96054 2.973852,-4.341624 3.576633,-6.973033 C 77.023854,26.172236 69.371942,18.522326 67.561597,8.7997322 Z m -32.46205,60.0758188 4.247502,4.247502 c 2.34704,2.347041 2.34704,6.147964 0,8.495005 -2.345038,2.34704 -6.147964,2.34704 -8.495004,0 -2.345038,-2.347041 -2.345038,-6.147964 0,-8.495005 z m 14.016156,16.016748 4.247502,4.247502 c 2.34704,2.34704 2.34704,6.151969 0,8.495004 -2.345038,2.34704 -6.147964,2.34704 -8.495004,0 -2.345038,-2.343035 -2.345038,-6.147964 0,-8.495004 z m 14.016156,-16.016748 4.247502,4.247502 c 2.34704,2.347041 2.34704,6.147964 0,8.495005 -2.345038,2.34704 -6.147964,2.34704 -8.495004,0 -2.345038,-2.347041 -2.345038,-6.147964 0,-8.495005 z"
   id="path2"
   inkscape:connector-curvature="0"
   style="clip-rule:evenodd;fill-rule:evenodd;stroke-width:2.00259399" />
</svg>