<?xml version="1.0" encoding="UTF-8" standalone="no"?>
<!-- Generator: Adobe Illustrator 15.1.0, SVG Export Plug-In . SVG Version: 6.00 Build 0)  -->

<svg
   xmlns:dc="http://purl.org/dc/elements/1.1/"
   xmlns:cc="http://creativecommons.org/ns#"
   xmlns:rdf="http://www.w3.org/1999/02/22-rdf-syntax-ns#"
   xmlns:svg="http://www.w3.org/2000/svg"
   xmlns="http://www.w3.org/2000/svg"
   xmlns:sodipodi="http://sodipodi.sourceforge.net/DTD/sodipodi-0.dtd"
   xmlns:inkscape="http://www.inkscape.org/namespaces/inkscape"
   version="1.1"
   id="Layer_1"
   x="0px"
   y="0px"
   width="100px"
   height="100px"
   viewBox="0 0 100 100"
   enable-background="new 0 0 100 100"
   xml:space="preserve"
   sodipodi:docname="Cloud-Moon-symbolic.svg"
   inkscape:version="0.92.4 5da689c313, 2019-01-14"><metadata
   id="metadata9"><rdf:RDF><cc:Work
       rdf:about=""><dc:format>image/svg+xml</dc:format><dc:type
         rdf:resource="http://purl.org/dc/dcmitype/StillImage" /></cc:Work></rdf:RDF></metadata><defs
   id="defs7" /><sodipodi:namedview
   pagecolor="#ffffff"
   bordercolor="#666666"
   borderopacity="1"
   objecttolerance="10"
   gridtolerance="10"
   guidetolerance="10"
   inkscape:pageopacity="0"
   inkscape:pageshadow="2"
   inkscape:window-width="1078"
   inkscape:window-height="936"
   id="namedview5"
   showgrid="false"
   inkscape:zoom="2.36"
   inkscape:cx="50"
   inkscape:cy="50"
   inkscape:window-x="0"
   inkscape:window-y="0"
   inkscape:window-maximized="0"
   inkscape:current-layer="Layer_1"
   showguides="true"
   inkscape:guide-bbox="true"><sodipodi:guide
     position="14.830508,33.050847"
     orientation="1,0"
     id="guide7"
     inkscape:locked="false" /><sodipodi:guide
     position="50,50"
     orientation="0,1"
     id="guide9"
     inkscape:locked="false" /></sodipodi:namedview>
<path
   d="m 80.049386,46.542941 v 0 c 2.1204,3.02095 3.37745,6.6929 3.37745,10.66865 0,10.26875 -8.32505,18.5969 -18.5969,18.5969 -4.30125,0 -19.84155,0 -24.7969,0 -13.6958,0 -24.7969,-11.1011 -24.7969,-24.7969 0,-13.6958 11.1011,-24.7969 24.7969,-24.7969 3.1031,0 6.0667,0.58125 8.804,1.62285 v 0 c 2.53425,-7.2571 9.4209,-12.47285 17.5429,-12.47285 1.17025,0 2.31105,0.1209 3.42085,0.3286 -0.20305,0.89125 -0.32085,1.81815 -0.32085,2.7714 0,6.8479 5.55055,12.39845 12.3969,12.39845 0.9548,0 1.88015,-0.1178 2.77295,-0.3224 0.20615,1.11135 0.32705,2.25215 0.32705,3.4224 -0.0015,4.85615 -1.8786,9.26745 -4.92745,12.5798 z m -58.6148,4.46865 c 0,10.27185 8.32505,18.5969 18.5969,18.5969 5.6048,0 20.11745,0 24.7969,0 6.8479,0 12.39845,-5.5521 12.39845,-12.3969 0,-6.8479 -5.55055,-12.4 -12.39845,-12.4 -2.48,0 -4.77865,0.7471 -6.7177,2.00105 -1.90805,-8.2398 -9.25815,-14.3995 -18.0792,-14.3995 -10.27185,0 -18.5969,8.3266 -18.5969,18.59845 z m 30.30095,-21.8488 c 0.0015,0 0.0031,0 0.0031,0 0,0 -0.0016,0 -0.0031,0 z m 11.87145,-7.27725 c -4.495,1.0292 -8.02125,4.5105 -9.18375,8.95125 v 0 c 2.9729,2.1266 5.46065,4.8856 7.254,8.091 1.0292,-0.17515 2.07235,-0.31775 3.15115,-0.31775 4.0579,0 7.80115,1.3175 10.85775,3.52005 v 0 c 1.3299,-1.51745 2.30175,-3.3604 2.7683,-5.3971 -7.52215,-1.4012 -13.44625,-7.32065 -14.84745,-14.84745 z"
   id="path2"
   inkscape:connector-curvature="0"
   style="clip-rule:evenodd;fill-rule:evenodd;stroke-width:1.54999995" />
</svg>