<?xml version="1.0" encoding="UTF-8" standalone="no"?>
<!-- Generator: Adobe Illustrator 15.1.0, SVG Export Plug-In . SVG Version: 6.00 Build 0)  -->

<svg
   xmlns:dc="http://purl.org/dc/elements/1.1/"
   xmlns:cc="http://creativecommons.org/ns#"
   xmlns:rdf="http://www.w3.org/1999/02/22-rdf-syntax-ns#"
   xmlns:svg="http://www.w3.org/2000/svg"
   xmlns="http://www.w3.org/2000/svg"
   xmlns:sodipodi="http://sodipodi.sourceforge.net/DTD/sodipodi-0.dtd"
   xmlns:inkscape="http://www.inkscape.org/namespaces/inkscape"
   version="1.1"
   id="Layer_1"
   x="0px"
   y="0px"
   width="100px"
   height="100px"
   viewBox="0 0 100 100"
   enable-background="new 0 0 100 100"
   xml:space="preserve"
   sodipodi:docname="Cloud-Lightning-Moon-symbolic.svg"
   inkscape:version="0.92.4 5da689c313, 2019-01-14"><metadata
   id="metadata9"><rdf:RDF><cc:Work
       rdf:about=""><dc:format>image/svg+xml</dc:format><dc:type
         rdf:resource="http://purl.org/dc/dcmitype/StillImage" /></cc:Work></rdf:RDF></metadata><defs
   id="defs7" /><sodipodi:namedview
   pagecolor="#ffffff"
   bordercolor="#666666"
   borderopacity="1"
   objecttolerance="10"
   gridtolerance="10"
   guidetolerance="10"
   inkscape:pageopacity="0"
   inkscape:pageshadow="2"
   inkscape:window-width="1078"
   inkscape:window-height="936"
   id="namedview5"
   showgrid="false"
   inkscape:zoom="2.36"
   inkscape:cx="50"
   inkscape:cy="50"
   inkscape:window-x="0"
   inkscape:window-y="0"
   inkscape:window-maximized="0"
   inkscape:current-layer="Layer_1"
   showguides="true"
   inkscape:guide-bbox="true"><sodipodi:guide
     position="14.830508,29.661017"
     orientation="1,0"
     id="guide7"
     inkscape:locked="false" /><sodipodi:guide
     position="53.813559,50"
     orientation="0,1"
     id="guide9"
     inkscape:locked="false" /></sodipodi:namedview>
<path
   d="m 80.106486,45.451966 v 0 c 1.5562,2.21805 2.63345,4.7895 3.10465,7.56865 h -0.0062 c 0.16895,1.0106 0.279,2.04135 0.279,3.1 0,10.27185 -8.3266,18.59845 -18.59845,18.59845 -0.43245,0 -1.0044,0 -1.6461,0 l 5.5552,-6.8386 c 4.93055,-1.63835 8.4909,-6.27905 8.4909,-11.75985 0,-1.07105 -0.1519,-2.10645 -0.40765,-3.1 v 0 c -1.3795,-5.34285 -6.21705,-9.29845 -11.99235,-9.29845 -2.48,0 -4.7771,0.74555 -6.71615,2.00105 -1.90805,-8.2398 -9.2597,-14.3995 -18.08075,-14.3995 -10.2703,0 -18.5969,8.3266 -18.5969,18.59845 0,1.05865 0.1085,2.0894 0.279,3.09845 h -0.0217 c 1.1842,7.0494 6.3364,12.74565 13.0789,14.73275 l -2.0925,5.8559 c -9.14965,-2.83805 -16.01305,-10.83605 -17.2298,-20.58865 v 0 c -0.1271,-1.0168 -0.21545,-2.046 -0.21545,-3.09845 0,-13.6958 11.10265,-24.7969 24.7969,-24.7969 3.10465,0 6.0667,0.58125 8.804,1.6244 v 0 c 2.53425,-7.25865 9.42245,-12.47285 17.5429,-12.47285 1.1718,0 2.3126,0.1209 3.4224,0.32705 -0.2046,0.8928 -0.3224,1.81815 -0.3224,2.7714 0,6.8479 5.5521,12.39845 12.39845,12.39845 0.9548,0 1.8786,-0.1178 2.7714,-0.32085 0.2077,1.1098 0.3286,2.2506 0.3286,3.42085 0.0016,4.85615 -1.87705,9.2659 -4.9259,12.57825 z m -16.44085,-24.6543 c -4.495,1.02765 -8.02125,4.50895 -9.1822,8.9497 v 0 c 2.9698,2.1266 5.45755,4.88715 7.2509,8.0941 1.0292,-0.1767 2.0739,-0.31775 3.15115,-0.31775 4.05945,0 7.80115,1.3144 10.8593,3.52005 v 0 c 1.3299,-1.51745 2.30175,-3.3604 2.76675,-5.3971 -7.52215,-1.4043 -13.44625,-7.3253 -14.8459,-14.849 z m -17.37705,32.22295 h 15.49845 l -9.29845,15.49845 h 10.84845 l -20.14845,24.7969 5.58,-18.5969 h -10.22845 z"
   id="path2"
   inkscape:connector-curvature="0"
   style="clip-rule:evenodd;fill-rule:evenodd;stroke-width:1.54999995" />
</svg>