<?xml version="1.0" encoding="UTF-8" standalone="no"?>
<!-- Generator: Adobe Illustrator 15.1.0, SVG Export Plug-In . SVG Version: 6.00 Build 0)  -->

<svg
   xmlns:dc="http://purl.org/dc/elements/1.1/"
   xmlns:cc="http://creativecommons.org/ns#"
   xmlns:rdf="http://www.w3.org/1999/02/22-rdf-syntax-ns#"
   xmlns:svg="http://www.w3.org/2000/svg"
   xmlns="http://www.w3.org/2000/svg"
   xmlns:sodipodi="http://sodipodi.sourceforge.net/DTD/sodipodi-0.dtd"
   xmlns:inkscape="http://www.inkscape.org/namespaces/inkscape"
   version="1.1"
   id="Layer_1"
   x="0px"
   y="0px"
   width="100px"
   height="100px"
   viewBox="0 0 100 100"
   enable-background="new 0 0 100 100"
   xml:space="preserve"
   sodipodi:docname="Cloud-Fog-Sun-Alt-symbolic.svg"
   inkscape:version="0.92.4 5da689c313, 2019-01-14"><metadata
   id="metadata9"><rdf:RDF><cc:Work
       rdf:about=""><dc:format>image/svg+xml</dc:format><dc:type
         rdf:resource="http://purl.org/dc/dcmitype/StillImage" /></cc:Work></rdf:RDF></metadata><defs
   id="defs7" /><sodipodi:namedview
   pagecolor="#ffffff"
   bordercolor="#666666"
   borderopacity="1"
   objecttolerance="10"
   gridtolerance="10"
   guidetolerance="10"
   inkscape:pageopacity="0"
   inkscape:pageshadow="2"
   inkscape:window-width="1078"
   inkscape:window-height="936"
   id="namedview5"
   showgrid="false"
   inkscape:zoom="2.36"
   inkscape:cx="50"
   inkscape:cy="50"
   inkscape:window-x="0"
   inkscape:window-y="0"
   inkscape:window-maximized="0"
   inkscape:current-layer="Layer_1"
   showguides="true"
   inkscape:guide-bbox="true"><sodipodi:guide
     position="14.830508,39.830508"
     orientation="1,0"
     id="guide7"
     inkscape:locked="false" /><sodipodi:guide
     position="-61.864407,50"
     orientation="0,1"
     id="guide9"
     inkscape:locked="false" /></sodipodi:namedview>
<path
   d="m 95.881835,41.119776 h -6.2 c -1.7112,0 -3.1,-1.3888 -3.1,-3.1 0,-1.7112 1.3888,-3.1 3.1,-3.1 h 6.2 c 1.7112,0 3.1,1.3888 3.1,3.1 0,1.70965 -1.3888,3.1 -3.1,3.1 z m -12.17835,-20.63515 c -1.21055,1.21055 -3.17285,1.21055 -4.3834,0 -1.21055,-1.21055 -1.21055,-3.17285 0,-4.3834 l 4.3834,-4.3834 c 1.21055,-1.21055 3.17285,-1.21055 4.3834,0 1.21055,1.21055 1.21055,3.17285 0,4.3834 z m -3.5991,20.63515 h -62.99355 c 0.43555,-1.07415 0.95015,-2.10645 1.5252,-3.1 h 42.8916 c 0.06355,0.1085 0.1457,0.2077 0.20615,0.31775 1.0292,-0.1767 2.07235,-0.31775 3.15115,-0.31775 3.29375,0 6.38445,0.86645 9.0675,2.36685 v 0 c 0.1488,-0.7657 0.2325,-1.5593 0.2325,-2.36685 0,-6.8479 -5.5521,-12.39845 -12.4,-12.39845 -3.13875,0 -5.99695,1.17645 -8.17935,3.09845 h -25.51145 c 3.5557,-1.97005 7.6415,-3.09845 11.9939,-3.09845 2.4366,0 4.7895,0.3596 7.01065,1.01525 3.40225,-4.3834 8.7079,-7.2137 14.68625,-7.2137 10.27185,0 18.59845,8.32505 18.59845,18.5969 0,1.05865 -0.10385,2.09095 -0.279,3.1 z m -18.31945,-27.8969 c -1.7112,0 -3.09845,-1.3888 -3.09845,-3.1 v -6.19845 c 0,-1.7112 1.3888,-3.10000003 3.09845,-3.10000003 1.71275,0 3.1,1.38880003 3.1,3.10000003 v 6.19845 c 0,1.7112 -1.38725,3.1 -3.1,3.1 z m -21.91855,7.26175 -4.38185,-4.3834 c -1.21055,-1.21055 -1.21055,-3.17285 0,-4.3834 1.209,-1.21055 3.17285,-1.21055 4.38185,0 l 4.3834,4.3834 c 1.21055,1.21055 1.21055,3.17285 0,4.3834 -1.209,1.21055 -3.1713,1.21055 -4.3834,0 z m -16.1417,11.33515 h 32.67555 c 1.0788,0.94705 2.07235,1.9809 2.9729,3.1 h -38.62445 c 0.899,-1.12065 1.89875,-2.1514 2.976,-3.1 z m 59.49055,21.6969 H 15.506586 c -0.1271,-1.0168 -0.21545,-2.046 -0.21545,-3.1 h 67.119649 c 0.3534,0.9982 0.6262,2.0336 0.80445,3.1 z m -59.49055,15.5 h 54.994 c -1.054,1.1749 -2.24285,2.2227 -3.56345,3.0969 h -47.0611 c -1.5748,-0.86955 -3.03025,-1.92045 -4.36945,-3.0969 z m -5.08865,-6.2 h 63.76545 c -0.3813,1.08345 -0.86025,2.11885 -1.426,3.1 h -60.2268 c -0.7812,-0.97495 -1.48335,-2.01345 -2.11265,-3.1 z m -3.129449,-15.5 c 0.13175,-1.0571 0.3379,-2.0863 0.599849,-3.0969 h 63.1842 c -0.05425,0.1519 -0.0961,0.30535 -0.155,0.45725 v 0 c 0.68975,0.81995 1.30975,1.7081 1.8507,2.63965 z m 0.598299,9.3 h 67.3785 c 0,1.0602 -0.11005,2.0894 -0.28055,3.1 h -66.092 c -0.4061,-1.00285 -0.73315,-2.04135 -1.00595,-3.1 z"
   id="path2"
   inkscape:connector-curvature="0"
   style="clip-rule:evenodd;fill-rule:evenodd;stroke-width:1.54999995" />
</svg>