<?xml version="1.0" encoding="UTF-8" standalone="no"?>
<!-- Generator: Adobe Illustrator 15.1.0, SVG Export Plug-In . SVG Version: 6.00 Build 0)  -->

<svg
   xmlns:dc="http://purl.org/dc/elements/1.1/"
   xmlns:cc="http://creativecommons.org/ns#"
   xmlns:rdf="http://www.w3.org/1999/02/22-rdf-syntax-ns#"
   xmlns:svg="http://www.w3.org/2000/svg"
   xmlns="http://www.w3.org/2000/svg"
   xmlns:sodipodi="http://sodipodi.sourceforge.net/DTD/sodipodi-0.dtd"
   xmlns:inkscape="http://www.inkscape.org/namespaces/inkscape"
   version="1.1"
   id="Layer_1"
   x="0px"
   y="0px"
   width="100px"
   height="100px"
   viewBox="0 0 100 100"
   enable-background="new 0 0 100 100"
   xml:space="preserve"
   sodipodi:docname="Cloud-Snow-Moon-Alt-symbolic.svg"
   inkscape:version="0.92.4 5da689c313, 2019-01-14"><metadata
   id="metadata9"><rdf:RDF><cc:Work
       rdf:about=""><dc:format>image/svg+xml</dc:format><dc:type
         rdf:resource="http://purl.org/dc/dcmitype/StillImage" /></cc:Work></rdf:RDF></metadata><defs
   id="defs7" /><sodipodi:namedview
   pagecolor="#ffffff"
   bordercolor="#666666"
   borderopacity="1"
   objecttolerance="10"
   gridtolerance="10"
   guidetolerance="10"
   inkscape:pageopacity="0"
   inkscape:pageshadow="2"
   inkscape:window-width="1078"
   inkscape:window-height="936"
   id="namedview5"
   showgrid="false"
   inkscape:zoom="2.36"
   inkscape:cx="50"
   inkscape:cy="50"
   inkscape:window-x="0"
   inkscape:window-y="0"
   inkscape:window-maximized="0"
   inkscape:current-layer="Layer_1"
   showguides="true"
   inkscape:guide-bbox="true"><sodipodi:guide
     position="14.830508,39.830508"
     orientation="1,0"
     id="guide7"
     inkscape:locked="false" /><sodipodi:guide
     position="99.152542,50"
     orientation="0,1"
     id="guide9"
     inkscape:locked="false" /></sodipodi:namedview>
<path
   d="m 79.680657,46.210593 v 0 c 2.12195,3.02095 3.379,6.69445 3.379,10.66555 0,8.09565 -5.1801,14.9606 -12.39845,17.51965 v -6.79055 c 3.70295,-2.14675 6.19845,-6.14265 6.19845,-10.7291 0,-6.84635 -5.55055,-12.39845 -12.39845,-12.39845 -2.48,0 -4.77865,0.744 -6.71615,2.00105 -1.9096,-8.24135 -9.2597,-14.40105 -18.08075,-14.40105 -10.2703,0 -18.5969,8.32815 -18.5969,18.6 0,5.50095 2.4025,10.42995 6.19845,13.8322 v 7.6198 c -7.4028,-4.2904 -12.39845,-12.2791 -12.39845,-21.452 0,-13.69425 11.10265,-24.79845 24.7969,-24.79845 3.1031,0 6.0667,0.5828 8.804,1.6244 v 0 c 2.53425,-7.2571 9.4209,-12.47285 17.5429,-12.47285 1.17025,0 2.31105,0.1209 3.4224,0.32705 -0.2046,0.8928 -0.3224,1.8197 -0.3224,2.77295 0,6.8479 5.55055,12.3969 12.39845,12.3969 0.95325,0 1.8786,-0.11625 2.7714,-0.32085 0.2077,1.11135 0.3286,2.25215 0.3286,3.42085 0,4.8608 -1.8786,9.269 -4.929,12.5829 z m -16.44085,-24.65585 c -4.495,1.0292 -8.0197,4.5105 -9.1822,8.95125 v 0 c 2.97135,2.1266 5.4591,4.8856 7.25245,8.09255 1.0292,-0.17515 2.07235,-0.31775 3.15115,-0.31775 4.0579,0 7.80115,1.31285 10.85775,3.52005 v 0 c 1.33145,-1.519 2.3033,-3.35885 2.7683,-5.3971 -7.5237,-1.40275 -13.44625,-7.3253 -14.84745,-14.849 z m -25.0139,44.62295 c 0.8556,-1.48335 2.75125,-1.98865 4.23305,-1.1346 l 3.4038,1.9654 v -3.92925 c 0,-1.7112 1.3888,-3.1 3.1,-3.1 1.7112,0 3.09845,1.3888 3.09845,3.1 v 3.92925 l 3.4038,-1.9654 c 1.4818,-0.85405 3.379,-0.34875 4.23305,1.1346 0.85715,1.48335 0.34875,3.379 -1.13305,4.2346 l -3.40225,1.9654 3.4038,1.9654 c 1.4818,0.85715 1.9902,2.75125 1.13305,4.2346 -0.8556,1.48025 -2.75125,1.98865 -4.23305,1.1315 l -3.4038,-1.96385 v 3.92925 c 0,1.71275 -1.3888,3.1 -3.09845,3.1 -1.7112,0 -3.1,-1.38725 -3.1,-3.1 v -3.92925 l -3.4038,1.9654 c -1.4818,0.85715 -3.379,0.34875 -4.23305,-1.1315 -0.8556,-1.48335 -0.34875,-3.379 1.13305,-4.2346 l 3.4038,-1.9654 -3.4038,-1.9654 c -1.4818,-0.8587 -1.9902,-2.7528 -1.1346,-4.23615 z m 10.7384,9.3 c 1.7112,0 3.09845,-1.3888 3.09845,-3.1 0,-1.71275 -1.3888,-3.1 -3.09845,-3.1 -1.7112,0 -3.1,1.38725 -3.1,3.1 0,1.70965 1.38725,3.1 3.1,3.1 z"
   id="path2"
   inkscape:connector-curvature="0"
   style="clip-rule:evenodd;fill-rule:evenodd;stroke-width:1.54999995" />
</svg>