<?xml version="1.0" encoding="utf-8"?>
<!-- Generator: Adobe Illustrator 15.1.0, SVG Export Plug-In . SVG Version: 6.00 Build 0)  -->
<!DOCTYPE svg PUBLIC "-//W3C//DTD SVG 1.1//EN" "http://www.w3.org/Graphics/SVG/1.1/DTD/svg11.dtd">
<svg version="1.1" id="Layer_1" xmlns="http://www.w3.org/2000/svg" xmlns:xlink="http://www.w3.org/1999/xlink" x="0px" y="0px"
	 width="100px" height="100px" viewBox="0 0 100 100" enable-background="new 0 0 100 100" xml:space="preserve">
<path fill-rule="evenodd" clip-rule="evenodd" d="M79.94,43.641h-3.999c-1.104,0-2-0.895-2-2c0-1.104,0.896-1.999,2-1.999h3.999
	c1.104,0,2,0.895,2,1.999C81.94,42.746,81.045,43.641,79.94,43.641z M72.084,30.329c-0.781,0.781-2.048,0.781-2.828,0
	c-0.781-0.78-0.781-2.047,0-2.827l2.828-2.828c0.78-0.781,2.047-0.781,2.828,0c0.78,0.78,0.78,2.047,0,2.828L72.084,30.329z
	 M69.137,45.936L69.137,45.936c1.749,2.086,2.805,4.77,2.805,7.705c0,5.221-3.342,9.652-7.999,11.301v-4.381
	c2.389-1.385,4-3.961,4-6.92c0-4.418-3.582-8-7.999-8c-1.601,0-3.084,0.482-4.334,1.291c-1.231-5.316-5.973-9.29-11.664-9.29
	c-6.627,0-11.999,5.372-11.999,11.999c0,3.549,1.551,6.729,4,8.926v4.914c-4.777-2.768-7.999-7.922-7.999-13.84
	c0-8.836,7.162-15.998,15.998-15.998c1.572,0,3.089,0.232,4.523,0.654c2.195-2.827,5.617-4.654,9.475-4.654
	c6.627,0,11.998,5.372,11.998,11.998C69.941,43.156,69.649,44.602,69.137,45.936z M57.943,33.643c-2.213,0-4.215,0.898-5.663,2.35
	c2.341,1.436,4.286,3.452,5.63,5.853c0.664-0.113,1.336-0.205,2.033-0.205c2.125,0,4.118,0.559,5.85,1.527l0,0
	c0.096-0.494,0.149-1.004,0.149-1.527C65.942,37.224,62.361,33.643,57.943,33.643z M57.943,25.643c-1.104,0-2-0.895-2-1.999v-3.999
	c0-1.105,0.896-2,2-2s2,0.895,2,2v3.999C59.943,24.749,59.048,25.643,57.943,25.643z M43.803,30.329l-2.828-2.827
	c-0.78-0.781-0.78-2.048,0-2.828c0.781-0.781,2.047-0.781,2.828,0l2.828,2.828c0.781,0.78,0.781,2.047,0,2.827
	C45.85,31.11,44.584,31.11,43.803,30.329z M41.945,53.641c1.104,0,2,0.895,2,2v3.998c0,1.105-0.896,2-2,2s-2-0.895-2-2v-3.998
	C39.945,54.535,40.841,53.641,41.945,53.641z M41.945,65.639c1.104,0,2,0.895,2,2v3.998c0,1.105-0.896,2-2,2s-2-0.895-2-2v-3.998
	C39.945,66.533,40.841,65.639,41.945,65.639z M49.944,57.639c1.104,0,2,0.896,2,2v4c0,1.104-0.896,2-2,2s-2-0.896-2-2v-4
	C47.944,58.535,48.84,57.639,49.944,57.639z M49.944,69.639c1.104,0,2,0.895,2,1.998v4c0,1.105-0.896,2-2,2s-2-0.895-2-2v-4
	C47.944,70.533,48.84,69.639,49.944,69.639z M57.943,53.641c1.104,0,2,0.895,2,2v3.998c0,1.105-0.896,2-2,2s-2-0.895-2-2v-3.998
	C55.943,54.535,56.839,53.641,57.943,53.641z M57.943,65.639c1.104,0,2,0.895,2,2v3.998c0,1.105-0.896,2-2,2s-2-0.895-2-2v-3.998
	C55.943,66.533,56.839,65.639,57.943,65.639z"/>
</svg>
