<?xml version="1.0" encoding="UTF-8" standalone="no"?>
<!-- Generator: Adobe Illustrator 15.1.0, SVG Export Plug-In . SVG Version: 6.00 Build 0)  -->

<svg
   xmlns:dc="http://purl.org/dc/elements/1.1/"
   xmlns:cc="http://creativecommons.org/ns#"
   xmlns:rdf="http://www.w3.org/1999/02/22-rdf-syntax-ns#"
   xmlns:svg="http://www.w3.org/2000/svg"
   xmlns="http://www.w3.org/2000/svg"
   xmlns:sodipodi="http://sodipodi.sourceforge.net/DTD/sodipodi-0.dtd"
   xmlns:inkscape="http://www.inkscape.org/namespaces/inkscape"
   version="1.1"
   id="Layer_1"
   x="0px"
   y="0px"
   width="100px"
   height="100px"
   viewBox="0 0 100 100"
   enable-background="new 0 0 100 100"
   xml:space="preserve"
   sodipodi:docname="Cloud-Wind-Moon-symbolic.svg"
   inkscape:version="0.92.4 5da689c313, 2019-01-14"><metadata
   id="metadata9"><rdf:RDF><cc:Work
       rdf:about=""><dc:format>image/svg+xml</dc:format><dc:type
         rdf:resource="http://purl.org/dc/dcmitype/StillImage" /></cc:Work></rdf:RDF></metadata><defs
   id="defs7" /><sodipodi:namedview
   pagecolor="#ffffff"
   bordercolor="#666666"
   borderopacity="1"
   objecttolerance="10"
   gridtolerance="10"
   guidetolerance="10"
   inkscape:pageopacity="0"
   inkscape:pageshadow="2"
   inkscape:window-width="640"
   inkscape:window-height="480"
   id="namedview5"
   showgrid="false"
   inkscape:zoom="2.36"
   inkscape:cx="50"
   inkscape:cy="50"
   inkscape:window-x="0"
   inkscape:window-y="0"
   inkscape:window-maximized="0"
   inkscape:current-layer="Layer_1" />
<path
   d="m 89.487919,78.05941 v 0.09226 h -1.35678 -5.42531 c -1.99718,0 -3.618079,-1.619091 -3.618079,-3.61808 0,-1.99718 1.620899,-3.61627 3.618079,-3.61627 h 5.42531 c 1.99718,0 3.61808,-1.6209 3.61808,-3.61808 0,-1.99718 -1.6209,-3.61627 -3.61808,-3.61627 -1.997179,0 -3.618079,-1.6209 -3.618079,-3.61808 0,-1.998989 1.6209,-3.618079 3.618079,-3.618079 0.251457,0 0.493868,0.02533 0.729044,0.07417 5.647822,0.381708 10.123386,5.034558 10.123386,10.778259 0,5.532044 -4.142701,10.089015 -9.49565,10.760169 z M 79.610562,41.976302 h 0.01809 c 0.385326,1.089042 0.696481,2.210647 0.90452,3.370241 -2.521801,-1.799994 -5.517571,-2.977679 -8.772034,-3.283407 -0.01628,-0.03075 -0.03799,-0.05608 -0.05608,-0.08683 h 0.0054 c -2.503711,-4.321796 -7.167415,-7.23435 -12.520364,-7.23435 -2.894464,0 -5.57727,0.868339 -7.83857,2.333661 -2.228737,-9.616855 -10.807203,-16.805979 -21.102449,-16.805979 -11.986697,0 -21.7048581,9.718162 -21.7048581,21.706668 v 0 c 0,11.986698 9.7181611,21.706669 21.7048581,21.706669 4.699886,0 14.747293,0 22.068477,0 h 17.724972 c 1.99718,0 3.618079,-1.6209 3.618079,-3.61808 0,-1.998989 -1.620899,-3.618079 -3.618079,-3.618079 -1.99718,0 -3.616271,-1.6209 -3.616271,-3.61808 0,-1.99718 1.6209,-3.61808 3.616271,-3.61808 0.251456,0 0.493867,0.02533 0.729043,0.07417 5.647822,0.381707 10.125195,5.034558 10.125195,10.780068 0,5.533853 -4.14451,10.089015 -9.497459,10.75836 v 0.09407 H 70.042551 55.597368 c -7.257868,0 -20.545265,0 -25.348266,0 -1.99718,0 -3.61627,1.6209 -3.61627,3.61627 0,1.998989 1.61909,3.61808 3.61627,3.61808 h 39.793449 1.356779 v 0.09588 c 5.352949,0.667536 9.497459,5.226316 9.497459,10.75836 0,5.743701 -4.477373,10.396551 -10.125195,10.778259 -0.235176,0.04704 -0.479396,0.07417 -0.729043,0.07417 -1.99718,0 -3.616271,-1.620899 -3.616271,-3.618079 0,-1.99718 1.6209,-3.616271 3.616271,-3.616271 1.99718,0 3.618079,-1.620899 3.618079,-3.618079 0,-1.998989 -1.620899,-3.61808 -3.618079,-3.61808 h -39.793449 -1.35678 v -0.09407 c -5.351139,-0.669345 -9.495649,-5.228125 -9.495649,-10.760169 0,-1.908537 0.531857,-3.675968 1.398387,-5.228125 C 9.459618,65.383468 1.3080848,54.645008 1.3080848,41.976302 c 0,-15.982866 12.9581512,-28.941019 28.9410172,-28.941019 3.621698,0 7.080582,0.680199 10.275346,1.895874 2.95778,-8.4717337 10.995344,-14.55734344 20.474713,-14.55734344 1.365825,0 2.697278,0.1411051 3.99436,0.3817074 C 64.754727,1.7975279 64.61724,2.8775245 64.61724,3.991893 c 0,7.992338 6.478172,14.4687 14.47051,14.4687 1.112559,0 2.192556,-0.137487 3.234563,-0.374471 0.242411,1.297082 0.383516,2.626727 0.383516,3.992552 0,5.671339 -2.192556,10.816249 -5.752746,14.680358 1.117986,1.591955 1.993561,3.353959 2.657479,5.21727 z M 57.764598,7.9844439 C 52.518382,9.1838372 48.404626,13.24875 47.047846,18.42984 v 0 c 3.467929,2.482003 6.371438,5.703903 8.464497,9.446806 1.201202,-0.20623 2.418686,-0.370853 3.677778,-0.370853 4.736066,0 9.104897,1.534066 12.672324,4.108329 1.553965,-1.772859 2.688233,-3.923807 3.230945,-6.299076 C 66.312311,23.677865 59.39997,16.765523 57.764598,7.9844439 Z"
   id="path2"
   inkscape:connector-curvature="0"
   style="clip-rule:evenodd;fill-rule:evenodd;stroke-width:1.80903983" />
</svg>