<?xml version="1.0" encoding="utf-8"?>
<!-- Generator: Adobe Illustrator 15.1.0, SVG Export Plug-In . SVG Version: 6.00 Build 0)  -->
<!DOCTYPE svg PUBLIC "-//W3C//DTD SVG 1.1//EN" "http://www.w3.org/Graphics/SVG/1.1/DTD/svg11.dtd">
<svg version="1.1" id="Layer_1" xmlns="http://www.w3.org/2000/svg" xmlns:xlink="http://www.w3.org/1999/xlink" x="0px" y="0px"
	 width="100px" height="100px" viewBox="0 0 100 100" enable-background="new 0 0 100 100" xml:space="preserve">
<path fill-rule="evenodd" clip-rule="evenodd" d="M69.763,46.758c1.369,1.949,2.179,4.318,2.179,6.882l0,0
	c0,5.227-3.349,9.66-8.013,11.305c-0.027-1.336-0.434-2.66-1.223-3.807c3.055-1.127,5.236-4.055,5.236-7.498l0,0l0,0
	c0-4.417-3.581-8-7.999-8c-1.601,0-3.083,0.482-4.334,1.291c-1.231-5.316-5.973-9.29-11.664-9.29
	c-6.627,0-11.999,5.372-11.999,11.999c0,1.404,0.254,2.746,0.698,4h0.015c0.975,2.74,2.895,5.031,5.394,6.445l-0.057,0.057
	c-0.981,0.98-1.596,2.184-1.872,3.445c-3.751-2.107-6.551-5.686-7.652-9.947l0,0c-0.33-1.281-0.524-2.617-0.524-4
	c0-8.835,7.162-15.998,15.998-15.998c2.002,0,3.914,0.375,5.679,1.047c1.636-4.682,6.079-8.047,11.319-8.047
	c0.755,0,1.491,0.078,2.207,0.212c-0.132,0.575-0.208,1.173-0.208,1.788c0,4.418,3.582,7.999,8,7.999
	c0.615,0,1.212-0.076,1.787-0.208c0.134,0.717,0.212,1.453,0.212,2.208C72.941,41.776,71.73,44.622,69.763,46.758z M59.155,30.851
	c-2.9,0.664-5.175,2.91-5.924,5.775l0,0c1.917,1.372,3.521,3.152,4.679,5.221c0.664-0.113,1.337-0.205,2.033-0.205
	c2.618,0,5.032,0.849,7.005,2.271c0.858-0.979,1.485-2.168,1.786-3.482C63.88,39.526,60.059,35.706,59.155,30.851z M42.945,60.85
	l2.121,2.121c1.172,1.172,1.172,3.07,0,4.242c-1.171,1.172-3.07,1.172-4.242,0c-1.171-1.172-1.171-3.07,0-4.242L42.945,60.85z
	 M49.944,68.848l2.121,2.121c1.172,1.172,1.172,3.072,0,4.242c-1.171,1.172-3.07,1.172-4.242,0c-1.171-1.17-1.171-3.07,0-4.242
	L49.944,68.848z M56.943,60.85l2.121,2.121c1.172,1.172,1.172,3.07,0,4.242c-1.171,1.172-3.07,1.172-4.242,0
	c-1.171-1.172-1.171-3.07,0-4.242L56.943,60.85z"/>
</svg>
