<?xml version="1.0" encoding="UTF-8" standalone="no"?>
<!-- Generator: Adobe Illustrator 15.1.0, SVG Export Plug-In . SVG Version: 6.00 Build 0)  -->

<svg
   xmlns:dc="http://purl.org/dc/elements/1.1/"
   xmlns:cc="http://creativecommons.org/ns#"
   xmlns:rdf="http://www.w3.org/1999/02/22-rdf-syntax-ns#"
   xmlns:svg="http://www.w3.org/2000/svg"
   xmlns="http://www.w3.org/2000/svg"
   xmlns:sodipodi="http://sodipodi.sourceforge.net/DTD/sodipodi-0.dtd"
   xmlns:inkscape="http://www.inkscape.org/namespaces/inkscape"
   version="1.1"
   id="Layer_1"
   x="0px"
   y="0px"
   width="100px"
   height="100px"
   viewBox="0 0 100 100"
   enable-background="new 0 0 100 100"
   xml:space="preserve"
   sodipodi:docname="Cloud-Fog-Moon-symbolic.svg"
   inkscape:version="0.92.4 5da689c313, 2019-01-14"><metadata
   id="metadata9"><rdf:RDF><cc:Work
       rdf:about=""><dc:format>image/svg+xml</dc:format><dc:type
         rdf:resource="http://purl.org/dc/dcmitype/StillImage" /></cc:Work></rdf:RDF></metadata><defs
   id="defs7" /><sodipodi:namedview
   pagecolor="#ffffff"
   bordercolor="#666666"
   borderopacity="1"
   objecttolerance="10"
   gridtolerance="10"
   guidetolerance="10"
   inkscape:pageopacity="0"
   inkscape:pageshadow="2"
   inkscape:window-width="1078"
   inkscape:window-height="936"
   id="namedview5"
   showgrid="false"
   inkscape:zoom="2.36"
   inkscape:cx="50"
   inkscape:cy="50"
   inkscape:window-x="0"
   inkscape:window-y="0"
   inkscape:window-maximized="0"
   inkscape:current-layer="Layer_1"
   showguides="true"
   inkscape:guide-bbox="true"><sodipodi:guide
     position="14.830508,43.644068"
     orientation="1,0"
     id="guide7"
     inkscape:locked="false" /><sodipodi:guide
     position="-80.508475,50"
     orientation="0,1"
     id="guide9"
     inkscape:locked="false" /></sodipodi:namedview>
<path
   d="m 79.682207,45.532772 v 0 c 0.95635,1.364 1.7081,2.8737 2.27695,4.4702 h 0.02945 v 0 h -6.79985 v 0 0 c -2.1452,-3.70295 -6.1411,-6.19845 -10.72755,-6.19845 -2.48,0 -4.7771,0.744 -6.71615,1.9995 -1.90805,-8.2398 -9.2597,-14.3995 -18.08075,-14.3995 -10.2703,0 -18.5969,8.3266 -18.5969,18.59845 v 0 h -6.2 v 0 c 0,-13.69425 11.10265,-24.7969 24.7969,-24.7969 3.10465,0 6.0667,0.5828 8.804,1.6244 v 0 c 2.53425,-7.25865 9.42245,-12.47285 17.5429,-12.47285 1.1718,0 2.3126,0.1209 3.4224,0.32705 -0.2046,0.8928 -0.3224,1.81815 -0.3224,2.77295 0,6.8479 5.5521,12.3969 12.39845,12.3969 0.9548,0 1.8786,-0.1178 2.7714,-0.32085 0.2077,1.11135 0.3286,2.2506 0.3286,3.42085 0,4.8577 -1.8786,9.2659 -4.92745,12.57825 z m -16.44085,-24.6543 c -4.495,1.02765 -8.02125,4.5105 -9.1822,8.9497 v 0 c 2.9698,2.1266 5.45755,4.88715 7.2509,8.0941 1.0292,-0.1767 2.0739,-0.31775 3.15115,-0.31775 4.05945,0 7.80115,1.3144 10.8593,3.52005 v 0 c 1.3299,-1.519 2.30175,-3.36195 2.76675,-5.3971 -7.52215,-1.40275 -13.44625,-7.3253 -14.8459,-14.849 z m -45.27395,35.32295 h 61.9938 c 1.7112,0 3.09845,1.3888 3.09845,3.1 0,1.7112 -1.3888,3.1 -3.09845,3.1 h -61.9938 c -1.7112,0 -3.1,-1.3888 -3.1,-3.1 0,-1.7112 1.3888,-3.1 3.1,-3.1 z m 0,12.4 h 61.9938 c 1.7112,0 3.09845,1.38725 3.09845,3.09845 0,1.7112 -1.3888,3.1 -3.09845,3.1 h -61.9938 c -1.7112,0 -3.1,-1.3888 -3.1,-3.1 0,-1.7112 1.3888,-3.09845 3.1,-3.09845 z m 0,12.3969 h 61.9938 c 1.7112,0 3.09845,1.3888 3.09845,3.1 0,1.7112 -1.3888,3.1 -3.09845,3.1 h -61.9938 c -1.7112,0 -3.1,-1.3888 -3.1,-3.1 0,-1.7112 1.3888,-3.1 3.1,-3.1 z"
   id="path2"
   inkscape:connector-curvature="0"
   style="clip-rule:evenodd;fill-rule:evenodd;stroke-width:1.54999995" />
</svg>