<?xml version="1.0" encoding="utf-8"?>
<!-- Generator: Adobe Illustrator 15.1.0, SVG Export Plug-In . SVG Version: 6.00 Build 0)  -->
<!DOCTYPE svg PUBLIC "-//W3C//DTD SVG 1.1//EN" "http://www.w3.org/Graphics/SVG/1.1/DTD/svg11.dtd">
<svg version="1.1" id="Layer_1" xmlns="http://www.w3.org/2000/svg" xmlns:xlink="http://www.w3.org/1999/xlink" x="0px" y="0px"
	 width="100px" height="100px" viewBox="0 0 100 100" enable-background="new 0 0 100 100" xml:space="preserve">
<path fill-rule="evenodd" clip-rule="evenodd" fill="#231F20" d="M59.943,65.641c-0.518,0-1.287,0-2.217,0l2.101-2.102
	c0.589-0.59,1.029-1.271,1.322-1.998c3.844-0.584,6.793-3.893,6.793-7.898c0-4.418-3.581-8-7.999-8
	c-1.549,0-2.982,0.458-4.207,1.221c-0.139-0.559-0.358-1.08-0.641-1.564c-1.738-4.475-6.061-7.655-11.15-7.655
	c-6.627,0-11.998,5.371-11.998,11.998c0,4.612,2.604,8.61,6.418,10.618c0.195,1.201,0.74,2.354,1.666,3.279l1.971,1.971
	c-7.917-0.959-14.055-7.691-14.055-15.868c0-8.835,7.162-15.998,15.998-15.998c6.004,0,11.229,3.312,13.965,8.204
	c0.664-0.114,1.336-0.205,2.033-0.205c6.627,0,11.998,5.372,11.998,12C71.941,60.268,66.57,65.641,59.943,65.641z M45.687,57.883
	l2.243,2.242V48.298c0-1.104,0.895-1.999,1.999-1.999s2,0.895,2,1.999v11.827l2.242-2.242c0.78-0.781,2.048-0.781,2.828,0
	s0.78,2.047,0,2.828l-5.656,5.656c-0.78,0.781-2.047,0.781-2.828,0l-5.655-5.656c-0.781-0.781-0.781-2.047,0-2.828
	C43.64,57.102,44.906,57.102,45.687,57.883z"/>
</svg>
