<?xml version="1.0" encoding="utf-8"?>
<!-- Generator: Adobe Illustrator 15.1.0, SVG Export Plug-In . SVG Version: 6.00 Build 0)  -->
<!DOCTYPE svg PUBLIC "-//W3C//DTD SVG 1.1//EN" "http://www.w3.org/Graphics/SVG/1.1/DTD/svg11.dtd">
<svg version="1.1" id="Layer_1" xmlns="http://www.w3.org/2000/svg" xmlns:xlink="http://www.w3.org/1999/xlink" x="0px" y="0px"
	 width="100px" height="100px" viewBox="0 0 100 100" enable-background="new 0 0 100 100" xml:space="preserve">
<path fill-rule="evenodd" clip-rule="evenodd" d="M69.818,46.758L69.818,46.758c1.369,1.949,2.18,4.32,2.18,6.882
	c0,5.223-3.343,9.652-8,11.301v-4.381c2.389-1.383,4-3.961,4-6.92c0-4.417-3.581-7.999-7.999-7.999c-1.601,0-3.083,0.48-4.333,1.291
	c-1.232-5.317-5.974-9.29-11.665-9.29c-6.626,0-11.998,5.372-11.998,11.998c0,3.55,1.55,6.728,3.999,8.925v4.916
	c-4.777-2.768-7.999-7.922-7.999-13.841c0-8.835,7.163-15.997,15.998-15.997c2.002,0,3.914,0.375,5.68,1.047l0,0
	c1.635-4.682,6.078-8.047,11.318-8.047c0.755,0,1.491,0.078,2.208,0.212c-0.132,0.575-0.208,1.173-0.208,1.788
	c0,4.418,3.581,7.999,7.999,7.999c0.615,0,1.212-0.076,1.788-0.208c0.133,0.717,0.211,1.453,0.211,2.207
	C72.997,41.777,71.786,44.621,69.818,46.758z M59.211,30.851c-2.9,0.664-5.174,2.91-5.924,5.775l0,0
	c1.917,1.372,3.521,3.152,4.679,5.221c0.664-0.113,1.337-0.205,2.033-0.205c2.618,0,5.032,0.848,7.005,2.271l0,0
	c0.858-0.98,1.485-2.168,1.786-3.482C63.936,39.527,60.115,35.707,59.211,30.851z M42.001,65.639c-1.104,0-0.999-0.895-0.999-1.998
	v-8c0-1.104-0.105-2,0.999-2s1,0.896,1,2v8C43.001,64.744,43.105,65.639,42.001,65.639z M42.001,69.639c1.104,0,2,0.896,2,2
	c0,1.105-0.896,2-2,2s-1.999-0.895-1.999-2C40.002,70.535,40.896,69.639,42.001,69.639z M50,69.639c-1.104,0-1-0.895-1-2v-7.998
	c0-1.105-0.104-2,1-2s1,0.895,1,2v7.998C51,68.744,51.104,69.639,50,69.639z M50,73.639c1.104,0,2,0.895,2,2c0,1.104-0.896,2-2,2
	s-1.999-0.896-1.999-2C48.001,74.533,48.896,73.639,50,73.639z M57.999,65.639c-1.104,0-1-0.895-1-1.998v-8c0-1.104-0.104-2,1-2
	s1,0.896,1,2v8C58.999,64.744,59.104,65.639,57.999,65.639z M57.999,69.639c1.104,0,2,0.896,2,2c0,1.105-0.896,2-2,2
	S56,72.744,56,71.639C56,70.535,56.895,69.639,57.999,69.639z"/>
</svg>
