<?xml version="1.0" encoding="UTF-8" standalone="no"?>
<!-- Generator: Adobe Illustrator 15.1.0, SVG Export Plug-In . SVG Version: 6.00 Build 0)  -->

<svg
   xmlns:dc="http://purl.org/dc/elements/1.1/"
   xmlns:cc="http://creativecommons.org/ns#"
   xmlns:rdf="http://www.w3.org/1999/02/22-rdf-syntax-ns#"
   xmlns:svg="http://www.w3.org/2000/svg"
   xmlns="http://www.w3.org/2000/svg"
   xmlns:sodipodi="http://sodipodi.sourceforge.net/DTD/sodipodi-0.dtd"
   xmlns:inkscape="http://www.inkscape.org/namespaces/inkscape"
   version="1.1"
   id="Layer_1"
   x="0px"
   y="0px"
   width="100px"
   height="100px"
   viewBox="0 0 100 100"
   enable-background="new 0 0 100 100"
   xml:space="preserve"
   sodipodi:docname="Cloud-Upload-symbolic.svg"
   inkscape:version="0.92.4 5da689c313, 2019-01-14"><metadata
   id="metadata9"><rdf:RDF><cc:Work
       rdf:about=""><dc:format>image/svg+xml</dc:format><dc:type
         rdf:resource="http://purl.org/dc/dcmitype/StillImage" /></cc:Work></rdf:RDF></metadata><defs
   id="defs7" /><sodipodi:namedview
   pagecolor="#ffffff"
   bordercolor="#666666"
   borderopacity="1"
   objecttolerance="10"
   gridtolerance="10"
   guidetolerance="10"
   inkscape:pageopacity="0"
   inkscape:pageshadow="2"
   inkscape:window-width="1078"
   inkscape:window-height="936"
   id="namedview5"
   showgrid="false"
   inkscape:zoom="2.36"
   inkscape:cx="50"
   inkscape:cy="50"
   inkscape:window-x="0"
   inkscape:window-y="0"
   inkscape:window-maximized="0"
   inkscape:current-layer="Layer_1"
   showguides="true"
   inkscape:guide-bbox="true"><sodipodi:guide
     position="14.830508,35.59322"
     orientation="1,0"
     id="guide7"
     inkscape:locked="false" /><sodipodi:guide
     position="133.47458,50"
     orientation="0,1"
     id="guide9"
     inkscape:locked="false" /></sodipodi:namedview>
<path
   d="m 64.829486,74.648113 c -1.2896,0 -3.6022,0 -6.32555,0 0.0372,-0.33945 0.10075,-0.6696 0.10075,-1.0168 v -5.1832 c 2.60555,0 4.84685,0 6.2248,0 6.8479,0 12.39845,-5.5521 12.39845,-12.3969 0,-6.8479 -5.55055,-12.4 -12.39845,-12.4 -1.9065,0 -3.70295,0.44795 -5.3134,1.2214 l -2.5079,-2.5079 c -2.8768,-6.53635 -9.3744,-11.11195 -16.9756,-11.11195 -10.27185,0 -18.5969,8.32505 -18.5969,18.5969 0,10.2641 8.31265,18.58295 18.5721,18.59845 v 5.1832 c 0,0.34875 0.0651,0.6789 0.1023,1.0168 -0.0248,0 -0.05425,0 -0.07905,0 -13.6958,0 -24.7969,-11.1011 -24.7969,-24.79845 0,-13.69425 11.1011,-24.7969 24.7969,-24.7969 9.3062,0 17.40495,5.1336 21.64575,12.7162 1.0292,-0.1767 2.07235,-0.31775 3.15115,-0.31775 10.27185,0 18.5969,8.3266 18.5969,18.6 0.0015,10.26875 -8.3235,18.5969 -18.59535,18.5969 z m -26.4802,-15.87665 c -1.21055,-1.20745 -1.21055,-3.17285 0,-4.3803 l 8.7668,-8.76835 c 1.209,-1.21055 3.17285,-1.21055 4.3834,0 l 8.76525,8.76835 c 1.21055,1.20745 1.21055,3.17285 0,4.3803 -1.209,1.21055 -3.17285,1.21055 -4.38185,0 l -3.47665,-3.4751 v 18.3334 c 0,1.7112 -1.3888,3.1 -3.09845,3.1 -1.71275,0 -3.1,-1.3888 -3.1,-3.1 v -18.3334 l -3.4751,3.4751 c -1.21055,1.2121 -3.17285,1.2121 -4.3834,0 z"
   id="path2"
   inkscape:connector-curvature="0"
   style="clip-rule:evenodd;fill:#231f20;fill-rule:evenodd;stroke-width:1.54999995" />
</svg>