<?xml version="1.0" encoding="UTF-8" standalone="no"?>
<!-- Generator: Adobe Illustrator 15.1.0, SVG Export Plug-In . SVG Version: 6.00 Build 0)  -->

<svg
   xmlns:dc="http://purl.org/dc/elements/1.1/"
   xmlns:cc="http://creativecommons.org/ns#"
   xmlns:rdf="http://www.w3.org/1999/02/22-rdf-syntax-ns#"
   xmlns:svg="http://www.w3.org/2000/svg"
   xmlns="http://www.w3.org/2000/svg"
   xmlns:sodipodi="http://sodipodi.sourceforge.net/DTD/sodipodi-0.dtd"
   xmlns:inkscape="http://www.inkscape.org/namespaces/inkscape"
   version="1.1"
   id="Layer_1"
   x="0px"
   y="0px"
   width="100px"
   height="100px"
   viewBox="0 0 100 100"
   enable-background="new 0 0 100 100"
   xml:space="preserve"
   sodipodi:docname="Cloud-Sun-symbolic.svg"
   inkscape:version="0.92.4 5da689c313, 2019-01-14"><metadata
   id="metadata9"><rdf:RDF><cc:Work
       rdf:about=""><dc:format>image/svg+xml</dc:format><dc:type
         rdf:resource="http://purl.org/dc/dcmitype/StillImage" /></cc:Work></rdf:RDF></metadata><defs
   id="defs7" /><sodipodi:namedview
   pagecolor="#ffffff"
   bordercolor="#666666"
   borderopacity="1"
   objecttolerance="10"
   gridtolerance="10"
   guidetolerance="10"
   inkscape:pageopacity="0"
   inkscape:pageshadow="2"
   inkscape:window-width="1078"
   inkscape:window-height="936"
   id="namedview5"
   showgrid="false"
   inkscape:zoom="2.36"
   inkscape:cx="50"
   inkscape:cy="50"
   inkscape:window-x="0"
   inkscape:window-y="0"
   inkscape:window-maximized="0"
   inkscape:current-layer="Layer_1"
   showguides="true"
   inkscape:guide-bbox="true"><sodipodi:guide
     position="14.830508,-38.983051"
     orientation="1,0"
     id="guide7"
     inkscape:locked="false" /><sodipodi:guide
     position="152.54237,50"
     orientation="0,1"
     id="guide9"
     inkscape:locked="false" /></sodipodi:namedview>
<path
   d="m 95.825285,40.864134 h -6.2 c -1.7112,0 -3.1,-1.38725 -3.1,-3.1 0,-1.7112 1.3888,-3.0969 3.1,-3.0969 h 6.2 c 1.7112,0 3.1,1.38725 3.1,3.0969 0,1.71275 -1.3888,3.1 -3.1,3.1 z m -12.17835,-20.6336 c -1.21055,1.21055 -3.17285,1.21055 -4.3834,0 -1.21055,-1.209 -1.21055,-3.17285 0,-4.38185 l 4.3834,-4.3834 c 1.21055,-1.21055 3.17285,-1.21055 4.3834,0 1.21055,1.209 1.21055,3.17285 0,4.3834 z m -4.56785,24.19085 v 0 c 2.71095,3.2333 4.3493,7.3935 4.3493,11.94275 0,10.26875 -8.3266,18.5969 -18.59845,18.5969 -4.30125,0 -19.84155,0 -24.7969,0 -13.69425,0 -24.796899,-11.1011 -24.796899,-24.7969 0,-13.6958 11.102649,-24.7969 24.796899,-24.7969 2.4366,0 4.7895,0.3596 7.01065,1.0137 3.40225,-4.38185 8.7079,-7.2137 14.68625,-7.2137 10.27185,0 18.59845,8.32815 18.59845,18.5969 -0.0015,2.34825 -0.4557,4.58955 -1.2493,6.65725 z m -57.6445,5.74275 c 0,10.27185 8.32505,18.5969 18.5969,18.5969 5.6048,0 20.11745,0 24.7969,0 6.8479,0 12.39845,-5.5521 12.39845,-12.3969 0,-6.8479 -5.55055,-12.4 -12.39845,-12.4 -2.48,0 -4.77865,0.7471 -6.71615,2.00105 -1.90805,-8.2398 -9.2597,-14.39795 -18.08075,-14.39795 -10.27185,0 -18.5969,8.32505 -18.5969,18.5969 z m 40.2938,-24.7969 c -3.4286,0 -6.53325,1.3919 -8.7761,3.64095 3.627,2.2258 6.64175,5.35215 8.72495,9.0737 1.0292,-0.17515 2.07235,-0.31775 3.15115,-0.31775 3.29375,0 6.38445,0.86645 9.0675,2.36685 v 0 c 0.1488,-0.7657 0.2325,-1.5562 0.2325,-2.36685 0,-6.8448 -5.5521,-12.3969 -12.4,-12.3969 z m 0,-12.4 c -1.7112,0 -3.09845,-1.38725 -3.09845,-3.0984502 v -6.19845 c 0,-1.71275 1.3888,-3.10000002 3.09845,-3.10000002 1.71275,0 3.1,1.38725002 3.1,3.10000002 v 6.19845 c 0,1.7127502 -1.3857,3.0984502 -3.1,3.0984502 z m -21.917,7.2633 -4.38185,-4.38185 c -1.21055,-1.21055 -1.21055,-3.1744 0,-4.3834 1.209,-1.21055 3.17285,-1.21055 4.38185,0 l 4.3834,4.3834 c 1.21055,1.209 1.21055,3.17285 0,4.38185 -1.209,1.21055 -3.17285,1.21055 -4.3834,0 z"
   id="path2"
   inkscape:connector-curvature="0"
   style="clip-rule:evenodd;fill-rule:evenodd;stroke-width:1.54999995" />
</svg>