<?xml version="1.0" encoding="UTF-8" standalone="no"?>
<!-- Generator: Adobe Illustrator 15.1.0, SVG Export Plug-In . SVG Version: 6.00 Build 0)  -->

<svg
   xmlns:dc="http://purl.org/dc/elements/1.1/"
   xmlns:cc="http://creativecommons.org/ns#"
   xmlns:rdf="http://www.w3.org/1999/02/22-rdf-syntax-ns#"
   xmlns:svg="http://www.w3.org/2000/svg"
   xmlns="http://www.w3.org/2000/svg"
   xmlns:sodipodi="http://sodipodi.sourceforge.net/DTD/sodipodi-0.dtd"
   xmlns:inkscape="http://www.inkscape.org/namespaces/inkscape"
   version="1.1"
   id="Layer_1"
   x="0px"
   y="0px"
   width="100px"
   height="100px"
   viewBox="0 0 100 100"
   enable-background="new 0 0 100 100"
   xml:space="preserve"
   sodipodi:docname="Cloud-Download-symbolic.svg"
   inkscape:version="0.92.4 5da689c313, 2019-01-14"><metadata
   id="metadata9"><rdf:RDF><cc:Work
       rdf:about=""><dc:format>image/svg+xml</dc:format><dc:type
         rdf:resource="http://purl.org/dc/dcmitype/StillImage" /></cc:Work></rdf:RDF></metadata><defs
   id="defs7" /><sodipodi:namedview
   pagecolor="#ffffff"
   bordercolor="#666666"
   borderopacity="1"
   objecttolerance="10"
   gridtolerance="10"
   guidetolerance="10"
   inkscape:pageopacity="0"
   inkscape:pageshadow="2"
   inkscape:window-width="1069"
   inkscape:window-height="651"
   id="namedview5"
   showgrid="false"
   inkscape:zoom="2.36"
   inkscape:cx="50"
   inkscape:cy="50"
   inkscape:window-x="0"
   inkscape:window-y="0"
   inkscape:window-maximized="0"
   inkscape:current-layer="Layer_1"
   showguides="true"
   inkscape:guide-bbox="true"><sodipodi:guide
     position="-103.38983,50"
     orientation="0,1"
     id="guide7"
     inkscape:locked="false" /><sodipodi:guide
     position="14.830508,86.016949"
     orientation="1,0"
     id="guide8"
     inkscape:locked="false" /></sodipodi:namedview>
<path
   d="m 64.828936,74.241572 c -0.8029,0 -1.99485,0 -3.43635,0 l 3.25655,-3.2581 c 0.91295,-0.9145 1.59495,-1.97005 2.0491,-3.0969 5.9582,-0.9052 10.52915,-6.03415 10.52915,-12.2419 0,-6.8479 -5.55055,-12.4 -12.39845,-12.4 -2.40095,0 -4.6221,0.7099 -6.52085,1.89255 -0.21545,-0.86645 -0.5549,-1.674 -0.99355,-2.4242 -2.6939,-6.93625 -9.39455,-11.86525 -17.2825,-11.86525 -10.27185,0 -18.5969,8.32505 -18.5969,18.5969 0,7.1486 4.0362,13.3455 9.9479,16.4579 0.30225,1.86155 1.147,3.6487 2.5823,5.08245 l 3.05505,3.05505 c -12.27135,-1.48645 -21.78525,-11.92105 -21.78525,-24.5954 0,-13.69425 11.1011,-24.7969 24.7969,-24.7969 9.3062,0 17.40495,5.1336 21.64575,12.7162 1.0292,-0.1767 2.0708,-0.31775 3.15115,-0.31775 10.27185,0 18.5969,8.3266 18.5969,18.6 0,10.267199 -8.32505,18.59535 -18.5969,18.59535 z m -22.0968,-12.0249 3.47665,3.475099 v -18.33185 c 0,-1.7112 1.38725,-3.09845 3.09845,-3.09845 1.7112,0 3.1,1.38725 3.1,3.09845 v 18.33185 l 3.4751,-3.475099 c 1.209,-1.21055 3.1744,-1.21055 4.3834,0 1.209,1.210549 1.209,3.172849 0,4.383399 l -8.7668,8.7668 c -1.209,1.210551 -3.17285,1.210551 -4.3834,0 l -8.76525,-8.7668 c -1.21055,-1.21055 -1.21055,-3.172849 0,-4.383399 1.209,-1.210551 3.1713,-1.210551 4.38185,0 z"
   id="path2"
   inkscape:connector-curvature="0"
   style="clip-rule:evenodd;fill:#231f20;fill-rule:evenodd;stroke-width:1.54999995" />
</svg>