<?xml version="1.0" encoding="UTF-8" standalone="no"?>
<!-- Generator: Adobe Illustrator 15.1.0, SVG Export Plug-In . SVG Version: 6.00 Build 0)  -->

<svg
   xmlns:dc="http://purl.org/dc/elements/1.1/"
   xmlns:cc="http://creativecommons.org/ns#"
   xmlns:rdf="http://www.w3.org/1999/02/22-rdf-syntax-ns#"
   xmlns:svg="http://www.w3.org/2000/svg"
   xmlns="http://www.w3.org/2000/svg"
   xmlns:sodipodi="http://sodipodi.sourceforge.net/DTD/sodipodi-0.dtd"
   xmlns:inkscape="http://www.inkscape.org/namespaces/inkscape"
   version="1.1"
   id="Layer_1"
   x="0px"
   y="0px"
   width="100px"
   height="100px"
   viewBox="0 0 100 100"
   enable-background="new 0 0 100 100"
   xml:space="preserve"
   sodipodi:docname="Cloud-Hail-Sun-Alt-symbolic.svg"
   inkscape:version="0.92.4 5da689c313, 2019-01-14"><metadata
   id="metadata9"><rdf:RDF><cc:Work
       rdf:about=""><dc:format>image/svg+xml</dc:format><dc:type
         rdf:resource="http://purl.org/dc/dcmitype/StillImage" /></cc:Work></rdf:RDF></metadata><defs
   id="defs7" /><sodipodi:namedview
   pagecolor="#ffffff"
   bordercolor="#666666"
   borderopacity="1"
   objecttolerance="10"
   gridtolerance="10"
   guidetolerance="10"
   inkscape:pageopacity="0"
   inkscape:pageshadow="2"
   inkscape:window-width="1078"
   inkscape:window-height="936"
   id="namedview5"
   showgrid="false"
   inkscape:zoom="2.36"
   inkscape:cx="50"
   inkscape:cy="50"
   inkscape:window-x="0"
   inkscape:window-y="0"
   inkscape:window-maximized="0"
   inkscape:current-layer="Layer_1"
   showguides="true"
   inkscape:guide-bbox="true"><sodipodi:guide
     position="14.830508,-60.59322"
     orientation="1,0"
     id="guide7"
     inkscape:locked="false" /><sodipodi:guide
     position="-83.898305,49.576271"
     orientation="0,1"
     id="guide9"
     inkscape:locked="false" /></sodipodi:namedview>
<path
   d="m 95.458107,41.641811 h -6.2 c -1.7112,0 -3.09845,-1.38725 -3.09845,-3.1 0,-1.7112 1.3888,-3.1 3.09845,-3.1 h 6.2 c 1.7112,0 3.1,1.3888 3.1,3.1 0,1.71275 -1.38725,3.1 -3.1,3.1 z m -12.17835,-20.6336 c -1.209,1.21055 -3.17285,1.21055 -4.3834,0 -1.209,-1.21055 -1.209,-3.17285 0,-4.3834 l 4.3834,-4.3834 c 1.21055,-1.21055 3.1744,-1.21055 4.3834,0 1.21055,1.21055 1.21055,3.17285 0,4.3834 z m -4.5694,24.19085 v 0 c 2.7125,3.2302 4.3493,7.3935 4.3493,11.93965 0,8.09565 -5.1801,14.9606 -12.39845,17.51965 v -6.79055 c 3.70295,-2.14675 6.2,-6.14265 6.2,-10.7291 0,-6.8448 -5.5521,-12.3969 -12.4,-12.3969 -2.48,0 -4.7771,0.744 -6.71615,2.00105 -1.90805,-8.2398 -9.2597,-14.40105 -18.08075,-14.40105 -10.2703,0 -18.5969,8.32815 -18.5969,18.6 0,2.1762 0.3906,4.2594 1.08035,6.1969 v 0 c 1.054,2.9605 2.8241,5.58 5.11965,7.6353 v 7.6198 c -5.673,-3.28755 -9.90915,-8.7544 -11.58935,-15.2551 -0.5146,-1.98245 -0.81065,-4.05325 -0.81065,-6.1969 0,-13.69425 11.10265,-24.79845 24.7969,-24.79845 2.43815,0 4.7895,0.3596 7.0122,1.01525 3.40225,-4.3834 8.7079,-7.2137 14.68625,-7.2137 10.2703,0 18.59845,8.32505 18.59845,18.5969 0,2.34825 -0.45415,4.58645 -1.25085,6.65725 z m -17.3476,-19.0557 c -3.4286,0 -6.53325,1.3919 -8.77765,3.64405 3.62855,2.22425 6.6433,5.3506 8.72495,9.07215 1.0292,-0.17515 2.0739,-0.31775 3.15115,-0.31775 3.2953,0 6.38445,0.86645 9.0675,2.36685 v 0 c 0.15035,-0.7657 0.2325,-1.5562 0.2325,-2.36685 0,-6.8479 -5.5521,-12.39845 -12.39845,-12.39845 z m 0,-12.39845 c -1.7112,0 -3.1,-1.38725 -3.1,-3.1 V 4.4464602 c 0,-1.7112 1.3888,-3.1 3.1,-3.1 1.7112,0 3.09845,1.3888 3.09845,3.1 v 6.1984508 c 0,1.71275 -1.38725,3.1 -3.09845,3.1 z m -21.91855,7.2633 -4.3834,-4.3834 c -1.209,-1.21055 -1.209,-3.17285 0,-4.3834 1.21055,-1.21055 3.1744,-1.21055 4.3834,0 l 4.3834,4.3834 c 1.21055,1.21055 1.21055,3.17285 0,4.3834 -1.209,1.21055 -3.1713,1.21055 -4.3834,0 z m -19.9268,65.5774 c 1.71275,0 3.1,1.3888 3.1,3.1 0,1.71275 -1.38725,3.1 -3.1,3.1 -1.7112,0 -3.1,-1.38725 -3.1,-3.1 0,-1.7112 1.3888,-3.1 3.1,-3.1 z m 15.49845,-26.3469 c 0,-1.7112 -0.1612,-3.1 1.55,-3.1 v 0 c 1.7112,0 1.55,1.3888 1.55,3.1 v 37.1969 h -3.1 v 0 0 c 0,-3.42395 -2.7745,-6.2 -6.19845,-6.2 v -3.1 c 2.39165,0 4.5508,0.93 6.19845,2.41335 z m 13.94845,21.6969 c -1.7112,0 -1.55,-1.38725 -1.55,-3.0969 v -12.4 c 0,-1.7112 -0.1612,-3.1 1.55,-3.1 1.7112,0 1.55,1.3888 1.55,3.1 v 12.4 c 0,1.70965 0.1612,3.0969 -1.55,3.0969 z m 0,6.2 c 1.7112,0 3.1,1.3888 3.1,3.1 0,1.7112 -1.3888,3.1 -3.1,3.1 -1.7112,0 -3.1,-1.3888 -3.1,-3.1 0,-1.7112 1.38725,-3.1 3.1,-3.1 z m 12.39845,-30.9969 v 0 c 1.7112,0 1.55,1.3888 1.55,3.1 v 27.9248 c 2.82565,-3.7727 7.32065,-6.2279 12.39845,-6.2279 v 3.1 c -6.8479,0 -12.39845,5.5521 -12.39845,12.4 h -3.1 c 0,-0.42315 0.031,-0.83545 0.062,-1.25085 -0.08215,-0.5177 -0.062,-1.1532 -0.062,-1.84915 v -34.0969 c 0,-1.7112 -0.1612,-3.1 1.55,-3.1 z m 23.2469,21.7 c 1.7112,0 3.09845,1.38725 3.09845,3.0969 0,1.71275 -1.38725,3.1 -3.09845,3.1 -1.7112,0 -3.1,-1.38725 -3.1,-3.1 0,-1.7112 1.3888,-3.0969 3.1,-3.0969 z"
   id="path2"
   inkscape:connector-curvature="0"
   style="clip-rule:evenodd;fill-rule:evenodd;stroke-width:1.54999995" />
</svg>