<?xml version="1.0" encoding="UTF-8" standalone="no"?>
<!-- Generator: Adobe Illustrator 15.1.0, SVG Export Plug-In . SVG Version: 6.00 Build 0)  -->

<svg
   xmlns:dc="http://purl.org/dc/elements/1.1/"
   xmlns:cc="http://creativecommons.org/ns#"
   xmlns:rdf="http://www.w3.org/1999/02/22-rdf-syntax-ns#"
   xmlns:svg="http://www.w3.org/2000/svg"
   xmlns="http://www.w3.org/2000/svg"
   xmlns:sodipodi="http://sodipodi.sourceforge.net/DTD/sodipodi-0.dtd"
   xmlns:inkscape="http://www.inkscape.org/namespaces/inkscape"
   version="1.1"
   id="Layer_1"
   x="0px"
   y="0px"
   width="100px"
   height="100px"
   viewBox="0 0 100 100"
   enable-background="new 0 0 100 100"
   xml:space="preserve"
   sodipodi:docname="Cloud-Wind-symbolic.svg"
   inkscape:version="0.92.4 5da689c313, 2019-01-14"><metadata
   id="metadata9"><rdf:RDF><cc:Work
       rdf:about=""><dc:format>image/svg+xml</dc:format><dc:type
         rdf:resource="http://purl.org/dc/dcmitype/StillImage" /></cc:Work></rdf:RDF></metadata><defs
   id="defs7" /><sodipodi:namedview
   pagecolor="#ffffff"
   bordercolor="#666666"
   borderopacity="1"
   objecttolerance="10"
   gridtolerance="10"
   guidetolerance="10"
   inkscape:pageopacity="0"
   inkscape:pageshadow="2"
   inkscape:window-width="1078"
   inkscape:window-height="936"
   id="namedview5"
   showgrid="false"
   inkscape:zoom="2.36"
   inkscape:cx="50"
   inkscape:cy="50"
   inkscape:window-x="0"
   inkscape:window-y="0"
   inkscape:window-maximized="0"
   inkscape:current-layer="Layer_1"
   showguides="true"
   inkscape:guide-bbox="true"><sodipodi:guide
     position="14.830508,20.762712"
     orientation="1,0"
     id="guide7"
     inkscape:locked="false" /><sodipodi:guide
     position="144.91525,50"
     orientation="0,1"
     id="guide9"
     inkscape:locked="false" /></sodipodi:namedview>
<path
   d="m 90.842786,80.8419 v 0.07905 h -1.16095 -4.65 c -1.7112,0 -3.1,-1.38725 -3.1,-3.1 0,-1.7112 1.3888,-3.09845 3.1,-3.09845 h 4.65 c 1.7112,0 3.09845,-1.3888 3.09845,-3.1 0,-1.7112 -1.38725,-3.09845 -3.09845,-3.09845 -1.7112,0 -3.1,-1.3888 -3.1,-3.1 0,-1.71275 1.3888,-3.1 3.1,-3.1 0.2139,0 0.4216,0.0217 0.6231,0.06355 4.8391,0.32705 8.67535,4.31365 8.67535,9.2349 0,4.7399 -3.55105,8.64435 -8.1375,9.2194 z m -16.6594,-18.51785 c -1.7112,0 -3.1,-1.3888 -3.1,-3.1 0,-1.7112 1.3888,-3.1 3.1,-3.1 0.2139,0 0.4216,0.0217 0.62465,0.06355 4.83755,0.32705 8.6738,4.31365 8.6738,9.23645 0,4.74145 -3.55105,8.64435 -8.13595,9.21785 v 0.0806 h -1.1625 -12.37675 c -6.2186,0 -17.6049,0 -21.7186,0 -1.7112,0 -3.1,1.3888 -3.1,3.09845 0,1.71275 1.3888,3.1 3.1,3.1 h 34.09535 1.1625 v 0.08215 c 4.5849,0.57195 8.13595,4.47795 8.13595,9.21785 0,4.92125 -3.83625,8.90785 -8.6738,9.2349 -0.20305,0.0403 -0.4123,0.06355 -0.62465,0.06355 -1.7112,0 -3.1,-1.3888 -3.1,-3.1 0,-1.7112 1.3888,-3.09845 3.1,-3.09845 1.7112,0 3.1,-1.3888 3.1,-3.1 0,-1.71275 -1.3888,-3.1 -3.1,-3.1 h -34.09535 -1.1625 v -0.0806 c -4.58645,-0.5735 -8.1375,-4.4795 -8.1375,-9.2194 0,-1.63525 0.4557,-3.1496 1.19815,-4.4795 -9.71075,-3.3604 -16.69505,-12.5612 -16.69505,-23.41585 0,-13.69425 11.1011,-24.7969 24.7969,-24.7969 9.3062,0 17.40495,5.1336 21.64575,12.7162 1.0292,-0.1767 2.0708,-0.31775 3.15115,-0.31775 9.1388,0 16.7214,6.5968 18.2869,15.2861 -2.16225,-1.54225 -4.7275,-2.5513 -7.51595,-2.81325 -2.13435,-3.7448 -6.15505,-6.27285 -10.77095,-6.27285 -2.48155,0 -4.7802,0.744 -6.7177,1.9995 -1.90805,-8.2398 -9.25815,-14.3995 -18.0792,-14.3995 -10.27185,0 -18.59845,8.3266 -18.59845,18.59845 0,10.2703 8.3266,18.59845 18.59845,18.59845 4.0269,0 12.6356,0 18.90845,0 h 15.1869 c 1.7112,0 3.1,-1.3888 3.1,-3.1 0,-1.7143 -1.38725,-3.1 -3.1,-3.1 z"
   id="path2"
   inkscape:connector-curvature="0"
   style="clip-rule:evenodd;fill-rule:evenodd;stroke-width:1.54999995" />
</svg>