<?xml version="1.0" encoding="UTF-8" standalone="no"?>
<!-- Generator: Adobe Illustrator 15.1.0, SVG Export Plug-In . SVG Version: 6.00 Build 0)  -->

<svg
   xmlns:dc="http://purl.org/dc/elements/1.1/"
   xmlns:cc="http://creativecommons.org/ns#"
   xmlns:rdf="http://www.w3.org/1999/02/22-rdf-syntax-ns#"
   xmlns:svg="http://www.w3.org/2000/svg"
   xmlns="http://www.w3.org/2000/svg"
   xmlns:sodipodi="http://sodipodi.sourceforge.net/DTD/sodipodi-0.dtd"
   xmlns:inkscape="http://www.inkscape.org/namespaces/inkscape"
   version="1.1"
   id="Layer_1"
   x="0px"
   y="0px"
   width="100px"
   height="100px"
   viewBox="0 0 100 100"
   enable-background="new 0 0 100 100"
   xml:space="preserve"
   sodipodi:docname="Cloud-Rain-Moon-symbolic.svg"
   inkscape:version="0.92.4 5da689c313, 2019-01-14"><metadata
   id="metadata13"><rdf:RDF><cc:Work
       rdf:about=""><dc:format>image/svg+xml</dc:format><dc:type
         rdf:resource="http://purl.org/dc/dcmitype/StillImage" /></cc:Work></rdf:RDF></metadata><defs
   id="defs11" /><sodipodi:namedview
   pagecolor="#ffffff"
   bordercolor="#666666"
   borderopacity="1"
   objecttolerance="10"
   gridtolerance="10"
   guidetolerance="10"
   inkscape:pageopacity="0"
   inkscape:pageshadow="2"
   inkscape:window-width="1078"
   inkscape:window-height="936"
   id="namedview9"
   showgrid="false"
   inkscape:zoom="2.36"
   inkscape:cx="50"
   inkscape:cy="50"
   inkscape:window-x="0"
   inkscape:window-y="0"
   inkscape:window-maximized="0"
   inkscape:current-layer="Layer_1"
   showguides="true"
   inkscape:guide-bbox="true"><sodipodi:guide
     position="14.830508,23.728814"
     orientation="1,0"
     id="guide9"
     inkscape:locked="false" /><sodipodi:guide
     position="97.881356,50"
     orientation="0,1"
     id="guide11"
     inkscape:locked="false" /></sodipodi:namedview>
<g
   id="g6"
   transform="matrix(1.55,0,0,1.55,-28.113514,-26.176027)">
	<g
   id="g4">
		<path
   d="m 50.001,57.641 c -1.105,0 -2,0.895 -2,2 v 15.998 c 0,1.104 0.895,2 2,2 1.104,0 2,-0.896 2,-2 V 59.641 c 0,-1.106 -0.897,-2 -2,-2 z m 7.998,-4 c -1.104,0 -1.999,0.896 -1.999,2 v 15.998 c 0,1.105 0.896,2 1.999,2 1.105,0 2,-0.895 2,-2 V 55.641 c 0,-1.104 -0.895,-2 -2,-2 z m -15.998,0 c -1.104,0 -1.999,0.896 -1.999,2 v 15.998 c 0,1.105 0.896,2 1.999,2 1.105,0 2,-0.895 2,-2 V 55.641 c 0,-1.104 -0.895,-2 -2,-2 z M 72.997,38.642 c 0,-0.754 -0.078,-1.49 -0.211,-2.207 -0.576,0.132 -1.173,0.208 -1.788,0.208 -4.418,0 -7.999,-3.581 -7.999,-7.999 0,-0.615 0.076,-1.213 0.207,-1.788 -0.716,-0.134 -1.451,-0.212 -2.207,-0.212 -5.24,0 -9.684,3.365 -11.318,8.047 -1.766,-0.672 -3.678,-1.047 -5.68,-1.047 -8.835,0 -15.998,7.162 -15.998,15.997 0,5.919 3.223,11.074 8,13.841 v -4.916 c -2.45,-2.197 -4,-5.375 -4,-8.925 0,-6.626 5.371,-11.998 11.998,-11.998 5.691,0 10.434,3.973 11.665,9.29 1.25,-0.811 2.733,-1.291 4.333,-1.291 4.418,0 7.999,3.581 7.999,7.999 0,2.959 -1.61,5.537 -3.999,6.92 v 4.381 c 4.656,-1.648 7.999,-6.078 7.999,-11.301 0,-2.562 -0.811,-4.933 -2.18,-6.882 1.968,-2.138 3.179,-4.982 3.179,-8.117 z m -5.992,5.272 c -1.973,-1.424 -4.388,-2.271 -7.006,-2.271 -0.696,0 -1.369,0.092 -2.033,0.205 -1.156,-2.068 -2.762,-3.849 -4.679,-5.221 0.75,-2.865 3.024,-5.111 5.924,-5.775 0.904,4.855 4.726,8.676 9.579,9.58 -0.301,1.314 -0.928,2.501 -1.785,3.482 z"
   id="path2"
   inkscape:connector-curvature="0"
   style="clip-rule:evenodd;fill-rule:evenodd" />
	</g>
</g>
</svg>