<?xml version="1.0" encoding="UTF-8" standalone="no"?>
<!-- Generator: Adobe Illustrator 15.1.0, SVG Export Plug-In . SVG Version: 6.00 Build 0)  -->

<svg
   xmlns:dc="http://purl.org/dc/elements/1.1/"
   xmlns:cc="http://creativecommons.org/ns#"
   xmlns:rdf="http://www.w3.org/1999/02/22-rdf-syntax-ns#"
   xmlns:svg="http://www.w3.org/2000/svg"
   xmlns="http://www.w3.org/2000/svg"
   xmlns:sodipodi="http://sodipodi.sourceforge.net/DTD/sodipodi-0.dtd"
   xmlns:inkscape="http://www.inkscape.org/namespaces/inkscape"
   version="1.1"
   id="Layer_1"
   x="0px"
   y="0px"
   width="100px"
   height="100px"
   viewBox="0 0 100 100"
   enable-background="new 0 0 100 100"
   xml:space="preserve"
   sodipodi:docname="Cloud-Drizzle-Sun-Alt.svg"
   inkscape:version="0.92.4 5da689c313, 2019-01-14"><metadata
   id="metadata9"><rdf:RDF><cc:Work
       rdf:about=""><dc:format>image/svg+xml</dc:format><dc:type
         rdf:resource="http://purl.org/dc/dcmitype/StillImage" /></cc:Work></rdf:RDF></metadata><defs
   id="defs7" /><sodipodi:namedview
   pagecolor="#ffffff"
   bordercolor="#666666"
   borderopacity="1"
   objecttolerance="10"
   gridtolerance="10"
   guidetolerance="10"
   inkscape:pageopacity="0"
   inkscape:pageshadow="2"
   inkscape:window-width="1920"
   inkscape:window-height="1056"
   id="namedview5"
   showgrid="false"
   inkscape:zoom="2.36"
   inkscape:cx="50"
   inkscape:cy="50"
   inkscape:window-x="0"
   inkscape:window-y="0"
   inkscape:window-maximized="1"
   inkscape:current-layer="Layer_1" />
<path
   d="m 93.623944,44.972943 h -6.813017 c -1.880393,0 -3.406508,-1.524412 -3.406508,-3.406508 0,-1.880393 1.526115,-3.403102 3.406508,-3.403102 h 6.813017 c 1.880393,0 3.404806,1.524412 3.404806,3.403102 0,1.883799 -1.52271,3.406508 -3.404806,3.406508 z M 80.241475,22.299222 c -1.330241,1.330242 -3.486561,1.330242 -4.816803,0 -1.330241,-1.328538 -1.330241,-3.486561 0,-4.8151 l 4.816803,-4.816803 c 1.330242,-1.330241 3.486562,-1.330241 4.816803,0 1.330242,1.328539 1.330242,3.486562 0,4.816803 z m -5.01949,26.58269 v 0 c 2.978992,3.552988 4.779331,8.124523 4.779331,13.125278 v 0 c 0,8.90291 -5.704198,16.453436 -13.649879,19.255289 -0.04599,-2.275547 -0.739213,-4.530656 -2.081377,-6.484289 5.201738,-1.919567 8.916536,-6.906696 8.916536,-12.771 0,-7.524978 -6.099354,-13.626035 -13.624331,-13.626035 -2.72691,0 -5.251133,0.820969 -7.380201,2.198901 -2.098409,-9.054499 -10.175241,-15.823232 -19.868461,-15.823232 -11.285763,0 -20.435645,9.149882 -20.435645,20.437348 0,2.391369 0.432627,4.677137 1.187168,6.813018 h 0.02555 c 1.660673,4.666916 4.930921,8.569072 9.189057,10.977473 l -0.09879,0.09709 C 20.511753,74.750942 19.462548,76.80166 18.99245,78.949464 12.603544,75.360703 7.8344322,69.264756 5.9591493,62.00719 v 0 C 5.3970754,59.825321 5.0666441,57.549773 5.0666441,55.194172 c 0,-15.049955 12.2004109,-27.248662 27.2486619,-27.248662 2.677516,0 5.261353,0.395155 7.703819,1.113929 3.738643,-4.8151 9.568883,-7.926946 16.138335,-7.926946 11.287466,0 20.437348,9.149882 20.437348,20.435645 -0.0017,2.58043 -0.500757,5.041633 -1.372823,7.313774 z M 56.155756,27.94551 c -3.767598,0 -7.177513,1.529523 -9.643825,4.002648 3.985615,2.445873 7.300147,5.881337 9.587618,9.969147 1.130961,-0.192468 2.277251,-0.349167 3.462716,-0.349167 3.621119,0 7.014001,0.952119 9.964038,2.600869 v 0 c 0.163512,-0.841407 0.253784,-1.710067 0.253784,-2.600869 0,-7.523274 -6.099353,-13.622628 -13.624331,-13.622628 z m 0,-13.626034 c -1.880392,0 -3.404805,-1.524413 -3.404805,-3.404805 V 4.1033565 c 0,-1.882096 1.524413,-3.40650861 3.404805,-3.40650861 1.880393,0 3.406509,1.52441261 3.406509,3.40650861 v 6.8113145 c 0,1.880392 -1.524413,3.404805 -3.406509,3.404805 z m -24.082312,7.979746 -4.816803,-4.8151 c -1.330242,-1.330241 -1.330242,-3.488264 0,-4.816803 1.328538,-1.330241 3.486561,-1.330241 4.816803,0 l 4.816803,4.816803 c 1.328538,1.328539 1.328538,3.486562 0,4.8151 -1.330242,1.330242 -3.488265,1.330242 -4.816803,0 z m -1.463095,51.986728 3.612602,3.612602 c 1.996214,1.996214 1.996214,5.228991 0,7.225205 -1.994511,1.996214 -5.228991,1.996214 -7.225205,0 -1.994511,-1.996214 -1.994511,-5.228991 0,-7.225205 z m 11.921076,13.622628 3.612603,3.612602 c 1.996214,1.996214 1.996214,5.232397 0,7.225205 -1.994511,1.996205 -5.228991,1.996205 -7.225205,0 -1.994511,-1.992808 -1.994511,-5.228991 0,-7.225205 z m 11.921077,-13.622628 3.612602,3.612602 c 1.996214,1.996214 1.996214,5.228991 0,7.225205 -1.99451,1.996214 -5.22899,1.996214 -7.223501,0 -1.996214,-1.996214 -1.996214,-5.228991 0,-7.225205 z"
   id="path2"
   inkscape:connector-curvature="0"
   style="clip-rule:evenodd;fill-rule:evenodd;stroke-width:1.70325434" />
</svg>