<?xml version="1.0" encoding="UTF-8" standalone="no"?>
<!-- Generator: Adobe Illustrator 15.1.0, SVG Export Plug-In . SVG Version: 6.00 Build 0)  -->

<svg
   xmlns:dc="http://purl.org/dc/elements/1.1/"
   xmlns:cc="http://creativecommons.org/ns#"
   xmlns:rdf="http://www.w3.org/1999/02/22-rdf-syntax-ns#"
   xmlns:svg="http://www.w3.org/2000/svg"
   xmlns="http://www.w3.org/2000/svg"
   xmlns:sodipodi="http://sodipodi.sourceforge.net/DTD/sodipodi-0.dtd"
   xmlns:inkscape="http://www.inkscape.org/namespaces/inkscape"
   version="1.1"
   id="Layer_1"
   x="0px"
   y="0px"
   width="100px"
   height="100px"
   viewBox="0 0 100 100"
   enable-background="new 0 0 100 100"
   xml:space="preserve"
   sodipodi:docname="Cloud-Drizzle.svg"
   inkscape:version="0.92.4 5da689c313, 2019-01-14"><metadata
   id="metadata9"><rdf:RDF><cc:Work
       rdf:about=""><dc:format>image/svg+xml</dc:format><dc:type
         rdf:resource="http://purl.org/dc/dcmitype/StillImage" /></cc:Work></rdf:RDF></metadata><defs
   id="defs7" /><sodipodi:namedview
   pagecolor="#ffffff"
   bordercolor="#666666"
   borderopacity="1"
   objecttolerance="10"
   gridtolerance="10"
   guidetolerance="10"
   inkscape:pageopacity="0"
   inkscape:pageshadow="2"
   inkscape:window-width="640"
   inkscape:window-height="480"
   id="namedview5"
   showgrid="false"
   inkscape:zoom="2.36"
   inkscape:cx="50"
   inkscape:cy="50"
   inkscape:window-x="0"
   inkscape:window-y="0"
   inkscape:window-maximized="0"
   inkscape:current-layer="Layer_1" />
<path
   d="m 82.240495,71.380089 v -9.908506 c 5.398677,-3.132454 9.042275,-8.958593 9.042275,-15.650962 0,-9.992189 -8.096884,-18.093597 -18.089073,-18.093597 -3.623243,0 -6.975082,1.087878 -9.802206,2.919855 C 60.605077,18.623683 49.882359,9.6356895 37.011026,9.6356895 c -14.988283,0 -27.1358717,12.1498505 -27.1358717,27.1381335 0,8.026772 3.5033727,15.218977 9.0422757,20.187931 V 68.075746 C 8.1132903,61.815361 0.82835593,50.158561 0.82835593,36.773823 c 0,-19.984378 16.19829307,-36.18267035 36.18267007,-36.18267035 13.579245,0 25.396625,7.49074915 31.584635,18.55272135 1.501769,-0.255572 3.021631,-0.463648 4.598036,-0.463648 14.988283,0 27.135873,12.152112 27.135873,27.140395 0,11.808334 -7.55634,21.832187 -18.089075,25.559468 z M 32.487627,45.822883 c 2.496916,0 4.523399,2.024221 4.523399,4.523399 v 9.042275 c 0,2.499178 -2.026483,4.5234 -4.523399,4.5234 -2.499178,0 -4.523399,-2.024222 -4.523399,-4.5234 v -9.042275 c 0,-2.50144 2.024221,-4.523399 4.523399,-4.523399 z m 0,27.135872 c 2.496916,0 4.523399,2.024221 4.523399,4.523399 v 9.042275 c 0,2.499178 -2.026483,4.5234 -4.523399,4.5234 -2.499178,0 -4.523399,-2.024222 -4.523399,-4.5234 v -9.042275 c 0,-2.50144 2.024221,-4.523399 4.523399,-4.523399 z M 50.576701,54.865158 c 2.499178,0 4.523399,2.026483 4.523399,4.523399 v 9.046799 c 0,2.496916 -2.024221,4.523399 -4.523399,4.523399 -2.496917,0 -4.518876,-2.026483 -4.518876,-4.523399 v -9.046799 c 0,-2.496916 2.024221,-4.523399 4.518876,-4.523399 z m 0,27.140395 c 2.499178,0 4.523399,2.024222 4.523399,4.518876 v 9.046799 c 0,2.499178 -2.024221,4.523402 -4.523399,4.523402 -2.496917,0 -4.518876,-2.024224 -4.518876,-4.523402 v -9.046799 c 0,-2.496916 2.024221,-4.518876 4.518876,-4.518876 z m 18.093597,-36.18267 c 2.496916,0 4.523399,2.024221 4.523399,4.523399 v 9.042275 c 0,2.499178 -2.026483,4.5234 -4.523399,4.5234 -2.499179,0 -4.5234,-2.024222 -4.5234,-4.5234 v -9.042275 c 0,-2.50144 2.024221,-4.523399 4.5234,-4.523399 z m 0,27.135872 c 2.496916,0 4.523399,2.024221 4.523399,4.523399 v 9.042275 c 0,2.499178 -2.026483,4.5234 -4.523399,4.5234 -2.499179,0 -4.5234,-2.024222 -4.5234,-4.5234 v -9.042275 c 0,-2.50144 2.024221,-4.523399 4.5234,-4.523399 z"
   id="path2"
   inkscape:connector-curvature="0"
   style="clip-rule:evenodd;fill-rule:evenodd;stroke-width:2.26169968" />
</svg>