<?xml version="1.0" encoding="UTF-8" standalone="no"?>
<!-- Generator: Adobe Illustrator 15.1.0, SVG Export Plug-In . SVG Version: 6.00 Build 0)  -->

<svg
   xmlns:dc="http://purl.org/dc/elements/1.1/"
   xmlns:cc="http://creativecommons.org/ns#"
   xmlns:rdf="http://www.w3.org/1999/02/22-rdf-syntax-ns#"
   xmlns:svg="http://www.w3.org/2000/svg"
   xmlns="http://www.w3.org/2000/svg"
   xmlns:sodipodi="http://sodipodi.sourceforge.net/DTD/sodipodi-0.dtd"
   xmlns:inkscape="http://www.inkscape.org/namespaces/inkscape"
   version="1.1"
   id="Layer_1"
   x="0px"
   y="0px"
   width="100px"
   height="100px"
   viewBox="0 0 100 100"
   enable-background="new 0 0 100 100"
   xml:space="preserve"
   sodipodi:docname="Cloud-Fog-symbolic.svg"
   inkscape:version="0.92.4 5da689c313, 2019-01-14"><metadata
   id="metadata9"><rdf:RDF><cc:Work
       rdf:about=""><dc:format>image/svg+xml</dc:format><dc:type
         rdf:resource="http://purl.org/dc/dcmitype/StillImage" /></cc:Work></rdf:RDF></metadata><defs
   id="defs7" /><sodipodi:namedview
   pagecolor="#ffffff"
   bordercolor="#666666"
   borderopacity="1"
   objecttolerance="10"
   gridtolerance="10"
   guidetolerance="10"
   inkscape:pageopacity="0"
   inkscape:pageshadow="2"
   inkscape:window-width="1078"
   inkscape:window-height="936"
   id="namedview5"
   showgrid="false"
   inkscape:zoom="2.36"
   inkscape:cx="50"
   inkscape:cy="50"
   inkscape:window-x="0"
   inkscape:window-y="0"
   inkscape:window-maximized="0"
   inkscape:current-layer="Layer_1"
   showguides="true"
   inkscape:guide-bbox="true"><sodipodi:guide
     position="14.830508,38.135593"
     orientation="1,0"
     id="guide7"
     inkscape:locked="false" /><sodipodi:guide
     position="24.152542,50"
     orientation="0,1"
     id="guide9"
     inkscape:locked="false" /></sodipodi:namedview>
<path
   d="m 79.959657,74.801422 h -61.99225 c -1.7112,0 -3.1,-1.3888 -3.1,-3.1 0,-1.71275 1.3888,-3.1 3.1,-3.1 h 61.99225 c 1.7112,0 3.1,1.38725 3.1,3.1 0,1.70965 -1.38725,3.1 -3.1,3.1 z m 0,-12.4 h -61.99225 c -1.7112,0 -3.1,-1.38725 -3.1,-3.1 0,-1.7112 1.3888,-3.1 3.1,-3.1 h 61.99225 c 1.7112,0 3.1,1.3888 3.1,3.1 0,1.71275 -1.38725,3.1 -3.1,3.1 z m -15.49845,-18.5969 c -2.48155,0 -4.77865,0.744 -6.71615,2.00105 -1.9096,-8.24135 -9.2597,-14.40105 -18.08075,-14.40105 -10.2703,0 -18.5969,8.32815 -18.5969,18.6 h -6.2 c 0,-13.69425 11.10265,-24.79845 24.7969,-24.79845 9.3062,0 17.40495,5.1336 21.64575,12.7162 1.0292,-0.17515 2.07235,-0.31775 3.15115,-0.31775 8.0941,0 14.9606,5.1801 17.51655,12.4 h -6.79055 c -2.1452,-3.7045 -6.13955,-6.2 -10.726,-6.2 z m -46.4938,37.1938 h 61.99225 c 1.7112,0 3.1,1.3888 3.1,3.1 0,1.71275 -1.3888,3.1 -3.1,3.1 h -61.99225 c -1.7112,0 -3.1,-1.38725 -3.1,-3.1 0,-1.7112 1.38725,-3.1 3.1,-3.1 z"
   id="path2"
   inkscape:connector-curvature="0"
   style="clip-rule:evenodd;fill-rule:evenodd;stroke-width:1.54999995" />
</svg>