<?xml version="1.0" encoding="UTF-8" standalone="no"?>
<!-- Generator: Adobe Illustrator 15.1.0, SVG Export Plug-In . SVG Version: 6.00 Build 0)  -->

<svg
   xmlns:dc="http://purl.org/dc/elements/1.1/"
   xmlns:cc="http://creativecommons.org/ns#"
   xmlns:rdf="http://www.w3.org/1999/02/22-rdf-syntax-ns#"
   xmlns:svg="http://www.w3.org/2000/svg"
   xmlns="http://www.w3.org/2000/svg"
   xmlns:sodipodi="http://sodipodi.sourceforge.net/DTD/sodipodi-0.dtd"
   xmlns:inkscape="http://www.inkscape.org/namespaces/inkscape"
   version="1.1"
   id="Layer_1"
   x="0px"
   y="0px"
   width="100px"
   height="100px"
   viewBox="0 0 100 100"
   enable-background="new 0 0 100 100"
   xml:space="preserve"
   sodipodi:docname="Cloud-Fog-Moon-Alt-symbolic.svg"
   inkscape:version="0.92.4 5da689c313, 2019-01-14"><metadata
   id="metadata9"><rdf:RDF><cc:Work
       rdf:about=""><dc:format>image/svg+xml</dc:format><dc:type
         rdf:resource="http://purl.org/dc/dcmitype/StillImage" /></cc:Work></rdf:RDF></metadata><defs
   id="defs7" /><sodipodi:namedview
   pagecolor="#ffffff"
   bordercolor="#666666"
   borderopacity="1"
   objecttolerance="10"
   gridtolerance="10"
   guidetolerance="10"
   inkscape:pageopacity="0"
   inkscape:pageshadow="2"
   inkscape:window-width="1078"
   inkscape:window-height="936"
   id="namedview5"
   showgrid="false"
   inkscape:zoom="2.36"
   inkscape:cx="50"
   inkscape:cy="50"
   inkscape:window-x="0"
   inkscape:window-y="0"
   inkscape:window-maximized="0"
   inkscape:current-layer="Layer_1"
   showguides="true"
   inkscape:guide-bbox="true"><sodipodi:guide
     position="14.830508,104.66102"
     orientation="1,0"
     id="guide7"
     inkscape:locked="false" /><sodipodi:guide
     position="-87.711864,50"
     orientation="0,1"
     id="guide9"
     inkscape:locked="false" /></sodipodi:namedview>
<path
   d="m 76.068186,42.390412 c 1.1563,-1.43685 2.01965,-3.12015 2.4428,-4.97705 -7.5237,-1.4012 -13.4478,-7.3253 -14.84745,-14.849 -3.96645,0.90675 -7.1703,3.7262 -8.6707,7.42605 h -26.8987 c 3.55415,-1.97005 7.6415,-3.09845 11.9939,-3.09845 3.1031,0 6.0667,0.5828 8.804,1.6244 2.53425,-7.25865 9.4209,-12.47285 17.5429,-12.47285 1.17025,0 2.31105,0.1209 3.42085,0.32705 -0.20305,0.8928 -0.32085,1.81815 -0.32085,2.77295 0,6.8479 5.55055,12.3969 12.3969,12.3969 0.9548,0 1.88015,-0.1178 2.77295,-0.32085 0.20615,1.11135 0.32705,2.2506 0.32705,3.42085 0,2.77295 -0.62775,5.3909 -1.71895,7.75 z m 7.41365,15.4969 c 0,1.0602 -0.1085,2.0894 -0.279,3.1 h -66.092 c -0.4061,-1.0013 -0.73315,-2.03825 -1.00595,-3.1 z m -1.08035,6.2 c -0.38285,1.08345 -0.86025,2.11885 -1.426,3.1 h -60.22835 c -0.78275,-0.97495 -1.4818,-2.01345 -2.1111,-3.1 z m -3.68125,6.2 c -1.054,1.1749 -2.24285,2.2227 -3.56345,3.09845 h -47.06265 c -1.5748,-0.8711 -3.03025,-1.92045 -4.3679,-3.09845 z m -63.21365,-15.5 c -0.1271,-1.0168 -0.21545,-2.046 -0.21545,-3.09845 h 67.0902 c 0.35495,1.0013 0.64635,2.0305 0.8277,3.09845 z m 64.5978,-7.56865 c 0.3038,0.43555 0.5487,0.9114 0.81685,1.3702 h -65.41465 c 0.13175,-1.0571 0.3379,-2.08785 0.5983,-3.09845 h 65.3945 c -0.43555,0.5983 -0.8928,1.1842 -1.395,1.72825 z m -4.99255,-4.82825 h -58.001 c 0.43555,-1.07415 0.95015,-2.10645 1.5252,-3.1 h 42.89625 c 0.062,0.1085 0.14105,0.2077 0.2015,0.31775 1.0292,-0.1767 2.07235,-0.31775 3.15115,-0.31775 3.78665,0 7.28965,1.15475 10.2269,3.1 z m -51.38715,-9.3 h 32.72205 c 1.06795,0.94085 2.0367,1.98865 2.93105,3.1 h -38.63065 c 0.90055,-1.12065 1.9003,-2.1514 2.97755,-3.1 z"
   id="path2"
   inkscape:connector-curvature="0"
   style="clip-rule:evenodd;fill-rule:evenodd;stroke-width:1.54999995" />
</svg>