<?xml version="1.0" encoding="UTF-8" standalone="no"?>
<!-- Generator: Adobe Illustrator 15.1.0, SVG Export Plug-In . SVG Version: 6.00 Build 0)  -->

<svg
   xmlns:dc="http://purl.org/dc/elements/1.1/"
   xmlns:cc="http://creativecommons.org/ns#"
   xmlns:rdf="http://www.w3.org/1999/02/22-rdf-syntax-ns#"
   xmlns:svg="http://www.w3.org/2000/svg"
   xmlns="http://www.w3.org/2000/svg"
   xmlns:sodipodi="http://sodipodi.sourceforge.net/DTD/sodipodi-0.dtd"
   xmlns:inkscape="http://www.inkscape.org/namespaces/inkscape"
   version="1.1"
   id="Layer_1"
   x="0px"
   y="0px"
   width="100px"
   height="100px"
   viewBox="0 0 100 100"
   enable-background="new 0 0 100 100"
   xml:space="preserve"
   sodipodi:docname="Cloud-Moon.svg"
   inkscape:version="0.92.4 5da689c313, 2019-01-14"><metadata
   id="metadata9"><rdf:RDF><cc:Work
       rdf:about=""><dc:format>image/svg+xml</dc:format><dc:type
         rdf:resource="http://purl.org/dc/dcmitype/StillImage" /></cc:Work></rdf:RDF></metadata><defs
   id="defs7" /><sodipodi:namedview
   pagecolor="#ffffff"
   bordercolor="#666666"
   borderopacity="1"
   objecttolerance="10"
   gridtolerance="10"
   guidetolerance="10"
   inkscape:pageopacity="0"
   inkscape:pageshadow="2"
   inkscape:window-width="640"
   inkscape:window-height="480"
   id="namedview5"
   showgrid="false"
   inkscape:zoom="2.36"
   inkscape:cx="50"
   inkscape:cy="50"
   inkscape:window-x="0"
   inkscape:window-y="0"
   inkscape:window-maximized="0"
   inkscape:current-layer="Layer_1" />
<path
   d="m 92.62395,51.732761 v 0 c 3.003109,4.278552 4.783461,9.479111 4.783461,15.109941 0,14.543565 -11.790716,26.338671 -26.338671,26.338671 -6.091833,0 -28.101461,0 -35.119692,0 -19.397275,0 -35.11969207,-15.722417 -35.11969207,-35.119692 0,-19.397274 15.72241707,-35.119692 35.11969207,-35.119692 4.394901,0 8.592228,0.823221 12.469049,2.298433 v 0 C 52.007339,14.962237 61.760858,7.5752036 73.263995,7.5752036 c 1.657417,0 3.273125,0.171229 4.844928,0.465394 -0.287579,1.262271 -0.454418,2.5750344 -0.454418,3.9251164 0,9.698637 7.861209,17.559846 17.557651,17.559846 1.352277,0 2.662844,-0.16684 3.927311,-0.456613 0.291969,1.573998 0.463199,3.189705 0.463199,4.847123 -0.0022,6.877734 -2.660649,13.12543 -6.978716,17.816691 z m -83.0157688,6.32892 c 0,14.547956 11.7907158,26.338671 26.3386718,26.338671 7.938042,0 28.492216,0 35.119691,0 9.698638,0 17.559846,-7.863403 17.559846,-17.55765 0,-9.698637 -7.861208,-17.562041 -17.559846,-17.562041 -3.512408,0 -6.767971,1.058113 -9.514235,2.834074 -2.70236,-11.669976 -13.112259,-20.39392 -25.605456,-20.39392 -14.547956,0 -26.3386718,11.79291 -26.3386718,26.340866 z M 52.523224,27.117365 c 0.0022,0 0.0044,0 0.0044,0 0,0 -0.0022,0 -0.0044,0 z M 69.336683,16.810642 c -6.36624,1.457649 -11.360445,6.388192 -13.006886,12.677598 v 0 c 4.210499,3.01189 7.733883,6.919445 10.273794,11.459232 1.457649,-0.248064 2.935056,-0.450027 4.462953,-0.450027 5.747178,0 11.048719,1.865967 15.377763,4.985424 v 0 C 88.327836,43.333715 89.70426,40.723556 90.365032,37.838991 79.711459,35.85448 71.321194,27.470801 69.336683,16.810642 Z"
   id="path2"
   inkscape:connector-curvature="0"
   style="clip-rule:evenodd;fill-rule:evenodd;stroke-width:2.19525504" />
</svg>