<?xml version="1.0" encoding="UTF-8" standalone="no"?>
<!-- Generator: Adobe Illustrator 15.1.0, SVG Export Plug-In . SVG Version: 6.00 Build 0)  -->

<svg
   xmlns:dc="http://purl.org/dc/elements/1.1/"
   xmlns:cc="http://creativecommons.org/ns#"
   xmlns:rdf="http://www.w3.org/1999/02/22-rdf-syntax-ns#"
   xmlns:svg="http://www.w3.org/2000/svg"
   xmlns="http://www.w3.org/2000/svg"
   xmlns:sodipodi="http://sodipodi.sourceforge.net/DTD/sodipodi-0.dtd"
   xmlns:inkscape="http://www.inkscape.org/namespaces/inkscape"
   version="1.1"
   id="Layer_1"
   x="0px"
   y="0px"
   width="100px"
   height="100px"
   viewBox="0 0 100 100"
   enable-background="new 0 0 100 100"
   xml:space="preserve"
   sodipodi:docname="Cloud-Drizzle-Alt-symbolic.svg"
   inkscape:version="0.92.4 5da689c313, 2019-01-14"><metadata
   id="metadata13"><rdf:RDF><cc:Work
       rdf:about=""><dc:format>image/svg+xml</dc:format><dc:type
         rdf:resource="http://purl.org/dc/dcmitype/StillImage" /></cc:Work></rdf:RDF></metadata><defs
   id="defs11" /><sodipodi:namedview
   pagecolor="#ffffff"
   bordercolor="#666666"
   borderopacity="1"
   objecttolerance="10"
   gridtolerance="10"
   guidetolerance="10"
   inkscape:pageopacity="0"
   inkscape:pageshadow="2"
   inkscape:window-width="1070"
   inkscape:window-height="480"
   id="namedview9"
   showgrid="false"
   inkscape:zoom="2.36"
   inkscape:cx="50"
   inkscape:cy="50"
   inkscape:window-x="0"
   inkscape:window-y="0"
   inkscape:window-maximized="0"
   inkscape:current-layer="Layer_1"
   showguides="true"
   inkscape:guide-bbox="true"><sodipodi:guide
     position="-50,50"
     orientation="0,1"
     id="guide9"
     inkscape:locked="false" /><sodipodi:guide
     position="14.830508,61.016949"
     orientation="1,0"
     id="guide10"
     inkscape:locked="false" /></sodipodi:namedview>
<g
   id="g6"
   transform="matrix(1.55,0,0,1.55,-28.506443,-26.171533)">
	<g
   id="g4">
		<path
   d="m 59.943,41.642 c -0.696,0 -1.369,0.092 -2.033,0.205 -2.736,-4.892 -7.961,-8.203 -13.965,-8.203 -8.835,0 -15.998,7.162 -15.998,15.997 0,5.992 3.3,11.207 8.177,13.947 0.276,-1.262 0.892,-2.465 1.873,-3.445 l 0.057,-0.057 c -3.644,-2.061 -6.106,-5.963 -6.106,-10.445 0,-6.626 5.372,-11.998 11.998,-11.998 5.691,0 10.433,3.974 11.665,9.29 1.25,-0.81 2.733,-1.291 4.333,-1.291 4.418,0 7.999,3.581 7.999,7.999 0,3.443 -2.182,6.371 -5.235,7.498 0.788,1.146 1.194,2.471 1.222,3.807 4.665,-1.645 8.014,-6.078 8.014,-11.305 C 71.942,47.014 66.57,41.642 59.943,41.642 Z M 42.945,60.85 40.824,62.971 c -1.171,1.172 -1.171,3.07 0,4.242 1.172,1.172 3.071,1.172 4.242,0 1.172,-1.172 1.172,-3.07 0,-4.242 z m 7,7.998 -2.121,2.121 c -1.172,1.172 -1.172,3.072 0,4.242 1.171,1.172 3.07,1.172 4.241,0 1.172,-1.17 1.172,-3.07 0,-4.242 z m 6.999,-7.998 -2.121,2.121 c -1.172,1.172 -1.172,3.07 0,4.242 1.171,1.172 3.07,1.172 4.242,0 1.171,-1.172 1.171,-3.07 0,-4.242 z"
   id="path2"
   inkscape:connector-curvature="0"
   style="clip-rule:evenodd;fill-rule:evenodd" />
	</g>
</g>
</svg>