<?xml version="1.0" encoding="UTF-8" standalone="no"?>
<!-- Generator: Adobe Illustrator 15.1.0, SVG Export Plug-In . SVG Version: 6.00 Build 0)  -->

<svg
   xmlns:dc="http://purl.org/dc/elements/1.1/"
   xmlns:cc="http://creativecommons.org/ns#"
   xmlns:rdf="http://www.w3.org/1999/02/22-rdf-syntax-ns#"
   xmlns:svg="http://www.w3.org/2000/svg"
   xmlns="http://www.w3.org/2000/svg"
   xmlns:sodipodi="http://sodipodi.sourceforge.net/DTD/sodipodi-0.dtd"
   xmlns:inkscape="http://www.inkscape.org/namespaces/inkscape"
   version="1.1"
   id="Layer_1"
   x="0px"
   y="0px"
   width="100px"
   height="100px"
   viewBox="0 0 100 100"
   enable-background="new 0 0 100 100"
   xml:space="preserve"
   sodipodi:docname="Cloud-Drizzle-Moon-Alt-symbolic.svg"
   inkscape:version="0.92.4 5da689c313, 2019-01-14"><metadata
   id="metadata9"><rdf:RDF><cc:Work
       rdf:about=""><dc:format>image/svg+xml</dc:format><dc:type
         rdf:resource="http://purl.org/dc/dcmitype/StillImage" /></cc:Work></rdf:RDF></metadata><defs
   id="defs7" /><sodipodi:namedview
   pagecolor="#ffffff"
   bordercolor="#666666"
   borderopacity="1"
   objecttolerance="10"
   gridtolerance="10"
   guidetolerance="10"
   inkscape:pageopacity="0"
   inkscape:pageshadow="2"
   inkscape:window-width="1016"
   inkscape:window-height="770"
   id="namedview5"
   showgrid="false"
   inkscape:zoom="2.36"
   inkscape:cx="50"
   inkscape:cy="50"
   inkscape:window-x="0"
   inkscape:window-y="0"
   inkscape:window-maximized="0"
   inkscape:current-layer="Layer_1"
   showguides="true"
   inkscape:guide-bbox="true"><sodipodi:guide
     position="-88.135593,50"
     orientation="0,1"
     id="guide7"
     inkscape:locked="false" /><sodipodi:guide
     position="14.830508,50"
     orientation="1,0"
     id="guide8"
     inkscape:locked="false" /></sodipodi:namedview>
<path
   d="m 80.049386,45.879637 c 2.12195,3.02095 3.37745,6.6929 3.37745,10.6671 v 0 c 0,8.10185 -5.19095,14.973 -12.42015,17.52275 -0.04185,-2.0708 -0.6727,-4.123 -1.89565,-5.90085 4.73525,-1.74685 8.1158,-6.28525 8.1158,-11.6219 v 0 0 c 0,-6.84635 -5.55055,-12.4 -12.39845,-12.4 -2.48155,0 -4.77865,0.7471 -6.7177,2.00105 -1.90805,-8.2398 -9.25815,-14.3995 -18.0792,-14.3995 -10.27185,0 -18.59845,8.3266 -18.59845,18.59845 0,2.1762 0.3937,4.2563 1.0819,6.2 h 0.02325 c 1.51125,4.247 4.48725,7.79805 8.3607,9.98975 l -0.08835,0.08835 c -1.52055,1.519 -2.4738,3.3852 -2.9016,5.33975 -5.81405,-3.26585 -10.15405,-8.8133 -11.8606,-15.41785 v 0 c -0.5115,-1.98555 -0.8122,-4.05635 -0.8122,-6.2 0,-13.69425 11.1011,-24.7969 24.7969,-24.7969 3.1031,0 6.0667,0.58125 8.80245,1.62285 2.5358,-7.2571 9.42245,-12.47285 17.54445,-12.47285 1.17025,0 2.31105,0.1209 3.42085,0.3286 -0.2046,0.89125 -0.3224,1.81815 -0.3224,2.7714 0,6.8479 5.5521,12.39845 12.4,12.39845 0.95325,0 1.8786,-0.1178 2.76985,-0.3224 0.2077,1.11135 0.3286,2.25215 0.3286,3.4224 -0.0015,4.85925 -1.8786,9.27055 -4.92745,12.58135 z m -16.4424,-24.65585 c -4.495,1.0292 -8.02125,4.5105 -9.1822,8.95125 v 0 c 2.97135,2.1266 5.45755,4.8856 7.25245,8.09255 1.0292,-0.17515 2.07235,-0.31775 3.15115,-0.31775 4.0579,0 7.7996,1.31595 10.85775,3.52005 1.3299,-1.51745 2.30175,-3.3604 2.7683,-5.3971 -7.5237,-1.40275 -13.44625,-7.32375 -14.84745,-14.849 z m -25.1255,46.49845 3.28755,3.28755 c 1.8166,1.8166 1.8166,4.7585 0,6.5751 -1.81505,1.8166 -4.7585,1.8166 -6.5751,0 -1.81505,-1.8166 -1.81505,-4.7585 0,-6.5751 z m 10.84845,12.3969 3.28755,3.28755 c 1.8166,1.8166 1.8166,4.7616 0,6.5751 -1.81505,1.8166 -4.7585,1.8166 -6.5751,0 -1.81505,-1.8135 -1.81505,-4.7585 0,-6.5751 z m 10.84845,-12.3969 3.28755,3.28755 c 1.8166,1.8166 1.8166,4.7585 0,6.5751 -1.81505,1.8166 -4.7585,1.8166 -6.5751,0 -1.81505,-1.8166 -1.81505,-4.7585 0,-6.5751 z"
   id="path2"
   inkscape:connector-curvature="0"
   style="clip-rule:evenodd;fill-rule:evenodd;stroke-width:1.54999995" />
</svg>