<?xml version="1.0" encoding="UTF-8" standalone="no"?>
<!-- Generator: Adobe Illustrator 15.1.0, SVG Export Plug-In . SVG Version: 6.00 Build 0)  -->

<svg
   xmlns:dc="http://purl.org/dc/elements/1.1/"
   xmlns:cc="http://creativecommons.org/ns#"
   xmlns:rdf="http://www.w3.org/1999/02/22-rdf-syntax-ns#"
   xmlns:svg="http://www.w3.org/2000/svg"
   xmlns="http://www.w3.org/2000/svg"
   xmlns:sodipodi="http://sodipodi.sourceforge.net/DTD/sodipodi-0.dtd"
   xmlns:inkscape="http://www.inkscape.org/namespaces/inkscape"
   version="1.1"
   id="Layer_1"
   x="0px"
   y="0px"
   width="100px"
   height="100px"
   viewBox="0 0 100 100"
   enable-background="new 0 0 100 100"
   xml:space="preserve"
   sodipodi:docname="Cloud-Fog-Alt-symbolic.svg"
   inkscape:version="0.92.4 5da689c313, 2019-01-14"><metadata
   id="metadata9"><rdf:RDF><cc:Work
       rdf:about=""><dc:format>image/svg+xml</dc:format><dc:type
         rdf:resource="http://purl.org/dc/dcmitype/StillImage" /></cc:Work></rdf:RDF></metadata><defs
   id="defs7" /><sodipodi:namedview
   pagecolor="#ffffff"
   bordercolor="#666666"
   borderopacity="1"
   objecttolerance="10"
   gridtolerance="10"
   guidetolerance="10"
   inkscape:pageopacity="0"
   inkscape:pageshadow="2"
   inkscape:window-width="1078"
   inkscape:window-height="936"
   id="namedview5"
   showgrid="false"
   inkscape:zoom="2.36"
   inkscape:cx="50"
   inkscape:cy="50"
   inkscape:window-x="0"
   inkscape:window-y="0"
   inkscape:window-maximized="0"
   inkscape:current-layer="Layer_1"
   showguides="true"
   inkscape:guide-bbox="true"><sodipodi:guide
     position="14.830508,50.847458"
     orientation="1,0"
     id="guide7"
     inkscape:locked="false" /><sodipodi:guide
     position="-69.915254,50"
     orientation="0,1"
     id="guide9"
     inkscape:locked="false" /></sodipodi:namedview>
<path
   d="m 17.534564,59.716126 c -0.4061,-1.0013 -0.73315,-2.03825 -1.0044,-3.1 h 67.3785 c 0,1.0602 -0.1085,2.0894 -0.28055,3.1 z m 10.9833,-30.9969 c 3.5557,-1.97005 7.6415,-3.09845 11.9939,-3.09845 4.3493,0 8.4258,1.1315 11.97685,3.09845 z m -12.58755,18.59845 c 0.13175,-1.0571 0.3379,-2.08785 0.59985,-3.09845 h 62.6138 c 0.85405,0.95015 1.61045,1.98555 2.25525,3.09845 z m 1.60425,-6.19845 c 0.43555,-1.07415 0.95015,-2.10645 1.5252,-3.1 h 42.9071 c 0.062,0.1054 0.1302,0.20925 0.19065,0.31775 1.0292,-0.1767 2.0739,-0.31775 3.15115,-0.31775 3.79905,0 7.32995,1.1439 10.27185,3.1 z m 3.63785,-6.2 c 0.899,-1.12065 1.89875,-2.1514 2.976,-3.1 h 32.7391 c 1.0695,0.9455 2.0553,1.984 2.94965,3.1 z m 62.45415,18.5969 h -67.69625 c -0.1271,-1.0168 -0.21545,-2.046 -0.21545,-3.09845 h 67.1119 c 0.35185,0.99665 0.62155,2.03205 0.7998,3.09845 z m -0.7998,9.3 c -0.38285,1.08345 -0.86025,2.11885 -1.42755,3.1 h -60.2268 c -0.78275,-0.97495 -1.48335,-2.01345 -2.11265,-3.1 z m -58.67835,6.2 h 54.994 c -1.054,1.1749 -2.24285,2.2227 -3.56345,3.09845 h -47.0611 c -1.5748,-0.8711 -3.0287,-1.922 -4.36945,-3.09845 z"
   id="path2"
   inkscape:connector-curvature="0"
   style="clip-rule:evenodd;fill-rule:evenodd;stroke-width:1.54999995" />
</svg>