<?xml version="1.0" encoding="UTF-8" standalone="no"?>
<!-- Generator: Adobe Illustrator 15.1.0, SVG Export Plug-In . SVG Version: 6.00 Build 0)  -->

<svg
   xmlns:dc="http://purl.org/dc/elements/1.1/"
   xmlns:cc="http://creativecommons.org/ns#"
   xmlns:rdf="http://www.w3.org/1999/02/22-rdf-syntax-ns#"
   xmlns:svg="http://www.w3.org/2000/svg"
   xmlns="http://www.w3.org/2000/svg"
   xmlns:sodipodi="http://sodipodi.sourceforge.net/DTD/sodipodi-0.dtd"
   xmlns:inkscape="http://www.inkscape.org/namespaces/inkscape"
   version="1.1"
   id="Layer_1"
   x="0px"
   y="0px"
   width="100px"
   height="100px"
   viewBox="0 0 100 100"
   enable-background="new 0 0 100 100"
   xml:space="preserve"
   sodipodi:docname="Cloud-Hail-Alt-symbolic.svg"
   inkscape:version="0.92.4 5da689c313, 2019-01-14"><metadata
   id="metadata9"><rdf:RDF><cc:Work
       rdf:about=""><dc:format>image/svg+xml</dc:format><dc:type
         rdf:resource="http://purl.org/dc/dcmitype/StillImage" /></cc:Work></rdf:RDF></metadata><defs
   id="defs7" /><sodipodi:namedview
   pagecolor="#ffffff"
   bordercolor="#666666"
   borderopacity="1"
   objecttolerance="10"
   gridtolerance="10"
   guidetolerance="10"
   inkscape:pageopacity="0"
   inkscape:pageshadow="2"
   inkscape:window-width="1078"
   inkscape:window-height="936"
   id="namedview5"
   showgrid="false"
   inkscape:zoom="2.36"
   inkscape:cx="50"
   inkscape:cy="50"
   inkscape:window-x="0"
   inkscape:window-y="0"
   inkscape:window-maximized="0"
   inkscape:current-layer="Layer_1"
   showguides="true"
   inkscape:guide-bbox="true"><sodipodi:guide
     position="14.830508,46.186441"
     orientation="1,0"
     id="guide7"
     inkscape:locked="false" /><sodipodi:guide
     position="-58.050847,50"
     orientation="0,1"
     id="guide9"
     inkscape:locked="false" /></sodipodi:namedview>
<path
   d="m 85.031836,83.764424 c -1.7112,0 -3.09845,-1.38725 -3.09845,-3.1 0,-1.7112 1.38725,-3.1 3.09845,-3.1 1.7112,0 3.1,1.3888 3.1,3.1 0,1.71275 -1.38725,3.1 -3.1,3.1 z m -13.94845,-10.3819 v -6.79055 c 3.70295,-2.14365 6.2,-6.13955 6.2,-10.726 0,-6.84635 -5.55055,-12.39845 -12.39845,-12.39845 -2.48155,0 -4.77865,0.744 -6.7177,2.00105 -1.90805,-8.24135 -9.25815,-14.3995 -18.0792,-14.3995 -10.27185,0 -18.59845,8.3266 -18.59845,18.5969 0,5.5025 2.40405,10.4284 6.2,13.83375 v 7.6198 c -7.40435,-4.2904 -12.39845,-12.2791 -12.39845,-21.45355 0,-13.69425 11.1011,-24.79535 24.7969,-24.79535 9.3062,0 17.40495,5.13205 21.64575,12.71465 1.0292,-0.17515 2.07235,-0.31775 3.15115,-0.31775 10.2703,0 18.5969,8.3266 18.5969,18.59845 0,8.09565 -5.1801,14.96215 -12.39845,17.51655 z m -51.14225,11.9319 c 1.7112,0 3.09845,1.38725 3.09845,3.1 0,1.7112 -1.38725,3.1 -3.09845,3.1 -1.7112,0 -3.1,-1.3888 -3.1,-3.1 0,-1.7143 1.38725,-3.1 3.1,-3.1 z m 15.4969,-26.3469 c 0,-1.7112 -0.1612,-3.1 1.55,-3.1 1.7112,0 1.55,1.3888 1.55,3.1 v 37.1969 h -3.1 v 0 0 c 0,-3.42395 -2.7745,-6.2 -6.19845,-6.2 v -3.1 c 2.39165,0 4.55235,0.93 6.19845,2.41335 z m 13.94845,21.6969 c -1.7112,0 -1.55,-1.38725 -1.55,-3.1 v -12.3969 c 0,-1.71275 -0.1612,-3.1 1.55,-3.1 1.7112,0 1.55,1.38725 1.55,3.1 v 12.3969 c 0,1.71275 0.1612,3.1 -1.55,3.1 z m 0,6.2 c 1.7112,0 3.1,1.38725 3.1,3.1 0,1.7112 -1.3888,3.1 -3.1,3.1 -1.7112,0 -3.1,-1.3888 -3.1,-3.1 0,-1.7143 1.3888,-3.1 3.1,-3.1 z m 12.39845,-30.9969 c 1.7112,0 1.55,1.3888 1.55,3.1 v 27.9248 c 2.82565,-3.7727 7.32065,-6.2279 12.39845,-6.2279 v 3.1 c -6.8479,0 -12.39845,5.5521 -12.39845,12.4 h -3.1 c 0,-0.42315 0.031,-0.83855 0.06355,-1.25085 -0.0837,-0.5177 -0.06355,-1.1532 -0.06355,-1.84915 v -34.0969 c 0,-1.7112 -0.1612,-3.1 1.55,-3.1 z"
   id="path2"
   inkscape:connector-curvature="0"
   style="clip-rule:evenodd;fill-rule:evenodd;stroke-width:1.54999995" />
</svg>