<?xml version="1.0" encoding="UTF-8" standalone="no"?>
<!-- Generator: Adobe Illustrator 15.1.0, SVG Export Plug-In . SVG Version: 6.00 Build 0)  -->

<svg
   xmlns:dc="http://purl.org/dc/elements/1.1/"
   xmlns:cc="http://creativecommons.org/ns#"
   xmlns:rdf="http://www.w3.org/1999/02/22-rdf-syntax-ns#"
   xmlns:svg="http://www.w3.org/2000/svg"
   xmlns="http://www.w3.org/2000/svg"
   xmlns:sodipodi="http://sodipodi.sourceforge.net/DTD/sodipodi-0.dtd"
   xmlns:inkscape="http://www.inkscape.org/namespaces/inkscape"
   version="1.1"
   id="Layer_1"
   x="0px"
   y="0px"
   width="100px"
   height="100px"
   viewBox="0 0 100 100"
   enable-background="new 0 0 100 100"
   xml:space="preserve"
   sodipodi:docname="Cloud-Rain-Alt-symbolic.svg"
   inkscape:version="0.92.4 5da689c313, 2019-01-14"><metadata
   id="metadata9"><rdf:RDF><cc:Work
       rdf:about=""><dc:format>image/svg+xml</dc:format><dc:type
         rdf:resource="http://purl.org/dc/dcmitype/StillImage" /></cc:Work></rdf:RDF></metadata><defs
   id="defs7" /><sodipodi:namedview
   pagecolor="#ffffff"
   bordercolor="#666666"
   borderopacity="1"
   objecttolerance="10"
   gridtolerance="10"
   guidetolerance="10"
   inkscape:pageopacity="0"
   inkscape:pageshadow="2"
   inkscape:window-width="1078"
   inkscape:window-height="936"
   id="namedview5"
   showgrid="false"
   inkscape:zoom="2.36"
   inkscape:cx="50"
   inkscape:cy="50"
   inkscape:window-x="0"
   inkscape:window-y="0"
   inkscape:window-maximized="0"
   inkscape:current-layer="Layer_1"
   showguides="true"
   inkscape:guide-bbox="true"><sodipodi:guide
     position="14.830508,49.152542"
     orientation="1,0"
     id="guide7"
     inkscape:locked="false" /><sodipodi:guide
     position="155.50847,50"
     orientation="0,1"
     id="guide9"
     inkscape:locked="false" /></sodipodi:namedview>
<path
   d="m 64.885486,74.755094 c -0.4123,0 -0.9517,0 -1.55,0 0,-2.126599 -0.49445,-4.2501 -1.46165,-6.2 1.20435,0 2.24905,0 3.01165,0 6.8479,0 12.39845,-5.548999 12.39845,-12.396899 0,-6.847901 -5.55055,-12.398451 -12.39845,-12.398451 -2.48,0 -4.77865,0.745551 -6.7177,1.9995 -1.90805,-8.2398 -9.25815,-14.39795 -18.0792,-14.39795 -10.27185,0 -18.5969,8.3266 -18.5969,18.5969 0,9.22715 6.72545,16.86245 15.53565,18.3241 -0.98735,1.88635 -1.50195,3.950951 -1.5686,6.02485 -11.4793,-2.16845 -20.1686,-12.237249 -20.1686,-24.34895 0,-13.69425 11.1011,-24.7969 24.7969,-24.7969 9.3062,0 17.40495,5.1336 21.64575,12.7162 1.0292,-0.1767 2.07235,-0.31775 3.15115,-0.31775 10.27185,0 18.5969,8.3266 18.5969,18.598451 0,10.27185 -8.3235,18.596899 -18.59535,18.596899 z m -15.4969,-10.960049 5.47925,5.479249 c 3.02405,3.027151 3.02405,7.9329 0,10.958501 -3.02715,3.02715 -7.93445,3.02715 -10.9585,0 -3.02715,-3.0256 -3.02715,-7.93135 0,-10.9585 z"
   id="path2"
   inkscape:connector-curvature="0"
   style="clip-rule:evenodd;fill-rule:evenodd;stroke-width:1.54999995" />
</svg>