<?xml version="1.0" encoding="UTF-8" standalone="no"?>
<svg
   xmlns:dc="http://purl.org/dc/elements/1.1/"
   xmlns:cc="http://creativecommons.org/ns#"
   xmlns:rdf="http://www.w3.org/1999/02/22-rdf-syntax-ns#"
   xmlns:svg="http://www.w3.org/2000/svg"
   xmlns="http://www.w3.org/2000/svg"
   xmlns:sodipodi="http://sodipodi.sourceforge.net/DTD/sodipodi-0.dtd"
   xmlns:inkscape="http://www.inkscape.org/namespaces/inkscape"
   inkscape:version="1.0 (4035a4fb49, 2020-05-01)"
   sodipodi:docname="cloudy-symbolic.svg"
   xml:space="preserve"
   style="enable-background:new 0 0 30 30;"
   viewBox="0 0 30 30"
   y="0px"
   x="0px"
   id="Layer_1"
   version="1.1"><metadata
   id="metadata9"><rdf:RDF><cc:Work
       rdf:about=""><dc:format>image/svg+xml</dc:format><dc:type
         rdf:resource="http://purl.org/dc/dcmitype/StillImage" /></cc:Work></rdf:RDF></metadata><defs
   id="defs7" /><sodipodi:namedview
   inkscape:current-layer="Layer_1"
   inkscape:window-maximized="0"
   inkscape:window-y="0"
   inkscape:window-x="0"
   inkscape:cy="15"
   inkscape:cx="15"
   inkscape:zoom="22.2"
   showgrid="false"
   id="namedview5"
   inkscape:window-height="937"
   inkscape:window-width="1080"
   inkscape:pageshadow="2"
   inkscape:pageopacity="0"
   guidetolerance="10"
   gridtolerance="10"
   objecttolerance="10"
   borderopacity="1"
   bordercolor="#666666"
   pagecolor="#ffffff" />
<path
   style="stroke-width:1.34897"
   id="path2"
   d="m 0.07140143,18.659745 c 0,-1.335481 0.41818092,-2.536065 1.25454257,-3.574772 C 2.1623059,14.046265 3.2279927,13.37178 4.5364942,13.075006 4.8872265,11.496711 5.6831192,10.18821 6.9376619,9.1899716 8.1922051,8.1782433 9.6356034,7.6791243 11.281347,7.6791243 c 1.591785,0 3.021694,0.48563 4.262748,1.470378 1.254542,0.9847487 2.063925,2.2392907 2.428146,3.7771177 h 0.364223 c 1.591784,0 2.940755,0.553077 4.060401,1.672723 1.119645,1.119646 1.686213,2.468616 1.686213,4.046913 0,1.591785 -0.566568,2.940755 -1.686213,4.060401 -1.119646,1.119646 -2.468617,1.686213 -4.060401,1.686213 H 5.831506 c -0.782403,0 -1.5243368,-0.148387 -2.2258015,-0.45865 C 2.9042397,23.623956 2.2702236,23.246245 1.7576147,22.733636 1.2450059,22.221027 0.84031468,21.600501 0.53005144,20.899036 0.2197882,20.197572 0.07140143,19.428658 0.07140143,18.659745 Z m 1.95600737,0 c 0,1.025218 0.3777118,1.915538 1.1061559,2.643983 0.7284441,0.728444 1.6322545,1.106156 2.6844516,1.106156 H 18.336464 c 1.038706,0 1.942517,-0.364223 2.684451,-1.106156 0.741933,-0.741935 1.119645,-1.618765 1.119645,-2.643983 0,-1.025218 -0.364221,-1.915538 -1.119645,-2.643983 -0.741934,-0.728444 -1.632255,-1.106156 -2.684451,-1.106156 h -1.87507 c -0.134897,0 -0.202345,-0.06745 -0.202345,-0.202345 l -0.09443,-0.660996 c -0.134898,-1.268032 -0.674486,-2.333719 -1.605275,-3.170081 -0.93079,-0.836361 -2.036946,-1.2545422 -3.304978,-1.2545422 -1.2680317,0 -2.3741877,0.4181812 -3.3184676,1.2680332 -0.9442794,0.83636 -1.4703779,1.902047 -1.5917852,3.15659 l -0.094428,0.566568 c 0,0.134897 -0.067448,0.202346 -0.2158352,0.202346 l -0.6070368,0.09442 c -0.9712589,0.08094 -1.7806413,0.48563 -2.4416369,1.200584 -0.6205265,0.714955 -0.9577691,1.564806 -0.9577691,2.549554 z M 13.965798,6.8967214 c -0.134897,0.1214073 -0.107921,0.2158353 0.09443,0.2832838 0.580058,0.2563045 1.065687,0.4991191 1.456888,0.7419343 0.148387,0.040465 0.256305,0.02698 0.296774,-0.040465 0.822872,-0.7689135 1.767151,-1.160115 2.859818,-1.160115 1.092666,0 2.023455,0.364222 2.832838,1.0926662 0.795893,0.7284446 1.241053,1.632254 1.335481,2.6979413 l 0.121407,0.863341 h 1.915539 c 0.876831,0 1.632254,0.310264 2.26627,0.944279 0.634016,0.634017 0.94428,1.37595 0.94428,2.239292 0,0.809382 -0.283284,1.510846 -0.836362,2.117884 -0.553078,0.607036 -1.241053,0.944279 -2.063925,1.038707 -0.134897,0 -0.202346,0.06744 -0.202346,0.215835 v 1.524337 c 0,0.148387 0.06744,0.215835 0.202346,0.215835 1.362459,-0.08094 2.509085,-0.620526 3.439875,-1.605274 0.930789,-0.984749 1.40293,-2.158354 1.40293,-3.507324 0,-1.429909 -0.49912,-2.643982 -1.510848,-3.642221 C 27.509464,9.9049258 26.29539,9.4058072 24.878971,9.4058072 H 24.676626 C 24.325893,8.0568365 23.583959,6.9506801 22.450823,6.0738493 21.331178,5.1970184 20.063146,4.7653478 18.673706,4.7653478 16.785148,4.7518581 15.206851,5.4668125 13.965798,6.8967214 Z" />
</svg>
