<?xml version="1.0" encoding="UTF-8" standalone="no"?>
<!-- Generator: Adobe Illustrator 15.1.0, SVG Export Plug-In . SVG Version: 6.00 Build 0)  -->

<svg
   xmlns:dc="http://purl.org/dc/elements/1.1/"
   xmlns:cc="http://creativecommons.org/ns#"
   xmlns:rdf="http://www.w3.org/1999/02/22-rdf-syntax-ns#"
   xmlns:svg="http://www.w3.org/2000/svg"
   xmlns="http://www.w3.org/2000/svg"
   xmlns:sodipodi="http://sodipodi.sourceforge.net/DTD/sodipodi-0.dtd"
   xmlns:inkscape="http://www.inkscape.org/namespaces/inkscape"
   version="1.1"
   id="Layer_1"
   x="0px"
   y="0px"
   width="100px"
   height="100px"
   viewBox="0 0 100 100"
   enable-background="new 0 0 100 100"
   xml:space="preserve"
   sodipodi:docname="Cloud-Upload-symbolic.svg"
   inkscape:version="0.92.4 5da689c313, 2019-01-14"><metadata
   id="metadata9"><rdf:RDF><cc:Work
       rdf:about=""><dc:format>image/svg+xml</dc:format><dc:type
         rdf:resource="http://purl.org/dc/dcmitype/StillImage" /></cc:Work></rdf:RDF></metadata><defs
   id="defs7" /><sodipodi:namedview
   pagecolor="#ffffff"
   bordercolor="#666666"
   borderopacity="1"
   objecttolerance="10"
   gridtolerance="10"
   guidetolerance="10"
   inkscape:pageopacity="0"
   inkscape:pageshadow="2"
   inkscape:window-width="640"
   inkscape:window-height="480"
   id="namedview5"
   showgrid="false"
   inkscape:zoom="2.36"
   inkscape:cx="50"
   inkscape:cy="50"
   inkscape:window-x="0"
   inkscape:window-y="0"
   inkscape:window-maximized="0"
   inkscape:current-layer="Layer_1" />
<path
   d="m 72.964777,84.594982 c -1.897785,0 -5.301024,0 -9.308726,0 0.05474,-0.499537 0.148265,-0.985388 0.148265,-1.49633 v -7.627635 c 3.834346,0 7.13266,0 9.160461,0 10.07742,0 18.24565,-8.170511 18.24565,-18.243369 0,-10.07742 -8.16823,-18.24793 -18.24565,-18.24793 -2.805619,0 -5.449288,0.659206 -7.819238,1.797421 L 61.454895,37.086495 C 57.221375,27.467553 47.659459,20.734067 36.473478,20.734067 c -15.116129,0 -27.3673334,12.251204 -27.3673334,27.367335 0,15.104724 12.2329564,27.346805 27.3308374,27.369615 v 7.627635 c 0,0.513223 0.0958,0.999074 0.150545,1.49633 -0.0365,0 -0.07983,0 -0.11633,0 -20.154839,0 -36.49129869,-16.33646 -36.49129869,-36.49358 0,-20.15256 16.33645969,-36.4913 36.49129869,-36.4913 13.695072,0 25.613251,7.554643 31.854044,18.713252 1.514578,-0.260033 3.049685,-0.467603 4.637255,-0.467603 15.11613,0 27.367334,12.253487 27.367334,27.371897 0.002,15.111568 -12.248923,27.367334 -27.365053,27.367334 z M 33.996321,61.230788 c -1.781454,-1.776892 -1.781454,-4.669189 0,-6.446082 L 46.897608,41.881138 c 1.779173,-1.781454 4.669189,-1.781454 6.450644,0 l 12.899006,12.903568 c 1.781454,1.776893 1.781454,4.66919 0,6.446082 -1.779174,1.781454 -4.66919,1.781454 -6.448363,0 l -5.116263,-5.113983 v 26.979566 c 0,2.518214 -2.043769,4.561982 -4.559702,4.561982 -2.520495,0 -4.561983,-2.043768 -4.561983,-4.561982 V 56.116805 l -5.113982,5.113983 c -1.781454,1.783735 -4.66919,1.783735 -6.450644,0 z"
   id="path2"
   inkscape:connector-curvature="0"
   style="clip-rule:evenodd;fill:#231f20;fill-rule:evenodd;stroke-width:2.28099132" />
</svg>