<?xml version="1.0" encoding="utf-8"?>
<!-- Generator: Adobe Illustrator 15.1.0, SVG Export Plug-In . SVG Version: 6.00 Build 0)  -->
<!DOCTYPE svg PUBLIC "-//W3C//DTD SVG 1.1//EN" "http://www.w3.org/Graphics/SVG/1.1/DTD/svg11.dtd">
<svg version="1.1" id="Layer_1" xmlns="http://www.w3.org/2000/svg" xmlns:xlink="http://www.w3.org/1999/xlink" x="0px" y="0px"
	 width="100px" height="100px" viewBox="0 0 100 100" enable-background="new 0 0 100 100" xml:space="preserve">
<path fill-rule="evenodd" clip-rule="evenodd" d="M76.746,69.588v0.051h-0.749h-3c-1.104,0-2-0.895-2-2c0-1.104,0.896-1.999,2-1.999
	h3c1.104,0,1.999-0.896,1.999-2s-0.895-1.999-1.999-1.999s-2-0.896-2-2c0-1.105,0.896-2,2-2c0.138,0,0.272,0.014,0.402,0.041
	c3.122,0.211,5.597,2.783,5.597,5.958C81.996,66.698,79.705,69.217,76.746,69.588z M65.998,57.641c-1.104,0-2-0.896-2-2s0.896-2,2-2
	c0.138,0,0.272,0.014,0.403,0.041c3.121,0.211,5.596,2.783,5.596,5.959c0,3.059-2.291,5.577-5.249,5.947v0.052h-0.75h-7.985
	c-4.012,0-11.358,0-14.012,0c-1.104,0-2,0.896-2,1.999c0,1.105,0.896,2,2,2h21.997h0.75v0.053c2.958,0.369,5.249,2.889,5.249,5.947
	c0,3.175-2.475,5.747-5.596,5.958c-0.131,0.026-0.266,0.041-0.403,0.041c-1.104,0-2-0.896-2-2s0.896-1.999,2-1.999s2-0.896,2-2
	c0-1.105-0.896-2-2-2H44.001h-0.75v-0.052c-2.959-0.37-5.25-2.89-5.25-5.948c0-1.055,0.294-2.032,0.773-2.89
	c-6.265-2.168-10.771-8.104-10.771-15.107c0-8.835,7.162-15.998,15.998-15.998c6.004,0,11.229,3.312,13.965,8.204
	c0.664-0.114,1.336-0.205,2.033-0.205c5.896,0,10.788,4.256,11.798,9.862c-1.395-0.995-3.05-1.646-4.849-1.815
	c-1.377-2.416-3.971-4.047-6.949-4.047c-1.601,0-3.084,0.48-4.334,1.29c-1.231-5.316-5.973-9.29-11.664-9.29
	c-6.627,0-11.999,5.372-11.999,11.999c0,6.626,5.372,11.999,11.999,11.999c2.598,0,8.152,0,12.199,0h9.798c1.104,0,2-0.896,2-2
	C67.998,58.535,67.103,57.641,65.998,57.641z"/>
</svg>
