<?xml version="1.0" encoding="UTF-8" standalone="no"?>
<!-- Generator: Adobe Illustrator 15.1.0, SVG Export Plug-In . SVG Version: 6.00 Build 0)  -->

<svg
   xmlns:dc="http://purl.org/dc/elements/1.1/"
   xmlns:cc="http://creativecommons.org/ns#"
   xmlns:rdf="http://www.w3.org/1999/02/22-rdf-syntax-ns#"
   xmlns:svg="http://www.w3.org/2000/svg"
   xmlns="http://www.w3.org/2000/svg"
   xmlns:sodipodi="http://sodipodi.sourceforge.net/DTD/sodipodi-0.dtd"
   xmlns:inkscape="http://www.inkscape.org/namespaces/inkscape"
   version="1.1"
   id="Layer_1"
   x="0px"
   y="0px"
   width="100px"
   height="100px"
   viewBox="0 0 100 100"
   enable-background="new 0 0 100 100"
   xml:space="preserve"
   sodipodi:docname="Cloud-Hail-Sun-symbolic.svg"
   inkscape:version="0.92.4 5da689c313, 2019-01-14"><metadata
   id="metadata9"><rdf:RDF><cc:Work
       rdf:about=""><dc:format>image/svg+xml</dc:format><dc:type
         rdf:resource="http://purl.org/dc/dcmitype/StillImage" /></cc:Work></rdf:RDF></metadata><defs
   id="defs7" /><sodipodi:namedview
   pagecolor="#ffffff"
   bordercolor="#666666"
   borderopacity="1"
   objecttolerance="10"
   gridtolerance="10"
   guidetolerance="10"
   inkscape:pageopacity="0"
   inkscape:pageshadow="2"
   inkscape:window-width="1078"
   inkscape:window-height="936"
   id="namedview5"
   showgrid="false"
   inkscape:zoom="2.36"
   inkscape:cx="50"
   inkscape:cy="50"
   inkscape:window-x="0"
   inkscape:window-y="0"
   inkscape:window-maximized="0"
   inkscape:current-layer="Layer_1"
   showguides="true"
   inkscape:guide-bbox="true"><sodipodi:guide
     position="156.77966,50"
     orientation="0,1"
     id="guide7"
     inkscape:locked="false" /><sodipodi:guide
     position="14.830508,16.525424"
     orientation="1,0"
     id="guide9"
     inkscape:locked="false" /></sodipodi:namedview>
<path
   d="m 95.881835,42.316532 h -6.2 c -1.7112,0 -3.1,-1.38725 -3.1,-3.1 0,-1.7112 1.3888,-3.1 3.1,-3.1 h 6.2 c 1.7112,0 3.09845,1.3888 3.09845,3.1 0,1.7143 -1.3857,3.1 -3.09845,3.1 z m -12.17835,-20.6336 c -1.209,1.21055 -3.17285,1.21055 -4.3834,0 -1.209,-1.209 -1.209,-3.17285 0,-4.3834 l 4.3834,-4.3834 c 1.21055,-1.209 3.1744,-1.209 4.3834,0 1.21055,1.21055 1.21055,3.1744 0,4.3834 z m -4.5694,24.19085 v 0 c 2.71095,3.2302 4.3493,7.3935 4.3493,11.9412 0,8.09565 -5.1801,14.9606 -12.39845,17.51655 v -6.79055 c 3.70295,-2.14365 6.19845,-6.13955 6.19845,-10.726 0,-6.84635 -5.55055,-12.39845 -12.39845,-12.39845 -2.48,0 -4.77865,0.744 -6.71615,2.00105 -1.9096,-8.24135 -9.2597,-14.3995 -18.08075,-14.3995 -10.2703,0 -18.5969,8.3266 -18.5969,18.5969 0,5.5025 2.4025,10.4284 6.19845,13.83375 v 7.6198 c -7.4028,-4.2904 -12.398449,-12.2791 -12.398449,-21.45355 0,-13.69425 11.102649,-24.79535 24.796899,-24.79535 2.4366,0 4.78795,0.35805 7.0122,1.0137 3.4007,-4.38185 8.70635,-7.2137 14.68625,-7.2137 10.2703,0 18.5969,8.32505 18.5969,18.5969 0,2.3498 -0.45415,4.588 -1.2493,6.65725 z m -17.3476,-19.05415 c -3.43015,0 -6.53325,1.3919 -8.77765,3.6425 3.62855,2.22425 6.6433,5.3506 8.72495,9.0737 1.0292,-0.17515 2.07235,-0.31775 3.15115,-0.31775 3.2953,0 6.3829,0.86645 9.0675,2.36685 v 0 c 0.1488,-0.7657 0.23095,-1.5562 0.23095,-2.36685 0,-6.84945 -5.55055,-12.39845 -12.3969,-12.39845 z m 0,-12.4 c -1.7112,0 -3.1,-1.38725 -3.1,-3.1 V 5.1211813 c 0,-1.7112 1.3888,-3.09845 3.1,-3.09845 1.7112,0 3.09845,1.38725 3.09845,3.09845 v 6.1984507 c 0,1.7143 -1.38725,3.1 -3.09845,3.1 z m -21.91855,7.2633 -4.3834,-4.3834 c -1.21055,-1.209 -1.21055,-3.17285 0,-4.3834 1.21055,-1.209 3.17285,-1.209 4.3834,0 l 4.3834,4.3834 c 1.209,1.21055 1.209,3.1744 0,4.3834 -1.21055,1.21055 -3.1713,1.21055 -4.3834,0 z m -2.87835,54.72895 c -1.7112,0 -1.55,-1.38725 -1.55,-3.0969 v -12.4 c 0,-1.7112 -0.1612,-3.1 1.55,-3.1 1.7112,0 1.54845,1.3888 1.54845,3.1 v 12.4 c 0,1.70965 0.1612,3.0969 -1.54845,3.0969 z m 0,6.2 c 1.7112,0 3.09845,1.3888 3.09845,3.1 0,1.71275 -1.3888,3.1 -3.09845,3.1 -1.7112,0 -3.1,-1.38725 -3.1,-3.1 0,-1.7112 1.38725,-3.1 3.1,-3.1 z m 12.39845,0 c -1.7112,0 -1.55,-1.38725 -1.55,-3.1 v -12.3969 c 0,-1.71275 -0.1612,-3.1 1.55,-3.1 1.7112,0 1.54845,1.38725 1.54845,3.1 v 12.3969 c 0,1.71275 0.1612,3.1 -1.54845,3.1 z m 0,6.2 c 1.7112,0 3.09845,1.38725 3.09845,3.1 0,1.7112 -1.3888,3.1 -3.09845,3.1 -1.7112,0 -3.1,-1.3888 -3.1,-3.1 0,-1.7143 1.38725,-3.1 3.1,-3.1 z m 12.39845,-12.4 c -1.7112,0 -1.55,-1.38725 -1.55,-3.0969 v -12.4 c 0,-1.7112 -0.1612,-3.1 1.55,-3.1 1.7112,0 1.54845,1.3888 1.54845,3.1 v 12.4 c 0,1.70965 0.16275,3.0969 -1.54845,3.0969 z m 0,6.2 c 1.7112,0 3.09845,1.3888 3.09845,3.1 0,1.71275 -1.3888,3.1 -3.09845,3.1 -1.7112,0 -3.1,-1.38725 -3.1,-3.1 0,-1.7112 1.3888,-3.1 3.1,-3.1 z"
   id="path2"
   inkscape:connector-curvature="0"
   style="clip-rule:evenodd;fill-rule:evenodd;stroke-width:1.54999995" />
</svg>