<?xml version="1.0" encoding="utf-8"?>
<!-- Generator: Adobe Illustrator 15.1.0, SVG Export Plug-In . SVG Version: 6.00 Build 0)  -->
<!DOCTYPE svg PUBLIC "-//W3C//DTD SVG 1.1//EN" "http://www.w3.org/Graphics/SVG/1.1/DTD/svg11.dtd">
<svg version="1.1" id="Layer_1" xmlns="http://www.w3.org/2000/svg" xmlns:xlink="http://www.w3.org/1999/xlink" x="0px" y="0px"
	 width="100px" height="100px" viewBox="0 0 100 100" enable-background="new 0 0 100 100" xml:space="preserve">
<path fill-rule="evenodd" clip-rule="evenodd" d="M79.997,43.642h-4c-1.104,0-2-0.895-2-2c0-1.104,0.896-2,2-2h4
	c1.104,0,1.999,0.896,1.999,2C81.996,42.748,81.102,43.642,79.997,43.642z M72.14,30.33c-0.78,0.781-2.047,0.781-2.828,0
	c-0.78-0.78-0.78-2.047,0-2.828l2.828-2.828c0.781-0.78,2.048-0.78,2.828,0c0.781,0.781,0.781,2.048,0,2.828L72.14,30.33z
	 M69.192,45.937L69.192,45.937c1.749,2.084,2.806,4.77,2.806,7.704c0,5.223-3.342,9.652-7.999,11.301v-4.381
	c2.389-1.383,3.999-3.961,3.999-6.92c0-4.417-3.581-7.999-7.999-7.999c-1.6,0-3.083,0.48-4.333,1.291
	c-1.232-5.317-5.974-9.29-11.665-9.29c-6.626,0-11.998,5.372-11.998,11.998c0,3.55,1.55,6.728,3.999,8.925v4.916
	c-4.776-2.768-7.999-7.922-7.999-13.841c0-8.835,7.163-15.997,15.998-15.997c1.572,0,3.089,0.231,4.524,0.654
	c2.194-2.827,5.617-4.654,9.475-4.654c6.626,0,11.998,5.371,11.998,11.998C69.998,43.158,69.705,44.602,69.192,45.937z M58,33.644
	c-2.213,0-4.215,0.898-5.663,2.35c2.341,1.435,4.286,3.452,5.629,5.854c0.664-0.113,1.337-0.205,2.033-0.205
	c2.126,0,4.118,0.559,5.85,1.527l0,0c0.096-0.494,0.149-1.004,0.149-1.527C65.998,37.224,62.417,33.644,58,33.644z M58,25.644
	c-1.104,0-2-0.895-2-2v-3.999c0-1.104,0.896-1.999,2-1.999c1.104,0,1.999,0.895,1.999,1.999v3.999
	C59.999,24.75,59.104,25.644,58,25.644z M43.859,30.33l-2.828-2.828c-0.781-0.78-0.781-2.047,0-2.828c0.781-0.78,2.047-0.78,2.828,0
	l2.828,2.828c0.78,0.781,0.78,2.048,0,2.828C45.906,31.111,44.641,31.111,43.859,30.33z M42.002,65.639c-1.104,0-1-0.895-1-1.998v-8
	c0-1.104-0.104-2,1-2c1.104,0,0.999,0.896,0.999,2v8C43.001,64.744,43.105,65.639,42.002,65.639z M42.002,69.639
	c1.104,0,1.999,0.896,1.999,2c0,1.105-0.896,2-1.999,2c-1.104,0-2-0.895-2-2C40.002,70.535,40.897,69.639,42.002,69.639z
	 M50.001,69.639c-1.104,0-1-0.895-1-2v-7.998c0-1.105-0.104-2,1-2c1.104,0,0.999,0.895,0.999,2v7.998
	C51,68.744,51.104,69.639,50.001,69.639z M50.001,73.639c1.104,0,1.999,0.895,1.999,2c0,1.104-0.896,2-1.999,2c-1.104,0-2-0.896-2-2
	C48.001,74.533,48.896,73.639,50.001,73.639z M58,65.639c-1.104,0-1-0.895-1-1.998v-8c0-1.104-0.104-2,1-2
	c1.104,0,0.999,0.896,0.999,2v8C58.999,64.744,59.104,65.639,58,65.639z M58,69.639c1.104,0,1.999,0.896,1.999,2
	c0,1.105-0.896,2-1.999,2c-1.104,0-2-0.895-2-2C56,70.535,56.896,69.639,58,69.639z"/>
</svg>
