<?xml version="1.0" encoding="UTF-8" standalone="no"?>
<!-- Generator: Adobe Illustrator 15.1.0, SVG Export Plug-In . SVG Version: 6.00 Build 0)  -->

<svg
   xmlns:dc="http://purl.org/dc/elements/1.1/"
   xmlns:cc="http://creativecommons.org/ns#"
   xmlns:rdf="http://www.w3.org/1999/02/22-rdf-syntax-ns#"
   xmlns:svg="http://www.w3.org/2000/svg"
   xmlns="http://www.w3.org/2000/svg"
   xmlns:sodipodi="http://sodipodi.sourceforge.net/DTD/sodipodi-0.dtd"
   xmlns:inkscape="http://www.inkscape.org/namespaces/inkscape"
   version="1.1"
   id="Layer_1"
   x="0px"
   y="0px"
   width="100px"
   height="100px"
   viewBox="0 0 100 100"
   enable-background="new 0 0 100 100"
   xml:space="preserve"
   sodipodi:docname="Cloud.svg"
   inkscape:version="0.92.4 5da689c313, 2019-01-14"><metadata
   id="metadata9"><rdf:RDF><cc:Work
       rdf:about=""><dc:format>image/svg+xml</dc:format><dc:type
         rdf:resource="http://purl.org/dc/dcmitype/StillImage" /></cc:Work></rdf:RDF></metadata><defs
   id="defs7" /><sodipodi:namedview
   pagecolor="#ffffff"
   bordercolor="#666666"
   borderopacity="1"
   objecttolerance="10"
   gridtolerance="10"
   guidetolerance="10"
   inkscape:pageopacity="0"
   inkscape:pageshadow="2"
   inkscape:window-width="1920"
   inkscape:window-height="1056"
   id="namedview5"
   showgrid="false"
   inkscape:zoom="2.36"
   inkscape:cx="50"
   inkscape:cy="50"
   inkscape:window-x="0"
   inkscape:window-y="0"
   inkscape:window-maximized="1"
   inkscape:current-layer="Layer_1" />
<path
   d="m 36.568068,85.977982 c -19.737489,0 -35.73971204,-15.999989 -35.73971204,-35.739712 0,-19.739725 16.00222304,-35.739714 35.73971204,-35.739714 13.413004,0 25.085714,7.399046 31.19797,18.325595 1.483382,-0.252443 2.989106,-0.457972 4.541744,-0.457972 14.804792,0 26.805902,12.003342 26.805902,26.808136 0,14.800325 -12.00111,26.803667 -26.805902,26.803667 -6.199382,0 -28.595345,0 -35.739714,0 z m 35.739714,-8.936045 c 9.869862,0 17.87209,-8.002229 17.87209,-17.867622 0,-9.869863 -8.002228,-17.87209 -17.87209,-17.87209 -3.574418,0 -6.885223,1.074558 -9.679972,2.884108 C 59.877742,32.310328 49.281827,23.432367 36.568068,23.432367 c -14.802558,0 -26.8036667,12.001109 -26.8036667,26.805903 0,14.802558 12.0011087,26.803667 26.8036667,26.803667 8.080421,0 28.995234,0 35.739714,0 z"
   id="path2"
   inkscape:connector-curvature="0"
   style="clip-rule:evenodd;fill-rule:evenodd;stroke-width:2.23401117" />
</svg>