<?xml version="1.0" encoding="UTF-8" standalone="no"?>
<!-- Generator: Adobe Illustrator 15.1.0, SVG Export Plug-In . SVG Version: 6.00 Build 0)  -->

<svg
   xmlns:dc="http://purl.org/dc/elements/1.1/"
   xmlns:cc="http://creativecommons.org/ns#"
   xmlns:rdf="http://www.w3.org/1999/02/22-rdf-syntax-ns#"
   xmlns:svg="http://www.w3.org/2000/svg"
   xmlns="http://www.w3.org/2000/svg"
   xmlns:sodipodi="http://sodipodi.sourceforge.net/DTD/sodipodi-0.dtd"
   xmlns:inkscape="http://www.inkscape.org/namespaces/inkscape"
   version="1.1"
   id="Layer_1"
   x="0px"
   y="0px"
   width="100px"
   height="100px"
   viewBox="0 0 100 100"
   enable-background="new 0 0 100 100"
   xml:space="preserve"
   sodipodi:docname="Cloud-Snow-Moon-symbolic.svg"
   inkscape:version="0.92.4 5da689c313, 2019-01-14"><metadata
   id="metadata9"><rdf:RDF><cc:Work
       rdf:about=""><dc:format>image/svg+xml</dc:format><dc:type
         rdf:resource="http://purl.org/dc/dcmitype/StillImage" /></cc:Work></rdf:RDF></metadata><defs
   id="defs7" /><sodipodi:namedview
   pagecolor="#ffffff"
   bordercolor="#666666"
   borderopacity="1"
   objecttolerance="10"
   gridtolerance="10"
   guidetolerance="10"
   inkscape:pageopacity="0"
   inkscape:pageshadow="2"
   inkscape:window-width="1078"
   inkscape:window-height="936"
   id="namedview5"
   showgrid="false"
   inkscape:zoom="2.36"
   inkscape:cx="50"
   inkscape:cy="50"
   inkscape:window-x="0"
   inkscape:window-y="0"
   inkscape:window-maximized="0"
   inkscape:current-layer="Layer_1"
   showguides="true"
   inkscape:guide-bbox="true"><sodipodi:guide
     position="14.830508,-59.745763"
     orientation="1,0"
     id="guide7"
     inkscape:locked="false" /><sodipodi:guide
     position="116.10169,50"
     orientation="0,1"
     id="guide9"
     inkscape:locked="false" /></sodipodi:namedview>
<path
   d="m 80.102836,45.95805 v 0 c 2.12195,3.02095 3.379,6.69445 3.379,10.66555 0,8.09565 -5.1801,14.9606 -12.3969,17.51965 V 67.3527 c 3.7014,-2.14675 6.19845,-6.14265 6.19845,-10.7291 0,-6.84635 -5.55055,-12.39845 -12.39845,-12.39845 -2.48155,0 -4.7802,0.744 -6.7177,2.00105 -1.90805,-8.24135 -9.25815,-14.40105 -18.0792,-14.40105 -10.27185,0 -18.5969,8.32815 -18.5969,18.6 0,5.50095 2.4025,10.42995 6.19845,13.8322 v 7.6198 c -7.40435,-4.2904 -12.39845,-12.2791 -12.39845,-21.452 0,-13.69425 11.1011,-24.79845 24.7969,-24.79845 3.1031,0 6.0667,0.5828 8.804,1.6244 v 0 c 2.53425,-7.2571 9.4209,-12.47285 17.5429,-12.47285 1.17025,0 2.3095,0.1209 3.42085,0.32705 -0.20305,0.8928 -0.32085,1.8197 -0.32085,2.77295 0,6.8479 5.549,12.3969 12.3969,12.3969 0.9548,0 1.88015,-0.11625 2.77295,-0.32085 0.20615,1.11135 0.32705,2.25215 0.32705,3.42085 0,4.8608 -1.87705,9.269 -4.929,12.5829 z M 63.661986,21.3022 c -4.49345,1.0292 -8.0197,4.5105 -9.1822,8.95125 2.9729,2.1266 5.46065,4.8856 7.254,8.09255 1.0292,-0.17515 2.0708,-0.31775 3.15115,-0.31775 4.05635,0 7.80115,1.3144 10.85775,3.52005 v 0 c 1.3299,-1.519 2.30175,-3.35885 2.7683,-5.3971 -7.5237,-1.40275 -13.4478,-7.3253 -14.849,-14.849 z m -26.67395,41.52295 c 1.7112,0 3.1,1.3888 3.1,3.1 0,1.71275 -1.3888,3.1 -3.1,3.1 -1.7112,0 -3.1,-1.38725 -3.1,-3.1 0,-1.7112 1.38725,-3.1 3.1,-3.1 z m 0,12.4 c 1.7112,0 3.1,1.38725 3.1,3.1 0,1.7112 -1.3888,3.0969 -3.1,3.0969 -1.7112,0 -3.1,-1.38725 -3.1,-3.0969 0,-1.7143 1.38725,-3.1 3.1,-3.1 z m 12.39845,-6.2 c 1.7112,0 3.1,1.38725 3.1,3.1 0,1.7112 -1.3888,3.1 -3.1,3.1 -1.7112,0 -3.09845,-1.3888 -3.09845,-3.1 0,-1.7143 1.38725,-3.1 3.09845,-3.1 z m 0,12.3969 c 1.7112,0 3.1,1.3888 3.1,3.1 0,1.71275 -1.3888,3.1 -3.1,3.1 -1.7112,0 -3.09845,-1.38725 -3.09845,-3.1 0,-1.7112 1.38725,-3.1 3.09845,-3.1 z m 12.39845,-18.5969 c 1.7112,0 3.1,1.3888 3.1,3.1 0,1.71275 -1.3888,3.1 -3.1,3.1 -1.7112,0 -3.1,-1.38725 -3.1,-3.1 0,-1.7112 1.3888,-3.1 3.1,-3.1 z m 0,12.4 c 1.7112,0 3.1,1.38725 3.1,3.1 0,1.7112 -1.3888,3.0969 -3.1,3.0969 -1.7112,0 -3.1,-1.38725 -3.1,-3.0969 0,-1.7143 1.3888,-3.1 3.1,-3.1 z"
   id="path2"
   inkscape:connector-curvature="0"
   style="clip-rule:evenodd;fill-rule:evenodd;stroke-width:1.54999995" />
</svg>