<?xml version="1.0" encoding="UTF-8" standalone="no"?>
<!-- Generator: Adobe Illustrator 15.1.0, SVG Export Plug-In . SVG Version: 6.00 Build 0)  -->

<svg
   xmlns:dc="http://purl.org/dc/elements/1.1/"
   xmlns:cc="http://creativecommons.org/ns#"
   xmlns:rdf="http://www.w3.org/1999/02/22-rdf-syntax-ns#"
   xmlns:svg="http://www.w3.org/2000/svg"
   xmlns="http://www.w3.org/2000/svg"
   xmlns:sodipodi="http://sodipodi.sourceforge.net/DTD/sodipodi-0.dtd"
   xmlns:inkscape="http://www.inkscape.org/namespaces/inkscape"
   version="1.1"
   id="Layer_1"
   x="0px"
   y="0px"
   width="100px"
   height="100px"
   viewBox="0 0 100 100"
   enable-background="new 0 0 100 100"
   xml:space="preserve"
   sodipodi:docname="Cloud-Rain-Sun-Alt-symbolic.svg"
   inkscape:version="0.92.4 5da689c313, 2019-01-14"><metadata
   id="metadata9"><rdf:RDF><cc:Work
       rdf:about=""><dc:format>image/svg+xml</dc:format><dc:type
         rdf:resource="http://purl.org/dc/dcmitype/StillImage" /></cc:Work></rdf:RDF></metadata><defs
   id="defs7" /><sodipodi:namedview
   pagecolor="#ffffff"
   bordercolor="#666666"
   borderopacity="1"
   objecttolerance="10"
   gridtolerance="10"
   guidetolerance="10"
   inkscape:pageopacity="0"
   inkscape:pageshadow="2"
   inkscape:window-width="1078"
   inkscape:window-height="936"
   id="namedview5"
   showgrid="false"
   inkscape:zoom="2.36"
   inkscape:cx="50"
   inkscape:cy="50"
   inkscape:window-x="0"
   inkscape:window-y="0"
   inkscape:window-maximized="0"
   inkscape:current-layer="Layer_1"
   showguides="true"
   inkscape:guide-bbox="true"><sodipodi:guide
     position="14.830508,21.186441"
     orientation="1,0"
     id="guide7"
     inkscape:locked="false" /><sodipodi:guide
     position="85.169492,50"
     orientation="0,1"
     id="guide9"
     inkscape:locked="false" /></sodipodi:namedview>
<path
   d="m 95.456557,41.082473 h -6.19845 c -1.7112,0 -3.1,-1.38725 -3.1,-3.1 0,-1.7112 1.3888,-3.1 3.1,-3.1 h 6.19845 c 1.7112,0 3.1,1.3888 3.1,3.1 0,1.714299 -1.38725,3.1 -3.1,3.1 z m -12.1768,-20.6336 c -1.21055,1.21055 -3.17285,1.21055 -4.3834,0 -1.21055,-1.209 -1.21055,-3.17285 0,-4.3834 l 4.3834,-4.3834 c 1.21055,-1.209 3.17285,-1.209 4.3834,0 1.21055,1.21055 1.21055,3.1744 0,4.3834 z m -4.5694,24.1924 v 0 c 2.7094,3.2302 4.34775,7.393499 4.34775,11.93965 v 0 c 0,10.27185 -8.32505,18.5969 -18.5969,18.5969 -0.4123,0 -0.9517,0 -1.55,0 0,-2.12505 -0.49445,-4.2501 -1.46165,-6.1969 1.20435,0 2.24905,0 3.01165,0 6.8479,0 12.39845,-5.5521 12.39845,-12.4 0,-6.8479 -5.55055,-12.3969 -12.39845,-12.3969 -2.48155,0 -4.7802,0.744 -6.7177,2.00105 -1.90805,-8.2429 -9.25815,-14.40105 -18.0792,-14.40105 -10.27185,0 -18.5969,8.3266 -18.5969,18.5969 0,2.1793 0.3937,4.2594 1.08035,6.2 h -0.0078 c 2.22735,6.28215 7.72985,11.0112 14.46305,12.1272 -0.98735,1.88325 -1.50195,3.94785 -1.5686,6.02485 -9.4488,-1.7856 -16.9942,-8.928 -19.3719,-18.15205 h 0.01705 c -0.5115,-1.98245 -0.8122,-4.05325 -0.8122,-6.2 0,-13.6927 11.1011,-24.79535 24.7969,-24.79535 2.4366,0 4.78795,0.35805 7.01065,1.0137 3.40225,-4.38185 8.70635,-7.2137 14.68625,-7.2137 10.27185,0 18.5969,8.32505 18.5969,18.5969 0,2.3498 -0.4526,4.587999 -1.24775,6.6588 z M 61.361207,25.585572 c -3.43015,0 -6.53325,1.391901 -8.7761,3.6425 3.627,2.224251 6.64175,5.3506 8.72495,9.073701 1.0292,-0.175151 2.0708,-0.317751 3.15115,-0.317751 3.29375,0 6.3829,0.86645 9.0675,2.36685 v 0 c 0.1488,-0.765699 0.23095,-1.556199 0.23095,-2.36685 0,-6.84945 -5.55055,-12.39845 -12.39845,-12.39845 z m 0,-12.399999 c -1.7112,0 -3.1,-1.38725 -3.1,-3.1 V 3.8871234 c 0,-1.7112008 1.3888,-3.09845084 3.1,-3.09845084 1.7112,0 3.1,1.38725004 3.1,3.09845084 v 6.1984496 c 0,1.7143 -1.38725,3.1 -3.1,3.1 z m -21.91855,7.2633 -4.3834,-4.3834 c -1.21055,-1.209 -1.21055,-3.17285 0,-4.3834 1.21055,-1.209 3.17285,-1.209 4.3834,0 l 4.3834,4.3834 c 1.21055,1.21055 1.21055,3.1744 0,4.3834 -1.21055,1.21055 -3.1713,1.21055 -4.3834,0 z m 9.5201,43.772 5.47925,5.47925 c 3.0256,3.024049 3.0256,7.93135 0,10.9554 -3.0256,3.02715 -7.9329,3.02715 -10.9585,0 -3.0256,-3.02405 -3.0256,-7.931351 0,-10.9554 z"
   id="path2"
   inkscape:connector-curvature="0"
   style="clip-rule:evenodd;fill-rule:evenodd;stroke-width:1.54999995" />
</svg>