<?xml version="1.0" encoding="UTF-8" standalone="no"?>
<svg
   xmlns:dc="http://purl.org/dc/elements/1.1/"
   xmlns:cc="http://creativecommons.org/ns#"
   xmlns:rdf="http://www.w3.org/1999/02/22-rdf-syntax-ns#"
   xmlns:svg="http://www.w3.org/2000/svg"
   xmlns="http://www.w3.org/2000/svg"
   xmlns:sodipodi="http://sodipodi.sourceforge.net/DTD/sodipodi-0.dtd"
   xmlns:inkscape="http://www.inkscape.org/namespaces/inkscape"
   inkscape:version="1.0 (4035a4fb49, 2020-05-01)"
   sodipodi:docname="cloudy-windy-symbolic.svg"
   xml:space="preserve"
   style="enable-background:new 0 0 30 30;"
   viewBox="0 0 30 30"
   y="0px"
   x="0px"
   id="Layer_1"
   version="1.1"><metadata
   id="metadata9"><rdf:RDF><cc:Work
       rdf:about=""><dc:format>image/svg+xml</dc:format><dc:type
         rdf:resource="http://purl.org/dc/dcmitype/StillImage" /></cc:Work></rdf:RDF></metadata><defs
   id="defs7" /><sodipodi:namedview
   inkscape:current-layer="Layer_1"
   inkscape:window-maximized="0"
   inkscape:window-y="0"
   inkscape:window-x="0"
   inkscape:cy="15"
   inkscape:cx="15"
   inkscape:zoom="22.2"
   showgrid="false"
   id="namedview5"
   inkscape:window-height="937"
   inkscape:window-width="1080"
   inkscape:pageshadow="2"
   inkscape:pageopacity="0"
   guidetolerance="10"
   gridtolerance="10"
   objecttolerance="10"
   borderopacity="1"
   bordercolor="#666666"
   pagecolor="#ffffff" />
<path
   style="stroke-width:1.25108"
   id="path2"
   d="m 0.14822437,20.75115 c 0,-0.300259 0.10008639,-0.562986 0.31276998,-0.763158 0.21268359,-0.200173 0.47541038,-0.30026 0.78818045,-0.30026 H 12.471362 c 0.30026,0 0.537965,0.100087 0.738138,0.30026 0.200172,0.200172 0.287748,0.450388 0.287748,0.763158 0,0.300259 -0.100086,0.550475 -0.300259,0.750648 -0.200173,0.200173 -0.437878,0.300259 -0.738138,0.300259 H 1.2491748 c -0.31277007,0 -0.57549686,-0.100086 -0.78818045,-0.300259 C 0.24831076,21.301625 0.14822437,21.038899 0.14822437,20.75115 Z M 3.4385646,16.922846 c 0,-0.30026 0.1125972,-0.550476 0.3377916,-0.750648 0.1751512,-0.187662 0.4253672,-0.287749 0.7381372,-0.287749 H 15.774214 c 0.287748,0 0.525453,0.100087 0.725626,0.287749 0.200173,0.187662 0.287748,0.437878 0.287748,0.738137 0,0.300259 -0.100086,0.550475 -0.287748,0.763159 -0.187662,0.212683 -0.437878,0.31277 -0.725626,0.31277 H 4.5144934 c -0.2877484,0 -0.5379644,-0.112598 -0.750648,-0.325281 C 3.5511618,17.448299 3.4385646,17.210594 3.4385646,16.922846 Z m 0.7756696,-2.915017 c 0,0.112598 0.075065,0.175152 0.2126836,0.175152 h 1.7890443 c 0.1125972,0 0.2126836,-0.06255 0.2877484,-0.175152 0.2877484,-0.675583 0.7131155,-1.238569 1.3011231,-1.688958 0.5880076,-0.450388 1.2385691,-0.700604 1.9767063,-0.750647 l 0.6755831,-0.08758 c 0.137619,0 0.212684,-0.07507 0.212684,-0.225194 l 0.08757,-0.650562 c 0.137619,-1.3636777 0.725627,-2.4896494 1.739001,-3.4029378 1.025887,-0.9132883 2.214413,-1.3636771 3.590601,-1.3636771 1.363677,0 2.539692,0.4503888 3.540556,1.3386555 1.000864,0.9007776 1.588871,2.0267497 1.764022,3.3779164 l 0.08758,0.738137 c 0,0.137619 0.07506,0.200173 0.225194,0.200173 h 2.001728 c 1.138483,0 2.101815,0.400345 2.902506,1.201036 0.800691,0.800692 1.201037,1.764023 1.201037,2.902506 0,1.10095 -0.412857,2.051771 -1.213548,2.852462 -0.813202,0.813202 -1.776534,1.213548 -2.889995,1.213548 h -8.61994 c -0.15013,0 -0.225195,0.07507 -0.225195,0.212683 v 1.676447 c 0,0.15013 0.07507,0.225195 0.225195,0.225195 h 8.61994 c 0.850735,0 1.651426,-0.162641 2.427095,-0.487921 0.77567,-0.325281 1.426232,-0.763159 1.976707,-1.313634 0.550475,-0.550475 0.988353,-1.213548 1.313634,-1.976707 0.32528,-0.763158 0.487921,-1.56385 0.487921,-2.402073 0,-1.125972 -0.275238,-2.164368 -0.825713,-3.115189 C 28.535228,11.530687 27.78458,10.780039 26.833759,10.229563 25.882938,9.6790883 24.832031,9.4038513 23.706059,9.4038513 H 23.318226 C 22.905369,7.7274078 22.029613,6.3512199 20.690958,5.2752911 19.339791,4.2118732 17.813474,3.6739088 16.086984,3.6739088 14.31045,3.6739088 12.7466,4.224384 11.382922,5.3378451 10.019245,6.4387955 9.1559999,7.8525158 8.780676,9.5790063 7.7047472,9.8167113 6.7539265,10.329654 5.9407245,11.092813 5.1275225,11.855972 4.5645366,12.781771 4.2392558,13.870211 v 0.02502 c -0.012511,0.05004 -0.025022,0.07507 -0.025022,0.112597 z m 1.4387419,10.609158 c 0,-0.300259 0.1125972,-0.550475 0.3252808,-0.750648 0.187662,-0.200172 0.437878,-0.287748 0.7381372,-0.287748 H 17.963603 c 0.30026,0 0.562986,0.100086 0.763159,0.300259 0.212684,0.200173 0.31277,0.450389 0.31277,0.750648 0,0.300259 -0.100086,0.550475 -0.31277,0.763159 -0.212683,0.212683 -0.462899,0.31277 -0.763159,0.31277 H 6.7163941 c -0.2877484,0 -0.5379644,-0.100087 -0.750648,-0.31277 -0.2126836,-0.225195 -0.31277,-0.475411 -0.31277,-0.77567 z" />
</svg>
