<?xml version="1.0" encoding="utf-8"?>
<!-- Generator: Adobe Illustrator 15.1.0, SVG Export Plug-In . SVG Version: 6.00 Build 0)  -->
<!DOCTYPE svg PUBLIC "-//W3C//DTD SVG 1.1//EN" "http://www.w3.org/Graphics/SVG/1.1/DTD/svg11.dtd">
<svg version="1.1" id="Layer_1" xmlns="http://www.w3.org/2000/svg" xmlns:xlink="http://www.w3.org/1999/xlink" x="0px" y="0px"
	 width="100px" height="100px" viewBox="0 0 100 100" enable-background="new 0 0 100 100" xml:space="preserve">
<path fill-rule="evenodd" clip-rule="evenodd" d="M72.997,71.639c-1.104,0-1.999-0.895-1.999-2c0-1.104,0.896-1.998,1.999-1.998
	c1.105,0,2,0.895,2,1.998C74.997,70.744,74.103,71.639,72.997,71.639z M69.818,46.76c1.369,1.949,2.18,4.318,2.18,6.881
	c0,5.223-3.343,9.652-7.999,11.303v-4.381c2.389-1.385,4-3.963,4-6.922c0-4.416-3.582-7.998-8-7.998c-1.6,0-3.083,0.48-4.333,1.291
	c-1.231-5.316-5.974-9.291-11.665-9.291c-6.626,0-11.998,5.373-11.998,12c0,1.404,0.252,2.748,0.697,3.998l0,0
	c0.68,1.91,1.822,3.6,3.303,4.926v4.916c-3.66-2.121-6.393-5.648-7.477-9.842c-0.332-1.279-0.523-2.615-0.523-3.998
	c0-8.835,7.163-15.999,15.998-15.999c2.002,0,3.914,0.376,5.68,1.048c1.635-4.682,6.078-8.047,11.318-8.047
	c0.756,0,1.491,0.078,2.208,0.211c-0.132,0.576-0.208,1.174-0.208,1.789c0,4.418,3.582,7.998,7.999,7.998
	c0.616,0,1.212-0.075,1.788-0.207c0.133,0.717,0.211,1.453,0.211,2.207C72.997,41.777,71.786,44.621,69.818,46.76z M59.212,30.852
	c-2.9,0.664-5.175,2.91-5.925,5.775l0,0c1.917,1.372,3.522,3.152,4.679,5.22c0.664-0.113,1.338-0.205,2.033-0.205
	c2.618,0,5.033,0.848,7.006,2.271c0.858-0.98,1.485-2.168,1.785-3.482C63.937,39.528,60.115,35.707,59.212,30.852z M57.999,17.646
	L57.999,17.646L57.999,17.646L57.999,17.646z M31.003,72.639c1.104,0,2,0.896,2,2c0,1.105-0.896,2-2,2s-2-0.895-2-2
	C29.003,73.535,29.898,72.639,31.003,72.639z M41.002,55.641c0-1.104-0.104-2,0.999-2l0,0c1.105,0,1,0.896,1,2v23.998h-1.999l0,0
	l0,0c0-2.209-1.79-4-3.999-4v-2c1.543,0,2.936,0.6,3.999,1.557V55.641z M50.001,69.639c-1.104,0-1-0.895-1-1.998v-8
	c0-1.104-0.104-2,1-2c1.104,0,1,0.896,1,2v8C51.001,68.744,51.104,69.639,50.001,69.639z M50.001,73.639c1.104,0,2,0.896,2,2
	s-0.896,2-2,2c-1.104,0-2-0.896-2-2S48.896,73.639,50.001,73.639z M57.999,53.641L57.999,53.641c1.105,0,1,0.896,1,2v18.016
	c1.824-2.434,4.723-4.018,8-4.018v2c-4.418,0-8,3.582-8,8H57c0-0.273,0.019-0.539,0.04-0.807C56.987,78.498,57,78.088,57,77.639
	V55.641C57,54.537,56.896,53.641,57.999,53.641z"/>
</svg>
