<?xml version="1.0" encoding="utf-8"?>
<!-- Generator: Adobe Illustrator 15.1.0, SVG Export Plug-In . SVG Version: 6.00 Build 0)  -->
<!DOCTYPE svg PUBLIC "-//W3C//DTD SVG 1.1//EN" "http://www.w3.org/Graphics/SVG/1.1/DTD/svg11.dtd">
<svg version="1.1" id="Layer_1" xmlns="http://www.w3.org/2000/svg" xmlns:xlink="http://www.w3.org/1999/xlink" x="0px" y="0px"
	 width="100px" height="100px" viewBox="0 0 100 100" enable-background="new 0 0 100 100" xml:space="preserve">
<path fill-rule="evenodd" clip-rule="evenodd" d="M81.996,41.642L81.996,41.642L81.996,41.642L81.996,41.642z M71.997,53.641
	c0,6.627-5.372,11.998-11.998,11.998c-0.266,0-0.614,0-1,0c0-1.371-0.319-2.742-0.943-3.998c0.777,0,1.45,0,1.943,0
	c4.417,0,7.999-3.582,7.999-8c0-4.417-3.582-7.999-7.999-7.999c-1.601,0-3.084,0.48-4.334,1.291
	c-1.231-5.317-5.973-9.29-11.664-9.29c-6.627,0-11.999,5.372-11.999,11.998c0,1.406,0.254,2.748,0.697,4h-0.004
	c1.437,4.053,4.987,7.104,9.331,7.824c-0.638,1.215-0.969,2.547-1.012,3.887c-6.097-1.152-10.964-5.76-12.498-11.711h0.011
	c-0.33-1.279-0.524-2.615-0.524-4c0-8.835,7.162-15.997,15.998-15.997c2.002,0,3.914,0.375,5.679,1.047
	c1.636-4.682,6.079-8.047,11.319-8.047c0.755,0,1.49,0.078,2.207,0.212c-0.132,0.575-0.208,1.173-0.208,1.788
	c0,4.418,3.582,7.999,7.999,7.999c0.616,0,1.213-0.076,1.788-0.208c0.134,0.717,0.212,1.453,0.212,2.207
	c0,3.135-1.212,5.979-3.18,8.116C71.187,48.708,71.997,51.078,71.997,53.641z M59.21,30.851c-2.899,0.664-5.174,2.91-5.924,5.775
	l0,0c1.917,1.372,3.522,3.152,4.68,5.221c0.664-0.113,1.336-0.205,2.033-0.205c2.617,0,5.032,0.848,7.005,2.271
	c0.858-0.98,1.485-2.168,1.786-3.482C63.936,39.527,60.114,35.707,59.21,30.851z M57.999,17.646L57.999,17.646L57.999,17.646
	L57.999,17.646z M50,58.57l3.535,3.535c1.952,1.951,1.952,5.117,0,7.068c-1.952,1.953-5.118,1.953-7.07,0
	c-1.952-1.951-1.952-5.117,0-7.068L50,58.57z"/>
</svg>
