<?xml version="1.0" encoding="UTF-8" standalone="no"?>
<!-- Generator: Adobe Illustrator 15.1.0, SVG Export Plug-In . SVG Version: 6.00 Build 0)  -->

<svg
   xmlns:dc="http://purl.org/dc/elements/1.1/"
   xmlns:cc="http://creativecommons.org/ns#"
   xmlns:rdf="http://www.w3.org/1999/02/22-rdf-syntax-ns#"
   xmlns:svg="http://www.w3.org/2000/svg"
   xmlns="http://www.w3.org/2000/svg"
   xmlns:sodipodi="http://sodipodi.sourceforge.net/DTD/sodipodi-0.dtd"
   xmlns:inkscape="http://www.inkscape.org/namespaces/inkscape"
   version="1.1"
   id="Layer_1"
   x="0px"
   y="0px"
   width="100px"
   height="100px"
   viewBox="0 0 100 100"
   enable-background="new 0 0 100 100"
   xml:space="preserve"
   sodipodi:docname="Cloud-Hail.svg"
   inkscape:version="0.92.4 5da689c313, 2019-01-14"><metadata
   id="metadata9"><rdf:RDF><cc:Work
       rdf:about=""><dc:format>image/svg+xml</dc:format><dc:type
         rdf:resource="http://purl.org/dc/dcmitype/StillImage" /></cc:Work></rdf:RDF></metadata><defs
   id="defs7" /><sodipodi:namedview
   pagecolor="#ffffff"
   bordercolor="#666666"
   borderopacity="1"
   objecttolerance="10"
   gridtolerance="10"
   guidetolerance="10"
   inkscape:pageopacity="0"
   inkscape:pageshadow="2"
   inkscape:window-width="640"
   inkscape:window-height="480"
   id="namedview5"
   showgrid="false"
   inkscape:zoom="2.36"
   inkscape:cx="50"
   inkscape:cy="50"
   inkscape:window-x="0"
   inkscape:window-y="0"
   inkscape:window-maximized="0"
   inkscape:current-layer="Layer_1" />
<path
   d="m 81.60086,71.198791 v -9.823993 c 5.357115,-3.101251 8.967393,-8.882181 8.967393,-15.517468 0,-9.90472 -8.030066,-17.937028 -17.934785,-17.937028 -3.590097,0 -6.915589,1.076356 -9.7186,2.894949 C 60.154463,18.892364 49.518718,9.9832738 36.757169,9.9832738 c -14.8582,0 -26.9044204,12.0462202 -26.9044204,26.9044202 0,7.960552 3.4757334,15.086927 8.9673924,20.013499 V 67.924874 C 8.110397,61.717887 0.88535593,50.160512 0.88535593,36.887694 c 0,-19.811681 16.06013207,-35.8718129 35.87181307,-35.8718129 13.463423,0 25.180009,7.4246154 31.317482,18.3944789 1.486717,-0.253392 2.995858,-0.459693 4.558817,-0.459693 14.8582,0 26.90442,12.04622 26.90442,26.906663 0,11.712101 -7.49413,21.645972 -17.937028,25.341461 z m -49.326266,1.565202 c -2.475619,0 -2.242409,-2.006956 -2.242409,-4.480333 V 50.34439 c 0,-2.47562 -0.23321,-4.484818 2.242409,-4.484818 2.47562,0 2.242409,2.009198 2.242409,4.484818 v 17.93927 c 0,2.473377 0.233211,4.480333 -2.242409,4.480333 z m 0,8.969635 c 2.47562,0 4.482575,2.009198 4.482575,4.484817 0,2.477862 -2.006955,4.484818 -4.482575,4.484818 -2.475619,0 -4.484817,-2.006956 -4.484817,-4.484818 0,-2.475619 2.006956,-4.484817 4.484817,-4.484817 z m 17.937028,0 c -2.475619,0 -2.242409,-2.006956 -2.242409,-4.484818 V 59.314025 c 0,-2.477862 -0.23321,-4.484818 2.242409,-4.484818 2.475619,0 2.242409,2.006956 2.242409,4.484818 V 77.24881 c 0,2.477862 0.23321,4.484818 -2.242409,4.484818 z m 0,8.969635 c 2.475619,0 4.482575,2.006956 4.482575,4.484817 0,2.47562 -2.006956,4.484818 -4.482575,4.484818 -2.475619,0 -4.484817,-2.009198 -4.484817,-4.484818 0,-2.480104 2.006955,-4.484817 4.484817,-4.484817 z M 68.14865,72.763993 c -2.475619,0 -2.242409,-2.006956 -2.242409,-4.480333 V 50.34439 c 0,-2.47562 -0.23321,-4.484818 2.242409,-4.484818 2.475619,0 2.242409,2.009198 2.242409,4.484818 v 17.93927 c 0,2.473377 0.23321,4.480333 -2.242409,4.480333 z m 0,8.969635 c 2.475619,0 4.484818,2.009198 4.484818,4.484817 0,2.477862 -2.009199,4.484818 -4.484818,4.484818 -2.475619,0 -4.484818,-2.006956 -4.484818,-4.484818 0,-2.475619 2.009199,-4.484817 4.484818,-4.484817 z"
   id="path2"
   inkscape:connector-curvature="0"
   style="clip-rule:evenodd;fill-rule:evenodd;stroke-width:2.24240875" />
</svg>