<?xml version="1.0" encoding="utf-8"?>
<!-- Generator: Adobe Illustrator 15.1.0, SVG Export Plug-In . SVG Version: 6.00 Build 0)  -->
<!DOCTYPE svg PUBLIC "-//W3C//DTD SVG 1.1//EN" "http://www.w3.org/Graphics/SVG/1.1/DTD/svg11.dtd">
<svg version="1.1" id="Layer_1" xmlns="http://www.w3.org/2000/svg" xmlns:xlink="http://www.w3.org/1999/xlink" x="0px" y="0px"
	 width="100px" height="100px" viewBox="0 0 100 100" enable-background="new 0 0 100 100" xml:space="preserve">
<path fill-rule="evenodd" clip-rule="evenodd" d="M79.997,43.642h-4c-1.104,0-2-0.895-2-2c0-1.104,0.896-2,2-2h4
	c1.104,0,1.999,0.896,1.999,2C81.996,42.748,81.101,43.642,79.997,43.642z M72.14,30.33c-0.781,0.781-2.047,0.781-2.828,0
	s-0.781-2.047,0-2.828l2.828-2.828c0.781-0.781,2.047-0.781,2.828,0s0.781,2.047,0,2.828L72.14,30.33z M69.192,45.937L69.192,45.937
	c1.749,2.084,2.805,4.77,2.805,7.704c0,5.223-3.342,9.652-7.998,11.303v-4.381c2.389-1.385,3.999-3.963,3.999-6.922
	c0-4.417-3.581-7.999-7.999-7.999c-1.6,0-3.083,0.48-4.334,1.291c-1.231-5.316-5.973-9.291-11.664-9.291
	c-6.627,0-11.998,5.373-11.998,12c0,3.549,1.55,6.729,3.999,8.924v4.916c-4.776-2.768-7.999-7.922-7.999-13.84
	c0-8.836,7.162-15.999,15.998-15.999c1.572,0,3.09,0.232,4.523,0.655c2.195-2.828,5.618-4.654,9.475-4.654
	c6.627,0,11.999,5.371,11.999,11.998C69.998,43.158,69.705,44.601,69.192,45.937z M57.999,33.644c-2.212,0-4.215,0.898-5.662,2.351
	c2.34,1.435,4.285,3.453,5.629,5.853c0.664-0.113,1.337-0.205,2.033-0.205c2.125,0,4.118,0.559,5.85,1.527l0,0
	c0.096-0.494,0.15-1.004,0.15-1.527C65.999,37.225,62.417,33.644,57.999,33.644z M57.999,25.645c-1.104,0-2-0.895-2-2v-3.999
	c0-1.104,0.896-2,2-2c1.104,0,2,0.896,2,2v3.999C59.999,24.75,59.104,25.645,57.999,25.645z M43.858,30.33l-2.828-2.828
	c-0.78-0.781-0.78-2.047,0-2.828c0.781-0.781,2.048-0.781,2.828,0l2.828,2.828c0.781,0.781,0.781,2.047,0,2.828
	C45.906,31.111,44.64,31.111,43.858,30.33z M42.001,57.641c1.104,0,2,0.896,2,2c0,1.105-0.896,2-2,2c-1.104,0-2-0.895-2-2
	C40.001,58.537,40.897,57.641,42.001,57.641z M42.001,65.641c1.104,0,2,0.895,2,2c0,1.104-0.896,1.998-2,1.998
	c-1.104,0-2-0.895-2-1.998C40.001,66.535,40.897,65.641,42.001,65.641z M50.001,61.641c1.104,0,1.999,0.895,1.999,2
	c0,1.104-0.896,2-1.999,2c-1.105,0-2-0.896-2-2C48.001,62.535,48.896,61.641,50.001,61.641z M50.001,69.639
	c1.104,0,1.999,0.896,1.999,2c0,1.105-0.896,2-1.999,2c-1.105,0-2-0.895-2-2C48.001,70.535,48.896,69.639,50.001,69.639z
	 M57.999,57.641c1.104,0,2,0.896,2,2c0,1.105-0.896,2-2,2c-1.104,0-2-0.895-2-2C55.999,58.537,56.896,57.641,57.999,57.641z
	 M57.999,65.641c1.104,0,2,0.895,2,2c0,1.104-0.896,1.998-2,1.998c-1.104,0-2-0.895-2-1.998
	C55.999,66.535,56.896,65.641,57.999,65.641z"/>
</svg>
