<?xml version="1.0" encoding="UTF-8" standalone="no"?>
<!-- Generator: Adobe Illustrator 15.1.0, SVG Export Plug-In . SVG Version: 6.00 Build 0)  -->

<svg
   xmlns:dc="http://purl.org/dc/elements/1.1/"
   xmlns:cc="http://creativecommons.org/ns#"
   xmlns:rdf="http://www.w3.org/1999/02/22-rdf-syntax-ns#"
   xmlns:svg="http://www.w3.org/2000/svg"
   xmlns="http://www.w3.org/2000/svg"
   xmlns:sodipodi="http://sodipodi.sourceforge.net/DTD/sodipodi-0.dtd"
   xmlns:inkscape="http://www.inkscape.org/namespaces/inkscape"
   version="1.1"
   id="Layer_1"
   x="0px"
   y="0px"
   width="100px"
   height="100px"
   viewBox="0 0 100 100"
   enable-background="new 0 0 100 100"
   xml:space="preserve"
   sodipodi:docname="Cloud-Drizzle-Sun-Alt-symbolic.svg"
   inkscape:version="0.92.4 5da689c313, 2019-01-14"><metadata
   id="metadata9"><rdf:RDF><cc:Work
       rdf:about=""><dc:format>image/svg+xml</dc:format><dc:type
         rdf:resource="http://purl.org/dc/dcmitype/StillImage" /></cc:Work></rdf:RDF></metadata><defs
   id="defs7" /><sodipodi:namedview
   pagecolor="#ffffff"
   bordercolor="#666666"
   borderopacity="1"
   objecttolerance="10"
   gridtolerance="10"
   guidetolerance="10"
   inkscape:pageopacity="0"
   inkscape:pageshadow="2"
   inkscape:window-width="1040"
   inkscape:window-height="480"
   id="namedview5"
   showgrid="false"
   inkscape:zoom="2.36"
   inkscape:cx="50"
   inkscape:cy="50"
   inkscape:window-x="1335"
   inkscape:window-y="562"
   inkscape:window-maximized="0"
   inkscape:current-layer="Layer_1"
   showguides="true"
   inkscape:guide-bbox="true"><sodipodi:guide
     position="36.016949,50"
     orientation="0,1"
     id="guide7"
     inkscape:locked="false" /><sodipodi:guide
     position="14.830508,70.762712"
     orientation="1,0"
     id="guide9"
     inkscape:locked="false" /></sodipodi:namedview>
<path
   d="m 95.401557,41.895195 h -6.2 c -1.7112,0 -3.1,-1.38725 -3.1,-3.1 0,-1.7112 1.3888,-3.0969 3.1,-3.0969 h 6.2 c 1.7112,0 3.09845,1.38725 3.09845,3.0969 0,1.7143 -1.3857,3.1 -3.09845,3.1 z m -12.17835,-20.6336 c -1.21055,1.21055 -3.17285,1.21055 -4.3834,0 -1.21055,-1.209 -1.21055,-3.17285 0,-4.38185 l 4.3834,-4.3834 c 1.21055,-1.21055 3.17285,-1.21055 4.3834,0 1.21055,1.209 1.21055,3.17285 0,4.3834 z m -4.56785,24.19085 v 0 c 2.71095,3.2333 4.3493,7.3935 4.3493,11.9443 v 0 c 0,8.10185 -5.19095,14.973 -12.4217,17.52275 -0.04185,-2.0708 -0.6727,-4.123 -1.8941,-5.90085 4.7337,-1.74685 8.11425,-6.28525 8.11425,-11.6219 0,-6.8479 -5.55055,-12.4 -12.39845,-12.4 -2.48155,0 -4.77865,0.7471 -6.71615,2.00105 -1.9096,-8.2398 -9.2597,-14.3995 -18.08075,-14.3995 -10.2703,0 -18.5969,8.3266 -18.5969,18.59845 0,2.1762 0.3937,4.2563 1.08035,6.2 h 0.02325 c 1.51125,4.247 4.48725,7.79805 8.36225,9.98975 l -0.0899,0.08835 c -1.519,1.519 -2.4738,3.3852 -2.9016,5.33975 -5.81405,-3.26585 -10.15405,-8.8133 -11.8606,-15.41785 v 0 c -0.5115,-1.98555 -0.8122,-4.05635 -0.8122,-6.2 0,-13.6958 11.10265,-24.7969 24.7969,-24.7969 2.4366,0 4.78795,0.3596 7.01065,1.0137 3.40225,-4.38185 8.7079,-7.2137 14.68625,-7.2137 10.27185,0 18.59845,8.3266 18.59845,18.5969 -0.0015,2.34825 -0.4557,4.588 -1.2493,6.6557 z m -17.3507,-19.0526 c -3.4286,0 -6.5317,1.3919 -8.7761,3.6425 3.627,2.2258 6.6433,5.35215 8.72495,9.07215 1.0292,-0.17515 2.07235,-0.31775 3.15115,-0.31775 3.2953,0 6.3829,0.86645 9.0675,2.36685 v 0 c 0.1488,-0.7657 0.23095,-1.5562 0.23095,-2.36685 0,-6.84635 -5.55055,-12.3969 -12.39845,-12.3969 z m 0,-12.4 c -1.7112,0 -3.09845,-1.38725 -3.09845,-3.09845 V 4.7029449 c 0,-1.71275 1.38725,-3.1 3.09845,-3.1 1.7112,0 3.1,1.38725 3.1,3.1 v 6.1984501 c 0,1.7112 -1.38725,3.09845 -3.1,3.09845 z m -21.91545,7.26175 -4.3834,-4.38185 c -1.21055,-1.21055 -1.21055,-3.1744 0,-4.3834 1.209,-1.21055 3.17285,-1.21055 4.3834,0 l 4.3834,4.3834 c 1.209,1.209 1.209,3.17285 0,4.38185 -1.21055,1.21055 -3.1744,1.21055 -4.3834,0 z m -1.33145,47.3091 3.28755,3.28755 c 1.8166,1.8166 1.8166,4.7585 0,6.5751 -1.81505,1.8166 -4.7585,1.8166 -6.5751,0 -1.81505,-1.8166 -1.81505,-4.7585 0,-6.5751 z m 10.84845,12.3969 3.28755,3.28755 c 1.8166,1.8166 1.8166,4.7616 0,6.5751 -1.81505,1.8166 -4.7585,1.8166 -6.5751,0 -1.81505,-1.8135 -1.81505,-4.7585 0,-6.5751 z m 10.84845,-12.3969 3.28755,3.28755 c 1.8166,1.8166 1.8166,4.7585 0,6.5751 -1.81505,1.8166 -4.7585,1.8166 -6.57355,0 -1.8166,-1.8166 -1.8166,-4.7585 0,-6.5751 z"
   id="path2"
   inkscape:connector-curvature="0"
   style="clip-rule:evenodd;fill-rule:evenodd;stroke-width:1.54999995" />
</svg>