<?xml version="1.0" encoding="UTF-8" standalone="no"?>
<!-- Generator: Adobe Illustrator 15.1.0, SVG Export Plug-In . SVG Version: 6.00 Build 0)  -->

<svg
   xmlns:dc="http://purl.org/dc/elements/1.1/"
   xmlns:cc="http://creativecommons.org/ns#"
   xmlns:rdf="http://www.w3.org/1999/02/22-rdf-syntax-ns#"
   xmlns:svg="http://www.w3.org/2000/svg"
   xmlns="http://www.w3.org/2000/svg"
   xmlns:sodipodi="http://sodipodi.sourceforge.net/DTD/sodipodi-0.dtd"
   xmlns:inkscape="http://www.inkscape.org/namespaces/inkscape"
   version="1.1"
   id="Layer_1"
   x="0px"
   y="0px"
   width="100px"
   height="100px"
   viewBox="0 0 100 100"
   enable-background="new 0 0 100 100"
   xml:space="preserve"
   sodipodi:docname="Cloud-Fog-Moon.svg"
   inkscape:version="0.92.4 5da689c313, 2019-01-14"><metadata
   id="metadata9"><rdf:RDF><cc:Work
       rdf:about=""><dc:format>image/svg+xml</dc:format><dc:type
         rdf:resource="http://purl.org/dc/dcmitype/StillImage" /></cc:Work></rdf:RDF></metadata><defs
   id="defs7" /><sodipodi:namedview
   pagecolor="#ffffff"
   bordercolor="#666666"
   borderopacity="1"
   objecttolerance="10"
   gridtolerance="10"
   guidetolerance="10"
   inkscape:pageopacity="0"
   inkscape:pageshadow="2"
   inkscape:window-width="640"
   inkscape:window-height="480"
   id="namedview5"
   showgrid="false"
   inkscape:zoom="2.36"
   inkscape:cx="50"
   inkscape:cy="50"
   inkscape:window-x="0"
   inkscape:window-y="0"
   inkscape:window-maximized="0"
   inkscape:current-layer="Layer_1" />
<path
   d="m 88.268506,43.584713 v 0 c 1.195581,1.705205 2.135381,3.592556 2.846529,5.58842 h 0.03682 v 0 h -8.500833 v 0 0 c -2.68182,-4.629243 -7.677294,-7.748991 -13.411045,-7.748991 -3.100372,0 -5.972091,0.930111 -8.396194,2.499674 C 58.458435,33.622831 49.26777,25.922283 38.240135,25.922283 c -12.839415,0 -23.248913,10.409498 -23.248913,23.25085 v 0 H 7.2402881 v 0 c 0,-17.119865 13.8799779,-30.999843 30.9998429,-30.999843 3.881278,0 7.584284,0.728588 11.00632,2.030744 v 0 C 52.414643,11.129633 61.025926,4.6111013 71.177706,4.6111013 c 1.464926,0 2.891097,0.1511431 4.278513,0.4088615 -0.25578,1.1161339 -0.403048,2.2729601 -0.403048,3.4666031 0,8.5609021 6.940957,15.4979841 15.499921,15.4979841 1.193644,0 2.348533,-0.147268 3.464666,-0.401111 0.259656,1.389355 0.410799,2.813587 0.410799,4.276575 0,6.072854 -2.348532,11.583765 -6.160051,15.724699 z M 67.714978,12.763142 c -5.619424,1.284717 -10.027765,5.638801 -11.479127,11.188467 v 0 c 3.712696,2.658569 6.822756,6.109669 9.064712,10.118838 1.286655,-0.220901 2.592686,-0.397235 3.93941,-0.397235 5.074922,0 9.752608,1.643197 13.575753,4.40059 v 0 c 1.662575,-1.898977 2.877533,-4.202941 3.458853,-6.747184 C 76.870764,29.57297 69.46475,22.168894 67.714978,12.763142 Z M 11.115753,56.922126 h 77.501545 c 2.139257,0 3.873527,1.736208 3.873527,3.875464 0,2.139257 -1.736208,3.875465 -3.873527,3.875465 H 11.115753 c -2.1392567,0 -3.8754649,-1.736208 -3.8754649,-3.875465 0,-2.139256 1.7362082,-3.875464 3.8754649,-3.875464 z m 0,15.501859 h 77.501545 c 2.139257,0 3.873527,1.73427 3.873527,3.873527 0,2.139256 -1.736208,3.875464 -3.873527,3.875464 H 11.115753 c -2.1392567,0 -3.8754649,-1.736208 -3.8754649,-3.875464 0,-2.139257 1.7362082,-3.873527 3.8754649,-3.873527 z m 0,15.497984 h 77.501545 c 2.139257,0 3.873527,1.736208 3.873527,3.875464 0,2.139257 -1.736208,3.875465 -3.873527,3.875465 H 11.115753 c -2.1392567,0 -3.8754649,-1.736208 -3.8754649,-3.875465 0,-2.139256 1.7362082,-3.875464 3.8754649,-3.875464 z"
   id="path2"
   inkscape:connector-curvature="0"
   style="clip-rule:evenodd;fill-rule:evenodd;stroke-width:1.93773234" />
</svg>