<?xml version="1.0" encoding="UTF-8" standalone="no"?>
<!-- Generator: Adobe Illustrator 15.1.0, SVG Export Plug-In . SVG Version: 6.00 Build 0)  -->

<svg
   xmlns:dc="http://purl.org/dc/elements/1.1/"
   xmlns:cc="http://creativecommons.org/ns#"
   xmlns:rdf="http://www.w3.org/1999/02/22-rdf-syntax-ns#"
   xmlns:svg="http://www.w3.org/2000/svg"
   xmlns="http://www.w3.org/2000/svg"
   xmlns:sodipodi="http://sodipodi.sourceforge.net/DTD/sodipodi-0.dtd"
   xmlns:inkscape="http://www.inkscape.org/namespaces/inkscape"
   version="1.1"
   id="Layer_1"
   x="0px"
   y="0px"
   width="100px"
   height="100px"
   viewBox="0 0 100 100"
   enable-background="new 0 0 100 100"
   xml:space="preserve"
   sodipodi:docname="Cloud-Rain-Moon-Alt-symbolic.svg"
   inkscape:version="0.92.4 5da689c313, 2019-01-14"><metadata
   id="metadata9"><rdf:RDF><cc:Work
       rdf:about=""><dc:format>image/svg+xml</dc:format><dc:type
         rdf:resource="http://purl.org/dc/dcmitype/StillImage" /></cc:Work></rdf:RDF></metadata><defs
   id="defs7" /><sodipodi:namedview
   pagecolor="#ffffff"
   bordercolor="#666666"
   borderopacity="1"
   objecttolerance="10"
   gridtolerance="10"
   guidetolerance="10"
   inkscape:pageopacity="0"
   inkscape:pageshadow="2"
   inkscape:window-width="1078"
   inkscape:window-height="936"
   id="namedview5"
   showgrid="false"
   inkscape:zoom="2.36"
   inkscape:cx="50"
   inkscape:cy="50"
   inkscape:window-x="0"
   inkscape:window-y="0"
   inkscape:window-maximized="0"
   inkscape:current-layer="Layer_1"
   showguides="true"
   inkscape:guide-bbox="true"><sodipodi:guide
     position="14.830508,58.050847"
     orientation="1,0"
     id="guide7"
     inkscape:locked="false" /><sodipodi:guide
     position="37.711864,50"
     orientation="0,1"
     id="guide9"
     inkscape:locked="false" /></sodipodi:namedview>
<path
   d="m 98.556557,37.982473 z m -15.49845,18.59845 c 0,10.27185 -8.3266,18.596899 -18.5969,18.596899 -0.4123,0 -0.9517,0 -1.55,0 0,-2.125049 -0.49445,-4.250099 -1.46165,-6.1969 1.20435,0 2.2475,0 3.01165,0 6.84635,0 12.39845,-5.5521 12.39845,-12.399999 0,-6.84635 -5.5521,-12.398451 -12.39845,-12.398451 -2.48155,0 -4.7802,0.744 -6.7177,2.00105 -1.90805,-8.24135 -9.25815,-14.3995 -18.0792,-14.3995 -10.27185,0 -18.59845,8.3266 -18.59845,18.5969 0,2.1793 0.3937,4.2594 1.08035,6.2 h -0.0062 c 2.22735,6.28215 7.72985,11.0112 14.46305,12.1272 -0.9889,1.88325 -1.50195,3.94785 -1.5686,6.02485 -9.45035,-1.7856 -16.9942,-8.928 -19.3719,-18.15205 h 0.01705 c -0.5115,-1.98245 -0.8122,-4.05325 -0.8122,-6.2 0,-13.69425 11.1011,-24.79535 24.7969,-24.79535 3.1031,0 6.0667,0.58125 8.80245,1.62285 2.5358,-7.257099 9.42245,-12.472849 17.54445,-12.472849 1.17025,0 2.3095,0.1209 3.42085,0.3286 -0.2046,0.89125 -0.3224,1.81815 -0.3224,2.7714 0,6.847899 5.5521,12.398449 12.39845,12.398449 0.9548,0 1.88015,-0.1178 2.7714,-0.3224 0.2077,1.11135 0.3286,2.25215 0.3286,3.42085 0,4.85925 -1.8786,9.26745 -4.929,12.5798 2.1235,3.0225 3.379,6.696001 3.379,10.668651 z m -19.81985,-35.3245 c -4.49345,1.0292 -8.0197,4.510499 -9.1822,8.951249 v 0 c 2.97135,2.1266 5.4591,4.8856 7.254,8.09255 1.0292,-0.17515 2.0708,-0.31775 3.15115,-0.31775 4.05635,0 7.7996,1.3144 10.85775,3.52005 1.3299,-1.519 2.30175,-3.360399 2.7683,-5.3971 -7.5237,-1.401199 -13.4478,-7.322199 -14.849,-14.848999 z M 61.361207,0.78867257 Z m -12.39845,63.43220043 5.47925,5.47925 c 3.0256,3.024049 3.0256,7.93135 0,10.9554 -3.0256,3.02715 -7.9329,3.02715 -10.9585,0 -3.0256,-3.02405 -3.0256,-7.931351 0,-10.9554 z"
   id="path2"
   inkscape:connector-curvature="0"
   style="clip-rule:evenodd;fill-rule:evenodd;stroke-width:1.54999995" />
</svg>