<?xml version="1.0" encoding="utf-8"?>
<!-- Generator: Adobe Illustrator 15.1.0, SVG Export Plug-In . SVG Version: 6.00 Build 0)  -->
<!DOCTYPE svg PUBLIC "-//W3C//DTD SVG 1.1//EN" "http://www.w3.org/Graphics/SVG/1.1/DTD/svg11.dtd">
<svg version="1.1" id="Layer_1" xmlns="http://www.w3.org/2000/svg" xmlns:xlink="http://www.w3.org/1999/xlink" x="0px" y="0px"
	 width="100px" height="100px" viewBox="0 0 100 100" enable-background="new 0 0 100 100" xml:space="preserve">
<path fill-rule="evenodd" clip-rule="evenodd" d="M79.997,43.643h-4c-1.104,0-2-0.896-2-2c0-1.104,0.896-2,2-2h4
	c1.104,0,2,0.896,2,2C81.997,42.746,81.101,43.643,79.997,43.643z M72.14,30.33c-0.781,0.781-2.047,0.781-2.828,0
	s-0.781-2.047,0-2.828l2.828-2.828c0.781-0.781,2.047-0.781,2.828,0s0.781,2.047,0,2.828L72.14,30.33z M69.818,43.643H29.177
	c0.281-0.693,0.613-1.359,0.984-2h27.672c0.041,0.07,0.094,0.134,0.133,0.205c0.664-0.114,1.337-0.205,2.033-0.205
	c2.125,0,4.119,0.559,5.85,1.527l0,0c0.096-0.494,0.15-1.006,0.15-1.527c0-4.418-3.582-7.999-8-7.999
	c-2.025,0-3.869,0.759-5.277,1.999H36.263c2.294-1.271,4.93-1.999,7.738-1.999c1.572,0,3.09,0.232,4.523,0.655
	c2.195-2.828,5.618-4.654,9.475-4.654c6.627,0,11.999,5.371,11.999,11.998C69.998,42.326,69.931,42.992,69.818,43.643z
	 M57.999,25.645c-1.104,0-1.999-0.896-1.999-2v-3.999c0-1.104,0.896-2,1.999-2c1.105,0,2,0.896,2,2v3.999
	C59.999,24.749,59.104,25.645,57.999,25.645z M43.858,30.33l-2.827-2.828c-0.781-0.781-0.781-2.047,0-2.828
	c0.78-0.781,2.047-0.781,2.827,0l2.828,2.828c0.781,0.781,0.781,2.047,0,2.828C45.906,31.111,44.64,31.111,43.858,30.33z
	 M33.444,37.643h21.081c0.696,0.611,1.337,1.278,1.918,2H31.524C32.104,38.92,32.749,38.255,33.444,37.643z M71.825,51.641H28.142
	c-0.082-0.656-0.139-1.32-0.139-2h43.303C71.534,50.285,71.71,50.953,71.825,51.641z M33.444,61.641h35.48
	c-0.68,0.758-1.447,1.434-2.299,1.998H36.263C35.247,63.078,34.308,62.4,33.444,61.641z M30.161,57.641H71.3
	c-0.246,0.699-0.555,1.367-0.92,2H31.524C31.02,59.012,30.567,58.342,30.161,57.641z M28.142,47.641
	c0.085-0.682,0.218-1.346,0.387-1.998h40.764c-0.035,0.098-0.062,0.197-0.1,0.295l0,0c0.445,0.529,0.845,1.102,1.194,1.703H28.142z
	 M28.528,53.641h43.47c0,0.684-0.071,1.348-0.181,2H29.177C28.915,54.994,28.704,54.324,28.528,53.641z"/>
</svg>
