<?xml version="1.0" encoding="UTF-8" standalone="no"?>
<!-- Generator: Adobe Illustrator 15.1.0, SVG Export Plug-In . SVG Version: 6.00 Build 0)  -->

<svg
   xmlns:dc="http://purl.org/dc/elements/1.1/"
   xmlns:cc="http://creativecommons.org/ns#"
   xmlns:rdf="http://www.w3.org/1999/02/22-rdf-syntax-ns#"
   xmlns:svg="http://www.w3.org/2000/svg"
   xmlns="http://www.w3.org/2000/svg"
   xmlns:sodipodi="http://sodipodi.sourceforge.net/DTD/sodipodi-0.dtd"
   xmlns:inkscape="http://www.inkscape.org/namespaces/inkscape"
   version="1.1"
   id="Layer_1"
   x="0px"
   y="0px"
   width="100px"
   height="100px"
   viewBox="0 0 100 100"
   enable-background="new 0 0 100 100"
   xml:space="preserve"
   sodipodi:docname="Cloud-Fog.svg"
   inkscape:version="0.92.4 5da689c313, 2019-01-14"><metadata
   id="metadata9"><rdf:RDF><cc:Work
       rdf:about=""><dc:format>image/svg+xml</dc:format><dc:type
         rdf:resource="http://purl.org/dc/dcmitype/StillImage" /></cc:Work></rdf:RDF></metadata><defs
   id="defs7" /><sodipodi:namedview
   pagecolor="#ffffff"
   bordercolor="#666666"
   borderopacity="1"
   objecttolerance="10"
   gridtolerance="10"
   guidetolerance="10"
   inkscape:pageopacity="0"
   inkscape:pageshadow="2"
   inkscape:window-width="640"
   inkscape:window-height="480"
   id="namedview5"
   showgrid="false"
   inkscape:zoom="2.36"
   inkscape:cx="50"
   inkscape:cy="50"
   inkscape:window-x="0"
   inkscape:window-y="0"
   inkscape:window-maximized="0"
   inkscape:current-layer="Layer_1" />
<path
   d="M 89.68191,74.463313 H 11.166547 c -2.1672948,0 -3.9262589,-1.758963 -3.9262589,-3.926259 0,-2.169258 1.7589641,-3.926258 3.9262589,-3.926258 H 89.68191 c 2.167296,0 3.926259,1.757 3.926259,3.926258 0,2.165332 -1.757001,3.926259 -3.926259,3.926259 z m 0,-15.705036 H 11.166547 c -2.1672948,0 -3.9262589,-1.757001 -3.9262589,-3.926259 0,-2.167294 1.7589641,-3.926258 3.9262589,-3.926258 H 89.68191 c 2.167296,0 3.926259,1.758964 3.926259,3.926258 0,2.169258 -1.757001,3.926259 -3.926259,3.926259 z M 70.052579,35.20465 c -3.14297,0 -6.052328,0.942302 -8.506241,2.534401 -2.418575,-10.43796 -11.727735,-18.239437 -22.899905,-18.239437 -13.007695,0 -23.553627,10.547894 -23.553627,23.557554 H 7.2402881 c 0,-17.344249 14.0618969,-31.408109 31.4061449,-31.408109 11.78663,0 22.043981,6.501885 27.415103,16.105514 1.303518,-0.221833 2.624705,-0.402441 3.991043,-0.402441 10.251462,0 18.948126,6.560779 22.185326,15.705036 H 83.637434 C 80.920464,38.365289 75.861479,35.20465 70.052579,35.20465 Z M 11.166547,82.311905 H 89.68191 c 2.167296,0 3.926259,1.758964 3.926259,3.926259 0,2.169258 -1.758963,3.926259 -3.926259,3.926259 H 11.166547 c -2.1672948,0 -3.9262589,-1.757001 -3.9262589,-3.926259 0,-2.167295 1.7570009,-3.926259 3.9262589,-3.926259 z"
   id="path2"
   inkscape:connector-curvature="0"
   style="clip-rule:evenodd;fill-rule:evenodd;stroke-width:1.96312952" />
</svg>