<?xml version="1.0" encoding="UTF-8" standalone="no"?>
<!-- Generator: Adobe Illustrator 15.1.0, SVG Export Plug-In . SVG Version: 6.00 Build 0)  -->

<svg
   xmlns:dc="http://purl.org/dc/elements/1.1/"
   xmlns:cc="http://creativecommons.org/ns#"
   xmlns:rdf="http://www.w3.org/1999/02/22-rdf-syntax-ns#"
   xmlns:svg="http://www.w3.org/2000/svg"
   xmlns="http://www.w3.org/2000/svg"
   xmlns:sodipodi="http://sodipodi.sourceforge.net/DTD/sodipodi-0.dtd"
   xmlns:inkscape="http://www.inkscape.org/namespaces/inkscape"
   version="1.1"
   id="Layer_1"
   x="0px"
   y="0px"
   width="100px"
   height="100px"
   viewBox="0 0 100 100"
   enable-background="new 0 0 100 100"
   xml:space="preserve"
   sodipodi:docname="Cloud-Refresh.svg"
   inkscape:version="0.92.4 5da689c313, 2019-01-14"><metadata
   id="metadata9"><rdf:RDF><cc:Work
       rdf:about=""><dc:format>image/svg+xml</dc:format><dc:type
         rdf:resource="http://purl.org/dc/dcmitype/StillImage" /></cc:Work></rdf:RDF></metadata><defs
   id="defs7" /><sodipodi:namedview
   pagecolor="#ffffff"
   bordercolor="#666666"
   borderopacity="1"
   objecttolerance="10"
   gridtolerance="10"
   guidetolerance="10"
   inkscape:pageopacity="0"
   inkscape:pageshadow="2"
   inkscape:window-width="640"
   inkscape:window-height="480"
   id="namedview5"
   showgrid="false"
   inkscape:zoom="2.36"
   inkscape:cx="50"
   inkscape:cy="50"
   inkscape:window-x="0"
   inkscape:window-y="0"
   inkscape:window-maximized="0"
   inkscape:current-layer="Layer_1" />
<path
   d="m 81.51212,73.434589 c -0.151765,-3.129025 -0.758822,-6.128603 -1.765377,-8.949635 6.316076,-2.742918 10.766343,-8.967489 10.766343,-16.292351 0,-9.860221 -7.989948,-17.854632 -17.850168,-17.854632 -3.570927,0 -6.882961,1.073509 -9.672747,2.879059 -2.74515,-11.864403 -13.330715,-20.731459 -26.032054,-20.731459 -14.79033,0 -26.779716,11.987153 -26.779716,26.777484 0,9.31119 4.782809,17.470757 11.996081,22.264726 -1.312315,2.74515 -2.229598,5.71125 -2.693818,8.831347 C 8.6116567,64.239453 1.2510847,52.625015 1.2510847,39.263055 c 0,-19.718209 15.9865913,-35.7048003 35.7070323,-35.7048003 13.399902,0 25.061208,7.3918173 31.167492,18.3099253 1.481935,-0.254429 2.981724,-0.457525 4.537309,-0.457525 14.79033,0 26.777484,11.989385 26.777484,26.781948 0,11.681393 -7.49225,21.588482 -17.928282,25.241986 z M 50.349091,51.817093 v 0.04017 h 6.659778 L 52.038586,46.88698 c -1.743058,-1.743059 -1.743058,-4.568554 0,-6.313845 1.738595,-1.740826 4.568554,-1.740826 6.307149,0 l 12.623225,12.62546 c 1.743058,1.740827 1.743058,4.566322 0,6.309381 L 58.345735,72.1312 c -1.738595,1.743059 -4.568554,1.743059 -6.307149,0 -1.743058,-1.743058 -1.743058,-4.568554 0,-6.311612 l 5.03947,-5.03947 H 50.34686 v 0 c -7.396282,0 -13.390974,5.994693 -13.390974,13.390974 0,7.391818 5.994692,13.38651 13.390974,13.38651 7.391817,0 13.38651,-5.994692 13.38651,-13.38651 0,-0.348165 -0.07365,-0.67178 -0.100432,-1.011018 l 7.391817,-7.391818 c 1.046728,2.584458 1.633699,5.40549 1.633699,8.364895 0,12.326392 -9.991898,22.31829 -22.313826,22.31829 -12.326392,0 -22.31829,-9.991898 -22.31829,-22.31829 0.0067,-12.32416 9.996362,-22.316058 22.322753,-22.316058 z"
   id="path2"
   inkscape:connector-curvature="0"
   style="clip-rule:evenodd;fill:#231f20;fill-rule:evenodd;stroke-width:2.23182893" />
</svg>