<?xml version="1.0" encoding="UTF-8" standalone="no"?>
<!-- Generator: Adobe Illustrator 15.1.0, SVG Export Plug-In . SVG Version: 6.00 Build 0)  -->

<svg
   xmlns:dc="http://purl.org/dc/elements/1.1/"
   xmlns:cc="http://creativecommons.org/ns#"
   xmlns:rdf="http://www.w3.org/1999/02/22-rdf-syntax-ns#"
   xmlns:svg="http://www.w3.org/2000/svg"
   xmlns="http://www.w3.org/2000/svg"
   xmlns:sodipodi="http://sodipodi.sourceforge.net/DTD/sodipodi-0.dtd"
   xmlns:inkscape="http://www.inkscape.org/namespaces/inkscape"
   version="1.1"
   id="Layer_1"
   x="0px"
   y="0px"
   width="100px"
   height="100px"
   viewBox="0 0 100 100"
   enable-background="new 0 0 100 100"
   xml:space="preserve"
   sodipodi:docname="Cloud-Wind-Moon-symbolic.svg"
   inkscape:version="0.92.4 5da689c313, 2019-01-14"><metadata
   id="metadata9"><rdf:RDF><cc:Work
       rdf:about=""><dc:format>image/svg+xml</dc:format><dc:type
         rdf:resource="http://purl.org/dc/dcmitype/StillImage" /></cc:Work></rdf:RDF></metadata><defs
   id="defs7" /><sodipodi:namedview
   pagecolor="#ffffff"
   bordercolor="#666666"
   borderopacity="1"
   objecttolerance="10"
   gridtolerance="10"
   guidetolerance="10"
   inkscape:pageopacity="0"
   inkscape:pageshadow="2"
   inkscape:window-width="1078"
   inkscape:window-height="936"
   id="namedview5"
   showgrid="false"
   showguides="true"
   inkscape:zoom="2.36"
   inkscape:cx="50"
   inkscape:cy="50"
   inkscape:window-x="0"
   inkscape:window-y="0"
   inkscape:window-maximized="0"
   inkscape:current-layer="Layer_1"
   inkscape:guide-bbox="true"><sodipodi:guide
     position="14.830508,18.220339"
     orientation="1,0"
     id="guide7"
     inkscape:locked="false" /><sodipodi:guide
     position="147.88136,50"
     orientation="0,1"
     id="guide9"
     inkscape:locked="false" /></sodipodi:namedview>
<path
   d="m 90.420606,81.180839 v 0.07905 h -1.1625 -4.64845 c -1.7112,0 -3.1,-1.38725 -3.1,-3.1 0,-1.7112 1.3888,-3.09845 3.1,-3.09845 h 4.64845 c 1.7112,0 3.1,-1.3888 3.1,-3.1 0,-1.7112 -1.3888,-3.09845 -3.1,-3.09845 -1.7112,0 -3.1,-1.3888 -3.1,-3.1 0,-1.71275 1.3888,-3.1 3.1,-3.1 0.21545,0 0.42315,0.0217 0.62465,0.06355 4.8391,0.32705 8.6738,4.31365 8.6738,9.2349 0,4.7399 -3.5495,8.64435 -8.13595,9.2194 z m -8.463,-30.9163 h 0.0155 c 0.33015,0.9331 0.59675,1.8941 0.775,2.88765 -2.1607,-1.54225 -4.7275,-2.5513 -7.51595,-2.81325 -0.01395,-0.02635 -0.03255,-0.04805 -0.04805,-0.0744 h 0.0046 c -2.1452,-3.70295 -6.1411,-6.19845 -10.72755,-6.19845 -2.48,0 -4.77865,0.744 -6.71615,1.9995 -1.9096,-8.2398 -9.2597,-14.3995 -18.08075,-14.3995 -10.2703,0 -18.5969,8.3266 -18.5969,18.59845 v 0 c 0,10.2703 8.3266,18.59845 18.5969,18.59845 4.0269,0 12.6356,0 18.90845,0 h 15.1869 c 1.7112,0 3.1,-1.3888 3.1,-3.1 0,-1.71275 -1.3888,-3.1 -3.1,-3.1 -1.7112,0 -3.09845,-1.3888 -3.09845,-3.1 0,-1.7112 1.3888,-3.1 3.09845,-3.1 0.21545,0 0.42315,0.0217 0.62465,0.06355 4.8391,0.32705 8.67535,4.31365 8.67535,9.23645 0,4.74145 -3.55105,8.64435 -8.1375,9.21785 v 0.0806 h -1.16245 -12.37675 c -6.2186,0 -17.60335,0 -21.7186,0 -1.7112,0 -3.09845,1.3888 -3.09845,3.09845 0,1.71275 1.38725,3.1 3.09845,3.1 h 34.09535 1.1625 v 0.08215 c 4.58645,0.57195 8.1375,4.47795 8.1375,9.21785 0,4.92125 -3.83625,8.90785 -8.67535,9.2349 -0.2015,0.0403 -0.41075,0.06355 -0.62465,0.06355 -1.7112,0 -3.09845,-1.3888 -3.09845,-3.1 0,-1.7112 1.3888,-3.09845 3.09845,-3.09845 1.7112,0 3.1,-1.3888 3.1,-3.1 0,-1.71275 -1.3888,-3.1 -3.1,-3.1 h -34.09535 -1.1625 v -0.0806 c -4.5849,-0.5735 -8.13595,-4.4795 -8.13595,-9.2194 0,-1.63525 0.4557,-3.1496 1.19815,-4.4795 -9.7123,-3.3604 -16.696599,-12.5612 -16.696599,-23.41585 0,-13.69425 11.102649,-24.7969 24.796899,-24.7969 3.1031,0 6.0667,0.5828 8.804,1.6244 2.53425,-7.25865 9.4209,-12.47285 17.5429,-12.47285 1.17025,0 2.31105,0.1209 3.4224,0.32705 -0.2046,0.8928 -0.3224,1.81815 -0.3224,2.77295 0,6.8479 5.55055,12.3969 12.39845,12.3969 0.95325,0 1.8786,-0.1178 2.7714,-0.32085 0.2077,1.11135 0.3286,2.2506 0.3286,3.42085 0,4.85925 -1.8786,9.26745 -4.929,12.57825 0.9579,1.364 1.7081,2.8737 2.27695,4.4702 z m -18.7178,-29.1245 c -4.495,1.02765 -8.0197,4.5105 -9.1822,8.9497 v 0 c 2.97135,2.1266 5.4591,4.88715 7.25245,8.0941 1.0292,-0.1767 2.07235,-0.31775 3.15115,-0.31775 4.0579,0 7.80115,1.3144 10.85775,3.52005 1.33145,-1.519 2.3033,-3.36195 2.7683,-5.3971 -7.5237,-1.40275 -13.44625,-7.3253 -14.84745,-14.849 z"
   id="path2"
   inkscape:connector-curvature="0"
   style="clip-rule:evenodd;fill-rule:evenodd;stroke-width:1.54999995" />
</svg>