<?xml version="1.0" encoding="UTF-8" standalone="no"?>
<!-- Generator: Adobe Illustrator 15.1.0, SVG Export Plug-In . SVG Version: 6.00 Build 0)  -->

<svg
   xmlns:dc="http://purl.org/dc/elements/1.1/"
   xmlns:cc="http://creativecommons.org/ns#"
   xmlns:rdf="http://www.w3.org/1999/02/22-rdf-syntax-ns#"
   xmlns:svg="http://www.w3.org/2000/svg"
   xmlns="http://www.w3.org/2000/svg"
   xmlns:sodipodi="http://sodipodi.sourceforge.net/DTD/sodipodi-0.dtd"
   xmlns:inkscape="http://www.inkscape.org/namespaces/inkscape"
   version="1.1"
   id="Layer_1"
   x="0px"
   y="0px"
   width="100px"
   height="100px"
   viewBox="0 0 100 100"
   enable-background="new 0 0 100 100"
   xml:space="preserve"
   sodipodi:docname="Cloud-Snow-Moon-Alt-symbolic.svg"
   inkscape:version="0.92.4 5da689c313, 2019-01-14"><metadata
   id="metadata9"><rdf:RDF><cc:Work
       rdf:about=""><dc:format>image/svg+xml</dc:format><dc:type
         rdf:resource="http://purl.org/dc/dcmitype/StillImage" /></cc:Work></rdf:RDF></metadata><defs
   id="defs7" /><sodipodi:namedview
   pagecolor="#ffffff"
   bordercolor="#666666"
   borderopacity="1"
   objecttolerance="10"
   gridtolerance="10"
   guidetolerance="10"
   inkscape:pageopacity="0"
   inkscape:pageshadow="2"
   inkscape:window-width="640"
   inkscape:window-height="480"
   id="namedview5"
   showgrid="false"
   inkscape:zoom="2.36"
   inkscape:cx="50"
   inkscape:cy="50"
   inkscape:window-x="0"
   inkscape:window-y="0"
   inkscape:window-maximized="0"
   inkscape:current-layer="Layer_1" />
<path
   d="m 92.679152,44.735508 v 0 c 3.019184,4.298312 4.807758,9.525094 4.807758,15.175311 0,11.518771 -7.370424,21.286459 -17.640941,24.927562 v -9.661828 c 5.268684,-3.054469 8.819367,-8.739975 8.819367,-15.265734 0,-9.741222 -7.897514,-17.640942 -17.640942,-17.640942 -3.528629,0 -6.799227,1.05859 -9.555969,2.847164 C 58.75138,33.390964 48.293405,24.62673 35.742511,24.62673 c -14.612937,0 -26.4603097,11.84958 -26.4603097,26.464722 0,7.826941 3.4183597,14.840092 8.8193677,19.68093 V 81.614097 C 7.5686096,75.509567 0.46062712,64.14297 0.46062712,51.091452 c 0,-19.484652 15.79723188,-35.284089 35.28188388,-35.284089 4.415198,0 8.631909,0.829227 12.526635,2.311252 v 0 C 51.874964,7.7929631 61.673527,0.37181356 73.229788,0.37181356 c 1.665072,0 3.288241,0.1720202 4.869509,0.46533855 C 77.808185,2.1074578 77.640574,3.426283 77.640574,4.7826 c 0,9.74343 7.897514,17.638737 17.640942,17.638737 1.356317,0 2.672937,-0.165404 3.943238,-0.456516 0.295534,1.581267 0.467548,3.204437 0.467548,4.867303 0,6.916113 -2.672935,13.188253 -7.01315,17.903384 z M 69.286545,9.6543145 C 62.890904,11.118696 57.875839,16.07201 56.221794,22.390462 v 0 c 4.227739,3.0258 7.767395,6.951399 10.319035,11.514359 1.464381,-0.249209 2.948611,-0.452106 4.483565,-0.452106 5.773721,0 11.099745,1.867969 15.448782,5.008448 v 0 c 1.894433,-2.161285 3.277214,-4.779087 3.938832,-7.67918 C 79.707028,28.786102 71.280219,20.359295 69.286545,9.6543145 Z M 33.695906,73.145385 c 1.217377,-2.110561 3.914573,-2.829519 6.022929,-1.614347 l 4.843043,2.796439 v -5.590673 c 0,-2.434754 1.976033,-4.410786 4.410788,-4.410786 2.434754,0 4.408581,1.976032 4.408581,4.410786 v 5.590673 l 4.843044,-2.796439 c 2.108357,-1.215172 4.807758,-0.496214 6.02293,1.614347 1.219582,2.110562 0.496213,4.807758 -1.612144,6.025135 l -4.840838,2.796439 4.843045,2.79644 c 2.108355,1.219582 2.831724,3.914573 1.612142,6.025135 -1.217377,2.10615 -3.914573,2.829519 -6.02293,1.609937 l -4.843044,-2.794234 v 5.590673 c 0,2.436959 -1.976032,4.410786 -4.408581,4.410786 -2.434754,0 -4.410786,-1.973827 -4.410786,-4.410786 v -5.590673 l -4.843045,2.796439 c -2.108356,1.219582 -4.807757,0.496213 -6.022929,-1.609937 -1.217377,-2.110562 -0.496213,-4.807758 1.612143,-6.025135 l 4.843043,-2.796439 -4.843043,-2.796439 c -2.108356,-1.221788 -2.831726,-3.916779 -1.614348,-6.027341 z m 15.278965,13.232361 c 2.434754,0 4.408581,-1.976033 4.408581,-4.410787 0,-2.436959 -1.976032,-4.410786 -4.408581,-4.410786 -2.434754,0 -4.410786,1.973827 -4.410786,4.410786 0,2.432549 1.973826,4.410787 4.410786,4.410787 z"
   id="path2"
   inkscape:connector-curvature="0"
   style="clip-rule:evenodd;fill-rule:evenodd;stroke-width:2.20539331" />
</svg>