<?xml version="1.0" encoding="utf-8"?>
<!-- Generator: Adobe Illustrator 15.1.0, SVG Export Plug-In . SVG Version: 6.00 Build 0)  -->
<!DOCTYPE svg PUBLIC "-//W3C//DTD SVG 1.1//EN" "http://www.w3.org/Graphics/SVG/1.1/DTD/svg11.dtd">
<svg version="1.1" id="Layer_1" xmlns="http://www.w3.org/2000/svg" xmlns:xlink="http://www.w3.org/1999/xlink" x="0px" y="0px"
	 width="100px" height="100px" viewBox="0 0 100 100" enable-background="new 0 0 100 100" xml:space="preserve">
<path fill-rule="evenodd" clip-rule="evenodd" fill="#231F20" d="M63.908,64.952c-0.068-1.402-0.34-2.746-0.791-4.01
	c2.83-1.229,4.824-4.018,4.824-7.3c0-4.418-3.58-8-7.998-8c-1.6,0-3.084,0.481-4.334,1.29c-1.23-5.316-5.973-9.289-11.664-9.289
	c-6.627,0-11.999,5.371-11.999,11.998c0,4.172,2.143,7.828,5.375,9.976c-0.588,1.23-0.999,2.559-1.207,3.957
	c-4.87-2.742-8.168-7.946-8.168-13.933c0-8.835,7.163-15.998,15.999-15.998c6.004,0,11.229,3.312,13.965,8.204
	c0.664-0.114,1.336-0.205,2.033-0.205c6.627,0,11.998,5.372,11.998,12C71.941,58.876,68.584,63.315,63.908,64.952z M49.945,55.266
	v0.018h2.984l-2.227-2.227c-0.781-0.781-0.781-2.047,0-2.829c0.779-0.78,2.047-0.78,2.826,0l5.656,5.657
	c0.781,0.78,0.781,2.046,0,2.827l-5.656,5.656c-0.779,0.781-2.047,0.781-2.826,0c-0.781-0.781-0.781-2.047,0-2.828l2.258-2.258
	h-3.016l0,0c-3.314,0-6,2.686-6,6c0,3.312,2.686,5.998,6,5.998c3.312,0,5.998-2.686,5.998-5.998c0-0.156-0.033-0.301-0.045-0.453
	l3.312-3.312c0.469,1.158,0.732,2.422,0.732,3.748c0,5.523-4.477,10-9.998,10c-5.523,0-10-4.477-10-10
	C39.946,59.743,44.422,55.266,49.945,55.266z"/>
</svg>
