<?xml version="1.0" encoding="UTF-8" standalone="no"?>
<!-- Generator: Adobe Illustrator 15.1.0, SVG Export Plug-In . SVG Version: 6.00 Build 0)  -->

<svg
   xmlns:dc="http://purl.org/dc/elements/1.1/"
   xmlns:cc="http://creativecommons.org/ns#"
   xmlns:rdf="http://www.w3.org/1999/02/22-rdf-syntax-ns#"
   xmlns:svg="http://www.w3.org/2000/svg"
   xmlns="http://www.w3.org/2000/svg"
   xmlns:sodipodi="http://sodipodi.sourceforge.net/DTD/sodipodi-0.dtd"
   xmlns:inkscape="http://www.inkscape.org/namespaces/inkscape"
   version="1.1"
   id="Layer_1"
   x="0px"
   y="0px"
   width="100px"
   height="100px"
   viewBox="0 0 100 100"
   enable-background="new 0 0 100 100"
   xml:space="preserve"
   sodipodi:docname="Cloud-Drizzle-Moon.svg"
   inkscape:version="0.92.4 5da689c313, 2019-01-14"><metadata
   id="metadata9"><rdf:RDF><cc:Work
       rdf:about=""><dc:format>image/svg+xml</dc:format><dc:type
         rdf:resource="http://purl.org/dc/dcmitype/StillImage" /></cc:Work></rdf:RDF></metadata><defs
   id="defs7" /><sodipodi:namedview
   pagecolor="#ffffff"
   bordercolor="#666666"
   borderopacity="1"
   objecttolerance="10"
   gridtolerance="10"
   guidetolerance="10"
   inkscape:pageopacity="0"
   inkscape:pageshadow="2"
   inkscape:window-width="640"
   inkscape:window-height="480"
   id="namedview5"
   showgrid="false"
   inkscape:zoom="2.36"
   inkscape:cx="50"
   inkscape:cy="50"
   inkscape:window-x="0"
   inkscape:window-y="0"
   inkscape:window-maximized="0"
   inkscape:current-layer="Layer_1" />
<path
   d="m 88.300583,39.879304 v 0 c 2.669607,3.800631 4.251091,8.420279 4.251091,13.422134 0,10.181165 -6.517039,18.821799 -15.59643,22.037417 v -8.543131 c 4.658648,-2.700808 7.796265,-7.724113 7.796265,-13.494286 0,-8.615282 -6.981148,-15.60033 -15.59643,-15.60033 -3.120066,0 -6.013927,0.93992 -8.45148,2.517503 -2.39855,-10.366418 -11.647596,-18.115883 -22.74528,-18.115883 -12.922924,0 -23.396595,10.475622 -23.396595,23.398545 0,6.920697 3.020614,13.121828 7.796265,17.406069 v 9.582503 C 13.046542,67.092131 6.7615593,57.041617 6.7615593,45.501273 c 0,-17.230564 13.9661957,-31.19676 31.1967597,-31.19676 3.903982,0 7.632461,0.731266 11.076234,2.041694 v 0 C 52.22287,7.2161128 60.886904,0.65422455 71.105119,0.65422455 c 1.474232,0 2.905562,0.15210321 4.303741,0.41340875 -0.255454,1.1212737 -0.403658,2.2873983 -0.403658,3.4866738 0,8.6152829 6.981148,15.5983809 15.59643,15.5983809 1.199275,0 2.3654,-0.148204 3.488623,-0.40561 0.259357,1.398181 0.411459,2.833411 0.411459,4.305692 -0.002,6.109478 -2.363449,11.657346 -6.201131,15.826534 z M 67.614546,8.8580477 C 61.959426,10.152876 57.525032,14.532669 56.062501,20.119537 v 0 c 3.74018,2.675456 6.869996,6.14653 9.126194,10.181165 1.294827,-0.220355 2.605255,-0.399759 3.964434,-0.399759 5.103257,0 9.814557,1.655585 13.661988,4.428544 v 0 c 1.671186,-1.90909 2.893861,-4.227689 3.480824,-6.790043 C 76.832391,25.774656 69.379333,18.325498 67.614546,8.8580477 Z M 34.056286,53.301438 c 2.154796,0 3.900083,1.745288 3.900083,3.900083 v 7.796265 c 0,2.154795 -1.745287,3.900082 -3.900083,3.900082 -2.152845,0 -3.900082,-1.745287 -3.900082,-3.900082 v -7.796265 c 0,-2.156746 1.749186,-3.900083 3.900082,-3.900083 z m 0,23.396595 c 2.154796,0 3.900083,1.745287 3.900083,3.900082 v 7.796266 c 0,2.154795 -1.745287,3.900082 -3.900083,3.900082 -2.152845,0 -3.900082,-1.745287 -3.900082,-3.900082 v -7.796266 c 0,-2.156745 1.749186,-3.900082 3.900082,-3.900082 z m 15.60033,-15.60033 c 2.152845,0 3.896183,1.747237 3.896183,3.900083 v 7.800165 c 0,2.152845 -1.745288,3.900082 -3.896183,3.900082 -2.154795,0 -3.900082,-1.747237 -3.900082,-3.900082 v -7.800165 c 0,-2.152846 1.745287,-3.900083 3.900082,-3.900083 z m 0,23.400495 c 2.152845,0 3.896183,1.745287 3.896183,3.896183 v 7.800165 c 0,2.154795 -1.745288,3.900084 -3.896183,3.900084 -2.154795,0 -3.900082,-1.745289 -3.900082,-3.900084 v -7.800165 c 0,-2.152846 1.745287,-3.896183 3.900082,-3.896183 z m 15.59643,-31.19676 c 2.154795,0 3.900083,1.745288 3.900083,3.900083 v 7.796265 c 0,2.154795 -1.745288,3.900082 -3.900083,3.900082 -2.152846,0 -3.900082,-1.745287 -3.900082,-3.900082 v -7.796265 c 0,-2.156746 1.749186,-3.900083 3.900082,-3.900083 z m 0,23.396595 c 2.154795,0 3.900083,1.745287 3.900083,3.900082 v 7.796266 c 0,2.154795 -1.745288,3.900082 -3.900083,3.900082 -2.152846,0 -3.900082,-1.745287 -3.900082,-3.900082 v -7.796266 c 0,-2.156745 1.749186,-3.900082 3.900082,-3.900082 z"
   id="path2"
   inkscape:connector-curvature="0"
   style="clip-rule:evenodd;fill-rule:evenodd;stroke-width:1.95004117" />
</svg>