<?xml version="1.0" encoding="UTF-8" standalone="no"?>
<!-- Generator: Adobe Illustrator 15.1.0, SVG Export Plug-In . SVG Version: 6.00 Build 0)  -->

<svg
   xmlns:dc="http://purl.org/dc/elements/1.1/"
   xmlns:cc="http://creativecommons.org/ns#"
   xmlns:rdf="http://www.w3.org/1999/02/22-rdf-syntax-ns#"
   xmlns:svg="http://www.w3.org/2000/svg"
   xmlns="http://www.w3.org/2000/svg"
   xmlns:sodipodi="http://sodipodi.sourceforge.net/DTD/sodipodi-0.dtd"
   xmlns:inkscape="http://www.inkscape.org/namespaces/inkscape"
   version="1.1"
   id="Layer_1"
   x="0px"
   y="0px"
   width="100px"
   height="100px"
   viewBox="0 0 100 100"
   enable-background="new 0 0 100 100"
   xml:space="preserve"
   sodipodi:docname="Cloud-Snow-Sun-symbolic.svg"
   inkscape:version="0.92.4 5da689c313, 2019-01-14"><metadata
   id="metadata9"><rdf:RDF><cc:Work
       rdf:about=""><dc:format>image/svg+xml</dc:format><dc:type
         rdf:resource="http://purl.org/dc/dcmitype/StillImage" /></cc:Work></rdf:RDF></metadata><defs
   id="defs7" /><sodipodi:namedview
   pagecolor="#ffffff"
   bordercolor="#666666"
   borderopacity="1"
   objecttolerance="10"
   gridtolerance="10"
   guidetolerance="10"
   inkscape:pageopacity="0"
   inkscape:pageshadow="2"
   inkscape:window-width="640"
   inkscape:window-height="480"
   id="namedview5"
   showgrid="false"
   inkscape:zoom="2.36"
   inkscape:cx="50"
   inkscape:cy="50"
   inkscape:window-x="0"
   inkscape:window-y="0"
   inkscape:window-maximized="0"
   inkscape:current-layer="Layer_1" />
<path
   d="m 94.676566,46.531852 h -7.117823 c -1.96452,0 -3.558912,-1.592613 -3.558912,-3.558912 0,-1.964519 1.594392,-3.558911 3.558912,-3.558911 h 7.117823 c 1.964519,0 3.557132,1.594392 3.557132,3.558911 0,1.968078 -1.592613,3.558912 -3.557132,3.558912 z M 80.695382,22.843736 c -1.389755,1.389755 -3.642546,1.389755 -5.032301,0 -1.389755,-1.389755 -1.389755,-3.642546 0,-5.032301 l 5.032301,-5.032301 c 1.389755,-1.389755 3.642546,-1.389755 5.032301,0 1.389755,1.389755 1.389755,3.642546 0,5.032301 z m -5.245836,27.771967 v 0 c 3.112268,3.708386 4.991373,8.488004 4.991373,13.708927 0,9.294098 -5.946941,17.175307 -14.232087,20.113189 v -7.795796 c 4.25112,-2.464546 7.116044,-7.051983 7.116044,-12.317393 0,-7.859856 -6.372231,-14.233867 -14.233867,-14.233867 -2.847129,0 -5.486062,0.854139 -7.712161,2.297278 -2.19051,-9.459587 -10.62869,-16.532924 -20.755573,-16.532924 -11.792453,0 -21.3499095,9.561016 -21.3499095,21.353469 0,6.315289 2.7581565,11.973958 7.1160435,15.879864 v 8.747804 C 7.8907284,76.910721 2.1555424,67.739406 2.1555424,57.208586 c 0,-15.723271 12.7444626,-28.469513 28.4677326,-28.469513 2.797305,0 5.498519,0.412834 8.048479,1.165544 3.905905,-5.032301 9.996982,-8.281587 16.860343,-8.281587 11.792454,0 21.35169,9.557457 21.35169,21.34991 0,2.697655 -0.52138,5.26541 -1.434241,7.642763 z M 55.532097,28.740853 c -3.936156,0 -7.500406,1.597951 -10.075278,4.1835 4.163926,2.553519 7.624968,6.144461 10.016556,10.415155 1.181559,-0.201079 2.379133,-0.364788 3.617634,-0.364788 3.781344,0 7.327799,0.994715 10.409816,2.717229 v 0 c 0.170828,-0.879052 0.266919,-1.786574 0.266919,-2.717229 0,-7.861636 -6.374011,-14.233867 -14.235647,-14.233867 z m 0,-14.233867 c -1.964519,0 -3.558911,-1.592613 -3.558911,-3.558912 V 3.8320301 c 0,-1.9645191 1.594392,-3.55891146 3.558911,-3.55891146 1.96452,0 3.558912,1.59439236 3.558912,3.55891146 v 7.1160439 c 0,1.966299 -1.592613,3.558912 -3.558912,3.558912 z m -25.163284,8.33675 -5.032301,-5.032301 c -1.387975,-1.389755 -1.387975,-3.642546 0,-5.032301 1.389755,-1.389755 3.644326,-1.389755 5.032301,0 l 5.032301,5.032301 c 1.389755,1.389755 1.389755,3.642546 0,5.032301 -1.387975,1.389755 -3.640766,1.389755 -5.032301,0 z m -3.304449,48.598717 c 1.964519,0 3.558911,1.594393 3.558911,3.558912 0,1.966298 -1.594392,3.558911 -3.558911,3.558911 -1.964519,0 -3.558912,-1.592613 -3.558912,-3.558911 0,-1.964519 1.594393,-3.558912 3.558912,-3.558912 z m 0,14.235646 c 1.964519,0 3.558911,1.592613 3.558911,3.558912 0,1.964519 -1.594392,3.555353 -3.558911,3.555353 -1.964519,0 -3.558912,-1.592613 -3.558912,-3.555353 0,-1.968078 1.594393,-3.558912 3.558912,-3.558912 z M 41.30001,78.560276 c 1.964519,0 3.557132,1.592613 3.557132,3.558912 0,1.964519 -1.594392,3.558911 -3.557132,3.558911 -1.966299,0 -3.558911,-1.594392 -3.558911,-3.558911 0,-1.968078 1.592612,-3.558912 3.558911,-3.558912 z m 0,14.232088 c 1.964519,0 3.557132,1.594392 3.557132,3.558911 0,1.966299 -1.594392,3.558912 -3.557132,3.558912 -1.966299,0 -3.558911,-1.592613 -3.558911,-3.558912 0,-1.964519 1.592612,-3.558911 3.558911,-3.558911 z M 55.532097,71.442453 c 1.96452,0 3.558912,1.594393 3.558912,3.558912 0,1.966298 -1.594392,3.558911 -3.558912,3.558911 -1.964519,0 -3.558911,-1.592613 -3.558911,-3.558911 0,-1.964519 1.596172,-3.558912 3.558911,-3.558912 z m 0,14.235646 c 1.96452,0 3.558912,1.592613 3.558912,3.558912 0,1.964519 -1.594392,3.555353 -3.558912,3.555353 -1.964519,0 -3.558911,-1.592613 -3.558911,-3.555353 0,-1.968078 1.596172,-3.558912 3.558911,-3.558912 z"
   id="path2"
   inkscape:connector-curvature="0"
   style="clip-rule:evenodd;fill-rule:evenodd;stroke-width:1.77945578" />
</svg>