<?xml version="1.0" encoding="UTF-8" standalone="no"?>
<!-- Generator: Adobe Illustrator 15.1.0, SVG Export Plug-In . SVG Version: 6.00 Build 0)  -->

<svg
   xmlns:dc="http://purl.org/dc/elements/1.1/"
   xmlns:cc="http://creativecommons.org/ns#"
   xmlns:rdf="http://www.w3.org/1999/02/22-rdf-syntax-ns#"
   xmlns:svg="http://www.w3.org/2000/svg"
   xmlns="http://www.w3.org/2000/svg"
   xmlns:sodipodi="http://sodipodi.sourceforge.net/DTD/sodipodi-0.dtd"
   xmlns:inkscape="http://www.inkscape.org/namespaces/inkscape"
   version="1.1"
   id="Layer_1"
   x="0px"
   y="0px"
   width="100px"
   height="100px"
   viewBox="0 0 100 100"
   enable-background="new 0 0 100 100"
   xml:space="preserve"
   sodipodi:docname="Cloud-Snow-Moon-symbolic.svg"
   inkscape:version="0.92.4 5da689c313, 2019-01-14"><metadata
   id="metadata9"><rdf:RDF><cc:Work
       rdf:about=""><dc:format>image/svg+xml</dc:format><dc:type
         rdf:resource="http://purl.org/dc/dcmitype/StillImage" /></cc:Work></rdf:RDF></metadata><defs
   id="defs7" /><sodipodi:namedview
   pagecolor="#ffffff"
   bordercolor="#666666"
   borderopacity="1"
   objecttolerance="10"
   gridtolerance="10"
   guidetolerance="10"
   inkscape:pageopacity="0"
   inkscape:pageshadow="2"
   inkscape:window-width="640"
   inkscape:window-height="480"
   id="namedview5"
   showgrid="false"
   inkscape:zoom="2.36"
   inkscape:cx="50"
   inkscape:cy="50"
   inkscape:window-x="0"
   inkscape:window-y="0"
   inkscape:window-maximized="0"
   inkscape:current-layer="Layer_1" />
<path
   d="m 91.565803,42.977864 v 0 c 2.899567,4.128017 4.617279,9.14772 4.617279,14.574082 0,11.062407 -7.078416,20.443109 -16.939907,23.939957 v -9.279037 c 5.057827,-2.933455 8.469953,-8.393705 8.469953,-14.66092 0,-9.355286 -7.584622,-16.942026 -16.942025,-16.942026 -3.390947,0 -6.531968,1.016648 -9.17949,2.734361 -2.60728,-11.261502 -12.650921,-19.678505 -24.704562,-19.678505 -14.036105,0 -25.411979,11.380111 -25.411979,25.416216 0,7.516845 3.282928,14.252143 8.469954,18.901192 V 78.39536 C 9.8272539,72.532687 3.003,61.616422 3.003,49.081992 c 0,-18.712689 15.169245,-33.886171 33.884051,-33.886171 4.240272,0 8.289923,0.796375 12.030342,2.219683 v 0 C 52.380353,7.4989441 61.790707,0.37181356 72.889121,0.37181356 c 1.599103,0 3.155846,0.1652054 4.674465,0.44690179 -0.27746,1.21997845 -0.438429,2.48655315 -0.438429,3.78913425 0,9.3574034 7.582504,16.9399084 16.939907,16.9399084 1.304699,0 2.569156,-0.158851 3.789134,-0.43843 0.281697,1.518619 0.446902,3.077481 0.446902,4.674466 0,6.642104 -2.564919,12.665748 -6.735297,17.19407 z M 69.099987,9.2865513 C 62.959852,10.692915 58.141362,15.449984 56.552848,21.518106 c 4.062359,2.905921 7.461777,6.675993 9.912324,11.058172 1.406364,-0.239336 2.829672,-0.434194 4.305931,-0.434194 5.542853,0 10.659984,1.796079 14.836716,4.810019 v 0 c 1.817259,-2.075658 3.145256,-4.589745 3.78278,-7.374939 C 79.109739,27.660358 71.014675,19.56741 69.099987,9.2865513 Z M 32.651015,66.026135 c 2.338292,0 4.236036,1.897745 4.236036,4.236036 0,2.34041 -1.897744,4.236036 -4.236036,4.236036 -2.338291,0 -4.236036,-1.895626 -4.236036,-4.236036 0,-2.338291 1.895627,-4.236036 4.236036,-4.236036 z m 0,16.944144 c 2.338292,0 4.236036,1.895626 4.236036,4.236036 0,2.338292 -1.897744,4.2318 -4.236036,4.2318 -2.338291,0 -4.236036,-1.895626 -4.236036,-4.2318 0,-2.342528 1.895627,-4.236036 4.236036,-4.236036 z m 16.942026,-8.472072 c 2.338292,0 4.236036,1.895626 4.236036,4.236036 0,2.338292 -1.897744,4.236036 -4.236036,4.236036 -2.338292,0 -4.233918,-1.897744 -4.233918,-4.236036 0,-2.342528 1.895626,-4.236036 4.233918,-4.236036 z m 0,16.939908 c 2.338292,0 4.236036,1.897744 4.236036,4.236036 0,2.34041 -1.897744,4.236036 -4.236036,4.236036 -2.338292,0 -4.233918,-1.895626 -4.233918,-4.236036 0,-2.338292 1.895626,-4.236036 4.233918,-4.236036 z m 16.942026,-25.41198 c 2.338292,0 4.236036,1.897745 4.236036,4.236036 0,2.34041 -1.897744,4.236036 -4.236036,4.236036 -2.338292,0 -4.236036,-1.895626 -4.236036,-4.236036 0,-2.338291 1.897744,-4.236036 4.236036,-4.236036 z m 0,16.944144 c 2.338292,0 4.236036,1.895626 4.236036,4.236036 0,2.338292 -1.897744,4.2318 -4.236036,4.2318 -2.338292,0 -4.236036,-1.895626 -4.236036,-4.2318 0,-2.342528 1.897744,-4.236036 4.236036,-4.236036 z"
   id="path2"
   inkscape:connector-curvature="0"
   style="clip-rule:evenodd;fill-rule:evenodd;stroke-width:2.11801791" />
</svg>