<?xml version="1.0" encoding="UTF-8" standalone="no"?>
<!-- Generator: Adobe Illustrator 15.1.0, SVG Export Plug-In . SVG Version: 6.00 Build 0)  -->

<svg
   xmlns:dc="http://purl.org/dc/elements/1.1/"
   xmlns:cc="http://creativecommons.org/ns#"
   xmlns:rdf="http://www.w3.org/1999/02/22-rdf-syntax-ns#"
   xmlns:svg="http://www.w3.org/2000/svg"
   xmlns="http://www.w3.org/2000/svg"
   xmlns:sodipodi="http://sodipodi.sourceforge.net/DTD/sodipodi-0.dtd"
   xmlns:inkscape="http://www.inkscape.org/namespaces/inkscape"
   version="1.1"
   id="Layer_1"
   x="0px"
   y="0px"
   width="100px"
   height="100px"
   viewBox="0 0 100 100"
   enable-background="new 0 0 100 100"
   xml:space="preserve"
   sodipodi:docname="Cloud-Drizzle-Sun.svg"
   inkscape:version="0.92.4 5da689c313, 2019-01-14"><metadata
   id="metadata9"><rdf:RDF><cc:Work
       rdf:about=""><dc:format>image/svg+xml</dc:format><dc:type
         rdf:resource="http://purl.org/dc/dcmitype/StillImage" /></cc:Work></rdf:RDF></metadata><defs
   id="defs7" /><sodipodi:namedview
   pagecolor="#ffffff"
   bordercolor="#666666"
   borderopacity="1"
   objecttolerance="10"
   gridtolerance="10"
   guidetolerance="10"
   inkscape:pageopacity="0"
   inkscape:pageshadow="2"
   inkscape:window-width="640"
   inkscape:window-height="480"
   id="namedview5"
   showgrid="false"
   inkscape:zoom="2.36"
   inkscape:cx="50"
   inkscape:cy="50"
   inkscape:window-x="322"
   inkscape:window-y="294"
   inkscape:window-maximized="0"
   inkscape:current-layer="Layer_1" />
<path
   d="m 92.368661,43.287534 h -6.682302 c -1.844777,0 -3.341987,-1.495539 -3.341987,-3.341987 0,-1.844777 1.49721,-3.340316 3.341987,-3.340316 h 6.682302 c 1.844777,0 3.341987,1.495539 3.341987,3.340316 0,1.846448 -1.495539,3.341987 -3.341987,3.341987 z M 79.241337,21.04327 c -1.305046,1.305046 -3.422194,1.305046 -4.725569,0 -1.305046,-1.303375 -1.305046,-3.420524 0,-4.723898 l 4.725569,-4.72557 c 1.303375,-1.305046 3.420524,-1.305046 4.725569,0 1.303375,1.303375 1.303375,3.420524 0,4.72557 z M 74.31692,47.122464 v 0 c 2.922567,3.485692 4.687136,7.970638 4.687136,12.875004 0,8.724256 -5.58446,16.128428 -13.366276,18.883896 v -7.320622 c 3.992003,-2.314326 6.683973,-6.618805 6.683973,-11.563274 0,-7.382449 -5.985498,-13.367947 -13.366276,-13.367947 -2.67526,0 -5.153343,0.805418 -7.242085,2.157252 -2.056993,-8.883001 -9.980844,-15.523529 -19.490467,-15.523529 -11.073673,0 -20.05025,8.976577 -20.05025,20.05025 0,5.930356 2.591711,11.244115 6.683974,14.915287 v 8.211262 C 10.874314,71.814733 5.4903729,63.202433 5.4903729,53.313494 c 0,-14.764897 11.9676551,-26.732552 26.7325521,-26.732552 2.626802,0 5.161699,0.38767 7.557903,1.09283 3.667831,-4.723899 9.38597,-7.776804 15.832663,-7.776804 11.073673,0 20.048578,8.976577 20.048578,20.048579 -0.0017,2.531555 -0.489601,4.947811 -1.345149,7.176917 z M 55.61182,26.580942 c -3.697909,0 -7.043238,1.500552 -9.462836,3.926834 3.911796,2.399547 7.161878,5.76827 9.407693,9.780325 1.109539,-0.188823 2.232447,-0.342554 3.397129,-0.342554 3.550861,0 6.881151,0.934085 9.775312,2.551607 v 0 c 0.160415,-0.825471 0.248978,-1.677677 0.248978,-2.551607 0,-7.380778 -5.983828,-13.364605 -13.366276,-13.364605 z m 0,-13.367947 c -1.844777,0 -3.341987,-1.495539 -3.341987,-3.340316 V 3.1903765 c 0,-1.8464477 1.49721,-3.34198679 3.341987,-3.34198679 1.844776,0 3.341986,1.49553909 3.341986,3.34198679 V 9.872679 c 0,1.846448 -1.495539,3.340316 -3.341986,3.340316 z M 31.983973,21.04327 27.258404,16.319372 c -1.303375,-1.305046 -1.303375,-3.422195 0,-4.72557 1.305046,-1.305046 3.420523,-1.305046 4.725569,0 l 4.725569,4.72557 c 1.305046,1.303374 1.305046,3.420523 0,4.723898 -1.305045,1.305046 -3.420523,1.305046 -4.725569,0 z m -3.104706,38.954198 c 1.844777,0 3.341987,1.495539 3.341987,3.341986 v 6.680632 c 0,1.846448 -1.49721,3.341987 -3.341987,3.341987 -1.844776,0 -3.341986,-1.495539 -3.341986,-3.341987 v -6.680632 c 0,-1.848118 1.49721,-3.341986 3.341986,-3.341986 z m 0,20.048578 c 1.844777,0 3.341987,1.495539 3.341987,3.341987 v 6.680632 c 0,1.846447 -1.49721,3.341986 -3.341987,3.341986 -1.844776,0 -3.341986,-1.495539 -3.341986,-3.341986 v -6.680632 c 0,-1.848119 1.49721,-3.341987 3.341986,-3.341987 z M 42.245543,66.678099 c 1.844777,0 3.341987,1.49721 3.341987,3.341987 v 6.683974 c 0,1.844776 -1.49721,3.341986 -3.341987,3.341986 -1.844776,0 -3.341986,-1.49721 -3.341986,-3.341986 v -6.683974 c 0,-1.844777 1.49721,-3.341987 3.341986,-3.341987 z m 0,20.051921 c 1.844777,0 3.341987,1.495539 3.341987,3.338645 v 6.683973 c 0,1.846448 -1.49721,3.341992 -3.341987,3.341992 -1.844776,0 -3.341986,-1.495544 -3.341986,-3.341992 v -6.683973 c 0,-1.844777 1.49721,-3.338645 3.341986,-3.338645 z M 55.61182,59.997468 c 1.844776,0 3.341986,1.495539 3.341986,3.341986 v 6.680632 c 0,1.846448 -1.49721,3.341987 -3.341986,3.341987 -1.844777,0 -3.341987,-1.495539 -3.341987,-3.341987 v -6.680632 c 0,-1.848118 1.49721,-3.341986 3.341987,-3.341986 z m 0,20.048578 c 1.844776,0 3.341986,1.495539 3.341986,3.341987 v 6.680632 c 0,1.846447 -1.49721,3.341986 -3.341986,3.341986 -1.844777,0 -3.341987,-1.495539 -3.341987,-3.341986 v -6.680632 c 0,-1.848119 1.49721,-3.341987 3.341987,-3.341987 z"
   id="path2"
   inkscape:connector-curvature="0"
   style="clip-rule:evenodd;fill-rule:evenodd;stroke-width:1.67099333" />
</svg>