<?xml version="1.0" encoding="UTF-8" standalone="no"?>
<!-- Generator: Adobe Illustrator 15.1.0, SVG Export Plug-In . SVG Version: 6.00 Build 0)  -->

<svg
   xmlns:dc="http://purl.org/dc/elements/1.1/"
   xmlns:cc="http://creativecommons.org/ns#"
   xmlns:rdf="http://www.w3.org/1999/02/22-rdf-syntax-ns#"
   xmlns:svg="http://www.w3.org/2000/svg"
   xmlns="http://www.w3.org/2000/svg"
   xmlns:sodipodi="http://sodipodi.sourceforge.net/DTD/sodipodi-0.dtd"
   xmlns:inkscape="http://www.inkscape.org/namespaces/inkscape"
   version="1.1"
   id="Layer_1"
   x="0px"
   y="0px"
   width="100px"
   height="100px"
   viewBox="0 0 100 100"
   enable-background="new 0 0 100 100"
   xml:space="preserve"
   sodipodi:docname="Cloud-Snow-Sun-Alt-symbolic.svg"
   inkscape:version="0.92.4 5da689c313, 2019-01-14"><metadata
   id="metadata9"><rdf:RDF><cc:Work
       rdf:about=""><dc:format>image/svg+xml</dc:format><dc:type
         rdf:resource="http://purl.org/dc/dcmitype/StillImage" /></cc:Work></rdf:RDF></metadata><defs
   id="defs7" /><sodipodi:namedview
   pagecolor="#ffffff"
   bordercolor="#666666"
   borderopacity="1"
   objecttolerance="10"
   gridtolerance="10"
   guidetolerance="10"
   inkscape:pageopacity="0"
   inkscape:pageshadow="2"
   inkscape:window-width="640"
   inkscape:window-height="480"
   id="namedview5"
   showgrid="false"
   inkscape:zoom="2.36"
   inkscape:cx="50"
   inkscape:cy="50"
   inkscape:window-x="0"
   inkscape:window-y="0"
   inkscape:window-maximized="0"
   inkscape:current-layer="Layer_1" />
<path
   d="m 96.129866,47.894459 h -7.327487 c -2.022386,0 -3.661912,-1.639526 -3.661912,-3.663744 0,-2.022387 1.639526,-3.663744 3.661912,-3.663744 h 7.327487 c 2.022387,0 3.663744,1.641357 3.663744,3.663744 0,2.02605 -1.639525,3.663744 -3.663744,3.663744 z M 81.738681,23.508581 c -1.430691,1.430692 -3.751673,1.430692 -5.180533,0 -1.430692,-1.430692 -1.430692,-3.749841 0,-5.180533 l 5.180533,-5.180534 c 1.42886,-1.430692 3.749842,-1.430692 5.178702,0 1.430692,1.430691 1.430692,3.749841 0,5.180534 z m -5.40219,28.590023 v 0 c 3.203944,3.817621 5.140233,8.738029 5.140233,14.112741 0,10.890477 -7.924678,19.903287 -18.316886,21.652724 v -7.4777 c 6.316294,-1.632198 10.989399,-7.34947 10.989399,-14.175024 0,-8.091378 -6.559933,-14.653143 -14.651311,-14.653143 -2.932827,0 -5.649493,0.879299 -7.939332,2.364947 -2.255035,-9.738231 -10.943603,-17.019921 -21.368785,-17.019921 -12.137982,0 -21.9787978,9.842647 -21.9787978,21.982461 0,8.129847 4.4258028,15.213696 10.9893988,19.012998 v 8.14267 C 8.4656414,81.690661 0.88535593,71.179381 0.88535593,58.883857 c 0,-16.186419 13.11986607,-29.308116 29.30445307,-29.308116 2.881534,0 5.660484,0.424994 8.287388,1.199876 4.020959,-5.180534 10.289624,-8.525532 17.356985,-8.525532 12.137983,0 21.978798,9.838984 21.978798,21.978798 0,2.77895 -0.536738,5.422341 -1.476489,7.869721 z m -20.502309,-22.5192 c -4.053932,0 -7.721339,1.645021 -10.37389,4.306731 4.288412,2.628736 7.851403,6.325453 10.313439,10.721946 1.214531,-0.207002 2.44738,-0.375534 3.724195,-0.375534 3.892727,0 7.543648,1.024016 10.71645,2.797268 v 0 c 0.17586,-0.904945 0.272949,-1.839199 0.272949,-2.797268 0,-8.095042 -6.561765,-14.653143 -14.653143,-14.653143 z m 0,-14.653143 c -2.022386,0 -3.663743,-1.639525 -3.663743,-3.663744 V 3.9368622 c 0,-2.0223865 1.641357,-3.66374356 3.663743,-3.66374356 2.022387,0 3.663744,1.64135706 3.663744,3.66374356 v 7.3256548 c 0,2.024219 -1.641357,3.663744 -3.663744,3.663744 z m -25.904499,8.58232 -5.180533,-5.180533 c -1.430692,-1.430693 -1.430692,-3.749843 0,-5.180534 1.430692,-1.430692 3.749841,-1.430692 5.180533,0 l 5.180534,5.180534 c 1.430692,1.430692 1.430692,3.749841 0,5.180533 -1.430692,1.430692 -3.74801,1.430692 -5.180534,0 z m -1.439851,53.693994 c 1.013025,-1.753101 3.251572,-2.350291 5.002842,-1.34093 l 4.02279,2.322814 v -4.643795 c 0,-2.022387 1.641357,-3.663744 3.663744,-3.663744 2.022386,0 3.661912,1.641357 3.661912,3.663744 v 4.643795 l 4.02279,-2.322814 c 1.75127,-1.009361 3.993481,-0.412171 5.002842,1.34093 1.013025,1.753102 0.412171,3.993481 -1.339098,5.004674 l -4.020959,2.322814 4.022791,2.322813 c 1.751269,1.013025 2.352123,3.251572 1.339098,5.004674 -1.011193,1.749437 -3.251573,2.350291 -5.002842,1.337266 l -4.02279,-2.320981 v 4.643795 c 0,2.024218 -1.639526,3.663743 -3.661912,3.663743 -2.022387,0 -3.663744,-1.639525 -3.663744,-3.663743 v -4.643795 l -4.02279,2.322813 c -1.75127,1.013025 -3.991649,0.412171 -5.002842,-1.337266 -1.011193,-1.753102 -0.412171,-3.993481 1.34093,-5.004674 l 4.020959,-2.322814 -4.020959,-2.322813 C 28.079493,81.194224 27.478639,78.955677 28.489832,77.202575 Z M 41.18104,88.193806 c 2.022386,0 3.661912,-1.641357 3.661912,-3.663743 0,-2.024219 -1.639526,-3.663744 -3.661912,-3.663744 -2.022387,0 -3.663744,1.639525 -3.663744,3.663744 0,2.020554 1.639525,3.663743 3.663744,3.663743 z"
   id="path2"
   inkscape:connector-curvature="0"
   style="clip-rule:evenodd;fill-rule:evenodd;stroke-width:1.83187175" />
</svg>