<?xml version="1.0" encoding="UTF-8" standalone="no"?>
<!-- Generator: Adobe Illustrator 15.1.0, SVG Export Plug-In . SVG Version: 6.00 Build 0)  -->

<svg
   xmlns:dc="http://purl.org/dc/elements/1.1/"
   xmlns:cc="http://creativecommons.org/ns#"
   xmlns:rdf="http://www.w3.org/1999/02/22-rdf-syntax-ns#"
   xmlns:svg="http://www.w3.org/2000/svg"
   xmlns="http://www.w3.org/2000/svg"
   xmlns:sodipodi="http://sodipodi.sourceforge.net/DTD/sodipodi-0.dtd"
   xmlns:inkscape="http://www.inkscape.org/namespaces/inkscape"
   version="1.1"
   id="Layer_1"
   x="0px"
   y="0px"
   width="100px"
   height="100px"
   viewBox="0 0 100 100"
   enable-background="new 0 0 100 100"
   xml:space="preserve"
   sodipodi:docname="Cloud-Wind-Sun-symbolic.svg"
   inkscape:version="0.92.4 5da689c313, 2019-01-14"><metadata
   id="metadata9"><rdf:RDF><cc:Work
       rdf:about=""><dc:format>image/svg+xml</dc:format><dc:type
         rdf:resource="http://purl.org/dc/dcmitype/StillImage" /></cc:Work></rdf:RDF></metadata><defs
   id="defs7" /><sodipodi:namedview
   pagecolor="#ffffff"
   bordercolor="#666666"
   borderopacity="1"
   objecttolerance="10"
   gridtolerance="10"
   guidetolerance="10"
   inkscape:pageopacity="0"
   inkscape:pageshadow="2"
   inkscape:window-width="640"
   inkscape:window-height="480"
   id="namedview5"
   showgrid="false"
   inkscape:zoom="2.36"
   inkscape:cx="50"
   inkscape:cy="50"
   inkscape:window-x="0"
   inkscape:window-y="0"
   inkscape:window-maximized="0"
   inkscape:current-layer="Layer_1" />
<path
   d="M 90.351598,40.557862 H 84.15323 c -1.71075,0 -3.097635,-1.388434 -3.097635,-3.099184 0,-1.710749 1.386885,-3.099184 3.097635,-3.099184 h 6.198368 c 1.710749,0 3.099184,1.388435 3.099184,3.099184 0,1.71075 -1.386885,3.099184 -3.099184,3.099184 z M 78.178003,19.928144 c -1.210231,1.210231 -3.173564,1.210231 -4.382246,0 -1.210231,-1.210231 -1.210231,-3.172015 0,-4.382246 l 4.382246,-4.382247 c 1.208682,-1.2102312 3.172015,-1.2102312 4.380697,0 1.210231,1.210232 1.210231,3.172015 0,4.382247 z m -4.569747,24.186032 v 0 c 1.413228,1.684407 2.525835,3.626045 3.275838,5.739689 h -0.0155 c 0.330063,0.932854 0.596593,1.893601 0.774796,2.88689 -2.160131,-1.541844 -4.724706,-2.550629 -7.512422,-2.81251 -0.0155,-0.02634 -0.03409,-0.04804 -0.04959,-0.07438 h 0.0046 c -2.144636,-3.701975 -6.137934,-6.196819 -10.723177,-6.196819 -2.480897,0 -4.778942,0.743805 -6.715932,1.998974 -1.907547,-8.237631 -9.257262,-14.39571 -18.07599,-14.39571 -10.267597,0 -18.592005,8.324409 -18.592005,18.593555 v 0 c 0,10.267596 8.324408,18.593554 18.592005,18.593554 4.027389,0 12.633823,0 18.905022,0 h 15.182902 c 1.71075,0 3.097635,-1.388434 3.097635,-3.099184 0,-1.712299 -1.386885,-3.099184 -3.097635,-3.099184 -1.710749,0 -3.099184,-1.388434 -3.099184,-3.099184 0,-1.710749 1.388435,-3.099184 3.099184,-3.099184 0.213844,0 0.421489,0.0217 0.622936,0.06353 4.837827,0.326963 8.673067,4.312514 8.673067,9.234018 0,4.740202 -3.550115,8.642075 -8.133809,9.215424 v 0.08058 H 68.658859 56.285367 c -6.216963,0 -17.600266,0 -21.714432,0 -1.71075,0 -3.097635,1.388434 -3.097635,3.097634 0,1.712299 1.388435,3.099184 3.097635,3.099184 h 34.087924 1.162194 v 0.08213 c 4.583694,0.5718 8.133809,4.476772 8.133809,9.215424 0,4.919955 -3.83524,8.905505 -8.673067,9.232469 -0.201447,0.04029 -0.410641,0.06353 -0.622936,0.06353 -1.710749,0 -3.099184,-1.388435 -3.099184,-3.099184 0,-1.71075 1.388435,-3.097635 3.099184,-3.097635 1.71075,0 3.097635,-1.388434 3.097635,-3.099184 0,-1.712299 -1.386885,-3.099184 -3.097635,-3.099184 H 34.572484 33.41184 v -0.08058 c -4.585243,-0.573349 -8.135358,-4.478321 -8.135358,-9.216973 0,-1.634819 0.45558,-3.148771 1.197834,-4.478321 C 16.764573,69.904036 9.783661,60.705658 9.783661,49.853865 c 0,-13.690645 11.098178,-24.790373 24.788823,-24.790373 2.437508,0 4.788239,0.359505 7.010354,1.014983 3.401355,-4.382246 8.704059,-7.211801 14.682385,-7.211801 10.267596,0 18.592004,8.322858 18.592004,18.592004 0,2.347632 -0.45403,4.585243 -1.248971,6.655498 z M 56.265223,25.063492 c -3.429248,0 -6.531531,1.391534 -8.77534,3.643091 3.627595,2.223664 6.641551,5.347642 8.724203,9.071311 1.02738,-0.176653 2.070255,-0.317666 3.150321,-0.317666 3.292883,0 6.381219,0.866222 9.065113,2.366227 v 0 c 0.148761,-0.765498 0.230889,-1.55734 0.230889,-2.366227 0,-6.847647 -5.550639,-12.396736 -12.395186,-12.396736 z m 0,-12.395187 c -1.71075,0 -3.099184,-1.388434 -3.099184,-3.099184 V 3.3723026 c 0,-1.7107496 1.388434,-3.09918396 3.099184,-3.09918396 1.710749,0 3.099184,1.38843436 3.099184,3.09918396 V 9.569121 c 0,1.71075 -1.388435,3.099184 -3.099184,3.099184 z m -21.912781,7.259839 -4.382246,-4.382246 c -1.210231,-1.210232 -1.210231,-3.172015 0,-4.382247 1.210231,-1.2102312 3.172015,-1.2102312 4.382246,0 l 4.382246,4.382247 c 1.210232,1.210231 1.210232,3.172015 0,4.382246 -1.210231,1.210231 -3.170465,1.210231 -4.382246,0 z m 42.054377,57.813728 c 0,-1.710749 1.388435,-3.097634 3.099184,-3.097634 h 4.647227 c 1.710749,0 3.099184,-1.388435 3.099184,-3.099184 0,-1.71075 -1.388435,-3.097635 -3.099184,-3.097635 -1.71075,0 -3.097635,-1.388434 -3.097635,-3.099184 0,-1.712299 1.386885,-3.099184 3.097635,-3.099184 0.215393,0 0.423038,0.0217 0.624485,0.06353 4.837827,0.326963 8.673067,4.312514 8.673067,9.232469 0,4.740202 -3.550115,8.642074 -8.135358,9.216973 v 0.07903 H 84.15323 79.506003 c -1.710749,0 -3.099184,-1.386885 -3.099184,-3.099184 z"
   id="path2"
   inkscape:connector-curvature="0"
   style="clip-rule:evenodd;fill-rule:evenodd;stroke-width:1.54959202" />
</svg>