<?xml version="1.0" encoding="utf-8"?>
<!-- Generator: Adobe Illustrator 15.1.0, SVG Export Plug-In . SVG Version: 6.00 Build 0)  -->
<!DOCTYPE svg PUBLIC "-//W3C//DTD SVG 1.1//EN" "http://www.w3.org/Graphics/SVG/1.1/DTD/svg11.dtd">
<svg version="1.1" id="Layer_1" xmlns="http://www.w3.org/2000/svg" xmlns:xlink="http://www.w3.org/1999/xlink" x="0px" y="0px"
	 width="100px" height="100px" viewBox="0 0 100 100" enable-background="new 0 0 100 100" xml:space="preserve">
<path fill-rule="evenodd" clip-rule="evenodd" d="M79.997,43.642h-4c-1.104,0-1.999-0.895-1.999-2c0-1.104,0.895-2,1.999-2h4
	c1.104,0,2,0.896,2,2C81.997,42.748,81.102,43.642,79.997,43.642z M72.141,30.33c-0.781,0.781-2.048,0.781-2.828,0
	c-0.781-0.781-0.781-2.047,0-2.828l2.828-2.828c0.78-0.781,2.047-0.781,2.827,0c0.781,0.781,0.781,2.047,0,2.828L72.141,30.33z
	 M69.192,45.937L69.192,45.937c1.749,2.084,2.806,4.77,2.806,7.704c0,5.945-4.326,10.865-9.999,11.82v-4.082
	c3.448-0.891,5.999-4.012,5.999-7.738c0-4.417-3.581-7.999-7.998-7.999c-1.601,0-3.084,0.48-4.334,1.291
	c-1.231-5.316-5.974-9.291-11.665-9.291c-6.626,0-11.998,5.373-11.998,12c0,4.438,2.416,8.305,5.999,10.379v4.445
	c-5.86-2.375-9.998-8.113-9.998-14.825c0-8.836,7.162-15.999,15.997-15.999c1.573,0,3.09,0.232,4.524,0.655
	c2.195-2.828,5.617-4.654,9.475-4.654c6.626,0,11.998,5.371,11.998,11.998C69.998,43.158,69.705,44.601,69.192,45.937z M58,33.644
	c-2.213,0-4.215,0.898-5.663,2.351c2.341,1.435,4.286,3.453,5.63,5.853c0.663-0.113,1.336-0.205,2.033-0.205
	c2.125,0,4.118,0.559,5.85,1.527l0,0c0.096-0.494,0.149-1.004,0.149-1.527C65.999,37.224,62.417,33.644,58,33.644z M58,25.645
	c-1.104,0-2-0.895-2-2v-3.999c0-1.104,0.896-2,2-2s2,0.896,2,2v3.999C60,24.75,59.104,25.645,58,25.645z M43.859,30.33l-2.828-2.828
	c-0.781-0.781-0.781-2.047,0-2.828s2.047-0.781,2.828,0l2.828,2.828c0.781,0.781,0.781,2.047,0,2.828S44.641,31.111,43.859,30.33z
	 M43.073,59.641c0.553-0.957,1.775-1.283,2.731-0.732l2.196,1.268v-2.535c0-1.104,0.896-2,2-2s1.999,0.896,1.999,2v2.535
	l2.196-1.268c0.956-0.551,2.18-0.225,2.731,0.732c0.553,0.957,0.225,2.18-0.731,2.732L54,63.641l2.196,1.268
	c0.956,0.553,1.284,1.775,0.731,2.732c-0.552,0.955-1.775,1.283-2.731,0.73L52,67.104v2.535c0,1.105-0.895,2-1.999,2s-2-0.895-2-2
	v-2.535l-2.196,1.268c-0.956,0.553-2.179,0.225-2.731-0.73c-0.552-0.957-0.225-2.18,0.732-2.732l2.195-1.268l-2.195-1.268
	C42.849,61.82,42.521,60.598,43.073,59.641z M50.001,65.641c1.104,0,1.999-0.896,1.999-2c0-1.105-0.895-2-1.999-2s-2,0.895-2,2
	C48.001,64.744,48.896,65.641,50.001,65.641z"/>
</svg>
