<?xml version="1.0" encoding="utf-8"?>
<!-- Generator: Adobe Illustrator 15.1.0, SVG Export Plug-In . SVG Version: 6.00 Build 0)  -->
<!DOCTYPE svg PUBLIC "-//W3C//DTD SVG 1.1//EN" "http://www.w3.org/Graphics/SVG/1.1/DTD/svg11.dtd">
<svg version="1.1" id="Layer_1" xmlns="http://www.w3.org/2000/svg" xmlns:xlink="http://www.w3.org/1999/xlink" x="0px" y="0px"
	 width="100px" height="100px" viewBox="0 0 100 100" enable-background="new 0 0 100 100" xml:space="preserve">
<path fill-rule="evenodd" clip-rule="evenodd" d="M79.997,43.643h-4c-1.104,0-1.999-0.895-1.999-2c0-1.104,0.896-2,1.999-2h4
	c1.104,0,2,0.896,2,2C81.997,42.748,81.102,43.643,79.997,43.643z M72.14,30.331c-0.78,0.781-2.047,0.781-2.828,0
	c-0.78-0.781-0.78-2.047,0-2.828l2.828-2.828c0.781-0.781,2.048-0.781,2.828,0c0.781,0.781,0.781,2.047,0,2.828L72.14,30.331z
	 M69.192,45.938L69.192,45.938c1.75,2.084,2.806,4.77,2.806,7.703c0,5.223-3.342,9.652-7.999,11.303v-4.381
	c2.389-1.385,4-3.963,4-6.922c0-4.416-3.582-7.998-8-7.998c-1.6,0-3.082,0.48-4.333,1.291c-1.231-5.316-5.974-9.291-11.665-9.291
	c-6.626,0-11.998,5.373-11.998,12c0,1.404,0.252,2.748,0.697,3.998l0,0c0.68,1.91,1.822,3.6,3.303,4.926v4.916
	c-3.66-2.121-6.393-5.648-7.477-9.842c-0.332-1.279-0.523-2.615-0.523-3.998c0-8.835,7.163-15.999,15.998-15.999
	c1.573,0,3.09,0.232,4.524,0.655c2.195-2.828,5.618-4.654,9.475-4.654c6.626,0,11.999,5.371,11.999,11.998
	C69.999,43.158,69.706,44.602,69.192,45.938z M58,33.644c-2.212,0-4.215,0.898-5.663,2.351c2.341,1.435,4.286,3.452,5.629,5.853
	c0.664-0.113,1.338-0.205,2.033-0.205c2.126,0,4.119,0.559,5.85,1.527l0,0c0.097-0.494,0.15-1.004,0.15-1.527
	C65.999,37.225,62.417,33.644,58,33.644z M58,25.645c-1.104,0-2-0.895-2-2v-3.999c0-1.104,0.896-2,2-2s1.999,0.896,1.999,2v3.999
	C59.999,24.75,59.104,25.645,58,25.645z M43.859,30.331l-2.828-2.828c-0.78-0.781-0.78-2.047,0-2.828
	c0.781-0.781,2.048-0.781,2.828,0l2.828,2.828c0.781,0.781,0.781,2.047,0,2.828C45.907,31.112,44.641,31.112,43.859,30.331z
	 M31.003,72.639c1.105,0,2,0.896,2,2c0,1.105-0.895,2-2,2c-1.104,0-2-0.895-2-2C29.003,73.535,29.899,72.639,31.003,72.639z
	 M41.002,55.641c0-1.104-0.104-2,1-2l0,0c1.104,0,1,0.896,1,2v23.998h-2l0,0l0,0c0-2.209-1.79-4-3.999-4v-2
	c1.543,0,2.936,0.6,3.999,1.557V55.641z M50.001,69.639c-1.104,0-1-0.895-1-1.998v-8c0-1.104-0.104-2,1-2s1,0.896,1,2v8
	C51.001,68.744,51.105,69.639,50.001,69.639z M50.001,73.639c1.104,0,2,0.896,2,2s-0.896,2-2,2s-2-0.896-2-2
	S48.896,73.639,50.001,73.639z M58,53.641L58,53.641c1.104,0,1,0.896,1,2v18.016c1.823-2.434,4.723-4.018,7.999-4.018v2
	c-4.418,0-7.999,3.582-7.999,8h-2c0-0.273,0.02-0.539,0.04-0.807C56.987,78.498,57,78.088,57,77.639V55.641
	C57,54.537,56.896,53.641,58,53.641z M72.998,67.641c1.104,0,1.999,0.895,1.999,1.998c0,1.105-0.895,2-1.999,2s-2-0.895-2-2
	C70.998,68.535,71.894,67.641,72.998,67.641z"/>
</svg>
