<?xml version="1.0" encoding="utf-8"?>
<!-- Generator: Adobe Illustrator 15.1.0, SVG Export Plug-In . SVG Version: 6.00 Build 0)  -->
<!DOCTYPE svg PUBLIC "-//W3C//DTD SVG 1.1//EN" "http://www.w3.org/Graphics/SVG/1.1/DTD/svg11.dtd">
<svg version="1.1" id="Layer_1" xmlns="http://www.w3.org/2000/svg" xmlns:xlink="http://www.w3.org/1999/xlink" x="0px" y="0px"
	 width="100px" height="100px" viewBox="0 0 100 100" enable-background="new 0 0 100 100" xml:space="preserve">
<path fill-rule="evenodd" clip-rule="evenodd" d="M79.997,43.643h-4c-1.104,0-1.999-0.896-1.999-2s0.895-2,1.999-2h4
	c1.104,0,2,0.896,2,2S81.102,43.643,79.997,43.643z M72.141,30.33c-0.781,0.781-2.048,0.781-2.828,0
	c-0.781-0.781-0.781-2.047,0-2.828l2.828-2.828c0.78-0.781,2.047-0.781,2.827,0c0.781,0.781,0.781,2.047,0,2.828L72.141,30.33z
	 M69.192,45.938L69.192,45.938c0.912,1.087,1.63,2.34,2.114,3.704h-0.01c0.213,0.602,0.385,1.222,0.5,1.863
	c-1.394-0.995-3.049-1.646-4.848-1.815c-0.01-0.017-0.022-0.031-0.032-0.048h0.003c-1.384-2.389-3.961-3.999-6.92-3.999
	c-1.601,0-3.084,0.48-4.334,1.29c-1.231-5.316-5.974-9.29-11.665-9.29c-6.626,0-11.998,5.372-11.998,11.999l0,0
	c0,6.626,5.372,11.999,11.998,11.999c2.599,0,8.153,0,12.2,0h9.798c1.104,0,1.999-0.896,1.999-2c0-1.105-0.895-2-1.999-2
	s-2-0.896-2-2s0.896-2,2-2c0.138,0,0.272,0.014,0.402,0.041c3.122,0.211,5.597,2.783,5.597,5.959c0,3.059-2.291,5.577-5.249,5.947
	v0.052h-0.75h-7.985c-4.012,0-11.358,0-14.013,0c-1.104,0-1.999,0.896-1.999,1.999c0,1.105,0.896,2,1.999,2h21.998h0.75v0.053
	c2.958,0.369,5.249,2.889,5.249,5.947c0,3.175-2.475,5.747-5.597,5.958c-0.13,0.026-0.265,0.041-0.402,0.041c-1.104,0-2-0.896-2-2
	s0.896-1.999,2-1.999s1.999-0.896,1.999-2c0-1.105-0.895-2-1.999-2H44.001h-0.749v-0.052c-2.959-0.37-5.25-2.89-5.25-5.948
	c0-1.055,0.294-2.032,0.773-2.89c-6.266-2.168-10.771-8.104-10.771-15.107c0-8.835,7.162-15.998,15.997-15.998
	c1.573,0,3.09,0.232,4.524,0.655c2.195-2.828,5.617-4.654,9.475-4.654c6.626,0,11.998,5.371,11.998,11.998
	C69.998,43.158,69.705,44.602,69.192,45.938z M58,33.644c-2.213,0-4.215,0.898-5.663,2.351c2.341,1.435,4.286,3.451,5.63,5.854
	c0.663-0.114,1.336-0.205,2.033-0.205c2.125,0,4.118,0.559,5.85,1.527l0,0c0.096-0.494,0.149-1.005,0.149-1.527
	C65.999,37.225,62.417,33.644,58,33.644z M58,25.645c-1.104,0-2-0.896-2-2v-3.999c0-1.104,0.896-2,2-2s2,0.896,2,2v3.999
	C60,24.749,59.104,25.645,58,25.645z M43.859,30.33l-2.828-2.828c-0.781-0.781-0.781-2.047,0-2.828s2.047-0.781,2.828,0l2.828,2.828
	c0.781,0.781,0.781,2.047,0,2.828S44.641,31.111,43.859,30.33z M70.998,67.639c0-1.104,0.896-1.999,2-1.999h2.999
	c1.104,0,2-0.896,2-2s-0.896-1.999-2-1.999s-1.999-0.896-1.999-2c0-1.105,0.895-2,1.999-2c0.139,0,0.273,0.014,0.403,0.041
	c3.122,0.211,5.597,2.783,5.597,5.958c0,3.059-2.291,5.577-5.25,5.948v0.051h-0.75h-2.999
	C71.894,69.639,70.998,68.744,70.998,67.639z"/>
</svg>
