<?xml version="1.0" encoding="UTF-8" standalone="no"?>
<!-- Generator: Adobe Illustrator 15.1.0, SVG Export Plug-In . SVG Version: 6.00 Build 0)  -->

<svg
   xmlns:dc="http://purl.org/dc/elements/1.1/"
   xmlns:cc="http://creativecommons.org/ns#"
   xmlns:rdf="http://www.w3.org/1999/02/22-rdf-syntax-ns#"
   xmlns:svg="http://www.w3.org/2000/svg"
   xmlns="http://www.w3.org/2000/svg"
   xmlns:sodipodi="http://sodipodi.sourceforge.net/DTD/sodipodi-0.dtd"
   xmlns:inkscape="http://www.inkscape.org/namespaces/inkscape"
   version="1.1"
   id="Layer_1"
   x="0px"
   y="0px"
   width="100px"
   height="100px"
   viewBox="0 0 100 100"
   enable-background="new 0 0 100 100"
   xml:space="preserve"
   sodipodi:docname="Cloud-Fog-Sun.svg"
   inkscape:version="0.92.4 5da689c313, 2019-01-14"><metadata
   id="metadata9"><rdf:RDF><cc:Work
       rdf:about=""><dc:format>image/svg+xml</dc:format><dc:type
         rdf:resource="http://purl.org/dc/dcmitype/StillImage" /></cc:Work></rdf:RDF></metadata><defs
   id="defs7" /><sodipodi:namedview
   pagecolor="#ffffff"
   bordercolor="#666666"
   borderopacity="1"
   objecttolerance="10"
   gridtolerance="10"
   guidetolerance="10"
   inkscape:pageopacity="0"
   inkscape:pageshadow="2"
   inkscape:window-width="640"
   inkscape:window-height="480"
   id="namedview5"
   showgrid="false"
   inkscape:zoom="2.36"
   inkscape:cx="50"
   inkscape:cy="50"
   inkscape:window-x="0"
   inkscape:window-y="0"
   inkscape:window-maximized="0"
   inkscape:current-layer="Layer_1" />
<path
   d="m 95.099297,46.531852 h -7.116043 c -1.964519,0 -3.558912,-1.592612 -3.558912,-3.55891 0,-1.96452 1.594393,-3.558912 3.558912,-3.558912 h 7.116043 c 1.964519,0 3.558912,1.594392 3.558912,3.558912 0,1.968077 -1.592613,3.55891 -3.558912,3.55891 z M 81.119893,22.843736 c -1.389755,1.389756 -3.642546,1.389756 -5.032302,0 -1.389754,-1.389754 -1.389754,-3.642545 0,-5.032301 l 5.032302,-5.032301 c 1.389755,-1.389754 3.642546,-1.389754 5.032301,0 1.387975,1.389756 1.387975,3.642547 0,5.032301 z m -5.245836,27.771968 v 0 c 1.622864,1.936048 2.900513,4.163926 3.75999,6.592884 h -7.806473 c -2.462766,-4.25112 -7.048424,-7.117824 -12.313835,-7.117824 -2.848908,0 -5.486061,0.85414 -7.71216,2.297278 -2.190511,-9.459587 -10.62869,-16.532924 -20.755574,-16.532924 -11.792453,0 -21.3516898,9.561016 -21.3516898,21.35347 h -7.116044 c 0,-15.723271 12.7444628,-28.469514 28.4677338,-28.469514 2.797305,0 5.49674,0.412834 8.048479,1.165544 3.905906,-5.032302 9.996984,-8.281588 16.860345,-8.281588 11.792454,0 21.35169,9.557458 21.35169,21.349912 0.0018,2.697654 -0.519602,5.265409 -1.432462,7.642762 z m -19.91745,-21.87485 c -3.936156,0 -7.500405,1.597951 -10.075278,4.1835 4.163926,2.55352 7.624968,6.144461 10.016557,10.415155 1.181558,-0.201078 2.379132,-0.364789 3.617633,-0.364789 3.781344,0 7.327799,0.994717 10.409817,2.717229 v 0 c 0.170828,-0.87905 0.265139,-1.786573 0.265139,-2.717229 0,-7.861635 -6.372231,-14.233866 -14.233868,-14.233866 z m 0,-14.233868 c -1.964518,0 -3.55891,-1.592613 -3.55891,-3.558912 V 3.8320305 c 0,-1.9645193 1.594392,-3.55891173 3.55891,-3.55891173 1.96452,0 3.558912,1.59439243 3.558912,3.55891173 v 7.1160435 c 0,1.966299 -1.592613,3.558912 -3.558912,3.558912 z m -25.163285,8.33675 -5.030521,-5.032301 c -1.389754,-1.389754 -1.389754,-3.642545 0,-5.032301 1.387976,-1.389754 3.642547,-1.389754 5.030521,0 l 5.032302,5.032301 c 1.389755,1.389756 1.389755,3.642547 0,5.032301 -1.387975,1.389756 -3.640766,1.389756 -5.032302,0 z M 6.1389624,64.324632 H 77.308298 c 1.96452,0 3.557133,1.594392 3.557133,3.558912 0,1.966298 -1.594393,3.558911 -3.557133,3.558911 H 6.1389624 c -1.9645193,0 -3.5589117,-1.592613 -3.5589117,-3.558911 0,-1.96452 1.592613,-3.558912 3.5589117,-3.558912 z m 0,14.235646 H 77.308298 c 1.96452,0 3.557133,1.592614 3.557133,3.558912 0,1.964519 -1.594393,3.558911 -3.557133,3.558911 H 6.1389624 c -1.9645193,0 -3.5589117,-1.594392 -3.5589117,-3.558911 0,-1.968078 1.592613,-3.558912 3.5589117,-3.558912 z m 0,14.232088 H 77.308298 c 1.96452,0 3.557133,1.594392 3.557133,3.558912 0,1.966293 -1.594393,3.558906 -3.557133,3.558906 H 6.1389624 c -1.9645193,0 -3.5589117,-1.592613 -3.5589117,-3.558906 0,-1.96452 1.592613,-3.558912 3.5589117,-3.558912 z"
   id="path2"
   inkscape:connector-curvature="0"
   style="clip-rule:evenodd;fill-rule:evenodd;stroke-width:1.7794559" />
</svg>