<?xml version="1.0" encoding="UTF-8" standalone="no"?>
<!-- Generator: Adobe Illustrator 15.1.0, SVG Export Plug-In . SVG Version: 6.00 Build 0)  -->

<svg
   xmlns:dc="http://purl.org/dc/elements/1.1/"
   xmlns:cc="http://creativecommons.org/ns#"
   xmlns:rdf="http://www.w3.org/1999/02/22-rdf-syntax-ns#"
   xmlns:svg="http://www.w3.org/2000/svg"
   xmlns="http://www.w3.org/2000/svg"
   xmlns:sodipodi="http://sodipodi.sourceforge.net/DTD/sodipodi-0.dtd"
   xmlns:inkscape="http://www.inkscape.org/namespaces/inkscape"
   version="1.1"
   id="Layer_1"
   x="0px"
   y="0px"
   width="100px"
   height="100px"
   viewBox="0 0 100 100"
   enable-background="new 0 0 100 100"
   xml:space="preserve"
   sodipodi:docname="Cloud-Sun-symbolic.svg"
   inkscape:version="0.92.4 5da689c313, 2019-01-14"><metadata
   id="metadata9"><rdf:RDF><cc:Work
       rdf:about=""><dc:format>image/svg+xml</dc:format><dc:type
         rdf:resource="http://purl.org/dc/dcmitype/StillImage" /></cc:Work></rdf:RDF></metadata><defs
   id="defs7" /><sodipodi:namedview
   pagecolor="#ffffff"
   bordercolor="#666666"
   borderopacity="1"
   objecttolerance="10"
   gridtolerance="10"
   guidetolerance="10"
   inkscape:pageopacity="0"
   inkscape:pageshadow="2"
   inkscape:window-width="640"
   inkscape:window-height="480"
   id="namedview5"
   showgrid="false"
   inkscape:zoom="2.36"
   inkscape:cx="50"
   inkscape:cy="50"
   inkscape:window-x="0"
   inkscape:window-y="0"
   inkscape:window-maximized="0"
   inkscape:current-layer="Layer_1" />
<path
   d="m 96.466204,53.809959 h -7.39027 c -2.039715,0 -3.695135,-1.653573 -3.695135,-3.695135 0,-2.039715 1.65542,-3.69144 3.695135,-3.69144 h 7.39027 c 2.039714,0 3.695136,1.653573 3.695136,3.69144 0,2.041562 -1.655422,3.695135 -3.695136,3.695135 z M 81.949866,29.21514 c -1.44295,1.442951 -3.781971,1.442951 -5.224921,0 -1.44295,-1.441102 -1.44295,-3.78197 0,-5.223073 l 5.224921,-5.224921 c 1.44295,-1.442951 3.781971,-1.442951 5.224921,0 1.44295,1.441102 1.44295,3.78197 0,5.224921 z m -5.444781,28.834986 v 0 c 3.231395,3.854026 5.184274,8.812897 5.184274,14.235508 0,12.240135 -9.925133,22.167115 -22.168962,22.167115 -5.127,0 -23.650712,0 -29.557385,0 -16.323259,0 -29.55738488,-13.232279 -29.55738488,-29.557385 0,-16.325106 13.23412588,-29.557385 29.55738488,-29.557385 2.904376,0 5.708983,0.428636 8.356548,1.208309 4.05541,-5.223073 10.379634,-8.598579 17.505702,-8.598579 12.243829,0 22.168962,9.92698 22.168962,22.167115 -0.0018,2.799065 -0.543185,5.470647 -1.489139,7.935302 z M 7.7940495,64.895364 c 0,12.24383 9.9232855,22.167115 22.1671145,22.167115 6.680804,0 23.979579,0 29.557385,0 8.162553,0 14.778692,-6.617987 14.778692,-14.776845 0,-8.162553 -6.616139,-14.78054 -14.778692,-14.78054 -2.956108,0 -5.696051,0.890528 -8.00551,2.38521 -2.274356,-9.821669 -11.037368,-17.162055 -21.551875,-17.162055 -12.243829,0 -22.1671145,9.923285 -22.1671145,22.167115 z M 55.823414,35.337979 c -4.086819,0 -7.787497,1.659116 -10.460927,4.339936 4.323308,2.653107 7.916827,6.379651 10.399957,10.81566 1.226785,-0.208775 2.470198,-0.378751 3.756105,-0.378751 3.926081,0 7.610131,1.03279 10.80827,2.821236 v 0 c 0.177366,-0.912699 0.277135,-1.854958 0.277135,-2.821236 0,-8.158858 -6.617987,-14.776845 -14.78054,-14.776845 z m 0,-14.780541 c -2.039714,0 -3.693287,-1.653572 -3.693287,-3.693287 V 9.4757282 c 0,-2.0415621 1.65542,-3.695135 3.693287,-3.695135 2.041562,0 3.695135,1.6535729 3.695135,3.695135 v 7.3884228 c 0,2.041562 -1.651725,3.693287 -3.695135,3.693287 z M 29.69881,29.21514 24.475736,23.992067 c -1.44295,-1.442951 -1.44295,-3.783819 0,-5.224921 1.441103,-1.442951 3.781971,-1.442951 5.223074,0 l 5.22492,5.224921 c 1.442951,1.441103 1.442951,3.781971 0,5.223073 -1.441102,1.442951 -3.78197,1.442951 -5.22492,0 z"
   id="path2"
   inkscape:connector-curvature="0"
   style="clip-rule:evenodd;fill-rule:evenodd;stroke-width:1.84756756" />
</svg>