<?xml version="1.0" encoding="UTF-8" standalone="no"?>
<!-- Generator: Adobe Illustrator 15.1.0, SVG Export Plug-In . SVG Version: 6.00 Build 0)  -->

<svg
   xmlns:dc="http://purl.org/dc/elements/1.1/"
   xmlns:cc="http://creativecommons.org/ns#"
   xmlns:rdf="http://www.w3.org/1999/02/22-rdf-syntax-ns#"
   xmlns:svg="http://www.w3.org/2000/svg"
   xmlns="http://www.w3.org/2000/svg"
   xmlns:sodipodi="http://sodipodi.sourceforge.net/DTD/sodipodi-0.dtd"
   xmlns:inkscape="http://www.inkscape.org/namespaces/inkscape"
   version="1.1"
   id="Layer_1"
   x="0px"
   y="0px"
   width="100px"
   height="100px"
   viewBox="0 0 100 100"
   enable-background="new 0 0 100 100"
   xml:space="preserve"
   sodipodi:docname="Cloud-Hail-Moon-Alt-symbolic.svg"
   inkscape:version="0.92.4 5da689c313, 2019-01-14"><metadata
   id="metadata9"><rdf:RDF><cc:Work
       rdf:about=""><dc:format>image/svg+xml</dc:format><dc:type
         rdf:resource="http://purl.org/dc/dcmitype/StillImage" /></cc:Work></rdf:RDF></metadata><defs
   id="defs7" /><sodipodi:namedview
   pagecolor="#ffffff"
   bordercolor="#666666"
   borderopacity="1"
   objecttolerance="10"
   gridtolerance="10"
   guidetolerance="10"
   inkscape:pageopacity="0"
   inkscape:pageshadow="2"
   inkscape:window-width="1078"
   inkscape:window-height="936"
   id="namedview5"
   showgrid="false"
   inkscape:zoom="2.36"
   inkscape:cx="50"
   inkscape:cy="50"
   inkscape:window-x="0"
   inkscape:window-y="0"
   inkscape:window-maximized="0"
   inkscape:current-layer="Layer_1"
   showguides="true"
   inkscape:guide-bbox="true"><sodipodi:guide
     position="14.830508,39.40678"
     orientation="1,0"
     id="guide7"
     inkscape:locked="false" /><sodipodi:guide
     position="21.724028,50.06468"
     orientation="0,1"
     id="guide9"
     inkscape:locked="false" /></sodipodi:namedview>
<path
   d="m 85.031836,83.340695 c -1.7112,0 -3.09845,-1.38725 -3.09845,-3.1 0,-1.7112 1.3888,-3.0969 3.09845,-3.0969 1.71275,0 3.1,1.38725 3.1,3.0969 0,1.71275 -1.3857,3.1 -3.1,3.1 z m -4.92745,-38.56245 c 2.12195,3.02095 3.379,6.6929 3.379,10.66555 0,8.09565 -5.18165,14.9606 -12.39845,17.51965 v -6.79055 c 3.70295,-2.14675 6.2,-6.14265 6.2,-10.7291 0,-6.8448 -5.5521,-12.3969 -12.4,-12.3969 -2.48,0 -4.77865,0.744 -6.71615,2.00105 -1.90805,-8.2398 -9.2597,-14.40105 -18.08075,-14.40105 -10.2703,0 -18.5969,8.32815 -18.5969,18.6 0,2.1762 0.3906,4.2594 1.08035,6.1969 v 0 c 1.054,2.9605 2.8241,5.58 5.11965,7.6353 v 7.6198 c -5.673,-3.28755 -9.90915,-8.7544 -11.58935,-15.2551 -0.5146,-1.98245 -0.81065,-4.05325 -0.81065,-6.1969 0,-13.69425 11.10265,-24.79845 24.7969,-24.79845 3.1031,0 6.0667,0.5828 8.804,1.6244 2.53425,-7.2571 9.4209,-12.47285 17.5429,-12.47285 1.1718,0 2.31105,0.1209 3.4224,0.32705 -0.2046,0.8928 -0.3224,1.8197 -0.3224,2.77295 0,6.8479 5.5521,12.3969 12.39845,12.3969 0.9548,0 1.8786,-0.11625 2.7714,-0.32085 0.20615,1.11135 0.32705,2.25215 0.32705,3.42085 0,4.8577 -1.87705,9.2659 -4.92745,12.58135 z m -16.4393,-24.6574 c -4.495,1.0292 -8.02125,4.5105 -9.18375,8.95125 v 0 c 2.97135,2.1266 5.4591,4.8856 7.25245,8.091 1.0292,-0.17515 2.0739,-0.31775 3.15115,-0.31775 4.0579,0 7.80115,1.3144 10.8593,3.52005 1.3299,-1.519 2.30175,-3.3604 2.76675,-5.3971 -7.52215,-1.39965 -13.44625,-7.3222 -14.8459,-14.84745 z M 61.784936,-0.34845512 Z M 19.941136,84.890695 c 1.7112,0 3.1,1.3888 3.1,3.1 0,1.71275 -1.3888,3.1 -3.1,3.1 -1.7112,0 -3.1,-1.38725 -3.1,-3.1 0,-1.7112 1.38725,-3.1 3.1,-3.1 z m 15.49845,-26.3469 c 0,-1.7112 -0.1612,-3.1 1.54845,-3.1 v 0 c 1.71275,0 1.55,1.3888 1.55,3.1 v 37.1969 h -3.09845 v 0 0 c 0,-3.42395 -2.7745,-6.2 -6.19845,-6.2 v -3.1 c 2.39165,0 4.5508,0.93 6.19845,2.41335 z m 13.94845,21.6969 c -1.7112,0 -1.55,-1.38725 -1.55,-3.0969 v -12.4 c 0,-1.7112 -0.1612,-3.1 1.55,-3.1 1.7112,0 1.55,1.3888 1.55,3.1 v 12.4 c 0,1.70965 0.15965,3.0969 -1.55,3.0969 z m 0,6.2 c 1.7112,0 3.1,1.3888 3.1,3.1 0,1.7112 -1.3888,3.1 -3.1,3.1 -1.7112,0 -3.1,-1.3888 -3.1,-3.1 0,-1.7112 1.38725,-3.1 3.1,-3.1 z m 12.3969,-30.9969 v 0 c 1.71275,0 1.55,1.3888 1.55,3.1 v 27.9248 c 2.8272,-3.7727 7.32065,-6.2279 12.4,-6.2279 v 3.1 c -6.8479,0 -12.4,5.5521 -12.4,12.4 h -3.09845 c 0,-0.42315 0.02945,-0.83545 0.062,-1.25085 -0.08215,-0.5177 -0.062,-1.1532 -0.062,-1.84915 v -34.0969 c 0,-1.7112 -0.1612,-3.1 1.54845,-3.1 z"
   id="path2"
   inkscape:connector-curvature="0"
   style="clip-rule:evenodd;fill-rule:evenodd;stroke-width:1.54999995" />
</svg>