<?xml version="1.0" encoding="UTF-8" standalone="no"?>
<!-- Generator: Adobe Illustrator 15.1.0, SVG Export Plug-In . SVG Version: 6.00 Build 0)  -->

<svg
   xmlns:dc="http://purl.org/dc/elements/1.1/"
   xmlns:cc="http://creativecommons.org/ns#"
   xmlns:rdf="http://www.w3.org/1999/02/22-rdf-syntax-ns#"
   xmlns:svg="http://www.w3.org/2000/svg"
   xmlns="http://www.w3.org/2000/svg"
   xmlns:sodipodi="http://sodipodi.sourceforge.net/DTD/sodipodi-0.dtd"
   xmlns:inkscape="http://www.inkscape.org/namespaces/inkscape"
   version="1.1"
   id="Layer_1"
   x="0px"
   y="0px"
   width="100px"
   height="100px"
   viewBox="0 0 100 100"
   enable-background="new 0 0 100 100"
   xml:space="preserve"
   sodipodi:docname="Cloud-Drizzle-Moon-symbolic.svg"
   inkscape:version="0.92.4 5da689c313, 2019-01-14"><metadata
   id="metadata9"><rdf:RDF><cc:Work
       rdf:about=""><dc:format>image/svg+xml</dc:format><dc:type
         rdf:resource="http://purl.org/dc/dcmitype/StillImage" /></cc:Work></rdf:RDF></metadata><defs
   id="defs7" /><sodipodi:namedview
   pagecolor="#ffffff"
   bordercolor="#666666"
   borderopacity="1"
   objecttolerance="10"
   gridtolerance="10"
   guidetolerance="10"
   inkscape:pageopacity="0"
   inkscape:pageshadow="2"
   inkscape:window-width="1253"
   inkscape:window-height="655"
   id="namedview5"
   showgrid="false"
   inkscape:zoom="2.36"
   inkscape:cx="50"
   inkscape:cy="50"
   inkscape:window-x="1401"
   inkscape:window-y="576"
   inkscape:window-maximized="0"
   inkscape:current-layer="Layer_1"
   showguides="true"
   inkscape:guide-bbox="true"><sodipodi:guide
     position="51.271186,50"
     orientation="0,1"
     id="guide7"
     inkscape:locked="false" /><sodipodi:guide
     position="14.830508,69.067797"
     orientation="1,0"
     id="guide8"
     inkscape:locked="false" /></sodipodi:namedview>
<path
   d="m 80.047836,45.452516 v 0 c 2.12195,3.02095 3.379003,6.6929 3.379003,10.66865 0,8.09255 -5.180103,14.9606 -12.396903,17.51655 v -6.79055 c 3.70295,-2.14675 6.1969,-6.13955 6.1969,-10.726 0,-6.8479 -5.549,-12.4 -12.3969,-12.4 -2.48,0 -4.7802,0.7471 -6.7177,2.00105 -1.9065,-8.2398 -9.25815,-14.3995 -18.0792,-14.3995 -10.27185,0 -18.5969,8.3266 -18.5969,18.59845 0,5.50095 2.40095,10.42995 6.1969,13.8353 v 7.6167 c -7.40125,-4.2904 -12.3969,-12.2791 -12.3969,-21.452 0,-13.6958 11.1011,-24.7969 24.7969,-24.7969 3.1031,0 6.0667,0.58125 8.804,1.62285 v 0 c 2.53425,-7.2571 9.4209,-12.47285 17.5429,-12.47285 1.1718,0 2.3095,0.1209 3.42085,0.3286 -0.20305,0.89125 -0.32085,1.81815 -0.32085,2.7714 0,6.8479 5.549,12.39845 12.3969,12.39845 0.953253,0 1.880153,-0.1178 2.772953,-0.3224 0.20615,1.11135 0.32705,2.25215 0.32705,3.4224 -0.002,4.85615 -1.8786,9.2659 -4.929003,12.5798 z m -16.4424,-24.6574 c -4.495,1.0292 -8.0197,4.5105 -9.1822,8.95125 v 0 c 2.9729,2.1266 5.46065,4.8856 7.254,8.09255 1.0292,-0.17515 2.0708,-0.31775 3.15115,-0.31775 4.05635,0 7.80115,1.31595 10.8593,3.52005 v 0 c 1.32835,-1.51745 2.3002,-3.3604 2.76675,-5.3971 -7.52215,-1.40275 -13.44625,-7.32375 -14.849,-14.849 z m -26.67395,35.32605 c 1.71275,0 3.1,1.38725 3.1,3.1 v 6.1969 c 0,1.71275 -1.38725,3.1 -3.1,3.1 -1.7112,0 -3.1,-1.38725 -3.1,-3.1 v -6.1969 c 0,-1.7143 1.39035,-3.1 3.1,-3.1 z m 0,18.5969 c 1.71275,0 3.1,1.38725 3.1,3.1 v 6.1969 c 0,1.71275 -1.38725,3.1 -3.1,3.1 -1.7112,0 -3.1,-1.38725 -3.1,-3.1 v -6.1969 c 0,-1.7143 1.39035,-3.1 3.1,-3.1 z m 12.4,-12.4 c 1.7112,0 3.0969,1.3888 3.0969,3.1 v 6.2 c 0,1.7112 -1.38725,3.1 -3.0969,3.1 -1.71275,0 -3.1,-1.3888 -3.1,-3.1 v -6.2 c 0,-1.7112 1.38725,-3.1 3.1,-3.1 z m 0,18.6 c 1.7112,0 3.0969,1.38725 3.0969,3.0969 v 6.2 c 0,1.71275 -1.38725,3.1 -3.0969,3.1 -1.71275,0 -3.1,-1.38725 -3.1,-3.1 v -6.2 c 0,-1.7112 1.38725,-3.0969 3.1,-3.0969 z m 12.3969,-24.7969 c 1.71275,0 3.1,1.38725 3.1,3.1 v 6.1969 c 0,1.71275 -1.38725,3.1 -3.1,3.1 -1.7112,0 -3.1,-1.38725 -3.1,-3.1 v -6.1969 c 0,-1.7143 1.39035,-3.1 3.1,-3.1 z m 0,18.5969 c 1.71275,0 3.1,1.38725 3.1,3.1 v 6.1969 c 0,1.71275 -1.38725,3.1 -3.1,3.1 -1.7112,0 -3.1,-1.38725 -3.1,-3.1 v -6.1969 c 0,-1.7143 1.39035,-3.1 3.1,-3.1 z"
   id="path2"
   inkscape:connector-curvature="0"
   style="clip-rule:evenodd;fill-rule:evenodd;stroke-width:1.54999995" />
</svg>