<?xml version="1.0" encoding="utf-8"?>
<!-- Generator: Adobe Illustrator 15.1.0, SVG Export Plug-In . SVG Version: 6.00 Build 0)  -->
<!DOCTYPE svg PUBLIC "-//W3C//DTD SVG 1.1//EN" "http://www.w3.org/Graphics/SVG/1.1/DTD/svg11.dtd">
<svg version="1.1" id="Layer_1" xmlns="http://www.w3.org/2000/svg" xmlns:xlink="http://www.w3.org/1999/xlink" x="0px" y="0px"
	 width="100px" height="100px" viewBox="0 0 100 100" enable-background="new 0 0 100 100" xml:space="preserve">
<path fill-rule="evenodd" clip-rule="evenodd" d="M76.747,69.588v0.051h-0.75h-2.999c-1.104,0-2-0.895-2-2
	c0-1.104,0.896-1.999,2-1.999h2.999c1.104,0,2-0.896,2-2s-0.896-1.999-2-1.999s-2-0.896-2-2c0-1.105,0.896-2,2-2
	c0.139,0,0.273,0.014,0.403,0.041c3.122,0.211,5.596,2.783,5.596,5.958C81.996,66.698,79.706,69.217,76.747,69.588z M71.287,49.642
	h0.01c0.213,0.602,0.385,1.222,0.5,1.863c-1.394-0.995-3.05-1.646-4.849-1.815c-0.009-0.017-0.021-0.031-0.031-0.048h0.003
	c-1.384-2.389-3.962-3.999-6.921-3.999c-1.6,0-3.083,0.48-4.333,1.29c-1.232-5.316-5.974-9.29-11.665-9.29
	c-6.626,0-11.998,5.372-11.998,11.999l0,0c0,6.626,5.372,11.999,11.998,11.999c2.598,0,8.152,0,12.199,0h9.798c1.104,0,2-0.896,2-2
	c0-1.105-0.896-2-2-2c-1.104,0-1.999-0.896-1.999-2s0.896-2,1.999-2c0.139,0,0.273,0.014,0.403,0.041
	c3.122,0.211,5.597,2.783,5.597,5.959c0,3.059-2.291,5.577-5.25,5.947v0.052h-0.75h-7.985c-4.012,0-11.357,0-14.012,0
	c-1.104,0-1.999,0.896-1.999,1.999c0,1.105,0.895,2,1.999,2h21.997h0.75v0.053c2.959,0.369,5.25,2.889,5.25,5.947
	c0,3.175-2.475,5.747-5.597,5.958c-0.13,0.026-0.265,0.041-0.403,0.041c-1.104,0-1.999-0.896-1.999-2s0.896-1.999,1.999-1.999
	c1.104,0,2-0.896,2-2c0-1.105-0.896-2-2-2H44.001h-0.75v-0.052c-2.958-0.37-5.249-2.89-5.249-5.948c0-1.055,0.294-2.032,0.773-2.89
	c-6.266-2.168-10.772-8.104-10.772-15.107c0-8.835,7.163-15.998,15.998-15.998c2.002,0,3.914,0.376,5.68,1.048
	c1.635-4.683,6.078-8.047,11.318-8.047c0.755,0,1.491,0.078,2.208,0.211c-0.132,0.576-0.208,1.173-0.208,1.789
	c0,4.418,3.581,7.998,7.999,7.998c0.615,0,1.212-0.076,1.788-0.207c0.134,0.717,0.212,1.452,0.212,2.207
	c0,3.135-1.212,5.979-3.18,8.115C70.436,47.638,70.92,48.612,71.287,49.642z M59.211,30.852c-2.9,0.663-5.174,2.91-5.924,5.774l0,0
	c1.917,1.372,3.522,3.153,4.679,5.222c0.664-0.114,1.337-0.205,2.033-0.205c2.618,0,5.033,0.848,7.005,2.271
	c0.859-0.98,1.486-2.169,1.786-3.482C63.936,39.527,60.115,35.706,59.211,30.852z"/>
</svg>
