<?xml version="1.0" encoding="UTF-8" standalone="no"?>
<!-- Generator: Adobe Illustrator 15.1.0, SVG Export Plug-In . SVG Version: 6.00 Build 0)  -->

<svg
   xmlns:dc="http://purl.org/dc/elements/1.1/"
   xmlns:cc="http://creativecommons.org/ns#"
   xmlns:rdf="http://www.w3.org/1999/02/22-rdf-syntax-ns#"
   xmlns:svg="http://www.w3.org/2000/svg"
   xmlns="http://www.w3.org/2000/svg"
   xmlns:sodipodi="http://sodipodi.sourceforge.net/DTD/sodipodi-0.dtd"
   xmlns:inkscape="http://www.inkscape.org/namespaces/inkscape"
   version="1.1"
   id="Layer_1"
   x="0px"
   y="0px"
   width="100px"
   height="100px"
   viewBox="0 0 100 100"
   enable-background="new 0 0 100 100"
   xml:space="preserve"
   sodipodi:docname="Cloud-Fog-Sun-symbolic.svg"
   inkscape:version="0.92.4 5da689c313, 2019-01-14"><metadata
   id="metadata9"><rdf:RDF><cc:Work
       rdf:about=""><dc:format>image/svg+xml</dc:format><dc:type
         rdf:resource="http://purl.org/dc/dcmitype/StillImage" /></cc:Work></rdf:RDF></metadata><defs
   id="defs7" /><sodipodi:namedview
   pagecolor="#ffffff"
   bordercolor="#666666"
   borderopacity="1"
   objecttolerance="10"
   gridtolerance="10"
   guidetolerance="10"
   inkscape:pageopacity="0"
   inkscape:pageshadow="2"
   inkscape:window-width="1078"
   inkscape:window-height="936"
   id="namedview5"
   showgrid="false"
   inkscape:zoom="2.36"
   inkscape:cx="50"
   inkscape:cy="50"
   inkscape:window-x="0"
   inkscape:window-y="0"
   inkscape:window-maximized="0"
   inkscape:current-layer="Layer_1"
   showguides="true"
   inkscape:guide-bbox="true"><sodipodi:guide
     position="14.830508,34.745763"
     orientation="1,0"
     id="guide7"
     inkscape:locked="false" /><sodipodi:guide
     position="26.271186,50"
     orientation="0,1"
     id="guide9"
     inkscape:locked="false" /></sodipodi:namedview>
<path
   d="m 95.880835,40.702972 h -6.19845 c -1.7112,0 -3.1,-1.38725 -3.1,-3.1 0,-1.7112 1.3888,-3.1 3.1,-3.1 h 6.19845 c 1.7112,0 3.1,1.3888 3.1,3.1 0,1.7143 -1.38725,3.1 -3.1,3.1 z m -12.1768,-20.6336 c -1.21055,1.21055 -3.17285,1.21055 -4.3834,0 -1.21055,-1.21055 -1.21055,-3.17285 0,-4.3834 l 4.3834,-4.3834 c 1.21055,-1.21055 3.17285,-1.21055 4.3834,0 1.209,1.21055 1.209,3.17285 0,4.3834 z m -4.5694,24.19085 v 0 c 1.4136,1.6864 2.5265,3.627 3.27515,5.74275 h -6.79985 c -2.1452,-3.70295 -6.13955,-6.2 -10.726,-6.2 -2.48155,0 -4.77865,0.744 -6.7177,2.00105 -1.90805,-8.2398 -9.25815,-14.40105 -18.0792,-14.40105 -10.27185,0 -18.59845,8.32815 -18.59845,18.6 h -6.198449 c 0,-13.6958 11.101099,-24.79845 24.796899,-24.79845 2.4366,0 4.78795,0.3596 7.01065,1.01525 3.40225,-4.3834 8.7079,-7.2137 14.68625,-7.2137 10.27185,0 18.59845,8.32505 18.59845,18.5969 0.0015,2.3498 -0.4526,4.58645 -1.24775,6.65725 z m -17.34915,-19.05415 c -3.4286,0 -6.53325,1.3919 -8.7761,3.64405 3.627,2.22425 6.64175,5.35215 8.72495,9.07215 1.0292,-0.17515 2.07235,-0.31775 3.15115,-0.31775 3.29375,0 6.3829,0.86645 9.0675,2.36685 v 0 c 0.1488,-0.7657 0.23095,-1.5562 0.23095,-2.36685 0,-6.8479 -5.55055,-12.39845 -12.39845,-12.39845 z m 0,-12.39845 c -1.7112,0 -3.1,-1.38725 -3.1,-3.0999998 V 3.509172 c 0,-1.7112 1.3888,-3.09999996 3.1,-3.09999996 1.7112,0 3.1,1.38879996 3.1,3.09999996 v 6.1984502 c 0,1.7127498 -1.38725,3.0999998 -3.1,3.0999998 z m -21.91855,7.26175 -4.38185,-4.3834 c -1.21055,-1.21055 -1.21055,-3.17285 0,-4.3834 1.209,-1.21055 3.17285,-1.21055 4.38185,0 l 4.3834,4.3834 c 1.21055,1.21055 1.21055,3.17285 0,4.3834 -1.209,1.21055 -3.1713,1.21055 -4.3834,0 z m -21.47525,36.13205 h 61.99225 c 1.7112,0 3.09845,1.3888 3.09845,3.1 0,1.71275 -1.3888,3.1 -3.09845,3.1 h -61.99225 c -1.7112,0 -3.099999,-1.38725 -3.099999,-3.1 0,-1.7112 1.387249,-3.1 3.099999,-3.1 z m 0,12.4 h 61.99225 c 1.7112,0 3.09845,1.38725 3.09845,3.1 0,1.7112 -1.3888,3.1 -3.09845,3.1 h -61.99225 c -1.7112,0 -3.099999,-1.3888 -3.099999,-3.1 0,-1.7143 1.387249,-3.1 3.099999,-3.1 z m 0,12.3969 h 61.99225 c 1.7112,0 3.09845,1.3888 3.09845,3.1 0,1.71275 -1.3888,3.1 -3.09845,3.1 h -61.99225 c -1.7112,0 -3.099999,-1.38725 -3.099999,-3.1 0,-1.7112 1.387249,-3.1 3.099999,-3.1 z"
   id="path2"
   inkscape:connector-curvature="0"
   style="clip-rule:evenodd;fill-rule:evenodd;stroke-width:1.54999995" />
</svg>