<?xml version="1.0" encoding="utf-8"?>
<!-- Generator: Adobe Illustrator 15.1.0, SVG Export Plug-In . SVG Version: 6.00 Build 0)  -->
<!DOCTYPE svg PUBLIC "-//W3C//DTD SVG 1.1//EN" "http://www.w3.org/Graphics/SVG/1.1/DTD/svg11.dtd">
<svg version="1.1" id="Layer_1" xmlns="http://www.w3.org/2000/svg" xmlns:xlink="http://www.w3.org/1999/xlink" x="0px" y="0px"
	 width="100px" height="100px" viewBox="0 0 100 100" enable-background="new 0 0 100 100" xml:space="preserve">
<path fill-rule="evenodd" clip-rule="evenodd" d="M69.762,46.758L69.762,46.758c1.369,1.949,2.18,4.318,2.18,6.883
	c0,5.221-3.342,9.652-7.998,11.301v-4.381c2.389-1.385,3.998-3.961,3.998-6.92c0-4.418-3.58-8-7.998-8
	c-1.6,0-3.084,0.482-4.334,1.291c-1.23-5.316-5.973-9.29-11.664-9.29c-6.627,0-11.998,5.372-11.998,11.999
	c0,3.549,1.549,6.729,3.998,8.926v4.914c-4.775-2.768-7.998-7.922-7.998-13.84c0-8.836,7.162-15.998,15.998-15.998
	c2.002,0,3.914,0.375,5.68,1.047l0,0c1.635-4.682,6.078-8.047,11.318-8.047c0.756,0,1.49,0.078,2.207,0.212
	c-0.131,0.575-0.207,1.173-0.207,1.788c0,4.418,3.58,7.999,7.998,7.999c0.615,0,1.213-0.076,1.789-0.208
	c0.133,0.717,0.211,1.453,0.211,2.208C72.941,41.775,71.73,44.62,69.762,46.758z M59.154,30.85c-2.9,0.664-5.174,2.91-5.924,5.775
	l0,0c1.918,1.372,3.523,3.152,4.68,5.221c0.664-0.113,1.336-0.205,2.033-0.205c2.617,0,5.033,0.849,7.006,2.271l0,0
	c0.857-0.979,1.484-2.168,1.785-3.482C63.881,39.525,60.059,35.705,59.154,30.85z M41.945,53.641c1.105,0,2,0.895,2,2v3.998
	c0,1.105-0.895,2-2,2c-1.104,0-2-0.895-2-2v-3.998C39.945,54.535,40.842,53.641,41.945,53.641z M41.945,65.639c1.105,0,2,0.895,2,2
	v3.998c0,1.105-0.895,2-2,2c-1.104,0-2-0.895-2-2v-3.998C39.945,66.533,40.842,65.639,41.945,65.639z M49.945,57.639
	c1.104,0,1.998,0.896,1.998,2v4c0,1.104-0.895,2-1.998,2c-1.105,0-2-0.896-2-2v-4C47.945,58.535,48.84,57.639,49.945,57.639z
	 M49.945,69.639c1.104,0,1.998,0.895,1.998,1.998v4c0,1.105-0.895,2-1.998,2c-1.105,0-2-0.895-2-2v-4
	C47.945,70.533,48.84,69.639,49.945,69.639z M57.943,53.641c1.105,0,2,0.895,2,2v3.998c0,1.105-0.895,2-2,2c-1.104,0-2-0.895-2-2
	v-3.998C55.943,54.535,56.84,53.641,57.943,53.641z M57.943,65.639c1.105,0,2,0.895,2,2v3.998c0,1.105-0.895,2-2,2
	c-1.104,0-2-0.895-2-2v-3.998C55.943,66.533,56.84,65.639,57.943,65.639z"/>
</svg>
