<?xml version="1.0" encoding="UTF-8" standalone="no"?>
<!-- Generator: Adobe Illustrator 15.1.0, SVG Export Plug-In . SVG Version: 6.00 Build 0)  -->

<svg
   xmlns:dc="http://purl.org/dc/elements/1.1/"
   xmlns:cc="http://creativecommons.org/ns#"
   xmlns:rdf="http://www.w3.org/1999/02/22-rdf-syntax-ns#"
   xmlns:svg="http://www.w3.org/2000/svg"
   xmlns="http://www.w3.org/2000/svg"
   xmlns:sodipodi="http://sodipodi.sourceforge.net/DTD/sodipodi-0.dtd"
   xmlns:inkscape="http://www.inkscape.org/namespaces/inkscape"
   version="1.1"
   id="Layer_1"
   x="0px"
   y="0px"
   width="100px"
   height="100px"
   viewBox="0 0 100 100"
   enable-background="new 0 0 100 100"
   xml:space="preserve"
   sodipodi:docname="Cloud-Hail-symbolic.svg"
   inkscape:version="0.92.4 5da689c313, 2019-01-14"><metadata
   id="metadata9"><rdf:RDF><cc:Work
       rdf:about=""><dc:format>image/svg+xml</dc:format><dc:type
         rdf:resource="http://purl.org/dc/dcmitype/StillImage" /></cc:Work></rdf:RDF></metadata><defs
   id="defs7" /><sodipodi:namedview
   pagecolor="#ffffff"
   bordercolor="#666666"
   borderopacity="1"
   objecttolerance="10"
   gridtolerance="10"
   guidetolerance="10"
   inkscape:pageopacity="0"
   inkscape:pageshadow="2"
   inkscape:window-width="1078"
   inkscape:window-height="936"
   id="namedview5"
   showgrid="false"
   inkscape:zoom="2.36"
   inkscape:cx="50"
   inkscape:cy="50"
   inkscape:window-x="0"
   inkscape:window-y="0"
   inkscape:window-maximized="0"
   inkscape:current-layer="Layer_1"
   showguides="true"
   inkscape:guide-bbox="true"><sodipodi:guide
     position="14.830508,33.898305"
     orientation="1,0"
     id="guide7"
     inkscape:locked="false" /><sodipodi:guide
     position="36.440678,50"
     orientation="0,1"
     id="guide9"
     inkscape:locked="false" /></sodipodi:namedview>
<path
   d="m 71.084385,73.211337 v -6.79055 c 3.70295,-2.14365 6.19845,-6.13955 6.19845,-10.726 0,-6.84635 -5.55055,-12.39845 -12.3969,-12.39845 -2.48155,0 -4.7802,0.744 -6.7177,2.00105 -1.90805,-8.24135 -9.2597,-14.3995 -18.08075,-14.3995 -10.2703,0 -18.5969,8.3266 -18.5969,18.5969 0,5.5025 2.4025,10.4284 6.19845,13.83375 v 7.6198 c -7.4028,-4.2904 -12.3969,-12.2791 -12.3969,-21.45355 0,-13.69425 11.1011,-24.79535 24.79535,-24.79535 9.3062,0 17.40495,5.13205 21.6473,12.71465 1.02765,-0.17515 2.0708,-0.31775 3.15115,-0.31775 10.2703,0 18.5969,8.3266 18.5969,18.59845 0,8.09565 -5.1801,14.96215 -12.39845,17.51655 z m -34.09535,1.0819 c -1.7112,0 -1.55,-1.38725 -1.55,-3.0969 v -12.4 c 0,-1.7112 -0.1612,-3.1 1.55,-3.1 1.7112,0 1.55,1.3888 1.55,3.1 v 12.4 c 0,1.70965 0.1612,3.0969 -1.55,3.0969 z m 0,6.2 c 1.7112,0 3.09845,1.3888 3.09845,3.1 0,1.71275 -1.38725,3.1 -3.09845,3.1 -1.7112,0 -3.1,-1.38725 -3.1,-3.1 0,-1.7112 1.38725,-3.1 3.1,-3.1 z m 12.39845,0 c -1.7112,0 -1.55,-1.38725 -1.55,-3.1 v -12.3969 c 0,-1.71275 -0.1612,-3.1 1.55,-3.1 1.7112,0 1.55,1.38725 1.55,3.1 v 12.3969 c 0,1.71275 0.1612,3.1 -1.55,3.1 z m 0,6.2 c 1.7112,0 3.09845,1.38725 3.09845,3.1 0,1.7112 -1.38725,3.1 -3.09845,3.1 -1.7112,0 -3.1,-1.3888 -3.1,-3.1 0,-1.7143 1.38725,-3.1 3.1,-3.1 z m 12.39845,-12.4 c -1.7112,0 -1.55,-1.38725 -1.55,-3.0969 v -12.4 c 0,-1.7112 -0.1612,-3.1 1.55,-3.1 1.7112,0 1.55,1.3888 1.55,3.1 v 12.4 c 0,1.70965 0.1612,3.0969 -1.55,3.0969 z m 0,6.2 c 1.7112,0 3.1,1.3888 3.1,3.1 0,1.71275 -1.3888,3.1 -3.1,3.1 -1.7112,0 -3.1,-1.38725 -3.1,-3.1 0,-1.7112 1.3888,-3.1 3.1,-3.1 z"
   id="path2"
   inkscape:connector-curvature="0"
   style="clip-rule:evenodd;fill-rule:evenodd;stroke-width:1.54999995" />
</svg>