<?xml version="1.0" encoding="UTF-8" standalone="no"?>
<!-- Generator: Adobe Illustrator 15.1.0, SVG Export Plug-In . SVG Version: 6.00 Build 0)  -->

<svg
   xmlns:dc="http://purl.org/dc/elements/1.1/"
   xmlns:cc="http://creativecommons.org/ns#"
   xmlns:rdf="http://www.w3.org/1999/02/22-rdf-syntax-ns#"
   xmlns:svg="http://www.w3.org/2000/svg"
   xmlns="http://www.w3.org/2000/svg"
   xmlns:sodipodi="http://sodipodi.sourceforge.net/DTD/sodipodi-0.dtd"
   xmlns:inkscape="http://www.inkscape.org/namespaces/inkscape"
   version="1.1"
   id="Layer_1"
   x="0px"
   y="0px"
   width="100px"
   height="100px"
   viewBox="0 0 100 100"
   enable-background="new 0 0 100 100"
   xml:space="preserve"
   sodipodi:docname="Cloud-Fog-Moon-Alt.svg"
   inkscape:version="0.92.4 5da689c313, 2019-01-14"><metadata
   id="metadata9"><rdf:RDF><cc:Work
       rdf:about=""><dc:format>image/svg+xml</dc:format><dc:type
         rdf:resource="http://purl.org/dc/dcmitype/StillImage" /></cc:Work></rdf:RDF></metadata><defs
   id="defs7" /><sodipodi:namedview
   pagecolor="#ffffff"
   bordercolor="#666666"
   borderopacity="1"
   objecttolerance="10"
   gridtolerance="10"
   guidetolerance="10"
   inkscape:pageopacity="0"
   inkscape:pageshadow="2"
   inkscape:window-width="640"
   inkscape:window-height="480"
   id="namedview5"
   showgrid="false"
   inkscape:zoom="2.36"
   inkscape:cx="50"
   inkscape:cy="50"
   inkscape:window-x="0"
   inkscape:window-y="0"
   inkscape:window-maximized="0"
   inkscape:current-layer="Layer_1" />
<path
   d="m 85.328576,47.926423 c 1.566266,-1.946286 2.735717,-4.2264 3.308895,-6.741665 C 78.446241,39.286762 70.421749,31.26227 68.525852,21.07104 63.153096,22.299278 58.81332,26.118365 56.780952,31.129998 H 20.345308 c 4.814275,-2.668531 10.350797,-4.197006 16.246342,-4.197006 4.203305,0 8.217651,0.789432 11.925461,2.200332 3.43277,-9.832208 12.761084,-16.895104 23.762742,-16.895104 1.585163,0 3.130434,0.163765 4.633714,0.443006 -0.275042,1.209342 -0.434608,2.462775 -0.434608,3.7561 0,9.275826 7.5185,16.792226 16.792226,16.792226 1.293324,0 2.546758,-0.159566 3.7561,-0.434608 0.279241,1.50538 0.443006,3.048551 0.443006,4.633714 0,3.7561 -0.850319,7.302245 -2.328404,10.497765 z m 10.042162,20.991332 c 0,1.436094 -0.146969,2.830197 -0.37792,4.199106 H 5.4678753 C 4.9177924,71.76055 4.4747867,70.355949 4.1052654,68.917755 Z m -1.463389,8.398212 c -0.518589,1.467588 -1.165252,2.870089 -1.931588,4.199106 H 10.393427 C 9.3331525,80.194454 8.3862541,78.787754 7.5338355,77.315967 Z m -4.986438,8.398212 c -1.427696,1.591462 -3.038053,3.01076 -4.826873,4.197007 H 20.345308 C 18.212163,88.731237 16.240682,87.30984 14.428768,85.714179 Z M 3.2948379,64.718649 C 3.1226745,63.341342 3.003,61.947239 3.003,60.521642 h 90.877055 c 0.480798,1.356311 0.875514,2.750415 1.121162,4.197007 z M 90.795812,54.466531 c 0.411512,0.589974 0.743242,1.234537 1.106464,1.856005 H 3.2948379 c 0.178462,-1.431895 0.4577025,-2.828098 0.8104275,-4.197007 H 92.685409 c -0.589974,0.810428 -1.209342,1.604059 -1.889597,2.341002 z M 84.033151,47.926423 H 5.4678753 c 0.5899744,-1.45499 1.287026,-2.853293 2.0659602,-4.199106 H 65.638967 c 0.08398,0.146969 0.191059,0.28134 0.272942,0.430408 1.394103,-0.239349 2.807102,-0.430408 4.268391,-0.430408 5.129208,0 9.874198,1.564167 13.852851,4.199106 z M 14.426668,35.329105 h 44.323665 c 1.446592,1.274428 2.758813,2.693726 3.970255,4.199106 H 10.393427 c 1.21984,-1.517977 2.574052,-2.91418 4.033241,-4.199106 z"
   id="path2"
   inkscape:connector-curvature="0"
   style="clip-rule:evenodd;fill-rule:evenodd;stroke-width:2.09955311" />
</svg>