<?xml version="1.0" encoding="UTF-8" standalone="no"?>
<!-- Generator: Adobe Illustrator 15.1.0, SVG Export Plug-In . SVG Version: 6.00 Build 0)  -->

<svg
   xmlns:dc="http://purl.org/dc/elements/1.1/"
   xmlns:cc="http://creativecommons.org/ns#"
   xmlns:rdf="http://www.w3.org/1999/02/22-rdf-syntax-ns#"
   xmlns:svg="http://www.w3.org/2000/svg"
   xmlns="http://www.w3.org/2000/svg"
   xmlns:sodipodi="http://sodipodi.sourceforge.net/DTD/sodipodi-0.dtd"
   xmlns:inkscape="http://www.inkscape.org/namespaces/inkscape"
   version="1.1"
   id="Layer_1"
   x="0px"
   y="0px"
   width="100px"
   height="100px"
   viewBox="0 0 100 100"
   enable-background="new 0 0 100 100"
   xml:space="preserve"
   sodipodi:docname="Cloud-Snow-Sun-Alt-symbolic.svg"
   inkscape:version="0.92.4 5da689c313, 2019-01-14"><metadata
   id="metadata9"><rdf:RDF><cc:Work
       rdf:about=""><dc:format>image/svg+xml</dc:format><dc:type
         rdf:resource="http://purl.org/dc/dcmitype/StillImage" /></cc:Work></rdf:RDF></metadata><defs
   id="defs7" /><sodipodi:namedview
   pagecolor="#ffffff"
   bordercolor="#666666"
   borderopacity="1"
   objecttolerance="10"
   gridtolerance="10"
   guidetolerance="10"
   inkscape:pageopacity="0"
   inkscape:pageshadow="2"
   inkscape:window-width="1078"
   inkscape:window-height="936"
   id="namedview5"
   showgrid="false"
   inkscape:zoom="2.36"
   inkscape:cx="50"
   inkscape:cy="50"
   inkscape:window-x="0"
   inkscape:window-y="0"
   inkscape:window-maximized="0"
   inkscape:current-layer="Layer_1"
   showguides="true"
   inkscape:guide-bbox="true"><sodipodi:guide
     position="14.830508,22.881356"
     orientation="1,0"
     id="guide7"
     inkscape:locked="false" /><sodipodi:guide
     position="151.27119,50"
     orientation="0,1"
     id="guide9"
     inkscape:locked="false" /></sodipodi:namedview>
<path
   d="m 95.881285,42.226701 h -6.2 c -1.7112,0 -3.09845,-1.38725 -3.09845,-3.1 0,-1.7112 1.38725,-3.1 3.09845,-3.1 h 6.2 c 1.7112,0 3.1,1.3888 3.1,3.1 0,1.7143 -1.38725,3.1 -3.1,3.1 z m -12.1768,-20.6336 c -1.21055,1.21055 -3.1744,1.21055 -4.3834,0 -1.21055,-1.21055 -1.21055,-3.17285 0,-4.3834 l 4.3834,-4.3834 c 1.209,-1.21055 3.17285,-1.21055 4.38185,0 1.21055,1.21055 1.21055,3.17285 0,4.3834 z m -4.57095,24.19085 v 0 c 2.71095,3.2302 4.3493,7.3935 4.3493,11.9412 0,9.21475 -6.7053,16.84075 -15.49845,18.321 v -6.3271 c 5.3444,-1.38105 9.29845,-6.2186 9.29845,-11.9939 0,-6.84635 -5.55055,-12.39845 -12.3969,-12.39845 -2.48155,0 -4.7802,0.744 -6.7177,2.00105 -1.90805,-8.2398 -9.2597,-14.40105 -18.08075,-14.40105 -10.2703,0 -18.5969,8.32815 -18.5969,18.6 0,6.8789 3.7448,12.87275 9.29845,16.08745 v 6.88975 c -9.083,-3.68125 -15.496899,-12.57515 -15.496899,-22.97875 0,-13.6958 11.101099,-24.79845 24.795349,-24.79845 2.43815,0 4.7895,0.3596 7.0122,1.01525 3.40225,-4.3834 8.70635,-7.2137 14.68625,-7.2137 10.2703,0 18.5969,8.32505 18.5969,18.5969 0,2.35135 -0.45415,4.588 -1.2493,6.6588 z m -17.3476,-19.05415 c -3.43015,0 -6.53325,1.3919 -8.77765,3.64405 3.62855,2.22425 6.6433,5.35215 8.7265,9.07215 1.02765,-0.17515 2.0708,-0.31775 3.15115,-0.31775 3.29375,0 6.3829,0.86645 9.0675,2.36685 v 0 c 0.1488,-0.7657 0.23095,-1.5562 0.23095,-2.36685 0,-6.84945 -5.5521,-12.39845 -12.39845,-12.39845 z m 0,-12.39845 c -1.7112,0 -3.1,-1.38725 -3.1,-3.1 V 5.0329008 c 0,-1.7111999 1.3888,-3.0999999 3.1,-3.0999999 1.7112,0 3.1,1.3888 3.1,3.0999999 v 6.1984502 c 0,1.71275 -1.3888,3.1 -3.1,3.1 z m -21.91855,7.26175 -4.3834,-4.3834 c -1.21055,-1.21055 -1.21055,-3.17285 0,-4.3834 1.21055,-1.21055 3.17285,-1.21055 4.3834,0 l 4.3834,4.3834 c 1.21055,1.21055 1.21055,3.17285 0,4.3834 -1.21055,1.21055 -3.1713,1.21055 -4.3834,0 z m -1.2183,45.43205 c 0.85715,-1.48335 2.75125,-1.98865 4.23305,-1.1346 l 3.4038,1.9654 v -3.92925 c 0,-1.7112 1.3888,-3.1 3.1,-3.1 1.7112,0 3.09845,1.3888 3.09845,3.1 v 3.92925 l 3.4038,-1.9654 c 1.4818,-0.85405 3.379,-0.34875 4.23305,1.1346 0.85715,1.48335 0.34875,3.379 -1.13305,4.2346 l -3.40225,1.9654 3.4038,1.9654 c 1.4818,0.85715 1.9902,2.75125 1.13305,4.2346 -0.8556,1.48025 -2.75125,1.98865 -4.23305,1.1315 l -3.4038,-1.96385 v 3.92925 c 0,1.71275 -1.38725,3.1 -3.09845,3.1 -1.7112,0 -3.1,-1.38725 -3.1,-3.1 v -3.92925 l -3.4038,1.9654 c -1.4818,0.85715 -3.37745,0.34875 -4.23305,-1.1315 -0.8556,-1.48335 -0.34875,-3.379 1.1346,-4.2346 l 3.40225,-1.9654 -3.40225,-1.9654 c -1.48335,-0.8587 -1.99175,-2.7528 -1.13615,-4.23615 z m 10.7384,9.3 c 1.7112,0 3.09845,-1.3888 3.09845,-3.1 0,-1.71275 -1.38725,-3.1 -3.09845,-3.1 -1.7112,0 -3.1,1.38725 -3.1,3.1 0,1.70965 1.38725,3.1 3.1,3.1 z"
   id="path2"
   inkscape:connector-curvature="0"
   style="clip-rule:evenodd;fill-rule:evenodd;stroke-width:1.54999995" />
</svg>