<?xml version="1.0" encoding="UTF-8" standalone="no"?>
<!-- Generator: Adobe Illustrator 15.1.0, SVG Export Plug-In . SVG Version: 6.00 Build 0)  -->

<svg
   xmlns:dc="http://purl.org/dc/elements/1.1/"
   xmlns:cc="http://creativecommons.org/ns#"
   xmlns:rdf="http://www.w3.org/1999/02/22-rdf-syntax-ns#"
   xmlns:svg="http://www.w3.org/2000/svg"
   xmlns="http://www.w3.org/2000/svg"
   xmlns:sodipodi="http://sodipodi.sourceforge.net/DTD/sodipodi-0.dtd"
   xmlns:inkscape="http://www.inkscape.org/namespaces/inkscape"
   version="1.1"
   id="Layer_1"
   x="0px"
   y="0px"
   width="100px"
   height="100px"
   viewBox="0 0 100 100"
   enable-background="new 0 0 100 100"
   xml:space="preserve"
   sodipodi:docname="Cloud-Snow-symbolic.svg"
   inkscape:version="0.92.4 5da689c313, 2019-01-14"><metadata
   id="metadata9"><rdf:RDF><cc:Work
       rdf:about=""><dc:format>image/svg+xml</dc:format><dc:type
         rdf:resource="http://purl.org/dc/dcmitype/StillImage" /></cc:Work></rdf:RDF></metadata><defs
   id="defs7" /><sodipodi:namedview
   pagecolor="#ffffff"
   bordercolor="#666666"
   borderopacity="1"
   objecttolerance="10"
   gridtolerance="10"
   guidetolerance="10"
   inkscape:pageopacity="0"
   inkscape:pageshadow="2"
   inkscape:window-width="640"
   inkscape:window-height="480"
   id="namedview5"
   showgrid="false"
   inkscape:zoom="2.36"
   inkscape:cx="50"
   inkscape:cy="50"
   inkscape:window-x="0"
   inkscape:window-y="0"
   inkscape:window-maximized="0"
   inkscape:current-layer="Layer_1" />
<path
   d="m 81.872766,75.62064 v -9.908506 c 5.403201,-3.132454 9.044537,-8.963116 9.044537,-15.655485 0,-9.987666 -8.099146,-18.089074 -18.091335,-18.089074 -3.61872,0 -6.97282,1.085616 -9.799945,2.919855 C 60.241871,22.861972 49.51463,13.873977 36.643297,13.873977 c -14.988283,0 -27.1358715,12.152112 -27.1358715,27.140397 0,8.026772 3.5056345,15.218977 9.0467985,20.183407 V 72.316297 C 7.7500849,66.055912 0.46062712,54.399112 0.46062712,41.014374 c 0,-19.984379 16.20055388,-36.1849333 36.18266988,-36.1849333 13.579245,0 25.396625,7.4907493 31.584636,18.5549833 1.501768,-0.255572 3.023892,-0.463648 4.598035,-0.463648 14.988283,0 27.138134,12.152113 27.138134,27.135873 0,11.812857 -7.560862,21.832186 -18.091336,25.563991 z M 32.119898,59.105709 c 2.499178,0 4.523399,2.026483 4.523399,4.523399 0,2.499178 -2.024221,4.5234 -4.523399,4.5234 -2.496916,0 -4.521137,-2.024222 -4.521137,-4.5234 0,-2.496916 2.024221,-4.523399 4.521137,-4.523399 z m 0,18.093597 c 2.499178,0 4.523399,2.024221 4.523399,4.523399 0,2.496917 -2.024221,4.518876 -4.523399,4.518876 -2.496916,0 -4.521137,-2.024221 -4.521137,-4.518876 0,-2.50144 2.024221,-4.523399 4.521137,-4.523399 z m 18.093597,-9.046798 c 2.496916,0 4.523399,2.024221 4.523399,4.523399 0,2.496916 -2.026483,4.523399 -4.523399,4.523399 -2.499178,0 -4.523399,-2.026483 -4.523399,-4.523399 0,-2.50144 2.024221,-4.523399 4.523399,-4.523399 z m 0,18.089073 c 2.496916,0 4.523399,2.026483 4.523399,4.523399 0,2.499178 -2.026483,4.5234 -4.523399,4.5234 -2.499178,0 -4.523399,-2.024222 -4.523399,-4.5234 0,-2.496916 2.024221,-4.523399 4.523399,-4.523399 z M 68.302569,59.105709 c 2.499178,0 4.523399,2.026483 4.523399,4.523399 0,2.499178 -2.024221,4.5234 -4.523399,4.5234 -2.496917,0 -4.521138,-2.024222 -4.521138,-4.5234 0,-2.496916 2.026483,-4.523399 4.521138,-4.523399 z m 0,18.093597 c 2.499178,0 4.523399,2.024221 4.523399,4.523399 0,2.496917 -2.024221,4.518876 -4.523399,4.518876 -2.496917,0 -4.521138,-2.024221 -4.521138,-4.518876 0,-2.50144 2.026483,-4.523399 4.521138,-4.523399 z"
   id="path2"
   inkscape:connector-curvature="0"
   style="clip-rule:evenodd;fill-rule:evenodd;stroke-width:2.26169968" />
</svg>