<?xml version="1.0" encoding="utf-8"?>
<!-- Generator: Adobe Illustrator 15.1.0, SVG Export Plug-In . SVG Version: 6.00 Build 0)  -->
<!DOCTYPE svg PUBLIC "-//W3C//DTD SVG 1.1//EN" "http://www.w3.org/Graphics/SVG/1.1/DTD/svg11.dtd">
<svg version="1.1" id="Layer_1" xmlns="http://www.w3.org/2000/svg" xmlns:xlink="http://www.w3.org/1999/xlink" x="0px" y="0px"
	 width="100px" height="100px" viewBox="0 0 100 100" enable-background="new 0 0 100 100" xml:space="preserve">
<path fill-rule="evenodd" clip-rule="evenodd" fill="#231F20" d="M59.943,65.641c-0.832,0-2.324,0-4.081,0
	c0.024-0.219,0.065-0.432,0.065-0.656v-3.344c1.681,0,3.127,0,4.016,0c4.418,0,7.999-3.582,7.999-7.998c0-4.418-3.581-8-7.999-8
	c-1.23,0-2.389,0.289-3.428,0.788l-1.618-1.618c-1.856-4.217-6.048-7.169-10.952-7.169c-6.627,0-11.998,5.371-11.998,11.998
	c0,6.622,5.363,11.989,11.982,11.999v3.344c0,0.225,0.042,0.438,0.066,0.656c-0.016,0-0.035,0-0.051,0
	c-8.836,0-15.998-7.162-15.998-15.999c0-8.835,7.162-15.998,15.998-15.998c6.004,0,11.229,3.312,13.965,8.204
	c0.664-0.114,1.337-0.205,2.033-0.205c6.627,0,11.998,5.372,11.998,12C71.941,60.268,66.57,65.641,59.943,65.641z M42.859,55.398
	c-0.781-0.779-0.781-2.047,0-2.826l5.656-5.657c0.78-0.781,2.047-0.781,2.828,0l5.655,5.657c0.781,0.779,0.781,2.047,0,2.826
	c-0.78,0.781-2.047,0.781-2.827,0l-2.243-2.242v11.828c0,1.104-0.896,2-1.999,2c-1.105,0-2-0.896-2-2V53.156l-2.242,2.242
	C44.906,56.18,43.64,56.18,42.859,55.398z"/>
</svg>
