<?xml version="1.0" encoding="UTF-8" standalone="no"?>
<!-- Generator: Adobe Illustrator 15.1.0, SVG Export Plug-In . SVG Version: 6.00 Build 0)  -->

<svg
   xmlns:dc="http://purl.org/dc/elements/1.1/"
   xmlns:cc="http://creativecommons.org/ns#"
   xmlns:rdf="http://www.w3.org/1999/02/22-rdf-syntax-ns#"
   xmlns:svg="http://www.w3.org/2000/svg"
   xmlns="http://www.w3.org/2000/svg"
   xmlns:sodipodi="http://sodipodi.sourceforge.net/DTD/sodipodi-0.dtd"
   xmlns:inkscape="http://www.inkscape.org/namespaces/inkscape"
   version="1.1"
   id="Layer_1"
   x="0px"
   y="0px"
   width="100px"
   height="100px"
   viewBox="0 0 100 100"
   enable-background="new 0 0 100 100"
   xml:space="preserve"
   sodipodi:docname="Cloud-Wind-symbolic.svg"
   inkscape:version="0.92.4 5da689c313, 2019-01-14"><metadata
   id="metadata9"><rdf:RDF><cc:Work
       rdf:about=""><dc:format>image/svg+xml</dc:format><dc:type
         rdf:resource="http://purl.org/dc/dcmitype/StillImage" /></cc:Work></rdf:RDF></metadata><defs
   id="defs7" /><sodipodi:namedview
   pagecolor="#ffffff"
   bordercolor="#666666"
   borderopacity="1"
   objecttolerance="10"
   gridtolerance="10"
   guidetolerance="10"
   inkscape:pageopacity="0"
   inkscape:pageshadow="2"
   inkscape:window-width="640"
   inkscape:window-height="480"
   id="namedview5"
   showgrid="false"
   inkscape:zoom="2.36"
   inkscape:cx="50"
   inkscape:cy="50"
   inkscape:window-x="0"
   inkscape:window-y="0"
   inkscape:window-maximized="0"
   inkscape:current-layer="Layer_1" />
<path
   d="m 90.134082,72.228512 v 0.09382 h -1.37795 -5.519159 c -2.031051,0 -3.679439,-1.646549 -3.679439,-3.679439 0,-2.031051 1.648388,-3.6776 3.679439,-3.6776 h 5.519159 c 2.03105,0 3.677599,-1.648388 3.677599,-3.679439 0,-2.03105 -1.646549,-3.6776 -3.677599,-3.6776 -2.031051,0 -3.679439,-1.648388 -3.679439,-3.679439 0,-2.03289 1.648388,-3.679439 3.679439,-3.679439 0.253881,0 0.500404,0.02576 0.739567,0.07543 5.743605,0.388181 10.296911,5.11994 10.296911,10.96105 0,5.625863 -4.214798,10.260117 -9.658528,10.942653 z M 70.360775,50.249381 c -2.03105,0 -3.679439,-1.648389 -3.679439,-3.679439 0,-2.031051 1.648389,-3.67944 3.679439,-3.67944 0.253881,0 0.500404,0.02576 0.741407,0.07543 5.741765,0.388181 10.295071,5.11994 10.295071,10.962889 0,5.627703 -4.214797,10.260117 -9.656688,10.940813 v 0.09566 h -1.37979 -14.690161 c -7.380956,0 -20.895536,0 -25.778152,0 -2.031051,0 -3.679439,1.648389 -3.679439,3.6776 0,2.03289 1.648388,3.679439 3.679439,3.679439 h 40.468313 1.37979 v 0.0975 c 5.441891,0.678857 9.656688,5.31495 9.656688,10.940813 0,5.84111 -4.553306,10.572869 -10.295071,10.96105 -0.241003,0.04783 -0.489365,0.07543 -0.741407,0.07543 -2.03105,0 -3.679439,-1.648388 -3.679439,-3.679439 0,-2.03105 1.648389,-3.6776 3.679439,-3.6776 2.031051,0 3.679439,-1.648388 3.679439,-3.679439 0,-2.03289 -1.648388,-3.679439 -3.679439,-3.679439 h -40.468313 -1.37979 v -0.09567 c -5.44373,-0.680696 -9.658528,-5.316789 -9.658528,-10.942652 0,-1.940904 0.540878,-3.73831 1.422103,-5.31679 C 8.7504038,59.337596 0.46062712,48.41702 0.46062712,35.533463 c 0,-16.253924 13.17607188,-29.4318359 29.43183488,-29.4318359 11.045677,0 20.658212,6.0931519 25.691685,15.0930599 1.221574,-0.209728 2.457865,-0.377142 3.74015,-0.377142 10.846987,0 19.846895,7.829848 21.705012,18.143316 -2.566409,-1.830521 -5.611145,-3.028178 -8.9208,-3.339091 -2.533294,-4.444763 -7.305527,-7.445346 -12.784212,-7.445346 -2.945391,0 -5.673696,0.883066 -7.973345,2.373239 -2.264695,-9.779951 -10.988646,-17.090997 -21.45849,-17.090997 -12.191822,0 -22.074796,9.882974 -22.074796,22.074797 0,12.189983 9.882974,22.074796 22.074796,22.074796 4.779592,0 14.997394,0 22.44274,0 h 18.025573 c 2.031051,0 3.679439,-1.648388 3.679439,-3.679439 0,-2.03473 -1.646549,-3.679439 -3.679439,-3.679439 z"
   id="path2"
   inkscape:connector-curvature="0"
   style="clip-rule:evenodd;fill-rule:evenodd;stroke-width:1.83971965" />
</svg>