<?xml version="1.0" encoding="UTF-8" standalone="no"?>
<!-- Generator: Adobe Illustrator 15.1.0, SVG Export Plug-In . SVG Version: 6.00 Build 0)  -->

<svg
   xmlns:dc="http://purl.org/dc/elements/1.1/"
   xmlns:cc="http://creativecommons.org/ns#"
   xmlns:rdf="http://www.w3.org/1999/02/22-rdf-syntax-ns#"
   xmlns:svg="http://www.w3.org/2000/svg"
   xmlns="http://www.w3.org/2000/svg"
   xmlns:sodipodi="http://sodipodi.sourceforge.net/DTD/sodipodi-0.dtd"
   xmlns:inkscape="http://www.inkscape.org/namespaces/inkscape"
   version="1.1"
   id="Layer_1"
   x="0px"
   y="0px"
   width="100px"
   height="100px"
   viewBox="0 0 100 100"
   enable-background="new 0 0 100 100"
   xml:space="preserve"
   sodipodi:docname="Compass-symbolic.svg"
   inkscape:version="0.92.4 5da689c313, 2019-01-14"><metadata
   id="metadata9"><rdf:RDF><cc:Work
       rdf:about=""><dc:format>image/svg+xml</dc:format><dc:type
         rdf:resource="http://purl.org/dc/dcmitype/StillImage" /></cc:Work></rdf:RDF></metadata><defs
   id="defs7" /><sodipodi:namedview
   pagecolor="#ffffff"
   bordercolor="#666666"
   borderopacity="1"
   objecttolerance="10"
   gridtolerance="10"
   guidetolerance="10"
   inkscape:pageopacity="0"
   inkscape:pageshadow="2"
   inkscape:window-width="640"
   inkscape:window-height="480"
   id="namedview5"
   showgrid="false"
   inkscape:zoom="2.36"
   inkscape:cx="50"
   inkscape:cy="50"
   inkscape:window-x="0"
   inkscape:window-y="0"
   inkscape:window-maximized="0"
   inkscape:current-layer="Layer_1" />
<path
   d="m 49.788136,94.931203 c -24.700828,0 -44.7183394,-20.0239 -44.7183394,-44.721533 0,-24.694439 20.0175114,-44.7183387 44.7183394,-44.7183387 24.694439,0 44.718339,20.0238997 44.718339,44.7183387 0,24.697633 -20.0239,44.721533 -44.718339,44.721533 z m 0,-76.661378 c -17.643905,0 -31.946235,14.302329 -31.946235,31.939845 0,17.64071 14.30233,31.943039 31.946235,31.943039 17.637516,0 31.939845,-14.302329 31.939845,-31.943039 0,-17.637516 -14.302329,-31.939845 -31.939845,-31.939845 z m 9.964031,39.833759 c -0.306684,0.444053 -0.616562,0.827408 -0.929636,1.140481 -0.319462,0.316268 -0.706011,0.626146 -1.146869,0.936025 -1.367299,1.086171 -2.894329,1.849686 -4.504419,2.293739 -8.306021,3.39269 -21.451897,5.804631 -21.451897,5.804631 0,0 2.408746,-13.142681 5.801437,-21.451896 0.444052,-1.613285 1.210762,-3.137121 2.296934,-4.507614 0.306684,-0.444053 0.616562,-0.830602 0.936024,-1.143675 0.313074,-0.316268 0.699623,-0.626146 1.140481,-0.93283 1.373688,-1.086172 2.894329,-1.852882 4.510808,-2.296934 8.306021,-3.392691 21.451896,-5.804631 21.451896,-5.804631 0,0 -2.415135,13.145875 -5.807825,21.455091 -0.444053,1.61009 -1.210762,3.133925 -2.296934,4.507613 z M 52.046735,47.951071 c -1.249098,-1.249098 -3.2681,-1.249098 -4.517197,0 -1.249098,1.249098 -1.249098,3.2681 0,4.517198 1.249097,1.249097 3.268099,1.249097 4.517197,0 1.249098,-1.249098 1.249098,-3.2681 0,-4.517198 z"
   id="path2"
   inkscape:connector-curvature="0"
   style="clip-rule:evenodd;fill-rule:evenodd;stroke-width:3.19462347" />
</svg>