<?xml version="1.0" encoding="utf-8"?>
<!-- Generator: Adobe Illustrator 15.1.0, SVG Export Plug-In . SVG Version: 6.00 Build 0)  -->
<!DOCTYPE svg PUBLIC "-//W3C//DTD SVG 1.1//EN" "http://www.w3.org/Graphics/SVG/1.1/DTD/svg11.dtd">
<svg version="1.1" id="Layer_1" xmlns="http://www.w3.org/2000/svg" xmlns:xlink="http://www.w3.org/1999/xlink" x="0px" y="0px"
	 width="100px" height="100px" viewBox="0 0 100 100" enable-background="new 0 0 100 100" xml:space="preserve">
<g>
	<g>
		<path fill-rule="evenodd" clip-rule="evenodd" d="M50,36.002c-7.731,0-13.999,6.268-13.999,13.998
			c0,7.731,6.268,13.999,13.999,13.999c7.73,0,13.998-6.268,13.998-13.999C63.998,42.27,57.73,36.002,50,36.002z M50,59.999
			c-5.522,0-9.999-4.477-9.999-9.999c0-5.521,4.477-9.998,9.999-9.998c5.521,0,9.999,4.477,9.999,9.998
			C59.999,55.522,55.521,59.999,50,59.999z M46,50c0,2.209,1.791,4,4,4s3.999-1.791,3.999-4S50,42.001,50,42.001S46,47.791,46,50z
			 M51,50c0,0.553-0.448,1-1,1c-0.553,0-1-0.447-1-1c0-0.552,0.447-1,1-1C50.552,49,51,49.448,51,50z"/>
	</g>
</g>
</svg>
