<?xml version="1.0" encoding="utf-8"?>
<!-- Generator: Adobe Illustrator 15.1.0, SVG Export Plug-In . SVG Version: 6.00 Build 0)  -->
<!DOCTYPE svg PUBLIC "-//W3C//DTD SVG 1.1//EN" "http://www.w3.org/Graphics/SVG/1.1/DTD/svg11.dtd">
<svg version="1.1" id="Layer_1" xmlns="http://www.w3.org/2000/svg" xmlns:xlink="http://www.w3.org/1999/xlink" x="0px" y="0px"
	 width="100px" height="100px" viewBox="0 0 100 100" enable-background="new 0 0 100 100" xml:space="preserve">
<g>
	<g>
		<path fill-rule="evenodd" clip-rule="evenodd" d="M50,35.87c-7.732,0-14,6.268-14,13.998c0,7.732,6.268,14,14,14
			c7.73,0,13.998-6.268,13.998-14C63.998,42.137,57.73,35.87,50,35.87z M50,59.867c-5.523,0-10-4.477-10-10
			c0-5.521,4.477-9.998,10-9.998c5.521,0,9.998,4.477,9.998,9.998C59.998,55.391,55.521,59.867,50,59.867z M50,45.869
			c-2.209,0-4,1.79-4,3.999c0,2.208,1.791,4,4,4c2.207,0,7.998-4,7.998-4S52.207,45.869,50,45.869z M50,50.868c-0.553,0-1-0.447-1-1
			c0-0.552,0.447-1,1-1c0.551,0,0.998,0.448,0.998,1C50.998,50.42,50.551,50.868,50,50.868z"/>
	</g>
</g>
</svg>
