<?xml version="1.0" encoding="utf-8"?>
<!-- Generator: Adobe Illustrator 15.1.0, SVG Export Plug-In . SVG Version: 6.00 Build 0)  -->
<!DOCTYPE svg PUBLIC "-//W3C//DTD SVG 1.1//EN" "http://www.w3.org/Graphics/SVG/1.1/DTD/svg11.dtd">
<svg version="1.1" id="Layer_1" xmlns="http://www.w3.org/2000/svg" xmlns:xlink="http://www.w3.org/1999/xlink" x="0px" y="0px"
	 width="100px" height="100px" viewBox="0 0 100 100" enable-background="new 0 0 100 100" xml:space="preserve">
<path fill-rule="evenodd" clip-rule="evenodd" d="M50,63.999c-7.732,0-13.998-6.268-13.998-13.999
	c0-7.73,6.266-13.998,13.998-13.998c7.73,0,13.998,6.268,13.998,13.998C63.998,57.731,57.73,63.999,50,63.999z M50,40.002
	c-5.523,0-10,4.477-10,9.998c0,5.522,4.477,9.999,10,9.999c5.521,0,9.998-4.477,9.998-9.999C59.998,44.479,55.521,40.002,50,40.002z
	 M53.119,52.471c-0.096,0.139-0.193,0.259-0.291,0.357c-0.1,0.099-0.221,0.196-0.359,0.293c-0.428,0.34-0.906,0.579-1.41,0.718
	c-2.6,1.062-6.715,1.817-6.715,1.817s0.754-4.114,1.816-6.715c0.139-0.505,0.379-0.982,0.719-1.411
	c0.096-0.139,0.193-0.26,0.293-0.358c0.098-0.099,0.219-0.196,0.357-0.292c0.43-0.34,0.906-0.58,1.412-0.719
	c2.6-1.062,6.715-1.817,6.715-1.817s-0.756,4.115-1.818,6.716C53.699,51.564,53.459,52.041,53.119,52.471z M50.707,49.293
	c-0.391-0.391-1.023-0.391-1.414,0s-0.391,1.023,0,1.414s1.023,0.391,1.414,0S51.098,49.684,50.707,49.293z"/>
</svg>
