<?xml version="1.0" encoding="UTF-8" standalone="no"?>
<!-- Generator: Adobe Illustrator 15.1.0, SVG Export Plug-In . SVG Version: 6.00 Build 0)  -->

<svg
   xmlns:dc="http://purl.org/dc/elements/1.1/"
   xmlns:cc="http://creativecommons.org/ns#"
   xmlns:rdf="http://www.w3.org/1999/02/22-rdf-syntax-ns#"
   xmlns:svg="http://www.w3.org/2000/svg"
   xmlns="http://www.w3.org/2000/svg"
   xmlns:sodipodi="http://sodipodi.sourceforge.net/DTD/sodipodi-0.dtd"
   xmlns:inkscape="http://www.inkscape.org/namespaces/inkscape"
   version="1.1"
   id="Layer_1"
   x="0px"
   y="0px"
   width="100px"
   height="100px"
   viewBox="0 0 100 100"
   enable-background="new 0 0 100 100"
   xml:space="preserve"
   sodipodi:docname="Compass-West-symbolic.svg"
   inkscape:version="0.92.4 5da689c313, 2019-01-14"><metadata
   id="metadata13"><rdf:RDF><cc:Work
       rdf:about=""><dc:format>image/svg+xml</dc:format><dc:type
         rdf:resource="http://purl.org/dc/dcmitype/StillImage" /></cc:Work></rdf:RDF></metadata><defs
   id="defs11" /><sodipodi:namedview
   pagecolor="#ffffff"
   bordercolor="#666666"
   borderopacity="1"
   objecttolerance="10"
   gridtolerance="10"
   guidetolerance="10"
   inkscape:pageopacity="0"
   inkscape:pageshadow="2"
   inkscape:window-width="640"
   inkscape:window-height="480"
   id="namedview9"
   showgrid="false"
   inkscape:zoom="2.36"
   inkscape:cx="50"
   inkscape:cy="50"
   inkscape:window-x="0"
   inkscape:window-y="0"
   inkscape:window-maximized="0"
   inkscape:current-layer="Layer_1" />
<g
   id="g6"
   transform="matrix(3.5577801,0,0,3.5577801,-127.67842,-126.15571)">
	<g
   id="g4">
		<path
   d="m 50,35.738 c -7.73,0 -13.998,6.268 -13.998,13.998 0,7.731 6.268,13.999 13.998,13.999 7.731,0 13.998,-6.268 13.998,-13.999 0,-7.731 -6.267,-13.998 -13.998,-13.998 z m 0,23.996 c -5.522,0 -9.999,-4.477 -9.999,-9.999 0,-5.521 4.477,-9.998 9.999,-9.998 5.522,0 9.999,4.477 9.999,9.998 0,5.523 -4.477,9.999 -9.999,9.999 z m 0,-13.997 c -2.209,0 -7.999,3.999 -7.999,3.999 0,0 5.79,4 7.999,4 2.209,0 4,-1.791 4,-4 0,-2.209 -1.791,-3.999 -4,-3.999 z m 0,4.999 c -0.552,0 -1,-0.447 -1,-1 0,-0.552 0.448,-1 1,-1 0.553,0 1,0.448 1,1 0,0.553 -0.447,1 -1,1 z"
   id="path2"
   inkscape:connector-curvature="0"
   style="clip-rule:evenodd;fill-rule:evenodd" />
	</g>
</g>
</svg>