<?xml version="1.0" encoding="UTF-8" standalone="no"?>
<!-- Generator: Adobe Illustrator 15.1.0, SVG Export Plug-In . SVG Version: 6.00 Build 0)  -->

<svg
   xmlns:dc="http://purl.org/dc/elements/1.1/"
   xmlns:cc="http://creativecommons.org/ns#"
   xmlns:rdf="http://www.w3.org/1999/02/22-rdf-syntax-ns#"
   xmlns:svg="http://www.w3.org/2000/svg"
   xmlns="http://www.w3.org/2000/svg"
   xmlns:sodipodi="http://sodipodi.sourceforge.net/DTD/sodipodi-0.dtd"
   xmlns:inkscape="http://www.inkscape.org/namespaces/inkscape"
   version="1.1"
   id="Layer_1"
   x="0px"
   y="0px"
   width="100px"
   height="100px"
   viewBox="0 0 100 100"
   enable-background="new 0 0 100 100"
   xml:space="preserve"
   sodipodi:docname="Compass-symbolic.svg"
   inkscape:version="0.92.4 5da689c313, 2019-01-14"><metadata
   id="metadata9"><rdf:RDF><cc:Work
       rdf:about=""><dc:format>image/svg+xml</dc:format><dc:type
         rdf:resource="http://purl.org/dc/dcmitype/StillImage" /></cc:Work></rdf:RDF></metadata><defs
   id="defs7" /><sodipodi:namedview
   pagecolor="#ffffff"
   bordercolor="#666666"
   borderopacity="1"
   objecttolerance="10"
   gridtolerance="10"
   guidetolerance="10"
   inkscape:pageopacity="0"
   inkscape:pageshadow="2"
   inkscape:window-width="640"
   inkscape:window-height="480"
   id="namedview5"
   showgrid="false"
   inkscape:zoom="2.36"
   inkscape:cx="50"
   inkscape:cy="50"
   inkscape:window-x="1529"
   inkscape:window-y="759"
   inkscape:window-maximized="0"
   inkscape:current-layer="Layer_1" />
<path
   d="m 50.6343,100.86341 c -27.742801,0 -50.22552034,-22.489898 -50.22552034,-50.22911 0,-27.735625 22.48271934,-50.22552034 50.22552034,-50.22552034 27.735624,0 50.22552,22.48989534 50.22552,50.22552034 0,27.739212 -22.489896,50.22911 -50.22552,50.22911 z m 0,-86.102432 c -19.816799,0 -35.880498,16.063699 -35.880498,35.873322 0,19.81321 16.063699,35.876908 35.880498,35.876908 19.809622,0 35.87332,-16.063698 35.87332,-35.876908 0,-19.809623 -16.063698,-35.873322 -35.87332,-35.873322 z m 11.191127,44.739393 c -0.344453,0.498739 -0.692494,0.929305 -1.044123,1.280933 -0.358805,0.355217 -0.792959,0.703258 -1.288109,1.051299 -1.535686,1.219937 -3.250773,2.077481 -5.05915,2.57622 -9.32893,3.810508 -24.093755,6.519486 -24.093755,6.519486 0,0 2.705389,-14.761236 6.515899,-24.093754 0.498739,-1.811965 1.359871,-3.523464 2.579808,-5.062738 0.344453,-0.498739 0.692494,-0.932893 1.051299,-1.284521 0.351628,-0.355217 0.785782,-0.703258 1.280933,-1.047711 1.542862,-1.219937 3.250773,-2.081069 5.066326,-2.579808 9.328929,-3.810509 24.093754,-6.519487 24.093754,-6.519487 0,0 -2.712566,14.764825 -6.523074,24.097343 -0.498739,1.808377 -1.359871,3.519876 -2.579808,5.062738 z M 53.171051,48.097549 c -1.402927,-1.402928 -3.670575,-1.402928 -5.073502,0 -1.402928,1.402927 -1.402928,3.670575 0,5.073502 1.402927,1.402927 3.670575,1.402927 5.073502,0 1.402927,-1.402927 1.402927,-3.670575 0,-5.073502 z"
   id="path2"
   inkscape:connector-curvature="0"
   style="clip-rule:evenodd;fill-rule:evenodd;stroke-width:3.58804965" />
</svg>