<?xml version="1.0" encoding="utf-8"?>
<!-- Generator: Adobe Illustrator 15.1.0, SVG Export Plug-In . SVG Version: 6.00 Build 0)  -->
<!DOCTYPE svg PUBLIC "-//W3C//DTD SVG 1.1//EN" "http://www.w3.org/Graphics/SVG/1.1/DTD/svg11.dtd">
<svg version="1.1" id="Layer_1" xmlns="http://www.w3.org/2000/svg" xmlns:xlink="http://www.w3.org/1999/xlink" x="0px" y="0px"
	 width="100px" height="100px" viewBox="0 0 100 100" enable-background="new 0 0 100 100" xml:space="preserve">
<g>
	<g>
		<path fill-rule="evenodd" clip-rule="evenodd" d="M50,35.738c-7.73,0-13.998,6.268-13.998,13.998
			c0,7.731,6.268,13.999,13.998,13.999c7.731,0,13.998-6.268,13.998-13.999C63.998,42.005,57.731,35.738,50,35.738z M50,59.734
			c-5.522,0-9.999-4.477-9.999-9.999c0-5.521,4.477-9.998,9.999-9.998s9.999,4.477,9.999,9.998
			C59.999,55.258,55.522,59.734,50,59.734z M50,45.737c-2.209,0-7.999,3.999-7.999,3.999s5.79,4,7.999,4s4-1.791,4-4
			C54,47.527,52.209,45.737,50,45.737z M50,50.736c-0.552,0-1-0.447-1-1c0-0.552,0.448-1,1-1c0.553,0,1,0.448,1,1
			C51,50.289,50.553,50.736,50,50.736z"/>
	</g>
</g>
</svg>
