<?xml version="1.0" encoding="UTF-8" standalone="no"?>
<svg
   xmlns:dc="http://purl.org/dc/elements/1.1/"
   xmlns:cc="http://creativecommons.org/ns#"
   xmlns:rdf="http://www.w3.org/1999/02/22-rdf-syntax-ns#"
   xmlns:svg="http://www.w3.org/2000/svg"
   xmlns="http://www.w3.org/2000/svg"
   xmlns:sodipodi="http://sodipodi.sourceforge.net/DTD/sodipodi-0.dtd"
   xmlns:inkscape="http://www.inkscape.org/namespaces/inkscape"
   version="1.1"
   id="Layer_1"
   x="0px"
   y="0px"
   viewBox="0 0 30 30"
   style="enable-background:new 0 0 30 30;"
   xml:space="preserve"
   sodipodi:docname="day-sunny-symbolic.svg"
   inkscape:version="1.0 (4035a4fb49, 2020-05-01)"><metadata
   id="metadata9"><rdf:RDF><cc:Work
       rdf:about=""><dc:format>image/svg+xml</dc:format><dc:type
         rdf:resource="http://purl.org/dc/dcmitype/StillImage" /></cc:Work></rdf:RDF></metadata><defs
   id="defs7" /><sodipodi:namedview
   inkscape:document-rotation="0"
   pagecolor="#ffffff"
   bordercolor="#666666"
   borderopacity="1"
   objecttolerance="10"
   gridtolerance="10"
   guidetolerance="10"
   inkscape:pageopacity="0"
   inkscape:pageshadow="2"
   inkscape:window-width="1078"
   inkscape:window-height="937"
   id="namedview5"
   showgrid="false"
   inkscape:zoom="22.2"
   inkscape:cx="15"
   inkscape:cy="15"
   inkscape:window-x="0"
   inkscape:window-y="0"
   inkscape:window-maximized="0"
   inkscape:current-layer="Layer_1" />
<path
   d="m 1.7276451,15.025018 c 0,-0.297728 0.099242,-0.55824 0.3101329,-0.76913 0.2108903,-0.198485 0.471402,-0.297727 0.744319,-0.297727 h 2.5306845 c 0.2853223,0 0.5210233,0.09924 0.7195083,0.310132 0.1860798,0.21089 0.2853223,0.458997 0.2853223,0.756725 0,0.297727 -0.086838,0.545834 -0.272917,0.756724 -0.1860797,0.210891 -0.434186,0.310133 -0.7195083,0.310133 H 2.7945022 c -0.2853222,0 -0.5334285,-0.09924 -0.7443189,-0.310133 -0.2108904,-0.21089 -0.3225382,-0.458997 -0.3225382,-0.756724 z m 3.5479204,8.596884 c 0,-0.285322 0.099243,-0.533428 0.2853223,-0.756724 l 1.8235815,-1.773961 c 0.1860797,-0.198485 0.4341861,-0.285322 0.7319136,-0.285322 0.2977277,0 0.545834,0.09924 0.7443191,0.285322 0.198485,0.186081 0.2977275,0.421781 0.2977275,0.707103 0,0.297728 -0.099242,0.570645 -0.2977275,0.79394 l -1.761555,1.761556 c -0.5086179,0.39697 -1.0172359,0.39697 -1.5258538,0 C 5.3748081,24.155331 5.2755655,23.907224 5.2755655,23.621902 Z m 0,-17.1689569 c 0,-0.2853222 0.099243,-0.5334285 0.2853223,-0.7567242 0.2481064,-0.2108904 0.508618,-0.310133 0.7939403,-0.310133 0.2729169,0 0.5210232,0.099243 0.7319136,0.2977276 L 8.860702,7.507397 c 0.198485,0.1860797 0.2977275,0.4341861 0.2977275,0.7319137 0,0.2977276 -0.099242,0.5458339 -0.2977275,0.744319 -0.1984851,0.198485 -0.4465914,0.2977276 -0.7443191,0.2977276 -0.2977275,0 -0.5458339,-0.099243 -0.7319136,-0.2977276 L 5.5732932,7.2096694 C 5.3748081,7.0111844 5.2755655,6.7506727 5.2755655,6.4529451 Z m 3.1633557,8.5720729 c 0,-1.153694 0.2853223,-2.232957 0.8683721,-3.225382 0.5830499,-0.992425 1.3645847,-1.786365 2.3694157,-2.369415 1.00483,-0.5830498 2.071687,-0.8683721 3.225382,-0.8683721 0.868372,0 1.699529,0.1736744 2.505874,0.5210233 0.79394,0.3473488 1.488638,0.8063456 2.059283,1.3893958 0.58305,0.58305 1.042046,1.265342 1.37699,2.059282 0.334943,0.79394 0.508617,1.637501 0.508617,2.505873 0,1.1661 -0.285322,2.245362 -0.868372,3.237788 -0.583049,0.992425 -1.364585,1.77396 -2.35701,2.357009 -0.992425,0.58305 -2.071688,0.868373 -3.237788,0.868373 -1.1661,0 -2.245362,-0.285323 -3.237787,-0.868373 C 10.659472,20.049171 9.8779379,19.267636 9.2948881,18.275211 8.7366488,17.27038 8.4389212,16.191118 8.4389212,15.025018 Z m 2.1089028,0 c 0,1.215721 0.421781,2.245362 1.277749,3.101329 0.843561,0.855966 1.873202,1.290153 3.088923,1.290153 1.215722,0 2.245362,-0.434187 3.101329,-1.290153 0.855967,-0.855967 1.290154,-1.885608 1.290154,-3.101329 0,-1.19091 -0.434187,-2.208146 -1.290154,-3.064112 -0.855967,-0.843562 -1.885607,-1.265343 -3.101329,-1.265343 -1.203316,0 -2.232957,0.421781 -3.076518,1.265343 -0.868373,0.855966 -1.290154,1.873202 -1.290154,3.064112 z m 3.299815,9.651336 c 0,-0.297728 0.09924,-0.545834 0.310133,-0.744319 0.21089,-0.198485 0.458997,-0.297728 0.744319,-0.297728 0.297727,0 0.558239,0.09924 0.756724,0.297728 0.198486,0.198485 0.297728,0.446591 0.297728,0.744319 v 2.468657 c 0,0.297728 -0.09924,0.55824 -0.310133,0.769131 -0.21089,0.21089 -0.458997,0.310133 -0.744319,0.310133 -0.285322,0 -0.545834,-0.09924 -0.744319,-0.310133 -0.21089,-0.210891 -0.310133,-0.471403 -0.310133,-0.769131 z m 0,-19.2282394 V 2.9174299 c 0,-0.2853222 0.09924,-0.5334286 0.310133,-0.7443189 0.21089,-0.2108904 0.458997,-0.3225383 0.756724,-0.3225383 0.297727,0 0.533429,0.099243 0.744319,0.310133 0.210891,0.2108903 0.310133,0.4589967 0.310133,0.7443189 v 2.54309 c 0,0.2853222 -0.09924,0.5210232 -0.310133,0.7195083 -0.21089,0.198485 -0.458997,0.2853222 -0.744319,0.2853222 -0.285322,0 -0.545834,-0.099242 -0.744318,-0.2853222 C 13.971692,5.9815431 13.847639,5.7334368 13.847639,5.4481146 Z M 20.695374,21.79832 c 0,-0.285322 0.09924,-0.521022 0.285322,-0.694698 0.18608,-0.198484 0.42178,-0.285321 0.694697,-0.285321 0.297728,0 0.545835,0.09924 0.744319,0.285321 l 1.811177,1.773961 c 0.198485,0.210891 0.297727,0.471402 0.297727,0.756724 0,0.285322 -0.09924,0.533429 -0.297727,0.731914 -0.496213,0.384565 -0.992425,0.384565 -1.488638,0 L 20.980696,22.604666 C 20.794616,22.38137 20.695374,22.120859 20.695374,21.79832 Z m 0,-13.546604 c 0,-0.3101329 0.09924,-0.5582393 0.285322,-0.7319136 l 1.761555,-1.8235815 c 0.21089,-0.1984851 0.458996,-0.2977277 0.731913,-0.2977277 0.297728,0 0.545835,0.099243 0.744319,0.310133 0.210891,0.2108904 0.310133,0.4589967 0.310133,0.7443189 0,0.310133 -0.09924,0.5706446 -0.297727,0.7691296 L 22.419712,8.996035 c -0.223295,0.1984851 -0.471401,0.2977275 -0.744319,0.2977275 -0.285322,0 -0.508617,-0.099242 -0.694697,-0.2977275 C 20.794616,8.79755 20.695374,8.5494436 20.695374,8.251716 Z m 2.803601,6.773302 c 0,-0.297728 0.09924,-0.545835 0.297727,-0.76913 0.198486,-0.198485 0.434187,-0.297727 0.707104,-0.297727 h 2.505874 c 0.285322,0 0.533428,0.111648 0.744319,0.322538 0.21089,0.210891 0.322538,0.458996 0.322538,0.744319 0,0.285322 -0.111648,0.533429 -0.322538,0.744319 -0.210891,0.21089 -0.458997,0.310133 -0.744319,0.310133 h -2.505874 c -0.285323,0 -0.533429,-0.09924 -0.719509,-0.310133 -0.186079,-0.21089 -0.285322,-0.446592 -0.285322,-0.744319 z"
   id="path2"
   style="stroke-width:1.24053" />
</svg>
