<?xml version="1.0" encoding="UTF-8" standalone="no"?>
<svg
   xmlns:dc="http://purl.org/dc/elements/1.1/"
   xmlns:cc="http://creativecommons.org/ns#"
   xmlns:rdf="http://www.w3.org/1999/02/22-rdf-syntax-ns#"
   xmlns:svg="http://www.w3.org/2000/svg"
   xmlns="http://www.w3.org/2000/svg"
   xmlns:sodipodi="http://sodipodi.sourceforge.net/DTD/sodipodi-0.dtd"
   xmlns:inkscape="http://www.inkscape.org/namespaces/inkscape"
   inkscape:version="1.0 (4035a4fb49, 2020-05-01)"
   sodipodi:docname="day-cloudy-high-symbolic.svg"
   xml:space="preserve"
   style="enable-background:new 0 0 30 30;"
   viewBox="0 0 30 30"
   y="0px"
   x="0px"
   id="Layer_1"
   version="1.1"><metadata
   id="metadata9"><rdf:RDF><cc:Work
       rdf:about=""><dc:format>image/svg+xml</dc:format><dc:type
         rdf:resource="http://purl.org/dc/dcmitype/StillImage" /></cc:Work></rdf:RDF></metadata><defs
   id="defs7" /><sodipodi:namedview
   inkscape:current-layer="Layer_1"
   inkscape:window-maximized="0"
   inkscape:window-y="0"
   inkscape:window-x="0"
   inkscape:cy="15"
   inkscape:cx="15"
   inkscape:zoom="22.2"
   showgrid="false"
   id="namedview5"
   inkscape:window-height="937"
   inkscape:window-width="1080"
   inkscape:pageshadow="2"
   inkscape:pageopacity="0"
   guidetolerance="10"
   gridtolerance="10"
   objecttolerance="10"
   borderopacity="1"
   bordercolor="#666666"
   pagecolor="#ffffff" />
<path
   style="stroke-width:1.34778"
   id="path2"
   d="m 0.1194006,12.33771 c 0,-1.253433 0.39085544,-2.3586107 1.1725663,-3.3424867 C 2.0736778,8.0113453 3.0575553,7.37789 4.2435994,7.1083345 4.5940215,5.6257794 5.3487768,4.4127798 6.5348209,3.4558578 7.720865,2.4989359 9.0686424,2.0272138 10.591631,2.0272138 c 1.482555,0 2.803376,0.4717221 3.975942,1.4016885 1.172567,0.9299664 1.927322,2.1160104 2.264266,3.57161 h 0.350422 c 1.482556,0 2.749466,0.525633 3.800733,1.563422 1.051266,1.037788 1.576899,2.3046977 1.576899,3.7872537 0,0.01348 0,0.02695 0,0.05391 0,0.02696 0,0.05391 0,0.08087 1.010833,1.078222 1.509511,2.358611 1.509511,3.841166 0,1.024311 -0.256078,1.967755 -0.768233,2.830332 -0.512156,0.876056 -1.199522,1.563422 -2.0621,2.0621 -0.862577,0.512155 -1.806021,0.754755 -2.816854,0.754755 -1.293867,0 -2.452955,-0.404333 -3.45031,-1.199522 C 13.974551,19.97961 13.300663,18.9553 12.977196,17.728822 H 5.2948657 C 3.8527439,17.66143 2.6262665,17.108842 1.6289113,16.071053 0.631556,15.033264 0.1194006,13.779832 0.1194006,12.33771 Z m 1.8329772,0 c 0,0.943444 0.3234666,1.765588 0.9838775,2.452955 0.6604109,0.687366 1.4421218,1.064744 2.3586104,1.105177 H 17.411384 c 0.916488,-0.04043 1.711677,-0.404333 2.35861,-1.105177 0.660411,-0.700845 0.983878,-1.509511 0.983878,-2.452955 0,-0.956922 -0.350423,-1.779066 -1.064745,-2.4664327 -0.714322,-0.700843 -1.536466,-1.037788 -2.506866,-1.037788 h -1.738632 c -0.1213,0 -0.188689,-0.06739 -0.188689,-0.188689 l -0.09434,-0.633455 C 15.039295,6.838779 14.540618,5.8549015 13.651085,5.0597129 12.761552,4.2645242 11.737241,3.860191 10.578153,3.860191 9.3786312,3.860191 8.3408426,4.2510465 7.4647873,5.0462351 6.588732,5.8414238 6.1170099,6.8253013 5.99571,7.9978673 l -0.080867,0.633456 c 0,0.1213 -0.067389,0.188688 -0.2156444,0.188688 H 5.160088 C 4.2570771,8.9278343 3.488844,9.3052113 2.8823442,9.9790993 2.2623666,10.63951 1.9523778,11.434699 1.9523778,12.33771 Z m 8.3562192,12.143474 c -0.3369438,-0.444767 -0.3369438,-0.876055 0,-1.320822 l 1.522989,-1.549944 c 0.188689,-0.161733 0.417811,-0.2426 0.700844,-0.2426 0.256078,0 0.458244,0.08087 0.619978,0.2426 0.161733,0.161733 0.242599,0.377378 0.242599,0.633455 0,0.269556 -0.08087,0.4852 -0.242599,0.646934 l -1.536467,1.590377 c -0.161733,0.161733 -0.390855,0.256078 -0.660411,0.256078 -0.269555,0 -0.485199,-0.09435 -0.646933,-0.256078 z m 4.568965,-6.765843 c 0.283033,0.7278 0.754755,1.307345 1.401689,1.752111 0.646933,0.444767 1.361255,0.673889 2.156443,0.673889 1.037789,0 1.927322,-0.377378 2.655122,-1.118655 0.7278,-0.754756 1.0917,-1.657767 1.0917,-2.722511 0,-0.525633 -0.08087,-0.997355 -0.256078,-1.415166 -0.444767,0.822144 -1.078222,1.496033 -1.873411,2.008188 -0.808666,0.512156 -1.684721,0.781711 -2.641643,0.822144 z m 2.628166,6.994965 c 0,-0.256078 0.09434,-0.458244 0.269556,-0.633455 0.175211,-0.161734 0.404333,-0.256078 0.646933,-0.256078 0.2426,0 0.471722,0.09434 0.673888,0.283033 0.161734,0.161734 0.256078,0.3639 0.256078,0.6065 v 2.210355 c 0,0.256078 -0.09434,0.471722 -0.269555,0.660411 -0.175211,0.188689 -0.404334,0.283033 -0.646934,0.283033 -0.2426,0 -0.471722,-0.09434 -0.646933,-0.283033 -0.175211,-0.188689 -0.269555,-0.404333 -0.269555,-0.660411 v -2.210355 z m 5.943698,-2.466433 c 0,-0.242599 0.08087,-0.444766 0.256078,-0.619977 0.175211,-0.161733 0.390855,-0.256078 0.633455,-0.256078 0.256078,0 0.471722,0.08087 0.633456,0.2426 l 1.590377,1.549944 c 0.175211,0.188689 0.269555,0.404333 0.269555,0.646933 0,0.256078 -0.09434,0.471722 -0.269555,0.646933 -0.175211,0.175211 -0.404333,0.269556 -0.660411,0.269556 -0.283033,0 -0.498678,-0.08087 -0.673889,-0.256078 L 23.705504,22.877329 C 23.530293,22.68864 23.449426,22.472996 23.449426,22.243873 Z m 0,-11.873918 c 0,-0.256078 0.08087,-0.4717217 0.256078,-0.6334557 l 1.522988,-1.590376 c 0.188689,-0.161734 0.404334,-0.256078 0.673889,-0.256078 0.256078,0 0.471722,0.08087 0.673889,0.256078 0.175211,0.202166 0.269555,0.431289 0.269555,0.687366 0,0.2426 -0.09434,0.444766 -0.269555,0.646933 l -1.590378,1.5499437 c -0.161733,0.161733 -0.377377,0.256077 -0.633455,0.256077 -0.256078,0 -0.471722,-0.08087 -0.633455,-0.256077 -0.188689,-0.188689 -0.269556,-0.404334 -0.269556,-0.660411 z m 2.452955,5.93022 c 0,-0.256077 0.08087,-0.471722 0.256078,-0.646933 0.161733,-0.175211 0.377377,-0.269555 0.633455,-0.269555 h 2.183399 c 0.256078,0 0.4852,0.09434 0.673889,0.269555 0.188689,0.175211 0.283033,0.390856 0.283033,0.646933 0,0.256078 -0.09434,0.4852 -0.283033,0.660411 -0.188689,0.175211 -0.404333,0.269556 -0.673889,0.269556 h -2.183399 c -0.256078,0 -0.458244,-0.09435 -0.633455,-0.269556 -0.175211,-0.175211 -0.256078,-0.390855 -0.256078,-0.660411 z" />
</svg>
