<?xml version="1.0" encoding="UTF-8" standalone="no"?>
<svg
   xmlns:dc="http://purl.org/dc/elements/1.1/"
   xmlns:cc="http://creativecommons.org/ns#"
   xmlns:rdf="http://www.w3.org/1999/02/22-rdf-syntax-ns#"
   xmlns:svg="http://www.w3.org/2000/svg"
   xmlns="http://www.w3.org/2000/svg"
   xmlns:sodipodi="http://sodipodi.sourceforge.net/DTD/sodipodi-0.dtd"
   xmlns:inkscape="http://www.inkscape.org/namespaces/inkscape"
   inkscape:version="1.0 (4035a4fb49, 2020-05-01)"
   sodipodi:docname="day-cloudy-symbolic.svg"
   xml:space="preserve"
   style="enable-background:new 0 0 30 30;"
   viewBox="0 0 30 30"
   y="0px"
   x="0px"
   id="Layer_1"
   version="1.1"><metadata
   id="metadata9"><rdf:RDF><cc:Work
       rdf:about=""><dc:format>image/svg+xml</dc:format><dc:type
         rdf:resource="http://purl.org/dc/dcmitype/StillImage" /></cc:Work></rdf:RDF></metadata><defs
   id="defs7" /><sodipodi:namedview
   inkscape:current-layer="Layer_1"
   inkscape:window-maximized="0"
   inkscape:window-y="0"
   inkscape:window-x="0"
   inkscape:cy="15"
   inkscape:cx="15"
   inkscape:zoom="22.2"
   showgrid="false"
   id="namedview5"
   inkscape:window-height="937"
   inkscape:window-width="1080"
   inkscape:pageshadow="2"
   inkscape:pageopacity="0"
   guidetolerance="10"
   gridtolerance="10"
   objecttolerance="10"
   borderopacity="1"
   bordercolor="#666666"
   pagecolor="#ffffff" />
<path
   style="stroke-width:1.10519"
   id="path2"
   d="m 0.17467516,20.281741 c 0,0.994673 0.24314215,1.911982 0.72942645,2.751928 0.48628429,0.839945 1.14939929,1.50306 1.98934489,1.989344 0.8399456,0.486285 1.7462027,0.729427 2.7298232,0.729427 H 17.592494 c 0.983621,0 1.90093,-0.243142 2.740876,-0.729427 0.839945,-0.486284 1.514112,-1.149399 2.000396,-1.989344 0.486285,-0.839946 0.740479,-1.757255 0.740479,-2.751928 0,-0.729426 -0.154727,-1.469904 -0.464181,-2.210383 0.839946,-1.016776 1.259919,-2.243539 1.259919,-3.647132 0,-0.784686 -0.154727,-1.536216 -0.453129,-2.254591 C 23.118452,11.451261 22.69848,10.843406 22.179039,10.323966 21.659599,9.8045259 21.051744,9.3845531 20.33337,9.0861514 19.614995,8.7766978 18.863465,8.6330228 18.078779,8.6330228 c -1.635684,0 -3.061381,0.6410112 -4.288144,1.9230332 -0.850997,-0.486284 -1.84567,-0.7294262 -2.984017,-0.7294262 -1.5583199,0 -2.9287574,0.4862842 -4.1223644,1.4478002 -1.1936069,0.961517 -1.967241,2.199331 -2.2987985,3.702392 -1.2378145,0.28735 -2.2435389,0.917309 -3.0282249,1.911981 -0.78468607,0.994673 -1.18255504,2.121968 -1.18255504,3.392938 z m 1.88987764,0 c 0,-0.92836 0.3094537,-1.724098 0.9283609,-2.398265 0.6189073,-0.674167 1.3925414,-1.060984 2.3209024,-1.171503 l 0.5525958,-0.03316 c 0.132623,0 0.2099864,-0.06631 0.2099864,-0.198935 l 0.077363,-0.596803 c 0.1547272,-1.193603 0.6741673,-2.199327 1.5583205,-2.995065 0.8841533,-0.80679 1.9230334,-1.204659 3.1055882,-1.204659 1.215711,0 2.276695,0.408921 3.1719,1.215711 0.906257,0.80679 1.403593,1.801462 1.514112,2.995069 l 0.07736,0.641011 c 0.0221,0.121571 0.09947,0.187883 0.23209,0.187883 h 1.779358 c 0.972569,0 1.812515,0.353661 2.519837,1.060983 0.707323,0.707323 1.060984,1.536217 1.060984,2.508785 0,1.005725 -0.353661,1.856722 -1.049932,2.564045 -0.696271,0.707322 -1.547268,1.060984 -2.519837,1.060984 H 5.6232697 c -0.9725686,0 -1.8014623,-0.353662 -2.5087849,-1.072036 -0.6962707,-0.718375 -1.049932,-1.569372 -1.049932,-2.564045 z M 9.4693364,6.7210414 c 0,0.265246 0.088415,0.4973362 0.265246,0.6962707 l 0.7294266,0.7073226 c 0.276298,0.2099864 0.508388,0.2984017 0.707322,0.2762979 0.232091,0 0.431025,-0.099467 0.607856,-0.2873498 0.17683,-0.1878826 0.265246,-0.4199728 0.265246,-0.6852188 0,-0.265246 -0.09947,-0.4862843 -0.28735,-0.652063 L 11.10502,6.0468745 C 10.906085,5.8700439 10.685047,5.7816286 10.430853,5.7816286 c -0.265246,0 -0.4973361,0.088415 -0.6852187,0.2762979 C 9.5577518,6.2347571 9.4693364,6.4557954 9.4693364,6.7210414 Z M 15.371059,11.61704 c 0.762583,-0.740479 1.66884,-1.105192 2.70772,-1.105192 1.094139,0 2.0225,0.375765 2.785082,1.138347 0.762583,0.762583 1.1494,1.679891 1.1494,2.774031 0,0.685219 -0.187883,1.370438 -0.563648,2.033553 -1.072036,-1.060984 -2.354058,-1.591476 -3.857119,-1.591476 H 17.238833 C 16.962535,13.661644 16.343628,12.578556 15.371059,11.61704 Z m 1.801463,-5.8354114 c 0,0.2873498 0.08842,0.5083881 0.254194,0.6852187 0.165778,0.1768307 0.386817,0.2541941 0.652063,0.2541941 0.28735,0 0.508388,-0.088415 0.685218,-0.2541941 0.176831,-0.1768306 0.254195,-0.3978689 0.254195,-0.6852187 V 3.5159858 c 0,-0.265246 -0.08842,-0.4752324 -0.265246,-0.652063 -0.176831,-0.1768307 -0.397869,-0.2541941 -0.674167,-0.2541941 -0.265246,0 -0.475233,0.088415 -0.652063,0.2541941 -0.176831,0.1657787 -0.254194,0.386817 -0.254194,0.652063 z m 6.100657,2.5308887 c 0,0.2873498 0.07736,0.5083881 0.243142,0.6852188 0.232091,0.1768306 0.464181,0.265246 0.685219,0.265246 0.198935,0 0.419973,-0.088415 0.652063,-0.265246 l 1.580424,-1.580424 c 0.176831,-0.1989345 0.265246,-0.4310247 0.265246,-0.7073226 0,-0.265246 -0.08842,-0.4862843 -0.265246,-0.663115 -0.176831,-0.1768306 -0.397869,-0.2652459 -0.652063,-0.2652459 -0.265246,0 -0.475232,0.088415 -0.641011,0.2652459 l -1.624632,1.580424 c -0.165778,0.2099864 -0.243142,0.4310247 -0.243142,0.6852188 z m 0.873102,13.0854677 c 0,0.265246 0.08841,0.497336 0.276297,0.696271 l 0.718375,0.69627 c 0.165779,0.176831 0.375765,0.265246 0.641011,0.265246 0.265246,0 0.486284,-0.08841 0.663115,-0.276298 0.176831,-0.187882 0.265246,-0.40892 0.265246,-0.685218 0,-0.243142 -0.08842,-0.464181 -0.265246,-0.641011 L 25.726704,20.73487 c -0.17683,-0.176831 -0.386817,-0.265246 -0.629959,-0.265246 -0.265246,0 -0.486284,0.08842 -0.663115,0.265246 -0.187882,0.176831 -0.287349,0.397869 -0.287349,0.663115 z m 1.624631,-6.973759 c 0,0.254194 0.09947,0.464181 0.28735,0.641011 0.176831,0.176831 0.408921,0.265246 0.674167,0.265246 h 2.254591 c 0.254194,0 0.46418,-0.08841 0.641011,-0.254194 0.17683,-0.165779 0.254194,-0.386817 0.254194,-0.652063 0,-0.265246 -0.08842,-0.486284 -0.254194,-0.663115 -0.165779,-0.176831 -0.386817,-0.276298 -0.641011,-0.276298 h -2.254591 c -0.265246,0 -0.486284,0.08841 -0.674167,0.276298 -0.198935,0.187883 -0.28735,0.408921 -0.28735,0.663115 z" />
</svg>
