<?xml version="1.0" encoding="UTF-8" standalone="no"?>
<svg
   xmlns:dc="http://purl.org/dc/elements/1.1/"
   xmlns:cc="http://creativecommons.org/ns#"
   xmlns:rdf="http://www.w3.org/1999/02/22-rdf-syntax-ns#"
   xmlns:svg="http://www.w3.org/2000/svg"
   xmlns="http://www.w3.org/2000/svg"
   xmlns:sodipodi="http://sodipodi.sourceforge.net/DTD/sodipodi-0.dtd"
   xmlns:inkscape="http://www.inkscape.org/namespaces/inkscape"
   inkscape:version="1.0 (4035a4fb49, 2020-05-01)"
   sodipodi:docname="day-haze-symbolic.svg"
   xml:space="preserve"
   style="enable-background:new 0 0 30 30;"
   viewBox="0 0 30 30"
   y="0px"
   x="0px"
   id="Layer_1"
   version="1.1"><metadata
   id="metadata9"><rdf:RDF><cc:Work
       rdf:about=""><dc:format>image/svg+xml</dc:format><dc:type
         rdf:resource="http://purl.org/dc/dcmitype/StillImage" /></cc:Work></rdf:RDF></metadata><defs
   id="defs7" /><sodipodi:namedview
   inkscape:current-layer="Layer_1"
   inkscape:window-maximized="1"
   inkscape:window-y="370"
   inkscape:window-x="1080"
   inkscape:cy="15"
   inkscape:cx="15"
   inkscape:zoom="22.2"
   showgrid="false"
   id="namedview5"
   inkscape:window-height="1036"
   inkscape:window-width="1920"
   inkscape:pageshadow="2"
   inkscape:pageopacity="0"
   guidetolerance="10"
   gridtolerance="10"
   objecttolerance="10"
   borderopacity="1"
   bordercolor="#666666"
   pagecolor="#ffffff" />
<path
   style="stroke-width:1.37083"
   id="path2"
   d="m 0.47542366,17.50082 c 0,-0.329 0.10966677,-0.603167 0.34270864,-0.836209 0.2467502,-0.233042 0.5209172,-0.342708 0.8225008,-0.342708 h 2.7965025 c 0.315292,0 0.5757505,0.109666 0.7950841,0.342708 0.2056252,0.233042 0.3152919,0.507209 0.3152919,0.836209 0,0.329001 -0.1096667,0.603167 -0.3152919,0.822501 C 5.0265945,18.556363 4.7524276,18.66603 4.4371356,18.66603 H 1.6543414 c -0.3152919,0 -0.5894589,-0.109667 -0.82250075,-0.342709 C 0.59879877,18.090279 0.47542366,17.816112 0.47542366,17.50082 Z M 4.3960106,8.0283534 c 0,-0.315292 0.1096668,-0.5894589 0.3152919,-0.8362091 0.274167,-0.2330419 0.5620422,-0.3427087 0.8773342,-0.3427087 0.2878752,0 0.5620421,0.1096668 0.8087924,0.3427087 l 1.9602934,2.0014184 c 0.2193335,0.2056257 0.3290003,0.4797917 0.3290003,0.8087923 0,0.329 -0.1096668,0.603167 -0.3290003,0.8225 -0.2193335,0.219334 -0.4935004,0.329001 -0.8225007,0.329001 -0.3290003,0 -0.6031673,-0.109667 -0.8087924,-0.329001 L 4.7250109,8.8645625 C 4.5056774,8.6315206 4.3960106,8.3573537 4.3960106,8.0283534 Z M 4.6153441,20.790823 c 0,-0.301583 0.1096668,-0.562042 0.315292,-0.753959 0.2193335,-0.191917 0.5072088,-0.301583 0.8773341,-0.301583 h 7.8274658 c 0.370125,0 0.658001,0.09596 0.877334,0.301583 0.219334,0.191917 0.329,0.452376 0.329,0.753959 0,0.370126 -0.109666,0.658001 -0.315292,0.877334 -0.219333,0.219334 -0.507208,0.329001 -0.891042,0.329001 H 5.8079702 c -0.3701253,0 -0.6580006,-0.109667 -0.8773341,-0.315292 -0.2193336,-0.205625 -0.315292,-0.520917 -0.315292,-0.891043 z m 1.3571262,4.043962 c 0,-0.301583 0.1233752,-0.57575 0.3838337,-0.822501 0.2467502,-0.24675 0.5346255,-0.370125 0.8225008,-0.370125 0.356417,0 0.6442922,0.123375 0.8636257,0.356417 0.2193336,0.24675 0.3290003,0.520917 0.3290003,0.836209 0,0.383834 -0.1096667,0.671709 -0.3152919,0.891043 -0.2056252,0.219333 -0.5072088,0.315292 -0.8773341,0.315292 -0.315292,0 -0.6031672,-0.109667 -0.8362091,-0.329001 C 6.0958455,25.492786 5.9724703,25.191202 5.9724703,24.834785 Z m 1.9328768,-6.936423 v -0.09596 c 0.041125,-1.727252 0.6442922,-3.221461 1.7957933,-4.496338 1.1515006,-1.274876 2.5634606,-2.042543 4.2495876,-2.31671 h 0.06854 c 0.260459,-0.05483 0.616876,-0.08225 1.041835,-0.08225 0.424958,0 0.781375,0.02742 1.041834,0.08225 h 0.05483 c 1.672418,0.260458 3.098086,1.041834 4.249587,2.31671 1.151501,1.274877 1.754669,2.769086 1.795794,4.496338 v 0.09596 c 0,0.219334 -0.109667,0.329001 -0.315292,0.329001 h -1.549043 c -0.1645,0 -0.274167,-0.04113 -0.342709,-0.123376 -0.06854,-0.08225 -0.09596,-0.1645 -0.09596,-0.24675 -0.05483,-1.274876 -0.548334,-2.357835 -1.480502,-3.248878 -0.932167,-0.891042 -2.042543,-1.329709 -3.344836,-1.329709 -1.302293,0 -2.412669,0.438667 -3.344837,1.329709 -0.932167,0.891043 -1.425668,1.974002 -1.480501,3.248878 0,0.08225 -0.04113,0.1645 -0.109667,0.24675 -0.06854,0.08225 -0.1919168,0.123376 -0.356417,0.123376 H 8.234347 c -0.2193336,0 -0.3290003,-0.109667 -0.3289999,-0.329001 z M 9.28989,24.834785 c 0,-0.315292 0.1096668,-0.589459 0.3290003,-0.836209 0.2193335,-0.233042 0.5072087,-0.356417 0.8636257,-0.356417 h 5.250297 c 0.301584,0 0.57575,0.123375 0.822501,0.370125 0.24675,0.246751 0.383833,0.520918 0.383833,0.822501 0,0.356417 -0.123375,0.658001 -0.370125,0.877334 -0.24675,0.219334 -0.520917,0.329001 -0.836209,0.329001 h -5.250297 c -0.370125,0 -0.6580005,-0.109667 -0.877334,-0.315292 C 9.3858484,25.506494 9.28989,25.218619 9.28989,24.834785 Z M 13.868477,6.904269 V 4.1214748 c 0,-0.3290003 0.109667,-0.6031672 0.34271,-0.8362091 0.233041,-0.2330418 0.507208,-0.3427086 0.836209,-0.3427086 0.329,0 0.589458,0.1096668 0.8225,0.3427086 0.233042,0.2330419 0.342709,0.5072088 0.342709,0.8362091 V 6.904269 c 0,0.315292 -0.109667,0.5894589 -0.342709,0.7950841 -0.233042,0.2056252 -0.507208,0.3290003 -0.8225,0.3290003 -0.315292,0 -0.603168,-0.1096668 -0.822501,-0.315292 C 14.005561,7.5074362 13.868477,7.219561 13.868477,6.904269 Z m 1.864336,13.886554 c 0,-0.287875 0.123375,-0.534625 0.370125,-0.74025 0.24675,-0.205626 0.520917,-0.315292 0.836209,-0.315292 0.315292,0 0.589459,0.109666 0.836209,0.315292 0.246751,0.205625 0.370126,0.452375 0.370126,0.74025 0,0.356417 -0.123375,0.658001 -0.370126,0.877334 -0.24675,0.219334 -0.520917,0.329001 -0.836209,0.329001 -0.315292,0 -0.603167,-0.109667 -0.836209,-0.329001 -0.24675,-0.233042 -0.370125,-0.520917 -0.370125,-0.877334 z m 2.111085,4.043962 c 0,-0.315292 0.109667,-0.589459 0.329,-0.836209 0.219334,-0.233042 0.520918,-0.356417 0.877335,-0.356417 h 2.549752 c 0.356417,0 0.644292,0.123375 0.863626,0.356417 0.219333,0.24675 0.329,0.520917 0.329,0.836209 0,0.383834 -0.109667,0.671709 -0.315292,0.891043 -0.205625,0.219333 -0.507209,0.315292 -0.877334,0.315292 h -2.549752 c -0.370126,0 -0.658001,-0.109667 -0.877335,-0.315292 -0.219333,-0.219334 -0.329,-0.507209 -0.329,-0.891043 z m 1.206335,-4.043962 c 0,-0.287875 0.123375,-0.534625 0.370125,-0.74025 0.24675,-0.205626 0.520917,-0.315292 0.822501,-0.315292 h 4.208462 c 0.301583,0 0.548334,0.09596 0.74025,0.301583 0.191917,0.205625 0.301584,0.452376 0.301584,0.753959 0,0.370126 -0.09596,0.658001 -0.287875,0.877334 -0.191917,0.219334 -0.438667,0.329001 -0.753959,0.329001 h -4.208462 c -0.315292,0 -0.589459,-0.109667 -0.836209,-0.329001 -0.233042,-0.233042 -0.356417,-0.520917 -0.356417,-0.877334 z m 2.385252,-10.788468 c 0,-0.3427086 0.109666,-0.6168756 0.315292,-0.8087923 l 1.946585,-2.0014184 c 0.24675,-0.2330419 0.520917,-0.3427087 0.808792,-0.3427087 0.315292,0 0.589459,0.1096668 0.822501,0.3427087 0.233042,0.2330418 0.342709,0.5072088 0.342709,0.8362091 0,0.3290003 -0.109667,0.6168755 -0.329001,0.8362091 l -2.001418,1.9465845 c -0.24675,0.219334 -0.520917,0.329 -0.822501,0.329 -0.315292,0 -0.562042,-0.109666 -0.767667,-0.329 -0.205626,-0.205625 -0.315292,-0.479792 -0.315292,-0.808792 z m 3.098086,7.498465 c 0,-0.315292 0.109667,-0.589459 0.329,-0.836209 0.233042,-0.233042 0.493501,-0.342708 0.781376,-0.342708 h 2.769086 c 0.315292,0 0.589459,0.123375 0.8225,0.356417 0.233042,0.233041 0.356417,0.507208 0.356417,0.8225 0,0.315292 -0.123375,0.589459 -0.356417,0.822501 -0.233041,0.233042 -0.507208,0.342709 -0.8225,0.342709 h -2.769086 c -0.315292,0 -0.589459,-0.109667 -0.795084,-0.342709 -0.205625,-0.233042 -0.315292,-0.4935 -0.315292,-0.822501 z" />
</svg>
