<?xml version="1.0" encoding="UTF-8" standalone="no"?>
<svg
   xmlns:dc="http://purl.org/dc/elements/1.1/"
   xmlns:cc="http://creativecommons.org/ns#"
   xmlns:rdf="http://www.w3.org/1999/02/22-rdf-syntax-ns#"
   xmlns:svg="http://www.w3.org/2000/svg"
   xmlns="http://www.w3.org/2000/svg"
   xmlns:sodipodi="http://sodipodi.sourceforge.net/DTD/sodipodi-0.dtd"
   xmlns:inkscape="http://www.inkscape.org/namespaces/inkscape"
   inkscape:version="1.0 (4035a4fb49, 2020-05-01)"
   sodipodi:docname="day-cloudy-gusts-symbolic.svg"
   xml:space="preserve"
   style="enable-background:new 0 0 30 30;"
   viewBox="0 0 30 30"
   y="0px"
   x="0px"
   id="Layer_1"
   version="1.1"><metadata
   id="metadata9"><rdf:RDF><cc:Work
       rdf:about=""><dc:format>image/svg+xml</dc:format><dc:type
         rdf:resource="http://purl.org/dc/dcmitype/StillImage" /></cc:Work></rdf:RDF></metadata><defs
   id="defs7" /><sodipodi:namedview
   inkscape:current-layer="Layer_1"
   inkscape:window-maximized="0"
   inkscape:window-y="0"
   inkscape:window-x="0"
   inkscape:cy="15"
   inkscape:cx="15"
   inkscape:zoom="22.2"
   showgrid="false"
   id="namedview5"
   inkscape:window-height="937"
   inkscape:window-width="1080"
   inkscape:pageshadow="2"
   inkscape:pageopacity="0"
   guidetolerance="10"
   gridtolerance="10"
   objecttolerance="10"
   borderopacity="1"
   bordercolor="#666666"
   pagecolor="#ffffff" />
<path
   style="stroke-width:1.01954"
   id="path2"
   d="m 0.12558858,22.587015 c 0,0.24469 0.0917586,0.448598 0.27527581,0.611724 0.17332181,0.173322 0.37722982,0.254885 0.62191941,0.254885 h 5.9948954 c 0.2650805,0 0.4893793,0.09176 0.6932873,0.285472 0.203908,0.193712 0.305862,0.428206 0.305862,0.693287 0,0.26508 -0.101954,0.50977 -0.305862,0.703482 -0.203908,0.193713 -0.4282068,0.295667 -0.6932873,0.295667 -0.2650804,0 -0.4893792,-0.101954 -0.6932872,-0.305862 -0.1835172,-0.163126 -0.3874252,-0.24469 -0.6219194,-0.24469 -0.2446896,0 -0.4485976,0.08156 -0.611724,0.24469 -0.1631265,0.163126 -0.2446897,0.367034 -0.2446897,0.611724 0,0.24469 0.081563,0.448598 0.2446897,0.611724 0.5403562,0.540356 1.1826664,0.815632 1.9269306,0.815632 0.7544597,0 1.3967699,-0.26508 1.9167353,-0.795241 0.5301609,-0.530161 0.7952413,-1.172471 0.7952413,-1.926931 0,-0.754459 -0.2650804,-1.39677 -0.7952413,-1.926931 C 8.4042537,21.975291 7.7619435,21.710211 7.0176792,21.710211 H 1.0227838 c -0.24468959,0 -0.4485976,0.09176 -0.63211481,0.26508 -0.18351721,0.173322 -0.26508041,0.37723 -0.26508041,0.611724 z m 0,-3.068815 c 0,0.224299 0.0917586,0.418011 0.27527581,0.581138 0.17332181,0.173321 0.37722982,0.254885 0.62191941,0.254885 H 12.207138 c 0.754459,0 1.396769,-0.265081 1.92693,-0.795242 0.530161,-0.530161 0.795242,-1.172471 0.795242,-1.92693 0,-0.75446 -0.265081,-1.386575 -0.795242,-1.916736 -0.530161,-0.519965 -1.172471,-0.785046 -1.92693,-0.785046 -0.774851,0 -1.406966,0.254885 -1.916736,0.774851 -0.163126,0.163126 -0.234494,0.37723 -0.234494,0.621919 0,0.24469 0.08156,0.448598 0.234494,0.611724 0.152931,0.152931 0.356839,0.234495 0.611724,0.234495 0.24469,0 0.448598,-0.08156 0.632115,-0.234495 0.193713,-0.193712 0.418012,-0.285471 0.683092,-0.285471 0.26508,0 0.499575,0.09176 0.693287,0.285471 0.193713,0.193713 0.295667,0.428207 0.295667,0.693288 0,0.275275 -0.101954,0.50977 -0.295667,0.703482 -0.193712,0.193713 -0.428207,0.295667 -0.693287,0.295667 H 1.0227838 c -0.24468959,0 -0.4485976,0.09176 -0.63211481,0.26508 -0.18351721,0.183517 -0.26508041,0.387425 -0.26508041,0.62192 z M 2.8273696,17.122281 c 0,0.08156 0.061172,0.122344 0.1733218,0.122344 h 1.4579423 c 0.071368,0 0.1325402,-0.05098 0.203908,-0.142735 0.2242988,-0.550552 0.5811379,-1.009345 1.0705171,-1.376379 0.4791838,-0.356839 1.01954,-0.560747 1.6312641,-0.611724 l 0.5403562,-0.07137 c 0.1223448,0 0.1937126,-0.06117 0.1937126,-0.173322 l 0.071368,-0.530161 c 0.1121492,-1.101101 0.5709422,-2.018687 1.3967697,-2.762951 0.8258266,-0.744265 1.7943896,-1.1113 2.9056886,-1.1113 1.121494,0 2.090057,0.367035 2.915885,1.101104 0.825827,0.734069 1.294815,1.661851 1.406965,2.762954 l 0.07137,0.591333 c 0,0.122345 0.06117,0.183517 0.183517,0.183517 h 1.66185 c 0.917586,0 1.702632,0.316058 2.344942,0.958368 0.64231,0.64231 0.968563,1.417161 0.968563,2.314356 0,0.90739 -0.326253,1.692436 -0.968563,2.334747 -0.64231,0.64231 -1.427356,0.968563 -2.344942,0.968563 h -7.034826 c -0.13254,0 -0.193713,0.06117 -0.193713,0.183517 v 1.39677 c 0,0.112149 0.06117,0.173321 0.193713,0.173321 h 7.034826 c 0.907391,0 1.753609,-0.224298 2.528459,-0.683091 0.774851,-0.448598 1.386575,-1.070517 1.835173,-1.845368 0.448597,-0.77485 0.672896,-1.621069 0.672896,-2.528459 0,-0.75446 -0.142736,-1.437552 -0.428207,-2.069666 0.774851,-1.009345 1.15208,-2.141035 1.15208,-3.374678 0,-0.958368 -0.244689,-1.845368 -0.723873,-2.671196 C 23.269147,9.4349483 22.616642,8.7824426 21.790814,8.3032588 20.964987,7.824075 20.077987,7.5793854 19.119619,7.5793854 c -1.570092,0 -2.885298,0.5913332 -3.935424,1.7638043 -0.815632,-0.4180115 -1.723023,-0.6219195 -2.722172,-0.6219195 -1.437552,0 -2.701781,0.4485977 -3.8028843,1.3355968 -1.1011032,0.887 -1.8045859,2.028886 -2.1002525,3.405265 -0.866609,0.203908 -1.6312641,0.621919 -2.2939651,1.254034 -0.662701,0.632115 -1.1316894,1.376379 -1.3865745,2.232793 v 0.04078 c -0.040782,0.07137 -0.050977,0.101954 -0.050977,0.132542 z M 11.167207,5.8767535 c 0,0.2344942 0.09176,0.4384022 0.275276,0.611724 l 0.621919,0.6627011 c 0.163126,0.1631264 0.37723,0.2446896 0.621919,0.2446896 0.254885,0 0.458793,-0.081563 0.62192,-0.2344942 0.163126,-0.152931 0.244689,-0.3568391 0.244689,-0.6117241 0,-0.2446896 -0.07137,-0.4485976 -0.234494,-0.611724 L 12.64554,5.2752249 C 12.482413,5.1019031 12.288701,5.0101444 12.044011,5.0101444 c -0.244689,0 -0.448597,0.081563 -0.621919,0.2548851 -0.173322,0.1733218 -0.254885,0.3772298 -0.254885,0.611724 z m 5.423953,4.4961715 c 0.734069,-0.6932871 1.570092,-1.0399307 2.528459,-1.0399307 0.988954,0 1.835172,0.356839 2.559046,1.0705167 0.713678,0.713678 1.070517,1.570092 1.070517,2.559046 0,0.662701 -0.173322,1.284621 -0.530161,1.865758 -0.978759,-0.978758 -2.15123,-1.457942 -3.527609,-1.457942 H 18.344769 C 18.110275,12.259075 17.518941,11.259925 16.59116,10.372925 Z m 1.651655,-5.3423897 c 0,0.2344942 0.08156,0.4384022 0.254885,0.6015286 0.173322,0.1631264 0.37723,0.2446896 0.611724,0.2446896 0.244689,0 0.448597,-0.081563 0.621919,-0.2446896 0.173322,-0.1631264 0.254885,-0.356839 0.254885,-0.6015286 V 2.9404781 c 0,-0.2446896 -0.08156,-0.4485976 -0.254885,-0.6219194 -0.173322,-0.1733218 -0.37723,-0.254885 -0.621919,-0.254885 -0.24469,0 -0.448598,0.081563 -0.611724,0.254885 -0.163127,0.1733218 -0.254885,0.3772298 -0.254885,0.6219194 z m 5.658447,2.3143559 c 0,0.2446896 0.08156,0.4485976 0.234494,0.611724 0.173322,0.1733218 0.37723,0.254885 0.62192,0.2650804 0.244689,0.010195 0.438402,-0.081563 0.581137,-0.2650804 l 1.488529,-1.4579423 c 0.173322,-0.1733218 0.254885,-0.3772298 0.254885,-0.6219194 0,-0.2344942 -0.08156,-0.4384022 -0.254885,-0.611724 -0.173322,-0.1733218 -0.37723,-0.2548851 -0.621919,-0.2548851 -0.24469,0 -0.448598,0.071368 -0.611725,0.2344943 L 24.135756,6.7433625 C 23.982825,6.9064889 23.901262,7.1002016 23.901262,7.3448912 Z M 24.686308,19.40605 c 0,0.234495 0.08156,0.438403 0.254885,0.611724 l 0.652505,0.662701 c 0.203908,0.163127 0.418012,0.24469 0.632115,0.24469 0.193713,0 0.397621,-0.08156 0.601529,-0.24469 0.173322,-0.173321 0.254885,-0.377229 0.254885,-0.611724 0,-0.224298 -0.08156,-0.428206 -0.254885,-0.621919 l -0.652506,-0.662701 c -0.163126,-0.163127 -0.367034,-0.24469 -0.591333,-0.24469 -0.254885,0 -0.468988,0.08156 -0.64231,0.254885 -0.173322,0.163127 -0.254885,0.367035 -0.254885,0.611724 z m 1.539505,-6.443493 c 0,0.24469 0.08156,0.438402 0.254885,0.601529 0.152931,0.183517 0.346644,0.26508 0.581138,0.26508 h 2.059471 c 0.24469,0 0.448598,-0.08156 0.621919,-0.254885 0.173322,-0.173322 0.254886,-0.37723 0.254886,-0.611724 0,-0.234494 -0.09176,-0.438402 -0.265081,-0.611724 -0.173322,-0.173322 -0.37723,-0.26508 -0.611724,-0.26508 h -2.059471 c -0.244689,0 -0.438402,0.08156 -0.601528,0.254885 -0.152931,0.173322 -0.234495,0.37723 -0.234495,0.621919 z" />
</svg>
