<?xml version="1.0" encoding="UTF-8" standalone="no"?>
<!-- Generator: Adobe Illustrator 15.1.0, SVG Export Plug-In . SVG Version: 6.00 Build 0)  -->

<svg
   xmlns:dc="http://purl.org/dc/elements/1.1/"
   xmlns:cc="http://creativecommons.org/ns#"
   xmlns:rdf="http://www.w3.org/1999/02/22-rdf-syntax-ns#"
   xmlns:svg="http://www.w3.org/2000/svg"
   xmlns="http://www.w3.org/2000/svg"
   xmlns:sodipodi="http://sodipodi.sourceforge.net/DTD/sodipodi-0.dtd"
   xmlns:inkscape="http://www.inkscape.org/namespaces/inkscape"
   version="1.1"
   id="Layer_1"
   x="0px"
   y="0px"
   width="100px"
   height="100px"
   viewBox="0 0 100 100"
   enable-background="new 0 0 100 100"
   xml:space="preserve"
   sodipodi:docname="Degrees-Fahrenheit-symbolic.svg"
   inkscape:version="0.92.4 5da689c313, 2019-01-14"><metadata
   id="metadata9"><rdf:RDF><cc:Work
       rdf:about=""><dc:format>image/svg+xml</dc:format><dc:type
         rdf:resource="http://purl.org/dc/dcmitype/StillImage" /></cc:Work></rdf:RDF></metadata><defs
   id="defs7" /><sodipodi:namedview
   pagecolor="#ffffff"
   bordercolor="#666666"
   borderopacity="1"
   objecttolerance="10"
   gridtolerance="10"
   guidetolerance="10"
   inkscape:pageopacity="0"
   inkscape:pageshadow="2"
   inkscape:window-width="640"
   inkscape:window-height="480"
   id="namedview5"
   showgrid="false"
   inkscape:zoom="2.36"
   inkscape:cx="50"
   inkscape:cy="50"
   inkscape:window-x="0"
   inkscape:window-y="0"
   inkscape:window-maximized="0"
   inkscape:current-layer="Layer_1" />
<path
   d="m 88.319414,38.399942 c 0,-6.476513 -5.250989,-11.727502 -11.727502,-11.727502 -6.476512,0 -11.727501,5.250989 -11.727501,11.727502 V 50.124511 H 88.319414 V 61.852013 H 64.864411 V 85.304084 H 53.142773 V 61.852013 50.124511 38.399942 c 0,-12.953025 10.499046,-23.452071 23.452071,-23.452071 12.953026,0 23.455006,10.499046 23.455006,23.452071 z m -67.427269,17.58832 c -11.331698,0 -20.51726364,-9.188497 -20.51726364,-20.520195 0,-11.331699 9.18556564,-20.520196 20.51726364,-20.520196 11.331697,0 20.523127,9.188497 20.523127,20.520196 0,11.331698 -9.188498,20.520195 -20.523127,20.520195 z m 0,-29.315822 c -4.855185,0 -8.792694,3.940441 -8.792694,8.795627 0,4.855185 3.937509,8.795626 8.792694,8.795626 4.858118,0 8.795625,-3.940441 8.795625,-8.795626 0,-4.855186 -3.934575,-8.795627 -8.795625,-8.795627 z"
   id="path2"
   inkscape:connector-curvature="0"
   style="clip-rule:evenodd;fill-rule:evenodd;stroke-width:2.93187547" />
</svg>