<?xml version="1.0" encoding="utf-8"?>
<!-- Generator: Adobe Illustrator 15.1.0, SVG Export Plug-In . SVG Version: 6.00 Build 0)  -->
<!DOCTYPE svg PUBLIC "-//W3C//DTD SVG 1.1//EN" "http://www.w3.org/Graphics/SVG/1.1/DTD/svg11.dtd">
<svg version="1.1" id="Layer_1" xmlns="http://www.w3.org/2000/svg" xmlns:xlink="http://www.w3.org/1999/xlink" x="0px" y="0px"
	 width="100px" height="100px" viewBox="0 0 100 100" enable-background="new 0 0 100 100" xml:space="preserve">
<path fill-rule="evenodd" clip-rule="evenodd" d="M62.998,46.001c0-2.209-1.791-4-4-4s-4,1.791-4,4V50h8v4h-8v7.999H51V54v-4v-3.999
	c0-4.418,3.581-7.999,7.999-7.999s8,3.581,8,7.999H62.998z M40,52c-3.865,0-6.998-3.134-6.998-6.999s3.133-6.999,6.998-6.999
	s7,3.134,7,6.999S43.866,52,40,52z M40,42.001c-1.656,0-2.999,1.344-2.999,3s1.343,3,2.999,3c1.657,0,3-1.344,3-3
	S41.658,42.001,40,42.001z"/>
</svg>
