<?xml version="1.0" encoding="utf-8"?>
<!-- Generator: Adobe Illustrator 15.1.0, SVG Export Plug-In . SVG Version: 6.00 Build 0)  -->
<!DOCTYPE svg PUBLIC "-//W3C//DTD SVG 1.1//EN" "http://www.w3.org/Graphics/SVG/1.1/DTD/svg11.dtd">
<svg version="1.1" id="Layer_1" xmlns="http://www.w3.org/2000/svg" xmlns:xlink="http://www.w3.org/1999/xlink" x="0px" y="0px"
	 width="100px" height="100px" viewBox="0 0 100 100" enable-background="new 0 0 100 100" xml:space="preserve">
<path fill-rule="evenodd" clip-rule="evenodd" d="M58.999,42.001c-2.209,0-4,1.791-4,4V54c0,2.209,1.791,3.999,4,3.999
	s4-1.79,4-3.999h3.998c0,4.418-3.58,7.999-7.998,7.999s-8-3.581-8-7.999v-7.999c0-4.418,3.582-7.999,8-7.999
	s7.998,3.581,7.998,7.999h-3.998C62.999,43.792,61.208,42.001,58.999,42.001z M40,52c-3.865,0-6.998-3.134-6.998-6.999
	s3.133-6.999,6.998-6.999c3.866,0,7,3.134,7,6.999S43.867,52,40,52z M40,42.001c-1.656,0-2.999,1.344-2.999,3s1.343,3,2.999,3
	c1.657,0,3-1.344,3-3S41.658,42.001,40,42.001z"/>
</svg>
