<?xml version="1.0" encoding="UTF-8" standalone="no"?>
<!-- Generator: Adobe Illustrator 15.1.0, SVG Export Plug-In . SVG Version: 6.00 Build 0)  -->

<svg
   xmlns:dc="http://purl.org/dc/elements/1.1/"
   xmlns:cc="http://creativecommons.org/ns#"
   xmlns:rdf="http://www.w3.org/1999/02/22-rdf-syntax-ns#"
   xmlns:svg="http://www.w3.org/2000/svg"
   xmlns="http://www.w3.org/2000/svg"
   xmlns:sodipodi="http://sodipodi.sourceforge.net/DTD/sodipodi-0.dtd"
   xmlns:inkscape="http://www.inkscape.org/namespaces/inkscape"
   version="1.1"
   id="Layer_1"
   x="0px"
   y="0px"
   width="100px"
   height="100px"
   viewBox="0 0 100 100"
   enable-background="new 0 0 100 100"
   xml:space="preserve"
   sodipodi:docname="Degrees-Celcius-symbolic.svg"
   inkscape:version="0.92.4 5da689c313, 2019-01-14"><metadata
   id="metadata9"><rdf:RDF><cc:Work
       rdf:about=""><dc:format>image/svg+xml</dc:format><dc:type
         rdf:resource="http://purl.org/dc/dcmitype/StillImage" /></cc:Work></rdf:RDF></metadata><defs
   id="defs7" /><sodipodi:namedview
   pagecolor="#ffffff"
   bordercolor="#666666"
   borderopacity="1"
   objecttolerance="10"
   gridtolerance="10"
   guidetolerance="10"
   inkscape:pageopacity="0"
   inkscape:pageshadow="2"
   inkscape:window-width="640"
   inkscape:window-height="480"
   id="namedview5"
   showgrid="false"
   inkscape:zoom="2.36"
   inkscape:cx="50"
   inkscape:cy="50"
   inkscape:window-x="0"
   inkscape:window-y="0"
   inkscape:window-maximized="0"
   inkscape:current-layer="Layer_1" />
<path
   d="m 76.273761,26.495704 c -6.44923,0 -11.678098,5.228868 -11.678098,11.678098 v 23.353277 c 0,6.44923 5.228868,11.675179 11.678098,11.675179 6.44923,0 11.678098,-5.225949 11.678098,-11.675179 h 11.672262 c 0,12.89846 -10.451901,23.353277 -23.35036,23.353277 -12.89846,0 -23.356197,-10.454817 -23.356197,-23.353277 V 38.173802 c 0,-12.89846 10.457737,-23.353277 23.356197,-23.353277 12.898459,0 23.35036,10.454817 23.35036,23.353277 H 87.951859 c 0,-6.44923 -5.228868,-11.678098 -11.678098,-11.678098 z M 20.805714,55.68803 c -11.2839621,0 -20.43083264,-9.14979 -20.43083264,-20.433753 0,-11.283962 9.14687054,-20.433752 20.43083264,-20.433752 11.286882,0 20.436672,9.14979 20.436672,20.433752 0,11.283963 -9.146871,20.433753 -20.436672,20.433753 z m 0,-29.192326 c -4.834733,0 -8.755654,3.923841 -8.755654,8.758573 0,4.834733 3.920921,8.758574 8.755654,8.758574 4.837652,0 8.758573,-3.923841 8.758573,-8.758574 0,-4.834732 -3.918001,-8.758573 -8.758573,-8.758573 z"
   id="path2"
   inkscape:connector-curvature="0"
   style="clip-rule:evenodd;fill-rule:evenodd;stroke-width:2.91952467" />
</svg>