<?xml version="1.0" encoding="UTF-8" standalone="no"?>
<!-- Generator: Adobe Illustrator 15.1.0, SVG Export Plug-In . SVG Version: 6.00 Build 0)  -->

<svg
   xmlns:dc="http://purl.org/dc/elements/1.1/"
   xmlns:cc="http://creativecommons.org/ns#"
   xmlns:rdf="http://www.w3.org/1999/02/22-rdf-syntax-ns#"
   xmlns:svg="http://www.w3.org/2000/svg"
   xmlns="http://www.w3.org/2000/svg"
   xmlns:sodipodi="http://sodipodi.sourceforge.net/DTD/sodipodi-0.dtd"
   xmlns:inkscape="http://www.inkscape.org/namespaces/inkscape"
   version="1.1"
   id="Layer_1"
   x="0px"
   y="0px"
   width="100px"
   height="100px"
   viewBox="0 0 100 100"
   enable-background="new 0 0 100 100"
   xml:space="preserve"
   sodipodi:docname="Degrees-Celcius-symbolic.svg"
   inkscape:version="0.92.4 5da689c313, 2019-01-14"><metadata
   id="metadata9"><rdf:RDF><cc:Work
       rdf:about=""><dc:format>image/svg+xml</dc:format><dc:type
         rdf:resource="http://purl.org/dc/dcmitype/StillImage" /></cc:Work></rdf:RDF></metadata><defs
   id="defs7" /><sodipodi:namedview
   pagecolor="#ffffff"
   bordercolor="#666666"
   borderopacity="1"
   objecttolerance="10"
   gridtolerance="10"
   guidetolerance="10"
   inkscape:pageopacity="0"
   inkscape:pageshadow="2"
   inkscape:window-width="640"
   inkscape:window-height="480"
   id="namedview5"
   showgrid="false"
   inkscape:zoom="2.36"
   inkscape:cx="50"
   inkscape:cy="50"
   inkscape:window-x="0"
   inkscape:window-y="0"
   inkscape:window-maximized="0"
   inkscape:current-layer="Layer_1" />
<path
   d="m 75.913314,24.980281 c -6.382597,0 -11.557441,5.174845 -11.557441,11.557442 v 23.111993 c 0,6.382598 5.174844,11.554553 11.557441,11.554553 6.382598,0 11.557442,-5.171955 11.557442,-11.554553 H 99.02242 c 0,12.765195 -10.343911,23.111995 -23.109106,23.111995 -12.765194,0 -23.114883,-10.3468 -23.114883,-23.111995 V 36.537723 c 0,-12.765195 10.349689,-23.111994 23.114883,-23.111994 12.765195,0 23.109106,10.346799 23.109106,23.111994 H 87.470756 c 0,-6.382597 -5.174844,-11.557442 -11.557442,-11.557442 z M 21.018355,53.870995 c -11.1673783,0 -20.21974483,-9.055255 -20.21974483,-20.222633 0,-11.167377 9.05236653,-20.222633 20.21974483,-20.222633 11.170267,0 20.225523,9.055256 20.225523,20.222633 0,11.167378 -9.052367,20.222633 -20.225523,20.222633 z m 0,-28.890714 c -4.784781,0 -8.665192,3.883301 -8.665192,8.668081 0,4.784781 3.880411,8.668081 8.665192,8.668081 4.78767,0 8.668081,-3.8833 8.668081,-8.668081 0,-4.78478 -3.877521,-8.668081 -8.668081,-8.668081 z"
   id="path2"
   inkscape:connector-curvature="0"
   style="clip-rule:evenodd;fill-rule:evenodd;stroke-width:2.88936043" />
</svg>