<svg height="511pt" viewBox="-66 1 511 511.99974" width="511pt" xmlns="http://www.w3.org/2000/svg"><path d="m125.554688 4.757812c-4.117188-6.34375-13.40625-6.34375-17.527344 0-20.457032 31.511719-69.648438 110.847657-69.648438 145.144532 0 43.304687 35.109375 78.414062 78.414063 78.414062 43.304687 0 78.410156-35.109375 78.410156-78.414062 0-34.296875-49.191406-113.632813-69.648437-145.144532zm0 0"/><path d="m296.027344 155.199219c-4.125-6.324219-13.378906-6.324219-17.503906 0-22.988282 35.234375-83.320313 131.636719-83.320313 172.800781 0 50.847656 41.222656 92.070312 92.070313 92.070312 50.851562 0 92.074218-41.222656 92.074218-92.070312 0-41.164062-60.332031-137.566406-83.320312-172.800781zm0 0"/><path d="m93.285156 276.667969c-4.652344-7.179688-15.148437-7.179688-19.800781 0-21.992187 33.953125-72.984375 116.542969-72.984375 152.445312 0 45.777344 37.109375 82.886719 82.886719 82.886719 45.773437 0 82.882812-37.109375 82.882812-82.886719 0-35.90625-50.992187-118.492187-72.984375-152.445312zm0 0"/></svg>