<?xml version="1.0" encoding="UTF-8" standalone="no"?>
<svg
   xmlns:dc="http://purl.org/dc/elements/1.1/"
   xmlns:cc="http://creativecommons.org/ns#"
   xmlns:rdf="http://www.w3.org/1999/02/22-rdf-syntax-ns#"
   xmlns:svg="http://www.w3.org/2000/svg"
   xmlns="http://www.w3.org/2000/svg"
   xmlns:sodipodi="http://sodipodi.sourceforge.net/DTD/sodipodi-0.dtd"
   xmlns:inkscape="http://www.inkscape.org/namespaces/inkscape"
   inkscape:version="1.0 (4035a4fb49, 2020-05-01)"
   sodipodi:docname="dust-symbolic.svg"
   xml:space="preserve"
   style="enable-background:new 0 0 30 30;"
   viewBox="0 0 30 30"
   y="0px"
   x="0px"
   id="Layer_1"
   version="1.1"><metadata
   id="metadata9"><rdf:RDF><cc:Work
       rdf:about=""><dc:format>image/svg+xml</dc:format><dc:type
         rdf:resource="http://purl.org/dc/dcmitype/StillImage" /></cc:Work></rdf:RDF></metadata><defs
   id="defs7" /><sodipodi:namedview
   inkscape:current-layer="Layer_1"
   inkscape:window-maximized="1"
   inkscape:window-y="0"
   inkscape:window-x="0"
   inkscape:cy="17.356089"
   inkscape:cx="25.871204"
   inkscape:zoom="14.2"
   showgrid="false"
   id="namedview5"
   inkscape:window-height="1020"
   inkscape:window-width="1920"
   inkscape:pageshadow="2"
   inkscape:pageopacity="0"
   guidetolerance="10"
   gridtolerance="10"
   objecttolerance="10"
   borderopacity="1"
   bordercolor="#666666"
   pagecolor="#ffffff" />
<path
   style="stroke-width:1.66063"
   id="path2"
   d="m 2.2143814,17.405267 c 0,-0.381946 0.1328506,-0.68086 0.3819454,-0.929954 0.2657011,-0.249095 0.6144339,-0.365339 1.0628046,-0.365339 H 13.14134 c 0.448371,0 0.797104,0.116244 1.062805,0.365339 0.265701,0.249094 0.381945,0.548008 0.381945,0.929954 0,0.44837 -0.13285,0.813709 -0.381945,1.062804 -0.249095,0.249095 -0.614434,0.381946 -1.062805,0.381946 H 3.6591314 c -0.4483707,0 -0.7971035,-0.132851 -1.0628046,-0.381946 C 2.3306256,18.218976 2.2143814,17.870244 2.2143814,17.405267 Z m 0,-9.8143367 c 0,-0.3653391 0.1328506,-0.6808592 0.3819454,-0.9133477 0.2657011,-0.2490948 0.6144339,-0.365339 1.0628046,-0.365339 h 4.915471 c 0.448371,0 0.797103,0.1162442 1.062805,0.365339 0.265701,0.2324885 0.3985506,0.5480086 0.3985506,0.9133477 0,0.4483707 -0.1328496,0.7971034 -0.3985506,1.0628046 -0.265702,0.2657011 -0.614434,0.3985517 -1.062805,0.3985517 H 3.6591314 C 3.2107607,9.0522866 2.8620279,8.919436 2.5963268,8.6703412 2.3306256,8.4212464 2.2143814,8.039301 2.2143814,7.5909303 Z M 3.8584072,22.320738 c 0,-0.365339 0.1494569,-0.697466 0.464977,-0.99638 0.2989138,-0.298913 0.6476462,-0.464977 0.9963792,-0.464977 0.431764,0 0.763891,0.149457 1.029592,0.448371 0.265701,0.298914 0.398552,0.63104 0.398552,1.012986 0,0.44837 -0.132851,0.813709 -0.381946,1.079411 -0.249094,0.265701 -0.597827,0.381945 -1.046198,0.381945 -0.381945,0 -0.7306781,-0.132851 -1.0129855,-0.398552 -0.3155201,-0.282307 -0.4483707,-0.63104 -0.4483707,-1.062804 z m 2.3580972,-9.847549 c 0,-0.381946 0.116245,-0.730678 0.36534,-1.012986 0.249094,-0.298914 0.548008,-0.44837 0.896741,-0.44837 0.431764,0 0.797103,0.149456 1.062804,0.44837 0.265702,0.298914 0.398552,0.63104 0.398552,1.012986 0,0.448371 -0.13285,0.81371 -0.381945,1.079411 -0.265701,0.265701 -0.614434,0.381945 -1.079411,0.381945 -0.381946,0 -0.680859,-0.13285 -0.913348,-0.398551 -0.232488,-0.265702 -0.348733,-0.614434 -0.348733,-1.062805 z m 1.644026,9.847549 c 0,-0.381946 0.132851,-0.730678 0.398552,-1.012986 0.265701,-0.282307 0.63104,-0.448371 1.062805,-0.448371 h 6.3602206 l 1.461356,1.461357 c 0,0.431764 -0.149457,0.780497 -0.448371,1.062804 -0.298914,0.282308 -0.63104,0.398552 -1.012985,0.398552 H 9.3218874 c -0.448371,0 -0.81371,-0.132851 -1.079411,-0.398552 -0.265702,-0.265701 -0.381946,-0.614434 -0.381946,-1.062804 z m 2.1920346,-9.847549 c 0,-0.365339 0.149457,-0.697466 0.464977,-0.996379 0.298913,-0.298914 0.647646,-0.464977 0.996379,-0.464977 h 6.360221 c 0.431764,0 0.780497,0.149456 1.046198,0.44837 0.265701,0.298914 0.398552,0.63104 0.398552,1.012986 0,0.448371 -0.132851,0.81371 -0.381945,1.079411 -0.265702,0.265701 -0.614434,0.381945 -1.062805,0.381945 h -6.360221 c -0.381945,0 -0.730678,-0.13285 -1.012986,-0.398551 -0.298913,-0.265702 -0.44837,-0.614434 -0.44837,-1.062805 z m 1.26208,-4.8822587 c 0,-0.3653391 0.132851,-0.6808592 0.398552,-0.9133477 0.265701,-0.2324885 0.614434,-0.365339 1.062804,-0.365339 h 9.48221 c 0.381945,0 0.714072,0.1328505 1.012985,0.3819454 0.298914,0.2490948 0.448371,0.5480086 0.448371,0.8967413 0,0.4317644 -0.149457,0.7971034 -0.448371,1.0628046 -0.298913,0.2657011 -0.63104,0.3985517 -1.012985,0.3985517 h -9.48221 c -0.44837,0 -0.813709,-0.1328506 -1.079411,-0.3985517 C 11.430889,8.3880337 11.314645,8.039301 11.314645,7.5909303 Z m 4.367463,9.8143367 c 0,-0.348733 0.149456,-0.664253 0.44837,-0.913348 0.298914,-0.249095 0.63104,-0.381945 1.012986,-0.381945 0.381945,0 0.714072,0.13285 1.012985,0.381945 0.298914,0.249095 0.448371,0.564615 0.448371,0.913348 0,0.431764 -0.149457,0.780497 -0.448371,1.046198 -0.298913,0.265701 -0.63104,0.398552 -1.012985,0.398552 -0.381946,0 -0.730678,-0.132851 -1.012986,-0.398552 -0.298914,-0.249095 -0.44837,-0.597828 -0.44837,-1.046198 z m 2.557373,4.915471 c 0,-0.381946 0.132851,-0.730678 0.398552,-1.012986 0.265701,-0.298914 0.614434,-0.448371 1.046198,-0.448371 h 3.105382 c 0.431764,0 0.780497,0.149457 1.046198,0.431765 0.265701,0.282307 0.398552,0.63104 0.398552,1.029592 0,0.44837 -0.132851,0.813709 -0.381945,1.079411 -0.249095,0.265701 -0.614434,0.381945 -1.062805,0.381945 h -3.105382 c -0.448371,0 -0.797103,-0.132851 -1.062805,-0.381945 -0.249094,-0.265702 -0.381945,-0.631041 -0.381945,-1.079411 z m 1.44475,-4.915471 c 0,-0.348733 0.149457,-0.664253 0.448371,-0.913348 0.298913,-0.249095 0.63104,-0.381945 1.012985,-0.381945 h 5.098141 c 0.365339,0 0.664253,0.13285 0.896741,0.381945 0.232489,0.249095 0.365339,0.548009 0.365339,0.913348 0,0.44837 -0.116244,0.797103 -0.348732,1.062804 -0.232489,0.265701 -0.531403,0.381946 -0.913348,0.381946 h -5.098141 c -0.381945,0 -0.730678,-0.132851 -1.012985,-0.398552 -0.298914,-0.249095 -0.448371,-0.597828 -0.448371,-1.046198 z m 0.730678,-4.932078 c 0,-0.365339 0.149457,-0.697466 0.464977,-0.996379 0.298914,-0.298914 0.647647,-0.464977 0.996379,-0.464977 h 3.254839 c 0.348733,0 0.647647,0.149456 0.896742,0.44837 0.249095,0.298914 0.381945,0.63104 0.381945,1.012986 0,0.448371 -0.116244,0.797103 -0.365339,1.062805 -0.232488,0.265701 -0.548009,0.398551 -0.913348,0.398551 h -3.254839 c -0.381945,0 -0.730678,-0.13285 -1.012985,-0.398551 -0.298914,-0.265702 -0.448371,-0.614434 -0.448371,-1.062805 z m 4.550132,-4.8822587 c 0,-0.3653391 0.116244,-0.6642528 0.365339,-0.9133477 0.249095,-0.2490948 0.548009,-0.365339 0.913348,-0.365339 0.448371,0 0.797103,0.1162442 1.062805,0.365339 0.265701,0.2324885 0.398551,0.5480086 0.398551,0.9133477 0,0.4483707 -0.13285,0.7971034 -0.398551,1.0628046 -0.265702,0.2657011 -0.614434,0.3985517 -1.062805,0.3985517 -0.381945,0 -0.680859,-0.1328506 -0.913348,-0.3985517 C 25.081285,8.3880337 24.965041,8.039301 24.965041,7.5909303 Z" />
</svg>
