<?xml version="1.0" encoding="UTF-8" standalone="no"?>
<!-- Generator: Adobe Illustrator 22.0.1, SVG Export Plug-In . SVG Version: 6.00 Build 0)  -->

<svg
   version="1.1"
   id="Layer_1"
   x="0px"
   y="0px"
   viewBox="0 0 30 30"
   style="enable-background:new 0 0 30 30;"
   xml:space="preserve"
   sodipodi:docname="earthquake-symbolic.svg"
   inkscape:version="1.3.2 (091e20ef0f, 2023-11-25, custom)"
   xmlns:inkscape="http://www.inkscape.org/namespaces/inkscape"
   xmlns:sodipodi="http://sodipodi.sourceforge.net/DTD/sodipodi-0.dtd"
   xmlns="http://www.w3.org/2000/svg"
   xmlns:svg="http://www.w3.org/2000/svg"><defs
   id="defs1" /><sodipodi:namedview
   id="namedview1"
   pagecolor="#ffffff"
   bordercolor="#666666"
   borderopacity="1.0"
   inkscape:showpageshadow="2"
   inkscape:pageopacity="0.0"
   inkscape:pagecheckerboard="0"
   inkscape:deskcolor="#d1d1d1"
   inkscape:zoom="14.6"
   inkscape:cx="15"
   inkscape:cy="14.965753"
   inkscape:window-width="1080"
   inkscape:window-height="1884"
   inkscape:window-x="0"
   inkscape:window-y="0"
   inkscape:window-maximized="1"
   inkscape:current-layer="Layer_1" />
<path
   d="m 1.1748037,16.42 c 0,0.226992 0.085122,0.411422 0.2411783,0.567479 0.1560566,0.156056 0.3546741,0.226991 0.5674785,0.226991 H 6.211175 c 0.1986175,0 0.383048,-0.05675 0.5391046,-0.184431 C 6.9063362,16.902357 6.9914579,16.7463 7.0340188,16.547683 L 8.3108453,9.0711537 10.609133,27.769569 c 0.02837,0.198618 0.127682,0.368861 0.269552,0.510731 0.14187,0.127683 0.312113,0.198617 0.510731,0.198617 0.212804,0 0.397235,-0.07093 0.539104,-0.198617 0.14187,-0.127683 0.241179,-0.297926 0.283739,-0.510731 l 1.77337,-13.718792 1.475444,3.97235 c 0.05675,0.156056 0.14187,0.283739 0.283739,0.383048 0.14187,0.09931 0.28374,0.141869 0.453983,0.141869 h 0.07094 c 0.170243,-0.01419 0.3263,-0.07093 0.453983,-0.18443 0.141869,-0.113496 0.226991,-0.255365 0.269552,-0.439796 l 2.170605,-9.732256 1.007274,18.698416 c 0.01419,0.198617 0.08512,0.383048 0.212805,0.524917 0.127682,0.14187 0.297926,0.226992 0.51073,0.241179 0.198618,0.01419 0.383048,-0.02837 0.539105,-0.14187 0.156056,-0.113496 0.255365,-0.269552 0.312113,-0.46817 l 2.340849,-9.845751 h 3.929788 c 0.226991,0 0.411422,-0.07093 0.567479,-0.226991 0.156056,-0.156057 0.241178,-0.340487 0.241178,-0.567479 0,-0.226991 -0.08512,-0.411422 -0.241178,-0.567478 -0.156057,-0.156057 -0.354675,-0.241179 -0.567479,-0.241179 H 23.43415 c -0.18443,0 -0.354674,0.05675 -0.496543,0.170244 -0.14187,0.113496 -0.241179,0.255365 -0.283739,0.439796 L 21.476345,21.22938 20.454884,2.2755991 C 20.440697,2.0769816 20.369762,1.8925511 20.227892,1.7506815 20.086023,1.6088119 19.915779,1.5236901 19.717162,1.5236901 19.518544,1.5095032 19.334114,1.552064 19.16387,1.6797467 18.993627,1.8074294 18.894318,1.9634859 18.851757,2.1621034 l -2.837392,12.7257046 -1.645688,-4.48308 c -0.05675,-0.170244 -0.170243,-0.297926 -0.340487,-0.397235 -0.170244,-0.099309 -0.340487,-0.1418695 -0.51073,-0.1134956 -0.184431,0.014187 -0.340487,0.099309 -0.46817,0.2269916 -0.127682,0.127682 -0.212804,0.297926 -0.241178,0.482356 L 11.41779,21.257754 9.2471848,3.4389299 C 9.2046239,3.2403125 9.1195022,3.0700689 8.9776325,2.9423863 8.8357629,2.8147036 8.6655194,2.7437688 8.4669019,2.7295819 8.2682845,2.7153949 8.083854,2.7721427 7.9277974,2.8998254 7.7717408,3.027508 7.6724321,3.1835646 7.6440582,3.396369 L 5.5443879,15.611343 H 1.9834605 c -0.2269914,0 -0.4114219,0.08512 -0.5674785,0.241179 C 1.2599255,16.008578 1.1748037,16.193009 1.1748037,16.42 Z"
   id="path1"
   style="stroke-width:1.4187" />
</svg>
