<?xml version="1.0" encoding="UTF-8" standalone="no"?>
<!-- Generator: Adobe Illustrator 22.0.1, SVG Export Plug-In . SVG Version: 6.00 Build 0)  -->

<svg
   version="1.1"
   id="Layer_1"
   x="0px"
   y="0px"
   viewBox="0 0 30 30"
   style="enable-background:new 0 0 30 30;"
   xml:space="preserve"
   sodipodi:docname="fire-symbolic.svg"
   inkscape:version="1.3.2 (091e20ef0f, 2023-11-25, custom)"
   xmlns:inkscape="http://www.inkscape.org/namespaces/inkscape"
   xmlns:sodipodi="http://sodipodi.sourceforge.net/DTD/sodipodi-0.dtd"
   xmlns="http://www.w3.org/2000/svg"
   xmlns:svg="http://www.w3.org/2000/svg"><defs
   id="defs1" /><sodipodi:namedview
   id="namedview1"
   pagecolor="#ffffff"
   bordercolor="#666666"
   borderopacity="1.0"
   inkscape:showpageshadow="2"
   inkscape:pageopacity="0.0"
   inkscape:pagecheckerboard="0"
   inkscape:deskcolor="#d1d1d1"
   inkscape:zoom="19.483333"
   inkscape:cx="14.781865"
   inkscape:cy="14.448246"
   inkscape:window-width="2560"
   inkscape:window-height="1364"
   inkscape:window-x="1080"
   inkscape:window-y="213"
   inkscape:window-maximized="1"
   inkscape:current-layer="Layer_1" />
<path
   d="m 2.3037161,27.645442 c 0,-0.498723 0.1662412,-0.914327 0.4820994,-1.263433 0.3158583,-0.349105 0.7148371,-0.515347 1.1636884,-0.515347 v -0.03325 l 21.8773421,0.06649 c 0.09974,-0.01663 0.16624,-0.03325 0.16624,-0.03325 0.448851,0.01663 0.847831,0.19949 1.163689,0.548596 0.315858,0.349106 0.4821,0.781333 0.465475,1.280057 0,0.498724 -0.166241,0.914326 -0.482099,1.263433 -0.315858,0.349106 -0.714837,0.515348 -1.163688,0.515348 v 0.01663 l -21.6612285,-0.0665 c -0.1662412,0.01663 -0.2826101,0.03325 -0.3657306,0.03325 C 3.4840285,29.440841 3.1016738,29.274605 2.7858155,28.925499 2.4533331,28.576392 2.2870919,28.144165 2.3037161,27.645441 Z m 1.3631777,-9.076768 c -0.016624,-0.714838 0.066497,-1.546044 0.2659859,-2.526867 0.099745,-0.498723 0.3324824,-1.263433 0.7314613,-2.277504 0.033248,-0.08312 0.1163687,-0.232737 0.2161136,-0.465476 0.016624,0.03325 0.049872,0.04988 0.066497,0.08312 0.016624,0.03325 0.033248,0.03325 0.033248,0.04988 0.1828653,0.731461 0.4488508,1.396426 0.8145816,1.994894 0.349106,0.531972 0.797957,0.930951 1.3631779,1.147064 0.4322263,0.182866 1.0473192,0.28261 1.8286526,0.299234 0.033247,0 0.083124,0 0.1329935,0 0.049877,0 0.099742,0 0.1329922,0 C 8.7040026,16.324424 8.2717751,15.759205 7.9392927,15.210608 7.4405685,14.346155 7.1247109,13.348708 6.9917174,12.201643 6.8919759,11.30394 6.9418407,10.223372 7.1413345,8.9433151 7.1745816,8.6939542 7.3408246,8.1287333 7.6234339,7.2642796 7.872796,6.4829461 8.2219031,5.7681089 8.6873778,5.1363923 9.2193492,4.3218105 9.984059,3.4906045 10.998131,2.6261503 c 0.615092,-0.5153477 1.479547,-1.113816 2.593363,-1.77878077 0.116371,-0.0664967 0.299234,-0.18286526 0.581843,-0.31585822 0,0.0332484 0,0.0664967 0,0.0831203 0,0.0166248 0,0.0498719 0,0.0664967 v 0.0332484 C 13.774359,1.6619516 13.491748,2.6261504 13.358755,3.5903494 c -0.09974,0.8810783 0.03325,1.6956602 0.398979,2.4603692 0.282611,0.5984681 0.797959,1.2468093 1.52942,1.9117741 0.149617,0.149617 0.482099,0.4820994 0.997447,0.9641989 0.498723,0.4820994 0.897702,0.8644537 1.163688,1.1304404 l 0.415603,0.415602 c 0.432227,-0.6317155 0.681589,-1.3798006 0.731461,-2.2442556 0.06649,-0.9143269 0,-1.9117741 -0.232737,-2.9923412 0,-0.016624 0,-0.066497 0.01662,-0.1828653 0.03325,0.033248 0.216113,0.1662412 0.498724,0.3989789 0.93095,0.8312063 1.629163,1.5792914 2.127886,2.2276315 0.797959,1.0306955 1.379803,2.0115191 1.762158,2.8925977 0.315857,0.764708 0.515347,1.529418 0.631716,2.327375 0.09974,0.698213 0.132993,1.280058 0.116371,1.745534 -0.01663,1.296681 -0.166241,2.377249 -0.415603,3.258327 -0.116371,0.349106 -0.216113,0.631716 -0.315859,0.864454 0.415604,-0.116371 0.781334,-0.265986 1.080569,-0.432228 0.415603,-0.265985 0.748085,-0.615091 0.997447,-1.097191 0.265986,-0.482099 0.4821,-1.030695 0.631717,-1.629163 0,-0.01663 0.01663,-0.04988 0.04988,-0.08312 0.01663,0.03325 0.03325,0.08312 0.08312,0.149618 0.03325,0.06649 0.06649,0.116371 0.08312,0.166241 0.216114,0.515347 0.365731,1.047319 0.448852,1.61254 0.132993,0.631716 0.166241,1.246808 0.132993,1.878524 -0.03325,0.4821 -0.116371,0.930952 -0.265986,1.346555 -0.132993,0.398979 -0.265986,0.714836 -0.365731,0.964198 -0.315857,0.631717 -0.64834,1.180313 -1.030695,1.629164 -0.09974,0.116371 -0.182866,0.216114 -0.232738,0.265986 H 6.1106389 c -0.016629,-0.01663 -0.049877,-0.04988 -0.116371,-0.09974 -0.066494,-0.04988 -0.099741,-0.08312 -0.1329923,-0.116371 C 5.4290505,22.907568 4.9635752,22.275852 4.4980998,21.444647 4.3651068,21.195285 4.1988656,20.812929 4.0160004,20.297582 3.8165109,19.782235 3.700142,19.20039 3.6668938,18.568674 Z"
   id="path1"
   style="stroke-width:1.66242" />
</svg>
