<?xml version="1.0" encoding="UTF-8" standalone="no"?>
<!-- Generator: Adobe Illustrator 22.0.1, SVG Export Plug-In . SVG Version: 6.00 Build 0)  -->

<svg
   version="1.1"
   id="Layer_1"
   x="0px"
   y="0px"
   viewBox="0 0 30 30"
   style="enable-background:new 0 0 30 30;"
   xml:space="preserve"
   sodipodi:docname="flood-symbolic.svg"
   inkscape:version="1.3.2 (091e20ef0f, 2023-11-25, custom)"
   xmlns:inkscape="http://www.inkscape.org/namespaces/inkscape"
   xmlns:sodipodi="http://sodipodi.sourceforge.net/DTD/sodipodi-0.dtd"
   xmlns="http://www.w3.org/2000/svg"
   xmlns:svg="http://www.w3.org/2000/svg"><defs
   id="defs1" /><sodipodi:namedview
   id="namedview1"
   pagecolor="#ffffff"
   bordercolor="#666666"
   borderopacity="1.0"
   inkscape:showpageshadow="2"
   inkscape:pageopacity="0.0"
   inkscape:pagecheckerboard="0"
   inkscape:deskcolor="#d1d1d1"
   inkscape:zoom="14.6"
   inkscape:cx="15"
   inkscape:cy="14.965753"
   inkscape:window-width="1080"
   inkscape:window-height="1884"
   inkscape:window-x="0"
   inkscape:window-y="0"
   inkscape:window-maximized="1"
   inkscape:current-layer="Layer_1" />
<path
   d="m 0.88522356,25.924271 c 0,-0.08508 0.017016,-0.204192 0.034032,-0.357336 v -8.099618 c 0.47644814,0.833784 1.12305634,1.514424 1.95684054,2.024904 0.8337843,0.51048 1.7526485,0.76572 2.7395768,0.76572 1.0039443,0 1.9228086,-0.25524 2.7565929,-0.76572 0.8337842,-0.51048 1.4803924,-1.174104 1.9568402,-2.024904 0.459432,0.833784 1.123056,1.514424 1.95684,2.024904 0.833784,0.51048 1.752649,0.76572 2.756593,0.76572 0.986928,0 1.905793,-0.25524 2.739577,-0.76572 0.833785,-0.51048 1.480393,-1.174104 1.956841,-2.024904 0.476448,0.833784 1.140072,1.514424 1.95684,2.024904 0.833785,0.51048 1.735633,0.76572 2.722561,0.76572 0.986929,0 1.905793,-0.25524 2.739577,-0.76572 0.833784,-0.51048 1.497409,-1.174104 1.956841,-2.024904 v 8.184698 c 0,0.03403 0,0.08508 0,0.136128 0,0.05105 0,0.102096 0,0.136128 0,0.01702 0,0.06806 0,0.119112 0,0.05105 0,0.102096 0,0.136128 -0.05105,0.391368 -0.221208,0.731688 -0.51048,1.02096 -0.289273,0.289273 -0.629593,0.459433 -1.020961,0.510481 -0.03403,0 -0.08508,0 -0.136128,0.01702 -0.05105,0.01702 -0.102096,0.01702 -0.136128,0.01702 -0.01702,0 -0.06806,0 -0.119112,-0.01702 -0.05105,-0.01702 -0.102096,-0.01702 -0.136128,-0.01702 H 2.9611761 c -0.034032,0 -0.068064,0 -0.136128,0.01702 -0.051048,0.01702 -0.102096,0.01702 -0.119112,0.01702 -0.034032,0 -0.08508,0 -0.1361281,-0.01702 C 2.51876,27.710952 2.467712,27.710952 2.450696,27.710952 2.0763439,27.659904 1.7360238,27.50676 1.4637677,27.234503 1.1915116,26.962247 1.0043356,26.655959 0.91925557,26.281607 c -0.017016,-0.153144 -0.034032,-0.272256 -0.034032,-0.357336 z M 10.261042,7.0535212 c 0,-0.272256 0.102096,-0.5104801 0.289272,-0.7146722 l 3.760537,-3.7775531 0.05105,-0.034032 c 0.01702,0 0.01702,0 0.01702,-0.017016 0.01702,0 0.01702,0 0.01702,-0.017016 0.01702,0 0.01702,0 0.01702,-0.017016 h 0.01702 c 0.01702,0 0.01702,0 0.01702,-0.017016 0,-0.017016 0,-0.017016 0.01702,-0.034032 h 0.03403 l 0.01702,-0.017016 h 0.01702 l 0.01702,-0.017016 h 0.01702 l 0.01702,-0.017016 h 0.01702 c 0.01702,-0.017016 0.01702,-0.017016 0.03403,-0.017016 h 0.01702 c 0,-0.017016 0.01702,-0.017016 0.03403,-0.017016 0.01702,-0.017016 0.01702,-0.017016 0.03403,-0.017016 l 0.06806,-0.034032 h 0.01702 c 0.01702,0 0.01702,0 0.01702,-0.017016 h 0.119112 l 0.01702,-0.017016 h 0.204192 c 0.01702,0 0.01702,0 0.03403,0.017016 h 0.102096 c 0,0.017016 0,0.017016 0.01702,0.017016 h 0.03403 c 0.01702,0.017016 0.03403,0.034032 0.05105,0.034032 l 0.03403,0.017016 h 0.03403 l 0.01702,0.017016 h 0.01702 l 0.01702,0.017016 c 0.01702,0 0.01702,0 0.01702,0.017016 h 0.03403 c 0.01702,0 0.01702,0 0.01702,0 0,0 0,0 0.01702,0 0.01702,0.017016 0.01702,0.017016 0.03403,0.017016 0,0.017016 0,0.034032 0.01702,0.034032 l 0.01702,0.017016 h 0.03403 l 0.01702,0.017016 -0.05105,0.034032 0.01702,0.017016 0.03403,0.034032 3.777554,3.7775531 c 0.204192,0.2041921 0.306288,0.4424162 0.306288,0.7146722 0,0.2722561 -0.102096,0.5104802 -0.306288,0.6976563 -0.187176,0.204192 -0.4254,0.306288 -0.697656,0.306288 -0.272256,0 -0.510481,-0.102096 -0.697657,-0.306288 L 16.012451,5.6752248 V 17.416269 c 0,0.272256 -0.102096,0.493464 -0.289272,0.68064 -0.187176,0.187176 -0.4254,0.289272 -0.697656,0.289272 -0.272256,0 -0.51048,-0.102096 -0.714672,-0.289272 -0.204192,-0.187176 -0.289272,-0.4254 -0.289272,-0.68064 V 5.6752248 l -2.075953,2.0759527 c -0.204192,0.204192 -0.442416,0.306288 -0.714672,0.306288 -0.272256,0 -0.51048,-0.102096 -0.697656,-0.306288 -0.17016,-0.1871761 -0.272256,-0.4254002 -0.272256,-0.6976563 z"
   id="path1"
   style="stroke-width:1.7016" />
</svg>
