<?xml version="1.0" encoding="UTF-8" standalone="no"?>
<svg
   xmlns:dc="http://purl.org/dc/elements/1.1/"
   xmlns:cc="http://creativecommons.org/ns#"
   xmlns:rdf="http://www.w3.org/1999/02/22-rdf-syntax-ns#"
   xmlns:svg="http://www.w3.org/2000/svg"
   xmlns="http://www.w3.org/2000/svg"
   xmlns:sodipodi="http://sodipodi.sourceforge.net/DTD/sodipodi-0.dtd"
   xmlns:inkscape="http://www.inkscape.org/namespaces/inkscape"
   version="1.1"
   id="Layer_1"
   x="0px"
   y="0px"
   viewBox="0 0 30 30"
   style="enable-background:new 0 0 30 30;"
   xml:space="preserve"
   sodipodi:docname="hail-symbolic.svg"
   inkscape:version="1.0 (4035a4fb49, 2020-05-01)"><metadata
   id="metadata9"><rdf:RDF><cc:Work
       rdf:about=""><dc:format>image/svg+xml</dc:format><dc:type
         rdf:resource="http://purl.org/dc/dcmitype/StillImage" /></cc:Work></rdf:RDF></metadata><defs
   id="defs7" /><sodipodi:namedview
   inkscape:document-rotation="0"
   pagecolor="#ffffff"
   bordercolor="#666666"
   borderopacity="1"
   objecttolerance="10"
   gridtolerance="10"
   guidetolerance="10"
   inkscape:pageopacity="0"
   inkscape:pageshadow="2"
   inkscape:window-width="1920"
   inkscape:window-height="1036"
   id="namedview5"
   showgrid="false"
   inkscape:zoom="22.2"
   inkscape:cx="15"
   inkscape:cy="15.475603"
   inkscape:window-x="1080"
   inkscape:window-y="370"
   inkscape:window-maximized="1"
   inkscape:current-layer="Layer_1" />
<path
   d="m 1.7770663,14.113505 c 0,1.70356 0.589201,3.163754 1.7804119,4.393391 1.191211,1.229637 2.6385963,1.882882 4.3549647,1.959734 0.1408959,0 0.2177482,-0.07685 0.2177482,-0.217749 v -1.716368 c 0,-0.140896 -0.076852,-0.217748 -0.2177482,-0.217748 C 6.810893,18.263535 5.8886652,17.828034 5.120142,17.008275 4.3516188,16.188518 3.9673572,15.227863 3.9673572,14.113505 c 0,-1.063124 0.3586442,-1.972543 1.0759325,-2.766684 0.7172883,-0.781332 1.6138987,-1.242445 2.6770224,-1.3705326 l 0.6788621,-0.038426 c 0.1665134,0 0.2561744,-0.076851 0.2561744,-0.2433653 L 8.732201,9.015635 C 8.8730969,7.6322933 9.4494893,6.4666999 10.486996,5.544472 11.524502,4.6094355 12.74133,4.1483217 14.137481,4.1483217 c 1.39615,0 2.612979,0.4611138 3.650484,1.3961503 1.037507,0.9350366 1.626708,2.0878213 1.780413,3.471163 l 0.102469,0.7429054 c 0,0.1408965 0.07685,0.2177489 0.230557,0.2177489 h 2.062204 c 1.139976,0 2.126248,0.4098777 2.958815,1.2296367 0.832566,0.819758 1.255254,1.780412 1.255254,2.907579 0,1.114359 -0.384262,2.075013 -1.152785,2.894771 -0.768523,0.819759 -1.70356,1.255255 -2.792301,1.30649 -0.166513,0 -0.256174,0.07685 -0.256174,0.217748 v 1.716368 c 0,0.140897 0.08966,0.217749 0.256174,0.217749 1.114358,-0.02562 2.139057,-0.333027 3.074092,-0.909419 0.935037,-0.576393 1.677943,-1.344916 2.215909,-2.30557 0.537967,-0.960654 0.806949,-2.010969 0.806949,-3.125327 0,-1.139977 -0.281792,-2.203101 -0.858184,-3.163754 C 26.907774,10.001906 26.126442,9.2333824 25.15298,8.6826075 24.179516,8.1318325 23.103584,7.837232 21.963608,7.837232 H 21.553729 C 21.14385,6.1208635 20.234431,4.724713 18.863898,3.6359719 17.493365,2.5472307 15.917893,1.9964558 14.150289,1.9964558 c -1.806029,0 -3.407119,0.5635837 -4.8032695,1.6779423 C 7.950869,4.7887567 7.0542587,6.2233333 6.6571884,7.9653191 5.2354205,8.2983459 4.069827,9.0284428 3.1604079,10.181228 2.2509889,11.334013 1.7770663,12.640502 1.7770663,14.113505 Z m 6.9807521,9.222278 c 0.1152785,0.268983 0.320218,0.473923 0.5892011,0.589201 0.2561744,0.128087 0.5251575,0.140896 0.7941405,0.02562 0.281792,-0.115278 0.461114,-0.307409 0.576393,-0.576392 0.128087,-0.281792 0.140896,-0.550775 0.02562,-0.819758 C 10.6407,22.28547 10.435761,22.106149 10.166778,21.99087 9.910603,21.849974 9.6544286,21.837165 9.3854455,21.95244 9.1164624,22.067718 8.9243316,22.259849 8.7962444,22.55445 8.6553485,22.772198 8.6553485,23.028373 8.7578184,23.335782 Z m 0.8069493,-3.612059 c 0,0.204939 0.064043,0.39707 0.1921308,0.576392 0.1280873,0.192131 0.3330265,0.320219 0.5892015,0.409879 0.243366,0.140896 0.512349,0.153705 0.79414,0.01281 0.281792,-0.128087 0.473923,-0.384262 0.563584,-0.768524 l 1.152785,-4.329347 c 0.07685,-0.320218 0.05123,-0.60201 -0.10247,-0.858184 -0.153705,-0.256175 -0.371453,-0.409879 -0.678862,-0.461114 -0.10247,-0.02562 -0.20494,-0.03843 -0.30741,-0.03843 -0.204939,0 -0.409879,0.06405 -0.602009,0.192131 -0.192131,0.128086 -0.333026,0.320218 -0.409878,0.563583 l -1.1271687,4.342158 c -0.051235,0.204938 -0.064043,0.320217 -0.064043,0.358643 z m 2.3824223,7.160075 c 0,0.153703 0.02562,0.281791 0.07685,0.371452 0.115278,0.281792 0.30741,0.473923 0.576392,0.576393 0.115279,0.06405 0.256175,0.102469 0.422688,0.102469 0.07685,0 0.20494,-0.02562 0.384262,-0.07685 0.281792,-0.10247 0.486732,-0.2946 0.60201,-0.576392 0.128087,-0.281792 0.128087,-0.563584 0,-0.845376 -0.128088,-0.281791 -0.320218,-0.473923 -0.576393,-0.589201 -0.256174,-0.115279 -0.512349,-0.115279 -0.794141,0 -0.243365,0.10247 -0.409878,0.256175 -0.525157,0.461114 -0.115278,0.204939 -0.166513,0.39707 -0.166513,0.576393 z m 0.935036,-3.343077 c 0,0.473923 0.268983,0.781332 0.80695,0.935037 0.140895,0.03842 0.243365,0.05123 0.307408,0.05123 0.192132,0 0.358645,-0.03843 0.486732,-0.10247 0.268983,-0.10247 0.448305,-0.345835 0.537966,-0.730097 l 2.139056,-8.056684 c 0.07685,-0.307409 0.05123,-0.576392 -0.07685,-0.832567 -0.128087,-0.243366 -0.345835,-0.409879 -0.627627,-0.486731 -0.10247,-0.02562 -0.217748,-0.03843 -0.345835,-0.03843 -0.20494,0 -0.409879,0.06405 -0.614818,0.19213 -0.20494,0.128088 -0.333027,0.320218 -0.384262,0.563584 l -2.190291,8.120728 c -0.02562,0.179323 -0.03843,0.30741 -0.03843,0.384261 z m 4.393391,-0.589201 c 0,0.153705 0.02562,0.294601 0.10247,0.40988 0.10247,0.243365 0.2946,0.435496 0.563583,0.563583 0.140896,0.05123 0.294601,0.08967 0.448305,0.08967 0.07685,0 0.20494,-0.02562 0.384262,-0.07685 0.268983,-0.10247 0.473922,-0.294602 0.589201,-0.563585 0.08966,-0.281792 0.08966,-0.550774 -0.01281,-0.806949 -0.10247,-0.256174 -0.281792,-0.448305 -0.537966,-0.576392 -0.294601,-0.140896 -0.563584,-0.153705 -0.832567,-0.03843 -0.268984,0.115278 -0.461114,0.307409 -0.589201,0.60201 -0.07685,0.128087 -0.115278,0.256174 -0.115278,0.39707 z m 0.935037,-3.29184 c 0,0.179322 0.06405,0.371452 0.204938,0.576392 0.140897,0.20494 0.333027,0.345835 0.576393,0.422687 0.204939,0.03843 0.320218,0.06405 0.345836,0.06405 0.115278,0 0.281792,-0.03843 0.473922,-0.128087 0.256175,-0.115279 0.422688,-0.345836 0.512349,-0.666054 l 1.152785,-4.278112 c 0.02562,-0.217748 0.03843,-0.333027 0.03843,-0.333027 0,-0.204939 -0.06405,-0.39707 -0.192131,-0.589201 -0.128087,-0.192131 -0.320218,-0.320217 -0.576392,-0.39707 -0.115279,-0.02562 -0.230557,-0.03843 -0.333027,-0.03843 -0.20494,0 -0.409879,0.06405 -0.60201,0.192132 -0.19213,0.128086 -0.320218,0.320218 -0.39707,0.576392 l -1.152784,4.30373 z"
   id="path2"
   style="stroke-width:1.28087" />
</svg>
