<?xml version="1.0" encoding="UTF-8" standalone="no"?>
<!-- Generator: Adobe Illustrator 22.0.1, SVG Export Plug-In . SVG Version: 6.00 Build 0)  -->

<svg
   version="1.1"
   id="Layer_1"
   x="0px"
   y="0px"
   viewBox="0 0 30 30"
   style="enable-background:new 0 0 30 30;"
   xml:space="preserve"
   sodipodi:docname="hot-symbolic.svg"
   inkscape:version="1.3.2 (091e20ef0f, 2023-11-25, custom)"
   xmlns:inkscape="http://www.inkscape.org/namespaces/inkscape"
   xmlns:sodipodi="http://sodipodi.sourceforge.net/DTD/sodipodi-0.dtd"
   xmlns="http://www.w3.org/2000/svg"
   xmlns:svg="http://www.w3.org/2000/svg"><defs
   id="defs1" /><sodipodi:namedview
   id="namedview1"
   pagecolor="#ffffff"
   bordercolor="#666666"
   borderopacity="1.0"
   inkscape:showpageshadow="2"
   inkscape:pageopacity="0.0"
   inkscape:pagecheckerboard="0"
   inkscape:deskcolor="#d1d1d1"
   inkscape:zoom="14.6"
   inkscape:cx="15"
   inkscape:cy="14.965753"
   inkscape:window-width="1080"
   inkscape:window-height="1884"
   inkscape:window-x="0"
   inkscape:window-y="0"
   inkscape:window-maximized="1"
   inkscape:current-layer="Layer_1" />
<path
   d="m 1.4077104,15.819793 c 0,-0.300382 0.1126433,-0.550701 0.3379298,-0.763471 0.2127707,-0.212771 0.475605,-0.312898 0.7759871,-0.312898 h 2.5782795 c 0.3003821,0 0.5507005,0.100127 0.7509553,0.312898 0.2127706,0.21277 0.312898,0.463089 0.312898,0.763471 0,0.312898 -0.1001274,0.575732 -0.312898,0.788503 -0.2127707,0.212771 -0.4630891,0.312898 -0.7509553,0.312898 H 2.5216273 c -0.312898,0 -0.5757323,-0.100127 -0.788503,-0.312898 C 1.5078378,16.395525 1.4077104,16.132691 1.4077104,15.819793 Z M 5.0623591,7.033617 c 0,-0.2878662 0.1001273,-0.5507004 0.3003821,-0.7759871 C 5.6130596,6.0573752 5.8758939,5.944732 6.1887919,5.944732 c 0.2628343,0 0.5131527,0.1001273 0.7384393,0.3128979 l 1.8148084,1.8523563 c 0.2127706,0.2002547 0.312898,0.4505731 0.312898,0.7509552 0,0.3003821 -0.1001274,0.5507005 -0.312898,0.7509552 -0.2127706,0.2127707 -0.4505731,0.312898 -0.7509552,0.312898 -0.3254139,0 -0.5757323,-0.1001273 -0.7634711,-0.312898 L 5.3502252,7.809604 C 5.1750024,7.5968334 5.0623591,7.3339991 5.0623591,7.033617 Z m 3.2666551,8.786176 c 0,-0.88863 0.1752229,-1.739713 0.5381846,-2.553248 0.3504458,-0.813535 0.8385667,-1.526942 1.4268152,-2.11519 0.600764,-0.588248 1.314172,-1.063853 2.127707,-1.4142992 C 13.235256,9.3866101 14.098854,9.1988713 15,9.1988713 c 1.201529,0 2.30293,0.300382 3.329235,0.9011457 1.026306,0.600765 1.83984,1.401784 2.428089,2.428089 0.588248,1.013789 0.88863,2.11519 0.88863,3.291687 0,0.187739 -0.01252,0.362962 -0.03755,0.525669 -0.350446,-0.212771 -0.750955,-0.312898 -1.214044,-0.312898 -0.300382,0 -0.600764,0.06258 -0.901146,0.187738 0.01252,-0.08761 0.01252,-0.225286 0.01252,-0.400509 0,-1.22656 -0.438058,-2.265382 -1.326688,-3.12898 -0.88863,-0.863599 -1.952483,-1.301656 -3.19156,-1.301656 -1.239076,0 -2.290413,0.438057 -3.179044,1.301656 -0.88863,0.863598 -1.314171,1.90242 -1.314171,3.12898 v 0.225286 c -0.362962,0.02503 -0.713408,0.12516 -1.0513379,0.312898 -0.012516,0.01252 -0.050064,0.03755 -0.1251592,0.08761 -0.075096,0.05006 -0.150191,0.112643 -0.2378025,0.175223 -0.087613,0.06258 -0.1752248,0.137677 -0.2878681,0.237804 C 8.67946,16.958742 8.5668167,17.058869 8.4666894,17.158996 8.366562,16.758487 8.3290142,16.307914 8.3290142,15.819793 Z m 0.037548,4.568311 v -0.187739 c -0.012516,-0.112643 0,-0.250318 0.025032,-0.413025 0.06258,-0.450574 0.2378025,-0.876115 0.5256687,-1.276624 0.1627069,-0.200255 0.2753502,-0.33793 0.3379298,-0.387994 0.012516,-0.02503 0.025032,-0.05006 0.050064,-0.0751 l 0.050064,-0.05006 c 0.037548,-0.01252 0.087611,-0.06258 0.150191,-0.125159 0.025032,-0.02503 0.06258,-0.06258 0.1001274,-0.100128 0.037548,-0.03755 0.075095,-0.05006 0.087611,-0.0751 0.06258,-0.06258 0.1251592,-0.100127 0.1752229,-0.125159 l 0.212771,-0.137675 c 0.175223,-0.112644 0.387994,-0.175223 0.625796,-0.175223 h 0.03755 c 0.125159,0 0.237803,0.01252 0.325414,0.03755 0.03755,0.01252 0.08761,0.03755 0.162707,0.08761 v 0.01252 c 0.175223,0.0751 0.325414,0.200255 0.425541,0.362962 0.100128,0.162706 0.162707,0.337929 0.162707,0.525668 0,0.212771 -0.06258,0.387994 -0.175223,0.525669 -0.07509,0.112643 -0.175222,0.21277 -0.27535,0.287866 -0.02503,0.01252 -0.05006,0.02503 -0.07509,0.03755 -0.02503,0.01252 -0.05006,0.02503 -0.05006,0.02503 l -0.07509,0.05006 c -0.05006,0.03755 -0.08761,0.0751 -0.12516,0.100128 -0.03755,0.02503 -0.07509,0.0751 -0.137675,0.137675 -0.05006,0.06258 -0.100127,0.112643 -0.137675,0.175223 -0.03755,0.05006 -0.07509,0.125159 -0.112643,0.187738 -0.03755,0.0751 -0.06258,0.150191 -0.06258,0.212771 v 0.187739 c 0.05006,0.187739 0.100128,0.33793 0.137675,0.450573 0.08761,0.175223 0.225287,0.350446 0.425542,0.5507 0.01252,0.02503 0.112643,0.12516 0.300382,0.312898 1.076369,0.976242 1.589522,2.02758 1.514426,3.128981 -0.02503,0.375477 -0.112643,0.738439 -0.262834,1.088885 -0.150191,0.350445 -0.325414,0.638311 -0.538185,0.876114 -0.200255,0.237802 -0.362962,0.413025 -0.488121,0.538185 -0.125159,0.112643 -0.225286,0.200254 -0.312898,0.262834 -0.01252,0.01252 -0.03755,0.02503 -0.07509,0.05006 -0.03755,0.02503 -0.0751,0.05006 -0.08761,0.05006 -0.100127,0.05006 -0.187739,0.0751 -0.27535,0.08761 -0.112643,0.01252 -0.187739,0.02503 -0.250318,0.02503 -0.375478,0 -0.67586,-0.12516 -0.8886315,-0.375478 C 9.6181776,27.046558 9.5430821,26.79624 9.5681139,26.52089 c 0.025032,-0.275351 0.162707,-0.500637 0.4130257,-0.663344 l 0.01252,-0.03755 c 0.01252,-0.01252 0.03755,-0.03755 0.06258,-0.05006 0.02503,-0.02503 0.05006,-0.05006 0.08761,-0.0751 0.03755,-0.02503 0.0751,-0.06258 0.100127,-0.100127 0.03755,-0.03755 0.0751,-0.08761 0.100128,-0.12516 0.03755,-0.05006 0.07509,-0.100127 0.100127,-0.150191 0.03755,-0.05006 0.0751,-0.112643 0.100128,-0.175223 0.03755,-0.06258 0.06258,-0.125159 0.08761,-0.187738 0.02503,-0.06258 0.03755,-0.12516 0.06258,-0.200255 0.01251,-0.0751 0.02503,-0.150191 0.02503,-0.212771 0.02503,-0.250318 -0.03755,-0.500637 -0.187738,-0.750955 -0.06258,-0.137675 -0.150191,-0.27535 -0.275351,-0.413025 -0.08761,-0.100128 -0.150191,-0.162707 -0.187738,-0.200255 -0.1126444,-0.137675 -0.1752241,-0.212771 -0.1877401,-0.225287 -0.025032,-0.01252 -0.050064,-0.03755 -0.087611,-0.0751 -0.037548,-0.03755 -0.06258,-0.05006 -0.075095,-0.06258 C 9.5305426,22.640969 9.3928675,22.490778 9.2927401,22.365619 9.142549,22.165364 9.0299058,22.040205 8.992358,21.96511 8.7545555,21.639696 8.5918486,21.314282 8.5042371,20.988868 8.4541731,20.813645 8.4166261,20.67597 8.4041098,20.588358 c 0,-0.02503 -0.012516,-0.06258 -0.025032,-0.100127 -0.012516,-0.03755 -0.012516,-0.06258 -0.012516,-0.100127 z M 13.22274,19.975078 c 0,-0.0751 0,-0.125159 0.01252,-0.175223 0.02503,-0.27535 0.112643,-0.538184 0.250318,-0.801018 0.137675,-0.262835 0.27535,-0.488121 0.438057,-0.663344 0.162707,-0.175223 0.312898,-0.33793 0.475605,-0.475605 0.162707,-0.137675 0.287866,-0.237803 0.387994,-0.312898 l 0.150191,-0.08761 c 0.187739,-0.112643 0.400509,-0.175222 0.625796,-0.175222 0.137675,0 0.262834,0.01252 0.375477,0.03755 0.01252,0 0.02503,0.01252 0.06258,0.02503 0.03755,0.02503 0.06258,0.03755 0.07509,0.05006 0.01252,0 0.02503,0 0.03755,0.01252 0.01252,0 0.03755,0.02503 0.08761,0.06258 0.250318,0.150191 0.400509,0.375478 0.475605,0.67586 0,0.02503 0,0.05006 0,0.08761 0,0.02503 0,0.05006 0,0.06258 0,0.03755 -0.01252,0.08761 -0.02503,0.150191 -0.01252,0.06258 -0.02503,0.100127 -0.02503,0.112643 -0.08761,0.287867 -0.262834,0.488121 -0.525669,0.625796 -0.413025,0.275351 -0.638312,0.563217 -0.663343,0.863599 -0.01252,0.100127 -0.01252,0.187739 0,0.27535 0.02503,0.150191 0.100127,0.312898 0.21277,0.488121 0.137675,0.200255 0.237803,0.33793 0.300382,0.400509 0.200255,0.200255 0.312898,0.312898 0.350446,0.33793 0.150191,0.137675 0.350446,0.350446 0.588248,0.638312 0.67586,0.813535 0.988758,1.652102 0.926178,2.503184 -0.02503,0.375478 -0.112643,0.73844 -0.262834,1.088885 -0.150191,0.350446 -0.325414,0.638312 -0.538185,0.876115 -0.200254,0.225286 -0.375477,0.413025 -0.500636,0.538184 -0.137675,0.12516 -0.237803,0.212771 -0.312898,0.262835 l -0.150191,0.100127 c -0.137676,0.05006 -0.212771,0.0751 -0.262835,0.08761 -0.137675,0.01252 -0.225286,0.02503 -0.250318,0.02503 h -0.03755 c -0.100127,0 -0.175223,-0.01252 -0.237802,-0.02503 -0.02503,0 -0.06258,0 -0.100128,-0.01252 -0.03755,-0.01252 -0.0751,-0.01252 -0.08761,-0.01252 -0.01252,0 -0.02503,0 -0.03755,-0.01252 -0.01252,-0.01252 -0.02503,-0.01252 -0.05006,-0.02503 -0.01252,-0.01252 -0.02503,-0.01252 -0.03755,-0.01252 -0.187739,-0.137675 -0.300382,-0.212771 -0.325414,-0.262834 -0.200255,-0.225287 -0.275351,-0.475605 -0.237803,-0.750956 0.03755,-0.27535 0.175223,-0.488121 0.425542,-0.663343 l 0.03755,-0.05006 c 0.02503,-0.02503 0.06258,-0.06258 0.112644,-0.100127 l 0.150191,-0.150191 0.162707,-0.200255 0.150191,-0.237803 0.112643,-0.27535 0.05006,-0.300382 c 0.01251,-0.500637 -0.275351,-1.026305 -0.863599,-1.589522 -0.237802,-0.212771 -0.413025,-0.387993 -0.5507,-0.538184 -0.688376,-0.863599 -1.001274,-1.677134 -0.95121,-2.478153 z M 13.898599,6.0073115 V 3.4165162 c 0,-0.3003821 0.112644,-0.5632165 0.325414,-0.7759871 0.212771,-0.2127707 0.475605,-0.312898 0.763471,-0.312898 0.300382,0 0.563217,0.1001273 0.775987,0.312898 0.212771,0.2127705 0.312898,0.475605 0.312898,0.7759871 v 2.5907954 c 0,0.3003821 -0.100127,0.5381846 -0.312898,0.7384392 C 15.550701,6.9460055 15.300382,7.033617 15,7.033617 c -0.300382,0 -0.5507,-0.1001274 -0.763471,-0.2878662 -0.225286,-0.2002547 -0.33793,-0.4380572 -0.33793,-0.7384393 z m 4.20535,13.7800285 c 0.02503,-0.275351 0.112643,-0.538185 0.250318,-0.801019 0.137675,-0.262835 0.27535,-0.488121 0.438057,-0.663344 0.162707,-0.175223 0.312898,-0.33793 0.475605,-0.475605 0.150191,-0.137675 0.27535,-0.237803 0.375478,-0.312898 l 0.162707,-0.08761 c 0.02503,-0.02503 0.0751,-0.05006 0.125159,-0.100128 0.137675,-0.05006 0.300382,-0.08761 0.475605,-0.08761 0.425541,0 0.738439,0.162707 0.963726,0.475605 0.06258,0.08761 0.100127,0.175223 0.125159,0.287866 0.01252,0.02503 0.02503,0.06258 0.02503,0.100127 v 0.137675 c 0,0.387994 -0.187739,0.688376 -0.563217,0.876115 -0.400509,0.262834 -0.61328,0.5507 -0.650828,0.863598 -0.05006,0.425542 0.237803,0.926178 0.851083,1.501911 1.101401,0.963725 1.602038,2.015063 1.539458,3.12898 -0.02503,0.375477 -0.112643,0.738439 -0.262834,1.088885 -0.150191,0.350445 -0.33793,0.638312 -0.538185,0.876114 -0.21277,0.237803 -0.375477,0.413026 -0.488121,0.538185 -0.112643,0.125159 -0.225286,0.200254 -0.312898,0.262834 -0.200254,0.125159 -0.375477,0.187739 -0.513152,0.200255 -0.03755,0.01252 -0.100128,0.01252 -0.187739,0.01252 -0.375478,0 -0.663344,-0.12516 -0.863599,-0.375478 -0.187738,-0.212771 -0.262834,-0.463089 -0.237802,-0.738439 0.02503,-0.27535 0.162707,-0.500637 0.400509,-0.663344 0.03755,-0.01252 0.112644,-0.0751 0.225287,-0.175223 0.112643,-0.100127 0.225287,-0.262834 0.362962,-0.475605 0.125159,-0.225286 0.200254,-0.438057 0.21277,-0.663344 0.02503,-0.500636 -0.27535,-1.026305 -0.876114,-1.589521 -0.513153,-0.450574 -0.913662,-0.938694 -1.176497,-1.451847 -0.300382,-0.525669 -0.413025,-1.101401 -0.337929,-1.689649 z M 20.970094,8.8734573 c 0,-0.312898 0.100128,-0.5632164 0.287866,-0.7509552 l 1.827325,-1.8523563 c 0.225286,-0.2127706 0.475605,-0.312898 0.763471,-0.312898 0.300382,0 0.5507,0.1126433 0.763471,0.325414 0.212771,0.2127706 0.325414,0.475605 0.325414,0.7634712 0,0.3128979 -0.112643,0.5757323 -0.325414,0.7759869 l -1.852356,1.8022926 c -0.225287,0.2127707 -0.475605,0.312898 -0.763471,0.312898 -0.287866,0 -0.538185,-0.1001273 -0.725924,-0.312898 C 21.070222,9.4241577 20.970094,9.1613234 20.970094,8.8734573 Z m 2.878662,6.9463357 c 0,-0.27535 0.112643,-0.525669 0.325414,-0.763471 0.200255,-0.212771 0.438057,-0.312898 0.725923,-0.312898 h 2.57828 c 0.300382,0 0.563216,0.112643 0.775987,0.325414 0.21277,0.21277 0.33793,0.463089 0.33793,0.750955 0,0.300382 -0.112644,0.563216 -0.325414,0.775987 -0.225287,0.212771 -0.475605,0.325414 -0.788503,0.325414 h -2.57828 c -0.300382,0 -0.563216,-0.100127 -0.750955,-0.312898 -0.200255,-0.212771 -0.300382,-0.475605 -0.300382,-0.788503 z"
   id="path1"
   style="stroke-width:1.25159" />
</svg>
