<?xml version="1.0" encoding="UTF-8" standalone="no"?>
<!-- Generator: Adobe Illustrator 22.0.1, SVG Export Plug-In . SVG Version: 6.00 Build 0)  -->

<svg
   version="1.1"
   id="Layer_1"
   x="0px"
   y="0px"
   viewBox="0 0 30 30"
   style="enable-background:new 0 0 30 30;"
   xml:space="preserve"
   sodipodi:docname="lightning-symbolic.svg"
   inkscape:version="1.3.2 (091e20ef0f, 2023-11-25, custom)"
   xmlns:inkscape="http://www.inkscape.org/namespaces/inkscape"
   xmlns:sodipodi="http://sodipodi.sourceforge.net/DTD/sodipodi-0.dtd"
   xmlns="http://www.w3.org/2000/svg"
   xmlns:svg="http://www.w3.org/2000/svg"><defs
   id="defs1" /><sodipodi:namedview
   id="namedview1"
   pagecolor="#ffffff"
   bordercolor="#666666"
   borderopacity="1.0"
   inkscape:showpageshadow="2"
   inkscape:pageopacity="0.0"
   inkscape:pagecheckerboard="0"
   inkscape:deskcolor="#d1d1d1"
   inkscape:zoom="14.6"
   inkscape:cx="15"
   inkscape:cy="14.965753"
   inkscape:window-width="1080"
   inkscape:window-height="1884"
   inkscape:window-x="0"
   inkscape:window-y="0"
   inkscape:window-maximized="1"
   inkscape:current-layer="Layer_1" />
<path
   d="M 4.8425717,28.456749 H 5.406887 l 9.9551,-14.730076 c 0.130227,-0.260453 0.05788,-0.390679 -0.217044,-0.390679 H 11.03557 L 15.361987,5.4500492 C 15.492214,5.189596 15.390927,5.0593694 15.072595,5.0593694 H 9.5596687 c -0.1591658,0 -0.2893924,0.086818 -0.419619,0.2604532 L 5.1174945,16.027343 c -0.028939,0.260454 0.057878,0.39068 0.2749229,0.39068 H 9.3715636 Z M 17.141751,19.297478 h 0.39068 L 25.085574,8.1992776 c 0.07235,-0.1157571 0.08682,-0.2170444 0.05788,-0.2893925 -0.02894,-0.072348 -0.115757,-0.1012873 -0.245984,-0.1012873 h -3.03862 l 3.154377,-5.831258 c 0.173636,-0.2893925 0.08682,-0.4340887 -0.260453,-0.4340887 h -3.964677 c -0.188105,0 -0.332801,0.086818 -0.434088,0.2749228 l -3.009682,7.9293533 c -0.04341,0.1302266 -0.04341,0.231514 0.01447,0.3038618 0.05788,0.07235 0.144697,0.101288 0.274924,0.101288 h 2.951803 z"
   id="path1"
   style="stroke-width:1.44696" />
</svg>
