<?xml version="1.0" encoding="UTF-8" standalone="no"?>
<!-- Generator: Adobe Illustrator 15.1.0, SVG Export Plug-In . SVG Version: 6.00 Build 0)  -->

<svg
   xmlns:dc="http://purl.org/dc/elements/1.1/"
   xmlns:cc="http://creativecommons.org/ns#"
   xmlns:rdf="http://www.w3.org/1999/02/22-rdf-syntax-ns#"
   xmlns:svg="http://www.w3.org/2000/svg"
   xmlns="http://www.w3.org/2000/svg"
   xmlns:sodipodi="http://sodipodi.sourceforge.net/DTD/sodipodi-0.dtd"
   xmlns:inkscape="http://www.inkscape.org/namespaces/inkscape"
   version="1.1"
   id="Layer_1"
   x="0px"
   y="0px"
   width="100px"
   height="100px"
   viewBox="0 0 100 100"
   enable-background="new 0 0 100 100"
   xml:space="preserve"
   sodipodi:docname="Moon-symbolic.svg"
   inkscape:version="0.92.4 5da689c313, 2019-01-14"><metadata
   id="metadata9"><rdf:RDF><cc:Work
       rdf:about=""><dc:format>image/svg+xml</dc:format><dc:type
         rdf:resource="http://purl.org/dc/dcmitype/StillImage" /></cc:Work></rdf:RDF></metadata><defs
   id="defs7" /><sodipodi:namedview
   pagecolor="#ffffff"
   bordercolor="#666666"
   borderopacity="1"
   objecttolerance="10"
   gridtolerance="10"
   guidetolerance="10"
   inkscape:pageopacity="0"
   inkscape:pageshadow="2"
   inkscape:window-width="1078"
   inkscape:window-height="936"
   id="namedview5"
   showgrid="false"
   inkscape:zoom="2.36"
   inkscape:cx="50"
   inkscape:cy="50"
   inkscape:window-x="0"
   inkscape:window-y="959"
   inkscape:window-maximized="0"
   inkscape:current-layer="Layer_1" />
<path
   d="m 50.625619,81.489527 c -16.5675,0 -29.9975,-13.43 -29.9975,-29.995 0,-16.5675 13.43,-29.997501 29.9975,-29.997501 1.8875,0 3.7275,0.195 5.5175,0.53 -0.33,1.44 -0.52,2.932501 -0.52,4.470001 0,11.045 8.955,19.9975 20,19.9975 1.5375,0 3.03,-0.19 4.47,-0.52 0.3325,1.7925 0.527496,3.63 0.527496,5.52 0,16.565 -13.429996,29.995 -29.994996,29.995 z m -4.47,-49.475 c -8.89,2.0325 -15.5275,9.9725 -15.5275,19.48 0,11.0425 8.9525,19.9975 19.9975,19.9975 9.505,0 17.445,-6.6375 19.4775,-15.5275 -12.135,-2.26 -21.69,-11.815 -23.9475,-23.95 z"
   id="path2"
   inkscape:connector-curvature="0"
   style="clip-rule:evenodd;fill-rule:evenodd;stroke-width:2.5" />
<path
   style="clip-rule:evenodd;fill-rule:evenodd;stroke-width:2.5"
   inkscape:connector-curvature="0"
   id="path7"
   d="m 50.625619,81.489527 c -16.5675,0 -29.9975,-13.43 -29.9975,-29.995 0,-16.5675 13.43,-29.997501 29.9975,-29.997501 1.8875,0 3.7275,0.195 5.5175,0.53 -0.33,1.44 -0.52,2.932501 -0.52,4.470001 0,11.045 8.955,19.9975 20,19.9975 1.5375,0 3.03,-0.19 4.47,-0.52 0.3325,1.7925 0.527496,3.63 0.527496,5.52 0,16.565 -13.429996,29.995 -29.994996,29.995 z m -4.47,-49.475 c -8.89,2.0325 -15.5275,9.9725 -15.5275,19.48 0,11.0425 8.9525,19.9975 19.9975,19.9975 9.505,0 17.445,-6.6375 19.4775,-15.5275 -12.135,-2.26 -21.69,-11.815 -23.9475,-23.95 z" /></svg>