<?xml version="1.0" encoding="UTF-8" standalone="no"?>
<!-- Generator: Adobe Illustrator 15.1.0, SVG Export Plug-In . SVG Version: 6.00 Build 0)  -->

<svg
   xmlns:dc="http://purl.org/dc/elements/1.1/"
   xmlns:cc="http://creativecommons.org/ns#"
   xmlns:rdf="http://www.w3.org/1999/02/22-rdf-syntax-ns#"
   xmlns:svg="http://www.w3.org/2000/svg"
   xmlns="http://www.w3.org/2000/svg"
   xmlns:sodipodi="http://sodipodi.sourceforge.net/DTD/sodipodi-0.dtd"
   xmlns:inkscape="http://www.inkscape.org/namespaces/inkscape"
   version="1.1"
   id="Layer_1"
   x="0px"
   y="0px"
   width="100px"
   height="100px"
   viewBox="0 0 100 100"
   enable-background="new 0 0 100 100"
   xml:space="preserve"
   sodipodi:docname="Moon-symbolic.svg"
   inkscape:version="0.92.4 5da689c313, 2019-01-14"><metadata
   id="metadata9"><rdf:RDF><cc:Work
       rdf:about=""><dc:format>image/svg+xml</dc:format><dc:type
         rdf:resource="http://purl.org/dc/dcmitype/StillImage" /></cc:Work></rdf:RDF></metadata><defs
   id="defs7" /><sodipodi:namedview
   pagecolor="#ffffff"
   bordercolor="#666666"
   borderopacity="1"
   objecttolerance="10"
   gridtolerance="10"
   guidetolerance="10"
   inkscape:pageopacity="0"
   inkscape:pageshadow="2"
   inkscape:window-width="640"
   inkscape:window-height="480"
   id="namedview5"
   showgrid="false"
   inkscape:zoom="2.36"
   inkscape:cx="50"
   inkscape:cy="50"
   inkscape:window-x="0"
   inkscape:window-y="0"
   inkscape:window-maximized="0"
   inkscape:current-layer="Layer_1" />
<path
   d="m 50.213446,100.13359 c -27.572999,0 -49.92431041,-22.351308 -49.92431041,-49.920144 0,-27.572999 22.35131141,-49.92431041 49.92431041,-49.92431041 3.141333,0 6.203612,0.32453505 9.182677,0.88206961 -0.549213,2.3965666 -0.865426,4.8805079 -0.865426,7.439342 0,18.3819978 14.903648,33.2814868 33.285646,33.2814868 2.558834,0 5.042775,-0.316213 7.439342,-0.865427 0.553374,2.983227 0.877905,6.041345 0.877905,9.186839 0,27.568836 -22.351308,49.920144 -49.920144,49.920144 z M 42.774104,17.793225 C 27.978633,21.175879 16.931959,34.39028 16.931959,50.213446 c 0,18.377837 14.899487,33.281485 33.281487,33.281485 15.819003,0 29.033405,-11.046674 32.416058,-25.842143 C 62.433439,53.89151 46.531221,37.989291 42.774104,17.793225 Z"
   id="path2"
   inkscape:connector-curvature="0"
   style="clip-rule:evenodd;fill-rule:evenodd;stroke-width:4.16070557" />
</svg>