<?xml version="1.0" encoding="utf-8"?>
<!-- Generator: Adobe Illustrator 15.1.0, SVG Export Plug-In . SVG Version: 6.00 Build 0)  -->
<!DOCTYPE svg PUBLIC "-//W3C//DTD SVG 1.1//EN" "http://www.w3.org/Graphics/SVG/1.1/DTD/svg11.dtd">
<svg version="1.1" id="Layer_1" xmlns="http://www.w3.org/2000/svg" xmlns:xlink="http://www.w3.org/1999/xlink" x="0px" y="0px"
	 width="100px" height="100px" viewBox="0 0 100 100" enable-background="new 0 0 100 100" xml:space="preserve">
<path fill-rule="evenodd" clip-rule="evenodd" d="M50,61.998c-6.626,0-11.999-5.371-11.999-11.998S43.374,38.001,50,38.001
	c6.627,0,11.999,5.372,11.999,11.999S56.627,61.998,50,61.998z M52,42.264c-0.641-0.166-1.308-0.262-2-0.262
	c-4.417,0-7.999,3.58-7.999,7.998s3.582,7.998,7.999,7.998c0.692,0,1.359-0.096,2-0.262c-3.448-0.889-5.999-4.01-5.999-7.736
	S48.552,43.152,52,42.264z"/>
</svg>
