<?xml version="1.0" encoding="utf-8"?>
<!-- Generator: Adobe Illustrator 15.1.0, SVG Export Plug-In . SVG Version: 6.00 Build 0)  -->
<!DOCTYPE svg PUBLIC "-//W3C//DTD SVG 1.1//EN" "http://www.w3.org/Graphics/SVG/1.1/DTD/svg11.dtd">
<svg version="1.1" id="Layer_1" xmlns="http://www.w3.org/2000/svg" xmlns:xlink="http://www.w3.org/1999/xlink" x="0px" y="0px"
	 width="100px" height="100px" viewBox="0 0 100 100" enable-background="new 0 0 100 100" xml:space="preserve">
<path fill-rule="evenodd" clip-rule="evenodd" d="M50,61.999c6.627,0,11.999-5.373,11.999-11.998c0-6.627-5.372-12-11.999-12
	c-6.626,0-11.998,5.373-11.998,12C38.002,56.626,43.374,61.999,50,61.999z M48.001,42.263c0.64-0.164,1.308-0.262,1.999-0.262
	c4.418,0,7.999,3.582,7.999,8c0,4.416-3.581,7.998-7.999,7.998c-0.691,0-1.359-0.098-1.999-0.262C51.449,56.849,54,53.726,54,50.001
	C54,46.274,51.449,43.153,48.001,42.263z"/>
</svg>
