<?xml version="1.0" encoding="UTF-8" standalone="no"?>
<svg
   xmlns:dc="http://purl.org/dc/elements/1.1/"
   xmlns:cc="http://creativecommons.org/ns#"
   xmlns:rdf="http://www.w3.org/1999/02/22-rdf-syntax-ns#"
   xmlns:svg="http://www.w3.org/2000/svg"
   xmlns="http://www.w3.org/2000/svg"
   xmlns:sodipodi="http://sodipodi.sourceforge.net/DTD/sodipodi-0.dtd"
   xmlns:inkscape="http://www.inkscape.org/namespaces/inkscape"
   inkscape:version="1.0 (4035a4fb49, 2020-05-01)"
   sodipodi:docname="night-clear-symbolic.svg"
   xml:space="preserve"
   style="enable-background:new 0 0 30 30;"
   viewBox="0 0 30 30"
   y="0px"
   x="0px"
   id="Layer_1"
   version="1.1"><metadata
   id="metadata9"><rdf:RDF><cc:Work
       rdf:about=""><dc:format>image/svg+xml</dc:format><dc:type
         rdf:resource="http://purl.org/dc/dcmitype/StillImage" /></cc:Work></rdf:RDF></metadata><defs
   id="defs7" /><sodipodi:namedview
   inkscape:current-layer="Layer_1"
   inkscape:window-maximized="1"
   inkscape:window-y="370"
   inkscape:window-x="1080"
   inkscape:cy="15"
   inkscape:cx="15"
   inkscape:zoom="22.2"
   showgrid="false"
   id="namedview5"
   inkscape:window-height="1036"
   inkscape:window-width="1920"
   inkscape:pageshadow="2"
   inkscape:pageopacity="0"
   guidetolerance="10"
   gridtolerance="10"
   objecttolerance="10"
   borderopacity="1"
   bordercolor="#666666"
   pagecolor="#ffffff" />
<path
   d="m 16.205078,4.90625 c -1.431067,0.044729 -2.911472,0.035319 -4.273303,0.5717754 -3.4126369,1.1526967 -6.0302654,4.2703284 -6.486007,7.8339876 -0.6104175,3.996017 1.5433382,8.311883 5.204534,10.040671 3.711999,1.878068 8.559386,1.119221 11.391623,-1.967082 1.899971,-1.963864 2.792834,-4.745634 2.669069,-7.44772 0.119763,-0.402314 -0.133233,-0.861406 -0.5899,-0.652726 -2.520771,0.03244 -5.028462,-1.245067 -6.353572,-3.4120827 C 16.882817,8.4915182 16.600475,6.815302 16.645564,5.2025071 16.634789,4.9689161 16.427014,4.8294066 16.205078,4.90625 Z m -1.037109,1.7304688 c 0.258283,3.6639972 2.992379,6.8601372 6.509765,7.8535152 0.46735,0.258101 1.368124,0.09989 1.539063,0.691407 -0.438075,3.941695 -3.936705,7.352778 -7.931641,7.484375 C 11.739499,22.767367 8.3119869,20.236218 7.431431,16.788229 6.3950862,13.062002 8.3914724,8.7626905 11.940172,7.1961484 12.939704,6.7218988 14.042633,6.5044443 15.142578,6.4492188 l 0.01342,0.099096 z"
   style="stroke-width:1.42514"
   id="path2" />
</svg>
