<?xml version="1.0" encoding="UTF-8" standalone="no"?>
<svg
   xmlns:dc="http://purl.org/dc/elements/1.1/"
   xmlns:cc="http://creativecommons.org/ns#"
   xmlns:rdf="http://www.w3.org/1999/02/22-rdf-syntax-ns#"
   xmlns:svg="http://www.w3.org/2000/svg"
   xmlns="http://www.w3.org/2000/svg"
   xmlns:sodipodi="http://sodipodi.sourceforge.net/DTD/sodipodi-0.dtd"
   xmlns:inkscape="http://www.inkscape.org/namespaces/inkscape"
   inkscape:version="1.0 (4035a4fb49, 2020-05-01)"
   sodipodi:docname="night-alt-cloudy-symbolic.svg"
   xml:space="preserve"
   style="enable-background:new 0 0 30 30;"
   viewBox="0 0 30 30"
   y="0px"
   x="0px"
   id="Layer_1"
   version="1.1"><metadata
   id="metadata9"><rdf:RDF><cc:Work
       rdf:about=""><dc:format>image/svg+xml</dc:format><dc:type
         rdf:resource="http://purl.org/dc/dcmitype/StillImage" /></cc:Work></rdf:RDF></metadata><defs
   id="defs7" /><sodipodi:namedview
   inkscape:current-layer="Layer_1"
   inkscape:window-maximized="0"
   inkscape:window-y="457"
   inkscape:window-x="166"
   inkscape:cy="15"
   inkscape:cx="15"
   inkscape:zoom="22.2"
   showgrid="false"
   id="namedview5"
   inkscape:window-height="955"
   inkscape:window-width="911"
   inkscape:pageshadow="2"
   inkscape:pageopacity="0"
   guidetolerance="10"
   gridtolerance="10"
   objecttolerance="10"
   borderopacity="1"
   bordercolor="#666666"
   pagecolor="#ffffff" />
<path
   style="stroke-width:1.12904"
   id="path2"
   d="m 2.8159303,17.892011 c 0,-1.309683 0.3951629,-2.4613 1.1967791,-3.477433 0.8016161,-1.016133 1.8290396,-1.659684 3.0935609,-1.941944 0.2596785,-1.162908 0.7903258,-2.179041 1.580652,-3.0483988 0.790325,-0.8693583 1.7500067,-1.4903286 2.8564627,-1.8629107 0.700003,-0.2370978 1.422586,-0.3612918 2.179041,-0.3612918 0.91452,0 1.806459,0.1806459 2.653236,0.5419376 0.316131,-0.5306473 0.688713,-0.9935524 1.117747,-1.3774249 0.429034,-0.3838725 0.869358,-0.6887125 1.320973,-0.8919391 0.451615,-0.2032266 0.90323,-0.3612918 1.332264,-0.4629051 0.429034,-0.1016133 0.858068,-0.1467748 1.264521,-0.1467748 0.429034,0 0.891939,0.056452 1.388715,0.1806459 l 0.92581,0.2822592 c 0.158065,0.067742 0.203227,0.1467748 0.158065,0.2483881 l -0.158065,0.6774221 c -0.07903,0.3500014 -0.112903,0.6774221 -0.112903,0.9709717 0,0.3500014 0.05645,0.7112932 0.169355,1.072585 0.112904,0.3612918 0.270969,0.7112932 0.496776,1.0612946 0.214517,0.3500014 0.519357,0.654841 0.90323,0.9371 0.383872,0.282259 0.812906,0.496776 1.298392,0.643551 l 0.700003,0.248388 c 0.112904,0.03387 0.169356,0.09032 0.169356,0.180646 0,0.02258 -0.01129,0.04516 -0.02258,0.07903 l -0.203227,0.756454 c -0.30484,1.21936 -0.880649,2.179042 -1.693555,2.901625 0.451615,0.790326 0.700003,1.637104 0.733874,2.529043 0.01129,0.05645 0.01129,0.135484 0.01129,0.259678 0,1.004843 -0.248388,1.941944 -0.756454,2.800012 -0.496777,0.858068 -1.185489,1.53549 -2.032267,2.032266 -0.858068,0.496776 -1.795168,0.756455 -2.800011,0.756455 H 8.3820819 c -1.0048428,0 -1.9419433,-0.248389 -2.8000113,-0.756455 C 4.7240026,22.216222 4.0578708,21.5388 3.5610946,20.692023 3.0643184,19.845245 2.8159303,18.908144 2.8159303,17.892011 Z m 1.930653,0 c 0,1.004843 0.3612918,1.874201 1.0838754,2.608075 0.7225835,0.733874 1.5693612,1.106456 2.5516232,1.106456 H 20.58697 c 1.004843,0 1.862911,-0.361291 2.574204,-1.095165 0.711293,-0.733874 1.072585,-1.603233 1.072585,-2.619366 0,-0.993552 -0.361292,-1.84033 -1.083875,-2.551623 C 22.4273,14.629095 21.569232,14.267803 20.57568,14.267803 H 18.565994 L 18.45309,13.421025 C 18.340187,12.280698 17.865991,11.298436 17.030504,10.49682 16.195017,9.6952044 15.201464,9.2435893 14.061137,9.141976 c -0.03387,0 -0.09032,0 -0.169356,-0.01129 -0.07903,-0.01129 -0.124194,-0.01129 -0.169355,-0.01129 -0.575809,0 -1.151618,0.1129037 -1.738717,0.3274207 v -0.022581 c -0.824197,0.3161297 -1.5242,0.8354863 -2.0774277,1.5467793 -0.564518,0.711294 -0.903229,1.5242 -1.016133,2.45001 l -0.07903,0.812907 -0.7677454,0.03387 c -0.948393,0.112905 -1.7387188,0.508067 -2.3709794,1.19678 -0.6322606,0.688712 -0.9258102,1.490329 -0.9258102,2.427429 z M 18.012766,8.7355228 c 1.196779,1.0274236 1.941943,2.2242022 2.224202,3.5903372 h 0.361292 c 1.400006,0 2.596785,0.440324 3.579047,1.332263 0.372582,-0.350001 0.654841,-0.756455 0.858068,-1.208069 -1.027423,-0.485486 -1.84033,-1.230651 -2.43872,-2.224203 C 22.009556,9.232299 21.704716,8.1822947 21.704716,7.087129 V 6.8161601 c -0.05645,-0.01129 -0.146774,-0.01129 -0.270968,-0.01129 -0.654842,-0.01129 -1.298393,0.1467748 -1.919363,0.4967762 -0.62097,0.338711 -1.129037,0.8129065 -1.501619,1.4338765 z" />
</svg>
