<?xml version="1.0" encoding="UTF-8" standalone="no"?>
<!-- Generator: Adobe Illustrator 22.0.1, SVG Export Plug-In . SVG Version: 6.00 Build 0)  -->

<svg
   version="1.1"
   id="Layer_1"
   x="0px"
   y="0px"
   viewBox="0 0 30 30"
   style="enable-background:new 0 0 30 30;"
   xml:space="preserve"
   sodipodi:docname="raindrops-symbolic.svg"
   inkscape:version="1.3.2 (091e20ef0f, 2023-11-25, custom)"
   xmlns:inkscape="http://www.inkscape.org/namespaces/inkscape"
   xmlns:sodipodi="http://sodipodi.sourceforge.net/DTD/sodipodi-0.dtd"
   xmlns="http://www.w3.org/2000/svg"
   xmlns:svg="http://www.w3.org/2000/svg"><defs
   id="defs1" /><sodipodi:namedview
   id="namedview1"
   pagecolor="#ffffff"
   bordercolor="#666666"
   borderopacity="1.0"
   inkscape:showpageshadow="2"
   inkscape:pageopacity="0.0"
   inkscape:pagecheckerboard="0"
   inkscape:deskcolor="#d1d1d1"
   inkscape:zoom="14.6"
   inkscape:cx="15"
   inkscape:cy="14.965753"
   inkscape:window-width="1080"
   inkscape:window-height="1884"
   inkscape:window-x="0"
   inkscape:window-y="0"
   inkscape:window-maximized="1"
   inkscape:current-layer="Layer_1" />
<path
   d="m 5.1003114,12.350963 c 0,-0.646713 0.3233567,-1.467542 0.9451964,-2.5122325 C 6.6673475,8.7940399 7.2891873,7.9234641 7.8612798,7.2518772 8.0105214,7.0777621 8.2095102,6.8290262 8.4333725,6.5554167 8.6572348,6.2818072 8.8064762,6.1325658 8.8313498,6.1076921 l 0.920323,1.0695643 c 0.6964602,0.7710813 1.3183002,1.6416569 1.8903932,2.6614741 0.572092,1.0198165 0.870575,1.8406455 0.870575,2.5122325 0,1.019817 -0.34823,1.915266 -1.069564,2.6366 -0.696461,0.721334 -1.5670363,1.094438 -2.6117271,1.094438 -1.0198171,0 -1.9152664,-0.373104 -2.6366005,-1.094438 -0.7213341,-0.746207 -1.0944379,-1.616783 -1.094438,-2.6366 z m 7.7605596,10.32254 c 0,-0.721335 0.198989,-1.542163 0.596967,-2.512233 0.397977,-0.945196 0.895449,-1.840646 1.492415,-2.6366 1.144186,-1.517289 2.21375,-2.785843 3.258441,-3.80566 0.09949,-0.07462 0.323356,-0.273609 0.646713,-0.596966 l 0.62184,0.596966 c 0.97007,0.920323 2.064508,2.188876 3.283314,3.780786 0.646713,0.845702 1.144185,1.741151 1.542162,2.686348 0.397978,0.945196 0.596966,1.766024 0.596966,2.487359 0,1.716276 -0.572092,3.134071 -1.741151,4.303129 -1.169059,1.169059 -2.611727,1.741152 -4.303131,1.741152 -1.691404,0 -3.109199,-0.596967 -4.278257,-1.766025 C 13.40809,25.7827 12.860871,24.340032 12.860871,22.673503 Z M 16.641657,5.510726 c 0,-1.0695643 0.820829,-2.4873589 2.487359,-4.2285102 l 0.62184,0.6964605 c 0.472598,0.547219 0.895449,1.1441851 1.268553,1.8406456 0.373104,0.6715869 0.572093,1.2436795 0.572093,1.6914041 0,0.6964604 -0.248736,1.2436794 -0.721334,1.7162777 -0.472598,0.4477245 -1.044691,0.6964604 -1.741152,0.6964604 -0.721334,0 -1.3183,-0.2238623 -1.790898,-0.6964604 C 16.890393,6.7544054 16.641657,6.1823129 16.641657,5.510726 Z"
   id="path1"
   style="stroke-width:2.48736" />
</svg>
