<?xml version="1.0" encoding="UTF-8" standalone="no"?>
<svg
   xmlns:dc="http://purl.org/dc/elements/1.1/"
   xmlns:cc="http://creativecommons.org/ns#"
   xmlns:rdf="http://www.w3.org/1999/02/22-rdf-syntax-ns#"
   xmlns:svg="http://www.w3.org/2000/svg"
   xmlns="http://www.w3.org/2000/svg"
   xmlns:sodipodi="http://sodipodi.sourceforge.net/DTD/sodipodi-0.dtd"
   xmlns:inkscape="http://www.inkscape.org/namespaces/inkscape"
   inkscape:version="1.0 (4035a4fb49, 2020-05-01)"
   sodipodi:docname="rain-mix-symbolic.svg"
   xml:space="preserve"
   style="enable-background:new 0 0 30 30;"
   viewBox="0 0 30 30"
   y="0px"
   x="0px"
   id="Layer_1"
   version="1.1"><metadata
   id="metadata9"><rdf:RDF><cc:Work
       rdf:about=""><dc:format>image/svg+xml</dc:format><dc:type
         rdf:resource="http://purl.org/dc/dcmitype/StillImage" /></cc:Work></rdf:RDF></metadata><defs
   id="defs7" /><sodipodi:namedview
   inkscape:current-layer="Layer_1"
   inkscape:window-maximized="0"
   inkscape:window-y="0"
   inkscape:window-x="0"
   inkscape:cy="15"
   inkscape:cx="15"
   inkscape:zoom="22.2"
   showgrid="false"
   id="namedview5"
   inkscape:window-height="1054"
   inkscape:window-width="1010"
   inkscape:pageshadow="2"
   inkscape:pageopacity="0"
   guidetolerance="10"
   gridtolerance="10"
   objecttolerance="10"
   borderopacity="1"
   bordercolor="#666666"
   pagecolor="#ffffff" />
<path
   style="stroke-width:1.19607"
   id="path2"
   d="m 2.5910642,14.195377 c 0,1.578804 0.5621501,2.942317 1.6744895,4.078578 1.1123396,1.148221 2.4638918,1.746253 4.0426967,1.794096 0.1435276,0 0.2152914,-0.07176 0.2152914,-0.20333 v -1.590766 c 0,-0.143528 -0.071761,-0.215292 -0.2152914,-0.215292 C 7.3035562,18.010821 6.4304295,17.60416 5.7127911,16.838679 4.9951527,16.073198 4.6243729,15.200071 4.6243729,14.183417 c 0,-1.004695 0.3348979,-1.877821 1.0166544,-2.619381 0.6817565,-0.741559 1.5070406,-1.160182 2.5117343,-1.243907 l 0.6339142,-0.08372 c 0.1435277,0 0.2272517,-0.07175 0.2272517,-0.215291 l 0.083721,-0.5980355 c 0.1196062,-1.3037092 0.6578341,-2.404089 1.6266465,-3.2891762 0.968811,-0.8850871 2.105072,-1.3276307 3.420743,-1.3276307 1.291748,0 2.42801,0.4425436 3.396821,1.3156705 0.968812,0.8731261 1.530963,1.9495846 1.67449,3.2413335 L 19.300069,10.057 c 0,0.143528 0.07176,0.215291 0.227253,0.215291 h 1.913702 c 1.076457,0 1.997426,0.38274 2.774868,1.160182 0.765481,0.765481 1.160183,1.686451 1.160183,2.750948 0,1.004693 -0.35882,1.889781 -1.076458,2.655262 -0.717639,0.753519 -1.590766,1.160181 -2.60742,1.219985 -0.155488,0 -0.239214,0.07175 -0.239214,0.215291 v 1.590766 c 0,0.131566 0.08372,0.20333 0.239214,0.20333 1.590765,-0.04784 2.942318,-0.645875 4.042696,-1.794096 1.100379,-1.148222 1.650569,-2.499774 1.650569,-4.090538 0,-1.064497 -0.263135,-2.057231 -0.801364,-2.96624 C 26.057831,10.308172 25.328233,9.5905343 24.419224,9.0642661 23.510215,8.537998 22.517482,8.274864 21.452984,8.274864 H 21.082213 C 20.687512,6.6721343 19.850267,5.3684244 18.558518,4.3398094 17.278729,3.323155 15.807571,2.8088476 14.157002,2.8088476 c -1.68645,0 -3.18153,0.5262682 -4.4852387,1.5668438 C 8.3680531,5.416267 7.5308083,6.7558583 7.1600284,8.3825061 5.8084762,8.729364 4.7200581,9.4350423 3.8708526,10.499539 3.0216472,11.564036 2.5910642,12.807942 2.5910642,14.195377 Z M 9.04981,22.591746 c 0,0.20333 0.0598,0.406661 0.1913702,0.609992 0.1315665,0.203332 0.3229367,0.334898 0.5621494,0.418623 0.2750954,0.08372 0.5262674,0.07175 0.7654814,-0.04784 0.227252,-0.107646 0.394701,-0.334897 0.466465,-0.669796 l 0.167448,-0.729599 c 0.0598,-0.275094 0.02393,-0.526268 -0.107646,-0.753519 -0.131566,-0.227254 -0.334898,-0.394702 -0.621953,-0.478426 -0.263134,-0.08372 -0.5262686,-0.04784 -0.7654802,0.09568 -0.2392131,0.143528 -0.406662,0.358818 -0.4784258,0.633914 L 9.06177,22.376452 c 0,0.03588 -0.01196,0.107645 -0.01196,0.215292 z m 0.9090079,-3.468585 c 0,0.251173 0.09568,0.478425 0.2990161,0.681755 0.19137,0.203332 0.406661,0.299017 0.669795,0.299017 0.287056,0 0.526268,-0.09568 0.717639,-0.287055 0.19137,-0.191371 0.287055,-0.418623 0.287055,-0.705679 0,-0.275094 -0.09568,-0.514306 -0.287055,-0.705677 -0.191371,-0.191371 -0.430583,-0.287056 -0.717639,-0.287056 -0.275094,0 -0.502346,0.09568 -0.693717,0.275095 -0.179409,0.215292 -0.2750941,0.454505 -0.2750941,0.7296 z m 0.7295981,-2.715066 c -0.01196,0.19137 0.03588,0.370779 0.167449,0.538228 0.119607,0.17941 0.310977,0.299017 0.574111,0.382741 0.251175,0.07176 0.490387,0.04784 0.741559,-0.08372 0.251174,-0.131567 0.406663,-0.334897 0.490387,-0.609993 l 0.334899,-1.076458 c 0.08372,-0.287054 0.0598,-0.550189 -0.08372,-0.77744 -0.143527,-0.227253 -0.358818,-0.38274 -0.645874,-0.466466 -0.263134,-0.08372 -0.514306,-0.0598 -0.75352,0.08372 -0.239213,0.131567 -0.406661,0.334898 -0.490386,0.598031 l -0.287056,1.10038 c 0,0.02393 -0.01196,0.07177 -0.02393,0.143528 -0.01196,0.0598 -0.02392,0.119605 -0.02392,0.167448 z m 1.399396,9.91537 c 0,0.215292 0.0598,0.406662 0.179409,0.598032 0.119606,0.19137 0.310977,0.322937 0.57411,0.394701 0.09568,0.02393 0.203332,0.03588 0.299017,0.03588 0.514308,0 0.825285,-0.239213 0.94489,-0.729599 l 0.16745,-0.705678 c 0.07176,-0.310977 0.03588,-0.57411 -0.09568,-0.813323 -0.143527,-0.239213 -0.346859,-0.38274 -0.621954,-0.442543 -0.251173,-0.08372 -0.502346,-0.0598 -0.75352,0.08372 -0.251174,0.143528 -0.406661,0.346859 -0.490387,0.609994 l -0.167448,0.705676 c -0.02393,0.107647 -0.03588,0.191371 -0.03588,0.263135 z m 0.920969,-3.468585 c 0,0.263134 0.09568,0.490385 0.299016,0.693717 0.19137,0.19137 0.418623,0.287055 0.681757,0.287055 0.287055,0 0.514306,-0.09568 0.705677,-0.275094 0.19137,-0.191371 0.275095,-0.418623 0.275095,-0.705678 0,-0.275096 -0.09568,-0.502347 -0.275095,-0.693718 -0.191371,-0.191369 -0.418622,-0.275095 -0.705677,-0.275095 -0.287056,0 -0.514308,0.09568 -0.705679,0.275095 -0.19137,0.17941 -0.275094,0.418622 -0.275094,0.693718 z m 0.75352,-2.715065 c -0.01196,0.179409 0.03588,0.37078 0.155489,0.56215 0.119607,0.19137 0.299016,0.310977 0.538228,0.358819 0.275096,0.07176 0.526269,0.04784 0.765481,-0.07176 0.239213,-0.119606 0.394701,-0.346859 0.490387,-0.669795 l 0.322936,-1.076458 c 0.08372,-0.263134 0.0598,-0.514308 -0.08372,-0.753521 -0.143528,-0.239212 -0.346859,-0.394702 -0.633915,-0.478425 -0.263133,-0.08372 -0.514306,-0.04784 -0.765481,0.09568 -0.251173,0.143528 -0.406661,0.358819 -0.490385,0.633914 l -0.275095,1.076458 c -0.01196,0.09568 -0.02392,0.20333 -0.02392,0.322937 z m 3.301137,2.571538 c 0,0.191369 0.0598,0.38274 0.17941,0.57411 0.119606,0.19137 0.310976,0.322938 0.550189,0.394702 0.03588,0 0.09568,0.01196 0.167449,0.02391 0.07177,0.01196 0.119607,0.02392 0.167449,0.02392 0.490386,0 0.789401,-0.263134 0.909008,-0.789403 l 0.167449,-0.717637 c 0.08372,-0.251174 0.0598,-0.502348 -0.08372,-0.753521 -0.131569,-0.251173 -0.334899,-0.406661 -0.609994,-0.490387 -0.299015,-0.07175 -0.57411,-0.04784 -0.813323,0.09568 -0.239212,0.143528 -0.406662,0.346859 -0.490386,0.633914 L 17.09932,22.41233 c 0,0.02393 -0.01196,0.08372 -0.02392,0.143528 -0.01196,0.0598 -0.01196,0.107647 -0.01196,0.155489 z m 0.885086,-3.54035 c 0,0.263134 0.09568,0.502347 0.299017,0.681756 0.179411,0.19137 0.406662,0.287056 0.681757,0.287056 0.287055,0 0.514307,-0.09568 0.705677,-0.275094 0.19137,-0.17941 0.275095,-0.418623 0.275095,-0.693718 0,-0.287055 -0.09568,-0.514308 -0.275095,-0.705678 -0.179409,-0.19137 -0.418622,-0.275095 -0.705677,-0.275095 -0.287056,0 -0.514308,0.09568 -0.705679,0.275095 -0.179409,0.19137 -0.275095,0.418623 -0.275095,0.705678 z m 0.7296,-2.762908 c 0,0.203331 0.0598,0.394701 0.19137,0.574111 0.131568,0.179409 0.322938,0.310976 0.586072,0.38274 0.02392,0 0.07176,0.01196 0.143528,0.02393 0.07176,0.01196 0.131566,0.02392 0.167449,0.02392 0.119606,0 0.263134,-0.03588 0.430583,-0.107646 0.251172,-0.131567 0.418622,-0.346858 0.490386,-0.621953 l 0.287054,-1.076458 c 0.07177,-0.275094 0.04784,-0.526268 -0.09568,-0.753519 -0.131567,-0.239214 -0.334898,-0.394702 -0.609992,-0.478426 -0.275095,-0.08372 -0.526268,-0.0598 -0.765481,0.07176 -0.227253,0.131567 -0.394702,0.322938 -0.466466,0.609993 l -0.334897,1.088418 c 0,0.02393 -0.01196,0.07176 -0.02393,0.143528 0,0.03588 0,0.08372 0,0.119607 z" />
</svg>
