<?xml version="1.0" encoding="UTF-8" standalone="no"?>
<svg
   xmlns:dc="http://purl.org/dc/elements/1.1/"
   xmlns:cc="http://creativecommons.org/ns#"
   xmlns:rdf="http://www.w3.org/1999/02/22-rdf-syntax-ns#"
   xmlns:svg="http://www.w3.org/2000/svg"
   xmlns="http://www.w3.org/2000/svg"
   xmlns:sodipodi="http://sodipodi.sourceforge.net/DTD/sodipodi-0.dtd"
   xmlns:inkscape="http://www.inkscape.org/namespaces/inkscape"
   inkscape:version="1.0 (4035a4fb49, 2020-05-01)"
   sodipodi:docname="rain-symbolic.svg"
   xml:space="preserve"
   style="enable-background:new 0 0 30 30;"
   viewBox="0 0 30 30"
   y="0px"
   x="0px"
   id="Layer_1"
   version="1.1"><metadata
   id="metadata9"><rdf:RDF><cc:Work
       rdf:about=""><dc:format>image/svg+xml</dc:format><dc:type
         rdf:resource="http://purl.org/dc/dcmitype/StillImage" /></cc:Work></rdf:RDF></metadata><defs
   id="defs7" /><sodipodi:namedview
   inkscape:current-layer="Layer_1"
   inkscape:window-maximized="0"
   inkscape:window-y="0"
   inkscape:window-x="0"
   inkscape:cy="15"
   inkscape:cx="15"
   inkscape:zoom="22.2"
   showgrid="false"
   id="namedview5"
   inkscape:window-height="1256"
   inkscape:window-width="1024"
   inkscape:pageshadow="2"
   inkscape:pageopacity="0"
   guidetolerance="10"
   gridtolerance="10"
   objecttolerance="10"
   borderopacity="1"
   bordercolor="#666666"
   pagecolor="#ffffff" />
<path
   style="stroke-width:1.19172"
   id="path2"
   d="m 2.8419153,15.01873 c 0,-1.370484 0.4290209,-2.586043 1.2870628,-3.658595 C 4.98702,10.287582 6.0714895,9.6082988 7.3823868,9.2984508 7.7518215,7.6777048 8.5979463,6.3429728 9.8969263,5.2942553 11.195906,4.2455375 12.685562,3.7330958 14.365894,3.7330958 c 1.64458,0 3.098484,0.5124417 4.385547,1.5254078 1.287063,1.0129661 2.12127,2.3238632 2.502622,3.9207742 h 0.381352 c 1.060635,0 2.049767,0.26218 2.955478,0.774622 0.905711,0.5124412 1.632663,1.2274762 2.157022,2.1212702 0.524359,0.893793 0.798455,1.882925 0.798455,2.94356 0,1.048718 -0.250262,2.014015 -0.750786,2.907809 -0.500525,0.893793 -1.191725,1.608828 -2.061684,2.145104 -0.869959,0.536276 -1.823339,0.82229 -2.86014,0.846125 -0.154924,0 -0.238345,-0.0715 -0.238345,-0.202593 v -1.584994 c 0,-0.143007 0.08342,-0.214511 0.238345,-0.214511 1.012966,-0.04767 1.882926,-0.452855 2.59796,-1.215559 0.715035,-0.762704 1.072553,-1.656498 1.072553,-2.693298 0,-1.036801 -0.393269,-1.930594 -1.167891,-2.693298 -0.774621,-0.762704 -1.692249,-1.144056 -2.752884,-1.144056 h -1.918677 c -0.143007,0 -0.21451,-0.0715 -0.21451,-0.202593 l -0.09534,-0.691201 C 19.263883,8.9886018 18.703772,7.9041328 17.738475,7.0460908 16.761261,6.1761317 15.64104,5.7471107 14.342059,5.7471107 c -1.29898,0 -2.443035,0.429021 -3.396415,1.2989801 -0.9652967,0.869959 -1.5015737,1.942511 -1.6207457,3.2295742 l -0.08342,0.631614 c 0,0.143007 -0.08342,0.226428 -0.238345,0.226428 l -0.631614,0.03575 c -0.9891315,0.119172 -1.8233388,0.548193 -2.502622,1.275145 -0.6792831,0.726953 -1.0129661,1.584994 -1.0129661,2.574126 0,1.036801 0.3575175,1.930594 1.0725524,2.693298 0.7150349,0.762704 1.584994,1.16789 2.5979597,1.215559 0.13109,0 0.202594,0.0715 0.202594,0.214511 v 1.584994 c 0,0.13109 -0.0715,0.202593 -0.202594,0.202593 C 6.9295314,20.858182 5.5828824,20.250402 4.4745783,19.106346 3.3662742,17.96229 2.8419153,16.603724 2.8419153,15.01873 Z m 6.375728,7.972639 c 0,-0.04767 0.01192,-0.13109 0.04767,-0.238345 l 1.9425107,-6.876252 c 0.0715,-0.226428 0.202593,-0.405187 0.381352,-0.524359 0.178759,-0.119173 0.369435,-0.178759 0.548194,-0.178759 0.08342,0 0.178758,0.01192 0.286014,0.03575 0.286013,0.04767 0.500524,0.202593 0.643531,0.440938 0.143007,0.238345 0.178759,0.500525 0.09534,0.798456 l -1.942512,6.828583 c -0.143007,0.512442 -0.476689,0.762704 -0.977214,0.762704 -0.04767,0 -0.08342,-0.01192 -0.13109,-0.02384 -0.0715,-0.02383 -0.107255,-0.03575 -0.1191717,-0.03575 -0.26218,-0.0715 -0.452856,-0.202594 -0.583945,-0.39327 -0.13109,-0.202593 -0.190676,-0.393269 -0.190676,-0.595862 z m 3.1223187,3.348747 2.907808,-10.451427 c 0.04767,-0.226428 0.166842,-0.405186 0.357518,-0.524359 0.190676,-0.119172 0.381352,-0.178759 0.583945,-0.178759 0.107255,0 0.21451,0.01192 0.321766,0.03575 0.262179,0.0715 0.452855,0.226428 0.583945,0.464773 0.13109,0.238345 0.154924,0.488607 0.08342,0.762704 l -2.895892,10.463344 c -0.04767,0.202593 -0.154924,0.369434 -0.3456,0.512441 -0.190676,0.143007 -0.381352,0.214511 -0.60778,0.214511 -0.107255,0 -0.21451,-0.02384 -0.297931,-0.05959 -0.238345,-0.05959 -0.440938,-0.214511 -0.619697,-0.464773 -0.131089,-0.214511 -0.154924,-0.464773 -0.0715,-0.774621 z m 4.921823,-3.324912 c 0,-0.04767 0.01192,-0.13109 0.04767,-0.274097 l 1.942512,-6.876252 c 0.0715,-0.226428 0.190676,-0.405187 0.357517,-0.524359 0.178759,-0.119173 0.357518,-0.178759 0.548194,-0.178759 0.09534,0 0.202593,0.01192 0.309848,0.03575 0.250262,0.0715 0.429021,0.190676 0.548193,0.369434 0.119173,0.178759 0.178759,0.369435 0.178759,0.560111 0,0.03575 -0.01192,0.09534 -0.02383,0.166842 -0.01192,0.0715 -0.02383,0.119172 -0.02383,0.143007 l -1.942511,6.828583 c -0.04767,0.226427 -0.154925,0.417103 -0.333683,0.548193 -0.178759,0.13109 -0.381352,0.202593 -0.60778,0.202593 L 17.97683,23.95666 c -0.238345,-0.0715 -0.417104,-0.190676 -0.548193,-0.381352 -0.107255,-0.178759 -0.166842,-0.369435 -0.166842,-0.56011 z" />
</svg>
