<?xml version="1.0" encoding="UTF-8" standalone="no"?>
<svg
   xmlns:dc="http://purl.org/dc/elements/1.1/"
   xmlns:cc="http://creativecommons.org/ns#"
   xmlns:rdf="http://www.w3.org/1999/02/22-rdf-syntax-ns#"
   xmlns:svg="http://www.w3.org/2000/svg"
   xmlns="http://www.w3.org/2000/svg"
   xmlns:sodipodi="http://sodipodi.sourceforge.net/DTD/sodipodi-0.dtd"
   xmlns:inkscape="http://www.inkscape.org/namespaces/inkscape"
   inkscape:version="1.0 (4035a4fb49, 2020-05-01)"
   sodipodi:docname="rain-wind-symbolic.svg"
   xml:space="preserve"
   style="enable-background:new 0 0 30 30;"
   viewBox="0 0 30 30"
   y="0px"
   x="0px"
   id="Layer_1"
   version="1.1"><metadata
   id="metadata9"><rdf:RDF><cc:Work
       rdf:about=""><dc:format>image/svg+xml</dc:format><dc:type
         rdf:resource="http://purl.org/dc/dcmitype/StillImage" /></cc:Work></rdf:RDF></metadata><defs
   id="defs7" /><sodipodi:namedview
   inkscape:current-layer="Layer_1"
   inkscape:window-maximized="0"
   inkscape:window-y="0"
   inkscape:window-x="0"
   inkscape:cy="15"
   inkscape:cx="15"
   inkscape:zoom="22.2"
   showgrid="false"
   id="namedview5"
   inkscape:window-height="1004"
   inkscape:window-width="971"
   inkscape:pageshadow="2"
   inkscape:pageopacity="0"
   guidetolerance="10"
   gridtolerance="10"
   objecttolerance="10"
   borderopacity="1"
   bordercolor="#666666"
   pagecolor="#ffffff" />
<path
   style="stroke-width:1.18221"
   id="path2"
   d="m 2.8735099,13.987543 c 0,1.324077 0.3901298,2.494467 1.1585674,3.534813 0.7684376,1.028524 1.7733175,1.737851 3.0146397,2.116159 0.106399,0.02364 0.200976,-0.01182 0.2837308,-0.09458 l 1.3713651,-1.690563 c -1.052168,0 -1.9506488,-0.378307 -2.6954422,-1.134923 -0.7447933,-0.756615 -1.123101,-1.666918 -1.123101,-2.730909 0,-0.993057 0.3310192,-1.867894 0.9930578,-2.600865 0.6620385,-0.732971 1.4895866,-1.146746 2.4826444,-1.2295 l 0.626572,-0.08275 c 0.130043,0 0.189154,-0.04729 0.189154,-0.1536882 l 0.09458,-0.650216 c 0.141865,-1.300433 0.697505,-2.376245 1.6432741,-3.227438 0.945769,-0.8511923 2.068871,-1.2767884 3.369303,-1.2767884 1.300433,0 2.435356,0.4255961 3.392948,1.2886104 0.969413,0.863015 1.501408,1.938827 1.61963,3.215616 l 0.08275,0.685683 c 0.02365,0.1300432 0.118222,0.2009762 0.260087,0.2009762 h 1.915183 c 1.06399,0 1.974293,0.378307 2.719087,1.123101 0.744793,0.744793 1.123101,1.643274 1.123101,2.707264 0,0.981236 -0.33102,1.84425 -0.993058,2.577222 -0.662039,0.732971 -1.477765,1.158567 -2.447178,1.276788 -0.141866,0 -0.331019,0.02365 -0.579284,0.07093 -0.22462,0.02364 -0.39013,0.106399 -0.484707,0.271909 l -2.790019,3.29837 c -0.16551,0.212798 -0.236442,0.461063 -0.189154,0.744793 0.03547,0.283731 0.16551,0.508351 0.366486,0.673861 0.130043,0.141865 0.342841,0.22462 0.662038,0.22462 0.307375,0 0.55564,-0.141865 0.721149,-0.413774 l 2.506289,-2.884596 c 1.465942,-0.153688 2.707265,-0.78026 3.723967,-1.903361 1.016702,-1.123101 1.51323,-2.435356 1.51323,-3.936765 0,-0.792081 -0.153687,-1.560519 -0.461062,-2.281668 -0.307374,-0.721148 -0.721148,-1.34772 -1.241321,-1.8678942 -0.520173,-0.520173 -1.146746,-0.933947 -1.867895,-1.241322 -0.721149,-0.307375 -1.477764,-0.461062 -2.281668,-0.461062 h -0.378308 c -0.39013,-1.56052 -1.2295,-2.8491303 -2.506289,-3.8540102 -1.276788,-1.0048799 -2.742731,-1.5014088 -4.397827,-1.5014088 -1.099457,0 -2.139803,0.2364423 -3.109216,0.709327 C 10.1914,3.9623884 9.3756739,4.6126048 8.7018129,5.4519748 8.0279526,6.2913458 7.5905343,7.2489368 7.3659141,8.3129268 6.0418371,8.6084798 4.9542024,9.2823408 4.1148321,10.346331 3.287284,11.3985 2.8735099,12.616178 2.8735099,13.987543 Z m 3.9958753,9.481338 c 0,0.07093 0.023644,0.189154 0.070933,0.354663 0.1063991,0.248265 0.2719087,0.425596 0.5201732,0.520173 0.2600865,0.118221 0.5201731,0.130044 0.7920815,0.02365 0.271909,-0.1064 0.44924,-0.283731 0.543817,-0.531996 0.118221,-0.260086 0.130044,-0.508351 0.02365,-0.768437 -0.1064,-0.248265 -0.283731,-0.425596 -0.543818,-0.508351 -0.2600861,-0.130044 -0.5201726,-0.141866 -0.7684371,-0.03547 -0.2482644,0.106399 -0.4255962,0.283731 -0.5438173,0.55564 -0.059111,0.118221 -0.094577,0.248264 -0.094577,0.39013 z m 2.1870917,-2.884597 v 0.118221 c 0.02364,0.271909 0.141865,0.484707 0.354663,0.662039 0.271909,0.153687 0.508351,0.22462 0.7329721,0.22462 0.260086,0 0.508351,-0.130043 0.721149,-0.39013 l 2.742731,-3.274726 c 0.165509,-0.200976 0.248264,-0.461062 0.236442,-0.78026 -0.02364,-0.248264 -0.141865,-0.461062 -0.331019,-0.626572 -0.189154,-0.165509 -0.39013,-0.260086 -0.61475,-0.260086 -0.07093,0 -0.118221,0 -0.16551,0.01182 -0.271909,0.04729 -0.496529,0.177332 -0.662038,0.39013 l -2.7900201,3.274726 c -0.153687,0.189154 -0.22462,0.401952 -0.22462,0.650216 z m 0.910303,5.580039 c 0,0.141866 0.03547,0.271909 0.09458,0.378308 0.09458,0.248264 0.271908,0.437418 0.520173,0.555639 0.130043,0.05911 0.260086,0.08275 0.39013,0.08275 0.141865,0 0.271908,-0.02364 0.366485,-0.08275 0.271909,-0.106399 0.461063,-0.271908 0.55564,-0.484706 0.118221,-0.260087 0.130043,-0.520173 0.02364,-0.792082 -0.09458,-0.271909 -0.271909,-0.449241 -0.531995,-0.543818 -0.260087,-0.118221 -0.520173,-0.130043 -0.792082,-0.02364 -0.271909,0.106399 -0.44924,0.283731 -0.531995,0.531995 -0.07093,0.1064 -0.09458,0.236443 -0.09458,0.378308 z m 1.9742931,-2.778197 v 0.130043 c 0.02364,0.260087 0.153688,0.472885 0.366486,0.650217 0.212798,0.177331 0.437418,0.260086 0.650216,0.260086 0.271909,0 0.508351,-0.130043 0.744794,-0.39013 l 5.14262,-6.194789 c 0.130044,-0.141865 0.200976,-0.354663 0.200976,-0.61475 v -0.141865 c -0.02364,-0.271909 -0.141865,-0.472885 -0.319197,-0.626572 -0.177332,-0.153688 -0.39013,-0.236443 -0.61475,-0.236443 h -0.153687 c -0.271909,0.01182 -0.496529,0.141866 -0.650217,0.366486 l -5.142621,6.1475 c -0.165509,0.212799 -0.22462,0.425597 -0.22462,0.650217 z m 4.149563,1.359543 c 0,0.106399 0.02364,0.22462 0.07093,0.354664 0.106399,0.260086 0.283731,0.44924 0.543817,0.555639 0.16551,0.04729 0.283731,0.07093 0.366486,0.07093 0.165509,0 0.307375,-0.03547 0.401952,-0.09458 0.260086,-0.106399 0.44924,-0.271909 0.543817,-0.496529 0.118221,-0.200976 0.130043,-0.461062 0.02364,-0.792082 -0.09458,-0.248264 -0.271908,-0.413774 -0.520173,-0.520173 l -0.425596,-0.106399 c -0.106399,0.02364 -0.22462,0.04729 -0.378308,0.08275 -0.260086,0.09458 -0.437418,0.271909 -0.531995,0.520173 -0.05911,0.153688 -0.09458,0.295553 -0.09458,0.425596 z" />
</svg>
