<?xml version="1.0" encoding="UTF-8" standalone="no"?>
<!-- Generator: Adobe Illustrator 22.0.1, SVG Export Plug-In . SVG Version: 6.00 Build 0)  -->

<svg
   version="1.1"
   id="Layer_1"
   x="0px"
   y="0px"
   viewBox="0 0 30 30"
   style="enable-background:new 0 0 30 30;"
   xml:space="preserve"
   sodipodi:docname="sandstorm-symbolic.svg"
   inkscape:version="1.3.2 (091e20ef0f, 2023-11-25, custom)"
   xmlns:inkscape="http://www.inkscape.org/namespaces/inkscape"
   xmlns:sodipodi="http://sodipodi.sourceforge.net/DTD/sodipodi-0.dtd"
   xmlns="http://www.w3.org/2000/svg"
   xmlns:svg="http://www.w3.org/2000/svg"><defs
   id="defs1" /><sodipodi:namedview
   id="namedview1"
   pagecolor="#ffffff"
   bordercolor="#666666"
   borderopacity="1.0"
   inkscape:showpageshadow="2"
   inkscape:pageopacity="0.0"
   inkscape:pagecheckerboard="0"
   inkscape:deskcolor="#d1d1d1"
   inkscape:zoom="14.6"
   inkscape:cx="15"
   inkscape:cy="14.965753"
   inkscape:window-width="1080"
   inkscape:window-height="1884"
   inkscape:window-x="0"
   inkscape:window-y="0"
   inkscape:window-maximized="1"
   inkscape:current-layer="Layer_1" />
<path
   d="m 1.2433569,17.577926 c 0,0.277445 0.1040418,0.520209 0.3236857,0.716732 0.1849633,0.219644 0.4277276,0.323686 0.7282929,0.323686 H 19.277275 c 0.335246,0 0.612691,0.115602 0.843895,0.346806 0.231204,0.231204 0.346806,0.520209 0.346806,0.855455 0,0.335246 -0.115602,0.612691 -0.346806,0.832335 -0.231204,0.219644 -0.508649,0.335246 -0.855455,0.335246 -0.335246,0 -0.624251,-0.115602 -0.843895,-0.335246 -0.184963,-0.208084 -0.416167,-0.300565 -0.693612,-0.300565 -0.289005,0 -0.531769,0.104042 -0.739853,0.300565 -0.208084,0.196524 -0.312125,0.439288 -0.312125,0.705172 0,0.289006 0.104041,0.53177 0.323685,0.728293 0.647372,0.635812 1.410345,0.959497 2.2658,0.959497 0.901696,0 1.67623,-0.312125 2.323601,-0.936376 0.647372,-0.624251 0.959497,-1.375665 0.959497,-2.27736 0,-0.901696 -0.323685,-1.66467 -0.971057,-2.312041 -0.647371,-0.647372 -1.421905,-0.971058 -2.312041,-0.971058 H 2.2953355 c -0.2890051,0 -0.5317694,0.104042 -0.7398531,0.300566 -0.2080837,0.196523 -0.3121255,0.439288 -0.3121255,0.728293 z m 0,-3.791747 c 0,0.265884 0.1040418,0.497088 0.3236857,0.705172 0.1965235,0.208084 0.4392878,0.300565 0.7282929,0.300565 H 25.461985 c 0.901696,0 1.676229,-0.312125 2.323601,-0.947936 0.647371,-0.624251 0.971057,-1.387225 0.971057,-2.277361 0,-0.890135 -0.323686,-1.6646689 -0.971057,-2.3004802 -0.647372,-0.6358112 -1.421905,-0.9594969 -2.323601,-0.9594969 -0.890136,0 -1.641549,0.3121255 -2.25424,0.9248163 -0.208084,0.1849633 -0.312126,0.4392878 -0.312126,0.7745338 0,0.300565 0.104042,0.543329 0.300566,0.728293 0.196523,0.184963 0.439287,0.277445 0.728293,0.277445 0.277444,0 0.520209,-0.09248 0.728292,-0.277445 0.219644,-0.242765 0.485529,-0.358367 0.809215,-0.358367 0.335246,0 0.61269,0.115602 0.843895,0.346806 0.231204,0.231205 0.346806,0.508649 0.346806,0.843895 0,0.335246 -0.115602,0.612691 -0.346806,0.832335 -0.231205,0.219644 -0.508649,0.335246 -0.843895,0.335246 H 2.2953355 c -0.2890051,0 -0.5317694,0.104042 -0.7398531,0.300565 -0.2080837,0.219644 -0.3121255,0.462408 -0.3121255,0.751414 z m 1.814952,7.999661 c 0,0.277445 0.092482,0.497089 0.2774449,0.670492 0.1849633,0.184963 0.4161674,0.277445 0.6704919,0.277445 0.2774449,0 0.5202092,-0.09248 0.7167326,-0.265885 0.1965235,-0.173403 0.2890051,-0.404607 0.2890051,-0.682052 0,-0.265885 -0.1040418,-0.497089 -0.3005653,-0.693612 -0.1965234,-0.196524 -0.4392877,-0.289005 -0.7051724,-0.289005 -0.2543245,0 -0.4855286,0.09248 -0.6704919,0.289005 -0.1849632,0.196523 -0.2774449,0.427727 -0.2774449,0.693612 z M 4.1565283,10.306557 c 0,0.277445 0.092482,0.497089 0.2774449,0.670492 0.1849633,0.184963 0.4161674,0.277445 0.6704919,0.277445 0.2774449,0 0.5202092,-0.09248 0.7051724,-0.265885 0.1965235,-0.184963 0.2890051,-0.404607 0.2890051,-0.682052 0,-0.265885 -0.092482,-0.4970886 -0.2890051,-0.693612 C 5.6246743,9.4279817 5.38191,9.3239398 5.1160253,9.3239398 c -0.2543245,0 -0.4855286,0.092482 -0.6704919,0.2890051 C 4.24901,9.8094684 4.1565283,10.040672 4.1565283,10.306557 Z M 7.6592702,7.6361499 c 0,0.277445 0.092482,0.4970889 0.2774449,0.670492 0.1849633,0.1965235 0.4161673,0.2890051 0.6704918,0.2890051 0.2774449,0 0.5202092,-0.092482 0.7167327,-0.2658847 C 9.520463,8.144799 9.6129447,7.9251551 9.6129447,7.6477103 9.6129447,7.3818255 9.5089028,7.1506215 9.3123794,6.954098 9.1274161,6.7575745 8.8846518,6.6650929 8.6072069,6.6650929 c -0.2543245,0 -0.4855285,0.092482 -0.6704918,0.2890051 C 7.7517518,7.1390613 7.6592702,7.3702654 7.6592702,7.6361499 Z M 7.763312,21.045987 c 0,0.265885 0.092482,0.497089 0.2890051,0.670492 0.1849633,0.184963 0.4046072,0.277445 0.6589317,0.277445 0.2774449,0 0.5202091,-0.09248 0.7167326,-0.265885 0.1965235,-0.184963 0.2890051,-0.404607 0.2890051,-0.682052 0,-0.265885 -0.1040418,-0.497089 -0.3005653,-0.693612 C 9.2198977,20.155851 8.9771335,20.06337 8.7112488,20.06337 c -0.2543245,0 -0.4855286,0.09248 -0.6704919,0.289005 C 7.8557937,20.548898 7.763312,20.780102 7.763312,21.045987 Z M 12.595477,9.6823062 c 0,0.2774449 0.09248,0.4970888 0.277445,0.6704918 0.184964,0.184963 0.416168,0.277445 0.670492,0.277445 0.277445,0 0.520209,-0.09248 0.716733,-0.265885 0.196523,-0.173403 0.289005,-0.4046069 0.289005,-0.6820518 0,-0.2658847 -0.104042,-0.4970888 -0.300565,-0.6936123 -0.196524,-0.1965234 -0.439288,-0.2890051 -0.705173,-0.2890051 -0.265884,0 -0.485528,0.092482 -0.670492,0.2890051 -0.184963,0.1965235 -0.277445,0.4277276 -0.277445,0.6936123 z m 0.369927,12.7046648 c 0,0.265884 0.09248,0.485528 0.289005,0.670491 0.184963,0.184964 0.404607,0.277445 0.658932,0.277445 0.277445,0 0.520209,-0.09248 0.716732,-0.265884 0.196524,-0.184964 0.289006,-0.404607 0.289006,-0.682052 0,-0.265885 -0.104042,-0.497089 -0.300566,-0.693613 -0.196523,-0.196523 -0.439288,-0.289005 -0.705172,-0.289005 -0.254325,0 -0.485529,0.09248 -0.670492,0.289005 -0.184963,0.196524 -0.277445,0.427728 -0.277445,0.693613 z M 18.144375,9.4973429 c 0,0.2658847 0.09248,0.4855286 0.277445,0.6589311 0.196524,0.196524 0.416168,0.289006 0.670492,0.289006 0.277445,0 0.520209,-0.09248 0.716733,-0.265885 0.196523,-0.1849633 0.289005,-0.4046072 0.289005,-0.6820521 0,-0.2658847 -0.104042,-0.4970888 -0.300565,-0.6936122 -0.196524,-0.1965235 -0.439288,-0.2890051 -0.705173,-0.2890051 -0.254324,0 -0.473968,0.092482 -0.670492,0.2890051 -0.173403,0.1965234 -0.277445,0.4277275 -0.277445,0.6936122 z m 5.884144,8.1615041 c 0,0.277445 0.09248,0.497089 0.277445,0.670492 0.184964,0.184963 0.416168,0.277445 0.670492,0.277445 0.277445,0 0.520209,-0.09248 0.705173,-0.265885 0.196523,-0.184963 0.289005,-0.404607 0.289005,-0.682052 0,-0.265885 -0.09248,-0.497089 -0.289005,-0.693612 -0.196524,-0.196524 -0.427728,-0.289006 -0.705173,-0.289006 -0.265885,0 -0.485528,0.09248 -0.670492,0.289006 -0.173403,0.196523 -0.277445,0.427727 -0.277445,0.693612 z"
   id="path1"
   style="stroke-width:1.15602" />
</svg>
