<?xml version="1.0" encoding="UTF-8" standalone="no"?>
<!-- Generator: Adobe Illustrator 15.1.0, SVG Export Plug-In . SVG Version: 6.00 Build 0)  -->

<svg
   xmlns:dc="http://purl.org/dc/elements/1.1/"
   xmlns:cc="http://creativecommons.org/ns#"
   xmlns:rdf="http://www.w3.org/1999/02/22-rdf-syntax-ns#"
   xmlns:svg="http://www.w3.org/2000/svg"
   xmlns="http://www.w3.org/2000/svg"
   xmlns:sodipodi="http://sodipodi.sourceforge.net/DTD/sodipodi-0.dtd"
   xmlns:inkscape="http://www.inkscape.org/namespaces/inkscape"
   version="1.1"
   id="Layer_1"
   x="0px"
   y="0px"
   width="100px"
   height="100px"
   viewBox="0 0 100 100"
   enable-background="new 0 0 100 100"
   xml:space="preserve"
   sodipodi:docname="Shades-symbolic.svg"
   inkscape:version="0.92.4 5da689c313, 2019-01-14"><metadata
   id="metadata9"><rdf:RDF><cc:Work
       rdf:about=""><dc:format>image/svg+xml</dc:format><dc:type
         rdf:resource="http://purl.org/dc/dcmitype/StillImage" /></cc:Work></rdf:RDF></metadata><defs
   id="defs7" /><sodipodi:namedview
   pagecolor="#ffffff"
   bordercolor="#666666"
   borderopacity="1"
   objecttolerance="10"
   gridtolerance="10"
   guidetolerance="10"
   inkscape:pageopacity="0"
   inkscape:pageshadow="2"
   inkscape:window-width="640"
   inkscape:window-height="480"
   id="namedview5"
   showgrid="false"
   inkscape:zoom="2.36"
   inkscape:cx="50"
   inkscape:cy="50"
   inkscape:window-x="0"
   inkscape:window-y="0"
   inkscape:window-maximized="0"
   inkscape:current-layer="Layer_1" />
<path
   d="m 96.046033,49.577452 h -3.542646 v 7.085291 c 0,5.86662 -4.757772,10.624393 -10.627935,10.624393 H 67.708413 c -5.870163,0 -10.624393,-4.757773 -10.624393,-10.624393 L 53.576801,42.63741 c -1.225755,-0.08502 -2.465681,-0.145248 -3.687894,-0.145248 -1.176158,0 -2.338145,0.06731 -3.471792,0.166504 l -3.503676,14.004077 c 0,5.86662 -4.757773,10.624393 -10.627937,10.624393 H 18.118464 c -5.870164,0 -10.6279363,-4.757773 -10.6279363,-10.624393 V 49.577452 H 3.9514251 c -1.959083,0 -3.54264544,-1.583562 -3.54264544,-3.542645 v -3.542645 c 0,-1.95554 1.58356244,-3.539103 3.54264544,-3.539103 h 4.194492 c 1.4595698,-4.120096 5.3564799,-7.08529 9.9725469,-7.08529 h 17.709684 c 3.3478,0 6.298824,1.576477 8.247279,3.999646 1.859888,-0.269241 3.811886,-0.457001 5.81348,-0.457001 2.037021,0 4.088213,0.162961 6.09335,0.382605 1.948455,-2.377114 4.871138,-3.92525 8.187054,-3.92525 h 17.709683 c 4.623152,0 8.512977,2.965194 9.976089,7.08529 h 4.194492 c 1.959083,0 3.542646,1.583563 3.542646,3.539103 v 3.542645 c -0.0035,1.959083 -1.587105,3.542645 -3.546188,3.542645 z M 29.947356,37.745017 c -1.034452,-1.037995 -2.720751,-1.037995 -3.758747,0 L 14.919455,49.017714 c -1.037995,1.037995 -1.037995,2.720752 0,3.758747 1.034452,1.037995 2.720751,1.037995 3.755204,0 L 29.947356,41.503764 c 1.037995,-1.037995 1.037995,-2.720752 0,-3.758747 z m 49.593492,0 c -1.037995,-1.037995 -2.720751,-1.037995 -3.758746,0 L 64.509405,49.017714 c -1.037996,1.037995 -1.037996,2.720752 0,3.758747 1.037995,1.037995 2.720751,1.037995 3.758746,0 L 79.540848,41.503764 c 1.037995,-1.037995 1.037995,-2.720752 0,-3.758747 z"
   id="path2"
   inkscape:connector-curvature="0"
   style="clip-rule:evenodd;fill-rule:evenodd;stroke-width:3.54264522" />
</svg>