<?xml version="1.0" encoding="utf-8"?>
<!-- Generator: Adobe Illustrator 15.1.0, SVG Export Plug-In . SVG Version: 6.00 Build 0)  -->
<!DOCTYPE svg PUBLIC "-//W3C//DTD SVG 1.1//EN" "http://www.w3.org/Graphics/SVG/1.1/DTD/svg11.dtd">
<svg version="1.1" id="Layer_1" xmlns="http://www.w3.org/2000/svg" xmlns:xlink="http://www.w3.org/1999/xlink" x="0px" y="0px"
	 width="100px" height="100px" viewBox="0 0 100 100" enable-background="new 0 0 100 100" xml:space="preserve">
<path fill-rule="evenodd" clip-rule="evenodd" d="M62.998,50h-1v2c0,1.656-1.343,2.999-3,2.999h-3.999
	C53.342,54.999,52,53.656,52,52l-0.99-3.959C50.664,48.017,50.314,48,49.969,48c-0.332,0-0.66,0.019-0.98,0.047L48,52
	c0,1.656-1.343,2.999-3,2.999h-3.999c-1.657,0-3-1.343-3-2.999v-2h-0.999c-0.553,0-1-0.447-1-1v-1c0-0.552,0.447-0.999,1-0.999
	h1.184c0.412-1.163,1.512-2,2.815-2H46c0.945,0,1.778,0.445,2.328,1.129c0.525-0.076,1.076-0.129,1.641-0.129
	c0.575,0,1.154,0.046,1.72,0.108c0.55-0.671,1.375-1.108,2.311-1.108h4.999c1.305,0,2.403,0.837,2.816,2h1.184
	c0.553,0,1,0.447,1,0.999v1C63.998,49.553,63.551,50,62.998,50z M44.34,46.66c-0.292-0.293-0.768-0.293-1.061,0l-3.181,3.182
	c-0.293,0.293-0.293,0.768,0,1.061c0.292,0.293,0.768,0.293,1.06,0l3.182-3.182C44.633,47.428,44.633,46.953,44.34,46.66z
	 M58.339,46.66c-0.293-0.293-0.768-0.293-1.061,0l-3.182,3.182c-0.293,0.293-0.293,0.768,0,1.061s0.768,0.293,1.061,0l3.182-3.182
	C58.632,47.428,58.632,46.953,58.339,46.66z"/>
</svg>
