<?xml version="1.0" encoding="UTF-8" standalone="no"?>
<svg
   xmlns:dc="http://purl.org/dc/elements/1.1/"
   xmlns:cc="http://creativecommons.org/ns#"
   xmlns:rdf="http://www.w3.org/1999/02/22-rdf-syntax-ns#"
   xmlns:svg="http://www.w3.org/2000/svg"
   xmlns="http://www.w3.org/2000/svg"
   xmlns:sodipodi="http://sodipodi.sourceforge.net/DTD/sodipodi-0.dtd"
   xmlns:inkscape="http://www.inkscape.org/namespaces/inkscape"
   inkscape:version="1.0 (4035a4fb49, 2020-05-01)"
   sodipodi:docname="showers-symbolic.svg"
   xml:space="preserve"
   style="enable-background:new 0 0 30 30;"
   viewBox="0 0 30 30"
   y="0px"
   x="0px"
   id="Layer_1"
   version="1.1"><metadata
   id="metadata9"><rdf:RDF><cc:Work
       rdf:about=""><dc:format>image/svg+xml</dc:format><dc:type
         rdf:resource="http://purl.org/dc/dcmitype/StillImage" /></cc:Work></rdf:RDF></metadata><defs
   id="defs7" /><sodipodi:namedview
   inkscape:current-layer="Layer_1"
   inkscape:window-maximized="0"
   inkscape:window-y="0"
   inkscape:window-x="0"
   inkscape:cy="15"
   inkscape:cx="15"
   inkscape:zoom="22.2"
   showgrid="false"
   id="namedview5"
   inkscape:window-height="1146"
   inkscape:window-width="1071"
   inkscape:pageshadow="2"
   inkscape:pageopacity="0"
   guidetolerance="10"
   gridtolerance="10"
   objecttolerance="10"
   borderopacity="1"
   bordercolor="#666666"
   pagecolor="#ffffff" />
<path
   style="stroke-width:1.11225"
   id="path2"
   d="m 3.5037536,14.26487 c 0,-1.290217 0.4004119,-2.424716 1.2123581,-3.425746 C 5.5169355,9.8380943 6.5513327,9.1929871 7.808181,8.9149226 8.1307351,7.3800108 8.8981914,6.1342849 10.110549,5.1443781 c 1.212359,-0.9899071 2.602678,-1.4792994 4.18208,-1.4792994 1.546035,0 2.925231,0.4782697 4.137589,1.4236866 1.201236,0.9454169 1.990937,2.1688972 2.357981,3.670442 h 0.378167 c 1.00103,0 1.924201,0.2446957 2.758393,0.734088 0.845314,0.489392 1.501545,1.1567447 1.990937,2.0020587 0.478269,0.845314 0.722966,1.768486 0.722966,2.769516 0,1.490422 -0.511638,2.758393 -1.52379,3.826158 -1.023275,1.067765 -2.269001,1.623892 -3.7483,1.668382 -0.133471,0 -0.200206,-0.06674 -0.200206,-0.189083 v -1.490422 c 0,-0.122348 0.06674,-0.189084 0.200206,-0.189084 0.934295,-0.07785 1.746241,-0.467147 2.413594,-1.167868 0.667353,-0.70072 1.001029,-1.523789 1.001029,-2.469206 0,-0.989907 -0.355922,-1.846343 -1.067765,-2.56931 C 23.001587,10.972595 22.156273,10.60555 21.166366,10.60555 H 19.35339 c -0.13347,0 -0.211328,-0.06674 -0.244696,-0.200206 L 19.030838,9.7713595 C 18.952974,8.9816584 18.697159,8.2586927 18.252257,7.6135842 17.807355,6.9684766 17.240105,6.467962 16.550507,6.1009175 15.860909,5.7338733 15.104576,5.5559125 14.303752,5.5559125 c -1.223481,0 -2.280123,0.4004119 -3.18105,1.2123577 -0.900927,0.811947 -1.4125645,1.8240986 -1.5237905,3.0253339 l -0.077855,0.6006179 c 0,0.100103 -0.055616,0.155715 -0.1779608,0.155715 L 8.7424771,10.672286 C 7.8081829,10.750136 7.0184818,11.12831 6.3956189,11.817908 5.7616334,12.507507 5.450202,13.319453 5.450202,14.26487 c 0,0.967662 0.3336765,1.801854 0.9899071,2.502574 0.6562305,0.700721 1.4570542,1.078887 2.413594,1.1345 0.1334706,0 0.2002054,0.06674 0.2002054,0.189084 v 1.490421 c 0,0.122349 -0.066736,0.189083 -0.2002054,0.189083 C 8.1196125,19.737165 7.4300144,19.570327 6.7626612,19.270018 6.0953081,18.96971 5.528058,18.569298 5.0609109,18.079905 4.5826411,17.590513 4.2044744,17.023263 3.9264106,16.355909 3.6483467,15.688556 3.5037536,14.998958 3.5037536,14.26487 Z m 6.0284231,7.529967 c 0,-0.03337 0.011119,-0.08898 0.022248,-0.144593 0.01112,-0.05562 0.022248,-0.100103 0.022248,-0.122348 l 0.3003099,-1.145623 c 0.077855,-0.244696 0.2224514,-0.444902 0.4449024,-0.56725 0.222451,-0.133471 0.456024,-0.155716 0.711843,-0.07786 0.255818,0.07786 0.444902,0.222451 0.578372,0.444902 0.133471,0.222451 0.155716,0.456025 0.07786,0.711844 l -0.266942,1.123377 c -0.144593,0.489393 -0.422656,0.734088 -0.845314,0.734088 -0.03337,0 -0.05562,0 -0.100103,0 -0.03337,0 -0.07785,-0.01112 -0.122348,-0.01112 -0.04449,-0.01112 -0.07785,-0.01112 -0.111225,-0.01112 C 10.01045,22.662404 9.8324896,22.528933 9.7101413,22.350972 9.5877929,22.173011 9.5321804,21.972806 9.5321804,21.794845 Z m 1.4681773,-5.361069 c 0,-0.02225 0,-0.06674 0.01112,-0.122349 0.01112,-0.05562 0.01112,-0.08898 0.01112,-0.100103 l 0.333677,-1.167867 c 0.06674,-0.211329 0.189083,-0.378168 0.355922,-0.500516 0.166837,-0.111225 0.344798,-0.166837 0.522759,-0.166837 0.02225,0 0.05562,0 0.08898,0 0.03337,0 0.06674,0.01112 0.100104,0.01112 0.03337,0.01112 0.06674,0.01112 0.08898,0.01112 0.255818,0.07785 0.444902,0.222451 0.56725,0.444902 0.13347,0.222451 0.155716,0.456024 0.07785,0.711843 l -0.266941,1.112255 c -0.07786,0.311432 -0.222452,0.52276 -0.444903,0.656231 -0.222451,0.133471 -0.467146,0.133471 -0.722965,0.02225 -0.244697,-0.06674 -0.422658,-0.189083 -0.545005,-0.378166 -0.122347,-0.189082 -0.17796,-0.35592 -0.17796,-0.53388 z m 1.368073,8.842428 c 0,-0.03337 0.01112,-0.07785 0.02225,-0.144594 0.01112,-0.06674 0.02225,-0.100102 0.02225,-0.13347 L 12.735482,23.897 c 0.06674,-0.266942 0.222451,-0.467148 0.444902,-0.600619 0.222451,-0.13347 0.467147,-0.166837 0.722966,-0.08898 0.255818,0.07785 0.433778,0.222451 0.567249,0.456026 0.133471,0.233573 0.144594,0.467146 0.07785,0.722965 l -0.278063,1.156746 c -0.122349,0.456024 -0.411534,0.678475 -0.889804,0.678475 -0.05562,0 -0.144593,-0.01112 -0.266942,-0.04449 -0.244695,-0.04449 -0.422656,-0.155716 -0.545005,-0.333677 -0.13347,-0.177961 -0.200206,-0.367044 -0.200206,-0.56725 z m 1.490423,-5.305457 c 0,-0.06674 0.01112,-0.155716 0.04449,-0.278064 l 0.300308,-1.145623 c 0.07786,-0.255819 0.222451,-0.444902 0.456026,-0.56725 0.222451,-0.133471 0.467147,-0.155716 0.722965,-0.07786 0.255819,0.06674 0.43378,0.211328 0.567251,0.433779 0.122347,0.222451 0.144593,0.456026 0.06674,0.722967 l -0.266942,1.101132 c -0.144593,0.500514 -0.411534,0.756333 -0.800823,0.756333 -0.04449,0 -0.166839,-0.02225 -0.3448,-0.06673 -0.244695,-0.04449 -0.422656,-0.155717 -0.545005,-0.333677 -0.13347,-0.166839 -0.200205,-0.355922 -0.200205,-0.545005 z m 3.136559,1.868589 c 0,-0.07786 0.01112,-0.166839 0.03337,-0.266942 l 0.31143,-1.101133 c 0.07785,-0.266941 0.222451,-0.467146 0.456024,-0.600617 0.233573,-0.133471 0.456024,-0.166838 0.700721,-0.100104 0.255818,0.07786 0.456024,0.222451 0.589495,0.456026 0.133471,0.222451 0.166838,0.456024 0.100103,0.70072 l -0.322554,1.178991 c -0.111226,0.456024 -0.400412,0.678475 -0.878682,0.678475 -0.100103,0 -0.200205,-0.01112 -0.289186,-0.03337 -0.222451,-0.04449 -0.389289,-0.155715 -0.511638,-0.333676 -0.111225,-0.200206 -0.177961,-0.389289 -0.189083,-0.578372 z m 1.534912,-5.294335 c 0,-0.03337 0.02225,-0.133471 0.05562,-0.289186 l 0.333676,-1.145623 c 0.04449,-0.233574 0.144593,-0.411535 0.322554,-0.522761 0.177961,-0.111225 0.355922,-0.166837 0.545005,-0.155715 0.04449,-0.01112 0.144594,0 0.266941,0.03337 0.244697,0.05562 0.43378,0.200205 0.578373,0.422656 0.133471,0.189084 0.155716,0.422658 0.07785,0.722966 l -0.266941,1.145623 c -0.144593,0.47827 -0.422657,0.722966 -0.845314,0.722966 -0.06674,0 -0.189083,-0.02225 -0.378166,-0.06674 -0.233574,-0.06674 -0.400412,-0.189084 -0.511638,-0.344799 -0.122348,-0.177961 -0.177961,-0.3448 -0.177961,-0.52276 z" />
</svg>
