<?xml version="1.0" encoding="UTF-8" standalone="no"?>
<svg
   xmlns:dc="http://purl.org/dc/elements/1.1/"
   xmlns:cc="http://creativecommons.org/ns#"
   xmlns:rdf="http://www.w3.org/1999/02/22-rdf-syntax-ns#"
   xmlns:svg="http://www.w3.org/2000/svg"
   xmlns="http://www.w3.org/2000/svg"
   xmlns:sodipodi="http://sodipodi.sourceforge.net/DTD/sodipodi-0.dtd"
   xmlns:inkscape="http://www.inkscape.org/namespaces/inkscape"
   version="1.1"
   id="Layer_1"
   x="0px"
   y="0px"
   viewBox="0 0 30 30"
   style="enable-background:new 0 0 30 30;"
   xml:space="preserve"
   sodipodi:docname="sleet-storm-symbolic.svg"
   inkscape:version="1.0 (4035a4fb49, 2020-05-01)"><metadata
   id="metadata9"><rdf:RDF><cc:Work
       rdf:about=""><dc:format>image/svg+xml</dc:format><dc:type
         rdf:resource="http://purl.org/dc/dcmitype/StillImage" /><dc:title /></cc:Work></rdf:RDF></metadata><defs
   id="defs7" /><sodipodi:namedview
   pagecolor="#ffffff"
   bordercolor="#666666"
   borderopacity="1"
   objecttolerance="10"
   gridtolerance="10"
   guidetolerance="10"
   inkscape:pageopacity="0"
   inkscape:pageshadow="2"
   inkscape:window-width="944"
   inkscape:window-height="1032"
   id="namedview5"
   showgrid="false"
   inkscape:zoom="15.733333"
   inkscape:cx="10.096931"
   inkscape:cy="9.7095893"
   inkscape:window-x="76"
   inkscape:window-y="154"
   inkscape:window-maximized="0"
   inkscape:current-layer="Layer_1"
   inkscape:document-rotation="0" />
<path
   d="m 3.5622994,14.697193 c 0,-1.28027 0.3973253,-2.417062 1.1919759,-3.410375 C 5.5489259,10.293504 6.5643128,9.6423327 7.7783624,9.3664122 8.1205036,7.8543692 8.8930806,6.6182456 10.096093,5.647006 c 1.203013,-0.9712397 2.593651,-1.4568595 4.160879,-1.4568595 0.893982,0 1.710706,0.1434786 2.428099,0.4414725 0,0.011037 0,0.011037 0.01103,0.022074 0.927092,0.3531781 1.743817,0.9270923 2.439136,1.7107062 h 0.03311 c 0.750504,0.8056874 1.247161,1.7658895 1.512044,2.8916452 h 0.342142 c 1.191975,0 2.229436,0.3200674 3.123418,0.9491656 v -0.01103 c 0.584951,0.397325 1.081607,0.882945 1.478933,1.467896 0.397325,0.584951 0.662208,1.225087 0.805687,1.920406 0.04415,0.231773 0.06622,0.419398 0.0883,0.573914 v 0.06622 c 0,0.01104 0,0.06622 0.01103,0.187626 0.01104,0.121404 0.01104,0.209699 0.01104,0.264883 v 0.03311 c 0,0.971239 -0.231774,1.876258 -0.706357,2.70402 -0.463546,0.82776 -1.103681,1.501006 -1.920405,1.997663 -0.805687,0.496657 -1.69967,0.76154 -2.67091,0.79465 -0.143477,0 -0.220735,-0.06622 -0.220735,-0.187625 v -1.478933 c 0,-0.143479 0.07725,-0.2097 0.220735,-0.2097 0.949166,-0.04415 1.743818,-0.419399 2.406027,-1.125755 0.662208,-0.706356 0.993313,-1.534117 0.993313,-2.49432 0,-0.982277 -0.353179,-1.821074 -1.070571,-2.527431 -0.706357,-0.706355 -1.556191,-1.059534 -2.549504,-1.059534 h -1.776928 c -0.132441,0 -0.198662,-0.06622 -0.198662,-0.187625 l -0.0883,-0.651172 C 18.848278,9.1787876 18.384732,8.2296215 17.556971,7.423934 17.545941,7.412902 17.545941,7.40186 17.534901,7.390828 17.523871,7.379796 17.512831,7.368754 17.512831,7.357722 17.501791,7.34669 17.490761,7.335648 17.468681,7.335648 c 0,-0.022074 -0.01103,-0.033106 -0.02207,-0.033106 -0.805687,-0.7284297 -1.743817,-1.1478286 -2.825424,-1.2361231 -0.07725,-0.011037 -0.198663,-0.011037 -0.375253,-0.011037 -1.214049,0 -2.262546,0.4083621 -3.156528,1.2140492 -0.893992,0.8056871 -1.4016853,1.8100371 -1.5120531,3.0020129 l -0.088296,0.651172 c -0.033106,0.09933 -0.1214048,0.154516 -0.2428096,0.154516 l -0.5408043,0.03311 c -0.9270806,0.110355 -1.7106944,0.50768 -2.328756,1.180926 -0.6180616,0.673246 -0.9270924,1.478933 -0.9270924,2.406025 v 0.04415 h 0.033111 c 0.011037,0.529767 0.121405,1.026424 0.3311045,1.48997 0.2207363,0.474583 0.5076934,0.871908 0.882945,1.203013 0.2317732,0.198662 0.4966568,0.375252 0.8167243,0.529767 v 0.01103 c 0.4414726,0.209699 0.8829452,0.331104 1.3354546,0.353178 0.1214049,0 0.1876258,0.06622 0.1876258,0.198663 v 1.478933 c 0,0.121405 -0.066221,0.187625 -0.1876258,0.187625 -0.5739149,-0.03311 -1.1147188,-0.143474 -1.6334491,-0.3311 v 0.01103 C 6.2994293,19.553392 5.5158155,19.023625 4.8867171,18.295195 4.2576187,17.566765 3.8382197,16.705893 3.6616307,15.74569 v -0.03311 c -0.011037,-0.01104 -0.011037,-0.02207 -0.011037,-0.04415 -0.066221,-0.286957 -0.088295,-0.618062 -0.088295,-0.97124 z"
   id="path839"
   style="stroke-width:1.10368" /><path
   d="m 12.259309,25.976817 c 0,-0.04415 0.01103,-0.121405 0.04415,-0.253847 l 0.143478,-0.651171 c 0.07725,-0.253847 0.231774,-0.441473 0.452509,-0.562878 0.231774,-0.132442 0.463547,-0.154515 0.69532,-0.07725 0.253847,0.04415 0.452509,0.187626 0.584951,0.408362 0.132442,0.220736 0.165553,0.474583 0.0883,0.750503 l -0.143479,0.651172 c -0.110368,0.45251 -0.408362,0.673246 -0.882945,0.673246 -0.07725,0 -0.176589,-0.01103 -0.264884,-0.03311 C 12.7339,26.815624 12.55731,26.694218 12.435905,26.517628 12.325538,26.34104 12.259317,26.164451 12.259317,25.976825 Z"
   id="path833"
   style="stroke-width:1.10368" /><path
   d="m 13.131217,22.765104 c 0,-0.253846 0.0883,-0.474583 0.253847,-0.640135 0.176588,-0.176589 0.386288,-0.253847 0.651171,-0.253847 0.264885,0 0.474583,0.0883 0.651173,0.253847 0.176589,0.176589 0.253846,0.386289 0.253846,0.640135 0,0.264884 -0.0883,0.474583 -0.253846,0.651172 -0.17659,0.17659 -0.386288,0.253847 -0.651173,0.253847 -0.253846,0 -0.463546,-0.0883 -0.640135,-0.264883 -0.176588,-0.17659 -0.264883,-0.386289 -0.264883,-0.640136 z"
   id="path831"
   style="stroke-width:1.10368" /><path
   d="m 13.8155,20.259747 c 0,-0.110368 0.01103,-0.209699 0.03311,-0.297993 l 0.253846,-0.993313 c 0.07725,-0.253848 0.231774,-0.45251 0.45251,-0.584952 0.231773,-0.132442 0.463546,-0.165552 0.706356,-0.0883 0.264883,0.07725 0.45251,0.220736 0.584952,0.441472 0.132442,0.220737 0.154515,0.452509 0.07725,0.69532 l -0.286957,0.993313 c -0.0883,0.30903 -0.24281,0.507693 -0.45251,0.618062 -0.209698,0.110367 -0.452509,0.132441 -0.706355,0.06622 -0.220737,-0.04414 -0.386289,-0.15451 -0.496657,-0.331099 -0.132442,-0.176589 -0.176589,-0.353178 -0.165552,-0.518731 z"
   id="path829"
   style="stroke-width:1.10368" /><path
   d="m 16.86166,22.621626 c 0,-0.03311 0,-0.0883 0.01104,-0.143479 0.01103,-0.05518 0.01103,-0.09933 0.01103,-0.121405 l 0.09933,-0.651172 c 0.07725,-0.264883 0.220736,-0.452509 0.452509,-0.584951 0.231774,-0.132441 0.474584,-0.154515 0.750504,-0.0883 0.253846,0.07725 0.441472,0.231772 0.562877,0.452509 0.132442,0.231773 0.154516,0.463546 0.07725,0.695319 l -0.154515,0.662209 c -0.110369,0.48562 -0.386289,0.72843 -0.838798,0.72843 -0.03311,0 -0.0883,-0.01104 -0.154516,-0.02207 -0.06622,-0.01103 -0.121405,-0.02207 -0.154515,-0.02207 -0.220736,-0.06622 -0.386289,-0.187626 -0.496657,-0.364215 -0.09933,-0.176589 -0.165552,-0.353179 -0.165552,-0.540804 z"
   id="path827"
   style="stroke-width:1.10368" /><path
   d="m 17.678384,19.376802 c 0,-0.264884 0.0883,-0.474583 0.253847,-0.651172 0.176589,-0.176588 0.386289,-0.253846 0.651172,-0.253846 0.264884,0 0.474583,0.08829 0.651172,0.253846 0.17659,0.176589 0.253846,0.386288 0.253846,0.651172 0,0.253847 -0.08829,0.474583 -0.253846,0.640136 -0.165552,0.165551 -0.375251,0.253846 -0.640135,0.253846 -0.264883,0 -0.474583,-0.0883 -0.640136,-0.264883 -0.176588,-0.165552 -0.27592,-0.375252 -0.27592,-0.629099 z"
   id="path2"
   style="stroke-width:1.10368" />
<path
   inkscape:connector-curvature="0"
   d="m 6.7752287,21.817795 c -0.057943,0.153505 0,0.242809 0.1545154,0.242809 h 2.350841 l -1.578264,4.646499 H 8.0223887 L 12.83444,20.460266 c 0.04415,-0.04415 0.04415,-0.09933 0.02207,-0.154514 -0.02207,-0.05519 -0.07725,-0.07725 -0.154515,-0.07725 h -2.417059 l 2.748167,-5.132123 c 0.07725,-0.154516 0.03311,-0.242811 -0.154516,-0.242811 H 9.6116904 c -0.099331,0 -0.1876257,0.05519 -0.2538465,0.165553 -1.2820361,3.496059 -0.2751921,0.6847 -2.5826142,6.798677 z"
   id="path824"
   sodipodi:nodetypes="ssccccssccsscs"
   style="stroke-width:1.10368" /></svg>
