<?xml version="1.0" encoding="UTF-8" standalone="no"?>
<svg
   xmlns:dc="http://purl.org/dc/elements/1.1/"
   xmlns:cc="http://creativecommons.org/ns#"
   xmlns:rdf="http://www.w3.org/1999/02/22-rdf-syntax-ns#"
   xmlns:svg="http://www.w3.org/2000/svg"
   xmlns="http://www.w3.org/2000/svg"
   xmlns:sodipodi="http://sodipodi.sourceforge.net/DTD/sodipodi-0.dtd"
   xmlns:inkscape="http://www.inkscape.org/namespaces/inkscape"
   inkscape:version="1.0 (4035a4fb49, 2020-05-01)"
   sodipodi:docname="sleet-symbolic.svg"
   xml:space="preserve"
   style="enable-background:new 0 0 30 30;"
   viewBox="0 0 30 30"
   y="0px"
   x="0px"
   id="Layer_1"
   version="1.1"><metadata
   id="metadata9"><rdf:RDF><cc:Work
       rdf:about=""><dc:format>image/svg+xml</dc:format><dc:type
         rdf:resource="http://purl.org/dc/dcmitype/StillImage" /></cc:Work></rdf:RDF></metadata><defs
   id="defs7" /><sodipodi:namedview
   inkscape:current-layer="Layer_1"
   inkscape:window-maximized="0"
   inkscape:window-y="0"
   inkscape:window-x="0"
   inkscape:cy="15"
   inkscape:cx="15"
   inkscape:zoom="22.2"
   showgrid="false"
   id="namedview5"
   inkscape:window-height="918"
   inkscape:window-width="941"
   inkscape:pageshadow="2"
   inkscape:pageopacity="0"
   guidetolerance="10"
   gridtolerance="10"
   objecttolerance="10"
   borderopacity="1"
   bordercolor="#666666"
   pagecolor="#ffffff" />
<path
   style="stroke-width:1.12615"
   id="path2"
   d="m 3.3371451,14.176495 c 0,-1.306333 0.4054137,-2.466267 1.216241,-3.479801 C 5.3642134,9.6831596 6.4002705,9.0187316 7.6390344,8.7371946 7.9881407,7.1943706 8.776445,5.9330835 10.003947,4.9420723 11.23145,3.9510612 12.650398,3.4555556 14.249529,3.4555556 c 0.912181,0 1.745531,0.1463994 2.477528,0.4504596 0,0.011261 0,0.011261 0.01126,0.022523 0.945965,0.3603677 1.779315,0.9459652 2.488789,1.745531 h 0.03378 c 0.765782,0.8220884 1.272549,1.8018384 1.542825,2.9505104 h 0.349106 c 1.216241,0 2.274821,0.326583 3.187002,0.968488 v -0.01126 c 0.596859,0.405413 1.103626,0.9009194 1.509039,1.4977784 0.405414,0.596859 0.67569,1.250025 0.822089,1.959499 0.04505,0.236492 0.06757,0.427937 0.09009,0.585598 v 0.06757 c 0,0.01126 0,0.06757 0.01126,0.191445 0.01126,0.123877 0.01126,0.213968 0.01126,0.270276 v 0.03378 c 0,0.991012 -0.236491,1.914454 -0.720735,2.759066 -0.472983,0.844611 -1.126149,1.531562 -1.9595,2.038329 -0.822088,0.506767 -1.734269,0.777043 -2.72528,0.810828 -0.1464,0 -0.22523,-0.06757 -0.22523,-0.191446 v -1.509039 c 0,-0.1464 0.07883,-0.213969 0.22523,-0.213969 0.968488,-0.04505 1.779315,-0.427936 2.455005,-1.148672 0.675689,-0.720735 1.013534,-1.565347 1.013534,-2.545097 0,-1.002272 -0.360368,-1.858146 -1.092365,-2.578881 -0.720735,-0.720735 -1.58787,-1.081103 -2.601404,-1.081103 h -1.8131 c -0.135138,0 -0.202707,-0.06757 -0.202707,-0.191445 l -0.09009,-0.6644284 c -0.112615,-1.126149 -0.585597,-2.094637 -1.430209,-2.916726 -0.01126,-0.01126 -0.01126,-0.02252 -0.02252,-0.03378 -0.01126,-0.01126 -0.02252,-0.02252 -0.02252,-0.03378 -0.01126,-0.01126 -0.02252,-0.02252 -0.04505,-0.02252 0,-0.02252 -0.01126,-0.03378 -0.02252,-0.03378 C 16.682007,5.8880525 15.72478,5.4601159 14.621154,5.370024 14.542324,5.358762 14.418448,5.358762 14.238264,5.358762 c -1.238764,0 -2.308606,0.4166751 -3.220787,1.2387646 -0.91218,0.822089 -1.4302089,1.846884 -1.5428239,3.063125 l -0.09009,0.6644284 c -0.03378,0.101354 -0.123876,0.157661 -0.2477524,0.157661 l -0.5518131,0.03378 C 7.6390324,10.629135 6.8394666,11.034549 6.2088232,11.7215 5.5781797,12.408451 5.262858,13.230539 5.262858,14.176505 v 0.04505 h 0.033784 c 0.011261,0.540551 0.1238764,1.047318 0.3378447,1.520301 0.2252299,0.484244 0.5180286,0.889658 0.9009193,1.227502 0.2364913,0.202706 0.5067671,0.38289 0.8333503,0.540551 v 0.01126 c 0.4504596,0.213969 0.9009192,0.337845 1.3626403,0.360367 0.1238764,0 0.1914454,0.06757 0.1914454,0.202708 v 1.509039 c 0,0.123876 -0.067569,0.191446 -0.1914454,0.191446 C 8.1457991,19.750949 7.5939861,19.63833 7.064696,19.446883 v 0.01126 C 6.1299947,19.131551 5.3304289,18.590999 4.688524,17.847741 4.046619,17.104482 3.6186824,16.226086 3.4384985,15.246336 v -0.03378 c -0.011262,-0.01126 -0.011262,-0.02253 -0.011262,-0.04505 -0.067569,-0.292799 -0.090092,-0.630643 -0.090092,-0.991011 z m 6.19382,8.074489 c 0,-0.03379 0.01126,-0.07883 0.02252,-0.1464 0.01126,-0.05631 0.02252,-0.101353 0.02252,-0.135138 l 0.101353,-0.664428 c 0.07883,-0.270275 0.22523,-0.461721 0.4617209,-0.596859 0.236492,-0.135138 0.484244,-0.157661 0.765782,-0.09009 0.259014,0.07883 0.439198,0.236492 0.574336,0.461722 0.123876,0.236491 0.146399,0.472982 0.07883,0.709473 l -0.157661,0.67569 c -0.112615,0.495505 -0.394152,0.743258 -0.855873,0.743258 -0.03378,0 -0.09009,-0.01126 -0.157661,-0.02252 -0.06757,-0.01126 -0.112615,-0.02252 -0.157661,-0.02252 -0.2364909,-0.06757 -0.4054139,-0.191445 -0.5180279,-0.371629 -0.123877,-0.168922 -0.180184,-0.349106 -0.180184,-0.540551 z m 0.8333499,-3.310879 c 0,-0.270275 0.09009,-0.484244 0.259014,-0.664428 0.168923,-0.180183 0.394152,-0.259014 0.664428,-0.259014 0.270276,0 0.484244,0.09009 0.664428,0.259014 0.180184,0.168923 0.259014,0.394153 0.259014,0.664428 0,0.259015 -0.09009,0.472983 -0.259014,0.653167 -0.168922,0.180184 -0.394152,0.259014 -0.664428,0.259014 -0.259014,0 -0.472982,-0.09009 -0.641905,-0.270276 -0.180184,-0.180184 -0.281537,-0.394152 -0.281537,-0.641905 z m 1.846884,6.745633 c 0,-0.04505 0.01126,-0.123876 0.04505,-0.259014 l 0.1464,-0.664428 c 0.07883,-0.259014 0.236491,-0.45046 0.461721,-0.574336 0.236491,-0.135138 0.472983,-0.157661 0.709474,-0.07883 0.259014,0.04505 0.461721,0.191446 0.596859,0.416676 0.135138,0.225229 0.168922,0.484244 0.09009,0.765781 l -0.1464,0.664428 c -0.112615,0.461721 -0.416675,0.686951 -0.900919,0.686951 -0.07883,0 -0.180184,-0.01126 -0.270276,-0.03378 -0.247752,-0.06757 -0.427936,-0.191445 -0.551813,-0.371629 -0.112615,-0.180184 -0.180184,-0.360368 -0.180184,-0.551813 z m 0.889658,-3.277094 c 0,-0.259014 0.09009,-0.484244 0.259014,-0.653166 0.180184,-0.180184 0.394153,-0.259014 0.664428,-0.259014 0.270276,0 0.484245,0.09009 0.664428,0.259014 0.180184,0.180184 0.259015,0.394152 0.259015,0.653166 0,0.270276 -0.09009,0.484244 -0.259015,0.664428 -0.180183,0.180184 -0.394152,0.259015 -0.664428,0.259015 -0.259014,0 -0.472982,-0.09009 -0.653166,-0.270276 -0.180184,-0.180184 -0.270276,-0.394152 -0.270276,-0.653167 z m 0.698213,-2.556358 c 0,-0.112615 0.01126,-0.213968 0.03378,-0.30406 l 0.259014,-1.013534 c 0.07883,-0.259015 0.236492,-0.461721 0.461721,-0.596859 0.236492,-0.135138 0.472983,-0.168923 0.720736,-0.09009 0.270276,0.07883 0.461721,0.22523 0.596859,0.450459 0.135138,0.22523 0.157661,0.461722 0.07883,0.709474 l -0.292798,1.013534 c -0.09009,0.315322 -0.247753,0.518029 -0.461722,0.630644 -0.213968,0.112615 -0.461721,0.135138 -0.720735,0.06757 -0.22523,-0.04505 -0.394152,-0.157661 -0.506767,-0.337845 -0.135138,-0.180184 -0.180184,-0.360368 -0.168922,-0.52929 z m 3.108171,2.409959 c 0,-0.03378 0,-0.09009 0.01126,-0.146399 0.01126,-0.05631 0.01126,-0.101354 0.01126,-0.123877 l 0.101353,-0.664428 c 0.07883,-0.270275 0.22523,-0.461721 0.461721,-0.596859 0.236492,-0.135138 0.484245,-0.157661 0.765782,-0.09009 0.259014,0.07883 0.450459,0.236492 0.574336,0.461722 0.135138,0.236491 0.157661,0.472982 0.07883,0.709473 l -0.157661,0.67569 c -0.112614,0.495505 -0.394152,0.743258 -0.855873,0.743258 -0.03378,0 -0.09009,-0.01126 -0.157661,-0.02252 -0.06757,-0.01126 -0.123876,-0.02252 -0.157661,-0.02252 -0.225229,-0.06757 -0.394152,-0.191445 -0.506767,-0.371629 -0.101353,-0.180184 -0.168922,-0.360368 -0.168922,-0.551813 z m 0.83335,-3.310878 c 0,-0.270276 0.09009,-0.484244 0.259015,-0.664428 0.180183,-0.180184 0.394152,-0.259014 0.664427,-0.259014 0.270276,0 0.484245,0.09009 0.664428,0.259014 0.180184,0.180184 0.259015,0.394152 0.259015,0.664428 0,0.259014 -0.09009,0.484244 -0.259015,0.653166 -0.168922,0.168923 -0.38289,0.259015 -0.653166,0.259015 -0.270276,0 -0.484244,-0.09009 -0.653166,-0.270276 -0.180184,-0.168923 -0.281538,-0.382891 -0.281538,-0.641905 z" />
</svg>
