<?xml version="1.0" encoding="UTF-8" standalone="no"?>
<!-- Generator: Adobe Illustrator 15.1.0, SVG Export Plug-In . SVG Version: 6.00 Build 0)  -->

<svg
   xmlns:dc="http://purl.org/dc/elements/1.1/"
   xmlns:cc="http://creativecommons.org/ns#"
   xmlns:rdf="http://www.w3.org/1999/02/22-rdf-syntax-ns#"
   xmlns:svg="http://www.w3.org/2000/svg"
   xmlns="http://www.w3.org/2000/svg"
   xmlns:sodipodi="http://sodipodi.sourceforge.net/DTD/sodipodi-0.dtd"
   xmlns:inkscape="http://www.inkscape.org/namespaces/inkscape"
   version="1.1"
   id="Layer_1"
   x="0px"
   y="0px"
   width="100px"
   height="100px"
   viewBox="0 0 100 100"
   enable-background="new 0 0 100 100"
   xml:space="preserve"
   sodipodi:docname="Snowflake-symbolic.svg"
   inkscape:version="0.92.4 5da689c313, 2019-01-14"><metadata
   id="metadata9"><rdf:RDF><cc:Work
       rdf:about=""><dc:format>image/svg+xml</dc:format><dc:type
         rdf:resource="http://purl.org/dc/dcmitype/StillImage" /></cc:Work></rdf:RDF></metadata><defs
   id="defs7" /><sodipodi:namedview
   pagecolor="#ffffff"
   bordercolor="#666666"
   borderopacity="1"
   objecttolerance="10"
   gridtolerance="10"
   guidetolerance="10"
   inkscape:pageopacity="0"
   inkscape:pageshadow="2"
   inkscape:window-width="640"
   inkscape:window-height="480"
   id="namedview5"
   showgrid="false"
   inkscape:zoom="2.36"
   inkscape:cx="50"
   inkscape:cy="50"
   inkscape:window-x="0"
   inkscape:window-y="0"
   inkscape:window-maximized="0"
   inkscape:current-layer="Layer_1" />
<path
   d="m 88.281291,37.579172 -7.697206,4.442208 c 0.739058,2.681049 1.171485,5.487895 1.171485,8.400883 0,2.916919 -0.428496,5.723765 -1.171485,8.404814 l 7.697206,4.442208 c 3.758187,2.17393 5.047606,6.977804 2.873676,10.739922 -2.169999,3.758186 -6.973873,5.047606 -10.73599,2.873676 l -7.681482,-4.434345 c -3.942951,4.00978 -8.951245,6.942423 -14.564938,8.389089 v 8.892278 c 0,4.339998 -3.522317,7.862315 -7.862315,7.862315 -4.339997,0 -7.862314,-3.522317 -7.862314,-7.862315 V 80.837627 C 36.834235,79.390961 31.822008,76.458318 27.882989,72.448538 l -7.681482,4.434345 c -3.762118,2.17393 -8.569923,0.88451 -10.7359908,-2.873676 -2.17393,-3.762118 -0.8845104,-8.569923 2.8736758,-10.739922 l 7.697206,-4.442208 c -0.742988,-2.681049 -1.171484,-5.487895 -1.171484,-8.404814 0,-2.912988 0.424565,-5.719834 1.171484,-8.400883 L 12.339192,37.579172 C 8.5810058,35.405242 7.2915862,30.601368 9.4655162,26.83925 11.635515,23.081063 16.439389,21.791644 20.201507,23.965574 l 7.681482,4.434345 c 3.939019,-4.00978 8.951246,-6.942423 14.564939,-8.389089 v -8.892278 c 0,-4.3399978 3.522317,-7.8623148 7.862314,-7.8623148 4.339998,0 7.862315,3.522317 7.862315,7.8623148 v 8.892278 c 5.613693,1.446666 10.621987,4.379309 14.564938,8.389089 l 7.681482,-4.434345 c 3.762117,-2.17393 8.569923,-0.884511 10.73599,2.873676 2.17393,3.762118 0.884511,8.569923 -2.873676,10.739922 z M 50.310242,34.701565 c -8.683926,0 -15.724629,7.040702 -15.724629,15.720698 0,8.683926 7.040703,15.724629 15.724629,15.724629 8.683927,0 15.720699,-7.040703 15.720699,-15.724629 0,-8.679996 -7.036772,-15.720698 -15.720699,-15.720698 z"
   id="path2"
   inkscape:connector-curvature="0"
   style="clip-rule:evenodd;fill-rule:evenodd;stroke-width:3.93115735" />
</svg>