<?xml version="1.0" encoding="UTF-8" standalone="no"?>
<svg
   inkscape:version="1.3.2 (091e20ef0f, 2023-11-25, custom)"
   sodipodi:docname="snowflake-cold-symbolic.svg"
   xml:space="preserve"
   style="enable-background:new 0 0 30 30;"
   viewBox="0 0 30 30"
   y="0px"
   x="0px"
   id="Layer_1"
   version="1.1"
   xmlns:inkscape="http://www.inkscape.org/namespaces/inkscape"
   xmlns:sodipodi="http://sodipodi.sourceforge.net/DTD/sodipodi-0.dtd"
   xmlns="http://www.w3.org/2000/svg"
   xmlns:svg="http://www.w3.org/2000/svg"
   xmlns:rdf="http://www.w3.org/1999/02/22-rdf-syntax-ns#"
   xmlns:cc="http://creativecommons.org/ns#"
   xmlns:dc="http://purl.org/dc/elements/1.1/"><metadata
   id="metadata9"><rdf:RDF><cc:Work
       rdf:about=""><dc:format>image/svg+xml</dc:format><dc:type
         rdf:resource="http://purl.org/dc/dcmitype/StillImage" /></cc:Work></rdf:RDF></metadata><defs
   id="defs7" /><sodipodi:namedview
   inkscape:current-layer="Layer_1"
   inkscape:window-maximized="1"
   inkscape:window-y="0"
   inkscape:window-x="0"
   inkscape:cy="14.260563"
   inkscape:cx="14.929577"
   inkscape:zoom="14.2"
   showgrid="false"
   id="namedview5"
   inkscape:window-height="1884"
   inkscape:window-width="1080"
   inkscape:pageshadow="2"
   inkscape:pageopacity="0"
   guidetolerance="10"
   gridtolerance="10"
   objecttolerance="10"
   borderopacity="1"
   bordercolor="#666666"
   pagecolor="#ffffff"
   inkscape:showpageshadow="2"
   inkscape:pagecheckerboard="0"
   inkscape:deskcolor="#d1d1d1" />
<path
   style="stroke-width:1.78568"
   id="path2"
   d="m 1.5449075,15.026786 c 0,-0.33928 0.1249976,-0.642845 0.3571358,-0.89284 0.2321383,-0.249995 0.5178469,-0.374992 0.8571259,-0.374992 0.339279,0 0.6428444,0.124993 0.8749827,0.374992 0.2321382,0.249995 0.3571357,0.535704 0.3571357,0.89284 0,0.339277 -0.1249976,0.624986 -0.3571357,0.857125 -0.2321383,0.232138 -0.5357037,0.357136 -0.8571259,0.357136 -0.3214222,0 -0.6249876,-0.124994 -0.8571259,-0.357136 C 1.6520483,15.633916 1.5449075,15.348207 1.5449075,15.026786 Z m 3.5356443,0 c 0,-0.33928 0.1249938,-0.642845 0.3571355,-0.89284 0.2321392,-0.249995 0.5178479,-0.374992 0.8571259,-0.374992 H 12.062556 L 7.991208,9.6876048 C 7.741214,9.4733243 7.6162164,9.1876155 7.6162164,8.8483357 c 0,-0.3392792 0.1249937,-0.6249874 0.3749916,-0.8749824 0.2499951,-0.2499952 0.5357039,-0.3749927 0.8749838,-0.3749927 0.3392798,0 0.6249875,0.1249977 0.8749815,0.3749927 L 13.794666,12.026846 V 6.294815 c 0,-0.339279 0.124993,-0.6428444 0.374992,-0.8928395 0.249995,-0.249995 0.535704,-0.3749925 0.892839,-0.3749925 0.33928,0 0.624989,0.1249976 0.857126,0.3749925 0.232138,0.2499951 0.357135,0.5357037 0.357135,0.8928395 v 5.767743 l 4.089205,-4.1070616 c 0.249995,-0.249995 0.535705,-0.3749926 0.857127,-0.3749926 0.321421,0 0.624988,0.1249976 0.874981,0.3749926 0.214282,0.2499951 0.321424,0.5357041 0.321424,0.8749822 0,0.3392795 -0.107147,0.6249883 -0.321424,0.83927 l -4.071347,4.0713474 h 5.767743 c 0.321422,0 0.607131,0.124994 0.839269,0.374992 0.232138,0.249996 0.357137,0.535704 0.357137,0.89284 0,0.321422 -0.124995,0.607131 -0.357137,0.83927 -0.232138,0.232137 -0.517846,0.357136 -0.839269,0.357136 h -5.767743 l 4.089205,4.089204 c 0.214281,0.214282 0.321422,0.499991 0.321422,0.839269 0,0.339279 -0.107135,0.624988 -0.321422,0.874983 -0.249996,0.249995 -0.553561,0.374992 -0.874984,0.374992 -0.321422,0 -0.624987,-0.124993 -0.857124,-0.374992 l -4.089206,-4.107062 v 5.7856 c 0,0.339279 -0.124994,0.642845 -0.357134,0.874983 -0.232138,0.232138 -0.517847,0.357135 -0.857127,0.357135 -0.339279,0 -0.642843,-0.124994 -0.892839,-0.357135 -0.249995,-0.232138 -0.374993,-0.535704 -0.374993,-0.874983 v -5.749886 l -4.0534913,4.053491 c -0.2499952,0.249995 -0.5357041,0.374992 -0.8749827,0.374992 -0.3392787,0 -0.6249875,-0.124993 -0.8749827,-0.374992 C 7.7590701,21.740939 7.6340724,21.45523 7.6340724,21.11595 c 0,-0.339279 0.1249938,-0.60713 0.3749929,-0.839268 L 12.116127,16.187476 H 6.3305267 c -0.3392781,0 -0.6249868,-0.124993 -0.857126,-0.357136 C 5.187692,15.633916 5.0805518,15.348207 5.0805518,15.026786 Z m 0.01786,8.642685 c 0,-0.321423 0.1249938,-0.624986 0.3749916,-0.857125 0.2142818,-0.249996 0.4999905,-0.374994 0.83927,-0.374994 0.3392781,0 0.6249867,0.124994 0.874982,0.374994 0.2499953,0.249995 0.3749929,0.535702 0.3749929,0.857125 0,0.321422 -0.1249938,0.624989 -0.3749929,0.857126 -0.2499953,0.249996 -0.5357039,0.374993 -0.874982,0.374993 -0.3392795,0 -0.6249882,-0.124994 -0.83927,-0.374993 C 5.2234093,24.29446 5.0984117,24.008751 5.0984118,23.669471 Z m 0,-17.3389424 c 0,-0.3214222 0.1249938,-0.6249876 0.3749916,-0.8571259 0.2142818,-0.2499951 0.4999905,-0.3749926 0.83927,-0.3749926 0.3392781,0 0.6249867,0.1249976 0.874982,0.3749926 0.2499954,0.249995 0.374993,0.5357037 0.374993,0.8571259 0,0.3214222 -0.1249937,0.6249876 -0.3749929,0.8749827 C 6.93766,7.4555063 6.6519514,7.5805038 6.3126733,7.5805038 5.9733938,7.5805038 5.6876851,7.4555062 5.4734034,7.2055113 5.2234068,6.9555162 5.0984092,6.6519508 5.0984092,6.3305286 Z M 13.758956,27.240829 c 0,-0.321423 0.124993,-0.607131 0.374991,-0.839269 0.249995,-0.232138 0.535704,-0.357135 0.892839,-0.357135 0.33928,0 0.624988,0.124993 0.857126,0.357135 0.232138,0.232138 0.357135,0.517846 0.357135,0.839269 0,0.33928 -0.124994,0.642844 -0.357135,0.874983 -0.23214,0.232137 -0.517849,0.357136 -0.857129,0.357136 -0.339277,0 -0.642843,-0.124994 -0.892839,-0.357136 -0.249995,-0.232139 -0.374992,-0.517846 -0.374992,-0.874983 z m 0,-24.4816584 c 0,-0.3392789 0.124993,-0.6428443 0.374991,-0.8749826 0.249995,-0.2321382 0.535704,-0.3571359 0.892839,-0.3571359 0.33928,0 0.624988,0.1249977 0.857126,0.3571359 0.232138,0.2321383 0.357135,0.5357037 0.357135,0.8749826 0,0.3214223 -0.124994,0.6071309 -0.357135,0.8392692 -0.232138,0.2321384 -0.517846,0.3571359 -0.857126,0.3571359 -0.339278,0 -0.642844,-0.1249977 -0.892839,-0.3571358 -0.249998,-0.2321384 -0.374995,-0.517847 -0.374995,-0.8392693 z m 8.696255,20.9103004 c 0,-0.321423 0.124993,-0.624986 0.374991,-0.857125 0.214281,-0.249996 0.499991,-0.374994 0.83927,-0.374994 0.33928,0 0.624986,0.124994 0.874982,0.374994 0.249995,0.249995 0.374993,0.535702 0.374993,0.857125 0,0.321422 -0.124993,0.624989 -0.374993,0.857126 -0.249996,0.249996 -0.535703,0.374993 -0.874982,0.374993 -0.339279,0 -0.624989,-0.124994 -0.83927,-0.374993 -0.249994,-0.232137 -0.374991,-0.517846 -0.374991,-0.857126 z m 0,-17.3389424 c 0,-0.3214222 0.124993,-0.6249876 0.374991,-0.8571259 0.214281,-0.2499951 0.499991,-0.3749926 0.83927,-0.3749926 0.33928,0 0.624986,0.1249976 0.874982,0.3749926 0.249995,0.249995 0.374993,0.5357037 0.374993,0.8571259 0,0.3214222 -0.124993,0.6249876 -0.374993,0.8749827 -0.249996,0.249995 -0.535703,0.3749925 -0.874982,0.3749925 -0.339279,0 -0.624989,-0.1249976 -0.83927,-0.3749925 C 22.580205,6.9555162 22.455208,6.6519508 22.455208,6.3305286 Z m 3.571358,8.6962574 c 0,-0.33928 0.124993,-0.642845 0.357135,-0.89284 0.232138,-0.249995 0.535704,-0.374992 0.874982,-0.374992 0.321423,0 0.607132,0.124993 0.839269,0.374992 0.232138,0.249995 0.357137,0.535704 0.357137,0.89284 0,0.321421 -0.124994,0.60713 -0.357137,0.839268 -0.232137,0.232138 -0.517846,0.357136 -0.839269,0.357136 -0.339278,0 -0.642845,-0.124994 -0.874982,-0.357136 -0.232137,-0.232138 -0.357135,-0.517847 -0.357135,-0.839268 z" />
</svg>
