<?xml version="1.0" encoding="UTF-8" standalone="no"?>
<svg
   xmlns:dc="http://purl.org/dc/elements/1.1/"
   xmlns:cc="http://creativecommons.org/ns#"
   xmlns:rdf="http://www.w3.org/1999/02/22-rdf-syntax-ns#"
   xmlns:svg="http://www.w3.org/2000/svg"
   xmlns="http://www.w3.org/2000/svg"
   xmlns:sodipodi="http://sodipodi.sourceforge.net/DTD/sodipodi-0.dtd"
   xmlns:inkscape="http://www.inkscape.org/namespaces/inkscape"
   inkscape:version="1.0 (4035a4fb49, 2020-05-01)"
   sodipodi:docname="snow-wind-symbolic.svg"
   xml:space="preserve"
   style="enable-background:new 0 0 30 30;"
   viewBox="0 0 30 30"
   y="0px"
   x="0px"
   id="Layer_1"
   version="1.1"><metadata
   id="metadata9"><rdf:RDF><cc:Work
       rdf:about=""><dc:format>image/svg+xml</dc:format><dc:type
         rdf:resource="http://purl.org/dc/dcmitype/StillImage" /></cc:Work></rdf:RDF></metadata><defs
   id="defs7" /><sodipodi:namedview
   inkscape:current-layer="Layer_1"
   inkscape:window-maximized="0"
   inkscape:window-y="0"
   inkscape:window-x="0"
   inkscape:cy="15"
   inkscape:cx="15"
   inkscape:zoom="22.2"
   showgrid="false"
   id="namedview5"
   inkscape:window-height="1004"
   inkscape:window-width="1029"
   inkscape:pageshadow="2"
   inkscape:pageopacity="0"
   guidetolerance="10"
   gridtolerance="10"
   objecttolerance="10"
   borderopacity="1"
   bordercolor="#666666"
   pagecolor="#ffffff" />
<path
   style="stroke-width:1.12249"
   id="path2"
   d="m 3.4627638,14.251709 c 0,-1.302094 0.392873,-2.447038 1.1898438,-3.457282 C 5.4495785,9.7841823 6.4710482,9.1331357 7.7282417,8.8188373 8.0762149,7.2922452 8.8619609,6.0350517 10.08548,5.0472568 c 1.223518,-0.9877949 2.626636,-1.4704674 4.209353,-1.4704674 1.549042,0 2.918485,0.4826725 4.130779,1.4367926 1.212293,0.95412 1.998039,2.1888636 2.357237,3.6930059 h 0.359199 c 0.999019,0 1.93069,0.2469487 2.783785,0.7408461 0.853096,0.4938975 1.537817,1.167394 2.031715,2.020489 0.493897,0.853096 0.752071,1.784766 0.752071,2.783786 0,1.481692 -0.516348,2.77256 -1.560267,3.83893 -1.032695,1.077594 -2.301113,1.638841 -3.794031,1.683741 -0.145924,0 -0.224498,-0.06735 -0.224498,-0.190824 v -1.492917 c 0,-0.134699 0.07857,-0.202049 0.224498,-0.202049 0.954121,-0.0449 1.773541,-0.426548 2.447038,-1.144944 0.673496,-0.718396 1.010245,-1.549042 1.010245,-2.503162 0,-0.99902 -0.359199,-1.852116 -1.08882,-2.581737 -0.729621,-0.729621 -1.593942,-1.088819 -2.604186,-1.088819 h -1.807216 c -0.134699,0 -0.202049,-0.06735 -0.202049,-0.190824 l -0.0898,-0.6510464 C 18.897059,8.5157639 18.369487,7.4942941 17.460267,6.6748734 16.539821,5.8554526 15.484677,5.4401298 14.261158,5.4401298 c -1.234743,0 -2.301113,0.4153228 -3.210333,1.2459685 C 10.141604,7.516744 9.6252569,8.5382137 9.5130075,9.7729574 l -0.06735,0.5612466 c 0,0.1347 -0.078575,0.213274 -0.2244989,0.213274 l -0.5949219,0.07858 c -0.9316702,0.07857 -1.7174161,0.460222 -2.3572378,1.167393 -0.6398217,0.707172 -0.9541201,1.515368 -0.9541201,2.458263 0,0.95412 0.3367483,1.784766 1.0102448,2.503162 0.6734965,0.718396 1.4929173,1.088819 2.4470373,1.144944 0.1234744,0 0.1908241,0.06735 0.1908241,0.202049 v 1.492917 c 0,0.123474 -0.06735,0.190824 -0.1908241,0.190824 C 7.2680187,19.74071 5.9996003,19.179463 4.9556807,18.101869 3.9791107,17.024274 3.4627634,15.733406 3.4627634,14.251714 Z m 6.1737181,8.643205 c 0,-0.258174 0.089799,-0.482672 0.2806235,-0.673496 0.1795986,-0.168375 0.3928726,-0.258174 0.6398216,-0.258174 0.258174,0 0.482673,0.0898 0.662272,0.258174 0.179599,0.168374 0.269399,0.392872 0.269399,0.662271 0,0.269399 -0.0898,0.482673 -0.269399,0.662272 -0.179599,0.179599 -0.392873,0.258173 -0.662272,0.258173 -0.258174,0 -0.482672,-0.0898 -0.6622715,-0.258173 C 9.7262814,23.377587 9.6364819,23.153088 9.6364819,22.894914 Z M 10.601827,18.82026 c 0,-0.246949 0.0898,-0.471447 0.269399,-0.651047 0.179599,-0.179599 0.392873,-0.269398 0.662271,-0.269398 0.258174,0 0.482673,0.0898 0.662272,0.269398 0.179599,0.1796 0.269398,0.404098 0.269398,0.651047 0,0.269399 -0.0898,0.493898 -0.269398,0.673497 -0.179599,0.190824 -0.392873,0.280623 -0.662272,0.280623 -0.258173,0 -0.482672,-0.0898 -0.662271,-0.280623 -0.1796,-0.179599 -0.269399,-0.404098 -0.269399,-0.673497 z m 2.132739,6.274743 c 0,-0.258174 0.0898,-0.482673 0.280624,-0.684722 0.179599,-0.179599 0.392873,-0.269398 0.639821,-0.269398 0.269399,0 0.493898,0.0898 0.684722,0.280623 0.190824,0.190824 0.280623,0.415323 0.280623,0.673497 0,0.258173 -0.0898,0.482672 -0.280623,0.662271 -0.190824,0.179599 -0.415323,0.269399 -0.684722,0.269399 -0.258173,0 -0.471447,-0.0898 -0.651046,-0.269399 -0.168374,-0.190824 -0.269399,-0.404098 -0.269399,-0.662271 z m 0.97657,-4.108329 c 0,-0.269399 0.0898,-0.493898 0.269399,-0.695946 0.179599,-0.1796 0.404098,-0.269399 0.651046,-0.269399 0.258174,0 0.482673,0.0898 0.673497,0.280623 0.190824,0.190824 0.280623,0.415323 0.280623,0.684722 0,0.258174 -0.0898,0.482672 -0.280623,0.673496 -0.190824,0.190824 -0.415323,0.280624 -0.673497,0.280624 -0.258173,0 -0.471447,-0.0898 -0.651046,-0.280624 -0.179599,-0.190824 -0.269399,-0.415322 -0.269399,-0.673496 z m 0.471448,-4.063429 c 0,-0.258174 0.0898,-0.482673 0.280623,-0.673497 0.202049,-0.179599 0.415323,-0.269398 0.639822,-0.269398 0.269398,0 0.493897,0.0898 0.684721,0.280623 0.190824,0.190824 0.280624,0.404098 0.280624,0.673497 0,0.258174 -0.0898,0.482672 -0.280624,0.662271 -0.190824,0.1796 -0.415323,0.269399 -0.684721,0.269399 -0.258174,0 -0.471448,-0.0898 -0.651047,-0.269399 -0.179599,-0.190824 -0.269398,-0.415322 -0.269398,-0.673496 z m 2.660311,5.971669 c 0,-0.258174 0.0898,-0.482672 0.269398,-0.673496 0.179599,-0.168375 0.404098,-0.258174 0.673497,-0.258174 0.269399,0 0.482672,0.0898 0.662272,0.258174 0.179599,0.179599 0.258173,0.392872 0.258173,0.662271 0,0.269399 -0.0898,0.482673 -0.258173,0.662272 -0.1796,0.179599 -0.392873,0.258173 -0.662272,0.258173 -0.269399,0 -0.493898,-0.0898 -0.673497,-0.269398 -0.179599,-0.168374 -0.269398,-0.381648 -0.269398,-0.639822 z m 0.95412,-4.074654 c 0,-0.246949 0.0898,-0.460223 0.280623,-0.651047 0.190824,-0.190824 0.415323,-0.280623 0.673497,-0.280623 0.258174,0 0.482672,0.0898 0.662272,0.269399 0.179599,0.179599 0.269398,0.404097 0.269398,0.651046 0,0.269399 -0.0898,0.493898 -0.269398,0.673497 -0.1796,0.190824 -0.392873,0.280623 -0.662272,0.280623 -0.269399,0 -0.493897,-0.0898 -0.673497,-0.280623 -0.179599,-0.179599 -0.280623,-0.404098 -0.280623,-0.662272 z" />
</svg>
