<?xml version="1.0" encoding="UTF-8" standalone="no"?>
<svg
   xmlns:dc="http://purl.org/dc/elements/1.1/"
   xmlns:cc="http://creativecommons.org/ns#"
   xmlns:rdf="http://www.w3.org/1999/02/22-rdf-syntax-ns#"
   xmlns:svg="http://www.w3.org/2000/svg"
   xmlns="http://www.w3.org/2000/svg"
   xmlns:sodipodi="http://sodipodi.sourceforge.net/DTD/sodipodi-0.dtd"
   xmlns:inkscape="http://www.inkscape.org/namespaces/inkscape"
   inkscape:version="1.0 (4035a4fb49, 2020-05-01)"
   sodipodi:docname="snow-symbolic.svg"
   xml:space="preserve"
   style="enable-background:new 0 0 30 30;"
   viewBox="0 0 30 30"
   y="0px"
   x="0px"
   id="Layer_1"
   version="1.1"><metadata
   id="metadata9"><rdf:RDF><cc:Work
       rdf:about=""><dc:format>image/svg+xml</dc:format><dc:type
         rdf:resource="http://purl.org/dc/dcmitype/StillImage" /></cc:Work></rdf:RDF></metadata><defs
   id="defs7" /><sodipodi:namedview
   inkscape:current-layer="Layer_1"
   inkscape:window-maximized="0"
   inkscape:window-y="0"
   inkscape:window-x="0"
   inkscape:cy="15"
   inkscape:cx="15"
   inkscape:zoom="22.2"
   showgrid="false"
   id="namedview5"
   inkscape:window-height="908"
   inkscape:window-width="949"
   inkscape:pageshadow="2"
   inkscape:pageopacity="0"
   guidetolerance="10"
   gridtolerance="10"
   objecttolerance="10"
   borderopacity="1"
   bordercolor="#666666"
   pagecolor="#ffffff" />
<path
   style="stroke-width:1.14356"
   id="path2"
   d="m 3.2575702,14.441533 c 0,-1.326522 0.4002439,-2.492948 1.2121673,-3.522146 C 5.2816609,9.890188 6.3222951,9.226926 7.6030757,8.9067307 7.9575775,7.3514973 8.7580653,6.0707171 10.004539,5.0643895 11.251014,4.058062 12.680456,3.5663337 14.292868,3.5663337 c 1.578105,0 2.97324,0.4917283 4.208278,1.4637492 1.23504,0.9720209 2.035527,2.2299304 2.401464,3.7622932 h 0.365937 c 1.017764,0 1.966913,0.2515818 2.836015,0.7547452 0.869101,0.5031637 1.566669,1.1892967 2.069833,2.0583977 0.503163,0.869101 0.76618,1.818251 0.76618,2.836014 0,1.509491 -0.526035,2.824579 -1.589539,3.910955 -1.05207,1.097812 -2.344286,1.669589 -3.865213,1.715331 -0.148662,0 -0.228711,-0.06861 -0.228711,-0.194404 v -1.520927 c 0,-0.137226 0.08005,-0.20584 0.228711,-0.20584 0.97202,-0.04575 1.806815,-0.434551 2.492948,-1.166425 0.686132,-0.731875 1.029198,-1.578104 1.029198,-2.550126 0,-1.017762 -0.365937,-1.886863 -1.109247,-2.630174 -0.74331,-0.74331 -1.623847,-1.109247 -2.653045,-1.109247 h -1.841123 c -0.137226,0 -0.205839,-0.06861 -0.205839,-0.194404 L 19.107235,9.83301 C 18.981443,8.5979712 18.443973,7.557337 17.517694,6.7225425 16.57998,5.8877484 15.505039,5.4646335 14.258566,5.4646335 c -1.25791,0 -2.344286,0.4231149 -3.270565,1.2693448 -0.92628,0.8462302 -1.4523153,1.8868644 -1.5666699,3.1447737 l -0.068613,0.571778 c 0,0.137226 -0.080051,0.217275 -0.2287112,0.217275 l -0.6060833,0.08005 c -0.9491499,0.08005 -1.7496377,0.468857 -2.4014636,1.189296 -0.6518258,0.720438 -0.9720209,1.543798 -0.9720209,2.504383 0,0.972022 0.3430662,1.818251 1.0291986,2.550126 0.6861324,0.731874 1.5209269,1.109247 2.4929479,1.166425 0.1257909,0 0.1944038,0.06861 0.1944038,0.20584 v 1.520927 c 0,0.12579 -0.068613,0.194404 -0.1944038,0.194404 -1.5323676,-0.04575 -2.8245837,-0.617522 -3.888089,-1.715334 -0.994892,-1.097812 -1.5209269,-2.4129 -1.5209269,-3.922391 z m 7.2730048,4.654265 c 0,-0.251581 0.09149,-0.480293 0.274453,-0.663261 0.182969,-0.182969 0.400243,-0.274453 0.674697,-0.274453 0.263017,0 0.491728,0.09148 0.674696,0.274453 0.18297,0.182968 0.274454,0.41168 0.274454,0.663261 0,0.274454 -0.09148,0.503164 -0.274454,0.686133 -0.182968,0.194404 -0.400243,0.285888 -0.674696,0.285888 -0.263018,0 -0.491728,-0.09148 -0.674697,-0.285888 -0.182968,-0.182969 -0.274453,-0.411679 -0.274453,-0.686133 z m 0,4.151101 c 0,-0.274453 0.09149,-0.503163 0.274453,-0.686132 0.182969,-0.171533 0.400243,-0.263018 0.663261,-0.263018 0.263017,0 0.491729,0.09148 0.674697,0.263018 0.182969,0.182969 0.274453,0.400244 0.274453,0.674697 0,0.274453 -0.09148,0.491728 -0.274453,0.674696 -0.182968,0.18297 -0.400244,0.263018 -0.674697,0.263018 -0.263018,0 -0.491728,-0.09148 -0.674697,-0.263018 -0.171532,-0.171532 -0.263017,-0.400243 -0.263017,-0.663261 z m 3.647937,-1.944042 c 0,-0.263017 0.09149,-0.503163 0.285889,-0.709003 0.182968,-0.182968 0.400244,-0.274453 0.651825,-0.274453 0.263018,0 0.491729,0.102919 0.686133,0.297325 0.194404,0.194403 0.297324,0.423114 0.297324,0.686131 0,0.263018 -0.09148,0.491729 -0.285888,0.686133 -0.194404,0.194405 -0.423115,0.285889 -0.697569,0.285889 -0.263017,0 -0.480292,-0.09148 -0.663261,-0.285889 -0.182968,-0.194404 -0.274453,-0.423115 -0.274453,-0.686133 z m 0,-4.139665 c 0,-0.263018 0.09149,-0.491729 0.285889,-0.686133 0.20584,-0.182968 0.423115,-0.274453 0.651825,-0.274453 0.274454,0 0.503165,0.09148 0.697569,0.285889 0.194404,0.194404 0.285888,0.411679 0.285888,0.686133 0,0.263017 -0.09148,0.491727 -0.285888,0.674697 -0.194404,0.182968 -0.423115,0.274452 -0.697569,0.274452 -0.263017,0 -0.480292,-0.09148 -0.663261,-0.274452 -0.182968,-0.194405 -0.274453,-0.423116 -0.274453,-0.686133 z m 0,8.325073 c 0,-0.263017 0.09149,-0.491727 0.285889,-0.697568 0.182968,-0.182968 0.400244,-0.274452 0.651825,-0.274452 0.274454,0 0.503165,0.09148 0.697569,0.285888 0.194404,0.194405 0.285888,0.423115 0.285888,0.686132 0,0.263018 -0.09148,0.491729 -0.285888,0.674697 -0.194404,0.182969 -0.423115,0.274453 -0.697569,0.274453 -0.263017,0 -0.480292,-0.09148 -0.663261,-0.274453 -0.182968,-0.194404 -0.274453,-0.411679 -0.274453,-0.674697 z m 3.682245,-6.392467 c 0,-0.251581 0.09148,-0.468857 0.285888,-0.663261 0.194404,-0.194405 0.423115,-0.285889 0.686132,-0.285889 0.263018,0 0.491728,0.09148 0.674697,0.274454 0.182968,0.182968 0.274454,0.411679 0.274454,0.663261 0,0.274453 -0.09148,0.503163 -0.274454,0.686132 -0.182969,0.194404 -0.400243,0.285888 -0.674697,0.285888 -0.274453,0 -0.503163,-0.09148 -0.686132,-0.285888 -0.182968,-0.182969 -0.285888,-0.411679 -0.285888,-0.674697 z m 0,4.151101 c 0,-0.251581 0.09148,-0.480293 0.285888,-0.686132 0.182969,-0.171533 0.411679,-0.263018 0.686132,-0.263018 0.274454,0 0.491728,0.09148 0.674697,0.263018 0.182968,0.171533 0.263018,0.400244 0.263018,0.674697 0,0.274453 -0.09148,0.491728 -0.263018,0.674696 -0.182969,0.18297 -0.400243,0.263018 -0.674697,0.263018 -0.274453,0 -0.503163,-0.09148 -0.686132,-0.274452 -0.182968,-0.171534 -0.285888,-0.388809 -0.285888,-0.651827 z" />
</svg>
