<?xml version="1.0" encoding="UTF-8" standalone="no"?>
<svg
   xmlns:dc="http://purl.org/dc/elements/1.1/"
   xmlns:cc="http://creativecommons.org/ns#"
   xmlns:rdf="http://www.w3.org/1999/02/22-rdf-syntax-ns#"
   xmlns:svg="http://www.w3.org/2000/svg"
   xmlns="http://www.w3.org/2000/svg"
   xmlns:sodipodi="http://sodipodi.sourceforge.net/DTD/sodipodi-0.dtd"
   xmlns:inkscape="http://www.inkscape.org/namespaces/inkscape"
   inkscape:version="1.0 (4035a4fb49, 2020-05-01)"
   sodipodi:docname="snowflake-cold-symbolic.svg"
   xml:space="preserve"
   style="enable-background:new 0 0 30 30;"
   viewBox="0 0 30 30"
   y="0px"
   x="0px"
   id="Layer_1"
   version="1.1"><metadata
   id="metadata9"><rdf:RDF><cc:Work
       rdf:about=""><dc:format>image/svg+xml</dc:format><dc:type
         rdf:resource="http://purl.org/dc/dcmitype/StillImage" /></cc:Work></rdf:RDF></metadata><defs
   id="defs7" /><sodipodi:namedview
   inkscape:current-layer="Layer_1"
   inkscape:window-maximized="0"
   inkscape:window-y="0"
   inkscape:window-x="0"
   inkscape:cy="14.262146"
   inkscape:cx="10.075011"
   inkscape:zoom="14.2"
   showgrid="false"
   id="namedview5"
   inkscape:window-height="815"
   inkscape:window-width="960"
   inkscape:pageshadow="2"
   inkscape:pageopacity="0"
   guidetolerance="10"
   gridtolerance="10"
   objecttolerance="10"
   borderopacity="1"
   bordercolor="#666666"
   pagecolor="#ffffff" />
<path
   style="stroke-width:1.48775"
   id="path2"
   d="m 3.9180998,15.161109 c 0,-0.282673 0.1041425,-0.53559 0.2975498,-0.743875 0.1934074,-0.208285 0.4314472,-0.312427 0.7141195,-0.312427 0.2826723,0 0.5355896,0.104139 0.728997,0.312427 0.1934073,0.208285 0.2975497,0.446325 0.2975497,0.743875 0,0.282671 -0.1041425,0.520711 -0.2975497,0.714119 -0.1934074,0.193407 -0.4463247,0.29755 -0.7141195,0.29755 -0.2677948,0 -0.5207121,-0.10414 -0.7141195,-0.29755 C 4.0073648,15.666943 3.9180998,15.428903 3.9180998,15.161109 Z m 2.9457429,0 c 0,-0.282673 0.1041393,-0.53559 0.2975496,-0.743875 0.1934081,-0.208285 0.431448,-0.312427 0.7141195,-0.312427 H 12.680941 L 9.2888731,10.712739 C 9.0805891,10.53421 8.9764466,10.29617 8.9764466,10.013497 c 0,-0.2826724 0.1041393,-0.5207119 0.3124265,-0.7289967 0.2082849,-0.208285 0.4463249,-0.3124274 0.7289979,-0.3124274 0.282673,0 0.520712,0.1041426 0.728996,0.3124274 l 3.377191,3.3771907 V 7.8860162 c 0,-0.2826723 0.104139,-0.5355896 0.312427,-0.7438745 0.208285,-0.2082848 0.446325,-0.3124272 0.743874,-0.3124272 0.282673,0 0.520713,0.1041425 0.71412,0.3124272 0.193408,0.2082849 0.29755,0.4463247 0.29755,0.7438745 v 4.8054288 l 3.406945,-3.4218223 c 0.208285,-0.2082848 0.446325,-0.3124273 0.71412,-0.3124273 0.267794,0 0.520712,0.1041425 0.728996,0.3124273 0.17853,0.2082849 0.267796,0.446325 0.267796,0.7289966 0,0.2826727 -0.08927,0.5207127 -0.267796,0.6992427 l -3.392067,3.392067 h 4.805429 c 0.267795,0 0.505835,0.104139 0.699242,0.312427 0.193407,0.208285 0.29755,0.446325 0.29755,0.743875 0,0.267794 -0.10414,0.505834 -0.29755,0.699242 -0.193407,0.193407 -0.431447,0.29755 -0.699242,0.29755 h -4.805429 l 3.406945,3.406945 c 0.17853,0.17853 0.267795,0.41657 0.267795,0.699242 0,0.282672 -0.08926,0.520712 -0.267795,0.728997 -0.208285,0.208285 -0.461202,0.312427 -0.728998,0.312427 -0.267794,0 -0.520711,-0.104139 -0.714118,-0.312427 l -3.406946,-3.421823 v 4.820307 c 0,0.282672 -0.104139,0.53559 -0.297549,0.728997 -0.193407,0.193407 -0.431447,0.297549 -0.71412,0.297549 -0.282673,0 -0.535589,-0.104139 -0.743874,-0.297549 -0.208285,-0.193407 -0.312428,-0.446325 -0.312428,-0.728997 v -4.790552 l -3.37719,3.37719 c -0.208285,0.208285 -0.446325,0.312427 -0.728997,0.312427 -0.282672,0 -0.520712,-0.104139 -0.728997,-0.312427 -0.208285,-0.208284 -0.3124275,-0.446324 -0.3124275,-0.728997 0,-0.282672 0.1041393,-0.505834 0.3124275,-0.699241 l 3.421823,-3.406946 H 7.9052667 c -0.2826716,0 -0.5207115,-0.104139 -0.7141196,-0.29755 C 6.9531072,15.666943 6.8638427,15.428903 6.8638427,15.161109 Z m 0.01488,7.200704 c 0,-0.267795 0.1041393,-0.520711 0.3124265,-0.714119 0.1785301,-0.208285 0.41657,-0.312428 0.6992427,-0.312428 0.2826716,0 0.5207114,0.104139 0.7289964,0.312428 0.2082851,0.208285 0.3124276,0.446324 0.3124276,0.714119 0,0.267795 -0.1041393,0.520713 -0.3124276,0.71412 -0.208285,0.208285 -0.4463248,0.312427 -0.7289964,0.312427 -0.2826727,0 -0.5207126,-0.104139 -0.6992427,-0.312427 -0.2082839,-0.193407 -0.3124264,-0.431447 -0.3124265,-0.71412 z m 0,-14.4460418 c 0,-0.2677948 0.1041393,-0.5207121 0.3124265,-0.7141195 0.1785301,-0.2082849 0.41657,-0.3124273 0.6992427,-0.3124273 0.2826716,0 0.5207114,0.1041425 0.7289964,0.3124273 0.2082852,0.2082848 0.3124277,0.4463247 0.3124277,0.7141195 0,0.2677948 -0.1041393,0.5207121 -0.3124276,0.728997 C 8.4111034,8.853053 8.1730636,8.9571954 7.890392,8.9571954 7.6077193,8.9571954 7.3696794,8.8530529 7.1911493,8.6447682 6.9828632,8.4364833 6.8787207,8.183566 6.8787207,7.9157712 Z M 14.094306,25.337311 c 0,-0.267795 0.104139,-0.505835 0.312426,-0.699242 0.208285,-0.193407 0.446325,-0.297549 0.743874,-0.297549 0.282673,0 0.520713,0.104139 0.71412,0.297549 0.193408,0.193407 0.29755,0.431447 0.29755,0.699242 0,0.282673 -0.10414,0.535589 -0.29755,0.728997 -0.193409,0.193407 -0.431449,0.29755 -0.714122,0.29755 -0.282671,0 -0.535589,-0.104139 -0.743874,-0.29755 -0.208285,-0.193408 -0.312427,-0.431446 -0.312427,-0.728997 z m 0,-20.3970378 c 0,-0.2826722 0.104139,-0.5355895 0.312426,-0.7289969 0.208285,-0.1934073 0.446325,-0.2975499 0.743874,-0.2975499 0.282673,0 0.520713,0.1041426 0.71412,0.2975499 0.193408,0.1934074 0.29755,0.4463247 0.29755,0.7289969 0,0.2677949 -0.10414,0.5058347 -0.29755,0.6992421 -0.193407,0.1934074 -0.431447,0.2975498 -0.71412,0.2975498 -0.282671,0 -0.535589,-0.1041425 -0.743874,-0.2975498 C 14.198445,5.4461079 14.094303,5.2080681 14.094303,4.9402732 Z m 7.245337,17.4215398 c 0,-0.267795 0.104139,-0.520711 0.312426,-0.714119 0.17853,-0.208285 0.41657,-0.312428 0.699243,-0.312428 0.282672,0 0.520711,0.104139 0.728996,0.312428 0.208285,0.208285 0.312428,0.446324 0.312428,0.714119 0,0.267795 -0.104139,0.520713 -0.312428,0.71412 -0.208285,0.208285 -0.446324,0.312427 -0.728996,0.312427 -0.282673,0 -0.520713,-0.104139 -0.699243,-0.312427 -0.208284,-0.193407 -0.312426,-0.431447 -0.312426,-0.71412 z m 0,-14.4460418 c 0,-0.2677948 0.104139,-0.5207121 0.312426,-0.7141195 0.17853,-0.2082849 0.41657,-0.3124273 0.699243,-0.3124273 0.282672,0 0.520711,0.1041425 0.728996,0.3124273 0.208285,0.2082848 0.312428,0.4463247 0.312428,0.7141195 0,0.2677948 -0.104139,0.5207121 -0.312428,0.728997 -0.208285,0.2082848 -0.446324,0.3124272 -0.728996,0.3124272 -0.282673,0 -0.520713,-0.1041425 -0.699243,-0.3124272 C 21.443783,8.4364833 21.339641,8.183566 21.339641,7.9157712 Z m 2.975498,7.2453378 c 0,-0.282673 0.104139,-0.53559 0.297549,-0.743875 0.193407,-0.208285 0.446325,-0.312427 0.728997,-0.312427 0.267795,0 0.505835,0.104139 0.699242,0.312427 0.193407,0.208285 0.29755,0.446325 0.29755,0.743875 0,0.267794 -0.104139,0.505834 -0.29755,0.699241 -0.193407,0.193407 -0.431447,0.29755 -0.699242,0.29755 -0.282672,0 -0.53559,-0.104139 -0.728997,-0.29755 -0.193407,-0.193407 -0.297549,-0.431447 -0.297549,-0.699241 z" />
</svg>
