<?xml version="1.0" encoding="UTF-8" standalone="no"?>
<!-- Generator: Adobe Illustrator 22.0.1, SVG Export Plug-In . SVG Version: 6.00 Build 0)  -->

<svg
   version="1.1"
   id="Layer_1"
   x="0px"
   y="0px"
   viewBox="0 0 30 30"
   style="enable-background:new 0 0 30 30;"
   xml:space="preserve"
   sodipodi:docname="strong-wind-symbolic.svg"
   inkscape:version="1.3.2 (091e20ef0f, 2023-11-25, custom)"
   xmlns:inkscape="http://www.inkscape.org/namespaces/inkscape"
   xmlns:sodipodi="http://sodipodi.sourceforge.net/DTD/sodipodi-0.dtd"
   xmlns="http://www.w3.org/2000/svg"
   xmlns:svg="http://www.w3.org/2000/svg"><defs
   id="defs1" /><sodipodi:namedview
   id="namedview1"
   pagecolor="#ffffff"
   bordercolor="#666666"
   borderopacity="1.0"
   inkscape:showpageshadow="2"
   inkscape:pageopacity="0.0"
   inkscape:pagecheckerboard="0"
   inkscape:deskcolor="#d1d1d1"
   inkscape:zoom="14.6"
   inkscape:cx="15"
   inkscape:cy="14.965753"
   inkscape:window-width="1080"
   inkscape:window-height="1884"
   inkscape:window-x="0"
   inkscape:window-y="0"
   inkscape:window-maximized="1"
   inkscape:current-layer="Layer_1" />
<path
   d="m 1.2744438,16.897356 c 0,0.276818 0.1038067,0.519034 0.3229543,0.715113 0.1845453,0.219147 0.426761,0.322954 0.7266471,0.322954 H 19.267609 c 0.334489,0 0.611307,0.115341 0.841988,0.346023 0.230682,0.230681 0.346023,0.519033 0.346023,0.853522 0,0.334488 -0.115341,0.611306 -0.346023,0.830453 -0.230681,0.219148 -0.507499,0.334489 -0.853522,0.334489 -0.334488,0 -0.62284,-0.115341 -0.841988,-0.334489 -0.184545,-0.207613 -0.415227,-0.299886 -0.692045,-0.299886 -0.288352,0 -0.530567,0.103807 -0.738181,0.299886 -0.207613,0.19608 -0.31142,0.438295 -0.31142,0.703579 0,0.288352 0.103807,0.530568 0.322954,0.726647 0.645909,0.634375 1.407158,0.957329 2.26068,0.957329 0.899658,0 1.672442,-0.31142 2.31835,-0.93426 0.645909,-0.622841 0.957329,-1.372556 0.957329,-2.272214 0,-0.899659 -0.322954,-1.660908 -0.968863,-2.306816 -0.645908,-0.645909 -1.418692,-0.968863 -2.306816,-0.968863 H 2.3240452 c -0.2883521,0 -0.5305679,0.103807 -0.7381813,0.299886 -0.2076135,0.19608 -0.3114202,0.438295 -0.3114201,0.726647 z m 0,-3.783178 c 0,0.265284 0.1038067,0.495966 0.3229543,0.703579 0.1960793,0.207614 0.438295,0.299886 0.7266471,0.299886 H 25.438343 c 0.899658,0 1.672441,-0.31142 2.31835,-0.945795 0.645908,-0.62284 0.968863,-1.384089 0.968863,-2.272213 0,-0.888125 -0.322955,-1.6609081 -0.968863,-2.2952826 -0.645909,-0.6343744 -1.418692,-0.9573287 -2.31835,-0.9573287 -0.888125,0 -1.63784,0.3114202 -2.249146,0.9227265 -0.207614,0.1845453 -0.31142,0.4382951 -0.31142,0.7727834 0,0.2998861 0.103806,0.5421018 0.299886,0.7266474 0.196079,0.184545 0.438295,0.276818 0.726647,0.276818 0.276818,0 0.519033,-0.09227 0.726647,-0.276818 0.219147,-0.242216 0.484431,-0.3575568 0.807386,-0.3575568 0.334488,0 0.611306,0.1153408 0.841987,0.3460228 0.230682,0.230681 0.346023,0.507499 0.346023,0.841988 0,0.334488 -0.115341,0.611306 -0.346023,0.830453 -0.230681,0.219148 -0.507499,0.334489 -0.841987,0.334489 H 2.3240452 c -0.2883521,0 -0.5305679,0.103806 -0.7381813,0.299886 -0.2076134,0.219147 -0.3114201,0.461363 -0.3114201,0.749715 z"
   id="path1"
   style="stroke-width:1.15341" />
</svg>
