<?xml version="1.0" encoding="utf-8"?>
<!-- Generator: Adobe Illustrator 15.1.0, SVG Export Plug-In . SVG Version: 6.00 Build 0)  -->
<!DOCTYPE svg PUBLIC "-//W3C//DTD SVG 1.1//EN" "http://www.w3.org/Graphics/SVG/1.1/DTD/svg11.dtd">
<svg version="1.1" id="Layer_1" xmlns="http://www.w3.org/2000/svg" xmlns:xlink="http://www.w3.org/1999/xlink" x="0px" y="0px"
	 width="100px" height="100px" viewBox="0 0 100 100" enable-background="new 0 0 100 100" xml:space="preserve">
<path fill-rule="evenodd" clip-rule="evenodd" d="M71.997,58h-3.999c-1.104,0-2-0.896-2-2c0-1.105,0.896-2,2-2h3.999
	c1.105,0,2,0.895,2,2C73.997,57.104,73.103,58,71.997,58z M64.141,44.687c-0.781,0.781-2.048,0.781-2.828,0s-0.78-2.047,0-2.828
	l2.828-2.828c0.78-0.78,2.047-0.78,2.828,0c0.78,0.781,0.78,2.047,0,2.828L64.141,44.687z M61.302,59.998h-4.381
	c0.682-1.176,1.078-2.539,1.078-3.998c0-4.418-3.581-8-7.999-8c-4.417,0-7.999,3.582-7.999,8c0,1.459,0.396,2.822,1.079,3.998
	h-4.381c-0.444-1.252-0.698-2.594-0.698-3.998c0-6.627,5.373-11.999,11.999-11.999c6.627,0,11.999,5.371,11.999,11.999
	C61.999,57.404,61.745,58.746,61.302,59.998z M50,40.001c-1.104,0-1.999-0.896-1.999-2v-3.999c0-1.104,0.895-2,1.999-2s2,0.896,2,2
	v3.999C52,39.106,51.104,40.001,50,40.001z M35.86,44.687l-2.828-2.828c-0.781-0.781-0.781-2.047,0-2.828
	c0.78-0.78,2.047-0.78,2.828,0l2.828,2.828c0.78,0.781,0.78,2.047,0,2.828C37.907,45.468,36.641,45.468,35.86,44.687z M34.002,56
	c0,1.104-0.896,2-1.999,2h-4c-1.104,0-2-0.896-2-2c0-1.105,0.896-2,2-2h4C33.106,54,34.002,54.895,34.002,56z M40.001,63.998h19.998
	c1.104,0,2,0.896,2,2c0,1.105-0.896,2-2,2H40.001c-1.104,0-2-0.895-2-2C38.001,64.895,38.897,63.998,40.001,63.998z"/>
</svg>
