<?xml version="1.0" encoding="UTF-8" standalone="no"?>
<!-- Generator: Adobe Illustrator 15.1.0, SVG Export Plug-In . SVG Version: 6.00 Build 0)  -->

<svg
   xmlns:dc="http://purl.org/dc/elements/1.1/"
   xmlns:cc="http://creativecommons.org/ns#"
   xmlns:rdf="http://www.w3.org/1999/02/22-rdf-syntax-ns#"
   xmlns:svg="http://www.w3.org/2000/svg"
   xmlns="http://www.w3.org/2000/svg"
   xmlns:sodipodi="http://sodipodi.sourceforge.net/DTD/sodipodi-0.dtd"
   xmlns:inkscape="http://www.inkscape.org/namespaces/inkscape"
   version="1.1"
   id="Layer_1"
   x="0px"
   y="0px"
   width="100px"
   height="100px"
   viewBox="0 0 100 100"
   enable-background="new 0 0 100 100"
   xml:space="preserve"
   sodipodi:docname="Sun-Low-symbolic.svg"
   inkscape:version="0.92.4 5da689c313, 2019-01-14"><metadata
   id="metadata9"><rdf:RDF><cc:Work
       rdf:about=""><dc:format>image/svg+xml</dc:format><dc:type
         rdf:resource="http://purl.org/dc/dcmitype/StillImage" /></cc:Work></rdf:RDF></metadata><defs
   id="defs7" /><sodipodi:namedview
   pagecolor="#ffffff"
   bordercolor="#666666"
   borderopacity="1"
   objecttolerance="10"
   gridtolerance="10"
   guidetolerance="10"
   inkscape:pageopacity="0"
   inkscape:pageshadow="2"
   inkscape:window-width="1080"
   inkscape:window-height="936"
   id="namedview5"
   showgrid="false"
   inkscape:zoom="2.36"
   inkscape:cx="50"
   inkscape:cy="50"
   inkscape:window-x="0"
   inkscape:window-y="0"
   inkscape:window-maximized="0"
   inkscape:current-layer="Layer_1" />
<path
   d="m 94.685915,65.374881 h -7.998 c -2.208,0 -4,-1.792 -4,-4 0,-2.21 1.792,-4 4,-4 h 7.998 c 2.21,0 4,1.79 4,4 0,2.208 -1.788,4 -4,4 z m -15.712,-26.626 c -1.562,1.562 -4.096,1.562 -5.656,0 -1.56,-1.562 -1.56,-4.094 0,-5.656 l 5.656,-5.656 c 1.56,-1.56 4.094,-1.56 5.656,0 1.56,1.562 1.56,4.094 0,5.656 z m -5.678,30.622 h -8.762 c 1.364,-2.352 2.156,-5.078 2.156,-7.996 0,-8.836 -7.162,-16 -15.998,-16 -8.834,0 -15.998,7.164 -15.998,16 0,2.918 0.792,5.644 2.158,7.996 h -8.762 c -0.888,-2.504 -1.396,-5.188 -1.396,-7.996 0,-13.254 10.746,-23.998 23.998,-23.998 13.254,0 23.998,10.742 23.998,23.998 0,2.808 -0.508,5.492 -1.394,7.996 z m -22.604,-39.994 c -2.208,0 -3.998,-1.792 -3.998,-4 v -7.998 c 0,-2.208 1.79,-4 3.998,-4 2.208,0 4,1.792 4,4 v 7.998 c 0,2.21 -1.792,4 -4,4 z m -28.28,9.372 -5.656,-5.656 c -1.562,-1.562 -1.562,-4.094 0,-5.656 1.56,-1.56 4.094,-1.56 5.656,0 l 5.656,5.656 c 1.56,1.562 1.56,4.094 0,5.656 -1.562,1.562 -4.094,1.562 -5.656,0 z m -3.716,22.626 c 0,2.208 -1.792,4 -3.998,4 H 6.6979153 c -2.208,0 -4,-1.792 -4,-4 0,-2.21 1.792,-4 4,-4 h 7.9999997 c 2.206,0 3.998,1.79 3.998,4 z m 11.998,15.996 h 39.996 c 2.208,0 4,1.792 4,4 0,2.21 -1.792,4 -4,4 h -39.996 c -2.208,0 -4,-1.79 -4,-4 0,-2.206 1.792,-4 4,-4 z"
   id="path2"
   inkscape:connector-curvature="0"
   style="clip-rule:evenodd;fill-rule:evenodd;stroke-width:2" />
</svg>