<?xml version="1.0" encoding="UTF-8" standalone="no"?>
<!-- Generator: Adobe Illustrator 15.1.0, SVG Export Plug-In . SVG Version: 6.00 Build 0)  -->

<svg
   xmlns:dc="http://purl.org/dc/elements/1.1/"
   xmlns:cc="http://creativecommons.org/ns#"
   xmlns:rdf="http://www.w3.org/1999/02/22-rdf-syntax-ns#"
   xmlns:svg="http://www.w3.org/2000/svg"
   xmlns="http://www.w3.org/2000/svg"
   xmlns:sodipodi="http://sodipodi.sourceforge.net/DTD/sodipodi-0.dtd"
   xmlns:inkscape="http://www.inkscape.org/namespaces/inkscape"
   version="1.1"
   id="Layer_1"
   x="0px"
   y="0px"
   width="100px"
   height="100px"
   viewBox="0 0 100 100"
   enable-background="new 0 0 100 100"
   xml:space="preserve"
   sodipodi:docname="Sun-Low-symbolic.svg"
   inkscape:version="0.92.4 5da689c313, 2019-01-14"><metadata
   id="metadata9"><rdf:RDF><cc:Work
       rdf:about=""><dc:format>image/svg+xml</dc:format><dc:type
         rdf:resource="http://purl.org/dc/dcmitype/StillImage" /></cc:Work></rdf:RDF></metadata><defs
   id="defs7" /><sodipodi:namedview
   pagecolor="#ffffff"
   bordercolor="#666666"
   borderopacity="1"
   objecttolerance="10"
   gridtolerance="10"
   guidetolerance="10"
   inkscape:pageopacity="0"
   inkscape:pageshadow="2"
   inkscape:window-width="640"
   inkscape:window-height="480"
   id="namedview5"
   showgrid="false"
   inkscape:zoom="2.36"
   inkscape:cx="50"
   inkscape:cy="50"
   inkscape:window-x="0"
   inkscape:window-y="0"
   inkscape:window-maximized="0"
   inkscape:current-layer="Layer_1" />
<path
   d="m 95.30182,66.052172 h -8.235759 c -2.273637,0 -4.118909,-1.845271 -4.118909,-4.118909 0,-2.275697 1.845272,-4.118908 4.118909,-4.118908 h 8.235759 c 2.275697,0 4.118909,1.843211 4.118909,4.118908 0,2.273638 -1.841153,4.118909 -4.118909,4.118909 z M 79.122745,38.634655 c -1.608434,1.608434 -4.217762,1.608434 -5.824137,0 -1.606374,-1.608434 -1.606374,-4.215703 0,-5.824137 l 5.824137,-5.824138 c 1.606375,-1.606374 4.215704,-1.606374 5.824138,0 1.606374,1.608434 1.606374,4.215704 0,5.824138 z m -5.846791,31.532307 h -9.02247 c 1.404548,-2.421918 2.220092,-5.228954 2.220092,-8.233699 0,-9.098669 -7.374906,-16.475635 -16.473576,-16.475635 -9.096611,0 -16.473576,7.376966 -16.473576,16.475635 0,3.004745 0.815544,5.811781 2.222151,8.233699 h -9.02247 c -0.914398,-2.578437 -1.437499,-5.342224 -1.437499,-8.233699 0,-13.648004 11.065449,-24.711394 24.711394,-24.711394 13.648005,0 24.711394,11.06133 24.711394,24.711394 0,2.891475 -0.523101,5.655262 -1.43544,8.233699 z M 50,28.984051 c -2.273638,0 -4.11685,-1.845271 -4.11685,-4.118909 v -8.235759 c 0,-2.273637 1.843212,-4.118908 4.11685,-4.118908 2.273638,0 4.118909,1.845271 4.118909,4.118908 v 8.235759 c 0,2.275697 -1.845271,4.118909 -4.118909,4.118909 z m -29.120686,9.650604 -5.824138,-5.824137 c -1.608433,-1.608434 -1.608433,-4.215704 0,-5.824138 1.606375,-1.606374 4.215704,-1.606374 5.824138,0 l 5.824137,5.824138 c 1.606374,1.608434 1.606374,4.215703 0,5.824137 -1.608434,1.608434 -4.215703,1.608434 -5.824137,0 z m -3.826467,23.298608 c 0,2.273638 -1.845271,4.118909 -4.116849,4.118909 H 4.6981801 c -2.2736377,0 -4.11890891,-1.845271 -4.11890891,-4.118909 0,-2.275697 1.84527121,-4.118908 4.11890891,-4.118908 h 8.2378179 c 2.271578,0 4.116849,1.843211 4.116849,4.118908 z M 29.407515,78.40478 h 41.18497 c 2.273638,0 4.118909,1.845271 4.118909,4.118909 0,2.275697 -1.845271,4.118909 -4.118909,4.118909 h -41.18497 c -2.273638,0 -4.118909,-1.843212 -4.118909,-4.118909 0,-2.271578 1.845271,-4.118909 4.118909,-4.118909 z"
   id="path2"
   inkscape:connector-curvature="0"
   style="clip-rule:evenodd;fill-rule:evenodd;stroke-width:2.05945444" />
</svg>