<?xml version="1.0" encoding="UTF-8" standalone="no"?>
<!-- Generator: Adobe Illustrator 15.1.0, SVG Export Plug-In . SVG Version: 6.00 Build 0)  -->

<svg
   xmlns:dc="http://purl.org/dc/elements/1.1/"
   xmlns:cc="http://creativecommons.org/ns#"
   xmlns:rdf="http://www.w3.org/1999/02/22-rdf-syntax-ns#"
   xmlns:svg="http://www.w3.org/2000/svg"
   xmlns="http://www.w3.org/2000/svg"
   xmlns:sodipodi="http://sodipodi.sourceforge.net/DTD/sodipodi-0.dtd"
   xmlns:inkscape="http://www.inkscape.org/namespaces/inkscape"
   version="1.1"
   id="Layer_1"
   x="0px"
   y="0px"
   width="100px"
   height="100px"
   viewBox="0 0 100 100"
   enable-background="new 0 0 100 100"
   xml:space="preserve"
   sodipodi:docname="Sun-Lower-symbolic.svg"
   inkscape:version="0.92.4 5da689c313, 2019-01-14"><metadata
   id="metadata9"><rdf:RDF><cc:Work
       rdf:about=""><dc:format>image/svg+xml</dc:format><dc:type
         rdf:resource="http://purl.org/dc/dcmitype/StillImage" /></cc:Work></rdf:RDF></metadata><defs
   id="defs7" /><sodipodi:namedview
   pagecolor="#ffffff"
   bordercolor="#666666"
   borderopacity="1"
   objecttolerance="10"
   gridtolerance="10"
   guidetolerance="10"
   inkscape:pageopacity="0"
   inkscape:pageshadow="2"
   inkscape:window-width="1080"
   inkscape:window-height="936"
   id="namedview5"
   showgrid="false"
   inkscape:zoom="2.36"
   inkscape:cx="50"
   inkscape:cy="50"
   inkscape:window-x="0"
   inkscape:window-y="0"
   inkscape:window-maximized="0"
   inkscape:current-layer="Layer_1" />
<path
   d="m 78.887597,45.770424 c -1.562,1.56 -4.098,1.56 -5.656,0 -1.562,-1.562 -1.562,-4.096 0,-5.656 l 5.656,-5.656 c 1.558,-1.562 4.094,-1.562 5.656,0 1.558,1.56 1.558,4.094 0,5.656 z m -14.442,14.626 c -2.77,-4.778 -7.922,-8 -13.84,-8 -5.918,0 -11.074,3.222 -13.84,8 h -8.762 c 3.296,-9.316 12.156,-16 22.602,-16 10.442,0 19.304,6.684 22.602,16 z m -13.84,-23.996 c -2.21,0 -4,-1.792 -4,-4 v -8 c 0,-2.208 1.79,-3.998 4,-3.998 2.208,0 4,1.79 4,3.998 v 8 c 0,2.208 -1.792,4 -4,4 z m -28.282,9.37 -5.656,-5.656 c -1.562,-1.562 -1.562,-4.096 0,-5.656 1.562,-1.562 4.094,-1.562 5.656,0 l 5.656,5.656 c 1.562,1.56 1.562,4.094 0,5.656 -1.562,1.56 -4.092,1.56 -5.656,0 z m 8.282,22.622 h 39.996 c 2.21,0 4,1.792 4,4 0,2.21 -1.79,4 -4,4 h -39.996 c -2.208,0 -4,-1.79 -4,-4 0,-2.206 1.792,-4 4,-4 z"
   id="path2"
   inkscape:connector-curvature="0"
   style="clip-rule:evenodd;fill-rule:evenodd;stroke-width:2" />
</svg>