<?xml version="1.0" encoding="UTF-8" standalone="no"?>
<!-- Generator: Adobe Illustrator 15.1.0, SVG Export Plug-In . SVG Version: 6.00 Build 0)  -->

<svg
   xmlns:dc="http://purl.org/dc/elements/1.1/"
   xmlns:cc="http://creativecommons.org/ns#"
   xmlns:rdf="http://www.w3.org/1999/02/22-rdf-syntax-ns#"
   xmlns:svg="http://www.w3.org/2000/svg"
   xmlns="http://www.w3.org/2000/svg"
   xmlns:sodipodi="http://sodipodi.sourceforge.net/DTD/sodipodi-0.dtd"
   xmlns:inkscape="http://www.inkscape.org/namespaces/inkscape"
   version="1.1"
   id="Layer_1"
   x="0px"
   y="0px"
   width="100px"
   height="100px"
   viewBox="0 0 100 100"
   enable-background="new 0 0 100 100"
   xml:space="preserve"
   sodipodi:docname="Sun-symbolic.svg"
   inkscape:version="0.92.4 5da689c313, 2019-01-14"><metadata
   id="metadata9"><rdf:RDF><cc:Work
       rdf:about=""><dc:format>image/svg+xml</dc:format><dc:type
         rdf:resource="http://purl.org/dc/dcmitype/StillImage" /></cc:Work></rdf:RDF></metadata><defs
   id="defs7" /><sodipodi:namedview
   pagecolor="#ffffff"
   bordercolor="#666666"
   borderopacity="1"
   objecttolerance="10"
   gridtolerance="10"
   guidetolerance="10"
   inkscape:pageopacity="0"
   inkscape:pageshadow="2"
   inkscape:window-width="1078"
   inkscape:window-height="936"
   id="namedview5"
   showgrid="false"
   inkscape:zoom="2.36"
   inkscape:cx="50"
   inkscape:cy="50"
   inkscape:window-x="0"
   inkscape:window-y="0"
   inkscape:window-maximized="0"
   inkscape:current-layer="Layer_1"
   showguides="true"
   inkscape:guide-bbox="true"><sodipodi:guide
     position="118.22034,50"
     orientation="0,1"
     id="guide7"
     inkscape:locked="false" /><sodipodi:guide
     position="50,6.3559322"
     orientation="1,0"
     id="guide9"
     inkscape:locked="false" /></sodipodi:namedview>
<path
   d="m 84.0938,53.09845 h -6.1969 c -1.71275,0 -3.1,-1.38725 -3.1,-3.09845 0,-1.7112 1.38725,-3.1 3.1,-3.1 h 6.1969 c 1.71275,0 3.1,1.3888 3.1,3.1 0,1.7112 -1.3857,3.09845 -3.1,3.09845 z M 71.91855,32.4664 c -1.21055,1.21055 -3.17595,1.21055 -4.3834,0 -1.21055,-1.21055 -1.21055,-3.17285 0,-4.3834 l 4.3834,-4.3834 c 1.20745,-1.21055 3.17285,-1.21055 4.3834,0 1.20745,1.21055 1.20745,3.17285 0,4.3834 z M 50,68.5969 C 39.72815,68.5969 31.4,60.2703 31.4,50 31.4,39.72815 39.7266,31.40155 50,31.40155 c 10.27185,0 18.5969,8.3266 18.5969,18.59845 0,10.2703 -8.32505,18.5969 -18.5969,18.5969 z m 0,-30.99535 c -6.8479,0 -12.4,5.55055 -12.4,12.39845 0,6.84635 5.55365,12.39845 12.4,12.39845 6.84635,0 12.3969,-5.5521 12.3969,-12.39845 0,-6.8479 -5.549,-12.39845 -12.3969,-12.39845 z M 50,25.2031 c -1.71275,0 -3.1,-1.3888 -3.1,-3.1 v -6.19845 c 0,-1.7112 1.38725,-3.1 3.1,-3.1 1.7112,0 3.1,1.3888 3.1,3.1 v 6.19845 c 0,1.7112 -1.39035,3.1 -3.1,3.1 z m -21.91855,7.2633 -4.3834,-4.3834 c -1.21055,-1.21055 -1.21055,-3.17285 0,-4.3834 1.21055,-1.21055 3.17285,-1.21055 4.3834,0 l 4.3834,4.3834 c 1.21055,1.21055 1.21055,3.17285 0,4.3834 -1.21055,1.21055 -3.17285,1.21055 -4.3834,0 z M 25.20155,50 c 0,1.7112 -1.3888,3.09845 -3.1,3.09845 h -6.200001 c -1.7112,0 -3.09845,-1.38725 -3.09845,-3.09845 0,-1.7112 1.3888,-3.1 3.09845,-3.1 h 6.200001 c 1.71275,0 3.1,1.3888 3.1,3.1 z m 2.8799,17.5336 c 1.21055,-1.209 3.17285,-1.209 4.3834,0 1.21055,1.21055 1.21055,3.1744 0,4.3834 l -4.3834,4.3834 c -1.21055,1.21055 -3.17285,1.21055 -4.3834,0 -1.21055,-1.209 -1.21055,-3.17285 0,-4.3834 z M 50,74.7969 c 1.7112,0 3.1,1.38725 3.1,3.09845 v 6.2 c 0,1.7112 -1.3888,3.1 -3.1,3.1 -1.71275,0 -3.1,-1.3888 -3.1,-3.1 v -6.2 c 0,-1.7112 1.38725,-3.09845 3.1,-3.09845 z m 21.91855,-7.2633 4.3834,4.3834 c 1.20745,1.21055 1.20745,3.1744 0,4.3834 -1.21055,1.21055 -3.17595,1.21055 -4.3834,0 l -4.3834,-4.3834 c -1.21055,-1.209 -1.21055,-3.17285 0,-4.3834 1.20745,-1.21055 3.1713,-1.21055 4.3834,0 z"
   id="path2"
   inkscape:connector-curvature="0"
   style="clip-rule:evenodd;fill-rule:evenodd;stroke-width:1.54999995" />
</svg>