<?xml version="1.0" encoding="utf-8"?>
<!-- Generator: Adobe Illustrator 15.1.0, SVG Export Plug-In . SVG Version: 6.00 Build 0)  -->
<!DOCTYPE svg PUBLIC "-//W3C//DTD SVG 1.1//EN" "http://www.w3.org/Graphics/SVG/1.1/DTD/svg11.dtd">
<svg version="1.1" id="Layer_1" xmlns="http://www.w3.org/2000/svg" xmlns:xlink="http://www.w3.org/1999/xlink" x="0px" y="0px"
	 width="100px" height="100px" viewBox="0 0 100 100" enable-background="new 0 0 100 100" xml:space="preserve">
<path fill-rule="evenodd" clip-rule="evenodd" d="M64.141,44.556c-0.781,0.78-2.049,0.78-2.828,0c-0.781-0.781-0.781-2.048,0-2.828
	l2.828-2.828c0.779-0.781,2.047-0.781,2.828,0c0.779,0.78,0.779,2.047,0,2.828L64.141,44.556z M56.92,51.869
	c-1.385-2.389-3.961-4-6.92-4s-5.537,1.611-6.92,4h-4.381c1.648-4.658,6.078-8,11.301-8c5.221,0,9.652,3.342,11.301,8H56.92z
	 M50,39.871c-1.105,0-2-0.896-2-2v-4c0-1.104,0.895-1.999,2-1.999c1.104,0,2,0.895,2,1.999v4C52,38.975,51.104,39.871,50,39.871z
	 M35.859,44.556l-2.828-2.828c-0.781-0.781-0.781-2.048,0-2.828c0.781-0.781,2.047-0.781,2.828,0l2.828,2.828
	c0.781,0.78,0.781,2.047,0,2.828C37.906,45.336,36.641,45.336,35.859,44.556z M40,55.867h19.998c1.105,0,2,0.896,2,2
	c0,1.105-0.895,2-2,2H40c-1.104,0-2-0.895-2-2C38,56.764,38.896,55.867,40,55.867z"/>
</svg>
