<?xml version="1.0" encoding="UTF-8" standalone="no"?>
<!-- Generator: Adobe Illustrator 15.1.0, SVG Export Plug-In . SVG Version: 6.00 Build 0)  -->

<svg
   xmlns:dc="http://purl.org/dc/elements/1.1/"
   xmlns:cc="http://creativecommons.org/ns#"
   xmlns:rdf="http://www.w3.org/1999/02/22-rdf-syntax-ns#"
   xmlns:svg="http://www.w3.org/2000/svg"
   xmlns="http://www.w3.org/2000/svg"
   xmlns:sodipodi="http://sodipodi.sourceforge.net/DTD/sodipodi-0.dtd"
   xmlns:inkscape="http://www.inkscape.org/namespaces/inkscape"
   version="1.1"
   id="Layer_1"
   x="0px"
   y="0px"
   width="100px"
   height="100px"
   viewBox="0 0 100 100"
   enable-background="new 0 0 100 100"
   xml:space="preserve"
   sodipodi:docname="Sun-Lower-symbolic.svg"
   inkscape:version="0.92.4 5da689c313, 2019-01-14"><metadata
   id="metadata9"><rdf:RDF><cc:Work
       rdf:about=""><dc:format>image/svg+xml</dc:format><dc:type
         rdf:resource="http://purl.org/dc/dcmitype/StillImage" /></cc:Work></rdf:RDF></metadata><defs
   id="defs7" /><sodipodi:namedview
   pagecolor="#ffffff"
   bordercolor="#666666"
   borderopacity="1"
   objecttolerance="10"
   gridtolerance="10"
   guidetolerance="10"
   inkscape:pageopacity="0"
   inkscape:pageshadow="2"
   inkscape:window-width="640"
   inkscape:window-height="480"
   id="namedview5"
   showgrid="false"
   inkscape:zoom="2.36"
   inkscape:cx="50"
   inkscape:cy="50"
   inkscape:window-x="0"
   inkscape:window-y="0"
   inkscape:window-maximized="0"
   inkscape:current-layer="Layer_1" />
<path
   d="m 90.084505,47.062503 c -2.21377,2.210936 -5.807958,2.210936 -8.016059,0 -2.21377,-2.21377 -2.21377,-5.805123 0,-8.016059 l 8.016059,-8.016059 c 2.208101,-2.21377 5.802289,-2.21377 8.016059,0 2.208096,2.210935 2.208096,5.802289 0,8.016059 z M 69.616343,67.791442 C 65.690515,61.019743 58.388758,56.453311 50.001376,56.453311 c -8.387383,0 -15.694809,4.566432 -19.614968,11.338131 H 17.96832 c 4.67131,-13.203254 17.228291,-22.676263 32.033056,-22.676263 14.799096,0 27.358911,9.473009 32.033056,22.676263 z M 50.001376,33.782716 c -3.132159,0 -5.669066,-2.539741 -5.669066,-5.669066 V 16.775519 c 0,-3.129324 2.536907,-5.666231 5.669066,-5.666231 3.129324,0 5.669065,2.536907 5.669065,5.666231 V 28.11365 c 0,3.129325 -2.539741,5.669066 -5.669065,5.669066 z M 9.9182472,47.062503 1.9021879,39.046444 c -2.21377028,-2.21377 -2.21377028,-5.805124 0,-8.016059 2.2137701,-2.21377 5.8022887,-2.21377 8.0160593,0 l 8.0160588,8.016059 c 2.21377,2.210936 2.21377,5.802289 0,8.016059 -2.213771,2.210936 -5.799455,2.210936 -8.0160588,0 z M 21.656047,79.123904 h 56.684988 c 3.132159,0 5.669066,2.539742 5.669066,5.669066 0,3.132159 -2.536907,5.669066 -5.669066,5.669066 H 21.656047 c -3.129324,0 -5.669066,-2.536907 -5.669066,-5.669066 0,-3.12649 2.539742,-5.669066 5.669066,-5.669066 z"
   id="path2"
   inkscape:connector-curvature="0"
   style="clip-rule:evenodd;fill-rule:evenodd;stroke-width:2.83453298" />
</svg>