<?xml version="1.0" encoding="UTF-8" standalone="no"?>
<!-- Generator: Adobe Illustrator 15.1.0, SVG Export Plug-In . SVG Version: 6.00 Build 0)  -->

<svg
   xmlns:dc="http://purl.org/dc/elements/1.1/"
   xmlns:cc="http://creativecommons.org/ns#"
   xmlns:rdf="http://www.w3.org/1999/02/22-rdf-syntax-ns#"
   xmlns:svg="http://www.w3.org/2000/svg"
   xmlns="http://www.w3.org/2000/svg"
   xmlns:sodipodi="http://sodipodi.sourceforge.net/DTD/sodipodi-0.dtd"
   xmlns:inkscape="http://www.inkscape.org/namespaces/inkscape"
   version="1.1"
   id="Layer_1"
   x="0px"
   y="0px"
   width="100px"
   height="100px"
   viewBox="0 0 100 100"
   style="enable-background:new"
   xml:space="preserve"
   sodipodi:docname="Sun.svg"
   inkscape:version="0.92.4 5da689c313, 2019-01-14"><metadata
   id="metadata9"><rdf:RDF><cc:Work
       rdf:about=""><dc:format>image/svg+xml</dc:format><dc:type
         rdf:resource="http://purl.org/dc/dcmitype/StillImage" /></cc:Work></rdf:RDF></metadata><defs
   id="defs7" /><sodipodi:namedview
   pagecolor="#ffffff"
   bordercolor="#666666"
   borderopacity="1"
   objecttolerance="10"
   gridtolerance="10"
   guidetolerance="10"
   inkscape:pageopacity="0"
   inkscape:pageshadow="2"
   inkscape:window-width="1920"
   inkscape:window-height="1022"
   id="namedview5"
   showgrid="false"
   inkscape:zoom="2.36"
   inkscape:cx="50"
   inkscape:cy="50"
   inkscape:window-x="0"
   inkscape:window-y="1080"
   inkscape:window-maximized="1"
   inkscape:current-layer="Layer_1" />
<path
   d="m 95.743207,54.311064 h -8.198402 c -2.265941,0 -4.101251,-1.835309 -4.101251,-4.0992 0,-2.263891 1.83531,-4.101252 4.101251,-4.101252 h 8.198402 c 2.265937,0 4.101249,1.837361 4.101249,4.101252 0,2.263891 -1.833253,4.0992 -4.101249,4.0992 z M 79.635542,27.015185 c -1.601538,1.601539 -4.201732,1.601539 -5.79917,0 -1.601539,-1.601538 -1.601539,-4.19763 0,-5.799168 l 5.79917,-5.79917 c 1.597437,-1.601539 4.197631,-1.601539 5.799169,0 1.597438,1.601539 1.597438,4.197631 0,5.79917 z M 50.637644,74.81527 c -13.589496,0 -24.607508,-11.015961 -24.607508,-24.603406 0,-13.589497 11.01596,-24.605458 24.607508,-24.605458 13.589497,0 24.603407,11.015961 24.603407,24.605458 0,13.587445 -11.01391,24.603406 -24.603407,24.603406 z m 0,-41.006361 c -9.059664,0 -16.405005,7.34329 -16.405005,16.402955 0,9.057613 7.347391,16.402954 16.405005,16.402954 9.057614,0 16.400904,-7.345341 16.400904,-16.402954 0,-9.059665 -7.34124,-16.402955 -16.400904,-16.402955 z m 0,-16.402954 c -2.265942,0 -4.101251,-1.837362 -4.101251,-4.101252 V 5.104251 c 0,-2.2638908 1.835309,-4.1012514 4.101251,-4.1012514 2.26389,0 4.101251,1.8373606 4.101251,4.1012514 v 8.200452 c 0,2.26389 -1.839411,4.101252 -4.101251,4.101252 z m -28.997898,9.60923 -5.799169,-5.799168 c -1.601539,-1.601539 -1.601539,-4.197631 0,-5.79917 1.601538,-1.601539 4.19763,-1.601539 5.799169,0 l 5.79917,5.79917 c 1.601538,1.601538 1.601538,4.19763 0,5.799168 -1.601539,1.601539 -4.19763,1.601539 -5.79917,0 z m -3.810063,23.196679 c 0,2.263891 -1.83736,4.0992 -4.101251,4.0992 H 5.5259295 c -2.2638907,0 -4.0992007,-1.835309 -4.0992007,-4.0992 0,-2.263891 1.8373606,-4.101252 4.0992007,-4.101252 h 8.2025025 c 2.265943,0 4.101251,1.837361 4.101251,4.101252 z m 3.810063,23.196678 c 1.60154,-1.599489 4.197631,-1.599489 5.79917,0 1.601538,1.601538 1.601538,4.199681 0,5.799169 l -5.79917,5.799169 c -1.601539,1.601539 -4.197631,1.601539 -5.799169,0 -1.601539,-1.599488 -1.601539,-4.19763 0,-5.799169 z m 28.997898,9.609232 c 2.26389,0 4.101251,1.835308 4.101251,4.0992 v 8.202502 c 0,2.263891 -1.837361,4.101252 -4.101251,4.101252 -2.265942,0 -4.101251,-1.837361 -4.101251,-4.101252 v -8.202502 c 0,-2.263892 1.835309,-4.0992 4.101251,-4.0992 z m 28.997898,-9.609232 5.799169,5.799169 c 1.597438,1.601539 1.597438,4.199681 0,5.799169 -1.601538,1.601539 -4.201732,1.601539 -5.799169,0 l -5.79917,-5.799169 c -1.601539,-1.599488 -1.601539,-4.197631 0,-5.799169 1.597438,-1.601539 4.19558,-1.601539 5.79917,0 z"
   id="path2"
   inkscape:connector-curvature="0"
   style="clip-rule:evenodd;fill-rule:evenodd;stroke-width:2.0506258;fill:#353535;fill-opacity:1" />
</svg>