<?xml version="1.0" encoding="utf-8"?>
<!-- Generator: Adobe Illustrator 15.1.0, SVG Export Plug-In . SVG Version: 6.00 Build 0)  -->
<!DOCTYPE svg PUBLIC "-//W3C//DTD SVG 1.1//EN" "http://www.w3.org/Graphics/SVG/1.1/DTD/svg11.dtd">
<svg version="1.1" id="Layer_1" xmlns="http://www.w3.org/2000/svg" xmlns:xlink="http://www.w3.org/1999/xlink" x="0px" y="0px"
	 width="100px" height="100px" viewBox="0 0 100 100" enable-background="new 0 0 100 100" xml:space="preserve">
<g>
	<g>
		<path fill-rule="evenodd" clip-rule="evenodd" d="M38.688,41.859l-2.828-2.828c-0.781-0.78-2.047-0.78-2.828,0
			c-0.781,0.781-0.781,2.047,0,2.828l2.828,2.828c0.781,0.781,2.047,0.781,2.828,0C39.469,43.906,39.469,42.641,38.688,41.859z
			 M71.997,54h-3.999c-1.104,0-1.999,0.896-1.999,2s0.895,2,1.999,2h3.999c1.105,0,2-0.896,2-2S73.103,54,71.997,54z M32.003,54h-4
			c-1.104,0-2,0.896-2,2s0.896,2,2,2h4c1.104,0,2-0.896,2-2S33.106,54,32.003,54z M59.999,63.999H40.001
			c-1.104,0-1.999,0.896-1.999,2s0.896,1.999,1.999,1.999h19.998c1.104,0,2-0.895,2-1.999S61.104,63.999,59.999,63.999z
			 M66.969,39.031c-0.78-0.78-2.048-0.78-2.828,0l-2.828,2.828c-0.78,0.781-0.78,2.047,0,2.828c0.781,0.781,2.048,0.781,2.828,0
			l2.828-2.828C67.749,41.078,67.749,39.812,66.969,39.031z M50.001,40.002c1.104,0,1.999-0.896,1.999-2v-3.999
			c0-1.104-0.896-2-1.999-2c-1.105,0-2,0.896-2,2v3.999C48.001,39.106,48.896,40.002,50.001,40.002z M50.001,44.002
			c-6.627,0-11.999,5.371-11.999,11.998c0,1.404,0.254,2.747,0.697,3.999h4.381c-0.683-1.177-1.079-2.54-1.079-3.999
			c0-4.418,3.582-7.999,8-7.999c4.417,0,7.998,3.581,7.998,7.999c0,1.459-0.396,2.822-1.078,3.999h4.381
			c0.443-1.252,0.697-2.595,0.697-3.999C61.999,49.373,56.627,44.002,50.001,44.002z M50.001,60.249c0.552,0,0.999-0.447,0.999-1
			v-3.827l2.536,2.535c0.39,0.391,1.023,0.391,1.414,0c0.39-0.391,0.39-1.023,0-1.414l-4.242-4.242
			c-0.391-0.391-1.024-0.391-1.414,0l-4.242,4.242c-0.391,0.391-0.391,1.023,0,1.414s1.023,0.391,1.414,0l2.535-2.535v3.827
			C49.001,59.802,49.448,60.249,50.001,60.249z"/>
	</g>
</g>
</svg>
