<?xml version="1.0" encoding="UTF-8" standalone="no"?>
<!-- Generator: Adobe Illustrator 15.1.0, SVG Export Plug-In . SVG Version: 6.00 Build 0)  -->

<svg
   xmlns:dc="http://purl.org/dc/elements/1.1/"
   xmlns:cc="http://creativecommons.org/ns#"
   xmlns:rdf="http://www.w3.org/1999/02/22-rdf-syntax-ns#"
   xmlns:svg="http://www.w3.org/2000/svg"
   xmlns="http://www.w3.org/2000/svg"
   xmlns:sodipodi="http://sodipodi.sourceforge.net/DTD/sodipodi-0.dtd"
   xmlns:inkscape="http://www.inkscape.org/namespaces/inkscape"
   version="1.1"
   id="Layer_1"
   x="0px"
   y="0px"
   width="100px"
   height="100px"
   viewBox="0 0 100 100"
   enable-background="new 0 0 100 100"
   xml:space="preserve"
   sodipodi:docname="Sunset-symbolic.svg"
   inkscape:version="0.92.4 5da689c313, 2019-01-14"><metadata
   id="metadata9"><rdf:RDF><cc:Work
       rdf:about=""><dc:format>image/svg+xml</dc:format><dc:type
         rdf:resource="http://purl.org/dc/dcmitype/StillImage" /></cc:Work></rdf:RDF></metadata><defs
   id="defs7" /><sodipodi:namedview
   pagecolor="#ffffff"
   bordercolor="#666666"
   borderopacity="1"
   objecttolerance="10"
   gridtolerance="10"
   guidetolerance="10"
   inkscape:pageopacity="0"
   inkscape:pageshadow="2"
   inkscape:window-width="1080"
   inkscape:window-height="936"
   id="namedview5"
   showgrid="false"
   inkscape:zoom="2.36"
   inkscape:cx="50"
   inkscape:cy="50"
   inkscape:window-x="0"
   inkscape:window-y="0"
   inkscape:window-maximized="0"
   inkscape:current-layer="Layer_1" />
<path
   d="m 94.264186,67.493525 h -8 c -2.208,0 -3.998,-1.792 -3.998,-4 0,-2.208 1.79,-4 3.998,-4 h 8 c 2.208,0 3.998,1.792 3.998,4 0,2.208 -1.788,4 -3.998,4 z m -15.712,-26.624 c -1.562,1.562 -4.096,1.562 -5.656,0 -1.562,-1.562 -1.562,-4.094 0,-5.656 l 5.656,-5.656 c 1.56,-1.56 4.094,-1.56 5.654,0 1.562,1.562 1.562,4.094 0,5.656 z m -5.68,30.622 h -8.762 c 1.364,-2.354 2.156,-5.08 2.156,-7.998 0,-8.836 -7.162,-15.998 -15.996,-15.998 -8.836,0 -16,7.162 -16,15.998 0,2.918 0.794,5.644 2.16,7.998 h -8.764 c -0.886,-2.504 -1.394,-5.19 -1.394,-7.998 0,-13.254 10.744,-23.996 23.998,-23.996 13.252,0 23.996,10.742 23.996,23.996 0,2.808 -0.508,5.494 -1.394,7.998 z m -22.602,-39.994 c -2.21,0 -4,-1.792 -4,-4 v -7.998 c 0,-2.208 1.79,-4 4,-4 2.208,0 4,1.792 4,4 v 7.998 c 0,2.208 -1.794,4 -4,4 z m -28.282,9.372 -5.656,-5.656 c -1.562,-1.562 -1.562,-4.094 0,-5.656 1.562,-1.56 4.094,-1.56 5.656,0 l 5.656,5.656 c 1.562,1.562 1.562,4.094 0,5.656 -1.562,1.562 -4.092,1.562 -5.656,0 z m -3.714,22.624 c 0,2.208 -1.792,4 -4,4 H 6.2741864 c -2.208,0 -4,-1.792 -4,-4 0,-2.208 1.792,-4 4,-4 h 7.9999996 c 2.208,0 4,1.792 4,4 z m 31.996,-8 c 1.104,0 2,0.896 2,2 v 7.656 l 5.07,-5.07 c 0.782,-0.782 2.046,-0.782 2.828,0 0.782,0.782 0.782,2.046 0,2.828 l -8.484,8.484 c -0.782,0.782 -2.046,0.782 -2.828,0 l -8.484,-8.484 c -0.782,-0.782 -0.782,-2.046 0,-2.828 0.782,-0.782 2.046,-0.782 2.828,0 l 5.07,5.07 v -7.656 c 0,-1.104 0.894,-2 2,-2 z m -19.998,23.998 h 39.994 c 2.208,0 4,1.792 4,4 0,2.208 -1.792,3.998 -4,3.998 h -39.994 c -2.208,0 -4,-1.79 -4,-3.998 0,-2.208 1.79,-4 4,-4 z"
   id="path2"
   inkscape:connector-curvature="0"
   style="clip-rule:evenodd;fill-rule:evenodd;stroke-width:2" />
</svg>