<?xml version="1.0" encoding="UTF-8" standalone="no"?>
<!-- Generator: Adobe Illustrator 15.1.0, SVG Export Plug-In . SVG Version: 6.00 Build 0)  -->

<svg
   xmlns:dc="http://purl.org/dc/elements/1.1/"
   xmlns:cc="http://creativecommons.org/ns#"
   xmlns:rdf="http://www.w3.org/1999/02/22-rdf-syntax-ns#"
   xmlns:svg="http://www.w3.org/2000/svg"
   xmlns="http://www.w3.org/2000/svg"
   xmlns:sodipodi="http://sodipodi.sourceforge.net/DTD/sodipodi-0.dtd"
   xmlns:inkscape="http://www.inkscape.org/namespaces/inkscape"
   version="1.1"
   id="Layer_1"
   x="0px"
   y="0px"
   width="100px"
   height="100px"
   viewBox="0 0 100 100"
   enable-background="new 0 0 100 100"
   xml:space="preserve"
   sodipodi:docname="Sunset-symbolic.svg"
   inkscape:version="0.92.4 5da689c313, 2019-01-14"><metadata
   id="metadata9"><rdf:RDF><cc:Work
       rdf:about=""><dc:format>image/svg+xml</dc:format><dc:type
         rdf:resource="http://purl.org/dc/dcmitype/StillImage" /></cc:Work></rdf:RDF></metadata><defs
   id="defs7" /><sodipodi:namedview
   pagecolor="#ffffff"
   bordercolor="#666666"
   borderopacity="1"
   objecttolerance="10"
   gridtolerance="10"
   guidetolerance="10"
   inkscape:pageopacity="0"
   inkscape:pageshadow="2"
   inkscape:window-width="640"
   inkscape:window-height="480"
   id="namedview5"
   showgrid="false"
   inkscape:zoom="2.36"
   inkscape:cx="50"
   inkscape:cy="50"
   inkscape:window-x="0"
   inkscape:window-y="0"
   inkscape:window-maximized="0"
   inkscape:current-layer="Layer_1" />
<path
   d="m 95.709959,66.704363 h -8.273133 c -2.283385,0 -4.134498,-1.853182 -4.134498,-4.136567 0,-2.283384 1.851113,-4.136566 4.134498,-4.136566 h 8.273133 c 2.283385,0 4.134498,1.853182 4.134498,4.136566 0,2.283385 -1.849045,4.136567 -4.134498,4.136567 z M 79.461526,39.171376 c -1.615329,1.615329 -4.235844,1.615329 -5.849105,0 -1.615329,-1.615329 -1.615329,-4.233776 0,-5.849105 l 5.849105,-5.849105 c 1.613261,-1.613261 4.233776,-1.613261 5.847037,0 1.615329,1.615329 1.615329,4.233776 0,5.849105 z m -5.873925,31.667485 h -9.061148 c 1.410569,-2.434369 2.229609,-5.253439 2.229609,-8.271065 0,-9.137675 -7.406522,-16.544197 -16.54213,-16.544197 -9.137675,0 -16.546266,7.406522 -16.546266,16.544197 0,3.017626 0.821109,5.836696 2.233746,8.271065 h -9.063217 c -0.916249,-2.589491 -1.441593,-5.367195 -1.441593,-8.271065 0,-13.706513 11.110817,-24.815262 24.81733,-24.815262 13.704445,0 24.815263,11.108749 24.815263,24.815262 0,2.90387 -0.525344,5.681574 -1.441594,8.271065 z M 50.213932,29.479401 c -2.285453,0 -4.136566,-1.853182 -4.136566,-4.136567 V 17.07177 c 0,-2.283385 1.851113,-4.136567 4.136566,-4.136567 2.283385,0 4.136567,1.853182 4.136567,4.136567 v 8.271064 c 0,2.283385 -1.85525,4.136567 -4.136567,4.136567 z m -29.247593,9.691975 -5.849105,-5.849105 c -1.615329,-1.615329 -1.615329,-4.233776 0,-5.849105 1.615329,-1.613261 4.233776,-1.613261 5.849105,0 l 5.849105,5.849105 c 1.615329,1.615329 1.615329,4.233776 0,5.849105 -1.615329,1.615329 -4.231708,1.615329 -5.849105,0 z m -3.840802,23.39642 c 0,2.283385 -1.853182,4.136567 -4.136566,4.136567 H 4.7158377 c -2.2833847,0 -4.13656651,-1.853182 -4.13656651,-4.136567 0,-2.283384 1.85318181,-4.136566 4.13656651,-4.136566 h 8.2731333 c 2.283384,0 4.136566,1.853182 4.136566,4.136566 z m 33.088395,-8.273133 c 1.141693,0 2.068284,0.926591 2.068284,2.068284 v 7.917388 l 5.243098,-5.243098 c 0.808698,-0.808699 2.115853,-0.808699 2.924552,0 0.808699,0.808699 0.808699,2.115854 0,2.924552 l -8.773657,8.773658 c -0.808699,0.808699 -2.115854,0.808699 -2.924553,0 l -8.773657,-8.773658 c -0.808699,-0.808698 -0.808699,-2.115853 0,-2.924552 0.808698,-0.808699 2.115853,-0.808699 2.924552,0 l 5.243098,5.243098 v -7.917388 c 0,-1.141693 0.924523,-2.068284 2.068283,-2.068284 z M 29.533168,79.111994 h 41.35946 c 2.283385,0 4.136567,1.853182 4.136567,4.136567 0,2.283384 -1.853182,4.134498 -4.136567,4.134498 h -41.35946 c -2.283385,0 -4.136566,-1.851114 -4.136566,-4.134498 0,-2.283385 1.851113,-4.136567 4.136566,-4.136567 z"
   id="path2"
   inkscape:connector-curvature="0"
   style="clip-rule:evenodd;fill-rule:evenodd;stroke-width:2.06828332" />
</svg>