<?xml version="1.0" encoding="utf-8"?>
<!-- Generator: Adobe Illustrator 15.1.0, SVG Export Plug-In . SVG Version: 6.00 Build 0)  -->
<!DOCTYPE svg PUBLIC "-//W3C//DTD SVG 1.1//EN" "http://www.w3.org/Graphics/SVG/1.1/DTD/svg11.dtd">
<svg version="1.1" id="Layer_1" xmlns="http://www.w3.org/2000/svg" xmlns:xlink="http://www.w3.org/1999/xlink" x="0px" y="0px"
	 width="100px" height="100px" viewBox="0 0 100 100" enable-background="new 0 0 100 100" xml:space="preserve">
<path fill-rule="evenodd" clip-rule="evenodd" d="M50,67.997c-4.418,0-7.999-3.581-7.999-7.999c0-2.025,0.759-3.869,1.999-5.278
	V38.001c0-3.313,2.687-5.999,6-5.999c3.312,0,5.999,2.686,5.999,5.999V54.72c1.24,1.409,2,3.253,2,5.278
	C57.999,64.416,54.417,67.997,50,67.997z M51.999,56.553v-4.292V42v-3.999c0-1.104-0.896-2-1.999-2c-1.104,0-2,0.896-2,2V42v10.261
	v4.292c-1.19,0.693-2,1.969-2,3.445c0,2.209,1.791,3.999,4,3.999c2.208,0,3.999-1.79,3.999-3.999
	C53.999,58.521,53.189,57.246,51.999,56.553z"/>
</svg>
