<?xml version="1.0" encoding="UTF-8" standalone="no"?>
<!-- Generator: Adobe Illustrator 15.1.0, SVG Export Plug-In . SVG Version: 6.00 Build 0)  -->

<svg
   xmlns:dc="http://purl.org/dc/elements/1.1/"
   xmlns:cc="http://creativecommons.org/ns#"
   xmlns:rdf="http://www.w3.org/1999/02/22-rdf-syntax-ns#"
   xmlns:svg="http://www.w3.org/2000/svg"
   xmlns="http://www.w3.org/2000/svg"
   xmlns:sodipodi="http://sodipodi.sourceforge.net/DTD/sodipodi-0.dtd"
   xmlns:inkscape="http://www.inkscape.org/namespaces/inkscape"
   version="1.1"
   id="Layer_1"
   x="0px"
   y="0px"
   width="100px"
   height="100px"
   viewBox="0 0 100 100"
   enable-background="new 0 0 100 100"
   xml:space="preserve"
   sodipodi:docname="Thermometer-Zero-symbolic.svg"
   inkscape:version="0.92.4 5da689c313, 2019-01-14"><metadata
   id="metadata9"><rdf:RDF><cc:Work
       rdf:about=""><dc:format>image/svg+xml</dc:format><dc:type
         rdf:resource="http://purl.org/dc/dcmitype/StillImage" /></cc:Work></rdf:RDF></metadata><defs
   id="defs7" /><sodipodi:namedview
   pagecolor="#ffffff"
   bordercolor="#666666"
   borderopacity="1"
   objecttolerance="10"
   gridtolerance="10"
   guidetolerance="10"
   inkscape:pageopacity="0"
   inkscape:pageshadow="2"
   inkscape:window-width="640"
   inkscape:window-height="480"
   id="namedview5"
   showgrid="false"
   inkscape:zoom="2.36"
   inkscape:cx="50"
   inkscape:cy="50"
   inkscape:window-x="0"
   inkscape:window-y="0"
   inkscape:window-maximized="0"
   inkscape:current-layer="Layer_1" />
<path
   d="m 49.482308,100.62412 c -12.320452,0 -22.311816,-9.988577 -22.311816,-22.311818 0,-5.648384 2.117098,-10.791901 5.578651,-14.722061 V 16.955504 c 0,-9.2410361 7.494918,-16.73316502 16.733165,-16.73316502 9.241035,0 16.735953,7.49212892 16.735953,16.73316502 v 46.634737 c 3.458764,3.93016 5.575863,9.073677 5.575863,14.722061 0,12.323241 -9.988576,22.311818 -22.311816,22.311818 z m 5.57865,-31.921045 V 56.731289 28.110018 16.955504 c 0,-3.079416 -2.499235,-5.578651 -5.57865,-5.578651 -3.079416,0 -5.575862,2.499235 -5.575862,5.578651 v 11.154514 28.621271 11.971786 c -3.319298,1.933003 -5.578652,5.492182 -5.578652,9.609227 0,6.161621 4.995683,11.154514 11.154514,11.154514 6.16162,0 11.157302,-4.992893 11.157302,-11.154514 0,-4.119834 -2.259354,-7.676224 -5.578652,-9.609227 z m -5.57865,17.977204 c -4.619124,0 -8.365188,-3.748853 -8.365188,-8.367977 0,-4.619123 3.746064,-8.367977 8.365188,-8.367977 4.621912,0 8.367976,3.748854 8.367976,8.367977 0,4.619124 -3.746064,8.367977 -8.367976,8.367977 z"
   id="path2"
   inkscape:connector-curvature="0"
   style="clip-rule:evenodd;fill-rule:evenodd;stroke-width:2.78932571" />
</svg>