<?xml version="1.0" encoding="utf-8"?>
<!-- Generator: Adobe Illustrator 15.1.0, SVG Export Plug-In . SVG Version: 6.00 Build 0)  -->
<!DOCTYPE svg PUBLIC "-//W3C//DTD SVG 1.1//EN" "http://www.w3.org/Graphics/SVG/1.1/DTD/svg11.dtd">
<svg version="1.1" id="Layer_1" xmlns="http://www.w3.org/2000/svg" xmlns:xlink="http://www.w3.org/1999/xlink" x="0px" y="0px"
	 width="100px" height="100px" viewBox="0 0 100 100" enable-background="new 0 0 100 100" xml:space="preserve">
<path fill-rule="evenodd" clip-rule="evenodd" d="M50,67.865c-4.418,0-7.998-3.58-7.998-7.998c0-2.025,0.758-3.869,2-5.279V37.87
	c0-3.313,2.686-5.999,5.998-5.999c3.314,0,6,2.686,6,5.999v16.718c1.24,1.41,2,3.254,2,5.279C58,64.285,54.418,67.865,50,67.865z
	 M52,56.422v-4.293v-10.26V37.87c0-1.104-0.895-2-2-2c-1.104,0-2,0.896-2,2v3.999v10.26v4.293c-1.189,0.693-1.998,1.969-1.998,3.445
	c0,2.209,1.789,3.998,3.998,3.998s4-1.789,4-3.998C54,58.391,53.191,57.115,52,56.422z M50,62.867c-1.656,0-2.998-1.344-2.998-3
	c0-1.305,0.836-2.402,1.998-2.816v-5.184h2v5.184c1.162,0.414,2,1.512,2,2.816C53,61.523,51.656,62.867,50,62.867z"/>
</svg>
