<?xml version="1.0" encoding="UTF-8" standalone="no"?>
<!-- Generator: Adobe Illustrator 15.1.0, SVG Export Plug-In . SVG Version: 6.00 Build 0)  -->

<svg
   xmlns:dc="http://purl.org/dc/elements/1.1/"
   xmlns:cc="http://creativecommons.org/ns#"
   xmlns:rdf="http://www.w3.org/1999/02/22-rdf-syntax-ns#"
   xmlns:svg="http://www.w3.org/2000/svg"
   xmlns="http://www.w3.org/2000/svg"
   xmlns:sodipodi="http://sodipodi.sourceforge.net/DTD/sodipodi-0.dtd"
   xmlns:inkscape="http://www.inkscape.org/namespaces/inkscape"
   version="1.1"
   id="Layer_1"
   x="0px"
   y="0px"
   width="100px"
   height="100px"
   viewBox="0 0 100 100"
   enable-background="new 0 0 100 100"
   xml:space="preserve"
   sodipodi:docname="Thermometer-50-symbolic.svg"
   inkscape:version="0.92.4 5da689c313, 2019-01-14"><metadata
   id="metadata9"><rdf:RDF><cc:Work
       rdf:about=""><dc:format>image/svg+xml</dc:format><dc:type
         rdf:resource="http://purl.org/dc/dcmitype/StillImage" /></cc:Work></rdf:RDF></metadata><defs
   id="defs7" /><sodipodi:namedview
   pagecolor="#ffffff"
   bordercolor="#666666"
   borderopacity="1"
   objecttolerance="10"
   gridtolerance="10"
   guidetolerance="10"
   inkscape:pageopacity="0"
   inkscape:pageshadow="2"
   inkscape:window-width="1080"
   inkscape:window-height="936"
   id="namedview5"
   showgrid="false"
   inkscape:zoom="2.36"
   inkscape:cx="50"
   inkscape:cy="50"
   inkscape:window-x="0"
   inkscape:window-y="0"
   inkscape:window-maximized="0"
   inkscape:current-layer="Layer_1" />
<path
   d="m 50.372881,84.816153 c -8.836,0 -16,-7.164 -16,-16 0,-4.05 1.52,-7.738 4,-10.558 v -33.434 c 0,-6.626 5.372,-12 12,-12 6.624,0 11.996,5.374 11.996,12 v 33.434 c 2.484,2.82 4,6.508 4,10.558 0,8.836 -7.16,16 -15.996,16 z m 4,-22.89 v -8.582 -20.522 -7.998 c 0,-2.208 -1.792,-4 -4,-4 -2.21,0 -4,1.792 -4,4 v 7.998 20.522 8.582 c -2.382,1.386 -4,3.938 -4,6.89 0,4.418 3.582,8 8,8 4.418,0 8,-3.582 8,-8 0,-2.952 -1.622,-5.504 -4,-6.89 z m -4,12.89 c -3.312,0 -6,-2.688 -6,-6 0,-2.61 1.676,-4.804 4,-5.632 v -20.49 h 4 v 20.49 c 2.324,0.828 4,3.024 4,5.632 0,3.312 -2.688,6 -6,6 z"
   id="path2"
   inkscape:connector-curvature="0"
   style="clip-rule:evenodd;fill-rule:evenodd;stroke-width:2" />
</svg>