<?xml version="1.0" encoding="UTF-8" standalone="no"?>
<!-- Generator: Adobe Illustrator 15.1.0, SVG Export Plug-In . SVG Version: 6.00 Build 0)  -->

<svg
   xmlns:dc="http://purl.org/dc/elements/1.1/"
   xmlns:cc="http://creativecommons.org/ns#"
   xmlns:rdf="http://www.w3.org/1999/02/22-rdf-syntax-ns#"
   xmlns:svg="http://www.w3.org/2000/svg"
   xmlns="http://www.w3.org/2000/svg"
   xmlns:sodipodi="http://sodipodi.sourceforge.net/DTD/sodipodi-0.dtd"
   xmlns:inkscape="http://www.inkscape.org/namespaces/inkscape"
   version="1.1"
   id="Layer_1"
   x="0px"
   y="0px"
   width="100px"
   height="100px"
   viewBox="0 0 100 100"
   enable-background="new 0 0 100 100"
   xml:space="preserve"
   sodipodi:docname="Thermometer-50-symbolic.svg"
   inkscape:version="0.92.4 5da689c313, 2019-01-14"><metadata
   id="metadata9"><rdf:RDF><cc:Work
       rdf:about=""><dc:format>image/svg+xml</dc:format><dc:type
         rdf:resource="http://purl.org/dc/dcmitype/StillImage" /></cc:Work></rdf:RDF></metadata><defs
   id="defs7" /><sodipodi:namedview
   pagecolor="#ffffff"
   bordercolor="#666666"
   borderopacity="1"
   objecttolerance="10"
   gridtolerance="10"
   guidetolerance="10"
   inkscape:pageopacity="0"
   inkscape:pageshadow="2"
   inkscape:window-width="640"
   inkscape:window-height="480"
   id="namedview5"
   showgrid="false"
   inkscape:zoom="2.36"
   inkscape:cx="50"
   inkscape:cy="50"
   inkscape:window-x="0"
   inkscape:window-y="0"
   inkscape:window-maximized="0"
   inkscape:current-layer="Layer_1" />
<path
   d="m 50.142813,99.646661 c -12.219008,0 -22.125864,-9.906855 -22.125864,-22.125863 0,-5.600609 2.101957,-10.700621 5.531466,-14.600304 V 16.685737 c 0,-9.1628736 7.428759,-16.59439802 16.594398,-16.59439802 9.160106,0 16.588865,7.43152442 16.588865,16.59439802 v 46.234757 c 3.43504,3.899683 5.531466,8.999695 5.531466,14.600304 0,12.219008 -9.901324,22.125863 -22.120331,22.125863 z M 55.674278,67.992848 V 56.125088 27.745902 16.685737 c 0,-3.05337 -2.478096,-5.531466 -5.531465,-5.531466 -3.056135,0 -5.531466,2.478096 -5.531466,5.531466 v 11.060165 28.379186 11.86776 c -3.293988,1.916653 -5.531466,5.445728 -5.531466,9.52795 0,6.109504 4.953428,11.062931 11.062932,11.062931 6.109503,0 11.06293,-4.953427 11.06293,-11.062931 0,-4.082222 -2.243009,-7.611297 -5.531465,-9.52795 z m -5.531465,17.825148 c -4.580054,0 -8.297199,-3.717145 -8.297199,-8.297198 0,-3.609282 2.317684,-6.643291 5.531466,-7.788304 V 41.39756 h 5.531466 v 28.334934 c 3.21378,1.145013 5.531465,4.181788 5.531465,7.788304 0,4.580053 -3.717145,8.297198 -8.297198,8.297198 z"
   id="path2"
   inkscape:connector-curvature="0"
   style="clip-rule:evenodd;fill-rule:evenodd;stroke-width:2.765733" />
</svg>