<?xml version="1.0" encoding="UTF-8" standalone="no"?>
<!-- Generator: Adobe Illustrator 15.1.0, SVG Export Plug-In . SVG Version: 6.00 Build 0)  -->

<svg
   xmlns:dc="http://purl.org/dc/elements/1.1/"
   xmlns:cc="http://creativecommons.org/ns#"
   xmlns:rdf="http://www.w3.org/1999/02/22-rdf-syntax-ns#"
   xmlns:svg="http://www.w3.org/2000/svg"
   xmlns="http://www.w3.org/2000/svg"
   xmlns:sodipodi="http://sodipodi.sourceforge.net/DTD/sodipodi-0.dtd"
   xmlns:inkscape="http://www.inkscape.org/namespaces/inkscape"
   version="1.1"
   id="Layer_1"
   x="0px"
   y="0px"
   width="100px"
   height="100px"
   viewBox="0 0 100 100"
   enable-background="new 0 0 100 100"
   xml:space="preserve"
   sodipodi:docname="Thermometer-symbolic.svg"
   inkscape:version="0.92.4 5da689c313, 2019-01-14"><metadata
   id="metadata9"><rdf:RDF><cc:Work
       rdf:about=""><dc:format>image/svg+xml</dc:format><dc:type
         rdf:resource="http://purl.org/dc/dcmitype/StillImage" /></cc:Work></rdf:RDF></metadata><defs
   id="defs7" /><sodipodi:namedview
   pagecolor="#ffffff"
   bordercolor="#666666"
   borderopacity="1"
   objecttolerance="10"
   gridtolerance="10"
   guidetolerance="10"
   inkscape:pageopacity="0"
   inkscape:pageshadow="2"
   inkscape:window-width="640"
   inkscape:window-height="480"
   id="namedview5"
   showgrid="false"
   inkscape:zoom="2.36"
   inkscape:cx="50"
   inkscape:cy="50"
   inkscape:window-x="0"
   inkscape:window-y="0"
   inkscape:window-maximized="0"
   inkscape:current-layer="Layer_1" />
<path
   d="m 51.177224,100.20039 c -12.323241,0 -22.311817,-9.988576 -22.311817,-22.311817 0,-5.648384 2.117098,-10.791901 5.575862,-14.722061 V 16.531775 c 0,-9.2410359 7.494919,-16.73316483 16.735955,-16.73316483 9.238246,0 16.733164,7.49212893 16.733164,16.73316483 v 46.634737 c 3.458764,3.93016 5.578652,9.073677 5.578652,14.722061 0,12.323241 -9.991365,22.311817 -22.311816,22.311817 z M 56.753085,68.279346 V 56.30756 27.686289 16.531775 c 0,-3.079416 -2.499235,-5.578651 -5.575861,-5.578651 -3.079416,0 -5.578652,2.499235 -5.578652,5.578651 V 27.686289 56.30756 68.279346 c -3.319297,1.933003 -5.578651,5.492182 -5.578651,9.609227 0,6.161621 4.995682,11.154514 11.157303,11.154514 6.15883,0 11.154513,-4.992893 11.154513,-11.154514 0,-4.119834 -2.259354,-7.676224 -5.578652,-9.609227 z"
   id="path2"
   inkscape:connector-curvature="0"
   style="clip-rule:evenodd;fill-rule:evenodd;stroke-width:2.78932571" />
</svg>