<?xml version="1.0" encoding="UTF-8" standalone="no"?>
<!-- Generator: Adobe Illustrator 15.1.0, SVG Export Plug-In . SVG Version: 6.00 Build 0)  -->

<svg
   xmlns:dc="http://purl.org/dc/elements/1.1/"
   xmlns:cc="http://creativecommons.org/ns#"
   xmlns:rdf="http://www.w3.org/1999/02/22-rdf-syntax-ns#"
   xmlns:svg="http://www.w3.org/2000/svg"
   xmlns="http://www.w3.org/2000/svg"
   xmlns:sodipodi="http://sodipodi.sourceforge.net/DTD/sodipodi-0.dtd"
   xmlns:inkscape="http://www.inkscape.org/namespaces/inkscape"
   version="1.1"
   id="Layer_1"
   x="0px"
   y="0px"
   width="100px"
   height="100px"
   viewBox="0 0 100 100"
   enable-background="new 0 0 100 100"
   xml:space="preserve"
   sodipodi:docname="Thermometer-100-symbolic.svg"
   inkscape:version="0.92.4 5da689c313, 2019-01-14"><metadata
   id="metadata9"><rdf:RDF><cc:Work
       rdf:about=""><dc:format>image/svg+xml</dc:format><dc:type
         rdf:resource="http://purl.org/dc/dcmitype/StillImage" /></cc:Work></rdf:RDF></metadata><defs
   id="defs7" /><sodipodi:namedview
   pagecolor="#ffffff"
   bordercolor="#666666"
   borderopacity="1"
   objecttolerance="10"
   gridtolerance="10"
   guidetolerance="10"
   inkscape:pageopacity="0"
   inkscape:pageshadow="2"
   inkscape:window-width="640"
   inkscape:window-height="480"
   id="namedview5"
   showgrid="false"
   inkscape:zoom="2.36"
   inkscape:cx="50"
   inkscape:cy="50"
   inkscape:window-x="0"
   inkscape:window-y="0"
   inkscape:window-maximized="0"
   inkscape:current-layer="Layer_1" />
<path
   d="m 50.754887,100.91785 c -12.323022,0 -22.314209,-9.991189 -22.314209,-22.314211 0,-5.648283 2.11985,-10.791708 5.578552,-14.724588 V 17.250724 c 0,-9.2408715 7.491996,-16.73565621 16.735657,-16.73565621 9.238081,0 16.735655,7.49478471 16.735655,16.73565621 v 46.628327 c 3.458702,3.93288 5.572973,9.076305 5.572973,14.724588 0,12.323022 -9.985608,22.314211 -22.308628,22.314211 z M 56.333438,68.994584 V 57.0258 28.405039 17.250724 c 0,-3.079361 -2.499191,-5.578552 -5.578551,-5.578552 -3.08215,0 -5.578553,2.499191 -5.578553,5.578552 V 28.405039 57.0258 68.994584 c -3.316449,1.932968 -5.578552,5.492084 -5.578552,9.609055 0,6.161511 4.995594,11.157105 11.157105,11.157105 6.161509,0 11.157103,-4.995594 11.157103,-11.157105 0,-4.116971 -2.262103,-7.676087 -5.578552,-9.609055 z m -5.578551,17.976884 c -4.619042,0 -8.367829,-3.748787 -8.367829,-8.367829 0,-3.640005 2.337414,-6.699841 5.578552,-7.854601 V 28.229315 17.247935 c 0,-1.54247 1.246807,-2.789276 2.789277,-2.789276 1.542469,0 2.789276,1.246806 2.789276,2.789276 v 10.98138 42.519723 c 3.241137,1.15476 5.578551,4.217386 5.578551,7.854601 0,4.619042 -3.748787,8.367829 -8.367827,8.367829 z"
   id="path2"
   inkscape:connector-curvature="0"
   style="clip-rule:evenodd;fill-rule:evenodd;stroke-width:2.78927612" />
</svg>