<?xml version="1.0" encoding="UTF-8" standalone="no"?>
<!-- Generator: Adobe Illustrator 15.1.0, SVG Export Plug-In . SVG Version: 6.00 Build 0)  -->

<svg
   xmlns:dc="http://purl.org/dc/elements/1.1/"
   xmlns:cc="http://creativecommons.org/ns#"
   xmlns:rdf="http://www.w3.org/1999/02/22-rdf-syntax-ns#"
   xmlns:svg="http://www.w3.org/2000/svg"
   xmlns="http://www.w3.org/2000/svg"
   xmlns:sodipodi="http://sodipodi.sourceforge.net/DTD/sodipodi-0.dtd"
   xmlns:inkscape="http://www.inkscape.org/namespaces/inkscape"
   version="1.1"
   id="Layer_1"
   x="0px"
   y="0px"
   width="100px"
   height="100px"
   viewBox="0 0 100 100"
   enable-background="new 0 0 100 100"
   xml:space="preserve"
   sodipodi:docname="Tornado-symbolic.svg"
   inkscape:version="0.92.4 5da689c313, 2019-01-14"><metadata
   id="metadata9"><rdf:RDF><cc:Work
       rdf:about=""><dc:format>image/svg+xml</dc:format><dc:type
         rdf:resource="http://purl.org/dc/dcmitype/StillImage" /></cc:Work></rdf:RDF></metadata><defs
   id="defs7" /><sodipodi:namedview
   pagecolor="#ffffff"
   bordercolor="#666666"
   borderopacity="1"
   objecttolerance="10"
   gridtolerance="10"
   guidetolerance="10"
   inkscape:pageopacity="0"
   inkscape:pageshadow="2"
   inkscape:window-width="1080"
   inkscape:window-height="936"
   id="namedview5"
   showgrid="false"
   inkscape:zoom="2.36"
   inkscape:cx="50"
   inkscape:cy="50"
   inkscape:window-x="0"
   inkscape:window-y="0"
   inkscape:window-maximized="0"
   inkscape:current-layer="Layer_1" />
<path
   d="m 79.422572,29.45442 h -58.89225 c -1.7112,0 -3.1,-1.3888 -3.1,-3.09845 0,-1.7112 1.3888,-3.1 3.1,-3.1 h 58.89225 c 1.7112,0 3.1,1.3888 3.1,3.1 0,1.70965 -1.38725,3.09845 -3.1,3.09845 z m -55.79225,6.2 h 46.4938 c 1.7112,0 3.1,1.3888 3.1,3.1 0,1.7112 -1.3888,3.09845 -3.1,3.09845 h -46.4938 c -1.7112,0 -3.1,-1.3888 -3.1,-3.09845 0,-1.71275 1.3888,-3.1 3.1,-3.1 z m 18.5969,12.39845 h 34.0969 c 1.7112,0 3.09845,1.3888 3.09845,3.09845 0,1.7112 -1.38725,3.1 -3.09845,3.1 h -34.0969 c -1.7112,0 -3.09845,-1.3888 -3.09845,-3.1 0,-1.70965 1.38725,-3.09845 3.09845,-3.09845 z m 3.1,24.7969 h 9.29845 c 1.7112,0 3.1,1.3888 3.1,3.09845 0,1.7112 -1.3888,3.1 -3.1,3.1 h -9.29845 c -1.7112,0 -3.1,-1.3888 -3.1,-3.1 0,-1.70965 1.3888,-3.09845 3.1,-3.09845 z m 1.55,-9.3 c 0,-1.7112 1.3888,-3.09845 3.1,-3.09845 h 21.6969 c 1.7112,0 3.1,1.3888 3.1,3.09845 0,1.7112 -1.3888,3.1 -3.1,3.1 h -21.6969 c -1.7112,0 -3.1,-1.38725 -3.1,-3.1 z"
   id="path2"
   inkscape:connector-curvature="0"
   style="clip-rule:evenodd;fill-rule:evenodd;stroke-width:1.54999995" />
</svg>