<?xml version="1.0" encoding="UTF-8" standalone="no"?>
<!-- Generator: Adobe Illustrator 15.1.0, SVG Export Plug-In . SVG Version: 6.00 Build 0)  -->

<svg
   xmlns:dc="http://purl.org/dc/elements/1.1/"
   xmlns:cc="http://creativecommons.org/ns#"
   xmlns:rdf="http://www.w3.org/1999/02/22-rdf-syntax-ns#"
   xmlns:svg="http://www.w3.org/2000/svg"
   xmlns="http://www.w3.org/2000/svg"
   xmlns:sodipodi="http://sodipodi.sourceforge.net/DTD/sodipodi-0.dtd"
   xmlns:inkscape="http://www.inkscape.org/namespaces/inkscape"
   version="1.1"
   id="Layer_1"
   x="0px"
   y="0px"
   width="100px"
   height="100px"
   viewBox="0 0 100 100"
   enable-background="new 0 0 100 100"
   xml:space="preserve"
   sodipodi:docname="Tornado-symbolic.svg"
   inkscape:version="0.92.4 5da689c313, 2019-01-14"><metadata
   id="metadata9"><rdf:RDF><cc:Work
       rdf:about=""><dc:format>image/svg+xml</dc:format><dc:type
         rdf:resource="http://purl.org/dc/dcmitype/StillImage" /></cc:Work></rdf:RDF></metadata><defs
   id="defs7" /><sodipodi:namedview
   pagecolor="#ffffff"
   bordercolor="#666666"
   borderopacity="1"
   objecttolerance="10"
   gridtolerance="10"
   guidetolerance="10"
   inkscape:pageopacity="0"
   inkscape:pageshadow="2"
   inkscape:window-width="640"
   inkscape:window-height="480"
   id="namedview5"
   showgrid="false"
   inkscape:zoom="2.36"
   inkscape:cx="50"
   inkscape:cy="50"
   inkscape:window-x="0"
   inkscape:window-y="0"
   inkscape:window-maximized="0"
   inkscape:current-layer="Layer_1" />
<path
   d="M 94.955264,16.058771 H 5.2054648 c -2.607811,0 -4.72429531,-2.116484 -4.72429531,-4.721933 0,-2.6078113 2.11648431,-4.7242956 4.72429531,-4.7242956 H 94.955264 c 2.607811,0 4.724295,2.1164843 4.724295,4.7242956 0,2.605449 -2.114122,4.721933 -4.724295,4.721933 z M 9.9297601,25.507361 H 80.78474 c 2.607811,0 4.724295,2.116485 4.724295,4.724295 0,2.607811 -2.116484,4.721933 -4.724295,4.721933 H 9.9297601 c -2.607811,0 -4.7242953,-2.116484 -4.7242953,-4.721933 0,-2.610173 2.1164843,-4.724295 4.7242953,-4.724295 z M 38.270806,44.40218 H 90.23333 c 2.607811,0 4.721934,2.116484 4.721934,4.721933 0,2.607811 -2.114123,4.724295 -4.721934,4.724295 H 38.270806 c -2.607811,0 -4.721933,-2.116484 -4.721933,-4.724295 0,-2.605449 2.114122,-4.721933 4.721933,-4.721933 z m 4.724296,37.789638 h 14.170523 c 2.607811,0 4.724296,2.116484 4.724296,4.721933 0,2.607811 -2.116485,4.724295 -4.724296,4.724295 H 42.995102 c -2.607811,0 -4.724296,-2.116484 -4.724296,-4.724295 0,-2.605449 2.116485,-4.721933 4.724296,-4.721933 z m 2.362147,-14.172886 c 0,-2.607811 2.116485,-4.721933 4.724296,-4.721933 h 33.065342 c 2.607811,0 4.724296,2.116484 4.724296,4.721933 0,2.607811 -2.116485,4.724295 -4.724296,4.724295 H 50.081545 c -2.607811,0 -4.724296,-2.114122 -4.724296,-4.724295 z"
   id="path2"
   inkscape:connector-curvature="0"
   style="clip-rule:evenodd;fill-rule:evenodd;stroke-width:2.36214757" />
</svg>