<?xml version="1.0" encoding="UTF-8" standalone="no"?>
<!-- Generator: Adobe Illustrator 22.0.1, SVG Export Plug-In . SVG Version: 6.00 Build 0)  -->

<svg
   version="1.1"
   id="Layer_1"
   x="0px"
   y="0px"
   viewBox="0 0 30 30"
   style="enable-background:new 0 0 30 30;"
   xml:space="preserve"
   sodipodi:docname="tornado-symbolic.svg"
   inkscape:version="1.3.2 (091e20ef0f, 2023-11-25, custom)"
   xmlns:inkscape="http://www.inkscape.org/namespaces/inkscape"
   xmlns:sodipodi="http://sodipodi.sourceforge.net/DTD/sodipodi-0.dtd"
   xmlns="http://www.w3.org/2000/svg"
   xmlns:svg="http://www.w3.org/2000/svg"><defs
   id="defs1" /><sodipodi:namedview
   id="namedview1"
   pagecolor="#ffffff"
   bordercolor="#666666"
   borderopacity="1.0"
   inkscape:showpageshadow="2"
   inkscape:pageopacity="0.0"
   inkscape:pagecheckerboard="0"
   inkscape:deskcolor="#d1d1d1"
   inkscape:zoom="14.6"
   inkscape:cx="15"
   inkscape:cy="14.965753"
   inkscape:window-width="1080"
   inkscape:window-height="1884"
   inkscape:window-x="0"
   inkscape:window-y="0"
   inkscape:window-maximized="1"
   inkscape:current-layer="Layer_1" />
<path
   d="m 1.9574814,16.072891 c 0,0.827145 0.4315539,1.534414 1.2946618,2.121807 1.5823644,1.114847 3.9678986,1.666277 7.1685898,1.666277 1.438514,0 2.769139,-0.119876 4.003863,-0.371615 1.294661,-0.275715 2.361559,-0.719257 3.176716,-1.318637 0.815157,-0.599381 1.234724,-1.294662 1.234724,-2.10982 0,-0.251739 -0.04795,-0.491492 -0.143852,-0.743231 1.666278,-0.407579 2.972927,-0.959009 3.919949,-1.65429 0.947021,-0.695282 1.426525,-1.498452 1.426525,-2.397522 0,-0.227765 -0.03596,-0.467517 -0.107888,-0.719257 2.745162,-0.9709962 4.111749,-2.2776456 4.111749,-3.9319357 0,-1.0549096 -0.59938,-1.9899431 -1.786153,-2.8051005 C 23.918782,2.2511776 20.490326,1.471983 15.970997,1.471983 c -2.133794,0 -4.0638,0.1918017 -5.790016,0.5634176 C 8.2989266,2.419004 6.7884879,3.0183845 5.6376774,3.8335419 4.4868669,4.6486993 3.9114617,5.5837328 3.9114617,6.6266548 c 0,0.6233557 0.1918017,1.1867733 0.5754052,1.7022405 -1.4145379,0.8031698 -2.1218068,1.7861537 -2.1218068,2.9489517 0,0.899071 0.4435415,1.690253 1.318637,2.373547 C 2.5328866,14.3227 1.9574814,15.12587 1.9574814,16.072891 Z m 0.7192565,5.394424 c 0,0.875096 0.5394425,1.570377 1.6183273,2.061869 1.0788848,0.491492 2.4454722,0.743232 4.0877747,0.743232 1.6662781,0 3.0328651,-0.25174 4.1237381,-0.743232 1.090873,-0.491492 1.630315,-1.186773 1.630315,-2.061869 0,-0.323665 -0.107889,-0.59938 -0.311678,-0.827145 -0.203789,-0.227765 -0.479504,-0.335653 -0.80317,-0.335653 -0.263727,0 -0.503479,0.0959 -0.719256,0.275715 -0.215777,0.179814 -0.347641,0.419566 -0.407579,0.683294 -0.239752,0.191801 -0.671306,0.359628 -1.318637,0.515467 -0.6473315,0.155839 -1.3785757,0.239752 -2.1937331,0.239752 -1.318637,0 -2.3975218,-0.191802 -3.2126793,-0.563418 0.1918018,-0.191801 0.2877027,-0.431553 0.3116779,-0.719256 0.023975,-0.287703 -0.04795,-0.539443 -0.1798142,-0.743232 -0.1918017,-0.25174 -0.4315539,-0.419566 -0.7312441,-0.479504 -0.2996902,-0.05994 -0.5754052,0 -0.8391326,0.155839 -0.707269,0.491492 -1.0549097,1.078884 -1.0549097,1.798141 z m 1.534414,-5.394424 c 0,-0.01199 0.071926,-0.08391 0.2277646,-0.215777 0.1078885,-0.107889 0.335653,-0.239752 0.6713061,-0.407579 0.3356531,-0.167826 0.7312442,-0.29969 1.1508105,-0.419566 l 0.1438513,-0.07193 c 1.9419927,0.647331 4.2076516,0.970997 6.7969746,0.970997 1.138823,0 2.169758,-0.05994 3.092804,-0.191802 l 0.311677,0.275715 c -0.107888,0.191802 -0.359628,0.383603 -0.755219,0.59938 -0.479504,0.25174 -1.222736,0.491492 -2.229695,0.683294 -1.006959,0.191802 -2.073857,0.29969 -3.200693,0.29969 -1.1268348,0 -2.193732,-0.0959 -3.2006912,-0.29969 C 6.2130826,17.091838 5.4578633,16.864073 4.9663713,16.612333 4.5587926,16.444507 4.3070528,16.264693 4.2111519,16.072891 Z m 0.1318637,10.093567 c 0,0.755219 0.4315539,1.342612 1.2946618,1.750191 0.8631079,0.407578 1.9300051,0.611368 3.2006916,0.611368 1.294662,0 2.385535,-0.20379 3.26063,-0.611368 0.875096,-0.407579 1.318637,-0.994972 1.318637,-1.750191 0,-0.29969 -0.107888,-0.575405 -0.335653,-0.80317 -0.227764,-0.227765 -0.491492,-0.347641 -0.791182,-0.347641 -0.563418,0 -0.935034,0.287703 -1.10286,0.863108 -0.467517,0.287703 -1.2467119,0.443542 -2.349572,0.443542 -0.9590087,0 -1.7262157,-0.143852 -2.3016209,-0.443542 C 6.3569339,25.30335 5.9973057,25.015647 5.433888,25.015647 c -0.2996902,0 -0.5634176,0.107889 -0.7672069,0.335653 -0.2037894,0.227765 -0.3236655,0.491492 -0.3236655,0.815158 z M 4.5947554,11.277847 c 0,-0.0959 0.059938,-0.203789 0.1798141,-0.335653 0.2877027,-0.359628 0.8631079,-0.719256 1.7022405,-1.0549095 2.301621,1.2347235 5.46635,1.8460915 9.482199,1.8460915 2.049882,0 3.979887,-0.191801 5.778028,-0.563417 v 0.107888 c 0,0.179814 -0.107888,0.359628 -0.335653,0.539443 -0.491492,0.431554 -1.40255,0.839132 -2.745162,1.234723 -1.450501,0.431554 -3.272618,0.647331 -5.46635,0.647331 -2.205721,0 -4.0278375,-0.215777 -5.4783382,-0.647331 C 6.3209711,12.66841 5.3979252,12.260831 4.9304085,11.829277 4.7026439,11.649463 4.5947554,11.469649 4.5947554,11.277847 Z M 6.1531446,6.6266548 c 0,-0.2157769 0.1438513,-0.4435415 0.4195663,-0.7072689 C 7.1121533,5.4159063 8.1910381,4.9364019 9.7853902,4.4688852 11.499619,3.9654056 13.5495,3.7136658 15.947022,3.7136658 c 2.409509,0 4.483366,0.2517398 6.221569,0.7552194 1.618327,0.4675167 2.685224,0.9590087 3.212679,1.4624883 0.263728,0.2637274 0.407579,0.5034796 0.407579,0.7072689 0,0.2037894 -0.131864,0.4195664 -0.407579,0.6713061 -0.527455,0.5034796 -1.594352,0.9949716 -3.212679,1.474476 -1.738203,0.5034796 -3.800072,0.7552193 -6.221569,0.7552193 -2.397522,0 -4.459391,-0.2517397 -6.1616318,-0.7552193 C 8.1790505,8.3049201 7.1001657,7.8134281 6.5727109,7.2979609 6.2969959,7.0462211 6.1531446,6.8304442 6.1531446,6.6266548 Z"
   id="path1"
   style="stroke-width:1.19876" />
</svg>
