<?xml version="1.0" encoding="UTF-8" standalone="no"?>
<!-- Generator: Adobe Illustrator 22.0.1, SVG Export Plug-In . SVG Version: 6.00 Build 0)  -->

<svg
   version="1.1"
   id="Layer_1"
   x="0px"
   y="0px"
   viewBox="0 0 30 30"
   style="enable-background:new 0 0 30 30;"
   xml:space="preserve"
   sodipodi:docname="tsunami-symbolic.svg"
   inkscape:version="1.3.2 (091e20ef0f, 2023-11-25, custom)"
   xmlns:inkscape="http://www.inkscape.org/namespaces/inkscape"
   xmlns:sodipodi="http://sodipodi.sourceforge.net/DTD/sodipodi-0.dtd"
   xmlns="http://www.w3.org/2000/svg"
   xmlns:svg="http://www.w3.org/2000/svg"><defs
   id="defs1" /><sodipodi:namedview
   id="namedview1"
   pagecolor="#ffffff"
   bordercolor="#666666"
   borderopacity="1.0"
   inkscape:showpageshadow="2"
   inkscape:pageopacity="0.0"
   inkscape:pagecheckerboard="0"
   inkscape:deskcolor="#d1d1d1"
   inkscape:zoom="14.6"
   inkscape:cx="15"
   inkscape:cy="14.965753"
   inkscape:window-width="1080"
   inkscape:window-height="1884"
   inkscape:window-x="0"
   inkscape:window-y="0"
   inkscape:window-maximized="1"
   inkscape:current-layer="Layer_1" />
<path
   d="m 1.6412454,26.368723 c 0,-0.215138 0.080677,-0.403384 0.2285846,-0.564738 0.1613539,-0.161354 0.3361539,-0.242031 0.5512924,-0.242031 H 2.9589685 C 2.6765993,24.674508 2.4345685,23.746723 2.2463224,22.7786 1.9639531,21.299523 1.8160454,19.954908 1.8160454,18.7582 c 0,-2.299292 0.4033846,-4.464123 1.2236001,-6.4676 C 3.8733071,10.327461 5.0296763,8.6466921 6.5221995,7.2348459 8.0281688,5.8095535 9.7761689,4.720415 11.7662,3.9808765 c 2.03037,-0.7664308 4.222093,-1.1563693 6.602062,-1.1563693 1.425293,0 2.769908,0.1210154 4.033847,0.3764923 1.263938,0.2958154 2.487538,0.7529847 3.6708,1.3849539 l 2.285846,1.2236001 -2.527877,0.5244 c -0.779877,0.1748 -1.317723,0.5244001 -1.613538,1.0488001 -0.215139,0.4302769 -0.201693,0.9277846 0.04034,1.4925231 l 0.551292,1.2773843 -1.371507,0.06723 c -0.578185,0.04034 -1.116031,0.161354 -1.586647,0.363047 -0.443723,0.215138 -0.6992,0.430276 -0.779877,0.672307 -0.147907,0.309262 0.01345,0.752985 0.484062,1.344616 l 1.089138,1.29083 -1.694215,0.242031 c -2.084154,0.309261 -3.791816,0.739538 -5.122985,1.290831 -1.331169,0.551292 -2.379969,1.263938 -3.159846,2.137938 -0.752985,0.833662 -1.317724,1.909354 -1.68077,3.186739 -0.363046,1.290831 -0.564738,2.890923 -0.605077,4.827169 h 7.072678 v -3.738031 l -0.510954,0.309262 c -0.188246,0.121015 -0.389939,0.147908 -0.605077,0.09412 -0.228585,-0.05379 -0.389939,-0.1748 -0.497508,-0.376492 -0.121015,-0.188246 -0.147907,-0.389939 -0.107569,-0.605077 0.04034,-0.215139 0.161354,-0.389939 0.363046,-0.510954 l 5.136431,-3.200185 0.02689,-0.02689 c 0.01345,0 0.01345,0 0.01345,-0.01345 h 0.02689 c 0.01345,0 0.02689,0 0.04034,-0.01345 0.09412,-0.02689 0.188247,-0.06723 0.309262,-0.09412 h 0.08068 c 0.01345,0.01345 0.02689,0.02689 0.04034,0.02689 h 0.09412 c 0,0.01345 0.01345,0.01345 0.02689,0.01345 h 0.04034 l 0.02689,0.01345 h 0.02689 c 0.01345,0.01345 0.02689,0.02689 0.02689,0.04034 h 0.02689 c 0.01345,0 0.01345,0 0.01345,0.01345 0.02689,0 0.04034,0 0.04034,0.01345 0.01345,0 0.02689,0 0.04034,0.01345 l 0.02689,0.01345 5.136431,3.159846 c 0.188246,0.121016 0.309261,0.295816 0.363046,0.510954 0.04034,0.228585 0.01345,0.430277 -0.107569,0.618523 -0.107569,0.188247 -0.268923,0.309262 -0.497508,0.3496 -0.228585,0.04034 -0.430277,0.01345 -0.605077,-0.107569 l -0.41683,-0.255494 v 3.724585 h 1.290831 c 0.215139,0 0.389939,0.08068 0.537846,0.242031 0.147908,0.161354 0.215139,0.3496 0.215139,0.564738 0.01345,0.228585 -0.06723,0.416831 -0.215139,0.578185 -0.147907,0.161354 -0.336153,0.242031 -0.537846,0.242031 H 2.4211224 c -0.2151385,0 -0.4033847,-0.08068 -0.5512924,-0.228585 C 1.7219223,26.799 1.6412454,26.610754 1.6412454,26.368723 Z M 3.7253994,18.7582 c 0,0.954677 0.1344615,2.178277 0.4033846,3.6708 0.2016923,1.089139 0.4437231,2.043816 0.7260923,2.850585 h 3.6170156 c 0.067231,-1.949692 0.2689231,-3.563231 0.6050769,-4.82717 0.4706155,-1.707661 1.1832622,-3.106061 2.1513852,-4.154861 0.981569,-1.102585 2.2724,-1.976585 3.885939,-2.635446 1.102585,-0.457169 2.500985,-0.847108 4.181754,-1.169816 l -0.107569,-0.336153 c -0.134462,-0.618524 -0.09412,-1.169816 0.121015,-1.653878 0.295816,-0.6857535 0.874,-1.2370458 1.721108,-1.6269843 0.09412,-0.040338 0.1748,-0.080677 0.255477,-0.094123 -1.156369,-0.2689231 -2.326185,-0.3361539 -3.496,-0.1882462 -1.33117,0.1613538 -2.581662,0.5512923 -3.738031,1.1429231 -1.492524,0.7798774 -2.837139,1.8959084 -4.047293,3.3346464 -0.134462,0.161354 -0.309262,0.242031 -0.5109544,0.242031 -0.1613538,0 -0.2958154,-0.04034 -0.4168308,-0.134462 -0.1344615,-0.121015 -0.2151384,-0.268923 -0.2285846,-0.457169 -0.013446,-0.188246 0.026892,-0.3496 0.1479077,-0.497508 1.3446161,-1.600092 2.8371391,-2.8236922 4.4910161,-3.6708 1.317723,-0.6588615 2.72957,-1.0891385 4.222093,-1.2773847 0.766431,-0.094123 1.505969,-0.1075692 2.245508,-0.026892 0.726092,0.080677 1.237046,0.1613539 1.532861,0.2285847 0.295816,0.067231 0.497508,0.1210154 0.605077,0.1613538 l 0.107569,0.040338 c 0.06723,-0.4168308 0.1748,-0.7933231 0.322708,-1.129477 0.215139,-0.3899385 0.497508,-0.7529847 0.860554,-1.0756924 -0.403385,-0.1210154 -0.874,-0.2554769 -1.3984,-0.3764923 -1.075693,-0.2420308 -2.285846,-0.3496 -3.617016,-0.3496 -2.124492,0 -4.101077,0.3496 -5.9432,1.0353539 C 10.623277,6.4684151 9.090415,7.423092 7.8264765,8.6601383 6.5087533,9.8837383 5.5002917,11.349369 4.827984,13.043585 4.0884455,14.818477 3.7253994,16.727831 3.7253994,18.7582 Z m 15.3689556,6.803754 h 5.217108 v -4.733046 l -2.662339,-1.626985 -2.554769,1.600092 z"
   id="path1"
   style="stroke-width:1.34462" />
</svg>
