<?xml version="1.0" encoding="utf-8"?>
<!-- Generator: Adobe Illustrator 15.1.0, SVG Export Plug-In . SVG Version: 6.00 Build 0)  -->
<!DOCTYPE svg PUBLIC "-//W3C//DTD SVG 1.1//EN" "http://www.w3.org/Graphics/SVG/1.1/DTD/svg11.dtd">
<svg version="1.1" id="Layer_1" xmlns="http://www.w3.org/2000/svg" xmlns:xlink="http://www.w3.org/1999/xlink" x="0px" y="0px"
	 width="100px" height="100px" viewBox="0 0 100 100" enable-background="new 0 0 100 100" xml:space="preserve">
<path fill-rule="evenodd" clip-rule="evenodd" d="M66.499,46.501c-3.037,0-5.5,1.343-5.5,2.999c0-1.656-2.461-2.999-5.5-2.999
	c-1.863,0-3.504,0.509-4.498,1.282v8.716h1v4c0,1.104,0.895,2,2,2c1.104,0,1.998-0.896,1.998-2s0.896-2,2-2c1.105,0,2,0.896,2,2
	c0,3.313-2.686,5.999-5.998,5.999c-3.314,0-6-2.686-6-5.999v-4h1v-8.716c-0.994-0.773-2.635-1.282-4.5-1.282
	c-3.037,0-5.498,1.343-5.498,2.999l0,0c0-1.656-2.463-2.999-5.5-2.999s-5.5,1.343-5.5,2.999c0-7.179,9.85-15.998,21.999-15.998
	S71.997,42.321,71.997,49.5C71.997,47.844,69.536,46.501,66.499,46.501z"/>
</svg>
