<?xml version="1.0" encoding="UTF-8" standalone="no"?>
<!-- Generator: Adobe Illustrator 15.1.0, SVG Export Plug-In . SVG Version: 6.00 Build 0)  -->

<svg
   xmlns:dc="http://purl.org/dc/elements/1.1/"
   xmlns:cc="http://creativecommons.org/ns#"
   xmlns:rdf="http://www.w3.org/1999/02/22-rdf-syntax-ns#"
   xmlns:svg="http://www.w3.org/2000/svg"
   xmlns="http://www.w3.org/2000/svg"
   xmlns:sodipodi="http://sodipodi.sourceforge.net/DTD/sodipodi-0.dtd"
   xmlns:inkscape="http://www.inkscape.org/namespaces/inkscape"
   version="1.1"
   id="Layer_1"
   x="0px"
   y="0px"
   width="100px"
   height="100px"
   viewBox="0 0 100 100"
   enable-background="new 0 0 100 100"
   xml:space="preserve"
   sodipodi:docname="Umbrella-symbolic.svg"
   inkscape:version="0.92.4 5da689c313, 2019-01-14"><metadata
   id="metadata9"><rdf:RDF><cc:Work
       rdf:about=""><dc:format>image/svg+xml</dc:format><dc:type
         rdf:resource="http://purl.org/dc/dcmitype/StillImage" /></cc:Work></rdf:RDF></metadata><defs
   id="defs7" /><sodipodi:namedview
   pagecolor="#ffffff"
   bordercolor="#666666"
   borderopacity="1"
   objecttolerance="10"
   gridtolerance="10"
   guidetolerance="10"
   inkscape:pageopacity="0"
   inkscape:pageshadow="2"
   inkscape:window-width="1080"
   inkscape:window-height="936"
   id="namedview5"
   showgrid="false"
   inkscape:zoom="2.36"
   inkscape:cx="50"
   inkscape:cy="50"
   inkscape:window-x="0"
   inkscape:window-y="0"
   inkscape:window-maximized="0"
   inkscape:current-layer="Layer_1" />
<path
   d="m 76.231122,44.824684 c -4.70735,0 -8.525,2.08165 -8.525,4.64845 0,-2.5668 -3.81455,-4.64845 -8.525,-4.64845 -2.88765,0 -5.4312,0.78895 -6.9719,1.9871 v 13.5098 h 1.55 v 6.2 c 0,1.7112 1.38725,3.1 3.1,3.1 1.7112,0 3.0969,-1.3888 3.0969,-3.1 0,-1.7112 1.3888,-3.1 3.1,-3.1 1.71275,0 3.1,1.3888 3.1,3.1 0,5.13515 -4.1633,9.29845 -9.2969,9.29845 -5.1367,0 -9.3,-4.1633 -9.3,-9.29845 v -6.2 h 1.55 v -13.5098 c -1.5407,-1.19815 -4.08425,-1.9871 -6.975,-1.9871 -4.70735,0 -8.5219,2.08165 -8.5219,4.64845 v 0 c 0,-2.5668 -3.81765,-4.64845 -8.525,-4.64845 -4.70735,0 -8.525,2.08165 -8.525,4.64845 0,-11.12745 15.2675,-24.7969 34.09845,-24.7969 18.83095,0 34.09225,13.66945 34.09225,24.7969 0,-2.5668 -3.81455,-4.64845 -8.5219,-4.64845 z"
   id="path2"
   inkscape:connector-curvature="0"
   style="clip-rule:evenodd;fill-rule:evenodd;stroke-width:1.54999995" />
</svg>