<?xml version="1.0" encoding="UTF-8" standalone="no"?>
<!-- Generator: Adobe Illustrator 15.1.0, SVG Export Plug-In . SVG Version: 6.00 Build 0)  -->

<svg
   xmlns:dc="http://purl.org/dc/elements/1.1/"
   xmlns:cc="http://creativecommons.org/ns#"
   xmlns:rdf="http://www.w3.org/1999/02/22-rdf-syntax-ns#"
   xmlns:svg="http://www.w3.org/2000/svg"
   xmlns="http://www.w3.org/2000/svg"
   xmlns:sodipodi="http://sodipodi.sourceforge.net/DTD/sodipodi-0.dtd"
   xmlns:inkscape="http://www.inkscape.org/namespaces/inkscape"
   version="1.1"
   id="Layer_1"
   x="0px"
   y="0px"
   width="100px"
   height="100px"
   viewBox="0 0 100 100"
   enable-background="new 0 0 100 100"
   xml:space="preserve"
   sodipodi:docname="Umbrella-symbolic.svg"
   inkscape:version="0.92.4 5da689c313, 2019-01-14"><metadata
   id="metadata9"><rdf:RDF><cc:Work
       rdf:about=""><dc:format>image/svg+xml</dc:format><dc:type
         rdf:resource="http://purl.org/dc/dcmitype/StillImage" /></cc:Work></rdf:RDF></metadata><defs
   id="defs7" /><sodipodi:namedview
   pagecolor="#ffffff"
   bordercolor="#666666"
   borderopacity="1"
   objecttolerance="10"
   gridtolerance="10"
   guidetolerance="10"
   inkscape:pageopacity="0"
   inkscape:pageshadow="2"
   inkscape:window-width="640"
   inkscape:window-height="480"
   id="namedview5"
   showgrid="false"
   inkscape:zoom="2.36"
   inkscape:cx="50"
   inkscape:cy="50"
   inkscape:window-x="0"
   inkscape:window-y="0"
   inkscape:window-maximized="0"
   inkscape:current-layer="Layer_1" />
<path
   d="m 87.528119,41.715767 c -6.868868,0 -12.439505,3.037501 -12.439505,6.782923 0,-3.745422 -5.566114,-6.782923 -12.439506,-6.782923 -4.2136,0 -7.925096,1.151219 -10.173254,2.899535 v 19.713224 h 2.261729 v 9.046913 c 0,2.496948 2.024246,4.523457 4.523456,4.523457 2.496948,0 4.518933,-2.026509 4.518933,-4.523457 0,-2.496948 2.026509,-4.523456 4.523457,-4.523456 2.49921,0 4.523456,2.026508 4.523456,4.523456 0,7.493106 -6.075002,13.568108 -13.565846,13.568108 -7.495367,0 -13.57037,-6.075002 -13.57037,-13.568108 v -9.046913 h 2.261729 V 44.615302 C 45.70424,42.866986 41.992744,41.715767 37.77462,41.715767 c -6.868869,0 -12.434982,3.037501 -12.434982,6.782923 v 0 c 0,-3.745422 -5.570636,-6.782923 -12.439505,-6.782923 -6.8688691,0 -12.43950588,3.037501 -12.43950588,6.782923 0,-16.236949 22.27802388,-36.183131 49.75576088,-36.183131 27.477737,0 49.746714,19.946182 49.746714,36.183131 0,-3.745422 -5.566114,-6.782923 -12.434983,-6.782923 z"
   id="path2"
   inkscape:connector-curvature="0"
   style="clip-rule:evenodd;fill-rule:evenodd;stroke-width:2.26172829" />
</svg>