<?xml version="1.0" encoding="UTF-8" standalone="no"?>
<svg
   width="24"
   height="24"
   viewBox="0 0 24 24"
   version="1.1"
   id="svg1"
   sodipodi:docname="uv-index-symbolic.svg"
   inkscape:version="1.4.1 (93de688d07, 2025-03-30)"
   xmlns:inkscape="http://www.inkscape.org/namespaces/inkscape"
   xmlns:sodipodi="http://sodipodi.sourceforge.net/DTD/sodipodi-0.dtd"
   xmlns="http://www.w3.org/2000/svg"
   xmlns:svg="http://www.w3.org/2000/svg">
  <defs
     id="defs1" />
  <sodipodi:namedview
     id="namedview1"
     pagecolor="#ffffff"
     bordercolor="#666666"
     borderopacity="1.0"
     inkscape:showpageshadow="2"
     inkscape:pageopacity="0.0"
     inkscape:pagecheckerboard="0"
     inkscape:deskcolor="#d1d1d1"
     inkscape:zoom="48.75"
     inkscape:cx="12.010256"
     inkscape:cy="12"
     inkscape:window-width="2560"
     inkscape:window-height="1372"
     inkscape:window-x="1080"
     inkscape:window-y="234"
     inkscape:window-maximized="1"
     inkscape:current-layer="svg1" />
  <path
     style="baseline-shift:baseline;display:inline;overflow:visible;vector-effect:none;fill:currentColor;stroke-linecap:round;stroke-linejoin:round;enable-background:accumulate;stop-color:#000000;stop-opacity:1;opacity:1"
     d="m 12,2 a 1,1 0 0 0 -1,1 v 1 a 1,1 0 0 0 1,1 1,1 0 0 0 1,-1 V 3 A 1,1 0 0 0 12,2 Z M 5.5996094,4.5996094 a 1,1 0 0 0 -0.7070313,0.2929687 1,1 0 0 0 0,1.4140625 L 5.59375,7.0078125 a 1,1 0 0 0 1.4140625,0 1,1 0 0 0 0,-1.4140625 L 6.3066406,4.8925781 A 1,1 0 0 0 5.5996094,4.5996094 Z m 12.8007816,0 A 1,1 0 0 0 17.693359,4.8925781 L 16.992187,5.59375 a 1,1 0 0 0 0,1.4140625 1,1 0 0 0 1.414063,0 l 0.701172,-0.7011719 a 1,1 0 0 0 0,-1.4140625 1,1 0 0 0 -0.707031,-0.2929687 z M 12,7 C 10.777778,7 9.5421194,7.402014 8.5859375,8.2519531 7.6297556,9.1018922 7,10.416667 7,12 a 1,1 0 0 0 1,1 1,1 0 0 0 1,-1 C 9,10.916667 9.3702444,10.231441 9.9140625,9.7480469 10.457881,9.2646532 11.222222,9 12,9 12.777778,9 13.542119,9.2646532 14.085938,9.7480469 14.629756,10.231441 15,10.916667 15,12 a 1,1 0 0 0 1,1 1,1 0 0 0 1,-1 C 17,10.416667 16.370244,9.1018922 15.414063,8.2519531 14.457881,7.402014 13.222222,7 12,7 Z m -9,4 a 1,1 0 0 0 -1,1 1,1 0 0 0 1,1 H 4 A 1,1 0 0 0 5,12 1,1 0 0 0 4,11 Z m 17,0 a 1,1 0 0 0 -1,1 1,1 0 0 0 1,1 h 1 a 1,1 0 0 0 1,-1 1,1 0 0 0 -1,-1 z M 6,15 a 1,1 0 0 0 -1,1 v 3 c 0,0.916666 0.3797556,1.731441 0.9609375,2.248047 C 6.5421194,21.764653 7.2777779,22 8,22 8.7222221,22 9.4578806,21.764653 10.039063,21.248047 10.620244,20.731441 11,19.916666 11,19 v -3 a 1,1 0 0 0 -1,-1 1,1 0 0 0 -1,1 v 3 C 9,19.416666 8.8797556,19.601893 8.7109375,19.751953 8.5421194,19.902014 8.2777779,20 8,20 7.7222221,20 7.4578806,19.902014 7.2890625,19.751953 7.1202444,19.601893 7,19.416666 7,19 V 16 A 1,1 0 0 0 6,15 Z m 6.628906,0.07227 a 1,1 0 0 0 -0.55664,1.298828 l 2,5 A 1.0001,1.0001 0 0 0 15,22 h 1 a 1.0001,1.0001 0 0 0 0.927734,-0.628906 l 2,-5 a 1,1 0 0 0 -0.55664,-1.298828 1,1 0 0 0 -1.298828,0.55664 L 15.5,19.556641 13.927734,15.628906 a 1,1 0 0 0 -1.298828,-0.55664 z"
     id="path1" />
</svg>
