<?xml version="1.0" encoding="UTF-8" standalone="no"?>
<!-- Generator: Adobe Illustrator 22.0.1, SVG Export Plug-In . SVG Version: 6.00 Build 0)  -->

<svg
   version="1.1"
   id="Layer_1"
   x="0px"
   y="0px"
   viewBox="0 0 30 30"
   style="enable-background:new 0 0 30 30;"
   xml:space="preserve"
   sodipodi:docname="volcano-symbolic.svg"
   inkscape:version="1.3.2 (091e20ef0f, 2023-11-25, custom)"
   xmlns:inkscape="http://www.inkscape.org/namespaces/inkscape"
   xmlns:sodipodi="http://sodipodi.sourceforge.net/DTD/sodipodi-0.dtd"
   xmlns="http://www.w3.org/2000/svg"
   xmlns:svg="http://www.w3.org/2000/svg"><defs
   id="defs1" /><sodipodi:namedview
   id="namedview1"
   pagecolor="#ffffff"
   bordercolor="#666666"
   borderopacity="1.0"
   inkscape:showpageshadow="2"
   inkscape:pageopacity="0.0"
   inkscape:pagecheckerboard="0"
   inkscape:deskcolor="#d1d1d1"
   inkscape:zoom="14.6"
   inkscape:cx="15"
   inkscape:cy="14.965753"
   inkscape:window-width="1080"
   inkscape:window-height="1884"
   inkscape:window-x="0"
   inkscape:window-y="0"
   inkscape:window-maximized="1"
   inkscape:current-layer="Layer_1" />
<path
   d="M 4.1626935,27.987832 C 3.991801,27.603324 4.0345241,27.218816 4.2908629,26.834307 l 1.9937462,-3.802358 c 0.014241,-0.05696 0.071205,-0.12817 0.1566515,-0.213616 0.056964,-0.05696 0.2420978,-0.199375 0.5411597,-0.41299 0.028482,-0.01424 0.3560261,-0.256339 0.968391,-0.712053 0.6835702,-0.455713 1.4668276,-1.025355 2.3924957,-1.694684 l 2.563388,-4.243831 c 0.242097,-0.384508 0.583883,-0.583883 1.025355,-0.583883 h 0.996873 c -0.227857,0.27058 -0.441472,0.555401 -0.640847,0.854463 -0.199375,0.299062 -0.384508,0.712052 -0.54116,1.210489 -0.170892,0.512677 -0.256338,1.011114 -0.256338,1.523791 0,0.512678 0.128169,1.096561 0.398749,1.780131 0.27058,0.669329 0.68357,1.338658 1.253212,1.979505 0.384508,0.441472 0.626606,0.882945 0.712052,1.324417 0.08545,0.441473 0.02848,0.825981 -0.14241,1.182007 -0.170893,0.356026 -0.455714,0.712052 -0.840222,1.053837 -0.384508,0.341785 -0.797499,0.640847 -1.253212,0.897186 -0.455714,0.256339 -0.968391,0.498436 -1.523792,0.740534 -0.5554,0.242098 -1.068078,0.427232 -1.495309,0.583883 -0.441473,0.142411 -0.8829452,0.284821 -1.3244175,0.41299 H 5.2592539 c -0.2278567,0 -0.4557134,-0.0712 -0.655088,-0.199374 C 4.3905502,28.386581 4.2481398,28.215689 4.1626935,27.987832 Z M 8.0789807,6.8113999 c 0,-0.655088 0.2136157,-1.2532119 0.640847,-1.7658895 C 9.1470591,4.5185918 9.7024598,4.1910478 10.371789,4.0201552 10.52844,3.2226567 10.941431,2.5675687 11.582278,2.0548911 12.223125,1.5422135 12.9779,1.2858747 13.80388,1.2858747 c 0.797499,0 1.509551,0.2420978 2.136157,0.7405343 0.626606,0.4984366 1.039597,1.1392836 1.22473,1.922541 h 0.199375 c 0.811739,0 1.523791,0.2563388 2.136156,0.7690164 0.598124,0.5126776 0.911427,1.1250425 0.911427,1.8513358 0,0.7974985 -0.313303,1.4668275 -0.925668,2.0364693 0,0.3845082 -0.170892,0.8402216 -0.512677,1.3244168 -0.341785,0.4984367 -0.712052,0.7832577 -1.110802,0.8687037 -0.08545,0.441472 -0.299062,0.81174 -0.612365,1.110802 -0.327544,0.313303 -0.712052,0.512677 -1.167765,0.612364 0.213615,0.227857 0.313303,0.484196 0.313303,0.769017 0,0.356025 -0.12817,0.655087 -0.370267,0.897185 -0.256339,0.242098 -0.555401,0.356026 -0.911427,0.356026 -0.341785,0 -0.640847,-0.128169 -0.897186,-0.370267 -0.256339,-0.242098 -0.370267,-0.54116 -0.370267,-0.882944 0,-0.04272 0.01424,-0.113929 0.02848,-0.199375 0.01424,-0.08545 0.02848,-0.156651 0.02848,-0.185133 h -0.04272 c -0.412991,0 -0.769017,-0.156652 -1.068079,-0.455714 -0.299062,-0.299062 -0.455713,-0.655088 -0.455713,-1.068078 0,-0.170893 0.08545,-0.427231 0.256339,-0.754775 -0.341784,-0.170893 -0.612364,-0.469955 -0.811739,-0.897186 H 10.884467 C 10.11545,9.6596088 9.446121,9.3463058 8.9049613,8.8051461 8.3638016,8.2639865 8.0789807,7.5946574 8.0789807,6.8113999 Z M 14.658343,17.833967 c 0,-0.227856 0.02848,-0.484195 0.09969,-0.769016 0.07121,-0.284821 0.156652,-0.498437 0.227857,-0.669329 0.0712,-0.170893 0.170893,-0.384508 0.299062,-0.640847 0.128169,-0.256339 0.213616,-0.441472 0.27058,-0.583883 h 0.54116 c 0.398749,0 0.697811,0.156652 0.939909,0.455714 l 0.09969,0.14241 1.865577,3.531779 6.622085,7.448066 0.05697,0.04272 c 0.299062,0.384509 0.341785,0.797499 0.113928,1.253212 -0.213616,0.441473 -0.569642,0.655088 -1.068078,0.655088 h -8.017708 c 0.242097,-0.227856 0.455713,-0.41299 0.626606,-0.5554 0.170892,-0.156652 0.384508,-0.384509 0.640847,-0.697812 0.256338,-0.313303 0.469954,-0.612365 0.598123,-0.868703 0.12817,-0.256339 0.242098,-0.598124 0.327545,-0.982632 0.08545,-0.384509 0.09969,-0.754776 0.01424,-1.125043 -0.08545,-0.356026 -0.256339,-0.754775 -0.54116,-1.196248 C 18.104686,22.832571 17.720178,22.40534 17.221741,21.978108 16.737546,21.550877 16.310314,21.137887 15.968529,20.724896 15.626744,20.326147 15.356164,19.95588 15.171031,19.642577 14.985897,19.329274 14.843487,19.00173 14.75804,18.674186 14.70108,18.346642 14.65835,18.061821 14.65835,17.833964 Z"
   id="path1"
   style="stroke-width:1.4241" />
</svg>
