<?xml version="1.0" encoding="UTF-8" standalone="no"?>
<!-- Generator: Adobe Illustrator 15.1.0, SVG Export Plug-In . SVG Version: 6.00 Build 0)  -->

<svg
   xmlns:dc="http://purl.org/dc/elements/1.1/"
   xmlns:cc="http://creativecommons.org/ns#"
   xmlns:rdf="http://www.w3.org/1999/02/22-rdf-syntax-ns#"
   xmlns:svg="http://www.w3.org/2000/svg"
   xmlns="http://www.w3.org/2000/svg"
   xmlns:sodipodi="http://sodipodi.sourceforge.net/DTD/sodipodi-0.dtd"
   xmlns:inkscape="http://www.inkscape.org/namespaces/inkscape"
   version="1.1"
   id="Layer_1"
   x="0px"
   y="0px"
   width="100px"
   height="100px"
   viewBox="0 0 100 100"
   enable-background="new 0 0 100 100"
   xml:space="preserve"
   sodipodi:docname="Wind-symbolic.svg"
   inkscape:version="0.92.4 5da689c313, 2019-01-14"><metadata
   id="metadata9"><rdf:RDF><cc:Work
       rdf:about=""><dc:format>image/svg+xml</dc:format><dc:type
         rdf:resource="http://purl.org/dc/dcmitype/StillImage" /></cc:Work></rdf:RDF></metadata><defs
   id="defs7" /><sodipodi:namedview
   pagecolor="#ffffff"
   bordercolor="#666666"
   borderopacity="1"
   objecttolerance="10"
   gridtolerance="10"
   guidetolerance="10"
   inkscape:pageopacity="0"
   inkscape:pageshadow="2"
   inkscape:window-width="1080"
   inkscape:window-height="936"
   id="namedview5"
   showgrid="false"
   inkscape:zoom="2.36"
   inkscape:cx="50"
   inkscape:cy="50"
   inkscape:window-x="0"
   inkscape:window-y="0"
   inkscape:window-maximized="0"
   inkscape:current-layer="Layer_1" />
<path
   d="m 75.032394,52.603389 v 0 h -4.65 c -1.71275,0 -3.1,-1.38725 -3.1,-3.09845 0,-1.7112 1.38725,-3.1 3.1,-3.1 h 4.65 c 1.7112,0 3.1,-1.3888 3.1,-3.09845 0,-1.71275 -1.3888,-3.1 -3.1,-3.1 -1.71275,0 -3.1,-1.3888 -3.1,-3.1 0,-1.7112 1.38725,-3.1 3.1,-3.1 0.21235,0 0.42005,0.0217 0.6231,0.06355 4.83755,0.32705 8.6738,4.31365 8.6738,9.23645 0,5.1336 -4.16175,9.2969 -9.2969,9.2969 z m -15.5,-6.19845 h -3.1 -10.8469 -20.14845 c -1.7112,0 -3.09845,1.3888 -3.09845,3.1 0,1.7112 1.38725,3.09845 3.09845,3.09845 h 3.1 6.19845 4.65 6.2 4.65 6.1969 3.1 c 5.1367,0 9.3,4.16485 9.3,9.3 0,4.9228 -3.83625,8.9094 -8.6738,9.23645 -0.20305,0.04185 -0.41075,0.06355 -0.6262,0.06355 -1.7112,0 -3.1,-1.3888 -3.1,-3.1 0,-1.71275 1.3888,-3.1 3.1,-3.1 1.71275,0 3.1,-1.3888 3.1,-3.1 0,-1.7112 -1.38725,-3.1 -3.1,-3.1 h -3.1 -6.1969 -4.65 -6.2 -4.65 -6.19845 -3.1 c -5.13515,0 -9.29845,-4.1633 -9.29845,-9.29845 0,-4.92125 3.83625,-8.90785 8.6738,-9.23645 0.20305,-0.0403 0.4123,-0.062 0.62465,-0.062 v 0 h 20.14845 10.8469 3.1 c 1.71275,0 3.1,-1.3888 3.1,-3.1 0,-1.7112 -1.38725,-3.1 -3.1,-3.1 -1.7112,0 -3.1,-1.38725 -3.1,-3.1 0,-1.7112 1.3888,-3.1 3.1,-3.1 0.21545,0 0.42315,0.02325 0.6262,0.06355 4.83755,0.32705 8.6738,4.31365 8.6738,9.23645 0,5.1336 -4.1633,9.29845 -9.3,9.29845 z"
   id="path2"
   inkscape:connector-curvature="0"
   style="clip-rule:evenodd;fill-rule:evenodd;stroke-width:1.54999995" />
</svg>