<?xml version="1.0" encoding="UTF-8" standalone="no"?>
<!-- Generator: Adobe Illustrator 15.1.0, SVG Export Plug-In . SVG Version: 6.00 Build 0)  -->

<svg
   xmlns:dc="http://purl.org/dc/elements/1.1/"
   xmlns:cc="http://creativecommons.org/ns#"
   xmlns:rdf="http://www.w3.org/1999/02/22-rdf-syntax-ns#"
   xmlns:svg="http://www.w3.org/2000/svg"
   xmlns="http://www.w3.org/2000/svg"
   xmlns:sodipodi="http://sodipodi.sourceforge.net/DTD/sodipodi-0.dtd"
   xmlns:inkscape="http://www.inkscape.org/namespaces/inkscape"
   version="1.1"
   id="Layer_1"
   x="0px"
   y="0px"
   width="100px"
   height="100px"
   viewBox="0 0 100 100"
   enable-background="new 0 0 100 100"
   xml:space="preserve"
   sodipodi:docname="Wind-symbolic.svg"
   inkscape:version="0.92.4 5da689c313, 2019-01-14"><metadata
   id="metadata9"><rdf:RDF><cc:Work
       rdf:about=""><dc:format>image/svg+xml</dc:format><dc:type
         rdf:resource="http://purl.org/dc/dcmitype/StillImage" /></cc:Work></rdf:RDF></metadata><defs
   id="defs7" /><sodipodi:namedview
   pagecolor="#ffffff"
   bordercolor="#666666"
   borderopacity="1"
   objecttolerance="10"
   gridtolerance="10"
   guidetolerance="10"
   inkscape:pageopacity="0"
   inkscape:pageshadow="2"
   inkscape:window-width="640"
   inkscape:window-height="480"
   id="namedview5"
   showgrid="false"
   inkscape:zoom="2.36"
   inkscape:cx="50"
   inkscape:cy="50"
   inkscape:window-x="0"
   inkscape:window-y="0"
   inkscape:window-maximized="0"
   inkscape:current-layer="Layer_1" />
<path
   d="m 85.973526,55.659707 v 0 h -6.785185 c -2.499209,0 -4.523456,-2.024247 -4.523456,-4.521195 0,-2.496948 2.024247,-4.523457 4.523456,-4.523457 h 6.785185 c 2.496948,0 4.523457,-2.026508 4.523457,-4.521195 0,-2.49921 -2.026509,-4.523457 -4.523457,-4.523457 -2.49921,0 -4.523456,-2.026508 -4.523456,-4.523456 0,-2.496948 2.024246,-4.523457 4.523456,-4.523457 0.309857,0 0.612929,0.03166 0.909215,0.09273 7.058854,0.477224 12.656632,6.29439 12.656632,13.477639 0,7.490845 -6.072741,13.565847 -13.565847,13.565847 z M 63.356243,46.615055 H 58.832787 43.005212 13.605006 c -2.496948,0 -4.5211945,2.026509 -4.5211945,4.523457 0,2.496948 2.0242465,4.521195 4.5211945,4.521195 h 4.523457 9.044651 6.785185 9.046913 6.785185 9.04239 4.523456 c 7.495368,0 13.57037,6.077264 13.57037,13.57037 0,7.183249 -5.597778,13.000414 -12.656632,13.477639 -0.296286,0.06107 -0.599358,0.09273 -0.913738,0.09273 -2.496948,0 -4.523456,-2.026508 -4.523456,-4.523456 0,-2.49921 2.026508,-4.523457 4.523456,-4.523457 2.49921,0 4.523457,-2.026508 4.523457,-4.523456 0,-2.496948 -2.024247,-4.523457 -4.523457,-4.523457 h -4.523456 -9.04239 -6.785185 -9.046913 -6.785185 -9.044651 -4.523457 c -7.4931055,0 -13.56810769,-6.075002 -13.56810769,-13.568108 0,-7.180987 5.59777749,-12.998153 12.65663169,-13.47764 0.296286,-0.0588 0.60162,-0.09047 0.911476,-0.09047 v 0 h 29.400206 15.827575 4.523456 c 2.49921,0 4.523457,-2.026508 4.523457,-4.523456 0,-2.496948 -2.024247,-4.523457 -4.523457,-4.523457 -2.496948,0 -4.523456,-2.024247 -4.523456,-4.523457 0,-2.496948 2.026508,-4.523457 4.523456,-4.523457 0.31438,0 0.617452,0.03393 0.913738,0.09273 7.058854,0.477225 12.656632,6.29439 12.656632,13.47764 0,7.490844 -6.075002,13.568108 -13.57037,13.568109 z"
   id="path2"
   inkscape:connector-curvature="0"
   style="clip-rule:evenodd;fill-rule:evenodd;stroke-width:2.26172829" />
</svg>