<?xml version="1.0" encoding="UTF-8"?>
<!DOCTYPE svg PUBLIC "-//W3C//DTD SVG 1.1//EN" "http://www.w3.org/Graphics/SVG/1.1/DTD/svg11.dtd">
<svg xmlns="http://www.w3.org/2000/svg" version="1.1" width="32px" height="32px" style="shape-rendering:geometricPrecision; text-rendering:geometricPrecision; image-rendering:optimizeQuality; fill-rule:evenodd; clip-rule:evenodd" xmlns:xlink="http://www.w3.org/1999/xlink">
<g><path style="opacity:1" fill="#000000" d="M 31.5,9.5 C 31.5,10.8333 31.5,12.1667 31.5,13.5C 30.5266,13.9867 29.5266,14.4867 28.5,15C 31.3725,17.3707 31.0392,19.2041 27.5,20.5C 23.6489,18.2797 19.6489,18.113 15.5,20C 13.6308,21.5436 11.7975,23.0436 10,24.5C 8.43292,23.1439 6.59959,22.4772 4.5,22.5C 4.05016,18.776 5.71683,16.6093 9.5,16C 6.15081,15.6124 2.81747,15.7791 -0.5,16.5C -0.5,15.5 -0.5,14.5 -0.5,13.5C 6.17241,12.8172 12.8391,11.9839 19.5,11C 20.8721,9.75814 21.8721,8.25814 22.5,6.5C 24.7427,5.52577 27.076,5.19244 29.5,5.5C 29.2291,7.3797 29.8958,8.71304 31.5,9.5 Z"/></g>
</svg>
