<?xml version="1.0" encoding="UTF-8"?>
<!DOCTYPE svg PUBLIC "-//W3C//DTD SVG 1.1//EN" "http://www.w3.org/Graphics/SVG/1.1/DTD/svg11.dtd">
<svg xmlns="http://www.w3.org/2000/svg" version="1.1" width="32px" height="32px" style="shape-rendering:geometricPrecision; text-rendering:geometricPrecision; image-rendering:optimizeQuality; fill-rule:evenodd; clip-rule:evenodd" xmlns:xlink="http://www.w3.org/1999/xlink">
<g><path style="opacity:1" fill="#000000" d="M 31.5,10.5 C 31.5,13.1667 31.5,15.8333 31.5,18.5C 28.4046,19.1187 28.0712,20.1187 30.5,21.5C 26.7504,27.9971 23.0837,27.8304 19.5,21C 17.8659,20.5065 16.1992,20.3398 14.5,20.5C 14.5,21.8333 14.5,23.1667 14.5,24.5C 11.6118,24.7804 10.1118,23.4471 10,20.5C 9.21805,17.7431 9.71805,15.2431 11.5,13C 9.01316,11.208 6.34649,9.70795 3.5,8.5C 5.76488,7.35258 8.09821,7.18591 10.5,8C 13.5211,10.4196 16.8545,12.253 20.5,13.5C 23.4963,9.83193 27.1629,8.83193 31.5,10.5 Z"/></g>
</svg>
