<?xml version="1.0" encoding="UTF-8"?>
<!-- Created with Inkscape (http://www.inkscape.org/) -->
<svg width="18" height="18" version="1.1" viewBox="0 0 4.7625 4.7625" xmlns="http://www.w3.org/2000/svg">
 <path d="m0.79374 0.26458c-0.29087 0-0.52916 0.23735-0.52916 0.52822v3.1758c0 0.29087 0.23829 0.5293 0.52916 0.5293h3.175c0.29087 0 0.52916-0.23829 0.52916-0.52916v-3.175c0-0.29087-0.23829-0.52916-0.52916-0.52916zm0 0.26458h3.175c0.14887 0 0.26461 0.11571 0.26461 0.26458v3.175c0 0.14887-0.11575 0.26458-0.26461 0.26458h-3.175c-0.14887 0-0.26458-0.11572-0.26458-0.26458v-3.175c0-0.14887 0.11571-0.26458 0.26458-0.26458z" color="#000000" color-rendering="auto" dominant-baseline="auto" fill="#7f7f7f" image-rendering="auto" opacity=".5" shape-rendering="auto" solid-color="#000000" style="font-feature-settings:normal;font-variant-alternates:normal;font-variant-caps:normal;font-variant-ligatures:normal;font-variant-numeric:normal;font-variant-position:normal;isolation:auto;mix-blend-mode:normal;shape-padding:0;text-decoration-color:#000000;text-decoration-line:none;text-decoration-style:solid;text-indent:0;text-orientation:mixed;text-transform:none;white-space:normal"/>
 <path d="m2.1952 1.3229-0.79298 2.1166h0.36599l0.2135-0.55509h0.77468l0.21654 0.55509h0.38734l-0.79603-2.1166h-0.36904m0.44529 1.22h-0.54289l0.27144-0.78688 0.27144 0.78688" fill="#7f7f7f" opacity=".5"/>
</svg>
