<?xml version="1.0" encoding="UTF-8"?>
<!-- Created with Inkscape (http://www.inkscape.org/) -->
<svg width="18" height="18" version="1.1" viewBox="0 0 4.7625 4.7625" xmlns="http://www.w3.org/2000/svg">
 <path d="m0.79297 0.26367c-0.29087 0-0.5293 0.23843-0.5293 0.5293v3.1758c0 0.29087 0.23843 0.5293 0.5293 0.5293h3.1758c0.29087 0 0.5293-0.23843 0.5293-0.5293v-3.1758c0-0.29087-0.23843-0.5293-0.5293-0.5293zm0 0.26562h3.1758c0.14887 0 0.26367 0.11481 0.26367 0.26367v3.1758c0 0.14887-0.11481 0.26367-0.26367 0.26367h-3.1758c-0.14887 0-0.26367-0.11481-0.26367-0.26367v-3.1758c0-0.14887 0.11481-0.26367 0.26367-0.26367z" color="#000000" color-rendering="auto" dominant-baseline="auto" fill="#7f7f7f" image-rendering="auto" opacity=".5" shape-rendering="auto" solid-color="#000000" style="font-feature-settings:normal;font-variant-alternates:normal;font-variant-caps:normal;font-variant-ligatures:normal;font-variant-numeric:normal;font-variant-position:normal;isolation:auto;mix-blend-mode:normal;shape-padding:0;text-decoration-color:#000000;text-decoration-line:none;text-decoration-style:solid;text-indent:0;text-orientation:mixed;text-transform:none;white-space:normal"/>
 <g fill="#7f7f7f" opacity=".5" aria-label="1">
  <path d="m1.6694 3.4295v-0.31397h0.52428v-1.4436l-0.50776 0.31697v-0.33199l0.53029-0.34401h0.39959v1.8027h0.48522v0.31397z" fill="#7f7f7f" stroke-width=".26458px"/>
 </g>
</svg>
