<?xml version="1.0" encoding="UTF-8" standalone="no"?>
<svg
   xmlns:osb="http://www.openswatchbook.org/uri/2009/osb"
   xmlns:dc="http://purl.org/dc/elements/1.1/"
   xmlns:cc="http://creativecommons.org/ns#"
   xmlns:rdf="http://www.w3.org/1999/02/22-rdf-syntax-ns#"
   xmlns:svg="http://www.w3.org/2000/svg"
   xmlns="http://www.w3.org/2000/svg"
   xmlns:sodipodi="http://sodipodi.sourceforge.net/DTD/sodipodi-0.dtd"
   xmlns:inkscape="http://www.inkscape.org/namespaces/inkscape"
   width="24"
   viewBox="0 0 24 24"
   version="1.1"
   id="svg6530"
   height="24"
   sodipodi:docname="gnote-panel-symbolic.svg"
   inkscape:version="0.92.3 (2405546, 2018-03-11)">
  <sodipodi:namedview
     pagecolor="#000000"
     bordercolor="#666666"
     borderopacity="1"
     objecttolerance="10"
     gridtolerance="10"
     guidetolerance="10"
     inkscape:pageopacity="0"
     inkscape:pageshadow="2"
     inkscape:window-width="1535"
     inkscape:window-height="843"
     id="namedview10"
     showgrid="false"
     inkscape:zoom="9.8333333"
     inkscape:cx="11.898305"
     inkscape:cy="20.135593"
     inkscape:window-x="0"
     inkscape:window-y="25"
     inkscape:window-maximized="0"
     inkscape:current-layer="svg6530" />
  <defs
     id="defs6532">
    <linearGradient
       osb:paint="solid"
       id="linearGradient5606">
      <stop
         style="stop-color:#000000;stop-opacity:1;"
         offset="0"
         id="stop5608" />
    </linearGradient>
  </defs>
  <metadata
     id="metadata6535">
    <rdf:RDF>
      <cc:Work
         rdf:about="">
        <dc:format>image/svg+xml</dc:format>
        <dc:type
           rdf:resource="http://purl.org/dc/dcmitype/StillImage" />
        <dc:title></dc:title>
      </cc:Work>
    </rdf:RDF>
  </metadata>
  <g
     transform="matrix(1.5140612,0,0,1.6130309,-722.08302,-1471.5804)"
     style="display:inline;stroke-width:0.6398924"
     id="layer1">
    <path
       style="color:#000000;opacity:1;fill:#ffffff;fill-opacity:1;stroke:none;stroke-width:0.6398924"
       id="path4077-8"
       d="m 492.21875,912.39762 c -0.0741,0.0356 -0.13911,0.0898 -0.1875,0.15625 l -0.5,0.5 -0.15625,-0.15625 -6,6 0.15625,0.15625 -0.5,0.5 -0.0312,0.71875 0.71875,-0.0312 0.5,-0.5 0.15625,0.15625 6,-6 -0.15625,-0.15625 0.5,-0.5 c 0.29288,-0.29845 -0.0248,-0.91114 -0.4375,-0.84375 -0.0208,-10e-4 -0.0417,-10e-4 -0.0625,0 z M 478,914.27262 c -0.554,0 -1,0.446 -1,1 v 9 c 0,0.554 0.446,1 1,1 h 12 c 0.554,0 1,-0.446 1,-1 v -7.5625 l -3.90625,3.90625 -0.71875,0.6875 -0.15625,-0.15625 -0.0625,0.0625 -0.40625,0.0312 -0.71875,0.0312 -1.0625,0.0312 0.0312,-1.0625 0.0312,-0.71875 0.0312,-0.40625 0.0625,-0.0625 -0.15625,-0.15625 0.6875,-0.71875 3.90625,-3.90625 h -10.5625 z m -1,11 v 1 c 0,0.554 0.446,1 1,1 h 12 c 0.554,0 1,-0.446 1,-1 v -1 c 0,0.554 -0.446,1 -1,1 h -12 c -0.554,0 -1,-0.446 -1,-1 z"
       inkscape:connector-curvature="0" />
  </g>
  <g
     transform="translate(-473,-454.91046)"
     id="layer2" />
</svg>
