<?xml version="1.0" encoding="UTF-8" standalone="no"?>
<!-- Created with Inkscape (http://www.inkscape.org/) -->

<svg
   width="135.46666mm"
   height="135.46666mm"
   viewBox="0 0 135.46666 135.46666"
   version="1.1"
   id="svg2501"
   xmlns="http://www.w3.org/2000/svg"
   xmlns:svg="http://www.w3.org/2000/svg">
  <defs
     id="defs2498" />
  <g
     id="layer1"
     transform="translate(182.28247,9.3544846)">
    <path
       style="color:#000000;stroke:currentColor;stroke-width:1;stroke-dasharray:none;-stroke:currentColor"
       d="m -176.00554,69.836786 c -1.22306,0 -2.27655,2.169887 -2.27655,4.689046 v 38.475148 c 0,2.51916 1.05349,4.68905 2.27655,4.68905 h 122.912801 c 1.223057,0 2.276556,-2.16989 2.276549,-4.68905 V 74.525832 c 7e-6,-2.519159 -1.053492,-4.689046 -2.276549,-4.689046 z m 2.13658,9.089773 H -55.229322 V 108.60026 H -173.86896 Z"
       id="path6061" />
    <path
       style="color:#000000;stroke:currentColor;stroke-width:1;stroke-dasharray:none;-stroke:currentColor"
       d="m -175.96196,85.533106 v 9.089779 h 122.825639 v -9.089779 z"
       id="path6058" />
    <path
       style="color:#000000;stroke:currentColor;stroke-width:1;stroke-dasharray:none;-stroke:currentColor"
       d="m -126.44823,90.575742 c -1.22306,0 -2.27655,2.169875 -2.27655,4.68902 v 4.365385 c 0,2.519153 1.05349,4.689063 2.27655,4.689063 h 23.79818 c 1.22306,0 2.27656,-2.16991 2.27656,-4.689063 v -4.365385 c 0,-2.519145 -1.0535,-4.68902 -2.27656,-4.68902 z"
       id="path6055" />
    <g
       aria-label="Z"
       id="text4406"
       style="font-size:56.9342px;stroke-width:1;stroke-dasharray:none"
       transform="translate(-3.7476825,-22.383682)">
      <path
         d="m -135.79472,85.578514 h -30.23206 v -5.579552 l 19.47149,-27.954692 h -18.95909 v -7.116775 h 29.20725 v 5.579552 l -19.4715,27.954692 h 19.98391 z"
         id="path6052"
         style="stroke:currentColor;stroke-width:1;stroke-dasharray:none;-stroke:currentColor" />
    </g>
    <g
       aria-label="Z"
       id="text4468"
       style="font-size:56.9342px;stroke-width:1;stroke-dasharray:none"
       transform="translate(-2.3461382,-15.504511)">
      <path
         d="m -97.086974,65.490364 h -30.232056 v -5.579552 l 19.47149,-27.954692 h -18.95909 v -7.116775 h 29.207248 v 5.579552 l -19.471498,27.954692 h 19.983906 z"
         id="path6049"
         style="stroke:currentColor;stroke-width:1;stroke-dasharray:none;-stroke:currentColor" />
    </g>
    <g
       aria-label="Z"
       id="text4472"
       style="font-size:56.9342px;stroke-width:88.1897"
       transform="translate(-1.1018488,-3.8628427)">
      <path
         d="m -58.221969,43.581177 h -30.23206 V 38.001625 L -68.982533,10.046933 H -87.941621 V 2.9301578 h 29.207245 V 8.5097094 L -78.205873,36.464402 h 19.983904 z"
         id="path6046"
         style="stroke:currentColor;stroke-width:1;stroke-dasharray:none;-stroke:currentColor" />
    </g>
  </g>
</svg>
