<?xml version="1.0" encoding="UTF-8" standalone="no"?>
<svg
   xmlns:dc="http://purl.org/dc/elements/1.1/"
   xmlns:cc="http://creativecommons.org/ns#"
   xmlns:rdf="http://www.w3.org/1999/02/22-rdf-syntax-ns#"
   xmlns:svg="http://www.w3.org/2000/svg"
   xmlns="http://www.w3.org/2000/svg"
   xmlns:sodipodi="http://sodipodi.sourceforge.net/DTD/sodipodi-0.dtd"
   xmlns:inkscape="http://www.inkscape.org/namespaces/inkscape"
   version="1.1"
   id="Layer_1"
   x="0px"
   y="0px"
   viewBox="0 0 385.624 385.624"
   style="enable-background:new 0 0 385.624 385.624;"
   xml:space="preserve"
   sodipodi:docname="diagonal-arrow-3-weather-symbolic.svg"
   inkscape:version="1.0.1 (3bc2e813f5, 2020-09-07, custom)"><metadata
   id="metadata43"><rdf:RDF><cc:Work
       rdf:about=""><dc:format>image/svg+xml</dc:format><dc:type
         rdf:resource="http://purl.org/dc/dcmitype/StillImage" /></cc:Work></rdf:RDF></metadata><defs
   id="defs41" /><sodipodi:namedview
   pagecolor="#ffffff"
   bordercolor="#666666"
   borderopacity="1"
   objecttolerance="10"
   gridtolerance="10"
   guidetolerance="10"
   inkscape:pageopacity="0"
   inkscape:pageshadow="2"
   inkscape:window-width="1080"
   inkscape:window-height="1898"
   id="namedview39"
   showgrid="false"
   inkscape:zoom="1.727071"
   inkscape:cx="192.812"
   inkscape:cy="192.812"
   inkscape:window-x="0"
   inkscape:window-y="0"
   inkscape:window-maximized="1"
   inkscape:current-layer="Layer_1"
   inkscape:document-rotation="0" />
<g
   id="g6"
   transform="matrix(0.69019999,0,0,0.69019999,51.65557,78.754515)">
	<g
   id="g4">
		<path
   d="m 357.508,70.436 -0.072,-0.812 h -22.464 c -15.44,0 -29.536,14.128 -29.536,29.564 V 250.316 L 64.052,8.172 C 58.788,2.904 52.136,0 44.64,0 37.14,0 30.3,2.904 25.036,8.172 L 8.356,24.944 C -2.564,35.86 -2.52,52.664 8.404,63.584 l 243.052,242.04 H 98.524 c -15.432,0 -29.088,14.484 -29.088,29.924 v 23.724 c 0,15.44 13.656,26.352 29.088,26.352 H 358.6 c 7.476,0 13.892,-2.12 19.18,-7.44 5.344,-5.308 7.656,-11.528 7.656,-19.004 V 99.188 c 0,-15.432 -12.492,-28.752 -27.928,-28.752 z"
   id="path2" />
	</g>
</g>
<g
   id="g8">
</g>
<g
   id="g10">
</g>
<g
   id="g12">
</g>
<g
   id="g14">
</g>
<g
   id="g16">
</g>
<g
   id="g18">
</g>
<g
   id="g20">
</g>
<g
   id="g22">
</g>
<g
   id="g24">
</g>
<g
   id="g26">
</g>
<g
   id="g28">
</g>
<g
   id="g30">
</g>
<g
   id="g32">
</g>
<g
   id="g34">
</g>
<g
   id="g36">
</g>
</svg>
