<?xml version="1.0" encoding="UTF-8" standalone="no"?>
<svg
   xmlns:dc="http://purl.org/dc/elements/1.1/"
   xmlns:cc="http://creativecommons.org/ns#"
   xmlns:rdf="http://www.w3.org/1999/02/22-rdf-syntax-ns#"
   xmlns:svg="http://www.w3.org/2000/svg"
   xmlns="http://www.w3.org/2000/svg"
   xmlns:sodipodi="http://sodipodi.sourceforge.net/DTD/sodipodi-0.dtd"
   xmlns:inkscape="http://www.inkscape.org/namespaces/inkscape"
   version="1.1"
   id="Layer_1"
   x="0px"
   y="0px"
   viewBox="0 0 386.478 386.478"
   style="enable-background:new 0 0 386.478 386.478;"
   xml:space="preserve"
   sodipodi:docname="diagonal-arrow-5-weather-symbolic.svg"
   inkscape:version="1.0.1 (3bc2e813f5, 2020-09-07, custom)"><metadata
   id="metadata43"><rdf:RDF><cc:Work
       rdf:about=""><dc:format>image/svg+xml</dc:format><dc:type
         rdf:resource="http://purl.org/dc/dcmitype/StillImage" /></cc:Work></rdf:RDF></metadata><defs
   id="defs41" /><sodipodi:namedview
   pagecolor="#ffffff"
   bordercolor="#666666"
   borderopacity="1"
   objecttolerance="10"
   gridtolerance="10"
   guidetolerance="10"
   inkscape:pageopacity="0"
   inkscape:pageshadow="2"
   inkscape:window-width="1080"
   inkscape:window-height="1898"
   id="namedview39"
   showgrid="false"
   inkscape:zoom="1.7232546"
   inkscape:cx="193.239"
   inkscape:cy="193.239"
   inkscape:window-x="0"
   inkscape:window-y="0"
   inkscape:window-maximized="1"
   inkscape:current-layer="Layer_1"
   inkscape:document-rotation="0" />
<g
   id="g6"
   transform="matrix(0.69675829,0,0,0.69675829,57.345268,75.924289)">
	<g
   id="g4">
		<path
   d="M 378.248,322.469 135.24,80.405 h 152.928 c 15.44,0 29.052,-14.444 29.052,-29.88 V 26.797 c 0,-7.452 -3.444,-13.672 -8.752,-18.98 -5.296,-5.292 -12.844,-7.412 -20.3,-7.412 H 28.1 c -7.476,0 -14.52,2.14 -19.812,7.46 C 2.948,13.181 0.008,19.809 0,27.297 l 0.008,259.792 c 0,7.448 2.916,15.132 8.22,20.436 5.3,5.296 12.324,8.88 19.772,8.88 h 23.732 c 15.436,0 29.488,-14.08 29.488,-29.516 V 135.757 l 241.4,242.136 c 5.264,5.276 11.932,8.18 19.424,8.18 7.5,0 14.348,-2.904 19.612,-8.18 l 16.68,-16.296 c 10.916,-10.912 10.824,-28.212 -0.088,-39.128 z"
   id="path2" />
	</g>
</g>
<g
   id="g8">
</g>
<g
   id="g10">
</g>
<g
   id="g12">
</g>
<g
   id="g14">
</g>
<g
   id="g16">
</g>
<g
   id="g18">
</g>
<g
   id="g20">
</g>
<g
   id="g22">
</g>
<g
   id="g24">
</g>
<g
   id="g26">
</g>
<g
   id="g28">
</g>
<g
   id="g30">
</g>
<g
   id="g32">
</g>
<g
   id="g34">
</g>
<g
   id="g36">
</g>
</svg>
