<?xml version="1.0" encoding="UTF-8" standalone="no"?>
<svg
   xmlns:dc="http://purl.org/dc/elements/1.1/"
   xmlns:cc="http://creativecommons.org/ns#"
   xmlns:rdf="http://www.w3.org/1999/02/22-rdf-syntax-ns#"
   xmlns:svg="http://www.w3.org/2000/svg"
   xmlns="http://www.w3.org/2000/svg"
   xmlns:sodipodi="http://sodipodi.sourceforge.net/DTD/sodipodi-0.dtd"
   xmlns:inkscape="http://www.inkscape.org/namespaces/inkscape"
   version="1.1"
   id="Layer_1"
   x="0px"
   y="0px"
   viewBox="0 0 385.756 385.756"
   style="enable-background:new 0 0 385.756 385.756;"
   xml:space="preserve"
   sodipodi:docname="diagonal-arrow-8-weather-symbolic.svg"
   inkscape:version="1.0.1 (3bc2e813f5, 2020-09-07, custom)"><metadata
   id="metadata43"><rdf:RDF><cc:Work
       rdf:about=""><dc:format>image/svg+xml</dc:format><dc:type
         rdf:resource="http://purl.org/dc/dcmitype/StillImage" /></cc:Work></rdf:RDF></metadata><defs
   id="defs41" /><sodipodi:namedview
   pagecolor="#ffffff"
   bordercolor="#666666"
   borderopacity="1"
   objecttolerance="10"
   gridtolerance="10"
   guidetolerance="10"
   inkscape:pageopacity="0"
   inkscape:pageshadow="2"
   inkscape:window-width="1080"
   inkscape:window-height="1898"
   id="namedview39"
   showgrid="false"
   inkscape:zoom="1.7264799"
   inkscape:cx="192.87801"
   inkscape:cy="192.87801"
   inkscape:window-x="0"
   inkscape:window-y="0"
   inkscape:window-maximized="1"
   inkscape:current-layer="Layer_1"
   inkscape:document-rotation="0" />
<g
   id="g6"
   transform="matrix(0.72288763,0,0,0.72288763,50.63907,78.978193)">
	<g
   id="g4">
		<path
   d="M 377.816,7.492 C 372.504,2.148 366.088,0 358.608,0 H 98.544 C 83.104,0 69.464,10.988 69.464,26.428 V 50.152 C 69.464,65.592 83.104,80 98.544,80 H 251.468 L 8.464,322.08 c -5.268,5.272 -8.172,11.84 -8.176,19.34 0,7.5 2.908,14.296 8.176,19.568 L 25.24,377.64 c 5.264,5.272 12.296,8.116 19.796,8.116 7.5,0 13.768,-2.928 19.036,-8.2 L 305.464,135.384 v 151.124 c 0,15.444 14.084,29.492 29.52,29.492 h 23.732 c 15.432,0 26.752,-14.048 26.752,-29.492 V 26.52 c -0.004,-7.472 -2.324,-13.732 -7.652,-19.028 z"
   id="path2" />
	</g>
</g>
<g
   id="g8">
</g>
<g
   id="g10">
</g>
<g
   id="g12">
</g>
<g
   id="g14">
</g>
<g
   id="g16">
</g>
<g
   id="g18">
</g>
<g
   id="g20">
</g>
<g
   id="g22">
</g>
<g
   id="g24">
</g>
<g
   id="g26">
</g>
<g
   id="g28">
</g>
<g
   id="g30">
</g>
<g
   id="g32">
</g>
<g
   id="g34">
</g>
<g
   id="g36">
</g>
</svg>
