<?xml version="1.0" encoding="UTF-8" standalone="no"?>
<svg
   xmlns:dc="http://purl.org/dc/elements/1.1/"
   xmlns:cc="http://creativecommons.org/ns#"
   xmlns:rdf="http://www.w3.org/1999/02/22-rdf-syntax-ns#"
   xmlns:svg="http://www.w3.org/2000/svg"
   xmlns="http://www.w3.org/2000/svg"
   xmlns:sodipodi="http://sodipodi.sourceforge.net/DTD/sodipodi-0.dtd"
   xmlns:inkscape="http://www.inkscape.org/namespaces/inkscape"
   version="1.1"
   id="Layer_1"
   x="0px"
   y="0px"
   viewBox="0 0 492 492"
   style="enable-background:new 0 0 492 492;"
   xml:space="preserve"
   sodipodi:docname="down-arrow-weather-symbolic.svg"
   inkscape:version="1.0.1 (3bc2e813f5, 2020-09-07, custom)"><metadata
   id="metadata43"><rdf:RDF><cc:Work
       rdf:about=""><dc:format>image/svg+xml</dc:format><dc:type
         rdf:resource="http://purl.org/dc/dcmitype/StillImage" /></cc:Work></rdf:RDF></metadata><defs
   id="defs41" /><sodipodi:namedview
   pagecolor="#ffffff"
   bordercolor="#666666"
   borderopacity="1"
   objecttolerance="10"
   gridtolerance="10"
   guidetolerance="10"
   inkscape:pageopacity="0"
   inkscape:pageshadow="2"
   inkscape:window-width="1080"
   inkscape:window-height="1898"
   id="namedview39"
   showgrid="false"
   inkscape:zoom="1.3536585"
   inkscape:cx="246"
   inkscape:cy="246"
   inkscape:window-x="0"
   inkscape:window-y="0"
   inkscape:window-maximized="1"
   inkscape:current-layer="Layer_1"
   inkscape:document-rotation="0" />
<g
   id="g6"
   transform="matrix(0.72007794,0,0,0.72007794,60.637135,93.831113)">
	<g
   id="g4">
		<path
   d="m 442.668,268.536 -16.116,-16.12 c -5.06,-5.068 -11.824,-7.872 -19.024,-7.872 -7.208,0 -14.584,2.804 -19.644,7.872 L 283.688,355.992 V 26.924 C 283.688,12.084 272.856,0 258.02,0 h -22.804 c -14.832,0 -28.404,12.084 -28.404,26.924 v 330.24 L 102.824,252.416 c -5.068,-5.068 -11.444,-7.872 -18.652,-7.872 -7.2,0 -13.776,2.804 -18.84,7.872 l -16.028,16.12 c -10.488,10.492 -10.444,27.56 0.044,38.052 l 177.576,177.556 c 5.056,5.056 11.84,7.856 19.1,7.856 h 0.076 c 7.204,0 13.972,-2.8 19.028,-7.856 l 177.54,-177.552 c 10.496,-10.488 10.496,-27.564 0,-38.056 z"
   id="path2" />
	</g>
</g>
<g
   id="g8">
</g>
<g
   id="g10">
</g>
<g
   id="g12">
</g>
<g
   id="g14">
</g>
<g
   id="g16">
</g>
<g
   id="g18">
</g>
<g
   id="g20">
</g>
<g
   id="g22">
</g>
<g
   id="g24">
</g>
<g
   id="g26">
</g>
<g
   id="g28">
</g>
<g
   id="g30">
</g>
<g
   id="g32">
</g>
<g
   id="g34">
</g>
<g
   id="g36">
</g>
</svg>
