<?xml version="1.0" encoding="UTF-8" standalone="no"?>
<svg
   xmlns:dc="http://purl.org/dc/elements/1.1/"
   xmlns:cc="http://creativecommons.org/ns#"
   xmlns:rdf="http://www.w3.org/1999/02/22-rdf-syntax-ns#"
   xmlns:svg="http://www.w3.org/2000/svg"
   xmlns="http://www.w3.org/2000/svg"
   xmlns:sodipodi="http://sodipodi.sourceforge.net/DTD/sodipodi-0.dtd"
   xmlns:inkscape="http://www.inkscape.org/namespaces/inkscape"
   version="1.1"
   id="Layer_1"
   x="0px"
   y="0px"
   viewBox="0 0 492.004 492.004"
   style="enable-background:new 0 0 492.004 492.004;"
   xml:space="preserve"
   sodipodi:docname="right-arrow-weather-symbolic.svg"
   inkscape:version="1.0.1 (3bc2e813f5, 2020-09-07, custom)"><metadata
   id="metadata86"><rdf:RDF><cc:Work
       rdf:about=""><dc:format>image/svg+xml</dc:format><dc:type
         rdf:resource="http://purl.org/dc/dcmitype/StillImage" /></cc:Work></rdf:RDF></metadata><defs
   id="defs84" /><sodipodi:namedview
   pagecolor="#ffffff"
   bordercolor="#666666"
   borderopacity="1"
   objecttolerance="10"
   gridtolerance="10"
   guidetolerance="10"
   inkscape:pageopacity="0"
   inkscape:pageshadow="2"
   inkscape:window-width="1080"
   inkscape:window-height="1898"
   id="namedview82"
   showgrid="false"
   inkscape:zoom="1.3536475"
   inkscape:cx="246.002"
   inkscape:cy="246.002"
   inkscape:window-x="0"
   inkscape:window-y="0"
   inkscape:window-maximized="1"
   inkscape:current-layer="Layer_1"
   inkscape:document-rotation="0" />
<g
   id="g49"
   transform="matrix(0.86982835,0,0,0.86982835,30.885519,54.372039)">
	<g
   id="g47">
		<path
   d="M 484.14,226.886 306.46,49.202 c -5.072,-5.072 -11.832,-7.856 -19.04,-7.856 -7.216,0 -13.972,2.788 -19.044,7.856 l -16.132,16.136 c -5.068,5.064 -7.86,11.828 -7.86,19.04 0,7.208 2.792,14.2 7.86,19.264 L 355.9,207.526 H 26.58 C 11.732,207.526 0,219.15 0,234.002 v 22.812 c 0,14.852 11.732,27.648 26.58,27.648 H 357.076 L 252.248,388.926 c -5.068,5.072 -7.86,11.652 -7.86,18.864 0,7.204 2.792,13.88 7.86,18.948 l 16.132,16.084 c 5.072,5.072 11.828,7.836 19.044,7.836 7.208,0 13.968,-2.8 19.04,-7.872 l 177.68,-177.68 c 5.084,-5.088 7.88,-11.88 7.86,-19.1 0.016,-7.244 -2.776,-14.04 -7.864,-19.12 z"
   id="path45" />
	</g>
</g>
<g
   id="g51">
</g>
<g
   id="g53">
</g>
<g
   id="g55">
</g>
<g
   id="g57">
</g>
<g
   id="g59">
</g>
<g
   id="g61">
</g>
<g
   id="g63">
</g>
<g
   id="g65">
</g>
<g
   id="g67">
</g>
<g
   id="g69">
</g>
<g
   id="g71">
</g>
<g
   id="g73">
</g>
<g
   id="g75">
</g>
<g
   id="g77">
</g>
<g
   id="g79">
</g>
</svg>
