<?xml version="1.0" encoding="UTF-8" standalone="no"?>
<!-- Created with Inkscape (http://www.inkscape.org/) -->

<svg
   xmlns:dc="http://purl.org/dc/elements/1.1/"
   xmlns:cc="http://creativecommons.org/ns#"
   xmlns:rdf="http://www.w3.org/1999/02/22-rdf-syntax-ns#"
   xmlns:svg="http://www.w3.org/2000/svg"
   xmlns="http://www.w3.org/2000/svg"
   version="1.1"
   width="16"
   height="16"
   id="svg7384">
  <title
     id="title9167">Gnome Symbolic Icon Theme</title>
  <defs
     id="defs10" />
  <metadata
     id="metadata90">
    <rdf:RDF>
      <cc:Work
         rdf:about="">
        <dc:format>image/svg+xml</dc:format>
        <dc:type
           rdf:resource="http://purl.org/dc/dcmitype/StillImage" />
        <dc:title>Gnome Symbolic Icon Theme</dc:title>
      </cc:Work>
    </rdf:RDF>
  </metadata>
  <g
     transform="matrix(1.0769231,0,0,0.96582954,-44.794569,-327.32835)"
     id="layer9">
    <path
       d="m 47,345 c -1.5545,0.11593 -3,1.4148 -3,3 v 4 h 10 v -4 c 0,-1.5852 -1.4455,-2.8841 -3,-3 v 1 h -4 z"
       id="rect20599"
       style="color:#bebebe;fill:#bebebe" />
    <path
       d="m 52,342.5 a 2.5,2.5 0 1 1 -5,0 2.5,2.5 0 1 1 5,0 z"
       transform="matrix(1.2,0,0,1.2,-10.4,-69)"
       id="path20580"
       style="color:#bebebe;fill:#bebebe" />
  </g>
  <g
     transform="matrix(1.1305589,0,0,0.38900234,-274.00351,-248.26122)"
     id="layer12-9">
    <g
       id="g3030">
      <path
         d="m 244,673.33287 v 3.27867 h 10 v -3.27867 h -10 z"
         id="path15405-2"
         style="text-indent:0;text-transform:none;block-progression:tb;color:#000000;fill:#bebebe" />
      <path
         d="m 251,671 v 1 c 0,0.25689 0.12983,0.52846 0.3125,0.71875 l 2.2812,2.2812 -2.2812,2.2812 C 251.12983,677.47144 251,677.74301 251,677.9999 v 1 h 1 c 0.30945,0 0.55232,-0.0903 0.75,-0.28125 l 3.66,-3.72 -3.66,-3.72 c -0.2,-0.19 -0.44,-0.28 -0.75,-0.28 z"
         id="rect3217-6-2-2-4-85-5"
         style="text-indent:0;text-transform:none;block-progression:tb;color:#bebebe;fill:#bebebe" />
    </g>
  </g>
</svg>
