<?xml version="1.0" encoding="UTF-8" standalone="no"?>
<svg
   width="16"
   height="16"
   version="1.1"
   id="svg8"
   sodipodi:docname="cpu.svg"
   inkscape:version="1.2.2 (b0a8486541, 2022-12-01)"
   xmlns:inkscape="http://www.inkscape.org/namespaces/inkscape"
   xmlns:sodipodi="http://sodipodi.sourceforge.net/DTD/sodipodi-0.dtd"
   xmlns="http://www.w3.org/2000/svg"
   xmlns:svg="http://www.w3.org/2000/svg">
  <defs
     id="defs12" />
  <sodipodi:namedview
     id="namedview10"
     pagecolor="#ffffff"
     bordercolor="#000000"
     borderopacity="0.25"
     inkscape:showpageshadow="2"
     inkscape:pageopacity="0.0"
     inkscape:pagecheckerboard="0"
     inkscape:deskcolor="#d1d1d1"
     showgrid="false"
     inkscape:zoom="32.5625"
     inkscape:cx="7.9846449"
     inkscape:cy="8.0921305"
     inkscape:window-width="1366"
     inkscape:window-height="691"
     inkscape:window-x="0"
     inkscape:window-y="20"
     inkscape:window-maximized="1"
     inkscape:current-layer="svg8" />
  <g
     fill="#222"
     id="g6">
    <path
       d="M5 5h6v6H5zm8 0h3v1h-3zm0 2h3v1h-3zm0 2h3v1h-3zM0 6h3v1H0zm0 2h3v1H0zm0 2h3v1H0zM5 0h1v3H5zm2 0h1v3H7zm2 0h1v3H9zm1 13h1v3h-1zm-2 0h1v3H8zm-2 0h1v3H6zm0 0"
       id="path2" />
    <path
       d="M5 2C3.355 2 2 3.355 2 5v6c0 1.645 1.355 3 3 3h6c1.645 0 3-1.355 3-3V5c0-1.645-1.355-3-3-3zm0 2h6c.57 0 1 .43 1 1v6c0 .57-.43 1-1 1H5c-.57 0-1-.43-1-1V5c0-.57.43-1 1-1m0 0"
       id="path4" />
  </g>
  <path
     style="fill:#000000;stroke-width:0.0307102"
     d="M 6.0191939,14.989275 V 13.97855 L 5.243762,13.965957 C 4.5089069,13.954021 4.4542071,13.949048 4.1984393,13.870908 3.1844072,13.561113 2.4243674,12.799753 2.132679,11.801561 2.0893024,11.653121 2.0457051,11.410749 2.0357962,11.262956 L 2.0177799,10.994242 H 1.00889 0 V 10.502879 10.011516 H 1.0134357 2.0268714 V 9.5047985 8.9980806 H 1.0134357 0 V 8.5067179 8.0153551 H 1.0134357 2.0268714 V 7.4932821 6.9712092 H 1.0134357 0 V 6.4952015 6.0191939 H 1.0107248 2.0214495 L 2.0340436,5.243762 C 2.0459786,4.5089069 2.0509523,4.4542071 2.1290916,4.1984393 2.4388871,3.1844072 3.2002466,2.4243674 4.1984393,2.132679 4.3468794,2.0893024 4.5892514,2.0457051 4.7370441,2.0357962 L 5.0057582,2.0177799 V 1.00889 0 H 5.4971209 5.9884837 V 1.0134357 2.0268714 H 6.4952015 7.0019194 V 1.0134357 0 h 0.4913627 0.4913628 v 1.0141782 1.0141783 l 0.5143954,-0.00842 0.5143954,-0.00842 0.0081,-1.0057581 L 9.0296301,0 H 9.505218 9.9808061 v 1.0107248 1.0107247 l 0.7754319,0.012594 c 0.734855,0.011935 0.789555,0.016909 1.045323,0.095048 1.014032,0.3097955 1.774072,1.071155 2.06576,2.0693477 0.04338,0.1484401 0.08697,0.3908121 0.09688,0.5386048 l 0.01802,0.2687141 H 14.99111 16 V 5.4971209 5.9884837 H 14.986564 13.973129 V 6.4952015 7.0019194 H 14.986564 16 v 0.4913627 0.4913628 h -1.013436 -1.013435 v 0.522073 0.5220729 H 14.986564 16 V 9.5047985 9.9808061 H 14.989275 13.97855 l -0.01259,0.7754319 c -0.01194,0.734855 -0.01691,0.789555 -0.09505,1.045323 -0.309795,1.014032 -1.071155,1.774072 -2.069347,2.06576 -0.14844,0.04338 -0.390812,0.08697 -0.538605,0.09688 l -0.268714,0.01802 V 14.99111 16 H 10.502879 10.011516 V 14.986564 13.973129 H 9.5047985 8.9980806 V 14.986564 16 H 8.5067179 8.0153551 v -1.014178 -1.014179 l -0.5143954,0.0084 -0.5143954,0.0084 -0.0081,1.005758 L 6.9703699,16 H 6.494782 6.0191939 Z m 5.3644991,-3.047741 c 0.238539,-0.08925 0.468592,-0.319302 0.557841,-0.557841 l 0.06614,-0.176784 V 8 4.7930911 l -0.06614,-0.176784 C 11.852285,4.3777677 11.622232,4.1477147 11.383693,4.0584657 L 11.206909,3.9923225 H 8 4.7930911 l -0.176784,0.066143 C 4.3777677,4.1477147 4.1477147,4.3777677 4.0584657,4.6163071 l -0.066143,0.176784 V 8 11.206909 l 0.066143,0.176784 c 0.087087,0.23276 0.3194466,0.468179 0.54912,0.556349 0.1665109,0.06392 0.1934308,0.06445 3.3835848,0.06603 l 3.2157385,0.0016 z"
     id="path187" />
  <path
     style="fill:#000000;stroke-width:0.0307102"
     d="M 5.0057582,8 V 5.0057582 H 8 10.994242 V 8 10.994242 H 8 5.0057582 Z"
     id="path189" />
  <path
     style="fill:#333333;stroke-width:0.0307102"
     d="m 6.0191939,14.986564 v -1.013435 l -0.084453,-0.0021 C 5.8882917,13.969892 5.518618,13.957856 5.1132438,13.944294 4.3899464,13.920096 4.3710446,13.91779 4.0998081,13.820655 3.3726775,13.560254 2.8149589,13.106692 2.4396932,12.470577 2.2172719,12.093549 2.09829,11.705389 2.041283,11.170825 L 2.0224518,10.994242 H 1.0112259 0 V 10.502879 10.011516 H 1.0134357 2.0268714 V 9.5047985 8.9980806 H 1.0134357 0 V 8.5067179 8.0153551 H 1.0134357 2.0268714 V 7.4932821 6.9712092 H 1.0134357 0 V 6.4952015 6.0191939 h 1.0134357 1.0134357 l 0.00199,-0.099808 c 0.0011,-0.054894 0.013071,-0.4245681 0.026611,-0.8214971 L 2.080093,4.3761996 2.1887009,4.0773727 C 2.4510662,3.355493 2.8938464,2.8146413 3.5294234,2.4396932 3.9064513,2.2172719 4.294611,2.09829 4.8291747,2.041283 L 5.0057582,2.0224518 V 1.0112259 0 H 5.4971209 5.9884837 V 1.0134357 2.0268714 H 6.4952015 7.0019194 V 1.0134357 0 h 0.4913627 0.4913628 l -3.07e-5,1.0211132 -3.07e-5,1.0211133 0.5221125,-0.00908 0.5220948,-0.00908 V 1.0120355 0 h 0.4760077 0.4760076 v 1.0134357 1.0134357 l 0.084453,0.00209 c 0.04645,0.00115 0.416123,0.013088 0.821497,0.026532 l 0.737044,0.024443 0.298827,0.1086868 c 0.722116,0.262642 1.262766,0.7052828 1.63768,1.3408014 0.222421,0.3770279 0.341403,0.7651876 0.39841,1.2997513 l 0.01883,0.1765835 H 14.988774 16 V 5.4971209 5.9884837 H 14.986564 13.973129 V 6.4952015 7.0019194 H 14.986564 16 v 0.4913627 0.4913628 h -1.013436 -1.013435 v 0.522073 0.5220729 H 14.986564 16 v 0.4760077 0.4760076 h -1.013436 -1.013435 l -0.0021,0.084453 c -0.0011,0.04645 -0.01309,0.416123 -0.02653,0.821497 l -0.02444,0.737044 -0.108686,0.298827 c -0.262642,0.722116 -0.705283,1.262766 -1.340802,1.63768 -0.377028,0.222421 -0.765187,0.341403 -1.299751,0.39841 l -0.176584,0.01883 V 14.988774 16 H 10.50288 10.011517 V 14.986564 13.973129 H 9.5047991 8.9980812 V 14.986564 16 H 8.5067185 8.0153557 l 3.07e-5,-1.021113 3.07e-5,-1.021113 -0.5221125,0.0091 -0.5221123,0.0091 V 14.987964 16 H 6.4951846 6.019177 v -1.013436 z m 5.3873641,-3.039333 c 0.194119,-0.08321 0.431371,-0.313974 0.52391,-0.509586 l 0.07721,-0.163208 V 8 4.7255631 L 11.930468,4.5623552 C 11.837929,4.3667433 11.600677,4.1359785 11.406558,4.0527693 11.269241,3.9939083 11.17975,3.9923225 7.9955522,3.9923225 H 4.7255631 l -0.1632079,0.07721 C 4.3667433,4.1620714 4.1359785,4.3993228 4.0527693,4.5934421 3.9939102,4.730755 3.9923225,4.820226 3.9923225,8 c 0,3.157842 0.00195,3.270102 0.059271,3.403816 0.064193,0.149757 0.2325709,0.351975 0.3811903,0.457801 0.1996862,0.142189 0.1898801,0.141797 3.6030572,0.143988 3.146564,0.002 3.23333,5.16e-4 3.370717,-0.05837 z"
     id="path252" />
  <path
     style="fill:#4d4d4d;stroke-width:0.0307102"
     d="M 5.0057582,8 V 5.0057582 H 8 10.994242 V 8 10.994242 H 8 5.0057582 Z"
     id="path323" />
  <path
     style="fill:#666666;stroke-width:0.0307102"
     d="m 6.0119303,14.978887 -0.00809,-1.021113 -0.6602687,-0.02034 C 4.5159281,13.911933 4.3808894,13.898301 4.1403203,13.815963 2.9992019,13.4254 2.1960086,12.442808 2.0722612,11.285988 c -0.010841,-0.101343 -0.02642,-0.208445 -0.03462,-0.238003 -0.013813,-0.04979 -0.089222,-0.05374 -1.0262752,-0.05374 H 0 v -0.490943 -0.490943 l 1.0057582,-0.0081 1.0057581,-0.0081 0.00844,-0.4990403 0.00844,-0.4990403 H 1.0141964 0 V 8.5067179 8.0153551 H 1.0134357 2.0268714 V 7.4932821 6.9712092 H 1.0134357 0 V 6.4952015 6.0191939 h 1.0152481 c 0.669012,0 1.0087753,-0.010473 0.9962682,-0.03071 -0.010439,-0.016891 -0.00648,-0.03071 0.0088,-0.03071 0.015278,0 0.03751,-0.3533187 0.049404,-0.7851528 C 2.0907614,4.4086013 2.0937373,4.3809757 2.1802805,4.1462578 2.3702463,3.6310428 2.5961376,3.2650531 2.9305953,2.9305953 3.4135687,2.447622 4.065659,2.1362282 4.7314693,2.0706209 c 0.1170776,-0.011537 0.2128685,-0.033825 0.2128685,-0.04953 0,-0.015705 0.01382,-0.020014 0.03071,-0.00957 0.020237,0.012507 0.03071,-0.3272562 0.03071,-0.9962682 V 0 H 5.496701 5.987644 l 0.0081,1.0057582 0.0081,1.0057581 0.4990403,0.00844 0.4990403,0.00844 V 1.0141964 0 H 7.4932873 7.9846501 V 1.0287908 2.0575816 L 8.3454946,2.0573144 C 8.5439591,2.057167 8.778892,2.0483344 8.8675676,2.0376814 L 9.0287908,2.0183161 V 1.009158 0 h 0.4755937 0.4755937 l 0.00809,1.0211132 0.00809,1.0211133 0.7984648,0.023507 c 0.883463,0.026009 0.974403,0.044055 1.474088,0.2925226 0.929318,0.4621012 1.541516,1.3320408 1.657805,2.3557558 0.01151,0.1013436 0.02764,0.2084453 0.03584,0.2380039 0.01381,0.049794 0.08922,0.053743 1.026275,0.053743 H 16 V 5.496702 5.987645 l -1.005758,0.0081 -1.005758,0.0081 -0.0084,0.4990403 -0.0084,0.4990403 H 14.985804 16 V 7.4932883 7.9846511 H 14.986564 13.973129 V 8.5067241 9.028797 H 14.986564 16 v 0.4755937 0.4755937 l -1.021113,0.00809 -1.021113,0.00809 -0.02351,0.7984646 c -0.02215,0.752238 -0.0282,0.811799 -0.104568,1.028791 -0.300085,0.852661 -0.82066,1.455874 -1.580505,1.831399 -0.236729,0.116995 -0.680187,0.242648 -0.963206,0.272923 -0.101343,0.01084 -0.208445,0.02642 -0.238003,0.03462 -0.04979,0.01381 -0.05374,0.08922 -0.05374,1.026275 V 16 h -0.490943 -0.490943 l -0.0081,-1.005758 -0.0081,-1.005758 -0.4990403,-0.0084 -0.4990403,-0.0084 V 14.985804 16 H 8.5067179 8.0153551 v -1.028791 -1.028791 l -0.3608445,2.77e-4 c -0.1984645,1.53e-4 -0.4333974,0.009 -0.522073,0.01963 l -0.1612284,0.01937 v 1.009158 1.009159 H 6.4956155 6.0200218 l -0.00809,-1.021114 z m 5.4960077,-3.069499 c 0.179267,-0.118644 0.341107,-0.293778 0.426144,-0.46115 l 0.0736,-0.144853 V 7.9997976 4.6962094 L 11.94206,4.5669147 C 11.905971,4.4958025 11.841959,4.3961612 11.799811,4.3454894 11.678508,4.1996551 11.419427,4.0171129 11.35694,4.0334538 c -0.03058,0.008 -0.0556,0.00201 -0.0556,-0.013296 0,-0.016467 -1.3487433,-0.027835 -3.3025675,-0.027835 H 4.6962094 L 4.5669147,4.0579397 C 4.4958025,4.094029 4.3961612,4.1580413 4.3454894,4.2001895 4.1996551,4.3214922 4.0171129,4.5805727 4.0334538,4.6430597 c 0.008,0.030578 0.00201,0.055597 -0.013296,0.055597 -0.016467,0 -0.027835,1.3482509 -0.027835,3.3013436 0,1.9530927 0.011368,3.3013437 0.027835,3.3013437 0.015309,0 0.021323,0.0249 0.013364,0.05534 -0.019966,0.07635 0.2231376,0.398724 0.3849529,0.510481 0.097627,0.06743 0.1812813,0.09511 0.3356287,0.111077 0.1130743,0.0117 1.6507498,0.01965 3.4170565,0.01768 l 3.2114671,-0.0036 z"
     id="path254" />
  <path
     style="fill:#999999;stroke-width:0.0307102"
     d="M 5.0057582,8 V 5.0057582 H 8 10.994242 V 8 10.994242 H 8 5.0057582 Z"
     id="path256" />
</svg>
