<?xml version="1.0" encoding="UTF-8" standalone="no"?>
<svg
   width="16"
   height="16.016"
   version="1.1"
   id="svg4675"
   xmlns:xlink="http://www.w3.org/1999/xlink"
   xmlns="http://www.w3.org/2000/svg"
   xmlns:svg="http://www.w3.org/2000/svg">
  <defs
     id="defs4679">
    <linearGradient
       id="linearGradient3031">
      <stop
         style="stop-color:#ffffff;stop-opacity:1;"
         offset="0"
         id="stop3029" />
    </linearGradient>
    <linearGradient
       xlink:href="#linearGradient3031"
       id="linearGradient3033"
       x1="-0.23810679"
       y1="8"
       x2="16.238132"
       y2="8"
       gradientUnits="userSpaceOnUse" />
    <linearGradient
       xlink:href="#linearGradient3031"
       id="linearGradient6281"
       gradientUnits="userSpaceOnUse"
       x1="-0.23810679"
       y1="8"
       x2="16.238132"
       y2="8" />
    <linearGradient
       xlink:href="#linearGradient3031"
       id="linearGradient6283"
       gradientUnits="userSpaceOnUse"
       x1="-0.23810679"
       y1="8"
       x2="16.238132"
       y2="8" />
  </defs>
  <g
     fill="#474747"
     id="g4673">
    <path
       d="M0 5.015h2.484l2.97-3H6v12h-.475l-3.04-3H0z"
       color="#bebebe"
       overflow="visible"
       id="path4667" />
    <path
       d="M15.031.016l-2 .737v14.525l2 .738zm-3 1.106l-2 .737v12.313l2 .738zM9 2.24l-2 .74v10.07l2 .742z"
       font-family="sans-serif"
       font-weight="400"
       overflow="visible"
       style="font-feature-settings:normal;font-variant-alternates:normal;font-variant-caps:normal;font-variant-ligatures:normal;font-variant-numeric:normal;font-variant-position:normal;isolation:auto;mix-blend-mode:normal;shape-padding:0;text-decoration-color:#000;text-decoration-line:none;text-decoration-style:solid;text-indent:0;text-orientation:mixed;text-transform:none"
       id="path4669" />
    <path
       d="M15.031.016h-2v4.422l2-.364zm-3 0h-2v4.966l2-.363zM9 .016L7 0v5.535l2-.365zm-2 10.48v5.52h2V10.86zm3.031.553v4.967h2v-4.604zm3 .545v4.422h2v-4.059z"
       font-family="sans-serif"
       font-weight="400"
       opacity=".35"
       overflow="visible"
       style="font-feature-settings:normal;font-variant-alternates:normal;font-variant-caps:normal;font-variant-ligatures:normal;font-variant-numeric:normal;font-variant-position:normal;isolation:auto;mix-blend-mode:normal;shape-padding:0;text-decoration-color:#000;text-decoration-line:none;text-decoration-style:solid;text-indent:0;text-orientation:mixed;text-transform:none"
       id="path4671" />
  </g>
  <g
     id="layer7"
     class="success"
     fill="#009909"
     transform="matrix(1,0,0,0.976554,-0.05780475,5.821869)">
    <path
       id="path6332"
       d="M 16.07655,5.006928 A 4.8579774,5.426724 0 0 1 11.220535,10.433651 4.8579774,5.426724 0 0 1 6.3605968,5.0113114 4.8579774,5.426724 0 0 1 11.212687,-0.41979201 4.8579774,5.426724 0 0 1 16.076544,4.9981611"
       class="success" />
  </g>
  <g
     fill="#2e3436"
     id="g8"
     transform="matrix(0.6,0,0,0.6,6.4637163,6.0139857)"
     style="fill:#cccccc">
    <path
       transform="translate(-112,32)"
       d="m 119,-19 v 3 h 2 v -3 z"
       font-family="sans-serif"
       font-weight="400"
       overflow="visible"
       style="font-variant-ligatures:normal;font-variant-position:normal;font-variant-caps:normal;font-variant-numeric:normal;font-variant-alternates:normal;font-feature-settings:normal;text-indent:0;text-decoration-line:none;text-decoration-style:solid;text-decoration-color:#000000;text-transform:none;text-orientation:mixed;white-space:normal;shape-padding:0;isolation:auto;mix-blend-mode:normal;fill:#cccccc"
       id="path2-3" />
    <path
       transform="translate(-112,32)"
       d="m 120,-32 c 1.662,0 3,1.338 3,3 v 5 c 0,1.662 -1.338,3 -3,3 -1.662,0 -3,-1.338 -3,-3 v -5 c 0,-1.662 1.338,-3 3,-3 z"
       id="path4-6"
       style="fill:#cccccc" />
    <path
       transform="translate(-112,32)"
       d="m 114,-26 v 2.0098 c 0,3.3066 2.6897,5.9902 6,5.9902 3.3103,0 6,-2.6837 6,-5.9902 V -26 h -1.5 v 2.0098 c 0,2.5001 -1.9933,4.4902 -4.5,4.4902 -2.5067,0 -4.5,-1.9901 -4.5,-4.4902 V -26 Z"
       font-family="sans-serif"
       font-weight="400"
       overflow="visible"
       style="font-variant-ligatures:normal;font-variant-position:normal;font-variant-caps:normal;font-variant-numeric:normal;font-variant-alternates:normal;font-feature-settings:normal;text-indent:0;text-decoration-line:none;text-decoration-style:solid;text-decoration-color:#000000;text-transform:none;text-orientation:mixed;white-space:normal;shape-padding:0;isolation:auto;mix-blend-mode:normal;fill:#cccccc"
       id="path6-7" />
  </g>
</svg>
