<?xml version="1.0" encoding="UTF-8" standalone="no"?>
<svg
   width="16"
   height="16"
   version="1.1"
   id="svg4423"
   xmlns:xlink="http://www.w3.org/1999/xlink"
   xmlns="http://www.w3.org/2000/svg"
   xmlns:svg="http://www.w3.org/2000/svg">
  <defs
     id="defs4427">
    <linearGradient
       id="linearGradient3031">
      <stop
         style="stop-color:#ffffff;stop-opacity:1;"
         offset="0"
         id="stop3029" />
    </linearGradient>
    <linearGradient
       xlink:href="#linearGradient3031"
       id="linearGradient3033"
       x1="-0.23810679"
       y1="8"
       x2="16.238132"
       y2="8"
       gradientUnits="userSpaceOnUse" />
    <linearGradient
       xlink:href="#linearGradient3031"
       id="linearGradient9548"
       gradientUnits="userSpaceOnUse"
       x1="-0.23810679"
       y1="8"
       x2="16.238132"
       y2="8" />
    <linearGradient
       xlink:href="#linearGradient3031"
       id="linearGradient9550"
       gradientUnits="userSpaceOnUse"
       x1="-0.23810679"
       y1="8"
       x2="16.238132"
       y2="8" />
  </defs>
  <g
     fill="#474747"
     id="g4421"
     transform="matrix(1,0,0,-1,0,17)">
    <path
       d="m 11,11 h 1.375 L 13.5,12.094 14.594,11 H 16 v 1.469 L 14.906,13.531 16,14.594 V 16 H 14.562 L 13.5,14.937 12.437,16 H 11 V 14.594 L 12.062,13.531 11,12.47 Z M 0,5 H 2.484 L 5.454,2 H 6 V 14 H 5.525 L 2.485,11 H 0 Z"
       color="#bebebe"
       overflow="visible"
       id="path4413" />
    <path
       d="M 11,1 V 2.48 C 12.265,4 13,5.7 13,8 c 0,0.723 -0.085,1.382 -0.229,2 h 2.034 C 14.929,9.355 15,8.686 15,8 15,5.186 14,2.828 12.414,1 Z"
       opacity="0.35"
       overflow="visible"
       id="path4415" />
    <path
       d="m 9,3 v 2 c 0.607,0.789 1,1.759 1,3 0,1.241 -0.393,2.22 -1,3 v 2 h 1 v -3 h 1.75 C 11.908,9.374 12,8.703 12,8 12,5.833 11.261,3.98 10,3 Z"
       opacity="0.35"
       overflow="visible"
       id="path4417" />
    <path
       d="M 9,8 C 9,6.743 8.688,5.784 8,5 H 7 v 6 H 8 C 8.672,10.163 9,9.258 9,8 Z"
       font-family="Sans"
       font-weight="400"
       opacity="0.35"
       overflow="visible"
       style="text-indent:0;text-decoration-line:none;text-transform:none"
       id="path4419" />
  </g>
  <g
     id="layer7"
     class="success"
     fill="#009909"
     transform="matrix(1,0,0,0.976554,-0.05780475,5.821869)">
    <path
       id="path6332"
       d="M 16.07655,5.006928 A 4.8579774,5.426724 0 0 1 11.220535,10.433651 4.8579774,5.426724 0 0 1 6.3605968,5.0113114 4.8579774,5.426724 0 0 1 11.212687,-0.41979201 4.8579774,5.426724 0 0 1 16.076544,4.9981611"
       class="success" />
  </g>
  <g
     fill="#2e3436"
     id="g8"
     transform="matrix(0.6,0,0,0.6,6.4284108,5.9726779)"
     style="fill:#cccccc">
    <path
       transform="translate(-112,32)"
       d="m 119,-19 v 3 h 2 v -3 z"
       font-family="sans-serif"
       font-weight="400"
       overflow="visible"
       style="font-variant-ligatures:normal;font-variant-position:normal;font-variant-caps:normal;font-variant-numeric:normal;font-variant-alternates:normal;font-feature-settings:normal;text-indent:0;text-decoration-line:none;text-decoration-style:solid;text-decoration-color:#000000;text-transform:none;text-orientation:mixed;white-space:normal;shape-padding:0;isolation:auto;mix-blend-mode:normal;fill:#cccccc"
       id="path2-3" />
    <path
       transform="translate(-112,32)"
       d="m 120,-32 c 1.662,0 3,1.338 3,3 v 5 c 0,1.662 -1.338,3 -3,3 -1.662,0 -3,-1.338 -3,-3 v -5 c 0,-1.662 1.338,-3 3,-3 z"
       id="path4-6"
       style="fill:#cccccc" />
    <path
       transform="translate(-112,32)"
       d="m 114,-26 v 2.0098 c 0,3.3066 2.6897,5.9902 6,5.9902 3.3103,0 6,-2.6837 6,-5.9902 V -26 h -1.5 v 2.0098 c 0,2.5001 -1.9933,4.4902 -4.5,4.4902 -2.5067,0 -4.5,-1.9901 -4.5,-4.4902 V -26 Z"
       font-family="sans-serif"
       font-weight="400"
       overflow="visible"
       style="font-variant-ligatures:normal;font-variant-position:normal;font-variant-caps:normal;font-variant-numeric:normal;font-variant-alternates:normal;font-feature-settings:normal;text-indent:0;text-decoration-line:none;text-decoration-style:solid;text-decoration-color:#000000;text-transform:none;text-orientation:mixed;white-space:normal;shape-padding:0;isolation:auto;mix-blend-mode:normal;fill:#cccccc"
       id="path6-7" />
  </g>
</svg>
