<?xml version="1.0" encoding="UTF-8"?>
<svg width="16" height="16" xmlns="http://www.w3.org/2000/svg">
 <g fill="#2e3436">
  <path transform="translate(-172 32)" d="m180-32c-1.662 0-3 1.338-3 3v5c0 1.662 1.338 3 3 3 0.7733 0 1.4691-0.29821 2-0.77539v-0.22461h0.22461c0.47718-0.53088 0.77539-1.2267 0.77539-2v-5c0-1.662-1.338-3-3-3zm0 2c0.554 0 1 0.446 1 1v5c0 0.554-0.446 1-1 1s-1-0.446-1-1v-5c0-0.554 0.446-1 1-1zm-6 4v2.0098c0 2.9657 2.1654 5.4238 5 5.9004v2.0898h2v-2.0898c0.34423-0.05788 0.67819-0.14804 1-0.26172v-1.627c-0.60326 0.29708-1.2751 0.47852-2 0.47852-2.5067 0-4.5-1.9901-4.5-4.4902v-2.0098zm10.5 0v2.0098c0 0.72102-0.18244 1.3896-0.47852 1.9902h1.6289c0.22126-0.62364 0.34961-1.2908 0.34961-1.9902v-2.0098z" font-family="sans-serif" font-weight="400" opacity=".35" overflow="visible" style="font-feature-settings:normal;font-variant-alternates:normal;font-variant-caps:normal;font-variant-ligatures:normal;font-variant-numeric:normal;font-variant-position:normal;isolation:auto;mix-blend-mode:normal;shape-padding:0;text-decoration-color:#000;text-decoration-line:none;text-decoration-style:solid;text-indent:0;text-orientation:mixed;text-transform:none;white-space:normal"/>
  <path transform="translate(-172 32)" d="m183-21h1.375l1.125 1.0938 1.0938-1.0938h1.4062v1.4688l-1.0938 1.0625 1.0938 1.0625v1.4062h-1.4375l-1.0625-1.0625-1.0625 1.0625h-1.4375v-1.4062l1.0625-1.0625-1.0625-1.0625z" color="#bebebe" overflow="visible"/>
 </g>
</svg>
