<?xml version="1.0" encoding="UTF-8"?><!DOCTYPE svg PUBLIC "-//W3C//DTD SVG 1.1//EN" "http://www.w3.org/Graphics/SVG/1.1/DTD/svg11.dtd"><svg xmlns="http://www.w3.org/2000/svg" xmlns:xlink="http://www.w3.org/1999/xlink" version="1.1" width="24" height="24" viewBox="0 0 24 24" fill="#eeeeee"><path d="M9 2a3 3 0 013 3v6a3 3 0 01-6 0V5a3 3 0 013-3m7 9a7 7 0 01-6 6.93V21H8v-3.07A7 7 0 012 11h2a5 5 0 1010 0h2M20.94.18l-1.4 1.4c3.12 3.13 3.12 7.3 0 10.43l1.4 1.4c3.9-3.9 3.9-9.32 0-13.23M18.11 3l-1.4 1.4c1.55 1.57 1.55 3.2 0 4.77l1.4 1.4c2.34-2.33 2.34-5.23 0-7.57z"/></svg>