<?xml version="1.0" encoding="UTF-8"?>
<svg version="1.1" xmlns="http://www.w3.org/2000/svg" width="512" height="512">
<path d="M0 0 C2.13293803 1.56874152 4.15552331 3.17000807 6.1875 4.875 C8.51494135 6.6285517 9.63250666 7.19933742 12.46875 7.59375 C14.83159704 7.08416576 14.83159704 7.08416576 17.30078125 6.1171875 C18.72982788 5.60877319 18.72982788 5.60877319 20.18774414 5.09008789 C21.20860107 4.72004639 22.22945801 4.35000488 23.28125 3.96875 C39.74049661 -1.77407533 57.16029884 -6.461222 74.69140625 -6.64453125 C75.46543289 -6.65437042 76.23945953 -6.66420959 77.03694153 -6.67434692 C93.87097299 -6.84418251 110.09688822 -6.80836094 126.46875 -2.40625 C127.48694824 -2.13296875 128.50514648 -1.8596875 129.55419922 -1.578125 C134.76236838 -0.15281359 139.94789738 1.3367922 145.11328125 2.91015625 C146.01900879 3.18359863 146.92473633 3.45704102 147.85791016 3.73876953 C150.46875 4.59375 150.46875 4.59375 152.91943359 5.61669922 C157.21329846 7.36672358 158.65002123 7.93020184 163.109375 6.09765625 C164.25226619 5.29494249 165.37255814 4.45914764 166.46875 3.59375 C167.01080078 3.19913574 167.55285156 2.80452148 168.11132812 2.39794922 C169.83365637 1.13365455 171.52473196 -0.16682894 173.21875 -1.46875 C181.84287609 -7.92837239 191.01826582 -13.25561629 200.46875 -18.40625 C201.17708984 -18.79474121 201.88542969 -19.18323242 202.61523438 -19.58349609 C217.76328214 -27.80127604 236.12922107 -35.84889603 253.59375 -31.28125 C260.93804996 -28.80240465 266.51695449 -24.58101983 270.375 -17.81640625 C285.33355197 15.14583149 274.50733253 57.15127198 266.16137695 90.47363281 C264.31403715 97.86813568 264.31403715 97.86813568 266.12109375 104.99609375 C266.48525391 105.74052734 266.84941406 106.48496094 267.22460938 107.25195312 C267.80952148 108.38020508 267.80952148 108.38020508 268.40625 109.53125 C268.79232422 110.31048828 269.17839844 111.08972656 269.57617188 111.89257812 C270.52449715 113.80093639 271.49447955 115.69850617 272.46875 117.59375 C273.13777344 117.57054687 273.80679687 117.54734375 274.49609375 117.5234375 C280.86668403 117.40372171 287.08368236 117.74808532 293.40625 118.46875 C294.1273999 118.54722168 294.8485498 118.62569336 295.59155273 118.70654297 C300.29267873 119.27820516 304.24632018 120.2143108 308.28125 122.71875 C310.24453496 125.81867363 309.97046986 129.08877743 309.46875 132.59375 C308.40625 135.03125 308.40625 135.03125 306.46875 136.59375 C300.27692807 138.04289981 294.75015073 137.15518484 288.53125 136.15625 C287.56123047 136.00865234 286.59121094 135.86105469 285.59179688 135.70898438 C283.21591737 135.34616534 280.84185477 134.97422493 278.46875 134.59375 C278.73429687 135.57472656 278.99984375 136.55570313 279.2734375 137.56640625 C283.63532631 154.04717233 284.78794794 169.60014253 284.46875 186.59375 C285.055354 186.76970703 285.64195801 186.94566406 286.24633789 187.12695312 C290.95284122 188.60463795 294.88180333 190.15751371 298.90625 193.09375 C299.72996094 193.6815625 300.55367188 194.269375 301.40234375 194.875 C303.46875 196.59375 303.46875 196.59375 305.46875 199.59375 C305.69564928 203.34515146 305.23601505 206.61165073 302.90625 209.59375 C299.29120737 211.07684441 296.2473019 211.41990796 292.46875 210.59375 C288.94329102 208.86115264 285.70168732 206.81970684 282.46875 204.59375 C282.18902344 205.52574219 281.90929687 206.45773437 281.62109375 207.41796875 C273.69239499 232.9877689 256.80447568 254.60689672 235.46875 270.59375 C234.50710938 271.35558594 233.54546875 272.11742187 232.5546875 272.90234375 C183.37057022 310.88209042 110.69802228 321.29651585 50.46875 313.59375 C9.97941494 307.99065117 -32.04329225 296.55713125 -64.53125 270.59375 C-65.1092334 270.13387695 -65.6872168 269.67400391 -66.28271484 269.20019531 C-87.22561154 252.3385663 -104.71432671 231.08407472 -111.53125 204.59375 C-112.1603125 205.026875 -112.789375 205.46 -113.4375 205.90625 C-119.09828581 209.58917089 -122.75085574 211.64588014 -129.53125 210.59375 C-131.96875 209.59375 -131.96875 209.59375 -133.53125 207.59375 C-134.43318423 204.87026234 -134.94873455 202.44308208 -134.53125 199.59375 C-131.86351876 195.46100569 -128.83100165 193.25893001 -124.59375 190.84375 C-123.57410156 190.25078125 -122.55445313 189.6578125 -121.50390625 189.046875 C-118.76749743 187.70923494 -116.52924374 187.0133587 -113.53125 186.59375 C-113.58345703 184.66789062 -113.58345703 184.66789062 -113.63671875 182.703125 C-113.94288099 166.23316628 -112.46907303 150.37963945 -107.53125 134.59375 C-108.13074463 134.68986572 -108.73023926 134.78598145 -109.34790039 134.88500977 C-112.09496602 135.31931483 -114.84421397 135.73788206 -117.59375 136.15625 C-118.53669922 136.30771484 -119.47964844 136.45917969 -120.45117188 136.61523438 C-125.77008525 137.41214474 -130.26987425 137.82513581 -135.53125 136.59375 C-137.77043419 134.7879563 -138.38070187 133.51021172 -138.84375 130.69140625 C-139.04779533 127.26727059 -138.89046096 125.18722898 -137.09375 122.21875 C-127.64165677 116.22473966 -112.41541686 117.48959529 -101.53125 117.59375 C-100.11703269 115.00506467 -98.75256818 112.4050153 -97.40625 109.78125 C-97.00792969 109.06259766 -96.60960937 108.34394531 -96.19921875 107.60351562 C-92.9224374 101.07869662 -93.67925952 96.4944069 -95.53125 89.59375 C-95.75506348 88.68149658 -95.97887695 87.76924316 -96.20947266 86.8293457 C-96.67571772 84.93842622 -97.15226059 83.05002109 -97.63818359 81.1640625 C-102.85579807 60.73144639 -105.86550776 40.42616344 -106.03125 19.34375 C-106.04178406 18.67013428 -106.05231812 17.99651855 -106.06317139 17.30249023 C-106.23791584 2.93735135 -104.02495951 -13.79732863 -94.1484375 -25.0234375 C-67.39356327 -47.90079373 -21.93919314 -15.9455244 0 0 Z M-81.53125 -12.40625 C-89.14286234 -3.92473911 -89.05763568 8.95441193 -88.96875 19.71875 C-88.96117676 21.02481201 -88.95360352 22.33087402 -88.94580078 23.67651367 C-88.65329601 45.9937138 -83.5100543 67.44465578 -77.92041016 88.94311523 C-74.87260983 100.80825373 -78.06886056 108.9420906 -83.53125 119.59375 C-83.53125 120.25375 -83.53125 120.91375 -83.53125 121.59375 C-82.60566284 121.87871338 -82.60566284 121.87871338 -81.66137695 122.16943359 C-35.15932604 136.65163594 -35.15932604 136.65163594 -26.53125 149.59375 C-26.74918103 155.69581897 -26.74918103 155.69581897 -29.21875 158.53125 C-32.2895561 159.94216091 -34.15171213 159.91977601 -37.53125 159.59375 C-40.14528429 158.32833933 -42.50812664 157.04147386 -44.96875 155.53125 C-46.39085349 154.69775624 -47.81539261 153.86840592 -49.2421875 153.04296875 C-49.95858398 152.62837402 -50.67498047 152.2137793 -51.41308594 151.78662109 C-63.40330237 145.03417786 -76.81471797 139.2383342 -90.53125 137.59375 C-91.35104667 140.9253314 -92.16073418 144.25929352 -92.96875 147.59375 C-93.19884766 148.52832031 -93.42894531 149.46289062 -93.66601562 150.42578125 C-95.58868661 158.39511314 -96.67295706 165.85621557 -96.59375 174.09375 C-96.58472656 175.3209375 -96.57570312 176.548125 -96.56640625 177.8125 C-96.55480469 178.7303125 -96.54320312 179.648125 -96.53125 180.59375 C-95.7122522 180.45743164 -95.7122522 180.45743164 -94.87670898 180.31835938 C-83.94497071 178.54619771 -73.18091827 177.29565711 -62.09375 177.28125 C-61.14234131 177.27609375 -60.19093262 177.2709375 -59.21069336 177.265625 C-53.9546121 177.31811551 -49.47608615 177.76330466 -44.53125 179.59375 C-43.03125 181.28125 -43.03125 181.28125 -42.53125 183.59375 C-42.97569444 190.03819444 -42.97569444 190.03819444 -45.53125 192.59375 C-47.93530273 192.86499023 -47.93530273 192.86499023 -50.96484375 192.90234375 C-52.08052734 192.92554688 -53.19621094 192.94875 -54.34570312 192.97265625 C-55.54130859 192.99199219 -56.73691406 193.01132812 -57.96875 193.03125 C-70.12605189 193.34148418 -82.88116713 193.71038904 -94.53125 197.59375 C-93.32832065 218.44452546 -76.27969929 237.19953421 -61.53125 250.59375 C-53.36564016 257.42789734 -44.76368752 263.27025094 -35.53125 268.59375 C-33.89349609 269.56248047 -33.89349609 269.56248047 -32.22265625 270.55078125 C22.35131275 301.8918984 93.98189692 305.30161622 153.78613281 289.72998047 C185.84003611 280.90510222 214.13926783 267.4487181 238.46875 244.59375 C239.35240234 243.80677734 239.35240234 243.80677734 240.25390625 243.00390625 C251.82725875 232.25135889 261.71742726 216.9580192 265.46875 201.59375 C265.46875 200.27375 265.46875 198.95375 265.46875 197.59375 C263.30307456 197.11012304 261.13615259 196.63207683 258.96875 196.15625 C257.7621875 195.88941406 256.555625 195.62257813 255.3125 195.34765625 C249.08813961 194.12682134 243.22010286 193.54630234 236.88671875 193.453125 C235.70787109 193.43378906 234.52902344 193.41445313 233.31445312 193.39453125 C230.85628903 193.36040831 228.39785269 193.34242746 225.93945312 193.33984375 C224.76705078 193.31535156 223.59464844 193.29085937 222.38671875 193.265625 C221.32219482 193.2562793 220.2576709 193.24693359 219.16088867 193.23730469 C216.46875 192.59375 216.46875 192.59375 214.59106445 190.28222656 C213.07560567 186.65198246 213.47502216 184.35571969 214.46875 180.59375 C227.58205742 171.85154505 252.94342827 178.17607803 267.46875 180.59375 C268.10775945 165.87286555 265.8363014 151.65664599 261.46875 137.59375 C242.63787399 140.58277794 224.2673091 149.06137727 208.46875 159.59375 C204.41394599 160.21078539 202.92505023 159.91413101 199.53125 157.53125 C197.46875 154.59375 197.46875 154.59375 197.15625 151.15625 C199.87257346 143.78337205 208.59387047 140.14467452 215.28125 136.65625 C216.09585693 136.22948975 216.91046387 135.80272949 217.74975586 135.36303711 C229.42990868 129.39925161 241.850565 125.11029336 254.46875 121.59375 C252.84986505 116.48745402 250.7558122 111.73453927 248.4921875 106.88671875 C245.76399771 98.1086119 248.37596418 90.08706702 250.71875 81.46875 C253.99603556 68.93201605 256.55993739 56.40773917 258.46875 43.59375 C258.66210938 42.3665625 258.85546875 41.139375 259.0546875 39.875 C259.80583484 33.56409191 259.69376697 27.18944057 259.71875 20.84375 C259.739375 19.54953125 259.76 18.2553125 259.78125 16.921875 C259.82166871 6.89803585 259.51532705 -4.55434986 252.46875 -12.40625 C247.93984116 -15.83054693 244.03480427 -15.73309356 238.62890625 -15.02734375 C215.91697969 -10.56356585 196.29644511 3.31950346 177.78369141 16.50634766 C176.9076123 17.12944824 176.0315332 17.75254883 175.12890625 18.39453125 C174.34265869 18.95954346 173.55641113 19.52455566 172.74633789 20.10668945 C166.86832002 23.94450774 161.23738838 25.20427605 154.30078125 24.25390625 C149.50701531 23.13646288 144.96187965 21.41230953 140.375 19.65234375 C137.67105405 18.47966666 137.67105405 18.47966666 135.46875 18.59375 C135.44893066 19.5724707 135.42911133 20.55119141 135.40869141 21.55957031 C135.33250376 25.19768597 135.24380705 28.83540853 135.15136719 32.47314453 C135.11313171 34.04630765 135.07826934 35.61955658 135.046875 37.19287109 C135.00110578 39.45701723 134.94313239 41.72057547 134.8828125 43.984375 C134.87126129 44.68556458 134.85971008 45.38675415 134.84780884 46.10919189 C134.73915027 49.7205336 134.55916737 52.57559965 132.46875 55.59375 C129.35325128 57.15149936 125.8643112 57.15855622 122.46875 56.59375 C120.5438391 55.06260559 119.58655993 54.14902243 119.07002258 51.71443176 C119.05891953 51.01049789 119.04781647 50.30656403 119.03637695 49.58129883 C119.01658279 48.78069534 118.99678864 47.98009186 118.97639465 47.15522766 C118.96680977 45.86602669 118.96680977 45.86602669 118.95703125 44.55078125 C118.93908005 43.6671843 118.92112885 42.78358734 118.90263367 41.87321472 C118.84845004 39.0509417 118.81460939 36.22883856 118.78125 33.40625 C118.74808401 31.49281486 118.71359502 29.57940216 118.67773438 27.66601562 C118.59271901 22.97538285 118.52594638 18.28480116 118.46875 13.59375 C116.36824367 13.07858932 114.26304772 12.58254517 112.15625 12.09375 C110.98449219 11.8153125 109.81273437 11.536875 108.60546875 11.25 C103.59497659 10.26960306 98.55153423 10.4682635 93.46875 10.59375 C93.46288376 11.50163773 93.45701752 12.40952545 93.45097351 13.34492493 C93.39310822 21.89424528 93.3210672 30.44330267 93.23303509 38.99236774 C93.18827682 43.38771551 93.14903294 47.78296941 93.12231445 52.1784668 C93.0963356 56.419116 93.05597224 60.65940505 93.00556374 64.89983177 C92.9888582 66.51892816 92.97736692 68.13808689 92.97113609 69.75725746 C92.96153469 72.02255783 92.93352514 74.28692914 92.90112305 76.55200195 C92.88446846 78.48726494 92.88446846 78.48726494 92.86747742 80.46162415 C92.46875 83.59375 92.46875 83.59375 91.09016418 85.483078 C88.84563117 87.02058766 87.18247932 87.39991219 84.46875 87.59375 C81.71875 86.78125 81.71875 86.78125 79.46875 85.59375 C77.99125997 82.63876993 78.30309663 79.96371231 78.26342773 76.66552734 C78.25352814 75.95322464 78.24362854 75.24092194 78.23342896 74.5070343 C78.20179142 72.14795274 78.1770477 69.78885103 78.15234375 67.4296875 C78.13177616 65.79586253 78.11077974 64.16204292 78.08937073 62.52822876 C78.03412987 58.22432784 77.9847295 53.92037874 77.93652344 49.61639404 C77.8863231 45.22598982 77.83062939 40.83565571 77.77539062 36.4453125 C77.66778442 27.82818425 77.56634494 19.21099742 77.46875 10.59375 C70.98871262 10.43376736 65.09446187 10.59358084 58.78125 12.09375 C57.58113281 12.3721875 56.38101563 12.650625 55.14453125 12.9375 C54.26152344 13.1540625 53.37851563 13.370625 52.46875 13.59375 C52.45416748 14.7897583 52.43958496 15.9857666 52.42456055 17.21801758 C52.36662414 21.65191675 52.28939126 26.08530558 52.20629883 30.51879883 C52.1730275 32.43831098 52.14500246 34.35792148 52.12231445 36.27758789 C52.08880879 39.03574572 52.03649597 41.79300043 51.98046875 44.55078125 C51.97407883 45.41024857 51.9676889 46.26971588 51.96110535 47.15522766 C51.93141411 48.35613289 51.93141411 48.35613289 51.90112305 49.58129883 C51.88446846 50.63719963 51.88446846 50.63719963 51.86747742 51.71443176 C51.35111654 54.1481907 50.39041363 55.0604328 48.46875 56.59375 C46.53125 56.95703125 46.53125 56.95703125 44.46875 56.90625 C43.4478125 56.90044922 43.4478125 56.90044922 42.40625 56.89453125 C40.46875 56.59375 40.46875 56.59375 37.46875 54.59375 C36.28873451 51.05370354 36.23962654 47.7710244 36.15234375 44.08203125 C36.13156265 43.35380661 36.11078156 42.62558197 36.08937073 41.87528992 C36.02406254 39.55237125 35.96507763 37.22934094 35.90625 34.90625 C35.86304695 33.33006665 35.81943208 31.75389452 35.77539062 30.17773438 C35.6684004 26.31652025 35.56708039 22.45519397 35.46875 18.59375 C33.74029253 19.055076 32.0125722 19.51916426 30.28515625 19.984375 C29.32295166 20.24250977 28.36074707 20.50064453 27.36938477 20.76660156 C24.67446313 21.5350886 22.04787641 22.41090485 19.40625 23.34375 C13.32696784 25.13968328 7.95437754 25.16343657 2.109375 22.53125 C-2.2048323 20.04987587 -6.18295893 17.13143712 -10.20385742 14.20605469 C-24.06282545 4.13330982 -38.69901644 -4.79008377 -54.53125 -11.40625 C-55.35625 -11.75300781 -56.18125 -12.09976563 -57.03125 -12.45703125 C-64.60341753 -15.3101158 -74.70289952 -17.69822162 -81.53125 -12.40625 Z " fill="#FFFFFF" transform="translate(170.53125,114.40625)"/>
<path d="M0 0 C0.72957413 -0.00619858 1.45914825 -0.01239716 2.21083069 -0.01878357 C3.74625319 -0.02585329 5.28175281 -0.02275758 6.81713867 -0.01000977 C9.1510295 0.00385204 11.48090053 -0.03024149 13.81445312 -0.06835938 C26.24527612 -0.13249382 26.24527612 -0.13249382 30.66796875 2.93359375 C34.82394545 7.21666454 36.37301763 10.58167228 36.66015625 16.50390625 C36.37678791 24.39099163 32.48743378 28.60935916 26.96484375 33.859375 C25.31432306 35.47658922 23.85977568 37.14439282 22.41015625 38.94140625 C20.22265625 41.56640625 20.22265625 41.56640625 18.22265625 42.56640625 C17.50264873 51.77793103 16.93702297 59.07978803 23.14453125 66.57421875 C29.50534088 72.67198738 35.60102446 75.0179429 44.375 74.90234375 C51.57487905 74.0529753 56.16842535 69.0464872 60.62109375 63.69921875 C62.68086172 60.95621067 64.47421612 58.10720116 66.1796875 55.1328125 C67.22265625 53.56640625 67.22265625 53.56640625 69.22265625 52.56640625 C76.27478895 51.99768587 76.27478895 51.99768587 79.72265625 54.06640625 C81.87635389 57.65590231 82.11129785 60.57096342 81.22265625 64.56640625 C75.86634217 76.93645989 65.83686973 86.66147361 53.43359375 91.69921875 C43.40484953 94.40771171 31.34490469 93.59533808 22.22265625 88.56640625 C17.83421886 85.62294215 13.90486636 82.35217852 10.22265625 78.56640625 C7.39782917 79.85653291 5.34007505 81.24353759 3.09765625 83.37890625 C-6.69238429 92.00598302 -17.19662668 93.29464289 -29.73925781 92.74121094 C-39.81761215 91.8768001 -47.92829457 84.84631486 -54.52734375 77.69140625 C-58.78685543 72.54821965 -62.95703841 67.13164217 -63.33984375 60.25390625 C-62.77734375 56.56640625 -62.77734375 56.56640625 -61.27734375 54.06640625 C-58.27245891 52.26347534 -56.22062257 52.08895748 -52.77734375 52.03515625 C-48.23532677 53.24162951 -45.89771918 57.71370691 -43.46484375 61.44140625 C-39.59510612 67.07162538 -35.21493577 71.93446255 -28.77734375 74.56640625 C-21.52041301 75.53549949 -15.87298213 74.58366908 -9.77734375 70.56640625 C-8.89046875 69.98890625 -8.00359375 69.41140625 -7.08984375 68.81640625 C-1.27975476 63.16334669 0.70407427 58.61099533 0.91015625 50.37890625 C0.94149658 49.68958008 0.97283691 49.00025391 1.00512695 48.29003906 C1.04553653 45.97196344 1.04553653 45.97196344 0.22265625 42.56640625 C-2.52669429 39.75357717 -2.52669429 39.75357717 -5.77734375 37.56640625 C-7.02235958 36.2672593 -8.23632243 34.93689576 -9.40234375 33.56640625 C-9.985 32.88191406 -10.56765625 32.19742187 -11.16796875 31.4921875 C-11.6990625 30.85667969 -12.23015625 30.22117187 -12.77734375 29.56640625 C-13.56109375 28.63828125 -14.34484375 27.71015625 -15.15234375 26.75390625 C-18.55442801 22.17417744 -18.36840513 17.04413005 -17.77734375 11.56640625 C-14.98747227 3.11708119 -8.44347143 -0.06062484 0 0 Z " fill="#FFFFFF" transform="translate(246.77734375,261.43359375)"/>
<path d="M0 0 C5.30446385 3.91562619 11.31114214 8.92945014 12.87890625 15.6015625 C13.06863469 18.90038921 12.56952234 21.13282735 10.875 23.95703125 C7.39700772 26.04382662 4.26609775 26.35976593 0.375 25.45703125 C-2.3125 23.26953125 -2.3125 23.26953125 -4.625 20.45703125 C-9.62760247 15.18772675 -9.62760247 15.18772675 -16.359375 13.0859375 C-23.3884267 12.93115268 -28.34971417 13.55474543 -33.625 18.45703125 C-35.43296103 21.02313791 -35.43296103 21.02313791 -36.625 23.45703125 C-40.31830732 25.91923613 -43.3386488 26.12973828 -47.625 25.45703125 C-50.125 23.95703125 -50.125 23.95703125 -51.625 21.45703125 C-52.46661558 16.40733777 -52.1224593 13.60484891 -49.1875 9.39453125 C-36.42527472 -5.71238193 -17.39978619 -10.22755289 0 0 Z " fill="#FFFFFF" transform="translate(347.625,214.54296875)"/>
<path d="M0 0 C5.30446385 3.91562619 11.31114214 8.92945014 12.87890625 15.6015625 C13.06863469 18.90038921 12.56952234 21.13282735 10.875 23.95703125 C7.39700772 26.04382662 4.26609775 26.35976593 0.375 25.45703125 C-2.3125 23.26953125 -2.3125 23.26953125 -4.625 20.45703125 C-9.62760247 15.18772675 -9.62760247 15.18772675 -16.359375 13.0859375 C-23.3884267 12.93115268 -28.34971417 13.55474543 -33.625 18.45703125 C-35.43296103 21.02313791 -35.43296103 21.02313791 -36.625 23.45703125 C-40.31830732 25.91923613 -43.3386488 26.12973828 -47.625 25.45703125 C-50.125 23.95703125 -50.125 23.95703125 -51.625 21.45703125 C-52.46661558 16.40733777 -52.1224593 13.60484891 -49.1875 9.39453125 C-36.42527472 -5.71238193 -17.39978619 -10.22755289 0 0 Z " fill="#FFFFFF" transform="translate(203.625,214.54296875)"/>
</svg>
