<?xml version="1.0" encoding="UTF-8"?>
<svg version="1.1" xmlns="http://www.w3.org/2000/svg" width="512" height="512">
<path d="M0 0 C0.62793457 0.4530249 1.25586914 0.9060498 1.90283203 1.37280273 C3.11793097 2.25287113 4.32883969 3.13876576 5.53466797 4.03149414 C8.70459312 6.34314798 11.57446553 8.2277202 15.33984375 9.35546875 C17.80707354 8.99234456 17.80707354 8.99234456 20.26953125 7.9765625 C21.21900635 7.63439697 22.16848145 7.29223145 23.14672852 6.93969727 C24.15920654 6.56127686 25.17168457 6.18285645 26.21484375 5.79296875 C34.69488925 2.78505323 43.09432819 0.26998764 51.90234375 -1.58203125 C52.8464209 -1.78062744 53.79049805 -1.97922363 54.76318359 -2.18383789 C62.36868696 -3.73142949 69.78512057 -4.80149045 77.5625 -4.8828125 C78.33652664 -4.89265167 79.11055328 -4.90249084 79.90803528 -4.91262817 C96.74206674 -5.08246376 112.96798197 -5.04664219 129.33984375 -0.64453125 C130.35804199 -0.37125 131.37624023 -0.09796875 132.42529297 0.18359375 C137.63346213 1.60890516 142.81899113 3.09851095 147.984375 4.671875 C148.89010254 4.94531738 149.79583008 5.21875977 150.72900391 5.50048828 C153.33984375 6.35546875 153.33984375 6.35546875 155.79052734 7.37841797 C160.08439221 9.12844233 161.52111498 9.69192059 165.98046875 7.859375 C167.12335994 7.05666124 168.24365189 6.22086639 169.33984375 5.35546875 C169.88189453 4.96085449 170.42394531 4.56624023 170.98242188 4.15966797 C172.70475012 2.8953733 174.39582571 1.59488981 176.08984375 0.29296875 C184.71396984 -6.16665364 193.88935957 -11.49389754 203.33984375 -16.64453125 C204.04818359 -17.03302246 204.75652344 -17.42151367 205.48632812 -17.82177734 C220.64313909 -26.04431131 238.94054871 -34.07245327 256.40234375 -29.51953125 C263.78325243 -27.05540801 269.37208937 -22.84728303 273.24609375 -16.0546875 C288.20464572 16.90755024 277.37842628 58.91299073 269.0324707 92.23535156 C267.1851309 99.62985443 267.1851309 99.62985443 268.9921875 106.7578125 C269.35634766 107.50224609 269.72050781 108.24667969 270.09570312 109.01367188 C270.68061523 110.14192383 270.68061523 110.14192383 271.27734375 111.29296875 C271.66341797 112.07220703 272.04949219 112.85144531 272.44726562 113.65429688 C273.3955909 115.56265514 274.3655733 117.46022492 275.33984375 119.35546875 C276.00886719 119.33226562 276.67789062 119.3090625 277.3671875 119.28515625 C283.73777778 119.16544046 289.95477611 119.50980407 296.27734375 120.23046875 C296.99849365 120.30894043 297.71964355 120.38741211 298.46264648 120.46826172 C303.16377248 121.03992391 307.11741393 121.97602955 311.15234375 124.48046875 C313.11562871 127.58039238 312.84156361 130.85049618 312.33984375 134.35546875 C311.27734375 136.79296875 311.27734375 136.79296875 309.33984375 138.35546875 C304.19180379 139.42984231 299.88883463 139.22409971 294.71484375 138.41796875 C290.53747594 137.77822987 286.56925586 137.21772928 282.33984375 137.35546875 C282.60796875 138.59296875 282.87609375 139.83046875 283.15234375 141.10546875 C286.26065393 157.00481075 287.77947741 172.13787146 287.33984375 188.35546875 C288.37625 188.61585938 289.41265625 188.87625 290.48046875 189.14453125 C294.06453519 190.17138614 296.94716512 191.69749303 300.08984375 193.73046875 C301.47429687 194.60832031 301.47429687 194.60832031 302.88671875 195.50390625 C306.32386015 198.09818176 308.11147706 200.01381444 308.83984375 204.29296875 C308.33984375 207.35546875 308.33984375 207.35546875 306.33984375 210.23046875 C303.28094295 212.39719015 301.37155384 213.1382978 297.609375 212.9296875 C293.0250738 211.76980406 289.19584878 209.01042304 285.33984375 206.35546875 C285.07171875 207.26425781 284.80359375 208.17304688 284.52734375 209.109375 C273.09892185 245.76303077 244.38210407 271.89005895 211.21484375 289.48046875 C147.90681701 322.1766002 69.78394385 325.38795937 2.33984375 304.35546875 C1.09895996 303.97334229 1.09895996 303.97334229 -0.16699219 303.58349609 C-25.2282492 295.73031241 -48.89503961 283.78309405 -68.66015625 266.35546875 C-69.645 265.50339844 -70.62984375 264.65132813 -71.64453125 263.7734375 C-89.11062271 248.42226129 -102.62798039 228.96386769 -108.66015625 206.35546875 C-109.28921875 206.78859375 -109.91828125 207.22171875 -110.56640625 207.66796875 C-116.1828177 211.32201957 -119.92620354 213.61095146 -126.66015625 212.35546875 C-130.10667951 209.91418144 -131.44071914 208.52580001 -132.22265625 204.35546875 C-131.51054897 200.55756326 -130.31655129 199.16487215 -127.66015625 196.35546875 C-125.22036774 194.70561033 -122.66208698 193.3690152 -120.03515625 192.04296875 C-119.01421875 191.50446289 -119.01421875 191.50446289 -117.97265625 190.95507812 C-112.9615997 188.35546875 -112.9615997 188.35546875 -110.66015625 188.35546875 C-110.71236328 186.42960937 -110.71236328 186.42960937 -110.765625 184.46484375 C-111.06373649 168.34377361 -109.07027511 153.09447887 -105.66015625 137.35546875 C-107.97282029 137.4986772 -110.2852806 137.6451768 -112.59765625 137.79296875 C-113.28263184 137.83518555 -113.96760742 137.87740234 -114.67333984 137.92089844 C-118.41313285 138.16274486 -122.08295697 138.5334821 -125.78515625 139.10546875 C-129.96300338 139.37500727 -131.49731753 139.02411392 -134.66015625 136.35546875 C-136.26519431 133.14539264 -136.12999401 129.83779567 -135.66015625 126.35546875 C-133.59915222 122.95033165 -131.81384308 122.40581444 -128.03515625 121.16796875 C-118.49021433 119.36733697 -108.35126005 119.26273091 -98.66015625 119.35546875 C-97.24593894 116.76678342 -95.88147443 114.16673405 -94.53515625 111.54296875 C-94.13683594 110.82431641 -93.73851562 110.10566406 -93.328125 109.36523438 C-90.05134365 102.84041537 -90.80816577 98.25612565 -92.66015625 91.35546875 C-92.88396973 90.44321533 -93.1077832 89.53096191 -93.33837891 88.59106445 C-93.80462397 86.70014497 -94.28116684 84.81173984 -94.76708984 82.92578125 C-99.98470432 62.49316514 -102.99441401 42.18788219 -103.16015625 21.10546875 C-103.17069031 20.43185303 -103.18122437 19.7582373 -103.19207764 19.06420898 C-103.36682209 4.6990701 -101.15386576 -12.03560988 -91.27734375 -23.26171875 C-65.18214417 -45.57500535 -21.932823 -15.86907592 0 0 Z M-79.67211914 -9.43066406 C-86.01513105 -0.54125575 -86.3140457 10.507563 -86.16015625 21.04296875 C-86.15461731 21.7108844 -86.14907837 22.37880005 -86.14337158 23.06695557 C-85.9205309 46.23621514 -80.87307577 68.36529202 -75.05151367 90.68945312 C-72.65032306 100.01387898 -73.33838544 105.65265357 -77.37109375 114.4609375 C-78.67113921 117.38013049 -79.69497869 120.31110028 -80.66015625 123.35546875 C-79.73456909 123.64043213 -79.73456909 123.64043213 -78.7902832 123.93115234 C-67.31656463 127.50442945 -56.08068023 131.29640808 -45.22265625 136.48046875 C-44.39096924 136.87540527 -43.55928223 137.2703418 -42.70239258 137.67724609 C-37.66994758 140.15044971 -33.06773757 142.97821682 -28.48803711 146.21435547 C-26.73653712 147.53198907 -26.73653712 147.53198907 -24.66015625 147.35546875 C-23.99392585 150.38318909 -23.54590267 153.24984861 -23.66015625 156.35546875 C-25.72265625 159.41796875 -25.72265625 159.41796875 -28.66015625 161.35546875 C-34.1103509 162.10721974 -37.59707169 160.05523229 -42.09765625 157.29296875 C-43.51975974 156.45947499 -44.94429886 155.63012467 -46.37109375 154.8046875 C-47.08749023 154.39009277 -47.80388672 153.97549805 -48.54199219 153.54833984 C-60.53220862 146.79589661 -73.94362422 141.00005295 -87.66015625 139.35546875 C-88.47995292 142.68705015 -89.28964043 146.02101227 -90.09765625 149.35546875 C-90.32775391 150.29003906 -90.55785156 151.22460938 -90.79492188 152.1875 C-92.71759286 160.15683189 -93.80186331 167.61793432 -93.72265625 175.85546875 C-93.71363281 177.08265625 -93.70460937 178.30984375 -93.6953125 179.57421875 C-93.68371094 180.49203125 -93.67210937 181.40984375 -93.66015625 182.35546875 C-92.84115845 182.21915039 -92.84115845 182.21915039 -92.00561523 182.08007812 C-81.07387696 180.30791646 -70.30982452 179.05737586 -59.22265625 179.04296875 C-58.27124756 179.0378125 -57.31983887 179.03265625 -56.33959961 179.02734375 C-51.08351835 179.07983426 -46.6049924 179.52502341 -41.66015625 181.35546875 C-39.38224444 183.91811954 -39.66197116 185.45891835 -39.72265625 188.91796875 C-40.66015625 192.35546875 -40.66015625 192.35546875 -42.55859375 194.0703125 C-47.13133396 195.96506254 -51.33375209 195.53906494 -56.22265625 195.35546875 C-67.99537095 195.11561239 -80.38706481 195.5977716 -91.66015625 199.35546875 C-90.48224594 219.77258079 -73.84278875 238.68805129 -59.37695312 251.87695312 C-37.61598488 270.61762771 -11.1649009 282.74979919 16.33984375 290.35546875 C17.1376123 290.57686523 17.93538086 290.79826172 18.75732422 291.02636719 C82.67506743 308.35093759 154.01398049 301.82001683 212.078125 269.15893555 C222.86743937 262.86638385 232.2521957 254.89235025 241.33984375 246.35546875 C242.22349609 245.56849609 242.22349609 245.56849609 243.125 244.765625 C254.6983525 234.01307764 264.58852101 218.71973795 268.33984375 203.35546875 C268.33984375 202.03546875 268.33984375 200.71546875 268.33984375 199.35546875 C266.1953287 198.87043619 264.0491484 198.3927647 261.90234375 197.91796875 C260.70738281 197.65113281 259.51242187 197.38429688 258.28125 197.109375 C249.00107658 195.23786163 239.94897177 195.29462384 230.515625 195.5703125 C221.1911052 195.70509531 221.1911052 195.70509531 217.33984375 192.35546875 C215.91942554 189.51463234 216.02532103 187.50069597 216.33984375 184.35546875 C218.26753739 181.71381451 219.50350373 180.56661917 222.68774414 179.76269531 C238.3694411 177.35479045 254.84146429 179.77583587 270.33984375 182.35546875 C270.9788532 167.6345843 268.70739515 153.41836474 264.33984375 139.35546875 C245.50896774 142.34449669 227.13840285 150.82309602 211.33984375 161.35546875 C207.36105157 161.96093713 205.79233874 161.65392289 202.40234375 159.41796875 C199.79756206 155.5502626 200.16949539 153.59307196 200.9453125 149.1484375 C201.14060547 148.26091797 201.14060547 148.26091797 201.33984375 147.35546875 C202.03722656 147.10023438 202.73460937 146.845 203.453125 146.58203125 C206.67202873 145.21432385 209.52787798 143.5294315 212.52734375 141.73046875 C226.71291995 133.47752553 241.62894923 127.95377934 257.33984375 123.35546875 C255.7209588 118.24917277 253.62690595 113.49625802 251.36328125 108.6484375 C248.63509146 99.87033065 251.24705793 91.84878577 253.58984375 83.23046875 C256.86712931 70.6937348 259.43103114 58.16945792 261.33984375 45.35546875 C261.53320312 44.12828125 261.7265625 42.90109375 261.92578125 41.63671875 C262.67692859 35.32581066 262.56486072 28.95115932 262.58984375 22.60546875 C262.61046875 21.31125 262.63109375 20.01703125 262.65234375 18.68359375 C262.69428898 8.28117679 262.14998669 -2.29661409 255.33984375 -10.64453125 C252.53157568 -13.45279932 250.30018622 -13.43426295 246.41796875 -13.72265625 C222.14203796 -13.10651587 198.09986786 5.3948598 179.41796875 19.19921875 C172.92332107 23.7487689 167.46802974 26.86348037 159.33984375 26.35546875 C156.01468347 25.56814113 152.83890423 24.5862493 149.61328125 23.4609375 C145.88684392 22.20248671 142.16386626 21.27207284 138.33984375 20.35546875 C138.32002441 21.33418945 138.30020508 22.31291016 138.27978516 23.32128906 C138.20359751 26.95940472 138.1149008 30.59712728 138.02246094 34.23486328 C137.98422546 35.8080264 137.94936309 37.38127533 137.91796875 38.95458984 C137.87219953 41.21873598 137.81422614 43.48229422 137.75390625 45.74609375 C137.74235504 46.44728333 137.73080383 47.1484729 137.71890259 47.87091064 C137.61024402 51.48225235 137.43026112 54.3373184 135.33984375 57.35546875 C132.22434503 58.91321811 128.73540495 58.92027497 125.33984375 58.35546875 C123.41493285 56.82432434 122.45765368 55.91074118 121.94111633 53.47615051 C121.93001328 52.77221664 121.91891022 52.06828278 121.9074707 51.34301758 C121.88767654 50.54241409 121.86788239 49.74181061 121.8474884 48.91694641 C121.83790352 47.62774544 121.83790352 47.62774544 121.828125 46.3125 C121.8101738 45.42890305 121.7922226 44.54530609 121.77372742 43.63493347 C121.71954379 40.81266045 121.68570314 37.99055731 121.65234375 35.16796875 C121.61917776 33.25453361 121.58468877 31.34112091 121.54882812 29.42773438 C121.46381276 24.7371016 121.39704013 20.04651991 121.33984375 15.35546875 C119.23933742 14.84030807 117.13414147 14.34426392 115.02734375 13.85546875 C113.85558594 13.57703125 112.68382812 13.29859375 111.4765625 13.01171875 C106.46607034 12.03132181 101.42262798 12.22998225 96.33984375 12.35546875 C96.33397751 13.26335648 96.32811127 14.1712442 96.32206726 15.10664368 C96.26420197 23.65596403 96.19216095 32.20502142 96.10412884 40.75408649 C96.05937057 45.14943426 96.02012669 49.54468816 95.9934082 53.94018555 C95.96742935 58.18083475 95.92706599 62.4211238 95.87665749 66.66155052 C95.85995195 68.28064691 95.84846067 69.89980564 95.84222984 71.51897621 C95.83262844 73.78427658 95.80461889 76.04864789 95.7722168 78.3137207 C95.75556221 80.24898369 95.75556221 80.24898369 95.73857117 82.2233429 C95.33984375 85.35546875 95.33984375 85.35546875 93.96125793 87.24479675 C91.71672492 88.78230641 90.05357307 89.16163094 87.33984375 89.35546875 C84.58984375 88.54296875 84.58984375 88.54296875 82.33984375 87.35546875 C80.86235372 84.40048868 81.17419038 81.72543106 81.13452148 78.42724609 C81.12462189 77.71494339 81.11472229 77.00264069 81.10452271 76.26875305 C81.07288517 73.90967149 81.04814145 71.55056978 81.0234375 69.19140625 C81.00286991 67.55758128 80.98187349 65.92376167 80.96046448 64.28994751 C80.90522362 59.98604659 80.85582325 55.68209749 80.80761719 51.37811279 C80.75741685 46.98770857 80.70172314 42.59737446 80.64648438 38.20703125 C80.53887817 29.589903 80.43743869 20.97271617 80.33984375 12.35546875 C73.85980637 12.19548611 67.96555562 12.35529959 61.65234375 13.85546875 C60.45222656 14.13390625 59.25210938 14.41234375 58.015625 14.69921875 C57.13261719 14.91578125 56.24960938 15.13234375 55.33984375 15.35546875 C55.32526123 16.55147705 55.31067871 17.74748535 55.2956543 18.97973633 C55.23771789 23.4136355 55.16048501 27.84702433 55.07739258 32.28051758 C55.04412125 34.20002973 55.01609621 36.11964023 54.9934082 38.03930664 C54.95990254 40.79746447 54.90758972 43.55471918 54.8515625 46.3125 C54.84517258 47.17196732 54.83878265 48.03143463 54.8321991 48.91694641 C54.80250786 50.11785164 54.80250786 50.11785164 54.7722168 51.34301758 C54.75556221 52.39891838 54.75556221 52.39891838 54.73857117 53.47615051 C54.22221029 55.90990945 53.26150738 56.82215155 51.33984375 58.35546875 C49.40234375 58.71875 49.40234375 58.71875 47.33984375 58.66796875 C46.31890625 58.66216797 46.31890625 58.66216797 45.27734375 58.65625 C43.33984375 58.35546875 43.33984375 58.35546875 40.33984375 56.35546875 C39.15982826 52.81542229 39.11072029 49.53274315 39.0234375 45.84375 C39.0026564 45.11552536 38.98187531 44.38730072 38.96046448 43.63700867 C38.89515629 41.31409 38.83617138 38.99105969 38.77734375 36.66796875 C38.7341407 35.0917854 38.69052583 33.51561327 38.64648438 31.93945312 C38.53949415 28.078239 38.43817414 24.21691272 38.33984375 20.35546875 C36.61138628 20.81679475 34.88366595 21.28088301 33.15625 21.74609375 C32.19404541 22.00422852 31.23184082 22.26236328 30.24047852 22.52832031 C27.54555688 23.29680735 24.91897016 24.1726236 22.27734375 25.10546875 C16.19806159 26.90140203 10.82547129 26.92515532 4.98046875 24.29296875 C-0.67259151 21.0415354 -5.86413715 17.06879325 -11.13793945 13.24487305 C-17.72541359 8.51048518 -24.61430581 4.36663039 -31.66015625 0.35546875 C-32.28567383 -0.00321289 -32.91119141 -0.36189453 -33.55566406 -0.73144531 C-56.71767482 -14.45660102 -56.71767482 -14.45660102 -79.67211914 -9.43066406 Z " fill="#FFFFFF" transform="translate(167.66015625,112.64453125)"/>
<path d="M0 0 C4.22234098 2.79251804 6.63439558 6.10265458 9.375 10.3125 C12.80592652 15.47082532 16.42554603 19.81486126 21 24 C29.2406557 20.57724459 34.79721976 11.19186078 39.58984375 4.03125 C41 2 41 2 43 0 C49.98591549 -0.67605634 49.98591549 -0.67605634 53.4375 1.625 C55.35027886 4.53242386 55.71889358 6.53727998 56 10 C53.3791626 17.90994816 47.70096014 23.87867171 41.9765625 29.6875 C39.67513336 31.87306219 39.67513336 31.87306219 40 35 C41.12148438 35.14695312 41.12148438 35.14695312 42.265625 35.296875 C50.23229246 36.50647372 50.23229246 36.50647372 53.625 38.6875 C55.54223274 41.91193688 56 44.2488949 56 48 C54.23358828 50.80189446 52.96950178 52.51524911 50 54 C41.54323339 54.17911457 34.62986532 52.4652481 26.97265625 48.9609375 C21.79321566 47.28663739 17.7756543 48.96603096 12.9375 51 C6.86108018 53.26099342 0.50101584 54.68976295 -6 54 C-9.6270654 51.70419822 -10.78612741 50.73518704 -12 46.5625 C-12 42.48455228 -11.52534181 41.14767656 -9 38 C-5.86328125 36.85546875 -5.86328125 36.85546875 -2.3125 36.1875 C-0.54326172 35.83751953 -0.54326172 35.83751953 1.26171875 35.48046875 C2.16535156 35.32191406 3.06898438 35.16335938 4 35 C4.33269786 32.06014851 4.33269786 32.06014851 2.75 30.59765625 C2.1725 30.09105469 1.595 29.58445312 1 29.0625 C-5.59315996 22.72499318 -11.45772146 15.36260497 -12 6 C-9.2326834 -0.06174113 -6.48560064 -0.54962717 0 0 Z " fill="#FFFFFF" transform="translate(234,253)"/>
<path d="M0 0 C4.9416829 3.25701828 8.12307941 7.36923823 10 13 C10.64006979 20.67034455 10.89643266 27.71481305 6 34 C1.72189935 38.53154264 -2.50460513 41.58537385 -8.83203125 42.3359375 C-16.75996805 42.43984231 -21.99833821 41.5816854 -27.97265625 36.234375 C-32.93295648 31.06018092 -34.88820791 26.6654566 -35.05859375 19.5546875 C-34.70137575 12.0185401 -31.96897442 6.96897442 -26.6875 1.6875 C-17.83633934 -3.87020553 -9.42916709 -4.72472243 0 0 Z " fill="#FFFFFF" transform="translate(354,208)"/>
<path d="M0 0 C5.10248172 4.12905229 7.90912726 9.57014432 9 16 C9.23619394 22.42644352 8.10388643 27.95949085 4 33 C-0.271485 37.39323754 -4.38955884 40.58996465 -10.6484375 41.30078125 C-18.1104311 41.33285286 -22.93896671 40.10070912 -29.1875 35.8125 C-34.45918707 30.54081293 -36.23929849 26.04854583 -36.5625 18.5625 C-36.33172345 12.33153306 -35.14118366 7.74232322 -31 3 C-21.32060516 -5.14653694 -11.12658123 -6.29947145 0 0 Z " fill="#FFFFFF" transform="translate(184,209)"/>
</svg>
