<?xml version="1.0" encoding="UTF-8" standalone="no"?>
<!-- Generator: Adobe Illustrator 18.1.1, SVG Export Plug-In . SVG Version: 6.00 Build 0)  -->

<svg
   version="1.1"
   id="Layer_1"
   x="0px"
   y="0px"
   viewBox="0 0 117.3 117.3"
   enable-background="new 0 0 117.3 117.3"
   xml:space="preserve"
   sodipodi:docname="syncthing.svg"
   inkscape:version="1.4.2 (ebf0e940d0, 2025-05-08)"
   xmlns:inkscape="http://www.inkscape.org/namespaces/inkscape"
   xmlns:sodipodi="http://sodipodi.sourceforge.net/DTD/sodipodi-0.dtd"
   xmlns="http://www.w3.org/2000/svg"
   xmlns:svg="http://www.w3.org/2000/svg"><defs
   id="defs8" /><sodipodi:namedview
   id="namedview8"
   pagecolor="#000000"
   bordercolor="#000000"
   borderopacity="0.25"
   inkscape:showpageshadow="2"
   inkscape:pageopacity="0.0"
   inkscape:pagecheckerboard="0"
   inkscape:deskcolor="#d1d1d1"
   showgrid="false"
   inkscape:zoom="7.7323101"
   inkscape:cx="58.585338"
   inkscape:cy="58.650002"
   inkscape:current-layer="Layer_1" />
<g
   id="g8">
	<linearGradient
   id="SVGID_1_"
   gradientUnits="userSpaceOnUse"
   x1="58.666"
   y1="117.332"
   x2="58.666"
   y2="0">
		<stop
   offset="0"
   style="stop-color:#0882C8"
   id="stop1" />
		<stop
   offset="1"
   style="stop-color:#26B6DB"
   id="stop2" />
	</linearGradient>
	
	<g
   id="g7">
		<circle
   fill="none"
   stroke="#FFFFFF"
   stroke-width="6"
   stroke-miterlimit="10"
   cx="58.7"
   cy="58.5"
   r="43.7"
   id="circle3" />
		<g
   id="g3">
			<path
   fill="#FFFFFF"
   d="M94.7,47.8c4.7,1.6,9.8-0.9,11.4-5.6c1.6-4.7-0.9-9.8-5.6-11.4c-4.7-1.6-9.8,0.9-11.4,5.6     C87.5,41.1,90,46.2,94.7,47.8z"
   id="path3" />
			<line
   fill="none"
   stroke="#FFFFFF"
   stroke-width="6"
   stroke-miterlimit="10"
   x1="97.6"
   y1="39.4"
   x2="67.5"
   y2="64.4"
   id="line3" />
		</g>
		<g
   id="g4">
			<path
   fill="#FFFFFF"
   d="M77.6,91c-0.4,4.9,3.2,9.3,8.2,9.8c5,0.4,9.3-3.2,9.8-8.2c0.4-4.9-3.2-9.3-8.2-9.8     C82.4,82.4,78,86,77.6,91z"
   id="path4" />
			<line
   fill="none"
   stroke="#FFFFFF"
   stroke-width="6"
   stroke-miterlimit="10"
   x1="86.5"
   y1="91.8"
   x2="67.5"
   y2="64.4"
   id="line4" />
		</g>
		<path
   fill="#FFFFFF"
   d="M60,69.3c2.7,4.2,8.3,5.4,12.4,2.7c4.2-2.7,5.4-8.3,2.7-12.4c-2.7-4.2-8.3-5.4-12.4-2.7    C58.5,59.5,57.3,65.1,60,69.3z"
   id="path5" />
		<g
   id="g6">
			<path
   fill="#FFFFFF"
   d="M21.2,61.4c-4.3-2.5-9.8-1.1-12.3,3.1c-2.5,4.3-1.1,9.8,3.1,12.3c4.3,2.5,9.8,1.1,12.3-3.1     C26.8,69.5,25.4,64,21.2,61.4z"
   id="path6" />
			<line
   fill="none"
   stroke="#FFFFFF"
   stroke-width="6"
   stroke-miterlimit="10"
   x1="16.6"
   y1="69.1"
   x2="67.5"
   y2="64.4"
   id="line6" />
		</g>
	</g>
</g>
</svg>
