<?xml version="1.0" encoding="UTF-8" standalone="no"?>
<!-- Generator: Adobe Illustrator 16.0.0, SVG Export Plug-In . SVG Version: 6.00 Build 0)  -->

<svg
   xmlns:dc="http://purl.org/dc/elements/1.1/"
   xmlns:cc="http://creativecommons.org/ns#"
   xmlns:rdf="http://www.w3.org/1999/02/22-rdf-syntax-ns#"
   xmlns:svg="http://www.w3.org/2000/svg"
   xmlns="http://www.w3.org/2000/svg"
   xmlns:sodipodi="http://sodipodi.sourceforge.net/DTD/sodipodi-0.dtd"
   xmlns:inkscape="http://www.inkscape.org/namespaces/inkscape"
   version="1.1"
   id="Capa_1"
   x="0px"
   y="0px"
   width="444.819px"
   height="444.819px"
   viewBox="0 0 444.819 444.819"
   style="enable-background:new 0 0 444.819 444.819;"
   xml:space="preserve"
   sodipodi:docname="arrow-up-symbolic.svg"
   inkscape:version="0.92.4 5da689c313, 2019-01-14"><metadata
   id="metadata41"><rdf:RDF><cc:Work
       rdf:about=""><dc:format>image/svg+xml</dc:format><dc:type
         rdf:resource="http://purl.org/dc/dcmitype/StillImage" /></cc:Work></rdf:RDF></metadata><defs
   id="defs39" /><sodipodi:namedview
   pagecolor="#ffffff"
   bordercolor="#666666"
   borderopacity="1"
   objecttolerance="10"
   gridtolerance="10"
   guidetolerance="10"
   inkscape:pageopacity="0"
   inkscape:pageshadow="2"
   inkscape:window-width="1202"
   inkscape:window-height="546"
   id="namedview37"
   showgrid="false"
   inkscape:zoom="0.53055288"
   inkscape:cx="222.4095"
   inkscape:cy="222.4095"
   inkscape:window-x="1540"
   inkscape:window-y="898"
   inkscape:window-maximized="0"
   inkscape:current-layer="Capa_1" />
<g
   id="g4"
   transform="matrix(0.9,0,0,0.9,1.8848263,-7.6363093)">
	<path
   d="M 434.252,208.708 248.387,22.843 C 241.345,15.8 232.694,12.279 222.41,12.279 c -10.467,0 -19.036,3.521 -25.697,10.564 L 10.848,208.708 C 3.615,215.94 0,224.604 0,234.692 c 0,9.897 3.619,18.459 10.848,25.693 l 21.411,21.409 c 6.854,7.231 15.42,10.855 25.697,10.855 10.278,0 18.842,-3.624 25.697,-10.855 l 83.939,-83.651 v 200.998 c 0,9.89 3.567,17.936 10.706,24.126 7.139,6.184 15.752,9.273 25.837,9.273 h 36.545 c 10.089,0 18.698,-3.09 25.837,-9.273 7.139,-6.188 10.712,-14.236 10.712,-24.126 V 198.144 l 83.938,83.651 c 6.848,7.231 15.413,10.855 25.7,10.855 10.082,0 18.747,-3.624 25.975,-10.855 l 21.409,-21.409 c 7.043,-7.426 10.567,-15.988 10.567,-25.693 0.001,-9.898 -3.523,-18.559 -10.566,-25.985 z"
   id="path2"
   inkscape:connector-curvature="0" />
</g>
<g
   id="g6">
</g>
<g
   id="g8">
</g>
<g
   id="g10">
</g>
<g
   id="g12">
</g>
<g
   id="g14">
</g>
<g
   id="g16">
</g>
<g
   id="g18">
</g>
<g
   id="g20">
</g>
<g
   id="g22">
</g>
<g
   id="g24">
</g>
<g
   id="g26">
</g>
<g
   id="g28">
</g>
<g
   id="g30">
</g>
<g
   id="g32">
</g>
<g
   id="g34">
</g>
</svg>