<?xml version="1.0" encoding="UTF-8" standalone="no"?>
<!-- Generator: Adobe Illustrator 16.0.0, SVG Export Plug-In . SVG Version: 6.00 Build 0)  -->

<svg
   xmlns:dc="http://purl.org/dc/elements/1.1/"
   xmlns:cc="http://creativecommons.org/ns#"
   xmlns:rdf="http://www.w3.org/1999/02/22-rdf-syntax-ns#"
   xmlns:svg="http://www.w3.org/2000/svg"
   xmlns="http://www.w3.org/2000/svg"
   xmlns:sodipodi="http://sodipodi.sourceforge.net/DTD/sodipodi-0.dtd"
   xmlns:inkscape="http://www.inkscape.org/namespaces/inkscape"
   version="1.1"
   id="Capa_1"
   x="0px"
   y="0px"
   width="444.819px"
   height="444.819px"
   viewBox="0 0 444.819 444.819"
   style="enable-background:new 0 0 444.819 444.819;"
   xml:space="preserve"
   sodipodi:docname="arrow-pointing-down-symbolic.svg"
   inkscape:version="0.92.4 5da689c313, 2019-01-14"><metadata
   id="metadata41"><rdf:RDF><cc:Work
       rdf:about=""><dc:format>image/svg+xml</dc:format><dc:type
         rdf:resource="http://purl.org/dc/dcmitype/StillImage" /></cc:Work></rdf:RDF></metadata><defs
   id="defs39" /><sodipodi:namedview
   pagecolor="#ffffff"
   bordercolor="#666666"
   borderopacity="1"
   objecttolerance="10"
   gridtolerance="10"
   guidetolerance="10"
   inkscape:pageopacity="0"
   inkscape:pageshadow="2"
   inkscape:window-width="1890"
   inkscape:window-height="1032"
   id="namedview37"
   showgrid="false"
   inkscape:zoom="0.53055288"
   inkscape:cx="222.4095"
   inkscape:cy="222.4095"
   inkscape:window-x="1110"
   inkscape:window-y="489"
   inkscape:window-maximized="1"
   inkscape:current-layer="Capa_1" />
<g
   id="g4"
   transform="matrix(0.9,0,0,0.9,1.8848263,-7.4792096)">
	<path
   d="m 434.252,185.721 -21.409,-21.413 c -7.419,-7.042 -16.084,-10.564 -25.975,-10.564 -10.095,0 -18.657,3.521 -25.7,10.564 L 277.23,248.247 V 47.255 c 0,-9.9 -3.621,-18.464 -10.855,-25.697 -7.234,-7.232 -15.797,-10.85 -25.693,-10.85 h -36.545 c -9.897,0 -18.464,3.621 -25.693,10.85 -7.236,7.233 -10.85,15.797 -10.85,25.697 V 248.247 L 83.655,164.308 c -7.042,-7.042 -15.606,-10.564 -25.697,-10.564 -9.896,0 -18.559,3.521 -25.979,10.564 L 10.851,185.721 C 3.615,192.948 0,201.615 0,211.7 c 0,10.282 3.619,18.848 10.848,25.698 l 185.864,186.146 c 7.045,7.046 15.609,10.567 25.697,10.567 9.897,0 18.558,-3.521 25.977,-10.567 L 434.251,237.398 c 7.043,-7.043 10.567,-15.608 10.567,-25.698 0.001,-9.895 -3.523,-18.555 -10.566,-25.979 z"
   id="path2"
   inkscape:connector-curvature="0" />
</g>
<g
   id="g6">
</g>
<g
   id="g8">
</g>
<g
   id="g10">
</g>
<g
   id="g12">
</g>
<g
   id="g14">
</g>
<g
   id="g16">
</g>
<g
   id="g18">
</g>
<g
   id="g20">
</g>
<g
   id="g22">
</g>
<g
   id="g24">
</g>
<g
   id="g26">
</g>
<g
   id="g28">
</g>
<g
   id="g30">
</g>
<g
   id="g32">
</g>
<g
   id="g34">
</g>
</svg>