<svg xmlns="http://www.w3.org/2000/svg" xmlns:xlink="http://www.w3.org/1999/xlink" aria-hidden="true" role="img" width="64" height="64" viewBox="0 0 32 32" style="color: rgb(0, 0, 0);"><path fill="currentColor" d="M16 32C7.163 32 0 24.837 0 16S7.163 0 16 0s16 7.163 16 16s-7.163 16-16 16m-.275-25.94c-.39.152-.49.707-.186.988c.287.293.847.19.995-.193c.255-.471-.33-1.042-.81-.796zm-5.155.546c-.405.106-.45.734-.057.884c.297.16.718-.089.687-.427c.03-.313-.339-.575-.63-.457m10.558.893c.31.078.54-.17.612-.44c-.05-.317-.362-.622-.701-.46c-.438.142-.366.846.089.9m-9.385 1.265c-.456.23-.519.914-.105 1.212c.428.38 1.186.054 1.211-.507c.075-.557-.62-1.008-1.106-.705m7.43.322c-.271.536.276 1.15.853 1.044c.435-.142.736-.659.491-1.076c-.247-.536-1.127-.519-1.344.032m-4.069 1.013c-.026.386.255.702.588.863c.218.013.455.054.655-.056c.438-.19.654-.762.411-1.178c-.13-.3-.46-.428-.763-.488c-.458.033-.896.385-.891.859m-7.666.69c-.388.175-.442.766-.1 1.012c.322.262.884.095.976-.316c.169-.475-.431-.966-.876-.697zm16.462-.002c-.388.234-.345.858.067 1.04c.374.22.913-.102.887-.529c.045-.468-.577-.799-.954-.51zm-6.64.851c-.776.232-1.236 1.158-.92 1.898c.278.827 1.377 1.211 2.13.758c.725-.383.974-1.4.506-2.067c-.354-.546-1.094-.81-1.716-.589m-3.653.073c-.735.323-1.073 1.276-.692 1.978c.34.725 1.33 1.023 2.032.63c.701-.349 1.004-1.29.612-1.966c-.333-.694-1.262-.963-1.952-.642M9.95 12.94c-.101.514.365 1.036.898.99c.484.003.837-.436.867-.885a.98.98 0 0 0-.87-.857c-.423.03-.842.315-.895.752m10.802-.656c-.587.272-.63 1.172-.065 1.492c.544.384 1.384-.077 1.347-.732c.024-.618-.735-1.073-1.282-.76m-8.63 2.307c-.868.206-1.376 1.256-.958 2.039c.365.854 1.626 1.106 2.31.48c.534-.427.674-1.236.331-1.818c-.314-.578-1.045-.874-1.684-.701zm6.927-.003c-.874.235-1.336 1.325-.877 2.096c.38.746 1.447.996 2.136.52c.657-.411.868-1.362.426-1.999c-.334-.557-1.064-.792-1.685-.617m-11.04.726c-.53.148-.687.904-.262 1.243c.363.362 1.066.18 1.203-.31c.223-.539-.389-1.138-.941-.933m14.969.782c.092.21.203.43.42.538c.464.251 1.119-.112 1.084-.647c.03-.406-.338-.706-.716-.765a.836.836 0 0 0-.788.874M5.294 15.58c-.275.123-.394.49-.194.729c.226.343.843.185.86-.226c.077-.363-.334-.646-.666-.503m20.949-.009c-.39.205-.237.912.235.87c.336.05.624-.353.467-.647c-.093-.269-.468-.386-.702-.223m-12.317 1.973c-.654.14-1.158.751-1.156 1.409c-.023.687.52 1.343 1.212 1.453c.895.206 1.82-.587 1.763-1.482c-.005-.886-.945-1.603-1.82-1.38zm3.462-.001c-.526.128-.972.555-1.088 1.08c-.23.787.378 1.678 1.203 1.783c.876.174 1.773-.593 1.726-1.471c.014-.906-.954-1.636-1.84-1.392zm-6.676.545c-.663.066-1.013.943-.545 1.422c.4.5 1.304.334 1.486-.278c.249-.573-.327-1.247-.94-1.144zm10.154.027c-.661.207-.772 1.2-.165 1.536c.535.376 1.365-.068 1.343-.711c.042-.585-.63-1.05-1.178-.825m2.838 2.8c.145.398.75.493 1.017.16c.197-.179.148-.457.119-.69c-.141-.144-.296-.315-.517-.311c-.444-.073-.833.448-.619.841m-16.268-.732c-.395.198-.409.817-.027 1.034c.356.24.896-.001.945-.423c.094-.477-.503-.882-.918-.61zm8.193.883c-.654.207-.752 1.193-.163 1.528c.531.39 1.387-.06 1.346-.71c.052-.588-.64-1.053-1.183-.818m-3.794.871c-.326.12-.459.474-.465.791c.112.291.338.598.685.605c.42.062.834-.294.82-.712c.042-.51-.578-.923-1.04-.684m7.686.008c-.464.233-.516.937-.088 1.23c.443.374 1.207.01 1.195-.56c.045-.544-.631-.96-1.107-.67m1.337 3.25c.217.366.85.236.891-.19c.058-.316-.234-.52-.51-.575c-.344.072-.593.451-.381.766zm-10.611-.273c.03.359.428.67.77.443c.381-.2.252-.845-.183-.875c-.299-.065-.503.183-.587.432m5.12.287c-.153.373.213.824.618.777c.218.005.387-.148.518-.3q.037-.155.08-.31c-.054-.198-.116-.43-.328-.52c-.32-.196-.805-.016-.889.353z"></path></svg>