<svg xmlns="http://www.w3.org/2000/svg" xmlns:xlink="http://www.w3.org/1999/xlink" aria-hidden="true" role="img" width="64" height="64" viewBox="0 0 32 32" style="color: rgb(0, 0, 0);"><path fill="currentColor" d="M16 0c8.837 0 16 7.163 16 16s-7.163 16-16 16S0 24.837 0 16S7.163 0 16 0m.313 6.833a.77.77 0 0 0-.698 0c-.203.104-.364.384-.682.944L7.46 20.97c-.314.552-.47.829-.46 1.055a.77.77 0 0 0 .35.602c.19.123.505.123 1.14.123h3.028c.712 0 1.068 0 1.386-.088c.349-.104.667-.288.931-.541c.243-.232.418-.54.764-1.145l.01-.018l3.926-6.95c.348-.61.52-.916.597-1.239a2.26 2.26 0 0 0 0-1.066c-.076-.32-.25-.625-.593-1.226l-.008-.014l-1.536-2.686c-.318-.56-.48-.84-.682-.944m4.664 9.482c-.2.104-.36.377-.678.925l-2.165 3.722l-.007.013c-.317.548-.476.821-.464 1.046a.78.78 0 0 0 .348.606c.15.098.387.118.802.122l4.684.001c.64 0 .962 0 1.154-.126a.77.77 0 0 0 .348-.607c.011-.219-.142-.484-.443-1.005l-.032-.054l-2.172-3.722l-.025-.042c-.305-.517-.46-.778-.657-.879a.76.76 0 0 0-.693 0"></path></svg>