<svg xmlns="http://www.w3.org/2000/svg" xmlns:xlink="http://www.w3.org/1999/xlink" aria-hidden="true" role="img" width="64" height="64" viewBox="0 0 32 32" style="color: rgb(0, 0, 0);"><path fill="currentColor" fill-rule="evenodd" d="M16 32C7.163 32 0 24.837 0 16S7.163 0 16 0s16 7.163 16 16s-7.163 16-16 16m7.189-17.98c.314-2.096-1.283-3.223-3.465-3.975l.708-2.84l-1.728-.43l-.69 2.765c-.454-.114-.92-.22-1.385-.326l.695-2.783L15.596 6l-.708 2.839q-.565-.127-1.104-.26l.002-.009l-2.384-.595l-.46 1.846s1.283.294 1.256.312c.7.175.826.638.805 1.006l-.806 3.235q.073.017.18.057l-.183-.045l-1.13 4.532c-.086.212-.303.531-.793.41c.018.025-1.256-.313-1.256-.313l-.858 1.978l2.25.561c.418.105.828.215 1.231.318l-.715 2.872l1.727.43l.708-2.84q.707.19 1.378.357l-.706 2.828l1.728.43l.715-2.866c2.948.558 5.164.333 6.097-2.333c.752-2.146-.037-3.385-1.588-4.192c1.13-.26 1.98-1.003 2.207-2.538m-3.95 5.538c-.533 2.147-4.148.986-5.32.695l.95-3.805c1.172.293 4.929.872 4.37 3.11m.535-5.569c-.487 1.953-3.495.96-4.47.717l.86-3.45c.975.243 4.118.696 3.61 2.733"></path></svg>