<svg xmlns="http://www.w3.org/2000/svg" xmlns:xlink="http://www.w3.org/1999/xlink" aria-hidden="true" role="img" width="64" height="64" viewBox="0 0 32 32" style="color: rgb(0, 0, 0);"><path fill="currentColor" fill-rule="evenodd" d="M16 32C7.163 32 0 24.837 0 16S7.163 0 16 0s16 7.163 16 16s-7.163 16-16 16m-5.518-15.104V24h6.549q1.815 0 3.142-.627q1.327-.628 2.168-1.715q.84-1.086 1.25-2.543T24 16a11.5 11.5 0 0 0-.41-3.115q-.408-1.456-1.25-2.543q-.84-1.087-2.167-1.715Q18.845 8.001 17.03 8h-6.549v6.61H9v2.286zm2.766-2.285v-4.325h2.721q1.615 0 2.644.437q1.029.436 1.615 1.21a4.4 4.4 0 0 1 .796 1.815q.21 1.042.21 2.252a11.4 11.4 0 0 1-.21 2.252q-.21 1.043-.796 1.815q-.587.774-1.615 1.21q-1.029.438-2.644.437h-2.721v-4.818h4.314v-2.285z"></path></svg>