<svg xmlns="http://www.w3.org/2000/svg" xmlns:xlink="http://www.w3.org/1999/xlink" aria-hidden="true" role="img" width="64" height="64" viewBox="0 0 32 32" style="color: rgb(0, 0, 0);"><path fill="currentColor" d="M16 0c8.837 0 16 7.163 16 16s-7.163 16-16 16S0 24.837 0 16S7.163 0 16 0m-.583 23.003c-.125.606.25 1.212.873 1.337a1.12 1.12 0 0 0 1.337-.874c.124-.623-.25-1.212-.874-1.336a1.12 1.12 0 0 0-1.336.873m.855-16.378c-3.707 0-6.736 3.012-6.736 6.736c0 .749.124 1.48.356 2.192a.95.95 0 0 0 1.194.589a.95.95 0 0 0 .588-1.194a4.8 4.8 0 0 1-.267-1.73c.071-2.512 2.103-4.58 4.616-4.704a4.86 4.86 0 0 1 5.115 4.847a4.86 4.86 0 0 1-4.58 4.848s-.945.053-1.408.125c-.232.035-.41.071-.535.089c-.054.018-.107-.036-.09-.09l.161-.783l.873-4.028a.934.934 0 0 0-.712-1.105a.934.934 0 0 0-1.105.713s-2.103 9.802-2.121 9.909a.934.934 0 0 0 .713 1.105a.934.934 0 0 0 1.105-.713c.017-.107.303-1.408.303-1.408a2.37 2.37 0 0 1 1.996-1.854a21 21 0 0 1 1.051-.089a6.744 6.744 0 0 0 6.22-6.719c0-3.724-3.03-6.736-6.737-6.736"></path></svg>