<svg xmlns="http://www.w3.org/2000/svg" xmlns:xlink="http://www.w3.org/1999/xlink" aria-hidden="true" role="img" width="64" height="64" viewBox="0 0 32 32" style="color: rgb(0, 0, 0);"><path fill="currentColor" d="M16 0c8.837 0 16 7.163 16 16s-7.163 16-16 16S0 24.837 0 16A15.97 15.97 0 0 1 6.199 3.353l.093.114l.25.306q5.316 6.51 5.496 6.758c.2.278.125.527-.219.723c-.191.109-.585.219-.781.219c-.223 0-.474-.107-.657-.28a2 2 0 0 1-.134-.167l-.086-.119c-.27-.384-.78-1.16-1.633-2.482a189 189 0 0 0-1.712-2.633l-.012-.01q-.003-.001.004.016l.032.064c.103.198.469.852 1.594 2.866c1.046 1.872 1.4 2.533 1.4 2.622c0 .18-.05.274-.272.522c-.37.413-.535.877-.655 1.837c-.134 1.077-.51 1.837-1.554 3.138c-.61.762-.71.902-.865 1.209c-.194.386-.247.603-.269 1.091c-.023.516.022.85.18 1.343c.138.432.282.718.65 1.288c.318.493.501.859.501 1.002c0 .114.022.114.515.003c1.179-.266 2.136-.735 2.675-1.309c.333-.355.411-.551.414-1.038c.001-.318-.01-.385-.096-.568c-.14-.298-.395-.546-.957-.93c-.737-.504-1.051-.91-1.138-1.467c-.072-.457.011-.78.419-1.634c.421-.884.526-1.26.597-2.151c.045-.576.108-.803.274-.985c.172-.19.328-.255.755-.313c.696-.095 1.139-.275 1.503-.61c.316-.292.448-.573.468-.995l.016-.32l-.177-.206l-.02-.024q-.498-.57-6.284-6.932l-.102-.111A15.93 15.93 0 0 1 16 0m.048 20.72c-.454-.116-1.271-.148-1.762-.068c-1.139.185-2.388.787-3.393 1.635l-.299.253l.263.04c1.371.215 1.74.405 2.692 1.385c.547.564.732.69 1.186.805c.667.17 1.325-.142 1.55-.737c.101-.266.088-.707-.028-.928c-.275-.526-1.076-.696-1.463-.31c-.323.32-.229.804.172.888c.092.019.09.015-.023-.036c-.176-.08-.252-.19-.253-.365c-.002-.41.468-.641.905-.444c.32.144.448.333.448.664a.83.83 0 0 1-.939.831a1.38 1.38 0 0 1-.777-.406c-.445-.504-.272-1.298.35-1.603c.473-.232 1.102-.175 1.59.145c.56.367.799.702 1.282 1.803c.157.359.36.762.45.897c.456.685 1.004 1.02 1.664 1.02c.364 0 .638-.066.983-.238c.256-.128.618-.37.592-.397a1 1 0 0 0-.236.073c-.72.281-1.453.262-1.878-.05c-.268-.195-.484-.586-.595-1.074a23 23 0 0 1-.141-.83c-.148-.942-.29-1.366-.621-1.852c-.34-.497-.99-.915-1.719-1.101m4.842-4.955c-.02 0-.054.061-.075.135c-.197.697-.115 1.443.245 2.216l.065.135c.166.333.382.676 1.03 1.647c.631.947.944 1.507 1.097 1.966c.25.75.213 1.424-.118 2.116c-.079.164-.131.297-.117.297s.143-.064.288-.143c.984-.534 1.675-1.45 1.972-2.616c.094-.37.131-1.253.068-1.62c-.112-.648-.344-1.18-.72-1.647c-.428-.533-1.058-1-2.163-1.602c-.885-.482-1.217-.67-1.383-.782a.7.7 0 0 0-.189-.102M7.152 19.103c0-.198.355-.27.583-.118c.242.16.319.49.174.746c-.138.245-.403.326-.59.18c-.115-.091-.123-.225-.022-.377c.1-.15.09-.223-.037-.288c-.075-.039-.108-.083-.108-.143m12.468-3.97l.069.207a5 5 0 0 1 .13.572c.217 1.29-.46 2.333-1.778 2.737c-.14.043-.689.15-1.22.239c-1.078.18-1.558.306-2.041.539c-.343.165-.757.412-.733.437a.5.5 0 0 0 .174-.042c.609-.214 1.287-.324 2.316-.378c.409-.021.874-.055 1.033-.075c.918-.116 1.553-.394 2.048-.898c.275-.28.439-.54.57-.908c.085-.234.096-.32.097-.734c0-.421-.01-.498-.1-.757c-.12-.34-.26-.595-.437-.794zm-1.543-3.732c-.01 0-.018.192-.018.427c0 1.596.954 2.542 3.66 3.632c1.803.725 2.54 1.1 3.09 1.572c.482.415.77.969.797 1.537c.005.107.025.184.045.178c.074-.024.35-.643.441-.987c.115-.435.156-1.26.086-1.7c-.244-1.514-1.266-2.626-2.918-3.174c-.52-.172-1.084-.29-2.085-.437c-1.701-.248-2.316-.436-2.865-.876a2 2 0 0 0-.233-.172m-3.804 1.235c-.202-.103-.631-.144-.839-.08c-.327.1-.644.447-.743.81c-.06.221-.026.61.064.73c.145.194.286.245.666.242c.744-.005 1.39-.324 1.466-.723c.062-.327-.223-.78-.614-.98zm-1.033.454c0-.351.562-.54.933-.312c.195.119.246.295.13.458c-.078.112-.323.22-.502.22c-.268 0-.561-.192-.561-.366m.142-7.279c-.419-.1-1.027-.153-1.284-.114c-.134.02-.122.026.163.07c1.04.162 1.851.574 2.678 1.36c.363.345.729.774 1.32 1.55c1.332 1.747 1.897 2.234 3.018 2.6c.658.214 1.323.314 2.497.376c1.3.069 1.79.173 2.255.48c.257.17.458.382.658.692l.117.18l-.025-.198c-.093-.76-.636-1.83-1.328-2.613l-.126-.143l-.064.287c-.16.723-.506 1.242-.828 1.243a.42.42 0 0 1-.372-.236c-.071-.17-.065-.232.04-.43c.195-.365.243-.853.147-1.49c-.027-.184-.068-.357-.09-.383c-.07-.085-.632-.412-.988-.576c-1.293-.598-2.84-.792-4.36-.547l-.36.058l-.252-.281c-.95-1.057-1.839-1.652-2.816-1.885m9.399.287c-.008 0-.061.102-.117.226c-.142.313-.212.656-.242 1.176c-.019.335-.038.45-.077.464c-.059.023-.138-.001-.62-.186c-.323-.125-1.127-.36-1.15-.336c-.006.006.162.088.374.182s.556.272.764.396c.825.488.965.772.966 1.956c0 .59-.007.667-.08.845c-.098.239-.08.284.027.073c.2-.39.284-.782.296-1.39c.007-.39.019-.473.074-.528c.06-.06.075-.06.172-.01c.145.074.8.596 1.086.863l.233.219l-.233-.306c-.128-.169-.482-.56-.787-.872c-.648-.663-.7-.751-.79-1.365c-.07-.484-.054-.9.05-1.203a.8.8 0 0 0 .054-.204m-10.802.21l-.024.283c-.077.914.281 2.137.86 2.934c.45.618 1.145 1.098 1.66 1.145c.336.03.437-.075.285-.297c-.212-.309-.472-.784-.54-.988a11 11 0 0 1-.207-.83c-.241-1.125-.479-1.564-1.027-1.897a3.3 3.3 0 0 0-.875-.326z"></path></svg>