<svg xmlns="http://www.w3.org/2000/svg" xmlns:xlink="http://www.w3.org/1999/xlink" aria-hidden="true" role="img" width="64" height="64" viewBox="0 0 32 32" style="color: rgb(0, 0, 0);"><path fill="currentColor" fill-rule="evenodd" d="M16 32C7.163 32 0 24.837 0 16S7.163 0 16 0s16 7.163 16 16s-7.163 16-16 16m1.922-18.207v-2.366h5.414V7.819H8.595v3.608h5.414v2.365c-4.4.202-7.709 1.074-7.709 2.118s3.309 1.915 7.709 2.118v7.582h3.913v-7.584c4.393-.202 7.694-1.073 7.694-2.116s-3.301-1.914-7.694-2.117m0 3.59v-.002c-.11.008-.677.042-1.942.042c-1.01 0-1.721-.03-1.971-.042v.003c-3.888-.171-6.79-.848-6.79-1.658s2.902-1.486 6.79-1.66v2.644c.254.018.982.061 1.988.061c1.207 0 1.812-.05 1.925-.06v-2.643c3.88.173 6.775.85 6.775 1.658c0 .81-2.895 1.485-6.775 1.657"></path></svg>