<svg xmlns="http://www.w3.org/2000/svg" xmlns:xlink="http://www.w3.org/1999/xlink" aria-hidden="true" role="img" width="64" height="64" viewBox="0 0 32 32" style="color: rgb(0, 0, 0);"><path fill="currentColor" d="M16 32C7.163 32 0 24.837 0 16S7.163 0 16 0s16 7.163 16 16s-7.163 16-16 16m7.13-22.708l-2.4 1.224l-11.598 5.907A6.909 6.909 0 0 1 19.35 9.498l1.374-.7l.205-.105a8.439 8.439 0 0 0-13.371 7.472a1.535 1.535 0 0 1-.834 1.484l-.725.37v1.724l2.134-1.088l.691-.353l.681-.347l12.226-6.23l1.374-.699l2.84-1.447V7.856zm2.816 2.012L10.201 19.32l-1.374.7L6 21.463v1.723l2.808-1.43l2.401-1.224l11.61-5.916a6.909 6.909 0 0 1-10.229 6.93l-.085.045l-1.49.76a8.439 8.439 0 0 0 13.372-7.475a1.54 1.54 0 0 1 .833-1.483l.726-.37v-1.718z"></path></svg>