<svg xmlns="http://www.w3.org/2000/svg" xmlns:xlink="http://www.w3.org/1999/xlink" aria-hidden="true" role="img" width="64" height="64" viewBox="0 0 32 32" style="color: rgb(0, 0, 0);"><path fill="currentColor" d="M16 32C7.163 32 0 24.837 0 16S7.163 0 16 0s16 7.163 16 16s-7.163 16-16 16m7.07-24l-4.574 4.523a3.556 3.556 0 0 1-4.996 0L8.93 8H6.035l6.02 5.957a5.62 5.62 0 0 0 7.89 0L25.961 8zM8.895 24.563L13.504 20a3.556 3.556 0 0 1 4.996 0l4.605 4.563H26l-6.055-5.993a5.62 5.62 0 0 0-7.89 0L6 24.562z"></path></svg>