<svg xmlns="http://www.w3.org/2000/svg" xmlns:xlink="http://www.w3.org/1999/xlink" aria-hidden="true" role="img" width="64" height="64" viewBox="0 0 32 32" style="color: rgb(0, 0, 0);"><path fill="currentColor" fill-rule="evenodd" d="M16 32C7.163 32 0 24.837 0 16S7.163 0 16 0s16 7.163 16 16s-7.163 16-16 16m-.904-12.154a37 37 0 0 0 1.518-1.778a462 462 0 0 0 3.714-4.58c.387-.48.968-.958 1.065-1.505c.194-1.026.065-2.12.065-3.248H17.55V6h-3.132v2.803h-3.585v3.35h6.039c-.55.65-1.033 1.197-1.518 1.779a462 462 0 0 0-3.714 4.58c-.355.48-.936.958-1.033 1.505c-.194 1.026-.065 2.12-.065 3.214h3.876V26h3.261c-.064-.957-.097-1.846-.161-2.803h3.875v-3.35z"></path></svg>