<?xml version="1.0" encoding="UTF-8" standalone="no"?>
<!-- Generator: Adobe Illustrator 19.0.0, SVG Export Plug-In . SVG Version: 6.00 Build 0)  -->

<svg
   xmlns:dc="http://purl.org/dc/elements/1.1/"
   xmlns:cc="http://creativecommons.org/ns#"
   xmlns:rdf="http://www.w3.org/1999/02/22-rdf-syntax-ns#"
   xmlns:svg="http://www.w3.org/2000/svg"
   xmlns="http://www.w3.org/2000/svg"
   xmlns:sodipodi="http://sodipodi.sourceforge.net/DTD/sodipodi-0.dtd"
   xmlns:inkscape="http://www.inkscape.org/namespaces/inkscape"
   version="1.1"
   id="Layer_1"
   x="0px"
   y="0px"
   viewBox="0 0 96 96"
   width="96"
   height="96"
   style="enable-background:new 0 0 96 96;"
   xml:space="preserve"
   inkscape:version="0.91 r13725"
   sodipodi:docname="icon.svg"><metadata
     id="metadata11"><rdf:RDF><cc:Work
         rdf:about=""><dc:format>image/svg+xml</dc:format><dc:type
           rdf:resource="http://purl.org/dc/dcmitype/StillImage" /></cc:Work></rdf:RDF></metadata><defs
     id="defs9" /><sodipodi:namedview
     pagecolor="#ffffff"
     bordercolor="#666666"
     borderopacity="1"
     objecttolerance="10"
     gridtolerance="10"
     guidetolerance="10"
     inkscape:pageopacity="0"
     inkscape:pageshadow="2"
     inkscape:window-width="1920"
     inkscape:window-height="1022"
     id="namedview7"
     showgrid="false"
     inkscape:zoom="2.4583333"
     inkscape:cx="48.813559"
     inkscape:cy="48"
     inkscape:window-x="2820"
     inkscape:window-y="32"
     inkscape:window-maximized="1"
     inkscape:current-layer="Layer_1" /><style
     type="text/css"
     id="style3">
	.st0{fill:#333333;}
</style><g
     id="XMLID_1_"
     style="fill:#ff0000"><path
       id="XMLID_7_"
       class="st0"
       d="M48,57.3h18.6v4.6H48V57.3z M34.1,61.9L48,48L34.1,34.1l-3.5,3.5L41,48L30.6,58.4L34.1,61.9z    M80.5,24.8v46.4c0,2.6-2.1,4.6-4.6,4.6H20.1c-2.6,0-4.6-2.1-4.6-4.6V24.8c0-2.6,2.1-4.6,4.6-4.6h55.7   C78.4,20.1,80.5,22.2,80.5,24.8z M75.9,24.8H20.1v46.4h55.7V24.8z"
       style="fill:#ff0000" /></g></svg>