<?xml version="1.0" encoding="UTF-8" standalone="no"?>
<svg
   viewBox="0 0 16 16"
   version="1.1"
   id="svg6"
   sodipodi:docname="yaru-off-symbolic.svg"
   inkscape:version="1.2.2 (b0a8486541, 2022-12-01)"
   xmlns:inkscape="http://www.inkscape.org/namespaces/inkscape"
   xmlns:sodipodi="http://sodipodi.sourceforge.net/DTD/sodipodi-0.dtd"
   xmlns="http://www.w3.org/2000/svg"
   xmlns:svg="http://www.w3.org/2000/svg">
  <defs
     id="defs10" />
  <sodipodi:namedview
     id="namedview8"
     pagecolor="#ffffff"
     bordercolor="#000000"
     borderopacity="0.25"
     inkscape:showpageshadow="2"
     inkscape:pageopacity="0.0"
     inkscape:pagecheckerboard="0"
     inkscape:deskcolor="#d1d1d1"
     showgrid="false"
     inkscape:lockguides="false"
     inkscape:zoom="49.25"
     inkscape:cx="7.3908629"
     inkscape:cy="8"
     inkscape:window-width="1860"
     inkscape:window-height="968"
     inkscape:window-x="0"
     inkscape:window-y="40"
     inkscape:window-maximized="1"
     inkscape:current-layer="svg6" />
  <path
     d="m 8,12.999 a 5,5 0 1 1 0,-10 5,5 0 0 1 0,10 z m 0,-1 v -8 a 4,4 0 0 0 0,8 z m 0.5,4 h -1 v -2 h 1 z m 4.803,-1.99 -1.413,-1.414 0.707,-0.707 1.414,1.414 z m -10.606,0 -0.707,-0.707 1.414,-1.413 0.707,0.707 z M 16,8.499 h -2 v -1 h 2 z m -14,0 H 0 v -1 H 2 Z M 12.596,4.11 11.889,3.403 13.303,1.989 14.01,2.696 Z M 3.404,4.11 1.99,2.696 2.697,1.989 4.111,3.403 Z M 8.5,2 h -1 V 0 h 1 z"
     id="path2"
     style="fill:#808080"
     inkscape:transform-center-x="0.33350601"
     inkscape:transform-center-y="-0.020304569" />
  <path
     d="m 8.050541,2.9399271 a 4.9828448,5.0172143 44.901539 1 1 0,9.9999999 4.9828448,5.0172143 44.901539 0 1 0,-9.9999999 z m 0,1 v 7.9999999 a 3.9862758,4.0137714 44.901539 0 0 0,-7.9999999 z m -0.5,-3.99656306 1,-0.0068739 V 1.9364902 l -1,0.00687 z m -4.8030002,2.02301526 1.413,1.4042872 -0.707,0.7118599 -1.414,-1.4042803 z m 10.6060002,-0.072904 0.707,0.7021401 -1.414,1.4227197 -0.707,-0.7021402 z M 0.05054082,7.4949182 2.0505408,7.4811704 v 1 l -1.99999998,0.013748 z m 14.00000018,-0.096234 2,-0.013748 v 1 l -2,0.013748 z m -10.5960002,4.4618352 0.707,0.702141 -1.414,1.423719 -0.707,-0.70214 z m 9.1920002,-0.06318 1.414,1.40428 -0.707,0.71186 -1.414,-1.404281 z m -5.096,2.145029 1,-0.0069 v 2 l -1,0.0069 z"
     id="path2-3"
     style="fill:#808080" />
  <g
     inkscape:groupmode="layer"
     id="layer1"
     inkscape:label="Layer 1" />
</svg>
