<?xml version="1.0" encoding="iso-8859-1"?>
<!-- Generator: Adobe Illustrator 16.0.0, SVG Export Plug-In . SVG Version: 6.00 Build 0)  -->
<!DOCTYPE svg PUBLIC "-//W3C//DTD SVG 1.1//EN" "http://www.w3.org/Graphics/SVG/1.1/DTD/svg11.dtd">
<svg version="1.1" id="Capa_1" xmlns="http://www.w3.org/2000/svg" xmlns:xlink="http://www.w3.org/1999/xlink" x="0px" y="0px"
	 width="34.083px" height="34.083px" viewBox="0 0 34.083 34.083" style="enable-background:new 0 0 34.083 34.083;"
	 xml:space="preserve">
<g>
	<path d="M2.501,29.572c-0.64,0-1.279-0.244-1.768-0.732c-0.977-0.976-0.977-2.559,0-3.534l8.264-8.264L0.733,8.779
		c-0.977-0.977-0.977-2.56,0-3.535c0.977-0.977,2.559-0.977,3.535,0l10.031,10.031c0.469,0.469,0.731,1.104,0.731,1.768
		s-0.264,1.298-0.731,1.769l-10.03,10.03C3.78,29.328,3.14,29.572,2.501,29.572z M34.083,27.072c0-1.381-1.119-2.5-2.5-2.5H16.946
		c-1.381,0-2.5,1.119-2.5,2.5s1.119,2.5,2.5,2.5h14.637C32.963,29.572,34.083,28.453,34.083,27.072z"/>
</g>
<g>
</g>
<g>
</g>
<g>
</g>
<g>
</g>
<g>
</g>
<g>
</g>
<g>
</g>
<g>
</g>
<g>
</g>
<g>
</g>
<g>
</g>
<g>
</g>
<g>
</g>
<g>
</g>
<g>
</g>
</svg>
