<?xml version="1.0" encoding="UTF-8" standalone="no"?>
<!-- Created with Inkscape (http://www.inkscape.org/) -->

<svg
   xmlns:dc="http://purl.org/dc/elements/1.1/"
   xmlns:cc="http://creativecommons.org/ns#"
   xmlns:rdf="http://www.w3.org/1999/02/22-rdf-syntax-ns#"
   xmlns:svg="http://www.w3.org/2000/svg"
   xmlns="http://www.w3.org/2000/svg"
   xmlns:xlink="http://www.w3.org/1999/xlink"
   xmlns:sodipodi="http://sodipodi.sourceforge.net/DTD/sodipodi-0.dtd"
   xmlns:inkscape="http://www.inkscape.org/namespaces/inkscape"
   width="16"
   height="16"
   id="svg2"
   sodipodi:version="0.32"
   inkscape:version="0.91 r13725"
   version="1.0"
   sodipodi:docname="start-here-fedora-symbolic.svg"
   inkscape:output_extension="org.inkscape.output.svg.inkscape"
   style="display:inline">
  <defs
     id="defs4">
    <radialGradient
       gradientUnits="userSpaceOnUse"
       id="radial-gradient"
       fy="133.10451"
       fx="115.8989"
       r="154.62019"
       cy="133.10451"
       cx="115.8989">
      <stop
         id="translucent-stop-color"
         offset="0"
         style="stop-color:#003364;stop-opacity:0;" />
      <stop
         id="opaque-blue-stop-color"
         offset="1"
         style="stop-color:#0067c8;stop-opacity:1;" />
    </radialGradient>
    <radialGradient
       inkscape:collect="always"
       xlink:href="#radial-gradient"
       id="radialGradient4055"
       gradientUnits="userSpaceOnUse"
       gradientTransform="matrix(0.0634123,0,0,0.06341405,-20.000556,6.0005576)"
       cx="126.15849"
       cy="126.15498"
       fx="126.15849"
       fy="126.15498"
       r="154.62019" />
  </defs>
  <sodipodi:namedview
     id="base"
     pagecolor="#ffffff"
     bordercolor="#f05656"
     borderopacity="1"
     inkscape:pageopacity="0.0"
     inkscape:pageshadow="2"
     inkscape:zoom="16.008898"
     inkscape:cx="-25.328103"
     inkscape:cy="16.621815"
     inkscape:document-units="px"
     inkscape:current-layer="layer1"
     showgrid="true"
     inkscape:showpageshadow="false"
     showguides="false"
     inkscape:guide-bbox="true"
     inkscape:window-width="1024"
     inkscape:window-height="716"
     inkscape:window-x="0"
     inkscape:window-y="0"
     inkscape:window-maximized="1">
    <sodipodi:guide
       orientation="1,0"
       position="0,112"
       id="guide2383" />
    <sodipodi:guide
       orientation="0,1"
       position="26.278146,128"
       id="guide2385" />
    <sodipodi:guide
       orientation="1,0"
       position="128,54.082119"
       id="guide2387" />
    <sodipodi:guide
       orientation="0,1"
       position="78.156291,0"
       id="guide2389" />
    <sodipodi:guide
       orientation="0,1"
       position="60.863576,64.084768"
       id="guide2391" />
    <inkscape:grid
       type="xygrid"
       id="grid3672"
       visible="true"
       enabled="true"
       empspacing="8"
       snapvisiblegridlinesonly="true" />
  </sodipodi:namedview>
  <metadata
     id="metadata7">
    <rdf:RDF>
      <cc:Work
         rdf:about="">
        <dc:format>image/svg+xml</dc:format>
        <dc:type
           rdf:resource="http://purl.org/dc/dcmitype/StillImage" />
        <dc:title />
      </cc:Work>
    </rdf:RDF>
  </metadata>
  <g
     inkscape:groupmode="layer"
     id="layer2"
     inkscape:label="Dark background"
     sodipodi:insensitive="true"
     style="display:none"
     transform="translate(0,-6)">
    <rect
       y="0"
       x="0"
       height="22"
       width="22"
       id="rect4898"
       style="fill:#333333;fill-opacity:1;fill-rule:nonzero;stroke:none;display:inline" />
  </g>
  <g
     inkscape:groupmode="layer"
     id="layer3"
     inkscape:label="Pale darkground"
     sodipodi:insensitive="true"
     style="display:none"
     transform="translate(0,-6)">
    <rect
       style="fill:#efebe7;fill-opacity:1;fill-rule:nonzero;stroke:none"
       id="rect4126"
       width="22"
       height="22"
       x="0"
       y="0" />
  </g>
  <g
     inkscape:label="Button"
     inkscape:groupmode="layer"
     id="layer1"
     style="display:inline"
     transform="translate(0,-6)">
    <path
       style="fill:#d40000;fill-opacity:1;stroke:none"
       d="m -13.375,32 c -0.69219,0.04617 -1.48522,0.350316 -2.125,0.875 -0.783895,0.642873 -1.420629,2.277217 -1.25,3.1875 0.08798,0.469342 0.442147,1.040424 0.78125,1.21875 0.631484,0.332085 1.782432,-0.218771 2.84375,-1.34375 1.146489,-1.215261 1.672995,-2.554322 1.28125,-3.3125 C -12.084503,32.159052 -12.68281,31.953827 -13.375,32 z m -5.65625,0.71875 c -0.962961,8.66e-4 -1.472444,0.677958 -1.46875,1.96875 0.0025,0.88392 0.31322,1.679132 0.71875,1.875 0.301512,0.145631 0.309051,0.132036 0.6875,0 0.626864,-0.218707 1.215803,-1.678559 1.09375,-2.65625 -0.09989,-0.800159 -0.443807,-1.188029 -1.03125,-1.1875 z m -3.8125,1.3125 c -0.180183,0.02605 -0.360903,0.142012 -0.53125,0.3125 -0.343364,0.343646 -0.347944,0.530957 -0.34375,1.1875 0.0049,0.774303 0.193895,1.196475 0.71875,1.75 0.392601,0.414046 0.675716,0.438798 1.03125,0.0625 0.385138,-0.407633 0.504721,-1.047693 0.375,-1.75 -0.197834,-1.071067 -0.709451,-1.64066 -1.25,-1.5625 z m -2.6875,2.34375 c -0.186951,0.03041 -0.35545,0.136555 -0.53125,0.3125 -0.461346,0.46173 -0.138669,1.731398 0.59375,2.375 0.874175,0.768169 1.580077,0.06483 1.28125,-1.28125 -0.212654,-0.957908 -0.782897,-1.497481 -1.34375,-1.40625 z M -17.5,38.0625 c -0.61906,-0.01065 -1.312804,0.04097 -2.03125,0.1875 -1.85076,0.377471 -3.33166,1.075449 -4.28125,2.03125 -0.546889,0.550465 -0.859803,1.060056 -1.125,1.84375 -0.641919,1.896963 0.546896,4.595678 2.8125,6.4375 0.844088,0.686203 1.359152,0.993313 2.21875,1.28125 0.445736,0.149308 0.799163,0.183992 1.625,0.15625 0.946716,-0.03181 1.139252,-0.07408 1.75,-0.375 0.895036,-0.440989 1.909553,-1.461035 2.34375,-2.34375 0.264885,-0.5385 0.307321,-0.768628 0.28125,-1.21875 -0.04452,-0.768578 -0.342658,-0.977756 -1.3125,-0.96875 -1.38452,0.01285 -1.965756,0.333932 -2.25,1.3125 -0.21469,0.739118 -0.452038,1 -0.9375,1 -0.769368,0 -1.5625,-0.611791 -1.5625,-1.25 0,-0.443994 0.715313,-1.10577 2.5,-2.3125 2.514116,-1.69994 3.378489,-2.734111 3.25,-3.875 -0.13273,-1.178551 -1.42407,-1.874295 -3.28125,-1.90625 z"
       id="path4951"
       inkscape:connector-curvature="0" />
    <path
       style="fill:#bebebe;fill-opacity:1;display:inline"
       d="m 28,6 c -4.416222,0 -7.996956,3.5841633 -8,8 l 0,5.0625 0,1.125 0,0.21875 C 20,21.29265 20.70735,22 21.59375,22 L 21.8125,22 28,22 c 4.416666,-0.0018 8,-3.582768 8,-8 0,-4.4185636 -3.581748,-8 -8,-8 z m 1.875,3 C 31.596951,9 33,10.402844 33,12.125 c 0,1.72205 -1.403049,3.093809 -3.125,3.09375 l -1.625,0 0,1.65625 C 28.25,18.597314 26.84695,20 25.125,20 23.402892,20 22,18.597314 22,16.875 c 0,-1.722051 1.402839,-3.093691 3.125,-3.09375 l 1.625,0 0,-1.65625 C 26.75,10.402845 28.152787,9 29.875,9 z m 0,1.46875 c -0.907975,0 -1.62344,0.748304 -1.625,1.65625 l 0,1.40625 c 0,0.128496 0.09036,0.25 0.21875,0.25 l 1.40625,0 c 0.90887,0 1.65625,-0.747303 1.65625,-1.65625 0,-0.909053 -0.74738,-1.65625 -1.65625,-1.65625 z m -4.75,4.75 c -0.90887,0 -1.65625,0.74704 -1.65625,1.65625 0,0.908896 0.74738,1.65625 1.65625,1.65625 0.907922,0 1.62369,-0.748829 1.625,-1.65625 l 0,-1.40625 c 0,-0.128178 -0.09036,-0.25 -0.21875,-0.25 l -1.40625,0 z"
       id="speech-bubble"
       inkscape:connector-curvature="0" />
    <path
       style="opacity:0.35;fill:#bebebe;fill-opacity:1;display:inline"
       d="m 30.25,9.03125 c 0.0994,0.015202 0.202231,0.033635 0.3125,0.0625 C 30.459444,9.070266 30.35666,9.044242 30.25,9.03125 z m 0.3125,0.0625 c 0.352669,0.09247 0.656093,0.38245 0.65625,0.71875 1.59e-4,0.406551 -0.308969,0.6875 -0.75,0.6875 -0.08823,0 -0.182001,0.0082 -0.25,0 0.751236,0.153476 1.3125,0.829579 1.3125,1.625 0,0.908947 -0.74738,1.65625 -1.65625,1.65625 l -0.3125,0 c 0.402749,0 0.718434,0.314937 0.71875,0.71875 0,0.403971 -0.316159,0.71875 -0.71875,0.71875 l 0.3125,0 C 31.596951,15.218809 33,13.84705 33,12.125 33,10.641972 31.949642,9.4098513 30.5625,9.09375 z m -5.4375,4.6875 C 23.402839,13.781309 22,15.152949 22,16.875 c 0,1.483164 1.050258,2.715157 2.4375,3.03125 -0.35269,-0.09242 -0.656092,-0.382557 -0.65625,-0.71875 0,-0.406446 0.308757,-0.6875 0.75,-0.6875 0.08814,0 0.182,-0.0082 0.25,0 -0.751206,-0.153463 -1.3125,-0.829716 -1.3125,-1.625 0,-0.90921 0.74738,-1.65625 1.65625,-1.65625 l 0.3125,0 c -0.402854,0 -0.71875,-0.314672 -0.71875,-0.71875 -1.05e-4,-0.40634 0.34288,-0.71875 0.75,-0.71875 l -0.34375,0 z m -0.6875,6.125 c 0.103063,0.02348 0.205831,0.04951 0.3125,0.0625 -0.0994,-0.01521 -0.202231,-0.03361 -0.3125,-0.0625 z"
       id="f-script-path"
       inkscape:connector-curvature="0" />
    <path
       style="fill:#bebebe;display:inline;fill-opacity:1"
       d="M 8 0 C 3.583778 0 0.003044 3.5841633 0 8 L 0 13.0625 L 0 14.1875 L 0 14.40625 C 0 15.29265 0.70735 16 1.59375 16 L 1.8125 16 L 8 16 C 12.416666 15.9982 16 12.417232 16 8 C 16 3.5814364 12.418252 0 8 0 z M 10.3125 2 C 12.347533 2 14 3.6522247 14 5.6875 C 14 7.72265 12.347533 9.3438 10.3125 9.34375 L 8.375 9.34375 L 8.375 11.3125 C 8.375 13.347962 6.722533 15 4.6875 15 C 2.652281 15 1 13.347962 1 11.3125 C 1 9.277348 2.652219 7.625052 4.6875 7.625 L 6.625 7.625 L 6.625 5.6875 C 6.625 3.6522258 8.277156 2 10.3125 2 z M 10.3125 3.75 C 9.23944 3.75 8.3769 4.614473 8.375 5.6875 L 8.375 7.375 C 8.375 7.526859 8.50452 7.625 8.65625 7.625 L 10.3125 7.625 C 11.386619 7.625 12.28125 6.761711 12.28125 5.6875 C 12.28125 4.613165 11.386619 3.75 10.3125 3.75 z M 4.6875 9.34375 C 3.613381 9.34375 2.71875 10.237979 2.71875 11.3125 C 2.71875 12.38665 3.613381 13.25 4.6875 13.25 C 5.760499 13.25 6.6235 12.384906 6.625 11.3125 L 6.625 9.625 C 6.625 9.473517 6.495479 9.34375 6.34375 9.34375 L 4.6875 9.34375 z "
       transform="translate(0,6)"
       id="path4037" />
    <path
       style="fill:#bebebe;fill-opacity:1;display:inline;opacity:0.45"
       d="M 10.75 2.03125 C 10.869158 2.0492455 10.992846 2.0591555 11.125 2.09375 C 11.002808 2.0662941 10.87645 2.0462315 10.75 2.03125 z M 11.125 2.09375 C 11.541791 2.2030327 11.874815 2.5713046 11.875 2.96875 C 11.875188 3.4492195 11.552468 3.78125 11.03125 3.78125 C 10.923488 3.78125 10.802123 3.7913864 10.71875 3.78125 C 11.606575 3.9626306 12.28125 4.7474569 12.28125 5.6875 C 12.28125 6.761711 11.386619 7.625 10.3125 7.625 L 9.9375 7.625 C 10.413476 7.625 10.780876 8.022767 10.78125 8.5 C 10.78125 8.97742 10.413288 9.34375 9.9375 9.34375 L 10.3125 9.34375 C 12.347533 9.3438 14 7.72265 14 5.6875 C 14 3.9309772 12.769783 2.4633236 11.125 2.09375 z M 4.6875 7.625 C 2.652219 7.625052 1 9.277348 1 11.3125 C 1 13.199689 2.4213107 14.752115 4.25 14.96875 C 4.1305576 14.950741 4.0074565 14.909697 3.875 14.875 C 3.458185 14.765776 3.125187 14.428569 3.125 14.03125 C 3.125 13.550905 3.44728 13.21875 3.96875 13.21875 C 4.076403 13.21875 4.1978739 13.208598 4.28125 13.21875 C 3.3934616 13.037384 2.71875 12.252381 2.71875 11.3125 C 2.71875 10.237979 3.613381 9.34375 4.6875 9.34375 L 5.0625 9.34375 C 4.586401 9.34375 4.21875 8.977547 4.21875 8.5 C 4.218626 8.01978 4.612609 7.625 5.09375 7.625 L 4.6875 7.625 z M 6.46875 12.0625 C 6.3701719 12.294812 6.2384583 12.511801 6.0625 12.6875 C 6.2384665 12.511817 6.3701507 12.294824 6.46875 12.0625 z "
       transform="translate(0,6)"
       id="path4039" />
    <path
       inkscape:connector-curvature="0"
       style="fill:url(#radialGradient4055);display:inline"
       d="m -12.000556,6.0005558 c -4.416222,0 -7.996956,3.5841635 -8,8.0000002 l 0,5.075 0,1.1 0,0.225 c 0,0.8864 0.7136,1.6 1.6,1.6 l 0.225,0 6.175,0 c 4.416666,-0.0018 8,-3.582768 8,-8 0,-4.4185636 -3.581748,-8.0000002 -8,-8.0000002 z"
       id="path4049" />
    <path
       inkscape:connector-curvature="0"
       id="path4051"
       style="fill:#0b6fd1;fill-opacity:1;display:inline"
       d="m -9.684868,7.9994956 c -2.035344,0 -3.685139,1.6499042 -3.685139,3.6851784 0,6.87e-4 0,0.0017 0,0.0025 l 0,1.950446 -1.944419,0 c -3.1e-4,0 -3.1e-4,0 -4.97e-4,0 C -17.350204,13.637672 -19,15.279547 -19,17.314699 -19,19.350161 -17.350142,21 -15.314923,21 c 2.035033,0 3.68489,-1.649839 3.68489,-3.685301 0,-7.49e-4 0,-0.0014 0,-0.0027 l 0,-1.958538 1.944356,0 c 4.36e-4,0 6.23e-4,0 7.85e-4,0 C -7.649859,15.353511 -6,13.719727 -6,11.684577 -6,9.6493017 -7.649859,7.9993977 -9.684892,7.9993977 z m -3.685139,9.3186874 c -0.0015,1.072406 -0.871917,1.941795 -1.944916,1.941795 -1.074119,0 -1.952944,-0.870819 -1.952944,-1.944969 0,-1.074521 0.878825,-1.961462 1.952944,-1.961462 8.72e-4,0 0.0018,0 0.0026,0 l 1.6666,0 c 5.59e-4,0 8.71e-4,0 0.0013,0 0.151729,0 0.274768,0.122794 0.274768,0.274277 0,3.12e-4 -1.87e-4,3.12e-4 -1.87e-4,6.86e-4 l 0,1.689673 -6.1e-5,0 z m 3.684953,-3.680511 c -6.23e-4,0 -0.0012,0 -0.0019,0 l -1.667719,0 c -3.73e-4,0 -7.84e-4,0 -10e-4,0 -0.15173,0 -0.274457,-0.12273 -0.274457,-0.274589 l 0,-6.3e-5 0,-1.68152 c 0.0019,-1.073027 0.871917,-1.9421059 1.944977,-1.9421059 1.074119,0 1.953133,0.8708829 1.953133,1.9452179 0,1.074211 -0.879014,1.95306 -1.953133,1.95306 z" />
    <path
       inkscape:connector-curvature="0"
       d="m -13.370007,13.637672 0,-1.950507 c 0,-8.72e-4 0,-0.0018 0,-0.0025 0,-2.0352749 1.649795,-3.6851783 3.685139,-3.6851783 0.308749,0 0.528128,0.034789 0.813912,0.1095995 0.416791,0.1092827 0.757156,0.4507206 0.757341,0.848166 1.88e-4,0.4804695 -0.348579,0.8297441 -0.869797,0.8297441 -0.248321,0 -0.338065,-0.047545 -0.701642,-0.047545 -1.073062,0 -1.943173,0.8690777 -1.944979,1.9421067 l 0,1.681458 0,6.4e-5 c 0,0.151857 0.122727,0.274588 0.274457,0.274588 1.87e-4,0 6.23e-4,0 0.0011,0 l 1.277193,0 c 0.475976,0 0.860341,0.381078 0.860715,0.858311 0,0.47742 -0.384927,0.857627 -0.860715,0.857627 l -1.552647,0 0,1.958536 c 0,0.0012 0,0.0018 0,0.003 C -11.62998,19.350156 -13.279837,21 -15.31487,21 c -0.308811,0 -0.528191,-0.0348 -0.813976,-0.109661 -0.416815,-0.109224 -0.757304,-0.45084 -0.757491,-0.848159 0,-0.480345 0.348517,-0.829744 0.869987,-0.829744 0.24807,0 0.338062,0.04762 0.701454,0.04762 1.073061,0 1.943422,-0.869141 1.945103,-1.941794 0,0 0,-1.689984 0,-1.690296 0,-0.151547 -0.123041,-0.274278 -0.27477,-0.274278 -1.86e-4,0 -3.73e-4,0 -6.84e-4,0 l -1.277132,0 c -0.476099,0 -0.860776,-0.379833 -0.860776,-0.85738 -1.24e-4,-0.48022 0.38866,-0.858496 0.869801,-0.858496 l 1.543374,0 0,-6.3e-5 z"
       style="fill:#ffffff;display:inline"
       id="path4053" />
  </g>
</svg>
