<?xml version="1.0" encoding="UTF-8" standalone="no"?>
<!-- Created with Inkscape (http://www.inkscape.org/) -->

<svg
   xmlns:dc="http://purl.org/dc/elements/1.1/"
   xmlns:cc="http://creativecommons.org/ns#"
   xmlns:rdf="http://www.w3.org/1999/02/22-rdf-syntax-ns#"
   xmlns:svg="http://www.w3.org/2000/svg"
   xmlns="http://www.w3.org/2000/svg"
   xmlns:sodipodi="http://sodipodi.sourceforge.net/DTD/sodipodi-0.dtd"
   xmlns:inkscape="http://www.inkscape.org/namespaces/inkscape"
   width="16"
   height="16"
   id="svg2"
   sodipodi:version="0.32"
   inkscape:version="0.91 r13725"
   version="1.0"
   sodipodi:docname="start-here-debian-symbolic.svg"
   inkscape:output_extension="org.inkscape.output.svg.inkscape"
   style="display:inline">
  <defs
     id="defs4" />
  <sodipodi:namedview
     id="base"
     pagecolor="#ffffff"
     bordercolor="#f05656"
     borderopacity="1"
     inkscape:pageopacity="0.0"
     inkscape:pageshadow="2"
     inkscape:zoom="16.008898"
     inkscape:cx="-14.709009"
     inkscape:cy="16.590582"
     inkscape:document-units="px"
     inkscape:current-layer="layer1"
     showgrid="true"
     inkscape:showpageshadow="false"
     showguides="false"
     inkscape:guide-bbox="true"
     inkscape:window-width="1024"
     inkscape:window-height="716"
     inkscape:window-x="0"
     inkscape:window-y="0"
     inkscape:window-maximized="1">
    <sodipodi:guide
       orientation="1,0"
       position="0,112"
       id="guide2383" />
    <sodipodi:guide
       orientation="0,1"
       position="26.278146,128"
       id="guide2385" />
    <sodipodi:guide
       orientation="1,0"
       position="128,54.082119"
       id="guide2387" />
    <sodipodi:guide
       orientation="0,1"
       position="78.156291,0"
       id="guide2389" />
    <sodipodi:guide
       orientation="0,1"
       position="60.863576,64.084768"
       id="guide2391" />
    <inkscape:grid
       type="xygrid"
       id="grid3672"
       visible="true"
       enabled="true"
       empspacing="8"
       snapvisiblegridlinesonly="true" />
  </sodipodi:namedview>
  <metadata
     id="metadata7">
    <rdf:RDF>
      <cc:Work
         rdf:about="">
        <dc:format>image/svg+xml</dc:format>
        <dc:type
           rdf:resource="http://purl.org/dc/dcmitype/StillImage" />
        <dc:title />
      </cc:Work>
    </rdf:RDF>
  </metadata>
  <g
     inkscape:groupmode="layer"
     id="layer2"
     inkscape:label="Dark background"
     sodipodi:insensitive="true"
     style="display:none"
     transform="translate(0,-6)">
    <rect
       y="0"
       x="0"
       height="22"
       width="22"
       id="rect4898"
       style="fill:#333333;fill-opacity:1;fill-rule:nonzero;stroke:none;display:inline" />
  </g>
  <g
     inkscape:groupmode="layer"
     id="layer3"
     inkscape:label="Pale darkground"
     sodipodi:insensitive="true"
     style="display:none"
     transform="translate(0,-6)">
    <rect
       style="fill:#efebe7;fill-opacity:1;fill-rule:nonzero;stroke:none"
       id="rect4126"
       width="22"
       height="22"
       x="0"
       y="0" />
  </g>
  <g
     inkscape:label="Button"
     inkscape:groupmode="layer"
     id="layer1"
     style="display:inline"
     transform="translate(0,-6)">
    <path
       style="fill:#d40000;fill-opacity:1;stroke:none"
       d="m -13.375,32 c -0.69219,0.04617 -1.48522,0.350316 -2.125,0.875 -0.783895,0.642873 -1.420629,2.277217 -1.25,3.1875 0.08798,0.469342 0.442147,1.040424 0.78125,1.21875 0.631484,0.332085 1.782432,-0.218771 2.84375,-1.34375 1.146489,-1.215261 1.672995,-2.554322 1.28125,-3.3125 C -12.084503,32.159052 -12.68281,31.953827 -13.375,32 z m -5.65625,0.71875 c -0.962961,8.66e-4 -1.472444,0.677958 -1.46875,1.96875 0.0025,0.88392 0.31322,1.679132 0.71875,1.875 0.301512,0.145631 0.309051,0.132036 0.6875,0 0.626864,-0.218707 1.215803,-1.678559 1.09375,-2.65625 -0.09989,-0.800159 -0.443807,-1.188029 -1.03125,-1.1875 z m -3.8125,1.3125 c -0.180183,0.02605 -0.360903,0.142012 -0.53125,0.3125 -0.343364,0.343646 -0.347944,0.530957 -0.34375,1.1875 0.0049,0.774303 0.193895,1.196475 0.71875,1.75 0.392601,0.414046 0.675716,0.438798 1.03125,0.0625 0.385138,-0.407633 0.504721,-1.047693 0.375,-1.75 -0.197834,-1.071067 -0.709451,-1.64066 -1.25,-1.5625 z m -2.6875,2.34375 c -0.186951,0.03041 -0.35545,0.136555 -0.53125,0.3125 -0.461346,0.46173 -0.138669,1.731398 0.59375,2.375 0.874175,0.768169 1.580077,0.06483 1.28125,-1.28125 -0.212654,-0.957908 -0.782897,-1.497481 -1.34375,-1.40625 z M -17.5,38.0625 c -0.61906,-0.01065 -1.312804,0.04097 -2.03125,0.1875 -1.85076,0.377471 -3.33166,1.075449 -4.28125,2.03125 -0.546889,0.550465 -0.859803,1.060056 -1.125,1.84375 -0.641919,1.896963 0.546896,4.595678 2.8125,6.4375 0.844088,0.686203 1.359152,0.993313 2.21875,1.28125 0.445736,0.149308 0.799163,0.183992 1.625,0.15625 0.946716,-0.03181 1.139252,-0.07408 1.75,-0.375 0.895036,-0.440989 1.909553,-1.461035 2.34375,-2.34375 0.264885,-0.5385 0.307321,-0.768628 0.28125,-1.21875 -0.04452,-0.768578 -0.342658,-0.977756 -1.3125,-0.96875 -1.38452,0.01285 -1.965756,0.333932 -2.25,1.3125 -0.21469,0.739118 -0.452038,1 -0.9375,1 -0.769368,0 -1.5625,-0.611791 -1.5625,-1.25 0,-0.443994 0.715313,-1.10577 2.5,-2.3125 2.514116,-1.69994 3.378489,-2.734111 3.25,-3.875 -0.13273,-1.178551 -1.42407,-1.874295 -3.28125,-1.90625 z"
       id="path4951"
       inkscape:connector-curvature="0" />
    <path
       sodipodi:type="inkscape:offset"
       inkscape:radius="0.13189709"
       inkscape:original="M 11.5625 2.09375 C 10.447125 2.0352539 9.4625623 2.6928537 8.53125 3.21875 C 7.5958693 3.82525 6.7775141 4.6464617 6.34375 5.6875 C 5.3066879 6.9294087 5.0807003 8.626822 5.1875 10.1875 C 5.145656 12.322377 5.864666 14.487913 7.25 16.125 C 8.5732566 17.76516 10.558317 19.015377 12.71875 19 C 11.655599 18.81907 10.74697 18.181703 9.875 17.59375 C 9.2523551 16.965595 8.5036635 16.445987 8.03125 15.6875 C 7.618275 15.014877 7.3870153 14.23973 7.125 13.5 C 6.4553317 12.784005 6.051779 11.855921 6.09375 10.875 C 5.8846805 9.1066548 6.3868865 7.2276279 7.5625 5.875 C 8.394252 5.330186 9.1277698 4.6228261 10.0625 4.25 C 11.000001 3.6286006 12.154921 3.490654 13.25 3.5625 C 15.253102 3.813158 16.993342 5.5800091 17.1875 7.59375 C 17.437597 8.122475 17.030921 8.7885761 17.25 9.28125 C 17.045108 11.325317 14.764476 12.941363 12.78125 12.3125 C 11.144819 11.726435 10.186577 9.4918406 11.1875 8 C 11.939116 6.9523849 13.538247 6.5807991 14.625 7.3125 C 14.297508 6.8237869 13.578221 6.5768523 12.96875 6.59375 C 11.970886 6.59661 11.06323 7.2659402 10.65625 8.15625 C 9.8827141 9.5418256 10.398812 11.486096 11.8125 12.25 C 12.170086 12.859286 11.394216 12.32876 11.34375 12.3125 C 11.708159 12.703855 10.46833 11.59376 11.0625 12.25 C 11.628673 12.79037 12.375191 13.075411 13.15625 13.1875 C 12.844414 13.115367 12.58487 13.011335 12.59375 12.8125 C 14.374816 13.316147 16.478805 12.52352 17.40625 10.90625 C 17.867854 10.377308 17.994736 9.6319357 18.3125 9.03125 C 18.39805 8.2370523 18.31939 7.4351658 18.03125 6.6875 C 17.811928 5.9414424 18.619083 6.1900379 18.59375 6.78125 C 18.734085 7.7391064 18.58376 6.2505254 18.5 5.9375 C 18.213086 4.6770793 17.204648 3.7238122 16.125 3.09375 C 15.315928 2.6710368 14.36605 2.6042995 13.5 2.34375 C 12.847084 2.1576915 12.190985 2.3551224 11.5625 2.09375 z M 13.15625 13.1875 C 13.508161 13.268903 13.920281 13.287983 14.1875 13.25 C 13.840416 13.33654 13.500054 13.236839 13.15625 13.1875 z "
       style="fill:#bebebe;fill-opacity:1;display:inline"
       id="path4004"
       d="M 11.5625,1.96875 C 10.391442,1.9073336 9.3937267,2.5714313 8.46875,3.09375 7.5290468,3.7030527 6.7009689,4.5401227 6.25,5.59375 6.2443303,5.6069964 6.2242993,5.6116816 6.21875,5.625 5.1737713,6.9016799 4.9553363,8.621503 5.0625,10.1875 c -0.042458,2.166222 0.6859027,4.367558 2.09375,6.03125 1.3431662,1.664838 3.350611,2.921993 5.5625,2.90625 a 0.13191028,0.13191028 0 0 0 0.03125,0 0.13191028,0.13191028 0 0 0 0.03125,0 0.13191028,0.13191028 0 0 0 0.03125,-0.03125 0.13191028,0.13191028 0 0 0 0.03125,-0.03125 0.13191028,0.13191028 0 0 0 0,-0.03125 0.13191028,0.13191028 0 0 0 0,-0.03125 0.13191028,0.13191028 0 0 0 0,-0.03125 0.13191028,0.13191028 0 0 0 0,-0.03125 0.13191028,0.13191028 0 0 0 -0.03125,-0.03125 0.13191028,0.13191028 0 0 0 -0.03125,-0.03125 0.13191028,0.13191028 0 0 0 -0.03125,0 C 11.733649,18.702035 10.835202,18.084517 9.96875,17.5 c -0.00546,-0.0055 -0.025779,0.0055 -0.03125,0 C 9.3069635,16.867739 8.6059911,16.347085 8.15625,15.625 7.7554286,14.972172 7.5135422,14.212791 7.25,13.46875 a 0.13191028,0.13191028 0 0 0 0,-0.03125 0.13191028,0.13191028 0 0 0 -0.03125,-0.03125 C 6.5698656,12.712477 6.1784745,11.816295 6.21875,10.875 6.0155989,9.1567137 6.4977191,7.3185476 7.625,6 7.6346978,5.9886568 7.646457,5.9800175 7.65625,5.96875 8.4865672,5.4187136 9.2345435,4.7301671 10.125,4.375 c 0.894728,-0.5930481 2.025226,-0.7535536 3.09375,-0.6875 0.01037,6.413e-4 0.02088,-6.801e-4 0.03125,0 1.924121,0.2563574 3.625834,1.9702139 3.8125,3.90625 a 0.13191028,0.13191028 0 0 0 0,0.03125 0.13191028,0.13191028 0 0 0 0,0.03125 c 0.104078,0.2200286 0.07408,0.4883633 0.03125,0.78125 -0.04002,0.273702 -0.06866,0.566361 0.03125,0.84375 0.007,0.019443 -0.0086,0.04323 0,0.0625 -0.236528,1.924635 -2.439565,3.437641 -4.3125,2.84375 -0.775813,-0.277847 -1.381163,-0.964098 -1.6875,-1.75 -0.306337,-0.7859017 -0.285136,-1.6705528 0.1875,-2.375 0.714274,-0.9735615 2.236505,-1.3073771 3.25,-0.625 a 0.13191028,0.13191028 0 0 0 0.03125,0 0.13191028,0.13191028 0 0 0 0.03125,0 0.13191028,0.13191028 0 0 0 0.03125,0 0.13191028,0.13191028 0 0 0 0.03125,0 A 0.13191028,0.13191028 0 0 0 14.71875,7.40625 0.13191028,0.13191028 0 0 0 14.75,7.375 a 0.13191028,0.13191028 0 0 0 0,-0.03125 0.13191028,0.13191028 0 0 0 0,-0.03125 0.13191028,0.13191028 0 0 0 0,-0.03125 0.13191028,0.13191028 0 0 0 0,-0.03125 C 14.384228,6.7041615 13.61668,6.450786 12.96875,6.46875 c -1.056615,0.00303 -2.010084,0.689985 -2.4375,1.625 -0.7971094,1.427801 -0.269267,3.389459 1.15625,4.21875 0.0127,0.0074 0.01841,0.02405 0.03125,0.03125 0.0048,0.009 -0.0041,0.02313 0,0.03125 -0.05355,-0.0248 -0.10426,-0.06399 -0.15625,-0.09375 -0.03595,-0.02058 -0.06777,-0.04726 -0.09375,-0.0625 -0.01299,-0.0076 -0.02085,0.0058 -0.03125,0 -0.0104,-0.0058 -0.033,-0.02175 -0.0625,-0.03125 a 0.13191028,0.13191028 0 0 0 -0.03125,0 c -0.0058,-0.0045 -0.02512,0.0047 -0.03125,0 -0.04597,-0.03552 -0.07385,-0.08557 -0.125,-0.125 -0.04816,-0.03713 -0.08456,-0.06537 -0.125,-0.09375 -0.02022,-0.01419 -0.04424,-0.0204 -0.0625,-0.03125 -0.01826,-0.01085 -0.02023,-0.02236 -0.0625,-0.03125 -0.0053,-0.0011 -0.02397,6.03e-4 -0.03125,0 -0.0073,-6.03e-4 -0.03065,-6.1e-5 -0.03125,0 -5.99e-4,6.1e-5 -0.03078,-1.84e-4 -0.03125,0 -4.72e-4,1.84e-4 -0.03091,0.03094 -0.03125,0.03125 -3.41e-4,3.11e-4 -0.03104,0.03081 -0.03125,0.03125 -2.08e-4,4.41e-4 7.1e-5,0.06193 0,0.0625 -7.1e-5,5.74e-4 -8.38e-4,0.02271 0,0.03125 0.01212,0.04829 0.01594,0.07227 0.03125,0.09375 0.03062,0.04296 0.08053,0.103868 0.15625,0.1875 0.574836,0.548638 1.317097,0.816085 2.09375,0.9375 0.02225,0.0035 0.04021,0.02805 0.0625,0.03125 0.02996,0.0069 0.06324,-0.0061 0.09375,0 0.345736,0.0689 0.731659,0.100643 1,0.0625 L 14.1875,13.25 14.15625,13.125 C 13.87061,13.19622 13.580333,13.114242 13.25,13.0625 14.896528,13.231567 16.650895,12.442812 17.5,11 c 0.0095,-0.01089 0.02202,-0.02022 0.03125,-0.03125 0.470901,-0.562465 0.608624,-1.312383 0.90625,-1.875 a 0.13191028,0.13191028 0 0 0 0,-0.03125 0.13191028,0.13191028 0 0 0 0,-0.03125 c 0.08644,-0.8024396 0.0067,-1.6132683 -0.28125,-2.375 -0.0055,-0.018601 0.0039,-0.014599 0,-0.03125 -0.03082,-0.1332085 -0.01199,-0.2304686 0,-0.25 0.01349,-0.021973 0.01467,-0.011955 0.0625,0 0.09566,0.02391 0.260068,0.1712934 0.25,0.40625 a 0.13191028,0.13191028 0 0 0 0,0.03125 c 0.01765,0.1204853 0.02154,0.1966171 0.03125,0.25 0.0049,0.026692 0.02665,0.044934 0.03125,0.0625 0.0023,0.00878 -0.01078,0.00957 0,0.03125 0.0027,0.00542 -2.11e-4,0.030975 0,0.03125 1.05e-4,1.376e-4 0.03115,-8.82e-5 0.03125,0 9.9e-5,8.82e-5 0.03116,0.031211 0.03125,0.03125 9.3e-5,3.93e-5 0.06241,9.3e-6 0.0625,0 8.6e-5,-9.3e-6 0.06242,5.74e-5 0.0625,0 8e-5,-5.74e-5 0.03118,-0.031145 0.03125,-0.03125 7.4e-5,-1.051e-4 0.03118,-0.031098 0.03125,-0.03125 1.35e-4,-3.046e-4 -0.0014,-0.025276 0,-0.03125 9.5e-4,-0.00737 -1.78e-4,-0.026638 0,-0.03125 3.57e-4,-0.00922 2.54e-4,-0.022687 0,-0.03125 -5.07e-4,-0.017127 0.0018,-0.038404 0,-0.0625 C 18.777655,6.9518072 18.757716,6.8862301 18.75,6.8125 18.719137,6.5175797 18.675282,6.0941623 18.625,5.90625 18.326435,4.5946449 17.286288,3.6099818 16.1875,2.96875 c -0.841576,-0.4396954 -1.809728,-0.4953255 -2.65625,-0.75 -0.349482,-0.09959 -0.678369,-0.087231 -1,-0.09375 -0.321631,-0.00652 -0.617905,-0.036334 -0.90625,-0.15625 a 0.13191028,0.13191028 0 0 0 -0.03125,0 0.13191028,0.13191028 0 0 0 -0.03125,0 z"
       transform="matrix(0.93233865,0,0,0.93233865,-3.1041005,4.1681575)" />
  </g>
</svg>
