<?xml version="1.0" encoding="UTF-8" standalone="no"?>
<!-- Created with Inkscape (http://www.inkscape.org/) -->

<svg
   xmlns:dc="http://purl.org/dc/elements/1.1/"
   xmlns:cc="http://creativecommons.org/ns#"
   xmlns:rdf="http://www.w3.org/1999/02/22-rdf-syntax-ns#"
   xmlns:svg="http://www.w3.org/2000/svg"
   xmlns="http://www.w3.org/2000/svg"
   xmlns:sodipodi="http://sodipodi.sourceforge.net/DTD/sodipodi-0.dtd"
   xmlns:inkscape="http://www.inkscape.org/namespaces/inkscape"
   width="16"
   height="16"
   id="svg2"
   sodipodi:version="0.32"
   inkscape:version="0.91 r13725"
   version="1.0"
   sodipodi:docname="computer-symbolic.svg"
   inkscape:output_extension="org.inkscape.output.svg.inkscape"
   style="display:inline">
  <defs
     id="defs4" />
  <sodipodi:namedview
     id="base"
     pagecolor="#ffffff"
     bordercolor="#e7e7e7"
     borderopacity="1"
     inkscape:pageopacity="0.0"
     inkscape:pageshadow="2"
     inkscape:zoom="23.265729"
     inkscape:cx="-13.04487"
     inkscape:cy="8.9890749"
     inkscape:document-units="px"
     inkscape:current-layer="layer1"
     showgrid="true"
     inkscape:showpageshadow="false"
     showguides="false"
     inkscape:guide-bbox="true"
     inkscape:window-width="1024"
     inkscape:window-height="716"
     inkscape:window-x="0"
     inkscape:window-y="0"
     inkscape:window-maximized="1"
     inkscape:snap-global="true">
    <sodipodi:guide
       orientation="1,0"
       position="0,112"
       id="guide2383" />
    <sodipodi:guide
       orientation="0,1"
       position="26.278146,128"
       id="guide2385" />
    <sodipodi:guide
       orientation="1,0"
       position="128,54.082119"
       id="guide2387" />
    <sodipodi:guide
       orientation="0,1"
       position="78.156291,0"
       id="guide2389" />
    <sodipodi:guide
       orientation="0,1"
       position="60.863576,64.084768"
       id="guide2391" />
    <inkscape:grid
       type="xygrid"
       id="grid3672"
       visible="true"
       enabled="true"
       empspacing="8"
       snapvisiblegridlinesonly="true" />
  </sodipodi:namedview>
  <metadata
     id="metadata7">
    <rdf:RDF>
      <cc:Work
         rdf:about="">
        <dc:format>image/svg+xml</dc:format>
        <dc:type
           rdf:resource="http://purl.org/dc/dcmitype/StillImage" />
        <dc:title />
      </cc:Work>
    </rdf:RDF>
  </metadata>
  <g
     inkscape:label="Icon"
     inkscape:groupmode="layer"
     id="layer1"
     style="display:inline"
     transform="translate(0,-6)">
    <path
       style="fill:#bebebe;fill-opacity:1;stroke:none"
       d="M 2.5 0 C 1.6317594 -0.0342396 0.9237404 0.7771943 1 1.625 C 1.00371 4.61367 0.98704 6.605348 1 9.59375 C 1.037895 10.440174 1.8637194 11.069252 2.6875 11 C 3.9633522 10.99862 4.9610679 10.999204 6 11 C 6.3136399 11.00024 6.6838508 10.999511 7 11 L 11 11 L 12 11 C 13.14345 11.0018 12.248096 11.0053 13.65625 11 C 14.509754 10.95596 15.102579 10.095772 15 9.28125 C 14.9972 6.316018 15.0096 4.340105 15 1.375 C 14.969374 0.5240894 14.13108 -0.0773902 13.3125 0 L 2.5 0 z M 3 2 L 13 2 L 13 9 L 3 9 L 3 2 z "
       transform="translate(0,6)"
       id="path3929" />
    <path
       style="fill:#bebebe;fill-opacity:1;stroke:none;opacity:0.45"
       d="m 3,8 10,0 0,7 -10,0 z"
       id="path3927" />
    <path
       style="fill:#bebebe;fill-opacity:1;stroke:none"
       d="m 2.6331025,18 c -0.111514,0.03642 -0.2151508,0.12492 -0.292764,0.25 L 0.12369667,20.5625 C -0.18497055,21.02204 0.06470891,21.975558 0.50010755,22 L 15.472895,22 c 0.435399,-0.02444 0.685079,-0.97796 0.376411,-1.4375 L 13.632665,18.25 C 13.533983,18.100412 13.396682,18.00922 13.256254,18 l -1.254704,0 -1.338349,0 -5.353399,0 -1.3383497,0 -1.2547029,0 c -0.027831,-0.003 -0.055816,-0.003 -0.083647,0 z"
       id="rect2932"
       inkscape:connector-curvature="0" />
  </g>
</svg>
