<?xml version="1.0" encoding="UTF-8" standalone="no"?>
<!-- Created with Inkscape (http://www.inkscape.org/) -->

<svg
   xmlns:dc="http://purl.org/dc/elements/1.1/"
   xmlns:cc="http://creativecommons.org/ns#"
   xmlns:rdf="http://www.w3.org/1999/02/22-rdf-syntax-ns#"
   xmlns:svg="http://www.w3.org/2000/svg"
   xmlns="http://www.w3.org/2000/svg"
   xmlns:sodipodi="http://sodipodi.sourceforge.net/DTD/sodipodi-0.dtd"
   xmlns:inkscape="http://www.inkscape.org/namespaces/inkscape"
   width="16"
   height="16"
   id="svg2"
   sodipodi:version="0.32"
   inkscape:version="0.91 r13725"
   version="1.0"
   sodipodi:docname="start-here-gnome-symbolic.svg"
   inkscape:output_extension="org.inkscape.output.svg.inkscape"
   style="display:inline">
  <defs
     id="defs4" />
  <sodipodi:namedview
     id="base"
     pagecolor="#ffffff"
     bordercolor="#f05656"
     borderopacity="1"
     inkscape:pageopacity="0.0"
     inkscape:pageshadow="2"
     inkscape:zoom="16.008898"
     inkscape:cx="-14.709009"
     inkscape:cy="16.559349"
     inkscape:document-units="px"
     inkscape:current-layer="layer1"
     showgrid="true"
     inkscape:showpageshadow="false"
     showguides="false"
     inkscape:guide-bbox="true"
     inkscape:window-width="1024"
     inkscape:window-height="716"
     inkscape:window-x="0"
     inkscape:window-y="0"
     inkscape:window-maximized="1">
    <sodipodi:guide
       orientation="1,0"
       position="0,112"
       id="guide2383" />
    <sodipodi:guide
       orientation="0,1"
       position="26.278146,128"
       id="guide2385" />
    <sodipodi:guide
       orientation="1,0"
       position="128,54.082119"
       id="guide2387" />
    <sodipodi:guide
       orientation="0,1"
       position="78.156291,0"
       id="guide2389" />
    <sodipodi:guide
       orientation="0,1"
       position="60.863576,64.084768"
       id="guide2391" />
    <inkscape:grid
       type="xygrid"
       id="grid3672"
       visible="true"
       enabled="true"
       empspacing="8"
       snapvisiblegridlinesonly="true" />
  </sodipodi:namedview>
  <metadata
     id="metadata7">
    <rdf:RDF>
      <cc:Work
         rdf:about="">
        <dc:format>image/svg+xml</dc:format>
        <dc:type
           rdf:resource="http://purl.org/dc/dcmitype/StillImage" />
        <dc:title />
      </cc:Work>
    </rdf:RDF>
  </metadata>
  <g
     inkscape:groupmode="layer"
     id="layer2"
     inkscape:label="Dark background"
     sodipodi:insensitive="true"
     style="display:none"
     transform="translate(0,-6)">
    <rect
       y="0"
       x="0"
       height="22"
       width="22"
       id="rect4898"
       style="fill:#333333;fill-opacity:1;fill-rule:nonzero;stroke:none;display:inline" />
  </g>
  <g
     inkscape:groupmode="layer"
     id="layer3"
     inkscape:label="Pale darkground"
     sodipodi:insensitive="true"
     style="display:none"
     transform="translate(0,-6)">
    <rect
       style="fill:#efebe7;fill-opacity:1;fill-rule:nonzero;stroke:none"
       id="rect4126"
       width="22"
       height="22"
       x="0"
       y="0" />
  </g>
  <g
     inkscape:label="Button"
     inkscape:groupmode="layer"
     id="layer1"
     style="display:inline"
     transform="translate(0,-6)">
    <path
       style="fill:#d40000;fill-opacity:1;stroke:none"
       d="m -13.375,32 c -0.69219,0.04617 -1.48522,0.350316 -2.125,0.875 -0.783895,0.642873 -1.420629,2.277217 -1.25,3.1875 0.08798,0.469342 0.442147,1.040424 0.78125,1.21875 0.631484,0.332085 1.782432,-0.218771 2.84375,-1.34375 1.146489,-1.215261 1.672995,-2.554322 1.28125,-3.3125 C -12.084503,32.159052 -12.68281,31.953827 -13.375,32 z m -5.65625,0.71875 c -0.962961,8.66e-4 -1.472444,0.677958 -1.46875,1.96875 0.0025,0.88392 0.31322,1.679132 0.71875,1.875 0.301512,0.145631 0.309051,0.132036 0.6875,0 0.626864,-0.218707 1.215803,-1.678559 1.09375,-2.65625 -0.09989,-0.800159 -0.443807,-1.188029 -1.03125,-1.1875 z m -3.8125,1.3125 c -0.180183,0.02605 -0.360903,0.142012 -0.53125,0.3125 -0.343364,0.343646 -0.347944,0.530957 -0.34375,1.1875 0.0049,0.774303 0.193895,1.196475 0.71875,1.75 0.392601,0.414046 0.675716,0.438798 1.03125,0.0625 0.385138,-0.407633 0.504721,-1.047693 0.375,-1.75 -0.197834,-1.071067 -0.709451,-1.64066 -1.25,-1.5625 z m -2.6875,2.34375 c -0.186951,0.03041 -0.35545,0.136555 -0.53125,0.3125 -0.461346,0.46173 -0.138669,1.731398 0.59375,2.375 0.874175,0.768169 1.580077,0.06483 1.28125,-1.28125 -0.212654,-0.957908 -0.782897,-1.497481 -1.34375,-1.40625 z M -17.5,38.0625 c -0.61906,-0.01065 -1.312804,0.04097 -2.03125,0.1875 -1.85076,0.377471 -3.33166,1.075449 -4.28125,2.03125 -0.546889,0.550465 -0.859803,1.060056 -1.125,1.84375 -0.641919,1.896963 0.546896,4.595678 2.8125,6.4375 0.844088,0.686203 1.359152,0.993313 2.21875,1.28125 0.445736,0.149308 0.799163,0.183992 1.625,0.15625 0.946716,-0.03181 1.139252,-0.07408 1.75,-0.375 0.895036,-0.440989 1.909553,-1.461035 2.34375,-2.34375 0.264885,-0.5385 0.307321,-0.768628 0.28125,-1.21875 -0.04452,-0.768578 -0.342658,-0.977756 -1.3125,-0.96875 -1.38452,0.01285 -1.965756,0.333932 -2.25,1.3125 -0.21469,0.739118 -0.452038,1 -0.9375,1 -0.769368,0 -1.5625,-0.611791 -1.5625,-1.25 0,-0.443994 0.715313,-1.10577 2.5,-2.3125 2.514116,-1.69994 3.378489,-2.734111 3.25,-3.875 -0.13273,-1.178551 -1.42407,-1.874295 -3.28125,-1.90625 z"
       id="path4951"
       inkscape:connector-curvature="0" />
    <path
       style="fill:#bebebe;fill-opacity:1;stroke:none"
       d="M 12.992328,6.0143841 C 12.377564,6.0553921 11.673239,6.3255152 11.105022,6.7915102 10.40881,7.3624741 9.8432989,8.814007 9.9948419,9.6224695 c 0.07813,0.4168435 0.3926901,0.9240465 0.6938621,1.0824255 0.560849,0.294939 1.583057,-0.1943 2.52566,-1.1934435 1.018248,-1.0793269 1.485861,-2.268606 1.137935,-2.9419773 C 14.138476,6.1556452 13.607093,5.9733759 12.992328,6.0143841 z M 7.968763,6.6527377 c -0.8552481,7.691e-4 -1.3077424,0.6021244 -1.3044616,1.7485337 0.00225,0.7850483 0.2781842,1.4913111 0.6383536,1.6652706 0.2677861,0.129341 0.2744818,0.117267 0.610599,0 C 8.4699999,9.8722982 8.9930619,8.5757393 8.8846619,7.7074088 8.7959439,6.9967523 8.4904969,6.6522679 7.968763,6.6527377 z M 4.5827137,7.8184268 C 4.4226852,7.8415661 4.2621798,7.9445539 4.1108871,8.0959718 3.8059304,8.401179 3.801863,8.5675382 3.8055876,9.150643 c 0.00439,0.6876926 0.1722069,1.062642 0.6383536,1.554252 0.348686,0.367733 0.6001328,0.389716 0.9158986,0.05551 C 5.7018976,10.398367 5.8081047,9.8299018 5.6928938,9.206152 5.5171885,8.2548897 5.0627992,7.749009 4.5827137,7.8184268 z M 2.1958264,9.9000145 C 2.029787,9.9270234 1.8801359,10.021295 1.7239999,10.17756 1.3142581,10.587642 1.600842,11.71529 2.2513354,12.286902 3.0277289,12.969147 3.6546715,12.344481 3.3892701,11.148967 3.2004028,10.298207 2.6939448,9.8189879 2.1958264,9.9000145 z m 7.1329075,1.4987435 c -0.549815,-0.0095 -1.1659584,0.03639 -1.8040429,0.166527 -1.6437417,0.335248 -2.9589942,0.955153 -3.8023669,1.804042 -0.4857159,0.488893 -0.7636284,0.941483 -0.9991621,1.637516 -0.5701163,1.684777 0.4857228,4.081624 2.4979053,5.717428 0.7496716,0.609447 1.2071227,0.882205 1.9705697,1.137934 0.3958778,0.132607 0.7097719,0.163413 1.4432339,0.138773 0.84082,-0.02825 1.01182,-0.06579 1.5542521,-0.333054 0.794922,-0.391662 1.695959,-1.29761 2.081588,-2.081588 0.235256,-0.478266 0.272947,-0.682651 0.249791,-1.082426 -0.03954,-0.682608 -0.30433,-0.868388 -1.165689,-0.860389 -1.229654,0.01141 -1.7458751,0.296579 -1.9983251,1.165689 -0.190675,0.656443 -0.401475,0.888144 -0.832635,0.888144 -0.6833094,0 -1.3877249,-0.543358 -1.3877249,-1.11018 0,-0.394331 0.635301,-0.982083 2.2203599,-2.053833 2.2328981,-1.509792 3.0005861,-2.428285 2.8864691,-3.441559 -0.117884,-1.046723 -1.26478,-1.664644 -2.9142231,-1.693024 z"
       id="path4909"
       inkscape:connector-curvature="0" />
  </g>
</svg>
