<?xml version="1.0" encoding="UTF-8" standalone="no"?>
<!-- Created with Inkscape (http://www.inkscape.org/) -->

<svg
   xmlns:dc="http://purl.org/dc/elements/1.1/"
   xmlns:cc="http://creativecommons.org/ns#"
   xmlns:rdf="http://www.w3.org/1999/02/22-rdf-syntax-ns#"
   xmlns:svg="http://www.w3.org/2000/svg"
   xmlns="http://www.w3.org/2000/svg"
   xmlns:sodipodi="http://sodipodi.sourceforge.net/DTD/sodipodi-0.dtd"
   xmlns:inkscape="http://www.inkscape.org/namespaces/inkscape"
   width="16"
   height="16"
   id="svg2"
   sodipodi:version="0.32"
   inkscape:version="0.91 r13725"
   version="1.0"
   sodipodi:docname="video-display-symbolic.svg"
   inkscape:output_extension="org.inkscape.output.svg.inkscape"
   style="display:inline">
  <defs
     id="defs4" />
  <sodipodi:namedview
     id="base"
     pagecolor="#ffffff"
     bordercolor="#e7e7e7"
     borderopacity="1"
     inkscape:pageopacity="0.0"
     inkscape:pageshadow="2"
     inkscape:zoom="23.265729"
     inkscape:cx="-13.04487"
     inkscape:cy="8.9890749"
     inkscape:document-units="px"
     inkscape:current-layer="layer1"
     showgrid="true"
     inkscape:showpageshadow="false"
     showguides="false"
     inkscape:guide-bbox="true"
     inkscape:window-width="1024"
     inkscape:window-height="716"
     inkscape:window-x="0"
     inkscape:window-y="0"
     inkscape:window-maximized="1"
     inkscape:snap-global="true">
    <sodipodi:guide
       orientation="1,0"
       position="0,112"
       id="guide2383" />
    <sodipodi:guide
       orientation="0,1"
       position="26.278146,128"
       id="guide2385" />
    <sodipodi:guide
       orientation="1,0"
       position="128,54.082119"
       id="guide2387" />
    <sodipodi:guide
       orientation="0,1"
       position="78.156291,0"
       id="guide2389" />
    <sodipodi:guide
       orientation="0,1"
       position="60.863576,64.084768"
       id="guide2391" />
    <inkscape:grid
       type="xygrid"
       id="grid3672"
       visible="true"
       enabled="true"
       empspacing="8"
       snapvisiblegridlinesonly="true" />
  </sodipodi:namedview>
  <metadata
     id="metadata7">
    <rdf:RDF>
      <cc:Work
         rdf:about="">
        <dc:format>image/svg+xml</dc:format>
        <dc:type
           rdf:resource="http://purl.org/dc/dcmitype/StillImage" />
        <dc:title />
      </cc:Work>
    </rdf:RDF>
  </metadata>
  <g
     inkscape:label="Icon"
     inkscape:groupmode="layer"
     id="layer1"
     style="display:inline"
     transform="translate(0,-6)">
    <path
       style="fill:#bebebe;fill-opacity:1;stroke:none"
       d="M 1.5,0 C 0.6317594,-0.0342396 -0.0762596,0.7771943 0,1.625 0.00371,4.61367 -0.01296,8.605348 0,11.59375 0.037895,12.440174 0.8637194,13.069252 1.6875,13 3.3485151,12.998204 4.6366065,12.997891 6,13 l 0,1 -1.9375,0 C 4.041705,13.998452 4.020795,13.998452 4,14 3.9166778,14.018211 3.8392417,14.06246 3.78125,14.125 L 2.125,15.28125 C 1.8943673,15.51102 2.080925,15.987779 2.40625,16 l 11.1875,0 c 0.325325,-0.01222 0.511883,-0.48898 0.28125,-0.71875 L 12.21875,14.125 C 12.145016,14.050206 12.042426,14.00461 11.9375,14 L 10,14 10,13 c 1.460196,9.8e-4 2.86296,0.0068 4.65625,0 C 15.509754,12.95596 16.102579,12.095772 16,11.28125 15.9972,8.316018 16.0096,4.340105 16,1.375 15.969374,0.5240894 15.13108,-0.0773902 14.3125,0 z M 2,2 14,2 14,11 2,11 z"
       transform="translate(0,6)"
       id="rect2932"
       inkscape:connector-curvature="0"
       sodipodi:nodetypes="ccccccccccccccccccccccccccc" />
    <rect
       style="opacity:0.45;color:#000000;fill:#bebebe;fill-opacity:1;fill-rule:nonzero;stroke:none;stroke-width:0.80000000999999998;marker:none;visibility:visible;display:inline;overflow:visible;enable-background:accumulate"
       id="rect3126"
       width="12"
       height="9"
       x="2"
       y="8" />
  </g>
</svg>
