<?xml version="1.0" encoding="utf-8"?>
<!-- Generator: Adobe Illustrator 16.0.0, SVG Export Plug-In . SVG Version: 6.00 Build 0)  -->
<!DOCTYPE svg PUBLIC "-//W3C//DTD SVG 1.1//EN" "http://www.w3.org/Graphics/SVG/1.1/DTD/svg11.dtd">
<svg version="1.1" id="Layer_1" xmlns="http://www.w3.org/2000/svg" xmlns:xlink="http://www.w3.org/1999/xlink" x="0px" y="0px"
	 width="1024px" height="993.28px" viewBox="0 0 1024 993.28" enable-background="new 0 0 1024 993.28" xml:space="preserve">
<g>
	<path d="M306.935,413.91c2.865-0.226,5.756-0.5,8.631-0.646C312.68,413.41,309.8,413.675,306.935,413.91z"/>
	<path d="M290.48,415.68c3.654-0.5,7.319-0.989,10.984-1.359C297.8,414.69,294.145,415.18,290.48,415.68z"/>
	<path d="M273.43,418.395c4.66-0.88,9.325-1.67,14.005-2.345C282.755,416.725,278.09,417.515,273.43,418.395z"/>
	<path d="M408.165,638.24c-0.595-0.221-1.165-0.44-1.75-0.66C407,637.8,407.585,638.04,408.165,638.24z"/>
	<path d="M329.49,412.9c-2.57,0-5.15,0.119-7.721,0.199c2.716-0.08,5.431-0.199,8.141-0.199
		C329.77,412.9,329.625,412.9,329.49,412.9z"/>
	<path d="M585.68,509.35c-0.66,1.33-1.34,2.631-2.08,3.87C584.34,511.98,585.02,510.68,585.68,509.35z"/>
	<path d="M589,501.555c-0.71,2.065-1.53,4.065-2.42,6.025C587.46,505.63,588.28,503.62,589,501.555z"/>
	<path d="M582.31,515.18c-0.729,1.08-1.489,2.141-2.329,3.141C580.82,517.32,581.58,516.26,582.31,515.18z"/>
	<path d="M165.755,588.52c7.375,0,14.735-0.039,22.12-0.06c-11.79,0.04-23.575,0.12-35.35,0.01
		C156.93,588.52,161.34,588.52,165.755,588.52z"/>
	<path d="M419.06,641.56c-0.59-0.14-1.175-0.279-1.76-0.439C417.885,641.28,418.47,641.42,419.06,641.56z"/>
	<path d="M173.805,403.71c-7.1,0-14.205,0.045-21.29,0.095c11.96-0.085,23.931-0.145,35.891-0.02
		C183.53,403.73,178.655,403.71,173.805,403.71z"/>
	<path d="M429.025,643.58c-0.091-0.021-0.195-0.021-0.275-0.04C428.84,643.56,428.945,643.56,429.025,643.58z"/>
	<path d="M439.82,644.34c0.245,0,0.5-0.04,0.745-0.04c-0.615,0-1.23-0.02-1.846-0.03C439.1,644.28,439.45,644.34,439.82,644.34z"/>
	<path d="M578.36,520.13c-0.86,0.91-1.761,1.76-2.721,2.57C576.6,521.89,577.5,521.04,578.36,520.13z"/>
	<path d="M505.725,545.37c-3.024-0.01-6.045-0.17-9.064-0.33C499.68,545.2,502.7,545.36,505.725,545.37z"/>
	<path d="M513.79,545.22c1.415-0.04,2.81-0.04,4.22-0.1C516.6,545.18,515.195,545.18,513.79,545.22z"/>
	<path d="M478.605,543.21c4.5,0.771,9.015,1.29,13.51,1.63C487.61,544.5,483.115,543.98,478.605,543.21z"/>
	<path d="M443.515,523.52c-1.18,0.061-2.364,0.07-3.574,0.16C441.15,523.59,442.315,523.58,443.515,523.52z"/>
	<path d="M573.74,524.22c-1.05,0.74-2.16,1.4-3.311,2.021C571.58,525.62,572.7,524.98,573.74,524.22z"/>
	<path d="M568.34,527.32c-1.37,0.6-2.859,1.04-4.38,1.439C565.48,528.36,566.97,527.92,568.34,527.32z"/>
	<path d="M555.04,530c2.52,0,4.85-0.26,7.04-0.7c-2.24,0.46-4.62,0.7-7.18,0.69C554.94,529.99,555,530,555.04,530z"/>
	<g>
		<path d="M860.93,295.425h-37.31c-3.49-12.615-8.5-24.575-14.82-35.72l27.9-27.88c8.24-8.226,8.24-21.556,0-29.78l-29.78-29.775
			c-8.22-8.225-21.56-8.225-29.76,0l-27.9,27.881c-11.14-6.306-23.109-11.315-35.72-14.795V148.04
			c0-11.635-9.42-21.055-21.06-21.055H650.38c-11.649,0-21.07,9.42-21.07,21.055v37.305c-11.89,3.275-23.229,7.896-33.829,13.721
			l-26.79-26.796c-8.21-8.225-21.551-8.225-29.771,0l-29.775,29.775c-8.225,8.225-8.225,21.555,0,29.78L535.12,257.8
			c-6.84,11.686-12.22,24.3-15.89,37.625h-37.315c-11.646,0-21.065,9.431-21.065,21.065v42.104c0,11.636,9.42,21.065,21.065,21.065
			h37.315c3.479,12.615,8.489,24.585,14.789,35.715l-10.34,10.355c15.78,2.475,32.16,6,48.641,11.289
			c18.399,5.91,31.64,15.671,40.5,29.87c1.649,2.676,3.06,5.42,4.21,8.226c13.14-6.38,26.87-9.525,41.42-9.525
			c11.899,0,23.28,3.28,33.79,9.72c10.3,6.29,17.71,15.575,21.3,26.195V489.75c13.32-3.67,25.94-9.055,37.62-15.905l26,25.99
			c8.2,8.225,21.54,8.225,29.75,0l29.78-29.78c8.229-8.22,8.229-21.555,0-29.765l-26.801-26.8c5.82-10.585,10.45-21.936,13.73-33.82
			h37.31c11.63,0,21.051-9.43,21.051-21.064V316.5C881.98,304.855,872.56,295.425,860.93,295.425z M671.42,411.23
			c-40.71,0-73.689-32.995-73.689-73.69c0-40.69,32.989-73.695,73.689-73.695c40.71,0,73.7,33.005,73.7,73.695
			C745.12,378.235,712.13,411.23,671.42,411.23z"/>
	</g>
	<path d="M684.96,545.58c0.8-4.16,0.56-8.58-3.84-10.54c-5.101-2.26-3.95-4.1-0.95-7.36c8.08-8.819,6.311-19.899-3.939-26.165
		c-5.431-3.33-11.25-5.225-17.771-5.225c-19.83,0-35.8,8.86-49.84,21.8c-11.84,10.9-25.43,18.11-41.11,21.41
		c-12.25,2.58-24.7,3.86-37.17,4.84c-4.12,0.32-8.22,0.59-12.33,0.78c-1.41,0.06-2.805,0.06-4.22,0.1
		c-2.385,0.08-4.78,0.181-7.165,0.181c-0.3,0-0.605-0.03-0.9-0.03c-3.024-0.01-6.045-0.17-9.064-0.33
		c-1.505-0.07-3.021-0.08-4.535-0.2c-4.495-0.34-9.01-0.859-13.505-1.63c-17.29-2.96-32.3-12.17-50.125-18.05
		c4.055-0.76,7.81-1.19,11.445-1.48c1.199-0.1,2.385-0.109,3.574-0.17c1.495-0.06,3.04-0.21,4.505-0.21
		c1.445,0,2.881,0.021,4.311,0.08c18.564,0.68,37.11,2.061,55.685,2.71c12.646,0.44,25.415,0.63,37.926,3
		c3.199,0.61,6.18,0.88,8.96,0.891c2.56,0.01,4.949-0.24,7.199-0.681c0.65-0.13,1.221-0.359,1.87-0.55
		c1.511-0.39,3.011-0.83,4.38-1.44c0.74-0.319,1.41-0.72,2.091-1.069c1.14-0.63,2.279-1.28,3.3-2.021c0.68-0.479,1.3-1.01,1.92-1.52
		c0.96-0.811,1.859-1.66,2.72-2.57c0.561-0.59,1.101-1.189,1.62-1.82c0.82-1.01,1.59-2.05,2.33-3.149
		c0.43-0.641,0.88-1.26,1.29-1.94c0.74-1.239,1.42-2.54,2.08-3.87c0.28-0.59,0.62-1.159,0.89-1.77c0.891-1.95,1.71-3.96,2.43-6.025
		c2.29-6.5,1.41-12.545-2.279-18.465c-5.62-9.02-14.101-13.729-23.78-16.84c-29.84-9.575-60.69-13.18-91.765-15.15
		c-13.53-0.869-26.655-2.76-38.71-9.59c-6.245-3.545-12.86-6.41-19.32-9.545c-26.265-12.76-54.17-19.015-83.245-19.08
		c-2.71,0-5.425,0.125-8.14,0.205c-2.065,0.065-4.136,0.065-6.205,0.165c-2.875,0.155-5.755,0.42-8.63,0.646
		c-1.825,0.154-3.636,0.225-5.46,0.409c-3.665,0.37-7.33,0.86-10.985,1.36c-1.015,0.135-2.03,0.22-3.045,0.37
		c-4.675,0.675-9.345,1.475-14.005,2.345c-13.69,2.58-27.25,5.735-40.675,9.445c0.01,11.56,0.02,23.12,0.02,34.68v33.63v19.42
		c0.01,16.131,0,32.261-0.02,48.36c8.335,1.14,16.805,1.6,24.649,5c10.65,4.6,21.32,9.17,31.806,14.1
		c35.989,16.891,71.564,34.66,107.93,50.78c3.07,1.36,6.165,2.601,9.265,3.76c0.585,0.221,1.16,0.46,1.75,0.66
		c3.021,1.08,6.065,2.04,9.135,2.88c0.585,0.16,1.171,0.29,1.761,0.44c3.194,0.82,6.42,1.51,9.689,1.97
		c0.09,0.021,0.195,0.021,0.275,0.05c3.195,0.44,6.43,0.631,9.7,0.681c0.609,0.01,1.225,0.029,1.84,0.029
		c2.609-0.02,5.245-0.149,7.905-0.46c10.22-1.189,20.47-2.329,30.64-3.859c27.475-4.13,54.8-9.21,82.37-12.44
		c17.689-2.08,33.75-6.99,48.029-17.51c10.561-7.76,21.681-14.62,32.62-21.8c12.16-7.99,23.98-16.47,34.341-26.811
		C680.92,556.98,683.78,551.7,684.96,545.58z"/>
	<path d="M202.035,574.02c0.04-25.96,0.02-51.92,0.02-77.859c-0.02-26.155,0.021-52.275-0.02-78.43
		c-0.01-9.78-3.955-13.855-13.641-13.936c-11.96-0.125-23.93-0.064-35.89,0.021c-9.075,0.06-13.455,4.505-13.455,13.72
		c-0.04,52.46-0.05,104.945,0,157.405c0.01,9.359,4.075,13.449,13.465,13.54c11.775,0.119,23.561,0.039,35.351-0.011
		C198.205,588.43,202.035,584.58,202.035,574.02z"/>
	<path d="M872.96,0H151.04C67.76,0,0,67.76,0,151.04v481.28C0,715.6,67.76,783.36,151.04,783.36h240.64v89.6H211.2
		c-33.23,0-60.16,26.93-60.16,60.16c0,33.229,26.93,60.16,60.16,60.16H391.68H632.32H812.8c33.23,0,60.16-26.931,60.16-60.16
		c0-33.23-26.93-60.16-60.16-60.16H632.32v-89.6h240.64c83.28,0,151.04-67.761,151.04-151.04V151.04C1024,67.76,956.24,0,872.96,0z
		 M962.56,632.32c0,49.399-40.189,89.6-89.6,89.6H151.04c-49.41,0-89.6-40.2-89.6-89.6V151.04c0-49.4,40.189-89.6,89.6-89.6h721.92
		c49.41,0,89.6,40.199,89.6,89.6V632.32z"/>
</g>
</svg>
