<?xml version="1.0" encoding="UTF-8" standalone="no"?>
<!-- Created with Inkscape (http://www.inkscape.org/) -->

<svg
   xmlns:dc="http://purl.org/dc/elements/1.1/"
   xmlns:cc="http://creativecommons.org/ns#"
   xmlns:rdf="http://www.w3.org/1999/02/22-rdf-syntax-ns#"
   xmlns:svg="http://www.w3.org/2000/svg"
   xmlns="http://www.w3.org/2000/svg"
   xmlns:sodipodi="http://sodipodi.sourceforge.net/DTD/sodipodi-0.dtd"
   xmlns:inkscape="http://www.inkscape.org/namespaces/inkscape"
   width="16"
   height="16"
   id="svg2"
   sodipodi:version="0.32"
   inkscape:version="0.91 r13725"
   version="1.0"
   sodipodi:docname="start-here-ubuntu-symbolic.svg"
   inkscape:output_extension="org.inkscape.output.svg.inkscape"
   style="display:inline">
  <defs
     id="defs4" />
  <sodipodi:namedview
     id="base"
     pagecolor="#ffffff"
     bordercolor="#f05656"
     borderopacity="1"
     inkscape:pageopacity="0.0"
     inkscape:pageshadow="2"
     inkscape:zoom="11.353828"
     inkscape:cx="-20.275604"
     inkscape:cy="18.427413"
     inkscape:document-units="px"
     inkscape:current-layer="layer1"
     showgrid="true"
     inkscape:showpageshadow="false"
     showguides="true"
     inkscape:guide-bbox="true"
     inkscape:window-width="1024"
     inkscape:window-height="716"
     inkscape:window-x="0"
     inkscape:window-y="0"
     inkscape:window-maximized="1"
     inkscape:snap-global="false">
    <sodipodi:guide
       orientation="1,0"
       position="0,112"
       id="guide2383" />
    <sodipodi:guide
       orientation="0,1"
       position="26.278146,128"
       id="guide2385" />
    <sodipodi:guide
       orientation="1,0"
       position="128,54.082119"
       id="guide2387" />
    <sodipodi:guide
       orientation="0,1"
       position="78.156291,0"
       id="guide2389" />
    <sodipodi:guide
       orientation="0,1"
       position="60.863576,64.084768"
       id="guide2391" />
    <inkscape:grid
       type="xygrid"
       id="grid3672"
       visible="true"
       enabled="true"
       empspacing="8"
       snapvisiblegridlinesonly="true" />
  </sodipodi:namedview>
  <metadata
     id="metadata7">
    <rdf:RDF>
      <cc:Work
         rdf:about="">
        <dc:format>image/svg+xml</dc:format>
        <dc:type
           rdf:resource="http://purl.org/dc/dcmitype/StillImage" />
        <dc:title />
      </cc:Work>
    </rdf:RDF>
  </metadata>
  <g
     inkscape:groupmode="layer"
     id="layer2"
     inkscape:label="Dark background"
     sodipodi:insensitive="true"
     style="display:none"
     transform="translate(0,-6)">
    <rect
       y="0"
       x="0"
       height="22"
       width="22"
       id="rect4898"
       style="fill:#333333;fill-opacity:1;fill-rule:nonzero;stroke:none;display:inline" />
  </g>
  <g
     inkscape:groupmode="layer"
     id="layer3"
     inkscape:label="Pale darkground"
     sodipodi:insensitive="true"
     style="display:none"
     transform="translate(0,-6)">
    <rect
       style="fill:#efebe7;fill-opacity:1;fill-rule:nonzero;stroke:none"
       id="rect4126"
       width="22"
       height="22"
       x="0"
       y="0" />
  </g>
  <g
     inkscape:label="Button"
     inkscape:groupmode="layer"
     id="layer1"
     style="display:inline"
     transform="translate(0,-6)">
    <path
       inkscape:connector-curvature="0"
       style="color:#000000;fill:#bebebe;fill-opacity:1;fill-rule:nonzero;stroke:none;stroke-width:1;marker:none;visibility:visible;display:inline;overflow:visible;enable-background:accumulate"
       d="m 8,6.0000004 c -4.418278,0 -8,3.5817218 -8,7.9999996 0,4.418278 3.581722,8 8,8 4.418278,0 8,-3.581722 8,-8 C 16,9.5817222 12.418278,6.0000004 8,6.0000004 z m 3.027778,2.3055556 c 0.589001,0 1.055555,0.4943319 1.055555,1.0833333 0,0.5890018 -0.466554,1.0555557 -1.055555,1.0555557 -0.589002,0 -1.0833336,-0.4665539 -1.0833336,-1.0555557 0,-0.5890014 0.4943316,-1.0833333 1.0833336,-1.0833333 z M 8.166667,9.3888893 c 0.375075,0 0.762186,0.026459 1.111111,0.1111111 0.07024,0.9175166 0.814583,1.6666666 1.75,1.6666666 0.245417,0 0.481705,-0.04885 0.694444,-0.138889 0.604318,0.719654 0.97864,1.617934 1.055556,2.611111 l -2.138889,0 C 10.468001,12.430736 9.421749,11.5 8.166667,11.5 7.8549876,11.5 7.552832,11.5897 7.2777778,11.694445 L 6.2222222,9.8333337 C 6.8183039,9.5531043 7.4647742,9.3888893 8.166667,9.3888893 z M 5.5833333,10.166667 6.6666667,12.027778 C 6.070556,12.482795 5.6944444,13.192729 5.6944444,14 c 0,0.784467 0.3491288,1.48798 0.9166667,1.944444 L 5.5555556,17.777778 C 4.7729702,17.233464 4.1371255,16.46226 3.8055556,15.555556 4.2829131,15.198735 4.6111111,14.641385 4.6111111,14 c 0,-0.635334 -0.3080793,-1.198136 -0.7777778,-1.555556 0.3367287,-0.928959 0.9428099,-1.732301 1.75,-2.277777 z M 2.6666667,12.75 c 0.6871682,0 1.25,0.562831 1.25,1.25 0,0.687169 -0.5628318,1.25 -1.25,1.25 -0.6871684,0 -1.25,-0.562831 -1.25,-1.25 0,-0.687169 0.5628316,-1.25 1.25,-1.25 z m 7.9722223,1.611111 2.138889,0 c -0.07691,0.993177 -0.451238,1.891456 -1.055556,2.611111 -0.212739,-0.09003 -0.449027,-0.138889 -0.694444,-0.138889 -0.935417,0 -1.679751,0.749151 -1.75,1.666667 -0.348925,0.08465 -0.736036,0.111111 -1.111111,0.111111 -0.726707,0 -1.4157496,-0.145305 -2.0277781,-0.444444 L 7.25,16.305556 C 7.5357191,16.419918 7.8402631,16.5 8.166667,16.5 c 1.255082,0 2.301334,-0.930736 2.472222,-2.138889 z m 0.388889,3.194445 c 0.589001,0 1.055555,0.466554 1.055555,1.055555 0,0.589002 -0.466554,1.083333 -1.055555,1.083333 -0.589002,0 -1.0833336,-0.494331 -1.0833336,-1.083333 0,-0.589001 0.4943316,-1.055555 1.0833336,-1.055555 z"
       id="path2963" />
  </g>
</svg>
