<?xml version="1.0" encoding="UTF-8" standalone="no"?>
<!-- Created with Inkscape (http://www.inkscape.org/) -->

<svg
   xmlns:dc="http://purl.org/dc/elements/1.1/"
   xmlns:cc="http://creativecommons.org/ns#"
   xmlns:rdf="http://www.w3.org/1999/02/22-rdf-syntax-ns#"
   xmlns:svg="http://www.w3.org/2000/svg"
   xmlns="http://www.w3.org/2000/svg"
   xmlns:sodipodi="http://sodipodi.sourceforge.net/DTD/sodipodi-0.dtd"
   xmlns:inkscape="http://www.inkscape.org/namespaces/inkscape"
   width="16"
   height="16"
   id="svg2"
   sodipodi:version="0.32"
   inkscape:version="0.91 r13725"
   version="1.0"
   sodipodi:docname="system-run-symbolic.svg"
   inkscape:output_extension="org.inkscape.output.svg.inkscape">
  <defs
     id="defs4" />
  <sodipodi:namedview
     id="base"
     pagecolor="#ffffff"
     bordercolor="#e7e7e7"
     borderopacity="1"
     inkscape:pageopacity="0.0"
     inkscape:pageshadow="2"
     inkscape:zoom="24.711919"
     inkscape:cx="-13.78051"
     inkscape:cy="5.4569417"
     inkscape:document-units="px"
     inkscape:current-layer="layer1"
     showgrid="true"
     inkscape:showpageshadow="false"
     showguides="true"
     inkscape:guide-bbox="true"
     inkscape:window-width="1024"
     inkscape:window-height="716"
     inkscape:window-x="0"
     inkscape:window-y="0"
     inkscape:window-maximized="1">
    <sodipodi:guide
       orientation="1,0"
       position="0,112"
       id="guide2383" />
    <sodipodi:guide
       orientation="0,1"
       position="78.156291,0"
       id="guide2389" />
    <inkscape:grid
       type="xygrid"
       id="grid3672"
       visible="true"
       enabled="true" />
    <sodipodi:guide
       orientation="1,0"
       position="22.008699,4.1542523"
       id="guide2950" />
    <sodipodi:guide
       orientation="0,1"
       position="11.22532,22.008699"
       id="guide2952" />
  </sodipodi:namedview>
  <metadata
     id="metadata7">
    <rdf:RDF>
      <cc:Work
         rdf:about="">
        <dc:format>image/svg+xml</dc:format>
        <dc:type
           rdf:resource="http://purl.org/dc/dcmitype/StillImage" />
      </cc:Work>
    </rdf:RDF>
  </metadata>
  <g
     inkscape:label="Calque 1"
     inkscape:groupmode="layer"
     id="layer1">
    <path
       d="m 7.0334283,1.000039 c -0.275485,0 -0.498547,0.2285261 -0.498547,0.508718 l 0,0.986916 C 6.0422989,2.626916 5.5716343,2.825155 5.1409922,3.0756131 L 4.4389586,2.3735811 C 4.3398937,2.274521 4.2212278,2.22205 4.0930299,2.220965 3.9648324,2.219865 3.8343246,2.266015 3.7369271,2.363406 L 2.3633844,3.736947 C 2.1685897,3.931743 2.1754331,4.240855 2.3735461,4.438981 L 3.0755793,5.1410121 C 2.8251193,5.571654 2.6268803,6.04232 2.495634,6.534903 l -0.9869146,0 C 1.2285277,6.534903 1,6.757966 1,7.0334493 l 0,1.9331329 c 0,0.2754827 0.2285277,0.4985463 0.5087196,0.4985463 l 0.9869146,0 c 0.1312463,0.4925837 0.3294855,0.9632495 0.5799416,1.3938895 l -0.7020335,0.702033 c -0.1981255,0.198126 -0.2049692,0.507235 -0.010162,0.702032 l 1.3735426,1.373543 c 0.1947946,0.194796 0.5039058,0.18795 0.7020316,-0.01015 l 0.7020374,-0.702057 c 0.4306422,0.250458 0.9013068,0.448698 1.3938892,0.579941 l 0,0.986916 c 0,0.280191 0.2230619,0.508719 0.498547,0.508719 l 1.9331323,0 c 0.2754842,0 0.4985452,-0.228528 0.4985452,-0.508719 l 0,-0.986916 c 0.492583,-0.131243 0.9632494,-0.329483 1.3938914,-0.579941 l 0.702035,0.702035 c 0.198123,0.198123 0.507235,0.204969 0.702031,0.01015 l 1.373541,-1.373544 c 0.194795,-0.194796 0.18795,-0.503906 -0.01015,-0.702032 l -0.702029,-0.702035 c 0.250457,-0.43064 0.448697,-0.901306 0.57994,-1.3938898 l 0.986917,0 C 14.771471,9.4651245 15,9.2420625 15,8.9665791 L 15,7.0334453 C 15,6.7579631 14.771471,6.5349 14.491282,6.5349 l -0.986917,0 C 13.373122,6.0423181 13.174882,5.5716521 12.924425,5.1410091 L 13.626459,4.438977 c 0.198123,-0.1981249 0.204969,-0.5072359 0.01015,-0.7020319 L 12.263069,2.363401 C 12.068268,2.1686071 11.75916,2.175451 11.561034,2.373551 L 10.858998,3.0755851 C 10.428356,2.825126 9.957691,2.626887 9.465108,2.495643 l 0,-0.986914 c 0,-0.2801939 -0.223061,-0.50872 -0.4985433,-0.50872 l -1.9331332,0 z m 0.9665662,4.883704 c 1.1681845,0 2.1162735,0.94809 2.1162735,2.1162723 0,1.168184 -0.948092,2.1162717 -2.1162735,2.1162717 -1.1681817,0 -2.1162724,-0.9480877 -2.1162724,-2.1162717 0,-1.1681823 0.9480907,-2.1162723 2.1162724,-2.1162723 z"
       id="rect3267"
       style="fill:#bebebe;fill-opacity:1;fill-rule:nonzero;stroke:none;stroke-width:1;marker:none;visibility:visible;display:block;overflow:visible;enable-background:accumulate"
       inkscape:connector-curvature="0" />
  </g>
</svg>
