<?xml version="1.0" encoding="UTF-8" standalone="no"?>
<!-- Created with Inkscape (http://www.inkscape.org/) -->

<svg
   xmlns:dc="http://purl.org/dc/elements/1.1/"
   xmlns:cc="http://creativecommons.org/ns#"
   xmlns:rdf="http://www.w3.org/1999/02/22-rdf-syntax-ns#"
   xmlns:svg="http://www.w3.org/2000/svg"
   xmlns="http://www.w3.org/2000/svg"
   xmlns:sodipodi="http://sodipodi.sourceforge.net/DTD/sodipodi-0.dtd"
   xmlns:inkscape="http://www.inkscape.org/namespaces/inkscape"
   width="16"
   height="16"
   id="svg2"
   sodipodi:version="0.32"
   inkscape:version="0.91 r13725"
   version="1.0"
   sodipodi:docname="start-here-opensuse-symbolic.svg"
   inkscape:output_extension="org.inkscape.output.svg.inkscape"
   style="display:inline">
  <defs
     id="defs4" />
  <sodipodi:namedview
     id="base"
     pagecolor="#ffffff"
     bordercolor="#f05656"
     borderopacity="1"
     inkscape:pageopacity="0.0"
     inkscape:pageshadow="2"
     inkscape:zoom="16.008898"
     inkscape:cx="-5.0820658"
     inkscape:cy="4.1897697"
     inkscape:document-units="px"
     inkscape:current-layer="layer1"
     showgrid="true"
     inkscape:showpageshadow="false"
     showguides="true"
     inkscape:guide-bbox="true"
     inkscape:window-width="1024"
     inkscape:window-height="716"
     inkscape:window-x="0"
     inkscape:window-y="0"
     inkscape:window-maximized="1">
    <sodipodi:guide
       orientation="1,0"
       position="0,112"
       id="guide2383" />
    <sodipodi:guide
       orientation="0,1"
       position="26.278146,128"
       id="guide2385" />
    <sodipodi:guide
       orientation="1,0"
       position="128,54.082119"
       id="guide2387" />
    <sodipodi:guide
       orientation="0,1"
       position="78.156291,0"
       id="guide2389" />
    <sodipodi:guide
       orientation="0,1"
       position="60.863576,64.084768"
       id="guide2391" />
    <inkscape:grid
       type="xygrid"
       id="grid3672"
       visible="true"
       enabled="true"
       empspacing="8"
       snapvisiblegridlinesonly="true" />
  </sodipodi:namedview>
  <metadata
     id="metadata7">
    <rdf:RDF>
      <cc:Work
         rdf:about="">
        <dc:format>image/svg+xml</dc:format>
        <dc:type
           rdf:resource="http://purl.org/dc/dcmitype/StillImage" />
        <dc:title />
      </cc:Work>
    </rdf:RDF>
  </metadata>
  <g
     inkscape:groupmode="layer"
     id="layer2"
     inkscape:label="Dark background"
     sodipodi:insensitive="true"
     style="display:none"
     transform="translate(0,-6)">
    <rect
       y="0"
       x="0"
       height="22"
       width="22"
       id="rect4898"
       style="fill:#333333;fill-opacity:1;fill-rule:nonzero;stroke:none;display:inline" />
  </g>
  <g
     inkscape:groupmode="layer"
     id="layer3"
     inkscape:label="Pale darkground"
     sodipodi:insensitive="true"
     style="display:none"
     transform="translate(0,-6)">
    <rect
       style="fill:#efebe7;fill-opacity:1;fill-rule:nonzero;stroke:none"
       id="rect4126"
       width="22"
       height="22"
       x="0"
       y="0" />
  </g>
  <g
     inkscape:label="Button"
     inkscape:groupmode="layer"
     id="layer1"
     style="display:inline"
     transform="translate(0,-6)">
    <path
       inkscape:connector-curvature="0"
       style="color:#000000;fill:#bebebe;fill-opacity:1;fill-rule:nonzero;stroke:none;stroke-width:1;marker:none;visibility:visible;display:inline;overflow:visible;enable-background:accumulate"
       d="m 8,6 c -4.418278,0 -8,3.5817218 -8,8 0,4.418278 3.581722,8 8,8 4.418278,0 8,-3.581722 8,-8 C 16,9.5817218 12.418278,6 8,6 z m 0,1.7777778 c 3.436438,0 6.222222,2.7857842 6.222222,6.2222222 0,3.436438 -2.785784,6.222222 -6.222222,6.222222 -1.635166,0 -3.1117228,-0.635206 -4.2222222,-1.666666 0.3580818,-0.05034 0.9268937,-0.05594 1.6666666,0.02778 1.0819976,0.12245 1.6754223,0.165045 2.3888889,0.111111 1.6248137,-0.122839 2.6980447,-0.390023 3.8888887,-0.972222 0.622357,-0.304278 0.75428,-0.441734 0.888889,-0.805555 0.128345,-0.346889 0.176553,-0.66667 0.111111,-0.66667 -0.02316,0 -0.228013,0.07903 -0.472222,0.194444 -0.91637,0.433033 -1.718167,0.648427 -2.416667,0.611112 -0.726129,-0.03884 -1.8941641,-0.460212 -3.3055552,-1.138889 l -0.6666667,-0.305556 -0.5,-1.25 0.4722222,0.305556 c 0.8058908,0.535139 2.1223423,1.165456 2.9166667,1.416666 1.213505,0.38377 2.161732,0.331091 3.138889,-0.166666 0.344419,-0.175445 1,-0.605362 1,-0.666667 0,-0.11556 -0.335437,-1.240241 -0.527778,-1.75 C 11.880134,12.225265 11.542662,11.794785 10.75,11.416667 9.86998,10.996876 8.894287,10.71198 7.1111111,10.305556 6.258576,10.124536 5.4207952,9.9412222 4.5555556,9.8333333 L 4.5277778,10.888889 C 3.9619402,10.712919 3.4244177,10.577548 2.8888889,10.444444 4.0137585,8.8360358 5.8883348,7.7777778 8,7.7777778 z m 1.472222,4.5000002 c 0.582598,-0.01235 1.13757,0.370924 1.305556,1.027778 0.08462,0.330913 0.05789,0.565591 -0.111111,0.916666 -0.247073,0.513212 -0.793843,0.791735 -1.388889,0.694445 -0.419621,-0.0686 -0.78233,-0.339195 -0.972222,-0.75 -0.231294,-0.500351 -0.123011,-1.165041 0.277777,-1.527778 0.2625,-0.237586 0.583712,-0.354729 0.888889,-0.361111 z m 0.305556,0.694444 c -0.464926,0 -0.756997,0.341457 -0.5,0.583334 0.208457,0.196185 0.556395,0.224873 0.833333,0.08333 0.179349,-0.09167 0.240747,-0.231871 0.194445,-0.416667 -0.03408,-0.135987 -0.301552,-0.25 -0.527778,-0.25 z"
       id="path4124" />
  </g>
</svg>
