<?xml version="1.0" encoding="UTF-8" standalone="no"?>
<!-- Created with Inkscape (http://www.inkscape.org/) -->

<svg
   xmlns:dc="http://purl.org/dc/elements/1.1/"
   xmlns:cc="http://creativecommons.org/ns#"
   xmlns:rdf="http://www.w3.org/1999/02/22-rdf-syntax-ns#"
   xmlns:svg="http://www.w3.org/2000/svg"
   xmlns="http://www.w3.org/2000/svg"
   xmlns:xlink="http://www.w3.org/1999/xlink"
   xmlns:sodipodi="http://sodipodi.sourceforge.net/DTD/sodipodi-0.dtd"
   xmlns:inkscape="http://www.inkscape.org/namespaces/inkscape"
   width="16"
   height="16"
   id="svg2"
   sodipodi:version="0.32"
   inkscape:version="0.91 r13725"
   version="1.0"
   sodipodi:docname="start-here-slackware-symbolic.svg"
   inkscape:output_extension="org.inkscape.output.svg.inkscape"
   style="display:inline">
  <defs
     id="defs4">
    <linearGradient
       id="linearGradient3785">
      <stop
         id="stop3787"
         offset="0"
         style="stop-color:#384880;stop-opacity:1;" />
      <stop
         id="stop3789"
         offset="1"
         style="stop-color:#000000;stop-opacity:1;" />
    </linearGradient>
    <linearGradient
       inkscape:collect="always"
       xlink:href="#linearGradient3785"
       id="linearGradient3189"
       gradientUnits="userSpaceOnUse"
       gradientTransform="matrix(0.08112299,0,0,0.07855526,-21.185695,-23.153302)"
       x1="365.51193"
       y1="408.39655"
       x2="365.97757"
       y2="520.1709" />
  </defs>
  <sodipodi:namedview
     id="base"
     pagecolor="#ffffff"
     bordercolor="#f05656"
     borderopacity="1"
     inkscape:pageopacity="0.0"
     inkscape:pageshadow="2"
     inkscape:zoom="11.353828"
     inkscape:cx="-20.275604"
     inkscape:cy="18.427413"
     inkscape:document-units="px"
     inkscape:current-layer="layer1"
     showgrid="true"
     inkscape:showpageshadow="false"
     showguides="true"
     inkscape:guide-bbox="true"
     inkscape:window-width="1024"
     inkscape:window-height="716"
     inkscape:window-x="0"
     inkscape:window-y="0"
     inkscape:window-maximized="1"
     inkscape:snap-global="false">
    <sodipodi:guide
       orientation="1,0"
       position="0,112"
       id="guide2383" />
    <sodipodi:guide
       orientation="0,1"
       position="26.278146,128"
       id="guide2385" />
    <sodipodi:guide
       orientation="1,0"
       position="128,54.082119"
       id="guide2387" />
    <sodipodi:guide
       orientation="0,1"
       position="78.156291,0"
       id="guide2389" />
    <sodipodi:guide
       orientation="0,1"
       position="60.863576,64.084768"
       id="guide2391" />
    <inkscape:grid
       type="xygrid"
       id="grid3672"
       visible="true"
       enabled="true"
       empspacing="8"
       snapvisiblegridlinesonly="true" />
  </sodipodi:namedview>
  <metadata
     id="metadata7">
    <rdf:RDF>
      <cc:Work
         rdf:about="">
        <dc:format>image/svg+xml</dc:format>
        <dc:type
           rdf:resource="http://purl.org/dc/dcmitype/StillImage" />
        <dc:title />
      </cc:Work>
    </rdf:RDF>
  </metadata>
  <g
     inkscape:groupmode="layer"
     id="layer2"
     inkscape:label="Dark background"
     sodipodi:insensitive="true"
     style="display:none"
     transform="translate(0,-6)">
    <rect
       y="0"
       x="0"
       height="22"
       width="22"
       id="rect4898"
       style="fill:#333333;fill-opacity:1;fill-rule:nonzero;stroke:none;display:inline" />
  </g>
  <g
     inkscape:groupmode="layer"
     id="layer3"
     inkscape:label="Pale darkground"
     sodipodi:insensitive="true"
     style="display:none"
     transform="translate(0,-6)">
    <rect
       style="fill:#efebe7;fill-opacity:1;fill-rule:nonzero;stroke:none"
       id="rect4126"
       width="22"
       height="22"
       x="0"
       y="0" />
  </g>
  <g
     inkscape:label="Button"
     inkscape:groupmode="layer"
     id="layer1"
     style="display:inline"
     transform="translate(0,-6)">
    <path
       style="opacity:1;color:#000000;fill:#bebebe;fill-opacity:1;fill-rule:nonzero;stroke:none;stroke-width:0.80000000999999998;marker:none;visibility:visible;display:inline;overflow:visible;enable-background:accumulate"
       d="M 8 0 C 3.581722 8.8817842e-16 -2.9901493e-17 3.581722 0 8 C 0 12.418278 3.581722 16 8 16 C 10.526054 16 12.783865 14.828514 14.25 13 L 3 13 L 3 10 L 4 10 L 4 12 L 14.90625 12 C 15.590525 10.821042 16 9.4612911 16 8 C 16 3.581722 12.418278 -1.8062583e-15 8 0 z M 8.15625 3.15625 C 8.8431007 3.15625 9.6351363 3.3616982 9.875 3.5625 C 9.8864235 3.311497 10.135136 3.21875 10.375 3.21875 C 10.657874 3.21875 10.9375 3.4679991 10.9375 3.65625 L 10.9375 5.125 C 10.9375 5.338347 10.762957 5.5 10.5 5.5 C 10.248453 5.5 10.025846 5.383079 9.96875 5.15625 C 9.9198037 4.867768 9.5768632 4 8.125 4 C 6.8342504 4 6.3125 4.810107 6.3125 5.375 C 6.3125 5.902253 6.9148977 6.45617 8 6.46875 C 9.0511328 6.46875 11.2386 6.710661 11.25 8.71875 C 11.257066 9.961188 10.003973 10.9375 8.1875 10.9375 C 7.4609136 10.9375 6.808937 10.805686 6.15625 10.4375 C 6.15625 10.904387 6.0175911 10.9375 5.59375 10.9375 C 5.200181 10.9375 5.042651 10.582702 5.03125 10.21875 L 5.03125 8.625 C 5.03125 8.424199 5.2142175 8.25 5.5 8.25 C 5.7855529 8.25 6.03125 8.448851 6.03125 8.625 C 6.03125 9.127632 6.6635527 10.09375 8 10.09375 C 9.1767012 10.09375 10.1875 9.672887 10.1875 8.71875 C 10.1875 7.739519 9.1111908 7.4375 7.96875 7.4375 C 6.871691 7.4375 5.1875 6.89377 5.1875 5.375 C 5.1875 3.7917066 6.9569272 3.15625 8.15625 3.15625 z "
       transform="translate(0,6)"
       id="path4336" />
    <path
       style="fill:url(#linearGradient3189);fill-opacity:1;stroke:none;display:inline"
       d="M 3.020979,16.188811 3,16.314685 l 0.020979,0 0,-0.125874 z"
       id="path4340" />
  </g>
</svg>
