<?xml version="1.0" encoding="UTF-8" standalone="no"?>
<!-- Created with Inkscape (http://www.inkscape.org/) -->

<svg
   xmlns:dc="http://purl.org/dc/elements/1.1/"
   xmlns:cc="http://creativecommons.org/ns#"
   xmlns:rdf="http://www.w3.org/1999/02/22-rdf-syntax-ns#"
   xmlns:svg="http://www.w3.org/2000/svg"
   xmlns="http://www.w3.org/2000/svg"
   xmlns:sodipodi="http://sodipodi.sourceforge.net/DTD/sodipodi-0.dtd"
   xmlns:inkscape="http://www.inkscape.org/namespaces/inkscape"
   width="16"
   height="16"
   id="svg2"
   sodipodi:version="0.32"
   inkscape:version="0.91 r13725"
   version="1.0"
   sodipodi:docname="start-here-mandriva-symbolic.svg"
   inkscape:output_extension="org.inkscape.output.svg.inkscape"
   style="display:inline">
  <defs
     id="defs4" />
  <sodipodi:namedview
     id="base"
     pagecolor="#ffffff"
     bordercolor="#f05656"
     borderopacity="1"
     inkscape:pageopacity="0.0"
     inkscape:pageshadow="2"
     inkscape:zoom="16.008898"
     inkscape:cx="-5.0820658"
     inkscape:cy="4.1897697"
     inkscape:document-units="px"
     inkscape:current-layer="layer1"
     showgrid="true"
     inkscape:showpageshadow="false"
     showguides="true"
     inkscape:guide-bbox="true"
     inkscape:window-width="1024"
     inkscape:window-height="716"
     inkscape:window-x="0"
     inkscape:window-y="0"
     inkscape:window-maximized="1">
    <sodipodi:guide
       orientation="1,0"
       position="0,112"
       id="guide2383" />
    <sodipodi:guide
       orientation="0,1"
       position="26.278146,128"
       id="guide2385" />
    <sodipodi:guide
       orientation="1,0"
       position="128,54.082119"
       id="guide2387" />
    <sodipodi:guide
       orientation="0,1"
       position="78.156291,0"
       id="guide2389" />
    <sodipodi:guide
       orientation="0,1"
       position="60.863576,64.084768"
       id="guide2391" />
    <inkscape:grid
       type="xygrid"
       id="grid3672"
       visible="true"
       enabled="true"
       empspacing="8"
       snapvisiblegridlinesonly="true" />
  </sodipodi:namedview>
  <metadata
     id="metadata7">
    <rdf:RDF>
      <cc:Work
         rdf:about="">
        <dc:format>image/svg+xml</dc:format>
        <dc:type
           rdf:resource="http://purl.org/dc/dcmitype/StillImage" />
        <dc:title />
      </cc:Work>
    </rdf:RDF>
  </metadata>
  <g
     inkscape:groupmode="layer"
     id="layer2"
     inkscape:label="Dark background"
     sodipodi:insensitive="true"
     style="display:none"
     transform="translate(0,-6)">
    <rect
       y="0"
       x="0"
       height="22"
       width="22"
       id="rect4898"
       style="fill:#333333;fill-opacity:1;fill-rule:nonzero;stroke:none;display:inline" />
  </g>
  <g
     inkscape:groupmode="layer"
     id="layer3"
     inkscape:label="Pale darkground"
     sodipodi:insensitive="true"
     style="display:none"
     transform="translate(0,-6)">
    <rect
       style="fill:#efebe7;fill-opacity:1;fill-rule:nonzero;stroke:none"
       id="rect4126"
       width="22"
       height="22"
       x="0"
       y="0" />
  </g>
  <g
     inkscape:label="Button"
     inkscape:groupmode="layer"
     id="layer1"
     style="display:inline"
     transform="translate(0,-6)">
    <path
       inkscape:connector-curvature="0"
       style="fill:#bebebe;fill-opacity:1;stroke:none;display:inline"
       d="m 10.751211,7.708284 c -0.07263,-0.015188 -0.185026,0.04846 -0.270907,0.1806044 L 8.4635556,11.019363 c -0.1713847,0.263139 -0.5609511,0.441438 -0.8729207,0.39131 L 3.8581448,10.808659 C 3.5454337,10.758223 3.4475175,10.92644 3.6474399,11.169867 l 2.377957,2.889669 c 0.1991846,0.244056 0.2646648,0.682944 0.1204029,0.963224 l -1.7157412,3.341179 c -0.1438421,0.280335 -0.023002,0.414339 0.2709065,0.301007 l 3.491685,-1.354532 C 8.4731628,17.20293 8.8655588,17.261782 9.0956708,17.460918 7.1309469,18.778442 4.1134669,20.325484 2.202605,18.514444 1.0897607,17.459844 0.91509104,15.486362 0.96847554,14.059536 1.0289275,12.444326 1.703507,10.955097 2.7745188,9.7551331 2.4845061,10.080001 2.132404,10.332083 1.8413965,10.658155 c -1.04315196,1.168812 -1.66445926,2.567173 -1.80604336,4.123799 -0.13832683,1.52138 0.1023236,3.480816 1.20402886,4.635512 2.0284978,2.126223 5.8073114,-0.22002 7.5853824,-1.505036 0.1322616,-0.09556 0.2481014,-0.239867 0.3612084,-0.36121 l 2.6187632,2.618763 c 0.222916,0.223622 0.378833,0.133451 0.361209,-0.180605 L 11.95524,16.25689 c -0.01735,-0.313119 0.199065,-0.700893 0.481611,-0.842821 l 3.371282,-1.68564 c 0.28201,-0.142489 0.245756,-0.31023 -0.0602,-0.39131 l -3.64219,-0.963223 c -0.30565,-0.0804 -0.583597,-0.412229 -0.632115,-0.722417 L 10.901714,7.9490899 C 10.877482,7.7939289 10.82385,7.7234723 10.751211,7.708284 z"
       id="path3066" />
  </g>
</svg>
