<?xml version="1.0" encoding="iso-8859-1"?>
<!-- Generator: Adobe Illustrator 16.0.0, SVG Export Plug-In . SVG Version: 6.00 Build 0)  -->
<!DOCTYPE svg PUBLIC "-//W3C//DTD SVG 1.1//EN" "http://www.w3.org/Graphics/SVG/1.1/DTD/svg11.dtd">
<svg version="1.1" id="Capa_1" xmlns="http://www.w3.org/2000/svg" xmlns:xlink="http://www.w3.org/1999/xlink" x="0px" y="0px"
	 width="260.464px" height="260.464px" viewBox="0 0 260.464 260.464" style="enable-background:new 0 0 260.464 260.464;"
	 xml:space="preserve">
<g>
	<g>
		<path d="M207.854,139.263c-2.01,2.714-4.376,5.038-6.929,6.908c-5.861,7.85-14.24,11.92-21.67,9.476
			c-10.264-3.355-14.769-17.72-10.062-32.094c1.476-4.51,3.743-8.399,6.395-11.623l17.368-40.801l0,0l7.166-16.823
			c-21.535-21.873-55.012-35.144-100.432-27.897C0.059,42.305-30.676,164.195,33.978,221.43
			c60.503,53.567,92.24,17.077,115.171-23.441c2.595-4.583,8.746-7.271,13.981-6.711c16.684,1.771,50.844-0.099,62.687-41.922
			c3.313-11.719,4.06-24.591,2.31-37.482L207.854,139.263z M58.887,86.819c11.418,0,20.668,9.253,20.668,20.664
			c0,11.415-9.25,20.668-20.668,20.668c-11.415,0-20.668-9.253-20.668-20.668C38.219,96.072,47.472,86.819,58.887,86.819z
			 M46.962,181.413c-11.41,0-20.668-9.253-20.668-20.661c0-11.412,9.253-20.671,20.668-20.671c11.418,0,20.669,9.253,20.669,20.671
			C67.631,172.16,58.38,181.413,46.962,181.413z M87.504,222.75c-11.416,0-20.668-9.254-20.668-20.661
			c0-11.417,9.253-20.671,20.668-20.671c11.417,0,20.668,9.254,20.668,20.671C108.173,213.496,98.922,222.75,87.504,222.75z
			 M104.196,92.386c-11.415,0-20.668-9.251-20.668-20.669c0-11.41,9.253-20.663,20.668-20.663c11.413,0,20.671,9.253,20.671,20.663
			C124.867,83.135,115.614,92.386,104.196,92.386z"/>
		<path d="M238.954,15.941c-13.375,0.865-23.416,13.82-23.416,13.82l0.114,0.057c-0.564,0.551-1.113,1.139-1.631,1.761
			c-9.108,10.853-7.689,27.027,3.164,36.13c10.853,9.104,27.024,7.689,36.127-3.166c3.299-3.928,5.199-8.567,5.789-13.313
			l0.011,0.005c4.925-23.314-5.193-39.053-5.193-39.053S252.34,15.076,238.954,15.941z"/>
		<path d="M179.871,146.477c5.044,2.936,13.422-0.487,18.72-7.639l24.663-33.323c-11.49-2.641-21.784-9.761-28.412-15.325
			c-0.616-0.518-1.201-1.018-1.75-1.504l-16.032,37.658C173.575,134.525,174.833,143.545,179.871,146.477z"/>
		<path d="M214.741,70.619c-4.07-3.415-6.97-7.697-8.699-12.353l-7.363,17.3c6.504,6.475,20.77,17.738,33.761,17.551l13.453-18.165
			C235.847,79.406,223.704,78.146,214.741,70.619z"/>
	</g>
</g>
<g>
</g>
<g>
</g>
<g>
</g>
<g>
</g>
<g>
</g>
<g>
</g>
<g>
</g>
<g>
</g>
<g>
</g>
<g>
</g>
<g>
</g>
<g>
</g>
<g>
</g>
<g>
</g>
<g>
</g>
</svg>
