<?xml version="1.0" encoding="UTF-8" standalone="no"?>
<!-- Created with Inkscape (http://www.inkscape.org/) -->

<svg
   xmlns:dc="http://purl.org/dc/elements/1.1/"
   xmlns:cc="http://creativecommons.org/ns#"
   xmlns:rdf="http://www.w3.org/1999/02/22-rdf-syntax-ns#"
   xmlns:svg="http://www.w3.org/2000/svg"
   xmlns="http://www.w3.org/2000/svg"
   xmlns:sodipodi="http://sodipodi.sourceforge.net/DTD/sodipodi-0.dtd"
   xmlns:inkscape="http://www.inkscape.org/namespaces/inkscape"
   width="16"
   height="16"
   id="svg2"
   sodipodi:version="0.32"
   inkscape:version="0.91 r13725"
   version="1.0"
   sodipodi:docname="system-log-out-symbolic.svg"
   inkscape:output_extension="org.inkscape.output.svg.inkscape"
   style="display:inline">
  <defs
     id="defs4" />
  <sodipodi:namedview
     id="base"
     pagecolor="#ffffff"
     bordercolor="#e7e7e7"
     borderopacity="1"
     inkscape:pageopacity="0.0"
     inkscape:pageshadow="2"
     inkscape:zoom="17.118011"
     inkscape:cx="0.49341461"
     inkscape:cy="7.8026674"
     inkscape:document-units="px"
     inkscape:current-layer="layer1"
     showgrid="true"
     inkscape:showpageshadow="false"
     showguides="false"
     inkscape:guide-bbox="true"
     inkscape:window-width="1024"
     inkscape:window-height="716"
     inkscape:window-x="0"
     inkscape:window-y="0"
     inkscape:window-maximized="1">
    <sodipodi:guide
       orientation="1,0"
       position="0,112"
       id="guide2383" />
    <sodipodi:guide
       orientation="0,1"
       position="26.278146,128"
       id="guide2385" />
    <sodipodi:guide
       orientation="1,0"
       position="128,54.082119"
       id="guide2387" />
    <sodipodi:guide
       orientation="0,1"
       position="78.156291,0"
       id="guide2389" />
    <sodipodi:guide
       orientation="0,1"
       position="60.863576,64.084768"
       id="guide2391" />
    <inkscape:grid
       type="xygrid"
       id="grid3672"
       visible="true"
       enabled="true" />
  </sodipodi:namedview>
  <metadata
     id="metadata7">
    <rdf:RDF>
      <cc:Work
         rdf:about="">
        <dc:format>image/svg+xml</dc:format>
        <dc:type
           rdf:resource="http://purl.org/dc/dcmitype/StillImage" />
        <dc:title />
      </cc:Work>
    </rdf:RDF>
  </metadata>
  <g
     inkscape:label="Icon"
     inkscape:groupmode="layer"
     id="layer1"
     style="display:inline"
     transform="translate(-0.8611607,-0.9999999)">
    <path
       style="opacity:1;fill:#bebebe;fill-opacity:1;fill-rule:nonzero;stroke:none;stroke-width:2;stroke-linecap:square;stroke-linejoin:round;stroke-miterlimit:4;stroke-dasharray:none;stroke-dashoffset:0;stroke-opacity:1"
       d="m 15.361161,7.9999998 c 0,-0.277 -0.223,-0.4999999 -0.5,-0.5 l -5.0000003,0 c -0.277,0 -0.5000001,0.2230001 -0.5,0.5 l 0,1 c 0,0.277 0.2229999,0.5000001 0.5,0.5 l 5.0000003,0 c 0.277,0 0.5,-0.2229999 0.5,-0.5 l 0,-1 z m -1.34375,-1.5 c -0.823639,-2.3307785 -3.0446,-4 -5.6562503,-4 -3.3119999,0 -5.9999999,2.6880002 -5.9999999,6 0,3.3120002 2.688,6.0000002 5.9999999,6.0000002 2.6116503,0 4.8326113,-1.669221 5.6562503,-4 l -2.21875,0 c -0.69234,1.193787 -1.9590544,2 -3.4375003,2 -2.2079999,0 -3.9999999,-1.792 -3.9999999,-4.0000002 0,-2.2079999 1.792,-4 3.9999999,-4 1.4784461,0 2.7451603,0.8062133 3.4375003,2 l 2.21875,0 z"
       id="path2401"
       inkscape:connector-curvature="0" />
  </g>
</svg>
