<?xml version="1.0" encoding="UTF-8" standalone="no"?>
<!-- Svg Vector Icons : http://www.onlinewebfonts.com/icon -->

<svg
   xmlns:dc="http://purl.org/dc/elements/1.1/"
   xmlns:cc="http://creativecommons.org/ns#"
   xmlns:rdf="http://www.w3.org/1999/02/22-rdf-syntax-ns#"
   xmlns:svg="http://www.w3.org/2000/svg"
   xmlns="http://www.w3.org/2000/svg"
   xmlns:sodipodi="http://sodipodi.sourceforge.net/DTD/sodipodi-0.dtd"
   xmlns:inkscape="http://www.inkscape.org/namespaces/inkscape"
   version="1.1"
   x="0px"
   y="0px"
   viewBox="0 0 256 256"
   setSize="0 0 256 256"
   enable-background="new 0 0 256 256"
   xml:space="preserve"
   id="svg2"
   inkscape:version="0.91 r13725"
   sodipodi:docname="img_397662.svg"><defs
     id="defs26" /><sodipodi:namedview
     pagecolor="#ffffff"
     bordercolor="#666666"
     borderopacity="1"
     objecttolerance="10"
     gridtolerance="10"
     guidetolerance="10"
     inkscape:pageopacity="0"
     inkscape:pageshadow="2"
     inkscape:window-width="1024"
     inkscape:window-height="716"
     id="namedview24"
     showgrid="false"
     inkscape:zoom="0.921875"
     inkscape:cx="13.466603"
     inkscape:cy="119.77522"
     inkscape:window-x="0"
     inkscape:window-y="0"
     inkscape:window-maximized="1"
     inkscape:current-layer="svg2" /><metadata
     id="metadata4"> Svg Vector Icons : http://www.onlinewebfonts.com/icon <rdf:RDF><cc:Work
     rdf:about=""><dc:format>image/svg+xml</dc:format><dc:type
       rdf:resource="http://purl.org/dc/dcmitype/StillImage" /></cc:Work></rdf:RDF></metadata><g
     id="g6"
     transform="matrix(0.23878647,0,0,0.23878647,8.6968731,7.9546485)"><path
       d="m 354.7,13.3 -243.4,0 C 57.6,13.3 14,56.9 14,110.7 L 14,354 c 0,53.7 43.6,97.3 97.3,97.3 l 243.4,0 c 53.7,0 97.4,-43.6 97.4,-97.3 l 0,-243.3 C 452,56.9 408.4,13.3 354.7,13.3 l 0,0 z m 0,340.7 -243.4,0 0,-243.4 243.4,0 0,243.4 0,0 z"
       id="path8"
       inkscape:connector-curvature="0" /><path
       d="m 890,13.3 -243.3,0 c -53.7,0 -97.3,43.6 -97.3,97.4 l 0,243.3 c 0,53.7 43.6,97.3 97.3,97.3 l 243.3,0 c 53.7,0 97.4,-43.6 97.4,-97.3 l 0,-243.3 C 987.4,56.9 943.8,13.3 890,13.3 l 0,0 z m 0,340.7 -243.3,0 0,-243.4 243.3,0 0,243.4 0,0 z"
       id="path10"
       inkscape:connector-curvature="0" /><path
       d="m 354.7,548.7 -243.4,0 C 57.6,548.7 14,592.3 14,646 l 0,243.4 c 0,53.7 43.6,97.3 97.3,97.3 l 243.4,0 c 53.7,0 97.4,-43.6 97.4,-97.3 l 0,-243.4 C 452,592.3 408.4,548.7 354.7,548.7 l 0,0 z m 0,340.7 -243.4,0 0,-243.4 243.4,0 0,243.4 0,0 z"
       id="path12"
       inkscape:connector-curvature="0" /><path
       d="m 890,548.7 -243.3,0 c -53.7,0 -97.3,43.6 -97.3,97.3 l 0,243.4 c 0,53.7 43.6,97.3 97.3,97.3 l 243.3,0 c 53.7,0 97.4,-43.6 97.4,-97.3 l 0,-243.4 c 0,-53.7 -43.6,-97.3 -97.4,-97.3 l 0,0 z m 0,340.7 -243.3,0 0,-243.4 243.3,0 0,243.4 0,0 z"
       id="path14"
       inkscape:connector-curvature="0" /><path
       d="m 348.9,440.8 -252.2,0 C 48.9,440.8 10,401.6 10,353.5 L 10,102.6 C 10,54.4 48.9,15.3 96.7,15.3 l 252.2,0 c 47.8,0 86.7,39.2 86.7,87.3 l 0,250.9 c 0,48.1 -38.9,87.3 -86.7,87.3 z M 96.7,62.5 c -21.7,0 -39.4,18 -39.4,40.1 l 0,250.9 c 0,22.1 17.7,40.1 39.4,40.1 l 252.2,0 c 21.7,0 39.4,-18 39.4,-40.1 l 0,-250.9 c 0,-22.1 -17.7,-40.1 -39.4,-40.1 l -252.2,0 z"
       id="path16"
       inkscape:connector-curvature="0" /><path
       d="m 903.3,441.5 -252.2,0 c -47.8,0 -86.7,-39.2 -86.7,-87.3 l 0,-251 c 0,-48.2 38.9,-87.3 86.7,-87.3 l 252.3,0 c 47.8,0 86.7,39.2 86.7,87.3 l 0,250.9 c -0.1,48.2 -39,87.4 -86.8,87.4 z M 651.1,63.2 c -21.7,0 -39.4,18 -39.4,40.1 l 0,250.9 c 0,22.1 17.7,40.1 39.4,40.1 l 252.3,0 c 21.7,0 39.4,-18 39.4,-40.1 l 0,-251 c 0,-22.1 -17.7,-40.1 -39.4,-40.1 l -252.3,0 z"
       id="path18"
       inkscape:connector-curvature="0" /><path
       d="m 348.9,984.7 -252.2,0 C 48.9,984.7 10,945.5 10,897.4 l 0,-250.9 c 0,-48.2 38.9,-87.3 86.7,-87.3 l 252.2,0 c 47.8,0 86.7,39.2 86.7,87.3 l 0,250.9 c 0,48.2 -38.9,87.3 -86.7,87.3 z M 96.7,606.4 c -21.7,0 -39.4,18 -39.4,40.1 l 0,250.9 c 0,22.1 17.7,40.1 39.4,40.1 l 252.2,0 c 21.7,0 39.4,-18 39.4,-40.1 l 0,-250.9 c 0,-22.1 -17.7,-40.1 -39.4,-40.1 l -252.2,0 z"
       id="path20"
       inkscape:connector-curvature="0" /><path
       d="m 903.3,985.4 -252.2,0 c -47.8,0 -86.7,-39.2 -86.7,-87.3 l 0,-251 c 0,-48.2 38.9,-87.3 86.7,-87.3 l 252.3,0 c 47.8,0 86.7,39.2 86.7,87.3 l 0,250.9 c -0.1,48.2 -39,87.4 -86.8,87.4 z M 651.1,607.1 c -21.7,0 -39.4,18 -39.4,40.1 l 0,250.8 c 0,22.1 17.7,40.1 39.4,40.1 l 252.3,0 c 21.7,0 39.4,-18 39.4,-40.1 l 0,-250.9 C 942.8,625 925.1,607 903.4,607 l -252.3,0 z"
       id="path22"
       inkscape:connector-curvature="0" /></g></svg>