<?xml version="1.0" encoding="UTF-8" standalone="no"?>
<!-- Created with Inkscape (http://www.inkscape.org/) -->

<svg
   xmlns:dc="http://purl.org/dc/elements/1.1/"
   xmlns:cc="http://creativecommons.org/ns#"
   xmlns:rdf="http://www.w3.org/1999/02/22-rdf-syntax-ns#"
   xmlns:svg="http://www.w3.org/2000/svg"
   xmlns="http://www.w3.org/2000/svg"
   xmlns:sodipodi="http://sodipodi.sourceforge.net/DTD/sodipodi-0.dtd"
   xmlns:inkscape="http://www.inkscape.org/namespaces/inkscape"
   width="16"
   height="16"
   id="svg2"
   sodipodi:version="0.32"
   inkscape:version="0.91 r13725"
   version="1.0"
   sodipodi:docname="camera-web-symbolic.svg"
   inkscape:output_extension="org.inkscape.output.svg.inkscape"
   style="display:inline">
  <defs
     id="defs4" />
  <sodipodi:namedview
     id="base"
     pagecolor="#ffffff"
     bordercolor="#e7e7e7"
     borderopacity="1"
     inkscape:pageopacity="0.0"
     inkscape:pageshadow="2"
     inkscape:zoom="22.640001"
     inkscape:cx="-3.68386"
     inkscape:cy="8.7158523"
     inkscape:document-units="px"
     inkscape:current-layer="layer1"
     showgrid="true"
     inkscape:showpageshadow="false"
     showguides="false"
     inkscape:guide-bbox="true"
     inkscape:window-width="1024"
     inkscape:window-height="716"
     inkscape:window-x="0"
     inkscape:window-y="0"
     inkscape:window-maximized="1">
    <sodipodi:guide
       orientation="1,0"
       position="0,112"
       id="guide2383" />
    <sodipodi:guide
       orientation="0,1"
       position="26.278146,128"
       id="guide2385" />
    <sodipodi:guide
       orientation="1,0"
       position="128,54.082119"
       id="guide2387" />
    <sodipodi:guide
       orientation="0,1"
       position="78.156291,0"
       id="guide2389" />
    <sodipodi:guide
       orientation="0,1"
       position="60.863576,64.084768"
       id="guide2391" />
    <inkscape:grid
       type="xygrid"
       id="grid3672"
       visible="true"
       enabled="true"
       empspacing="8"
       snapvisiblegridlinesonly="true" />
  </sodipodi:namedview>
  <metadata
     id="metadata7">
    <rdf:RDF>
      <cc:Work
         rdf:about="">
        <dc:format>image/svg+xml</dc:format>
        <dc:type
           rdf:resource="http://purl.org/dc/dcmitype/StillImage" />
        <dc:title />
      </cc:Work>
    </rdf:RDF>
  </metadata>
  <g
     inkscape:label="Icon"
     inkscape:groupmode="layer"
     id="layer1"
     style="display:inline"
     transform="translate(0,-6)">
    <path
       style="color:#000000;fill:#bebebe;fill-opacity:1;fill-rule:nonzero;stroke:none;stroke-width:0.80000001;marker:none;visibility:visible;display:inline;overflow:visible;enable-background:accumulate"
       d="M 7.5 0 C 3.9101492 0 1 2.9101492 1 6.5 C 1 9.5065 3.0403331 12.038471 5.8125 12.78125 L 2.71875 15.09375 C 2.3642192 15.327244 2.575567 16.008253 3 16 L 12 16 C 12.424433 16.0083 12.635781 15.327244 12.28125 15.09375 L 9.1875 12.78125 C 11.959667 12.038471 14 9.5065 14 6.5 C 14 2.9101492 11.089851 0 7.5 0 z M 7.5 1 C 7.7761424 1 8 1.2238576 8 1.5 C 8 1.7761424 7.7761424 2 7.5 2 C 7.2238576 2 7 1.7761424 7 1.5 C 7 1.2238576 7.2238576 1 7.5 1 z M 7.5 3 C 9.1568542 3 10.5 4.343145 10.5 6 C 10.5 7.656855 9.1568542 9 7.5 9 C 5.8431458 9 4.5 7.656855 4.5 6 C 4.5 4.343145 5.8431458 3 7.5 3 z M 7.5 3.84375 C 6.3165327 3.84375 5.34375 4.816533 5.34375 6 C 5.34375 7.183467 6.3165327 8.15625 7.5 8.15625 C 8.6834673 8.15625 9.65625 7.183467 9.65625 6 C 9.65625 4.816533 8.6834673 3.84375 7.5 3.84375 z "
       transform="translate(0,6)"
       id="path3897" />
  </g>
</svg>
