<svg version="1.0" xmlns="http://www.w3.org/2000/svg"
 width="1280.000000pt" height="1280.000000pt" viewBox="0 0 1280.000000 1280.000000"
 preserveAspectRatio="xMidYMid meet" fill="#000000" stroke="none">
<g transform="translate(0.000000,1280.000000) scale(0.100000,-0.100000)">
<path d="M6085 12794 c-794 -47 -1358 -164 -1990 -411 -946 -372 -1784 -951
-2455 -1700 -1259 -1402 -1843 -3330 -1574 -5201 132 -920 463 -1792 977
-2574 733 -1116 1789 -1976 3022 -2463 558 -220 1145 -360 1775 -422 241 -24
833 -24 1076 0 999 98 1855 365 2682 836 506 287 859 559 1298 996 348 346
571 610 807 954 509 742 848 1575 1016 2501 63 349 75 527 75 1085 0 557 -16
788 -79 1130 -373 2019 -1617 3687 -3435 4604 -749 379 -1418 569 -2275 647
-159 14 -779 27 -920 18z m301 -129 c23 -31 41 -221 49 -525 3 -124 8 -248 11
-275 l5 -50 276 -18 c152 -10 317 -23 367 -30 147 -17 158 -16 174 17 8 15 25
85 38 155 36 194 32 221 -32 221 -45 0 -81 -15 -93 -39 -6 -11 -18 -64 -27
-118 -9 -54 -19 -101 -23 -104 -3 -4 -55 -3 -116 2 -260 20 -372 30 -402 36
l-33 5 0 132 c0 72 7 235 15 361 8 127 15 234 15 238 0 9 61 6 330 -14 379
-28 1008 -137 1089 -188 12 -8 -1 -67 -74 -343 -129 -487 -129 -490 -110 -505
18 -13 604 -209 722 -241 l71 -20 51 111 c80 179 93 217 80 233 -6 7 -31 23
-55 35 -58 27 -62 23 -124 -108 -27 -57 -56 -106 -65 -109 -21 -9 -480 150
-508 176 -13 11 53 251 138 505 58 173 74 205 100 205 106 0 1224 -492 1285
-565 10 -13 -4 -43 -86 -188 -212 -373 -237 -420 -270 -494 -18 -42 -31 -80
-28 -84 2 -5 82 -59 177 -122 95 -63 243 -169 331 -236 87 -67 162 -121 166
-119 9 3 162 193 197 243 36 53 37 70 2 109 -53 61 -76 52 -175 -70 -42 -52
-80 -94 -85 -94 -4 0 -98 66 -207 148 -109 81 -209 154 -222 163 l-24 16 113
184 c138 222 280 439 289 439 15 0 230 -141 344 -226 341 -253 768 -625 768
-669 0 -23 -84 -117 -334 -373 l-237 -243 27 -32 c131 -155 287 -344 372 -450
57 -70 114 -134 127 -143 23 -15 27 -14 62 7 69 41 224 161 239 184 13 19 13
28 3 47 -17 33 -50 68 -65 68 -7 0 -53 -27 -102 -60 -48 -33 -97 -60 -108 -60
-21 0 -74 52 -268 264 -113 122 -111 115 -33 208 51 62 458 449 467 446 4 -2
52 -53 107 -113 187 -207 402 -491 586 -772 151 -231 182 -282 171 -293 -5 -5
-171 -99 -369 -210 -198 -111 -364 -206 -369 -211 -6 -5 44 -118 132 -296 78
-159 156 -324 175 -368 42 -103 55 -108 169 -71 46 15 117 43 158 64 71 35 75
39 78 74 2 20 -4 51 -13 68 -19 37 -29 36 -148 -10 -110 -42 -116 -42 -148 5
-33 49 -155 287 -194 380 l-29 68 29 23 c62 50 592 304 633 304 32 0 282 -579
406 -940 63 -182 96 -303 96 -350 0 -40 -3 -41 -313 -131 -298 -86 -356 -104
-430 -137 -69 -30 -69 8 -4 -312 24 -124 55 -280 67 -348 31 -171 27 -167 187
-166 175 1 223 25 223 114 0 62 1 62 -150 54 l-137 -7 -6 33 c-18 87 -66 391
-70 439 -3 41 0 58 12 70 30 30 590 156 662 149 30 -3 35 -8 46 -47 55 -193
153 -994 153 -1257 l0 -134 -427 0 -428 1 -7 -63 c-12 -104 -57 -586 -64 -689
l-7 -97 29 -6 c55 -11 326 -37 338 -33 7 3 21 31 31 62 15 49 16 59 3 71 -8 8
-65 23 -126 34 -62 10 -117 22 -123 26 -12 7 -9 85 13 382 l11 154 351 -4
c260 -2 357 -7 374 -16 20 -11 22 -20 22 -87 0 -255 -145 -1193 -201 -1297
-10 -18 -17 -20 -76 -13 -36 4 -210 42 -386 86 -177 43 -333 79 -348 79 -39 0
-64 -37 -94 -138 -15 -48 -64 -191 -110 -318 -98 -272 -104 -294 -80 -330 19
-29 120 -79 233 -115 82 -26 95 -23 126 30 31 53 15 70 -113 126 -61 26 -114
51 -116 55 -7 11 115 341 156 424 19 38 42 74 51 80 29 18 485 -107 608 -167
57 -28 65 -36 68 -63 13 -128 -500 -1274 -570 -1274 -25 0 -59 18 -364 190
-368 209 -383 216 -399 199 -33 -36 -445 -648 -445 -663 0 -33 157 -179 238
-220 41 -21 59 -16 102 29 42 43 38 53 -41 108 -79 54 -119 96 -119 123 0 24
95 171 219 338 l71 96 38 -15 c135 -57 569 -323 595 -366 16 -26 -115 -219
-401 -588 -246 -318 -431 -531 -459 -531 -28 0 -132 91 -389 338 l-259 249
-95 -87 c-131 -119 -296 -261 -421 -360 -57 -45 -105 -86 -107 -91 -3 -8 107
-189 166 -271 19 -27 39 -48 46 -48 20 0 126 71 126 85 0 7 -8 19 -17 26 -29
24 -133 170 -133 187 0 9 24 38 53 65 85 80 359 308 366 305 15 -7 378 -407
454 -500 46 -56 48 -53 -67 -157 -233 -212 -720 -569 -948 -695 -111 -62 -92
-81 -317 309 -108 187 -200 346 -204 352 -11 17 -67 -5 -411 -161 -153 -70
-298 -132 -322 -138 -55 -15 -56 -26 -14 -150 51 -151 90 -237 111 -243 26 -9
82 11 105 36 18 20 18 23 -20 133 -22 62 -37 120 -33 128 7 19 343 189 421
214 30 9 61 14 69 11 15 -6 184 -314 261 -479 25 -51 47 -109 51 -129 6 -32 3
-39 -26 -63 -120 -101 -1072 -476 -1218 -480 -51 -1 -56 1 -76 31 -12 17 -37
85 -54 150 -124 452 -162 567 -193 584 -31 16 -293 -19 -756 -102 l-64 -11 6
-42 c3 -22 13 -107 22 -188 9 -80 20 -152 24 -159 7 -10 19 -10 62 2 75 20 81
36 62 173 -8 60 -12 111 -9 114 5 5 388 73 496 88 l47 7 21 -56 c39 -105 165
-623 155 -639 -4 -6 -26 -19 -50 -29 -134 -60 -796 -146 -1189 -156 l-220 -6
3 414 c3 333 1 417 -10 430 -27 33 -798 83 -828 53 -17 -17 -40 -140 -47 -251
l-6 -103 37 -15 c80 -34 105 -3 131 161 9 54 18 100 20 104 4 7 328 -15 445
-30 46 -6 90 -16 97 -22 16 -13 16 -274 0 -543 l-12 -190 -45 -3 c-209 -16
-1159 128 -1334 202 l-39 16 7 50 c9 64 104 448 151 605 38 130 42 157 23 173
-7 5 -55 22 -106 36 -51 15 -217 72 -368 126 -151 55 -283 100 -293 100 -13 0
-30 -21 -54 -67 -46 -89 -97 -217 -97 -247 0 -42 78 -94 113 -75 9 6 28 47 42
94 14 46 34 94 44 106 l18 23 106 -28 c136 -35 376 -113 404 -131 l22 -15 -35
-132 c-42 -161 -84 -305 -130 -455 -32 -104 -37 -113 -59 -113 -32 0 -282 89
-521 186 -304 122 -731 337 -774 389 -18 21 -2 52 182 373 163 284 192 344
184 377 -4 17 -89 82 -293 228 -357 253 -338 240 -367 233 -43 -11 -226 -248
-226 -293 0 -30 56 -58 92 -44 22 8 90 76 151 149 l27 34 225 -158 c124 -87
225 -163 225 -169 0 -14 -115 -211 -265 -454 l-118 -190 -141 95 c-190 129
-407 294 -601 455 -172 144 -375 336 -375 356 0 22 118 152 356 393 l233 235
-76 85 c-183 206 -350 401 -406 477 -34 45 -65 82 -70 83 -11 0 -225 -156
-264 -193 -41 -39 -42 -68 -2 -118 l31 -40 35 21 c19 11 70 48 115 81 66 51
82 59 92 48 45 -49 211 -246 258 -304 67 -85 81 -110 73 -134 -15 -48 -366
-355 -492 -432 l-54 -32 -51 49 c-167 163 -658 823 -763 1027 l-30 58 25 19
c14 10 126 78 250 151 263 153 423 253 440 274 16 19 14 23 -142 350 -69 143
-135 286 -148 318 -33 84 -50 88 -202 41 -145 -44 -198 -76 -198 -118 0 -32
37 -86 59 -86 11 0 64 16 117 35 53 19 105 35 115 35 15 0 35 -34 88 -142 68
-142 141 -323 141 -352 0 -21 -253 -167 -521 -301 -107 -54 -113 -56 -127 -39
-92 123 -512 1180 -512 1290 0 48 54 70 440 174 315 85 382 108 376 128 -8 28
-53 265 -100 524 -25 137 -50 257 -57 269 -9 18 -17 20 -47 14 -21 -3 -97 -10
-169 -13 -73 -4 -137 -12 -143 -18 -16 -16 -23 -96 -11 -126 13 -34 39 -36
180 -13 52 9 95 14 97 13 7 -8 75 -412 81 -480 l6 -77 -29 -11 c-70 -27 -602
-140 -659 -140 -33 0 -33 0 -49 72 -49 227 -116 744 -136 1058 -5 91 -13 195
-16 233 l-6 67 435 0 436 0 5 53 c3 28 15 153 27 277 11 124 29 292 40 374 11
82 18 150 17 151 -7 7 -259 35 -310 35 -78 0 -104 -24 -99 -92 2 -28 59 -50
150 -60 47 -4 90 -13 95 -18 18 -18 17 -125 -3 -344 -11 -120 -22 -220 -24
-222 -2 -2 -127 1 -278 6 -276 10 -440 23 -461 36 -41 26 95 1064 177 1352 15
49 17 52 49 52 48 0 188 -30 439 -95 120 -31 256 -64 302 -74 l84 -19 35 102
c20 55 79 222 131 370 52 149 95 275 95 282 0 35 -246 175 -313 178 -26 1 -34
-5 -54 -39 -35 -62 -31 -80 25 -101 26 -9 81 -30 124 -46 l76 -29 -73 -212
c-40 -117 -82 -234 -92 -262 l-19 -50 -51 1 c-32 1 -172 37 -370 95 -175 51
-319 94 -321 95 -4 2 110 314 168 461 76 189 141 334 250 558 121 248 152 295
190 295 18 0 124 -55 290 -150 312 -179 408 -230 430 -230 22 0 114 125 314
422 132 197 158 240 152 261 -7 28 -170 163 -238 198 -41 21 -58 18 -92 -20
-30 -33 -13 -62 83 -150 l90 -82 -66 -97 c-100 -146 -218 -305 -242 -326 -22
-20 -22 -20 -75 6 -118 58 -521 320 -540 351 -14 22 11 70 113 222 175 260
423 567 627 774 l142 145 268 -261 c148 -144 291 -279 318 -301 l49 -41 76 74
c76 73 190 172 418 363 67 56 124 106 127 111 11 18 -181 264 -224 286 -24 12
-31 12 -61 -3 -59 -30 -53 -68 29 -179 32 -43 61 -83 65 -90 4 -7 -73 -82
-205 -198 l-213 -187 -55 60 c-30 33 -140 150 -245 261 -104 111 -195 211
-203 222 -12 18 -9 23 36 64 230 207 580 477 827 640 177 116 251 157 278 153
16 -2 70 -85 223 -343 112 -187 209 -349 217 -360 14 -19 22 -16 253 95 131
62 296 141 365 175 70 35 133 65 140 67 18 6 4 62 -52 204 -53 136 -70 158
-121 151 -21 -3 -50 -13 -64 -22 -28 -18 -29 -13 21 -150 18 -49 36 -100 40
-113 6 -21 -4 -28 -137 -91 -79 -38 -187 -87 -240 -109 l-98 -41 -24 32 c-69
90 -311 529 -322 584 -5 28 -2 33 41 63 154 106 1025 459 1176 477 107 13 128
-17 189 -257 105 -414 139 -520 176 -534 17 -7 743 116 788 134 27 10 27 10
21 87 -15 175 -34 277 -56 295 -25 21 -66 15 -91 -14 -15 -17 -18 -41 -18
-149 l0 -128 -32 -6 c-18 -3 -123 -22 -233 -42 -110 -20 -216 -37 -235 -37
l-35 -1 -42 125 c-52 159 -114 423 -120 520 -5 75 -5 76 22 88 92 42 587 115
960 141 83 6 170 13 195 15 89 8 204 -3 216 -19z"/>
<path d="M6105 12513 c-401 -35 -610 -59 -780 -92 l-90 -17 1 -59 c1 -70 40
-268 60 -307 17 -32 42 -40 110 -36 l49 3 3 45 c2 25 -2 92 -8 149 -9 76 -9
105 -1 110 6 4 126 18 267 31 287 26 277 27 295 -46 16 -69 39 -365 39 -506
l0 -137 -32 -5 c-18 -3 -116 -17 -218 -31 -244 -34 -513 -85 -738 -138 -124
-30 -185 -41 -188 -33 -2 6 -46 153 -98 326 -52 173 -104 341 -116 374 -23 61
-50 96 -74 96 -57 0 -608 -216 -808 -316 l-68 -34 21 -53 c23 -58 135 -270
160 -300 15 -19 16 -19 50 -2 46 23 89 65 89 86 0 9 -20 63 -44 120 -25 56
-42 107 -39 112 15 25 393 164 495 182 35 7 37 5 56 -32 35 -68 155 -403 192
-536 l19 -68 -44 -28 c-24 -15 -109 -54 -187 -87 -79 -32 -260 -116 -403 -187
-273 -135 -412 -197 -442 -197 -10 0 -29 17 -43 38 -13 20 -109 170 -213 332
-104 162 -192 299 -197 304 -17 18 -223 -115 -495 -319 -163 -122 -255 -199
-274 -228 -10 -16 -8 -26 13 -58 45 -67 208 -250 234 -262 22 -10 28 -7 68 35
24 26 44 56 44 67 0 11 -34 65 -76 121 -42 56 -72 106 -67 110 21 19 350 255
393 282 27 17 55 28 63 25 8 -3 40 -40 73 -84 87 -116 324 -472 324 -487 0 -8
-53 -52 -117 -99 -226 -163 -711 -585 -735 -638 -7 -16 -18 -29 -24 -29 -20 0
-114 68 -198 143 -44 40 -170 154 -279 254 l-199 182 -77 -92 c-291 -347 -511
-641 -511 -682 0 -29 276 -205 322 -205 40 0 88 48 88 88 0 35 -25 63 -108
121 -84 59 -87 75 -29 159 60 88 168 221 239 297 l56 60 34 -24 c74 -54 293
-238 378 -318 94 -88 127 -134 113 -156 -4 -7 -65 -87 -134 -178 -164 -214
-273 -370 -403 -578 -58 -93 -112 -174 -120 -180 -17 -14 -37 -5 -457 212
-157 81 -293 147 -302 147 -12 0 -44 -55 -106 -179 -111 -222 -172 -362 -222
-514 -47 -140 -49 -180 -14 -203 34 -22 274 -104 307 -104 17 0 35 11 53 32
55 65 53 103 -7 131 -221 103 -209 91 -179 175 37 108 183 442 192 442 16 0
333 -142 453 -203 115 -58 186 -108 186 -130 0 -6 -46 -126 -101 -266 -113
-283 -185 -485 -219 -606 -12 -44 -35 -113 -52 -152 -27 -65 -33 -73 -56 -73
-26 0 -63 8 -507 108 -272 62 -292 65 -299 53 -21 -33 -136 -812 -136 -917 l0
-54 163 0 c167 0 234 9 248 32 5 7 9 31 9 54 0 58 -19 71 -115 80 -44 4 -92
13 -107 20 -49 25 -48 89 8 398 35 188 35 189 81 180 235 -40 611 -120 634
-135 11 -6 8 -60 -14 -286 -16 -158 -32 -402 -37 -564 -5 -158 -14 -298 -19
-312 -8 -20 -18 -26 -63 -31 -78 -9 -449 -34 -630 -42 -86 -4 -162 -11 -169
-15 -11 -6 -10 -43 4 -191 22 -220 61 -521 85 -638 23 -115 32 -120 173 -97
57 10 139 27 182 38 l79 22 -6 51 c-4 28 -14 62 -23 75 -16 26 -20 26 -219 5
-55 -6 -63 -4 -68 12 -20 64 -71 543 -59 555 13 12 708 67 719 57 2 -3 13 -85
25 -184 20 -177 62 -422 118 -689 38 -182 43 -232 28 -275 -17 -50 -62 -75
-226 -126 -452 -142 -494 -159 -512 -198 -15 -31 12 -126 100 -359 109 -286
194 -481 223 -505 11 -8 36 -1 111 33 118 53 161 78 205 119 39 36 41 69 9
117 -29 42 -50 42 -151 1 -105 -43 -133 -47 -151 -19 -26 41 -91 198 -140 341
l-48 140 22 17 c44 36 492 196 597 213 l42 7 30 -53 c16 -29 58 -118 92 -198
111 -258 232 -502 382 -767 l29 -52 -83 -54 c-46 -29 -177 -111 -293 -182
-210 -129 -299 -189 -322 -217 -10 -12 -3 -30 40 -102 84 -140 368 -530 484
-664 l28 -32 72 55 c89 68 209 186 218 216 8 24 -15 60 -56 91 -32 24 -55 16
-166 -59 l-83 -57 -26 25 c-30 28 -233 295 -290 382 -22 35 -34 61 -28 65 384
259 585 392 591 391 4 0 63 -73 130 -162 148 -197 252 -323 448 -541 82 -92
158 -180 167 -195 17 -27 17 -27 -23 -77 -23 -27 -150 -163 -282 -303 -133
-140 -243 -257 -245 -261 -3 -8 215 -208 343 -315 44 -37 136 -107 205 -156
69 -49 146 -105 172 -125 l47 -35 95 143 c53 79 102 160 110 180 14 33 14 38
-3 60 -11 13 -35 32 -55 43 -49 26 -66 15 -154 -106 -68 -93 -74 -99 -93 -86
-11 8 -107 86 -214 173 -122 100 -195 166 -195 177 0 47 90 159 446 555 9 11
38 -8 157 -106 261 -215 377 -296 672 -472 77 -45 147 -89 155 -97 13 -12 -8
-58 -164 -368 -128 -254 -180 -367 -183 -400 l-6 -45 89 -41 c177 -82 684
-297 741 -314 18 -5 25 0 41 32 25 48 89 238 107 316 13 57 13 58 -9 67 -45
17 -116 23 -130 11 -8 -7 -31 -54 -51 -106 -20 -52 -44 -103 -53 -114 -17 -20
-18 -20 -68 -2 -66 24 -343 162 -407 203 -45 29 -48 34 -43 62 13 69 254 525
308 583 l20 21 81 -35 c248 -107 609 -236 917 -328 47 -13 91 -28 97 -33 9 -6
-3 -77 -52 -292 -83 -361 -97 -437 -93 -502 l3 -52 45 -13 c149 -45 445 -83
691 -90 l206 -6 7 171 c9 216 5 232 -61 232 -80 0 -114 -45 -120 -160 -5 -96
-10 -117 -27 -123 -16 -6 -439 57 -477 72 -74 28 -77 91 -19 384 45 226 67
309 83 319 20 13 114 9 276 -12 175 -22 428 -43 727 -61 l201 -12 6 -336 c6
-304 22 -499 41 -518 15 -15 700 67 859 103 l67 16 0 58 c0 66 -33 243 -57
302 l-16 40 -61 -7 c-93 -10 -93 -10 -75 -172 9 -76 16 -139 15 -139 -4 -6
-272 -26 -407 -31 l-166 -6 -6 24 c-11 43 -52 688 -44 695 1 1 76 9 167 18
247 24 473 65 900 161 57 13 108 21 112 17 8 -9 43 -122 156 -502 86 -288 88
-295 112 -292 87 11 315 91 663 234 235 95 231 93 223 131 -8 39 -93 209 -142
282 -40 62 -54 66 -115 34 -40 -20 -41 -22 -36 -62 2 -23 18 -82 36 -131 31
-86 32 -90 14 -107 -18 -18 -329 -142 -432 -173 -50 -15 -56 -15 -72 0 -41 37
-172 392 -206 559 -17 84 -17 87 1 100 10 8 88 42 174 76 87 34 320 144 519
245 l362 183 52 -87 c46 -77 397 -631 405 -641 11 -12 709 499 739 541 21 31
19 57 -8 99 -30 50 -210 258 -222 258 -6 1 -40 -28 -75 -64 l-65 -65 94 -94
c51 -52 92 -99 90 -105 -9 -24 -381 -304 -443 -332 -31 -15 -15 -31 -160 171
-115 161 -266 388 -266 399 0 12 60 64 205 176 184 143 332 267 484 406 68 63
146 135 175 160 l51 46 273 -253 c151 -139 294 -263 318 -276 41 -21 46 -22
71 -8 41 23 470 566 536 679 l18 30 -38 42 c-41 46 -129 110 -216 159 -52 29
-60 31 -87 20 -33 -14 -90 -73 -90 -94 0 -17 33 -47 115 -103 81 -57 91 -76
64 -129 -15 -31 -274 -373 -309 -408 -5 -5 -30 11 -57 36 -26 25 -147 130
-268 233 -121 104 -221 192 -223 196 -2 4 55 81 125 171 208 264 253 328 493
704 52 81 56 85 85 80 16 -3 188 -84 380 -181 193 -96 357 -175 366 -175 10 0
30 29 54 77 92 188 254 572 306 727 l23 69 -27 21 c-32 26 -138 68 -243 97
-91 25 -110 20 -149 -40 -43 -64 -34 -81 65 -118 140 -54 156 -64 152 -98 -5
-44 -75 -212 -149 -359 -63 -122 -67 -128 -92 -123 -36 7 -331 141 -493 224
l-127 64 21 52 c111 277 210 541 255 682 135 417 115 370 154 373 37 3 171
-21 514 -92 257 -53 292 -56 304 -23 26 67 91 455 116 687 8 80 18 164 21 187
6 48 15 44 -156 68 -130 18 -221 19 -244 2 -24 -17 -25 -146 -2 -163 9 -6 64
-14 122 -17 58 -3 111 -10 116 -15 8 -8 7 -43 -1 -119 -17 -146 -48 -357 -62
-416 l-11 -49 -47 7 c-119 17 -548 121 -634 154 -22 8 -26 15 -22 33 28 122
63 558 70 878 l6 255 57 7 c118 13 385 29 605 35 l227 6 0 29 c0 42 -57 539
-81 703 -33 229 -35 235 -92 235 -39 0 -210 -35 -292 -61 l-68 -21 6 -43 c9
-61 27 -95 54 -101 14 -4 62 -2 109 4 102 14 128 6 148 -43 15 -36 56 -347 56
-426 0 -56 -20 -85 -68 -99 -34 -10 -371 -34 -572 -42 l-85 -3 -27 215 c-35
279 -59 418 -118 680 -68 301 -72 267 31 312 48 20 205 73 349 118 144 45 282
90 306 100 40 18 44 22 44 55 0 48 -57 222 -147 450 -66 164 -178 423 -188
433 -6 6 -320 -156 -342 -178 -31 -28 -29 -52 8 -116 l30 -54 32 14 c192 81
200 83 228 55 50 -50 210 -447 195 -485 -8 -21 -116 -67 -326 -138 -231 -79
-325 -102 -344 -87 -7 6 -44 89 -81 184 -39 99 -143 321 -245 523 l-177 351
176 113 c97 63 250 158 341 213 91 55 175 106 187 113 l23 14 -52 83 c-162
259 -481 677 -527 692 -11 3 -34 -1 -51 -10 -31 -16 -254 -199 -279 -229 -11
-13 -5 -24 50 -81 34 -36 66 -65 70 -65 5 0 44 29 88 64 94 76 114 88 135 80
31 -12 326 -383 326 -410 0 -42 -525 -414 -583 -414 -17 0 -45 33 -149 177
-116 161 -237 299 -515 591 l-121 128 205 219 c112 121 248 266 301 323 53 57
91 106 86 110 -6 4 -62 50 -125 103 -62 52 -206 167 -319 254 -113 87 -230
178 -260 202 l-55 43 -28 -32 c-107 -123 -207 -276 -207 -316 0 -24 66 -82 94
-82 19 0 85 62 168 159 l46 53 225 -183 c124 -101 225 -187 224 -191 -1 -4
-92 -109 -202 -234 -110 -124 -216 -245 -236 -267 l-37 -42 -100 77 c-235 181
-630 451 -847 581 l-46 27 19 33 c11 17 104 186 207 375 175 322 186 344 168
357 -53 39 -370 186 -593 274 -263 105 -266 106 -294 88 -26 -18 -61 -99 -112
-267 -38 -122 -39 -120 57 -140 59 -13 61 -12 83 11 13 13 41 67 61 119 21 52
41 98 44 102 13 15 445 -174 499 -218 l23 -19 -94 -195 c-52 -107 -121 -244
-153 -305 -56 -104 -62 -110 -90 -109 -17 1 -136 43 -265 94 -206 82 -438 162
-664 230 -87 26 -152 57 -158 74 -3 8 -1 31 4 52 36 158 150 689 155 725 l6
45 -49 11 c-105 25 -560 96 -818 128 -90 11 -114 -37 -118 -241 -2 -136 7
-166 56 -184 83 -29 96 -14 121 132 18 107 28 128 64 129 94 5 357 -33 452
-64 l65 -22 -3 -50 c-4 -93 -116 -630 -132 -640 -5 -3 -49 1 -97 9 -134 23
-250 34 -583 56 -311 21 -475 41 -493 59 -18 18 -25 125 -33 484 l-7 347 -31
-2 c-17 -1 -49 -3 -71 -5z m785 -1018 c636 -65 1197 -223 1755 -494 244 -119
369 -190 590 -336 1217 -804 2038 -2115 2235 -3570 53 -395 54 -929 0 -1355
-156 -1247 -761 -2363 -1740 -3211 -760 -658 -1672 -1059 -2725 -1198 -1170
-155 -2457 161 -3480 853 -445 301 -1079 942 -1379 1396 -828 1251 -1067 2821
-647 4261 337 1157 1072 2157 2078 2828 259 172 724 406 1088 546 388 150 918
261 1405 294 184 13 631 5 820 -14z"/>
</g>
</svg>
