<svg version="1.0" xmlns="http://www.w3.org/2000/svg"
 width="1219.000000pt" height="1280.000000pt" viewBox="0 0 1219.000000 1280.000000"
 preserveAspectRatio="xMidYMid meet" fill="#000000" stroke="none">
<g transform="translate(0.000000,1280.000000) scale(0.100000,-0.100000)">
<path d="M4601 12545 c-144 -292 -171 -338 -264 -433 -89 -91 -171 -148 -256
-178 -58 -21 -85 -24 -216 -24 -210 0 -358 -19 -633 -81 -74 -17 -136 -28
-139 -25 -3 3 0 47 6 97 7 50 10 93 9 94 -2 1 -49 -30 -106 -71 -121 -86 -213
-134 -256 -134 -54 1 -115 35 -131 75 -38 89 24 184 145 223 36 11 84 26 108
32 35 9 42 15 42 35 0 25 -1 25 -57 19 -177 -17 -378 -78 -579 -173 -116 -56
-555 -301 -582 -326 -10 -9 -2 -66 43 -290 67 -339 70 -349 140 -483 100 -192
246 -375 411 -514 47 -39 86 -69 88 -67 2 2 -27 53 -64 113 -139 222 -233 432
-270 605 -21 98 -35 221 -26 221 4 0 28 -11 54 -24 47 -24 48 -25 59 -90 6
-37 25 -97 43 -133 29 -63 105 -173 119 -173 3 0 5 40 3 89 -3 84 10 171 26
171 4 0 15 -17 24 -38 47 -100 204 -350 214 -339 2 2 -2 51 -9 110 l-13 106
24 24 24 24 75 -28 c139 -51 272 -75 583 -104 207 -19 214 -21 255 -56 48 -42
69 -112 60 -197 -20 -208 -116 -462 -251 -670 l-55 -84 -47 28 c-80 46 -129
82 -156 115 -26 30 -28 31 -41 13 -37 -49 -31 -158 14 -258 l31 -68 -38 7
c-85 15 -216 115 -284 214 -17 24 -17 24 -45 6 -15 -10 -80 -71 -144 -134
-127 -126 -210 -242 -260 -362 -64 -157 -157 -468 -205 -689 -12 -56 18 2 80
152 96 233 165 360 324 598 79 118 162 246 184 283 23 37 42 66 43 65 2 -2 10
-45 19 -96 l16 -93 -30 -59 c-48 -96 -37 -129 59 -174 39 -18 64 -21 166 -21
112 0 125 2 192 31 114 50 202 115 365 271 165 156 250 225 313 254 22 9 85
23 140 29 54 7 116 19 136 27 67 26 118 131 105 217 -10 61 -43 99 -124 138
l-67 32 44 19 c58 25 113 32 140 18 34 -18 50 -52 66 -136 9 -43 17 -81 20
-83 2 -2 71 49 152 115 228 183 326 235 443 235 127 1 202 -41 246 -137 28
-59 32 -146 10 -218 -26 -86 -151 -241 -316 -393 -264 -242 -301 -277 -296
-281 12 -13 381 183 586 311 219 136 370 293 441 456 21 47 24 71 24 166 0
110 0 111 -42 196 -71 142 -146 209 -290 259 -130 45 -237 61 -543 84 -190 14
-317 29 -327 38 -4 5 149 37 327 68 69 12 161 33 205 46 200 63 576 229 730
322 39 24 138 94 220 155 83 62 202 152 266 199 101 75 269 235 269 256 0 4
-44 -1 -97 -11 -94 -19 -107 -19 -348 -4 -137 9 -350 19 -472 23 -123 3 -223
10 -223 14 0 4 20 79 44 166 39 140 59 231 80 353 l6 35 -60 -60 c-34 -33 -89
-92 -122 -132 -34 -40 -97 -98 -141 -129 -80 -57 -308 -196 -313 -191 -2 2 3
27 11 57 23 87 38 257 31 355 -8 118 -27 245 -37 245 -5 0 -62 -110 -128 -245z"/>
<path d="M6317 11914 c-22 -7 -67 -39 -100 -71 -135 -125 -317 -255 -476 -341
l-74 -40 39 -17 c274 -117 472 -165 724 -172 201 -7 297 7 523 72 320 92 598
209 781 329 98 65 111 79 64 68 -18 -4 -107 -7 -198 -6 -184 0 -248 10 -565
80 -229 51 -587 114 -643 113 -20 0 -54 -7 -75 -15z"/>
<path d="M7500 11490 c-149 -77 -199 -97 -335 -136 -87 -25 -161 -46 -163 -48
-3 -4 246 -179 333 -233 133 -84 271 -138 430 -170 155 -31 417 -24 705 17
203 30 262 34 430 34 l195 1 80 -32 c126 -51 387 -213 560 -349 75 -58 238
-217 205 -199 -8 5 -105 77 -216 161 -347 263 -497 349 -646 366 -126 14 -325
-3 -538 -48 -122 -26 -118 -22 -58 -62 93 -62 149 -111 348 -308 217 -215 252
-239 430 -298 139 -46 255 -69 555 -106 267 -34 404 -58 509 -90 58 -18 75
-30 145 -100 66 -66 222 -261 256 -320 12 -19 -30 16 -183 153 -134 121 -205
178 -279 225 -68 43 -194 57 -467 49 -114 -3 -210 -8 -213 -10 -2 -3 14 -44
35 -93 45 -101 107 -282 100 -289 -3 -3 -26 41 -52 97 -85 187 -123 227 -267
284 -63 24 -236 64 -279 64 -19 0 -10 -13 51 -77 41 -43 133 -150 205 -238 72
-88 166 -193 209 -233 170 -159 385 -270 625 -322 46 -11 86 -17 88 -15 2 2
-38 25 -89 50 -111 55 -290 157 -285 162 2 2 59 -22 127 -52 141 -64 274 -106
504 -160 215 -50 399 -102 460 -131 51 -23 140 -92 131 -101 -2 -2 -27 7 -54
21 -81 41 -194 84 -280 106 -95 24 -263 43 -307 34 l-31 -6 27 -81 c15 -45 44
-134 64 -197 45 -145 102 -260 161 -328 55 -63 186 -157 384 -277 151 -91 347
-219 390 -255 28 -23 33 -25 -223 90 -76 34 -140 60 -142 58 -14 -14 -27 -204
-22 -338 8 -225 52 -380 152 -530 52 -79 116 -140 375 -360 102 -87 213 -187
247 -222 61 -62 63 -65 84 -158 16 -72 22 -144 26 -300 5 -196 -11 -549 -26
-578 -17 -31 -66 310 -101 693 -15 156 -28 252 -38 274 -23 49 -122 152 -227
236 -49 39 -95 74 -102 78 -18 11 -60 -79 -91 -192 -22 -85 -25 -115 -25 -271
0 -126 6 -221 22 -339 12 -90 20 -165 18 -167 -7 -7 -48 140 -63 231 -25 138
-14 412 21 565 42 178 42 161 -6 199 -23 19 -88 77 -143 130 l-101 95 -3 -109
c-7 -258 74 -679 179 -930 85 -205 286 -513 542 -829 l80 -99 -17 -106 c-10
-58 -32 -171 -49 -251 -29 -133 -32 -142 -39 -105 -4 22 -7 99 -7 170 -2 310
-60 498 -185 599 l-38 31 -61 -65 c-34 -36 -96 -110 -137 -166 -41 -55 -85
-114 -97 -130 l-22 -29 20 49 c26 59 60 118 133 227 72 107 74 143 18 251 -74
140 -73 139 -112 136 -33 -3 -36 -6 -63 -77 -74 -193 -110 -392 -111 -606 0
-183 17 -296 67 -450 l32 -100 5 145 5 145 13 -65 c22 -109 78 -290 179 -574
112 -318 115 -336 63 -461 -39 -96 -135 -290 -198 -400 -49 -86 -180 -285
-187 -285 -2 0 25 62 61 137 182 382 234 550 234 752 0 142 -44 294 -110 378
l-17 22 -54 -43 c-141 -111 -301 -319 -414 -541 -62 -122 -66 -100 -8 50 66
174 194 355 329 468 41 34 74 66 74 72 0 5 -21 78 -46 160 -25 83 -50 164 -55
182 -5 18 -13 35 -18 37 -11 7 -129 -224 -187 -364 -65 -160 -99 -262 -141
-425 -53 -209 -49 -286 43 -722 60 -288 94 -470 94 -504 0 -19 -26 -61 -82
-136 -119 -158 -263 -334 -368 -448 -93 -102 -308 -305 -323 -305 -13 0 63
105 223 310 190 244 281 379 352 525 63 131 78 188 78 304 0 74 -41 366 -53
378 -11 10 -196 -146 -323 -272 -66 -66 -153 -162 -192 -213 -40 -52 -72 -91
-72 -88 0 13 44 93 83 150 64 94 167 206 284 306 59 52 111 101 114 110 4 9
10 99 14 200 l8 184 -56 -48 c-194 -166 -362 -436 -471 -761 -38 -110 -86
-300 -86 -332 0 -10 21 15 47 54 26 40 48 72 49 70 2 -2 -3 -25 -11 -51 -27
-88 -74 -339 -90 -476 -64 -542 -56 -517 -198 -635 -135 -112 -296 -232 -443
-327 -162 -107 -204 -132 -204 -122 0 4 145 154 323 333 357 360 439 454 462
534 23 79 34 188 35 330 l0 128 -222 -113 c-262 -134 -350 -190 -418 -266 -59
-66 -120 -180 -149 -277 -11 -38 -41 -167 -66 -285 -25 -118 -60 -275 -77
-348 -29 -122 -34 -134 -62 -151 -49 -30 -424 -216 -493 -245 -100 -42 -193
-75 -193 -70 0 3 91 65 203 138 227 150 347 237 394 287 48 51 99 143 127 228
27 79 86 311 86 334 0 10 -35 6 -152 -20 -84 -18 -173 -35 -198 -38 -44 -6
-44 -5 -19 9 14 8 83 34 152 57 l126 41 55 112 c58 120 79 177 74 201 -2 11
-20 7 -88 -23 -189 -85 -518 -319 -690 -492 -213 -214 -326 -408 -426 -730
-63 -206 -84 -252 -129 -280 -104 -64 -510 -160 -865 -205 -34 -4 -34 -4 -10
9 59 32 239 92 425 142 254 69 339 109 423 198 39 42 67 83 80 119 23 62 52
192 52 236 0 28 -3 30 -47 38 -72 12 -398 8 -478 -5 -152 -25 -299 -89 -455
-200 -126 -89 -221 -180 -350 -337 -60 -72 -135 -156 -168 -189 l-60 -59 -99
-9 c-161 -16 -725 9 -853 38 -35 8 -13 18 85 40 65 14 151 18 460 23 432 7
393 -1 491 102 60 64 226 297 228 319 1 21 -142 94 -238 120 -179 49 -430 14
-641 -90 -124 -60 -223 -126 -435 -290 -245 -188 -240 -185 -303 -172 -29 6
-74 14 -102 18 -89 11 -397 92 -565 149 -197 67 -216 77 -135 69 132 -12 379
-46 550 -75 198 -34 314 -40 366 -19 41 16 138 83 239 164 85 69 250 225 250
237 0 9 -193 118 -290 162 -223 103 -477 76 -857 -90 -57 -25 -153 -79 -211
-119 -199 -137 -250 -164 -310 -164 -29 0 -79 9 -111 20 -69 23 -416 180 -480
218 -68 39 -143 94 -137 100 13 13 178 -26 356 -83 244 -79 294 -89 420 -83
l99 5 293 143 c161 79 295 145 297 146 1 2 -1 15 -6 30 -16 49 -319 204 -465
239 -184 43 -318 12 -953 -220 -201 -74 -212 -77 -253 -66 -72 19 -343 199
-552 367 -137 109 -375 327 -362 332 15 5 171 -33 282 -69 167 -54 282 -116
450 -242 222 -167 343 -225 441 -214 50 6 218 60 367 117 57 22 82 37 82 48
-1 33 -66 179 -112 247 -26 39 -75 102 -110 139 -40 44 -54 64 -38 56 92 -47
185 -165 241 -304 l36 -90 44 3 c58 4 301 39 306 45 7 6 -166 162 -252 226
-96 72 -254 153 -348 180 -88 24 -191 34 -264 25 -55 -7 -56 -8 -33 -21 14 -7
34 -14 45 -14 49 -2 -16 -18 -115 -29 -222 -24 -343 -31 -580 -31 -336 1 -494
17 -580 60 -71 36 -304 296 -465 519 l-38 53 44 -7 c64 -10 217 -62 264 -90
22 -12 121 -101 220 -197 100 -95 210 -192 245 -215 115 -73 266 -92 565 -73
107 7 195 15 195 17 0 2 -32 67 -71 146 -112 224 -185 325 -276 388 -65 45
-151 85 -219 103 -90 23 -339 36 -717 36 l-337 0 -46 63 c-73 98 -246 363
-303 464 -63 112 -144 283 -137 290 8 9 98 -71 158 -139 30 -35 106 -130 168
-213 135 -178 282 -328 360 -368 86 -43 174 -57 358 -57 l163 0 -26 42 c-25
41 -43 77 -170 344 -98 207 -178 298 -332 376 -115 59 -173 78 -448 148 -303
76 -322 84 -360 141 -17 24 -50 103 -74 174 -54 158 -157 430 -222 584 -27 63
-46 117 -43 120 2 3 31 -23 63 -56 77 -81 135 -195 206 -408 32 -93 70 -197
86 -231 55 -118 169 -205 344 -262 103 -34 305 -83 305 -73 0 29 -33 328 -41
373 -21 120 -66 220 -141 315 -117 147 -245 236 -552 380 -208 99 -236 114
-274 147 -70 61 -149 328 -188 630 -16 128 -32 576 -20 576 10 0 73 -140 90
-202 8 -29 22 -117 31 -196 36 -323 92 -530 192 -707 87 -153 113 -176 288
-261 198 -95 195 -94 195 -52 0 18 5 129 11 246 10 197 4 393 -16 533 -3 23 2
15 15 -23 33 -98 42 -209 38 -459 l-3 -235 27 -41 c15 -22 61 -69 104 -104
l77 -63 -7 184 c-12 299 -48 496 -122 673 -55 131 -87 173 -205 262 -165 125
-639 557 -665 607 -8 16 -19 88 -26 163 -18 220 10 492 83 800 17 72 36 135
41 140 14 14 4 -195 -23 -448 -45 -427 -9 -655 126 -805 37 -41 175 -151 232
-185 7 -5 18 17 33 65 12 39 38 110 59 157 38 88 149 286 157 279 5 -6 -32
-114 -85 -245 -23 -57 -46 -133 -53 -171 -11 -68 -11 -68 22 -131 31 -57 118
-167 126 -158 7 7 115 547 124 621 19 159 -21 359 -96 476 l-35 55 6 -40 c18
-115 19 -114 -30 -25 -26 47 -118 193 -205 325 -87 132 -174 269 -193 305 -35
65 -35 65 -26 145 11 95 40 220 76 330 75 229 297 741 336 773 11 9 12 -3 5
-71 -22 -217 -70 -409 -173 -694 -147 -404 -158 -522 -64 -660 30 -43 167
-183 179 -183 12 0 229 342 272 430 115 230 118 449 12 746 -148 417 -170 498
-155 566 5 20 27 72 50 114 45 84 265 419 281 429 13 8 12 -9 -5 -137 -27
-208 -70 -330 -164 -468 -102 -149 -103 -155 -70 -252 26 -79 120 -279 129
-276 13 6 193 208 266 299 41 52 96 126 122 166 26 39 53 79 59 90 23 34 -28
-92 -62 -153 -35 -62 -120 -179 -232 -317 -86 -108 -93 -138 -66 -312 6 -39 6
-40 -14 -22 -11 9 -22 17 -25 17 -3 0 -8 -64 -11 -142 -8 -227 -48 -343 -196
-575 -37 -59 -76 -122 -85 -140 -21 -42 -20 -118 3 -168 23 -50 91 -129 102
-118 10 10 93 219 152 384 55 151 80 271 102 484 19 187 20 189 192 497 61
109 128 239 148 290 l37 93 -5 145 c-8 198 -39 341 -105 485 -89 195 -117 275
-139 403 l-8 43 -34 -63 c-91 -168 -151 -258 -292 -433 -196 -245 -221 -284
-369 -576 -67 -134 -157 -307 -198 -384 -115 -215 -124 -249 -123 -463 0 -84
-3 -151 -7 -148 -4 2 -45 56 -92 120 -47 63 -88 115 -91 116 -3 0 0 -39 7 -87
7 -49 13 -140 13 -204 1 -146 -30 -276 -117 -494 -92 -230 -96 -250 -97 -405
l0 -135 47 -104 c26 -58 46 -106 45 -107 -1 -2 -47 23 -102 56 -55 32 -102 57
-104 55 -2 -2 13 -30 32 -62 51 -85 82 -150 107 -223 27 -79 29 -215 5 -420
-36 -326 -16 -420 146 -677 32 -51 55 -93 51 -93 -5 0 -45 13 -90 30 -46 16
-85 30 -87 30 -2 0 20 -33 49 -74 69 -96 135 -226 181 -356 52 -147 113 -272
254 -519 67 -117 123 -218 124 -225 1 -6 -10 -12 -26 -14 l-27 -3 45 -46 c99
-99 157 -213 240 -478 135 -429 205 -545 391 -650 111 -62 143 -90 194 -170
52 -83 159 -299 196 -395 51 -134 138 -200 404 -310 147 -60 166 -76 313 -265
133 -171 230 -268 298 -300 30 -13 115 -36 189 -50 74 -15 155 -36 180 -46 33
-15 92 -68 220 -198 96 -99 194 -191 218 -207 60 -38 129 -46 309 -33 l151 11
104 -49 c56 -27 150 -79 208 -114 247 -153 322 -184 440 -184 47 0 118 4 159
9 73 8 73 8 66 -14 -6 -20 -5 -22 16 -16 202 57 229 54 479 -57 170 -75 213
-89 297 -95 92 -6 148 5 353 72 91 29 166 52 168 51 2 -2 -19 -34 -46 -72 -28
-37 -47 -69 -43 -71 5 -1 68 25 141 58 195 89 204 91 505 96 410 6 412 6 530
63 55 26 165 82 243 124 79 42 145 77 147 77 2 0 -3 -25 -12 -56 -8 -31 -12
-58 -9 -61 2 -2 35 18 73 45 146 105 183 118 513 172 322 52 306 44 525 266
212 213 234 226 515 288 173 39 256 72 306 122 23 23 91 115 152 205 60 90
130 187 156 216 62 69 155 129 318 208 160 77 240 128 290 183 46 51 61 79
138 272 71 176 174 383 224 451 19 25 99 98 179 162 245 196 247 198 341 666
l52 255 31 -55 c61 -106 57 -110 71 88 21 303 40 362 190 609 122 201 162 286
162 344 0 38 -17 116 -47 215 -5 17 -1 16 31 -8 20 -16 36 -25 36 -22 0 3 -16
66 -35 141 -19 74 -35 156 -35 182 0 72 24 151 80 262 62 123 100 235 100 292
0 24 -29 151 -65 283 -36 132 -68 256 -72 275 l-6 35 60 -53 c34 -28 63 -52
67 -52 3 0 -11 35 -30 78 -187 403 -178 365 -179 737 0 360 6 336 -114 496
-39 53 -71 99 -71 102 0 3 35 -6 78 -19 42 -13 81 -23 86 -21 5 2 -21 29 -57
61 -77 68 -122 131 -142 201 -8 27 -28 123 -45 212 -56 312 -54 308 -264 496
-91 82 -172 160 -181 174 l-17 26 68 -8 69 -7 -80 65 c-101 81 -182 167 -230
241 -43 68 -54 93 -107 246 -52 148 -92 228 -131 263 -18 15 -86 65 -152 109
-66 45 -152 111 -190 147 -39 36 -103 93 -143 126 -92 75 -158 154 -275 325
-51 74 -123 167 -162 206 -79 79 -139 112 -345 190 -194 73 -611 290 -865 449
-179 113 -246 145 -436 208 -203 68 -370 106 -491 112 l-93 5 -175 -90z"/>
<path d="M5560 11374 c-47 -30 -127 -78 -177 -107 -51 -28 -93 -55 -93 -58 0
-8 192 -64 305 -88 310 -67 748 -42 1065 60 65 22 243 100 237 105 -1 1 -52
-6 -112 -17 -143 -25 -390 -35 -524 -20 -200 22 -424 82 -558 150 l-59 29 -84
-54z"/>
<path d="M6878 11227 c-36 -18 -108 -47 -160 -66 -51 -18 -106 -38 -121 -44
l-28 -10 32 -19 c51 -31 225 -107 344 -150 309 -112 657 -164 937 -140 132 11
281 32 275 38 -2 2 -79 10 -173 19 -290 27 -429 60 -609 144 -115 54 -190 99
-308 188 -54 40 -104 73 -110 72 -7 0 -42 -15 -79 -32z"/>
<path d="M5195 11150 c-22 -5 -80 -23 -130 -40 -49 -18 -98 -34 -107 -37 -28
-8 -21 -20 15 -26 17 -4 84 -20 147 -37 125 -34 206 -39 340 -20 84 11 237 39
260 46 22 8 -431 125 -470 123 -8 -1 -33 -5 -55 -9z"/>
<path d="M6315 11025 c-137 -26 -140 -29 -63 -53 145 -45 500 -91 622 -80 37
3 34 5 -75 50 -63 27 -141 57 -174 69 -79 27 -206 33 -310 14z"/>
<path d="M5442 10829 c154 -175 168 -200 168 -302 0 -186 -89 -380 -287 -625
l-26 -33 54 21 c312 122 636 359 927 675 l82 89 0 -99 c-1 -119 -12 -153 -73
-232 -103 -135 -204 -202 -412 -273 -112 -39 -177 -72 -202 -102 -10 -11 18
-10 160 9 413 54 638 127 874 283 113 74 205 171 249 264 60 124 40 187 -79
255 -135 76 -299 111 -518 111 l-146 0 -84 -51 c-100 -60 -117 -60 -256 -4
-147 60 -221 75 -361 75 l-124 0 54 -61z"/>
<path d="M2806 10826 c-16 -25 -15 -25 40 -50 31 -14 60 -26 65 -26 19 0 7
-26 -47 -98 -65 -86 -132 -157 -349 -372 -86 -85 -176 -184 -200 -220 -80
-120 -119 -285 -113 -478 l3 -104 89 109 c119 143 510 533 664 662 68 56 196
156 285 223 89 66 175 132 190 147 33 30 87 105 87 120 0 13 -140 57 -225 71
-60 10 -403 40 -451 40 -12 0 -29 -11 -38 -24z"/>
<path d="M7013 10721 c82 -89 101 -130 94 -207 -6 -86 -44 -162 -119 -241 -87
-91 -167 -145 -352 -240 l-160 -81 39 -10 c203 -52 680 -46 849 10 117 38 209
118 289 250 46 77 50 135 12 216 -46 100 -210 235 -348 287 -61 23 -199 54
-312 71 l-50 7 58 -62z"/>
<path d="M8133 10767 c-46 -6 -83 -13 -83 -16 1 -7 38 -32 371 -256 350 -236
594 -345 824 -370 l60 -6 -160 80 c-88 44 -190 102 -226 130 -36 28 -123 113
-192 190 -128 141 -212 209 -305 244 -48 19 -153 20 -289 4z"/>
<path d="M7670 10701 c0 -5 21 -28 48 -51 73 -65 205 -122 422 -183 107 -31
204 -58 215 -62 17 -6 16 -3 -5 15 -49 42 -206 158 -291 214 -84 56 -89 58
-180 66 -122 12 -209 12 -209 1z"/>
<path d="M3384 10537 c-153 -113 -270 -208 -392 -317 -107 -96 -252 -255 -252
-274 0 -6 22 -35 48 -65 l48 -53 71 88 c94 118 282 299 418 405 72 56 118 99
132 125 22 40 56 175 44 173 -3 0 -56 -37 -117 -82z"/>
<path d="M7725 10493 c82 -96 91 -119 82 -215 -15 -163 -125 -263 -417 -377
-139 -54 -142 -57 -94 -70 185 -49 411 -64 592 -37 63 9 138 26 168 37 68 26
145 100 169 163 48 125 -38 286 -214 406 -53 36 -339 180 -357 180 -3 0 29
-39 71 -87z"/>
<path d="M4744 10466 c-44 -14 -117 -61 -148 -95 -18 -20 -14 -19 50 7 101 42
153 54 213 50 49 -3 57 -7 85 -41 26 -33 31 -48 34 -107 8 -132 -58 -219 -338
-445 -199 -160 -255 -212 -322 -295 -96 -118 -148 -252 -148 -385 l0 -50 62
115 c33 63 78 140 99 170 46 68 168 187 366 358 338 294 418 434 339 596 -57
116 -166 161 -292 122z"/>
<path d="M4772 10371 c-12 -3 -38 -19 -58 -35 -35 -28 -36 -30 -32 -85 2 -31
15 -83 28 -117 l24 -61 60 24 c74 30 94 44 117 80 59 89 -36 223 -139 194z"/>
<path d="M4539 10227 c-38 -48 -69 -112 -69 -145 0 -15 13 -49 29 -74 40 -62
89 -79 155 -54 49 19 126 71 126 85 0 5 -28 14 -62 20 -87 15 -110 35 -127
107 -23 99 -22 99 -52 61z"/>
<path d="M8302 10239 c9 -14 46 -73 82 -132 l65 -106 -69 -90 c-79 -102 -157
-163 -240 -189 -80 -24 -235 -22 -399 7 -101 17 -159 22 -240 19 -96 -3 -112
-7 -174 -38 -38 -18 -76 -45 -85 -58 -17 -26 -53 -125 -47 -130 2 -2 25 13 52
34 57 44 141 84 238 113 77 22 256 54 264 46 2 -3 -8 -19 -24 -35 -16 -16 -27
-31 -24 -34 2 -2 69 -33 149 -68 169 -76 306 -129 416 -159 73 -21 87 -21 199
-11 245 22 351 107 331 265 -10 73 -60 201 -100 256 -69 93 -222 222 -371 312
l-40 24 17 -26z"/>
<path d="M6635 10135 c-190 -93 -276 -119 -560 -170 -154 -28 -230 -57 -321
-123 -44 -32 -103 -114 -133 -185 l-19 -45 65 49 c101 77 198 120 453 203 253
81 357 126 484 210 87 57 164 117 150 115 -5 0 -58 -25 -119 -54z"/>
<path d="M4150 10013 c-47 -69 -86 -130 -88 -134 -3 -7 174 61 199 77 5 3 -15
151 -23 175 -2 5 -41 -49 -88 -118z"/>
<path d="M8901 10033 c94 -159 272 -331 474 -459 29 -19 29 -19 -18 71 -94
177 -146 250 -206 290 -50 33 -251 135 -267 135 -3 0 4 -17 17 -37z"/>
<path d="M2124 9962 c-194 -129 -284 -203 -383 -316 -74 -85 -94 -131 -93
-226 0 -65 7 -93 41 -185 45 -118 76 -177 123 -231 56 -63 56 -63 140 44 166
212 179 249 187 537 l7 220 57 119 c31 65 56 120 55 122 -2 1 -62 -37 -134
-84z"/>
<path d="M8840 9945 c0 -3 22 -48 49 -98 68 -126 91 -200 91 -289 -1 -146 -76
-226 -231 -244 -48 -5 -290 8 -394 22 l-40 6 30 -26 c62 -54 224 -157 317
-201 112 -53 220 -82 340 -91 76 -6 91 -4 131 15 25 12 62 40 82 63 128 141
100 313 -94 578 -63 86 -281 292 -281 265z"/>
<path d="M3800 9863 c-42 -20 -94 -66 -217 -189 -89 -89 -181 -175 -205 -192
-24 -16 -112 -64 -195 -106 -84 -42 -153 -79 -153 -82 0 -6 67 2 175 22 124
24 233 83 449 244 159 118 268 190 290 190 2 0 13 -24 24 -52 38 -101 43 -111
47 -107 4 4 55 225 55 239 0 4 -26 19 -59 34 -77 34 -138 34 -211 -1z"/>
<path d="M6855 9873 c-146 -17 -205 -42 -319 -133 -84 -68 -103 -89 -60 -67
52 27 195 67 378 107 100 22 219 50 266 62 l85 23 -50 7 c-52 6 -247 8 -300 1z"/>
<path d="M5065 9769 c-406 -225 -478 -278 -535 -402 -33 -69 -64 -183 -74
-267 l-7 -55 56 107 c66 126 82 142 342 344 170 132 343 288 385 347 11 15 18
27 16 26 -2 0 -84 -45 -183 -100z"/>
<path d="M9385 9405 c102 -299 69 -438 -120 -507 -75 -27 -250 -35 -396 -18
-56 6 -103 10 -105 7 -2 -2 36 -33 84 -69 281 -212 610 -316 760 -239 94 48
123 135 102 305 -14 110 -46 187 -129 309 -53 79 -207 246 -196 212z"/>
<path d="M2115 9243 c-43 -70 -113 -182 -156 -249 -43 -66 -87 -149 -99 -185
-25 -73 -38 -207 -23 -234 21 -38 182 226 259 426 35 90 108 358 100 366 -2 2
-39 -54 -81 -124z"/>
<path d="M9683 9258 c3 -7 21 -52 41 -101 38 -92 57 -127 90 -166 18 -19 294
-231 333 -254 16 -10 -22 75 -104 235 -73 142 -60 130 -256 242 -106 60 -112
63 -104 44z"/>
<path d="M10010 9162 c0 -6 38 -67 84 -136 199 -298 460 -587 633 -702 67 -44
188 -102 233 -110 31 -6 22 4 -85 93 -135 112 -165 144 -229 241 -51 78 -63
105 -118 262 -53 151 -80 203 -122 235 -43 33 -139 67 -266 95 -52 11 -103 23
-112 26 -10 3 -18 1 -18 -4z"/>
<path d="M9770 8950 c0 -8 7 -42 14 -75 8 -33 21 -106 30 -163 18 -115 13
-155 -28 -211 -94 -127 -234 -133 -547 -20 -76 27 -140 49 -143 49 -3 0 27
-31 67 -69 169 -161 321 -272 461 -337 80 -37 219 -74 276 -74 76 1 155 60
180 135 23 69 -21 294 -85 440 -45 101 -104 192 -207 319 -13 15 -18 17 -18 6z"/>
<path d="M2259 8298 c-70 -84 -89 -112 -209 -308 -62 -102 -138 -225 -168
-275 -115 -187 -232 -460 -282 -654 -35 -137 -38 -140 155 164 121 191 114
180 119 174 2 -2 19 -99 36 -214 30 -198 38 -224 67 -225 12 0 14 16 32 230
22 262 193 938 282 1112 11 22 18 42 16 44 -2 3 -24 -19 -48 -48z"/>
<path d="M10150 8335 c0 -8 7 -65 16 -127 30 -211 -3 -303 -123 -348 -109 -41
-230 -22 -441 69 -67 30 -125 52 -127 50 -5 -6 101 -147 168 -223 82 -93 208
-190 316 -244 89 -44 99 -47 175 -47 89 0 127 14 184 68 45 43 62 108 62 232
0 123 -23 220 -80 343 -36 76 -136 242 -146 242 -2 0 -4 -7 -4 -15z"/>
<path d="M10413 8183 c3 -95 11 -162 20 -184 8 -19 53 -81 102 -139 101 -121
152 -191 225 -313 29 -48 54 -86 56 -85 1 2 -13 66 -32 143 -19 77 -51 218
-73 313 -44 198 -32 179 -200 325 l-104 90 6 -150z"/>
<path d="M10710 8214 c0 -27 37 -178 62 -254 41 -128 223 -470 339 -640 57
-83 139 -188 139 -177 0 3 -27 73 -59 155 -96 245 -103 278 -108 560 l-5 243
-37 15 c-55 23 -273 102 -304 109 -22 6 -27 4 -27 -11z"/>
<path d="M1865 7954 c-61 -75 -176 -252 -243 -376 -119 -220 -253 -557 -362
-912 -43 -139 -51 -177 -47 -217 5 -43 80 -253 96 -272 4 -4 32 43 61 104 l54
112 7 171 c11 251 49 422 166 751 36 101 97 238 165 373 99 194 153 312 144
312 -2 0 -20 -20 -41 -46z"/>
<path d="M10444 7647 c-1 -165 -11 -210 -60 -274 -28 -37 -98 -76 -168 -94
-89 -22 -194 12 -343 113 -40 27 -73 44 -73 37 0 -20 88 -192 132 -259 53 -81
165 -195 238 -243 62 -41 158 -77 204 -77 41 0 124 40 158 76 56 60 68 105 68
260 0 156 -16 268 -56 396 -29 90 -83 218 -93 218 -3 0 -6 -69 -7 -153z"/>
<path d="M2143 7590 c-43 -140 -60 -229 -73 -385 -10 -128 -4 -355 10 -355 11
0 81 79 117 130 77 113 135 258 230 580 3 8 -28 -48 -69 -125 -75 -144 -156
-270 -167 -259 -3 3 -8 121 -11 262 l-5 257 -32 -105z"/>
<path d="M10872 7115 l4 -210 62 -145 c34 -80 82 -185 107 -235 l44 -90 -5
155 c-9 249 -21 371 -44 432 -17 45 -149 280 -167 298 -3 3 -3 -89 -1 -205z"/>
<path d="M1777 7168 c-237 -479 -326 -965 -281 -1540 6 -66 9 -78 24 -78 23 0
30 19 30 83 1 103 58 429 80 451 12 12 84 -102 159 -251 34 -68 62 -123 64
-123 1 0 -1 30 -5 68 -16 142 -21 836 -8 1175 7 186 10 340 8 343 -3 2 -35
-55 -71 -128z"/>
<path d="M10736 7163 c-3 -21 -10 -81 -17 -133 -15 -124 -39 -201 -85 -267
-52 -75 -108 -107 -193 -107 -87 -1 -179 42 -325 153 -59 45 -110 80 -112 78
-9 -9 50 -188 91 -275 170 -358 382 -489 545 -336 59 55 114 157 141 261 26
100 36 307 20 425 -11 83 -44 224 -54 234 -3 3 -8 -12 -11 -33z"/>
<path d="M1980 6656 c0 -52 142 -682 157 -696 11 -10 -19 549 -32 615 -5 24
-125 102 -125 81z"/>
<path d="M1905 6440 c5 -185 22 -354 55 -573 22 -141 88 -479 100 -512 4 -10
10 95 14 235 8 273 0 382 -34 492 -11 35 -37 144 -60 243 -22 100 -49 205 -60
235 l-20 55 5 -175z"/>
<path d="M10851 6355 c-47 -139 -96 -244 -133 -282 -68 -70 -218 -87 -329 -37
-70 32 -118 81 -225 233 -83 117 -86 115 -58 -29 26 -138 82 -320 128 -415
145 -298 385 -299 564 -3 83 138 120 364 93 578 l-6 55 -34 -100z"/>
<path d="M11080 6124 c-82 -214 -84 -223 -83 -349 0 -93 7 -150 30 -254 l29
-134 23 79 c12 43 43 135 68 204 40 112 44 131 40 185 -5 50 -76 277 -92 293
-2 3 -9 -8 -15 -24z"/>
<path d="M1625 5702 c-12 -285 5 -583 44 -789 44 -225 134 -458 236 -613 l36
-55 -5 55 c-26 259 -31 449 -13 467 9 8 94 -46 147 -94 27 -24 98 -105 156
-179 59 -73 109 -132 111 -131 11 12 -76 221 -165 397 -56 113 -130 266 -164
340 -33 74 -127 273 -209 442 -82 169 -149 312 -149 317 0 5 -4 12 -9 15 -5 3
-12 -72 -16 -172z"/>
<path d="M10127 5701 c-12 -114 -8 -316 8 -393 35 -163 112 -271 216 -302 62
-19 90 -20 143 -5 115 32 254 254 300 481 16 79 38 259 32 265 -2 2 -27 -49
-55 -114 -75 -167 -131 -242 -215 -285 -47 -24 -130 -22 -187 6 -87 41 -139
120 -199 301 l-37 110 -6 -64z"/>
<path d="M1337 5654 c-15 -26 -59 -185 -60 -219 -1 -28 16 -81 53 -170 29 -71
63 -157 75 -190 19 -49 27 -61 48 -63 29 -4 30 -2 48 151 16 138 8 205 -35
291 -48 95 -122 211 -129 200z"/>
<path d="M10052 5063 c-54 -198 -67 -424 -30 -513 35 -82 138 -160 211 -160
126 0 295 163 396 383 38 81 95 246 88 253 -2 2 -19 -15 -37 -39 -70 -87 -157
-170 -204 -194 -42 -21 -60 -24 -117 -21 -56 3 -76 9 -111 34 -56 39 -102 116
-139 237 -17 53 -32 97 -33 97 -2 0 -12 -35 -24 -77z"/>
<path d="M10896 4969 c-46 -50 -94 -109 -105 -132 -17 -36 -115 -506 -107
-514 1 -2 30 41 64 96 77 123 160 239 225 314 l50 59 -18 134 c-9 74 -19 134
-20 134 -2 0 -42 -41 -89 -91z"/>
<path d="M9871 4504 c-90 -253 -121 -427 -102 -569 14 -97 41 -186 59 -192 21
-8 136 45 210 97 82 58 190 170 258 270 49 72 154 258 154 274 0 4 -41 -31
-91 -78 -104 -98 -162 -131 -211 -121 -37 8 -136 65 -160 92 -25 28 -46 112
-54 215 -11 146 -15 147 -63 12z"/>
<path d="M2045 4449 c34 -292 141 -578 329 -876 68 -108 217 -313 228 -313 3
0 0 24 -8 54 -19 72 -44 240 -44 294 0 30 4 42 15 42 19 0 202 -81 284 -126
35 -19 65 -33 67 -31 8 7 -152 249 -251 382 -190 253 -398 465 -593 604 l-33
23 6 -53z"/>
<path d="M1296 4318 c149 -179 170 -225 219 -470 18 -92 42 -185 52 -205 26
-51 102 -107 180 -132 67 -22 123 -27 123 -12 0 19 -108 279 -155 371 -87 174
-140 252 -227 336 -70 67 -247 204 -263 204 -3 0 29 -42 71 -92z"/>
<path d="M1650 4361 c0 -29 32 -222 46 -275 11 -44 28 -74 65 -116 53 -62 268
-265 273 -259 2 2 -9 79 -23 170 l-26 166 -167 162 c-93 90 -168 158 -168 152z"/>
<path d="M10438 4003 l-117 -118 -60 -215 c-33 -118 -65 -228 -71 -245 -9 -25
2 -17 67 45 43 42 128 117 189 168 l112 92 5 82 c4 46 3 134 -1 196 l-7 112
-117 -117z"/>
<path d="M9570 3953 c-83 -126 -215 -400 -230 -478 -14 -75 -9 -169 11 -211
51 -102 180 -88 353 39 80 59 309 282 374 365 l34 42 -128 -62 c-114 -57 -134
-63 -189 -63 -50 0 -69 5 -103 28 -79 52 -99 130 -78 302 8 61 13 111 11 113
-2 2 -26 -32 -55 -75z"/>
<path d="M1620 3497 c0 -2 46 -40 103 -85 184 -144 199 -164 325 -422 107
-219 183 -310 261 -310 20 0 64 8 99 18 l63 18 -22 19 c-12 11 -99 117 -195
236 -182 227 -258 306 -375 384 -70 47 -259 151 -259 142z"/>
<path d="M9140 3398 c-128 -143 -194 -235 -251 -343 -50 -95 -89 -219 -89
-286 0 -37 1 -38 48 -45 107 -18 172 -11 277 30 229 89 391 191 538 339 54 54
96 101 93 104 -3 3 -43 -17 -89 -45 -161 -99 -249 -126 -335 -103 -48 13 -96
51 -117 92 -21 39 -19 139 5 254 11 54 18 100 16 102 -2 3 -45 -42 -96 -99z"/>
<path d="M2690 3421 c0 -54 50 -206 105 -316 72 -146 188 -298 348 -457 72
-70 132 -127 133 -125 2 2 -14 45 -36 96 -42 97 -46 128 -33 251 l6 62 63 -7
c35 -3 114 -15 176 -25 62 -10 114 -16 116 -15 2 2 -25 36 -59 76 -225 264
-461 424 -699 474 -106 22 -120 21 -120 -14z"/>
<path d="M2251 3283 c16 -60 40 -137 54 -173 l25 -65 117 -75 c65 -41 150 -98
190 -127 40 -29 73 -49 72 -45 0 4 -33 92 -72 196 l-72 189 -168 103 c-93 57
-170 104 -172 104 -1 0 10 -48 26 -107z"/>
<path d="M9824 3057 c-169 -104 -196 -127 -228 -193 -31 -62 -128 -315 -124
-319 8 -7 343 205 350 221 18 45 110 346 106 349 -2 2 -49 -24 -104 -58z"/>
<path d="M8600 2923 c-154 -150 -214 -222 -269 -324 -59 -111 -76 -186 -72
-318 l1 -44 103 6 c221 13 446 110 665 287 120 96 163 140 139 140 -10 0 -75
-14 -145 -31 -70 -17 -157 -33 -194 -36 -57 -5 -70 -3 -96 15 -73 53 -81 163
-22 330 17 51 30 96 27 99 -3 3 -65 -53 -137 -124z"/>
<path d="M9989 2794 c-74 -54 -412 -392 -516 -515 -104 -124 -235 -330 -220
-345 2 -3 23 20 46 49 92 120 161 172 420 318 198 111 237 160 306 384 48 158
48 155 37 155 -5 0 -38 -21 -73 -46z"/>
<path d="M3428 2781 c-87 -29 -119 -75 -98 -144 59 -198 295 -416 676 -625 73
-40 135 -72 139 -72 4 0 -17 30 -46 68 -119 151 -148 193 -168 247 l-21 57 20
28 c11 16 41 38 67 51 58 28 158 30 281 5 45 -10 87 -16 93 -14 12 4 -143 122
-226 170 -269 159 -604 266 -717 229z"/>
<path d="M8035 2567 c-300 -155 -516 -332 -550 -452 -38 -129 34 -221 200
-255 208 -43 579 70 801 244 l79 61 -230 6 c-126 3 -254 9 -284 14 l-54 8 6
56 c6 69 51 182 113 282 50 81 66 109 62 109 -2 0 -66 -33 -143 -73z"/>
<path d="M2563 2617 c280 -182 302 -202 410 -384 43 -72 87 -143 98 -157 36
-46 90 -66 172 -66 78 0 137 8 137 19 0 19 -118 160 -209 251 -163 162 -353
280 -531 329 -84 23 -104 25 -77 8z"/>
<path d="M2940 2622 c0 -11 141 -197 184 -242 47 -50 136 -99 249 -139 49 -17
93 -31 98 -31 12 0 -79 142 -138 214 -39 48 -64 67 -133 102 -93 46 -260 108
-260 96z"/>
<path d="M9148 2340 c-28 -17 -199 -59 -292 -72 l-89 -13 -70 -115 c-38 -63
-98 -154 -133 -202 -35 -49 -59 -88 -53 -88 5 0 75 18 155 40 80 22 156 40
168 40 48 0 95 49 206 215 40 61 85 126 100 145 46 60 48 73 8 50z"/>
<path d="M4260 2291 c-66 -5 -103 -12 -121 -24 -26 -18 -49 -56 -49 -83 0 -22
35 -86 67 -124 99 -118 512 -343 818 -446 l70 -23 -55 46 c-98 83 -259 251
-265 276 -9 34 13 134 30 141 8 3 92 19 187 36 95 17 174 33 176 35 8 7 -134
72 -213 98 -44 14 -116 33 -160 42 -74 15 -307 36 -365 33 -14 -1 -68 -4 -120
-7z"/>
<path d="M7330 2236 c-229 -59 -373 -132 -487 -247 -76 -76 -113 -145 -113
-211 0 -133 80 -164 399 -155 154 4 214 10 281 27 128 32 434 121 443 129 4 4
-93 22 -215 39 -123 17 -241 37 -262 44 -51 16 -106 68 -106 100 0 26 69 140
147 241 25 32 43 60 42 62 -2 2 -60 -11 -129 -29z"/>
<path d="M6820 2062 c-240 -19 -559 -107 -739 -205 -75 -40 -185 -114 -207
-138 -21 -23 -24 -80 -5 -102 19 -24 170 -95 226 -107 185 -41 497 -59 700
-41 138 13 315 40 328 51 4 3 -83 28 -193 54 -290 69 -440 121 -440 151 0 23
34 86 63 116 42 44 108 93 207 153 123 75 121 73 60 68z"/>
<path d="M5350 2039 c-147 -16 -328 -76 -424 -141 l-35 -24 26 -33 c36 -46
160 -143 239 -187 178 -99 455 -172 759 -200 l70 -6 -95 54 c-125 70 -183 111
-248 174 -62 60 -62 66 16 141 57 54 142 97 265 133 82 25 89 29 62 35 -16 4
-46 11 -65 15 -145 35 -429 55 -570 39z"/>
<path d="M3861 1893 c134 -128 269 -203 365 -203 l46 0 -34 42 c-18 23 -59 70
-90 104 -50 53 -65 63 -120 77 -76 20 -204 47 -224 47 -8 0 18 -30 57 -67z"/>
<path d="M8200 1789 c-69 -9 -145 -18 -168 -18 -39 -1 -51 -8 -115 -67 -40
-36 -132 -111 -204 -167 -73 -55 -131 -102 -129 -104 4 -5 396 16 433 23 39 7
104 68 227 214 49 58 96 113 104 123 18 21 24 21 -148 -4z"/>
<path d="M4580 1612 c0 -9 161 -113 218 -142 56 -27 184 -60 236 -60 46 0 86
9 85 19 -1 14 -129 112 -170 130 -56 25 -369 70 -369 53z"/>
<path d="M4270 1475 c-8 -2 -60 -9 -115 -15 -55 -7 -106 -16 -113 -19 -7 -4
49 -13 125 -19 227 -20 250 -26 429 -118 227 -116 261 -124 458 -107 l77 6 -3
31 c-3 29 -9 33 -148 93 -261 113 -421 154 -599 152 -53 -1 -103 -3 -111 -4z"/>
<path d="M6900 1387 c-142 -63 -280 -130 -280 -137 0 -9 234 -88 299 -100 46
-8 58 -7 94 12 63 31 409 239 405 243 -2 1 -102 5 -223 9 l-220 6 -75 -33z"/>
<path d="M5776 1370 c-66 -17 -122 -32 -124 -35 -8 -7 173 -135 234 -166 l62
-31 93 12 c52 6 139 19 194 29 l100 17 -45 30 c-25 17 -99 62 -164 99 -150 85
-178 88 -350 45z"/>
<path d="M7995 1354 c-443 -94 -748 -206 -907 -332 -64 -51 -152 -142 -144
-149 1 -2 58 25 127 60 218 109 287 124 644 136 130 4 239 12 250 18 28 15 89
90 167 206 59 85 64 97 45 96 -12 0 -94 -16 -182 -35z"/>
<path d="M5249 1180 c-31 -4 -112 -18 -180 -31 l-124 -24 135 -7 c203 -10 292
-33 498 -128 146 -67 182 -67 327 3 54 26 96 49 94 51 -9 9 -202 78 -282 101
-147 43 -313 55 -468 35z"/>
<path d="M6500 1069 c-178 -14 -330 -49 -472 -108 -74 -32 -202 -101 -196
-107 2 -2 58 10 124 26 251 63 366 73 489 46 33 -7 107 -23 165 -35 l105 -23
56 21 c30 12 97 50 147 85 l93 64 -66 11 c-62 11 -302 32 -335 29 -8 0 -58 -4
-110 -9z"/>
</g>
</svg>
