<svg version="1.0" xmlns="http://www.w3.org/2000/svg"
 width="1280.000000pt" height="1280.000000pt" viewBox="0 0 1280.000000 1280.000000"
 preserveAspectRatio="xMidYMid meet" fill="#000000" stroke="none">
<g transform="translate(0.000000,1280.000000) scale(0.100000,-0.100000)">
<path d="M6835 12444 c-559 -54 -927 -131 -1406 -292 -488 -165 -1014 -432
-1401 -712 -519 -376 -896 -803 -1132 -1285 -173 -352 -257 -689 -273 -1095
-5 -121 -9 -163 -14 -135 -4 22 -69 393 -143 825 -138 794 -177 1013 -181
1018 -1 2 -30 -25 -62 -60 -612 -642 -1073 -1726 -1197 -2818 -50 -439 -47
-907 10 -1300 59 -411 165 -762 334 -1105 142 -290 306 -522 520 -735 173
-173 369 -322 580 -440 41 -23 66 -39 55 -35 -11 4 -56 20 -100 35 -44 15
-444 161 -889 324 -444 164 -810 295 -813 293 -8 -9 104 -330 162 -462 165
-381 412 -769 726 -1146 124 -148 430 -463 584 -599 836 -742 1812 -1188 2688
-1229 558 -26 1071 96 1507 359 47 28 76 43 65 32 -53 -49 -209 -180 -800
-673 -353 -294 -641 -538 -642 -544 -3 -22 263 -77 512 -107 169 -20 709 -17
915 5 657 71 1305 256 1895 541 1119 541 1863 1349 2094 2272 45 177 62 315
69 534 l6 215 18 -95 c19 -95 163 -925 259 -1480 27 -162 52 -301 55 -309 6
-18 76 48 178 169 784 924 1230 2455 1101 3780 -102 1058 -531 1869 -1249
2362 -48 33 -129 85 -180 115 -50 31 -82 52 -71 49 18 -7 1506 -552 1708 -626
62 -23 77 -26 77 -14 0 8 -18 71 -40 139 -159 487 -446 982 -852 1469 -130
155 -516 541 -678 678 -1170 985 -2495 1365 -3563 1022 -176 -57 -391 -153
-548 -244 -48 -28 -51 -29 -29 -7 14 13 336 283 715 599 380 316 696 582 703
590 7 9 9 18 5 21 -5 3 -76 19 -158 36 -267 54 -369 63 -740 66 -187 2 -358 1
-380 -1z m35 -2004 c923 -55 1752 -422 2409 -1064 622 -609 993 -1361 1108
-2241 25 -194 25 -701 0 -890 -98 -735 -358 -1349 -815 -1921 -117 -147 -409
-438 -562 -560 -278 -221 -580 -402 -890 -533 -1130 -477 -2409 -376 -3456
272 -388 240 -778 605 -1056 987 -369 508 -600 1099 -685 1750 -22 170 -25
685 -5 855 91 765 380 1439 863 2015 129 153 374 392 532 518 724 577 1638
867 2557 812z"/>
</g>
</svg>
