<svg version="1.0" xmlns="http://www.w3.org/2000/svg"
 width="1280.000000pt" height="1211.000000pt" viewBox="0 0 1280.000000 1211.000000"
 preserveAspectRatio="xMidYMid meet" fill="#000000" stroke="none">
<g transform="translate(0.000000,1211.000000) scale(0.100000,-0.100000)">
<path d="M8570 12066 c-19 -7 -334 -185 -700 -396 -893 -514 -903 -520 -906
-517 -1 1 18 99 42 217 50 240 50 266 1 315 -27 27 -48 35 -137 53 -325 68
-515 86 -865 86 -476 0 -857 -58 -1285 -196 -609 -196 -1127 -505 -1616 -963
l-121 -114 -262 264 c-188 189 -270 265 -291 270 -45 10 -84 -2 -116 -36 l-29
-30 -5 -945 -5 -944 -135 121 c-209 187 -225 199 -274 199 -48 0 -69 -13 -132
-80 -368 -393 -689 -945 -874 -1500 -87 -263 -159 -596 -192 -895 -17 -159
-17 -671 0 -830 20 -179 67 -442 107 -603 20 -79 34 -146 32 -148 -3 -3 -160
-45 -351 -94 -190 -50 -355 -95 -365 -102 -30 -18 -51 -63 -51 -107 0 -33 7
-48 32 -75 21 -21 325 -202 795 -472 420 -240 763 -440 763 -444 0 -4 -12 -11
-27 -14 -16 -4 -104 -32 -198 -62 -259 -84 -268 -101 -191 -329 166 -495 403
-924 737 -1336 127 -157 446 -473 608 -602 152 -121 378 -277 526 -362 299
-173 713 -345 1023 -425 25 -6 42 -17 42 -26 0 -8 -43 -166 -96 -350 -105
-369 -107 -385 -56 -437 41 -40 95 -46 172 -17 33 12 60 25 60 29 0 4 20 15
45 26 25 11 45 23 45 28 0 4 5 7 12 7 6 0 44 20 84 45 39 25 74 45 78 45 3 0
35 18 71 40 36 22 67 40 70 40 3 0 33 17 67 38 35 21 70 41 78 45 8 4 33 18
55 31 22 13 67 38 100 56 33 18 76 43 95 56 19 13 40 24 47 24 7 0 13 5 13 10
0 6 5 10 11 10 6 0 37 15 68 34 31 19 79 46 106 62 28 15 64 36 80 46 17 10
37 21 45 25 8 4 47 26 86 50 39 24 74 43 77 43 4 0 35 18 69 40 35 22 68 40
75 40 6 0 14 6 16 13 15 36 3 -42 -33 -210 -50 -236 -51 -264 -7 -308 36 -36
109 -57 332 -95 253 -43 389 -54 695 -54 474 0 824 52 1261 188 140 43 349
120 414 151 98 47 245 114 264 120 11 3 21 11 21 16 0 5 7 9 15 9 8 0 66 31
130 70 64 38 118 70 121 70 3 0 42 25 86 55 44 30 84 55 89 55 5 0 9 4 9 8 0
4 12 15 28 24 15 9 38 26 52 37 14 10 57 43 95 72 39 29 72 55 75 58 3 3 34
31 70 61 36 29 106 94 156 143 50 48 101 95 112 102 19 14 34 0 263 -236 133
-138 255 -257 270 -265 58 -30 128 -13 159 38 19 32 20 51 20 509 0 628 11
1379 21 1379 4 0 80 -65 168 -145 184 -165 211 -179 285 -151 32 12 64 39 113
93 98 109 263 316 263 331 0 6 3 12 8 12 4 0 18 17 32 38 14 20 28 39 31 42 4
3 28 39 53 80 26 41 52 84 59 95 92 149 230 422 292 580 226 574 317 1036 318
1610 1 355 -31 638 -109 972 -19 84 -33 161 -30 171 7 22 32 31 211 76 374 94
462 117 486 126 60 25 80 133 35 187 -15 17 -339 212 -790 473 -421 245 -775
452 -788 461 l-22 17 34 16 c19 8 113 40 209 71 96 31 184 64 197 73 12 9 28
34 35 55 16 47 2 105 -73 306 -174 468 -415 885 -727 1256 -107 128 -337 361
-466 472 -462 400 -1016 700 -1595 863 -63 18 -118 34 -122 36 -3 2 4 39 17
82 12 42 44 154 70 247 26 94 58 208 71 254 13 46 24 102 24 125 0 92 -77 152
-160 122z m-2363 -1807 c114 -9 183 -20 410 -61 54 -10 66 -10 103 7 22 10 45
25 49 33 11 20 -11 43 677 -683 323 -341 599 -628 613 -637 33 -23 104 -23
142 -1 15 9 33 31 39 47 10 29 20 172 35 511 8 178 11 194 39 201 57 14 439
-161 641 -294 158 -103 255 -182 394 -316 313 -305 543 -672 671 -1072 17 -53
35 -106 41 -116 13 -25 68 -58 96 -58 26 0 33 32 -82 -355 -456 -1534 -429
-1436 -414 -1480 9 -25 27 -48 49 -63 59 -40 111 -29 297 64 87 43 160 82 161
87 2 4 8 7 13 7 11 0 200 91 209 100 3 3 15 11 27 17 21 12 23 10 37 -40 48
-168 68 -626 37 -847 -76 -553 -312 -1067 -661 -1444 -31 -33 -64 -72 -73 -86
-19 -27 -22 -91 -7 -120 8 -14 5 -19 -13 -24 -12 -3 -411 -98 -887 -211 -476
-113 -877 -210 -893 -216 -73 -30 -101 -125 -55 -184 12 -16 72 -60 132 -100
61 -40 191 -125 290 -189 208 -136 203 -109 41 -239 -389 -313 -846 -503
-1360 -568 -236 -30 -590 -12 -855 44 -127 27 -152 25 -193 -16 l-31 -32 -639
677 c-697 739 -672 717 -750 684 -42 -17 -75 -58 -81 -100 -3 -17 -13 -179
-22 -359 l-18 -328 -25 6 c-53 13 -219 79 -319 126 -270 127 -513 299 -738
523 -312 313 -513 642 -650 1065 -30 93 -41 115 -68 136 -18 14 -38 25 -44 25
-7 0 -12 2 -12 5 0 6 92 326 186 645 41 140 86 293 100 340 55 188 67 227 80
270 70 229 134 471 134 504 0 46 -26 93 -62 112 -55 31 -84 21 -411 -146
l-314 -160 -16 82 c-40 211 -42 235 -42 508 0 243 3 290 23 410 40 227 113
477 187 635 18 39 43 93 55 120 12 28 25 52 29 55 3 3 16 25 29 50 26 50 44
83 53 90 3 3 16 23 29 45 56 94 175 248 298 385 33 37 56 104 49 144 -8 48 9
59 143 91 63 15 232 56 375 90 143 35 310 76 370 90 61 14 220 53 355 86 135
33 311 76 392 96 175 42 201 56 216 112 13 53 1 99 -35 133 -16 14 -111 80
-213 145 -102 66 -224 145 -272 177 l-88 58 28 26 c79 78 339 270 427 318 11
6 47 26 80 44 448 250 958 362 1462 319z"/>
</g>
</svg>
