<svg version="1.0" xmlns="http://www.w3.org/2000/svg"
 width="1280.000000pt" height="1280.000000pt" viewBox="0 0 1280.000000 1280.000000"
 preserveAspectRatio="xMidYMid meet" fill="#000000" stroke="none">
<g transform="translate(0.000000,1280.000000) scale(0.100000,-0.100000)">
<path d="M6450 12543 c-157 -141 -285 -261 -285 -267 0 -18 517 -387 534 -381
11 4 548 311 558 320 2 1 -465 525 -510 572 -9 10 -76 -45 -297 -244z"/>
<path d="M5167 12413 c-126 -173 -227 -316 -225 -318 10 -10 592 -265 599
-263 5 2 116 100 248 218 185 166 237 218 228 227 -12 12 -617 453 -620 452
-1 0 -105 -142 -230 -316z"/>
<path d="M7723 12397 c-183 -106 -334 -195 -335 -199 -3 -7 419 -481 433 -486
12 -5 630 198 626 206 -84 147 -381 659 -386 664 -3 3 -156 -80 -338 -185z"/>
<path d="M3945 12025 c-87 -195 -156 -357 -154 -359 6 -5 641 -138 643 -134 2
2 89 122 194 267 106 146 191 265 189 266 -4 4 -707 315 -711 315 -2 0 -75
-160 -161 -355z"/>
<path d="M5900 11946 c-107 -96 -196 -179 -197 -183 -3 -9 402 -193 425 -193
12 0 387 213 405 229 7 7 -415 321 -432 321 -4 0 -95 -78 -201 -174z"/>
<path d="M8937 11990 c-197 -65 -361 -120 -364 -124 -5 -5 298 -539 318 -560
7 -8 646 50 657 59 3 2 -67 221 -189 593 -28 83 -54 152 -57 151 -4 0 -168
-54 -365 -119z"/>
<path d="M7058 11927 c-125 -73 -228 -135 -228 -138 0 -6 328 -249 367 -272 9
-6 95 17 236 63 122 40 224 74 226 76 5 4 -359 404 -367 403 -4 0 -109 -60
-234 -132z"/>
<path d="M4831 11821 c-47 -64 -118 -162 -159 -219 -41 -56 -73 -104 -71 -106
2 -3 105 -26 228 -52 198 -41 227 -45 246 -33 37 23 334 293 331 302 -1 7
-383 182 -471 217 -17 6 -32 -9 -104 -109z"/>
<path d="M2906 11753 c-6 -21 -156 -728 -156 -737 0 -4 149 -5 331 -4 l331 3
129 290 c71 159 127 295 125 301 -2 6 -33 17 -68 23 -34 7 -198 42 -363 77
-165 35 -305 64 -312 64 -6 0 -14 -8 -17 -17z"/>
<path d="M8188 11668 c-137 -45 -248 -84 -248 -87 0 -16 313 -351 328 -351 23
0 411 40 439 46 19 4 10 23 -113 236 -74 128 -140 234 -147 235 -6 1 -123 -35
-259 -79z"/>
<path d="M6488 11597 c-98 -56 -178 -105 -178 -108 0 -3 78 -41 174 -83 l174
-77 181 58 c99 32 181 61 181 65 0 9 -321 240 -340 244 -8 2 -95 -42 -192 -99z"/>
<path d="M5410 11507 c-87 -78 -159 -144 -159 -147 -1 -8 362 -83 380 -79 20
5 329 182 329 189 0 3 -88 44 -196 92 l-196 86 -158 -141z"/>
<path d="M7568 11466 c-102 -33 -189 -64 -193 -67 -3 -4 62 -57 145 -118 106
-77 160 -111 178 -110 50 1 351 35 357 40 7 8 -275 319 -289 318 -6 -1 -95
-29 -198 -63z"/>
<path d="M3782 11473 c-27 -54 -202 -449 -202 -457 0 -3 107 -6 238 -6 l237 0
138 191 c77 105 137 192 135 193 -1 2 -113 27 -248 55 -135 28 -253 54 -262
57 -12 4 -22 -6 -36 -33z"/>
<path d="M5993 11312 c-73 -42 -133 -79 -133 -82 0 -3 65 -19 145 -36 l145
-30 140 45 c77 25 140 48 140 51 0 8 -277 130 -293 130 -7 -1 -72 -36 -144
-78z"/>
<path d="M10033 11340 c-193 -21 -358 -40 -365 -42 -11 -2 8 -73 85 -308 54
-168 102 -309 106 -313 9 -9 643 -78 650 -71 5 4 -67 728 -75 757 -6 21 24 23
-401 -23z"/>
<path d="M4368 11185 l-127 -175 197 0 197 0 142 128 c78 70 140 129 138 130
-3 4 -402 91 -415 92 -3 0 -62 -79 -132 -175z"/>
<path d="M7022 11288 c-85 -27 -152 -51 -150 -53 1 -2 64 -31 139 -64 l137
-61 138 15 c77 9 145 17 152 18 8 1 -47 46 -121 100 -74 53 -137 97 -139 96
-1 0 -72 -23 -156 -51z"/>
<path d="M4982 11120 l-123 -110 156 0 156 0 125 72 c68 40 124 75 124 78 0 3
-64 18 -142 34 -79 16 -150 31 -158 33 -8 2 -70 -45 -138 -107z"/>
<path d="M9237 11180 c-136 -15 -249 -29 -252 -31 -5 -5 223 -402 235 -409 12
-7 460 -53 465 -48 3 2 -33 119 -78 259 -70 215 -86 254 -102 255 -11 1 -131
-10 -268 -26z"/>
<path d="M6553 11136 c-51 -16 -93 -33 -93 -36 0 -3 42 -13 93 -23 69 -14 112
-17 172 -11 112 9 118 16 43 49 -131 57 -113 55 -215 21z"/>
<path d="M8570 11110 c-86 -10 -163 -19 -172 -21 -17 -4 -4 -20 194 -238 l49
-54 177 -19 c97 -10 184 -17 193 -16 11 2 -11 49 -90 185 l-106 183 -45 -1
c-25 -1 -115 -9 -200 -19z"/>
<path d="M5560 11060 l-85 -50 105 1 c89 0 118 4 190 28 47 16 78 31 70 34
-25 9 -162 37 -179 37 -9 0 -54 -22 -101 -50z"/>
<path d="M8013 11052 c-79 -8 -143 -18 -143 -21 1 -3 53 -44 118 -91 l117 -85
150 -17 c82 -9 151 -15 153 -14 1 2 -46 57 -105 122 -66 74 -114 119 -127 120
-12 1 -85 -5 -163 -14z"/>
<path d="M6045 10971 l-110 -36 90 -3 c88 -4 360 17 351 26 -3 2 -47 13 -98
23 -51 11 -100 21 -108 23 -8 2 -64 -13 -125 -33z"/>
<path d="M7515 10999 c-38 -5 -74 -10 -78 -12 -5 -1 36 -21 90 -44 80 -33 115
-43 188 -48 l90 -7 -85 61 c-91 65 -88 64 -205 50z"/>
<path d="M7013 10947 c-57 -6 -103 -13 -103 -17 0 -15 403 -80 416 -67 3 3
-115 56 -181 81 -21 9 -59 9 -132 3z"/>
<path d="M1870 10540 c0 -214 3 -390 7 -390 7 0 480 100 583 123 l55 12 67
310 c37 171 67 316 67 323 1 9 -83 12 -389 12 l-390 0 0 -390z"/>
<path d="M2791 10837 c-11 -29 -113 -509 -109 -513 3 -2 371 73 444 91 17 4
42 51 114 212 51 115 95 214 97 221 4 9 -53 12 -266 12 l-271 0 -9 -23z"/>
<path d="M3485 10808 c-72 -158 -153 -343 -150 -346 3 -3 377 76 380 81 1 1
52 71 113 155 62 84 112 155 112 157 0 3 -97 5 -216 5 l-215 0 -24 -52z"/>
<path d="M4037 10728 c-53 -73 -95 -134 -93 -136 2 -2 68 11 147 28 159 35
138 22 319 189 l55 50 -166 1 -167 0 -95 -132z"/>
<path d="M4618 10793 c-42 -38 -75 -69 -73 -71 2 -2 43 4 92 14 65 13 110 29
170 63 45 25 82 49 83 54 0 4 -44 7 -98 7 l-98 0 -76 -67z"/>
<path d="M5113 10802 c-56 -31 -100 -58 -99 -60 12 -11 392 91 413 112 3 3
-43 6 -103 6 l-109 0 -102 -58z"/>
<path d="M7900 10694 c99 -47 148 -67 249 -98 95 -29 94 -25 -21 57 -69 49
-83 55 -145 61 -37 4 -88 9 -113 12 l-45 4 75 -36z"/>
<path d="M8370 10668 c0 -3 35 -29 78 -60 54 -39 102 -62 161 -81 47 -15 86
-25 88 -23 2 2 -29 38 -69 80 -60 63 -78 76 -104 76 -17 0 -59 3 -93 6 -33 4
-61 5 -61 2z"/>
<path d="M8800 10625 c0 -4 44 -55 97 -113 l97 -107 140 -47 c78 -27 144 -48
148 -48 9 0 -150 273 -164 281 -5 3 -65 12 -131 18 -67 7 -137 14 -154 18 -18
3 -33 2 -33 -2z"/>
<path d="M9409 10403 l97 -166 157 -53 c86 -29 170 -55 186 -59 l30 -6 -66
198 c-36 109 -69 201 -72 205 -7 8 -347 48 -401 48 -28 0 -28 -1 69 -167z"/>
<path d="M4411 10534 c-81 -19 -111 -30 -140 -55 -91 -80 -133 -119 -126 -119
28 0 385 182 385 196 0 6 -3 5 -119 -22z"/>
<path d="M9910 10508 c0 -2 33 -104 73 -227 l73 -225 224 -72 c123 -40 226
-72 227 -70 2 2 -9 123 -24 270 -26 247 -29 267 -48 271 -20 5 -491 55 -513
55 -7 0 -12 -1 -12 -2z"/>
<path d="M10605 10463 c3 -27 19 -171 35 -321 16 -151 31 -277 35 -280 10 -11
620 -209 623 -203 6 15 81 766 76 770 -6 6 -691 80 -742 81 l-33 0 6 -47z"/>
<path d="M3897 10424 c-54 -12 -99 -24 -101 -26 -1 -1 -27 -38 -59 -80 -31
-43 -57 -79 -57 -82 0 -8 173 75 199 95 37 30 123 111 119 113 -2 1 -47 -8
-101 -20z"/>
<path d="M3394 10318 l-141 -31 -65 -146 c-36 -80 -62 -147 -58 -149 3 -1 64
24 136 56 l129 58 78 104 c98 131 103 140 80 139 -10 0 -82 -15 -159 -31z"/>
<path d="M8700 10335 c0 -8 184 -137 245 -172 125 -72 124 -71 91 -32 -110
131 -119 138 -231 173 -58 19 -105 32 -105 31z"/>
<path d="M2855 10204 c-110 -25 -203 -48 -207 -52 -6 -6 -98 -414 -94 -418 3
-4 343 149 353 159 8 9 110 228 160 345 6 15 27 18 -212 -34z"/>
<path d="M9247 10124 c22 -27 54 -62 71 -77 30 -28 174 -118 181 -112 1 2 -19
42 -45 89 l-49 86 -85 27 c-47 14 -92 28 -100 31 -8 3 4 -16 27 -44z"/>
<path d="M2204 10065 c-133 -29 -247 -55 -253 -59 -17 -11 -16 -550 2 -543 46
19 422 189 425 192 3 2 24 98 48 212 24 114 46 218 49 231 7 29 16 30 -271
-33z"/>
<path d="M3601 10032 l-104 -47 -65 -88 c-35 -48 -63 -90 -61 -92 6 -5 200
144 275 213 38 34 67 62 64 62 -3 0 -52 -22 -109 -48z"/>
<path d="M1585 10010 c-93 -20 -252 -54 -353 -75 -100 -22 -187 -42 -193 -46
-8 -4 10 -104 56 -325 38 -176 73 -343 79 -373 6 -30 16 -56 21 -58 6 -2 141
55 300 126 l290 129 3 331 c2 311 1 331 -15 330 -10 -1 -94 -18 -188 -39z"/>
<path d="M9637 10007 c11 -18 45 -78 78 -133 l58 -102 96 -55 c53 -30 112 -64
133 -76 l36 -22 -18 59 c-10 32 -33 103 -52 158 l-33 99 -137 46 c-195 66
-183 64 -161 26z"/>
<path d="M10120 9867 c0 -7 26 -91 58 -187 l59 -174 166 -97 167 -97 0 29 c0
51 -41 394 -48 400 -18 17 -402 136 -402 126z"/>
<path d="M3115 9815 l-90 -42 -42 -91 c-23 -51 -39 -92 -36 -92 2 0 38 25 79
54 51 37 93 80 131 131 30 42 54 78 52 79 -2 2 -45 -15 -94 -39z"/>
<path d="M9502 9728 c54 -65 175 -186 229 -229 l41 -33 -15 30 c-77 149 -92
165 -198 226 l-101 58 44 -52z"/>
<path d="M10690 9668 c1 -41 46 -447 51 -452 12 -12 404 -234 407 -231 8 8 60
530 54 536 -6 5 -370 127 -489 163 -19 6 -23 4 -23 -16z"/>
<path d="M2659 9612 l-146 -65 -32 -154 c-18 -85 -31 -156 -28 -159 4 -5 218
148 235 168 15 18 123 261 120 268 -2 4 -69 -22 -149 -58z"/>
<path d="M11360 9531 c0 -10 -14 -148 -31 -306 -16 -158 -29 -299 -27 -312 3
-21 47 -50 278 -184 151 -87 278 -159 282 -159 4 0 59 160 123 357 65 196 119
362 122 369 3 9 -107 49 -365 133 -203 67 -372 121 -376 121 -3 0 -6 -8 -6
-19z"/>
<path d="M9942 9478 c8 -13 30 -49 48 -81 27 -48 167 -194 177 -184 1 2 -11
46 -28 98 l-31 95 -83 47 c-45 26 -86 47 -90 47 -4 0 -1 -10 7 -22z"/>
<path d="M2140 9381 l-195 -87 -3 -217 c-1 -119 0 -217 2 -217 4 0 278 197
315 226 5 4 82 376 78 380 -1 2 -90 -36 -197 -85z"/>
<path d="M2899 9366 c-70 -53 -90 -73 -107 -113 -11 -26 -32 -75 -47 -108
l-25 -60 37 42 c115 127 253 303 236 303 -4 -1 -47 -29 -94 -64z"/>
<path d="M10310 9283 c0 -2 21 -69 46 -146 l45 -142 110 -99 c61 -54 112 -97
113 -95 5 5 -29 317 -35 323 -11 11 -279 164 -279 159z"/>
<path d="M1535 9112 c-165 -74 -239 -112 -238 -122 3 -28 106 -515 109 -518 1
-2 88 58 193 135 l191 138 0 238 c0 130 -3 237 -7 237 -5 0 -116 -49 -248
-108z"/>
<path d="M2495 9073 c-33 -25 -68 -51 -78 -58 -12 -9 -26 -46 -41 -114 -13
-56 -20 -101 -17 -100 3 0 33 31 66 69 39 45 75 100 102 159 23 50 39 91 35
90 -4 0 -34 -21 -67 -46z"/>
<path d="M10110 9040 c54 -104 210 -340 225 -340 2 0 -13 48 -32 107 -38 113
-45 122 -172 229 -33 28 -34 28 -21 4z"/>
<path d="M10760 9007 c0 -12 9 -99 19 -194 l18 -172 54 -49 c30 -27 95 -85
144 -130 l90 -81 6 37 c11 59 42 392 38 396 -2 2 -86 51 -186 109 -162 94
-183 103 -183 84z"/>
<path d="M773 8856 c-189 -84 -345 -155 -349 -158 -3 -3 66 -166 154 -362
l159 -356 264 192 c145 105 266 193 267 194 9 6 -133 644 -143 643 -5 0 -164
-69 -352 -153z"/>
<path d="M2072 8764 l-132 -95 0 -167 1 -167 50 55 c28 30 75 83 105 116 l55
62 30 142 c17 78 29 144 27 146 -3 2 -64 -39 -136 -92z"/>
<path d="M11276 8707 c-6 -26 -46 -415 -46 -439 0 -15 334 -328 350 -328 9 0
173 511 167 517 -3 3 -109 65 -236 138 -212 122 -231 131 -235 112z"/>
<path d="M10502 8689 c4 -9 16 -50 28 -90 16 -52 39 -97 79 -153 63 -89 68
-86 52 38 -8 65 -14 83 -38 108 -47 50 -127 114 -121 97z"/>
<path d="M2410 8630 c-14 -16 -46 -53 -73 -83 -44 -51 -49 -62 -71 -163 -13
-60 -23 -110 -21 -112 1 -1 28 41 58 95 56 99 142 281 135 288 -2 2 -15 -9
-28 -25z"/>
<path d="M1630 8444 c-85 -63 -163 -120 -173 -127 -17 -11 -16 -23 27 -221 25
-114 46 -210 48 -211 2 -2 60 60 130 138 l128 142 0 198 c0 108 -1 197 -2 196
-2 0 -73 -52 -158 -115z"/>
<path d="M11810 8140 c-56 -171 -100 -314 -98 -319 4 -9 479 -436 485 -436 9
0 391 670 385 676 -4 4 -137 82 -297 174 -159 92 -309 179 -332 192 l-42 24
-101 -311z"/>
<path d="M10825 8364 c3 -27 12 -96 18 -154 l13 -105 84 -117 c47 -65 87 -117
91 -118 5 0 41 322 36 325 -1 1 -49 44 -107 96 -153 138 -142 132 -135 73z"/>
<path d="M2008 8182 l-68 -76 0 -98 c0 -54 3 -98 8 -98 4 0 27 37 52 81 31 57
51 110 66 175 11 52 18 94 15 94 -3 -1 -36 -35 -73 -78z"/>
<path d="M10575 8213 c4 -10 18 -54 32 -97 26 -83 113 -289 119 -283 2 2 -1
52 -8 111 l-12 108 -63 89 c-62 86 -83 108 -68 72z"/>
<path d="M1095 8054 c-110 -80 -208 -151 -217 -158 -15 -11 -6 -35 94 -259 61
-136 114 -246 118 -245 20 9 310 343 310 358 0 9 -20 111 -45 226 -25 114 -45
211 -45 216 0 4 -3 8 -7 8 -5 0 -98 -66 -208 -146z"/>
<path d="M11206 8039 c-6 -29 -36 -315 -36 -345 0 -23 211 -320 225 -317 7 1
134 373 135 394 0 5 -210 198 -297 273 -22 18 -22 18 -27 -5z"/>
<path d="M1710 7852 c-41 -46 -90 -101 -107 -122 l-33 -38 33 -156 c17 -86 35
-156 38 -156 3 0 38 56 77 125 l73 125 -3 152 -3 153 -75 -83z"/>
<path d="M435 7669 c-143 -105 -284 -208 -313 -228 l-52 -38 220 -304 c122
-167 227 -309 233 -316 9 -9 61 43 227 227 118 131 216 243 218 248 4 12 -259
602 -267 601 -3 0 -123 -86 -266 -190z"/>
<path d="M10890 7769 c1 -84 20 -170 56 -253 l39 -89 6 39 c4 21 10 68 13 104
l7 65 -61 84 c-58 82 -60 83 -60 50z"/>
<path d="M1998 7687 l-58 -102 0 -109 c0 -60 3 -106 6 -103 21 21 123 401 112
413 -2 1 -29 -43 -60 -99z"/>
<path d="M11581 7436 c-48 -147 -70 -229 -65 -238 24 -40 267 -368 273 -368 5
0 257 431 269 461 3 6 -391 369 -400 369 -2 0 -37 -101 -77 -224z"/>
<path d="M1293 7390 l-141 -158 86 -196 c48 -107 89 -195 92 -196 3 0 48 75
100 166 l96 165 -41 190 c-22 104 -42 189 -45 188 -3 0 -69 -72 -147 -159z"/>
<path d="M11140 7435 c0 -11 -7 -80 -15 -153 l-15 -134 62 -139 c33 -77 63
-138 65 -136 2 2 25 73 52 157 l50 154 -91 125 c-109 151 -108 150 -108 126z"/>
<path d="M10860 7319 c0 -76 59 -424 69 -413 3 3 10 52 16 110 l11 105 -44
102 c-48 110 -52 118 -52 96z"/>
<path d="M1736 7233 l-49 -86 18 -91 c10 -50 21 -94 25 -99 3 -4 19 32 34 80
23 75 26 102 24 185 l-3 97 -49 -86z"/>
<path d="M12058 6986 c-86 -149 -160 -278 -163 -287 -4 -11 53 -98 182 -275
103 -141 193 -259 198 -260 8 -2 332 351 487 530 l37 43 -266 239 c-146 131
-277 249 -292 260 l-26 22 -157 -272z"/>
<path d="M856 6903 c-102 -114 -174 -203 -171 -211 12 -31 310 -431 316 -424
17 17 229 393 229 404 0 18 -183 428 -190 428 -4 0 -86 -89 -184 -197z"/>
<path d="M11387 6839 l-58 -182 77 -173 c42 -96 80 -174 83 -174 12 1 212 362
208 375 -9 21 -238 335 -245 335 -4 0 -33 -82 -65 -181z"/>
<path d="M1495 6818 c-38 -67 -74 -130 -79 -140 -7 -13 8 -55 55 -163 35 -80
66 -145 69 -145 7 0 91 252 92 277 2 26 -54 293 -61 293 -3 0 -37 -55 -76
-122z"/>
<path d="M1829 6753 l-36 -110 22 -107 c13 -59 25 -109 28 -112 8 -9 29 264
25 350 l-3 88 -36 -109z"/>
<path d="M11077 6810 c-18 -77 -18 -166 0 -256 10 -52 21 -94 24 -94 8 0 64
182 61 197 -2 7 -20 50 -41 95 -33 71 -39 79 -44 58z"/>
<path d="M261 6356 c-139 -156 -253 -287 -253 -291 0 -7 574 -527 577 -522 25
32 319 555 319 566 1 19 -365 530 -379 530 -5 0 -124 -127 -264 -283z"/>
<path d="M11783 6508 c-84 -139 -213 -369 -213 -380 0 -18 182 -428 190 -428
8 0 354 386 358 399 2 7 -276 400 -308 434 -4 5 -16 -6 -27 -25z"/>
<path d="M1202 6309 c-57 -99 -101 -186 -99 -194 8 -20 239 -335 246 -335 3 0
32 82 64 181 l58 182 -77 173 c-42 96 -80 174 -83 174 -3 0 -53 -82 -109 -181z"/>
<path d="M11212 6300 c-24 -71 -44 -137 -44 -147 -2 -26 54 -293 61 -293 5 0
129 209 155 262 7 13 -8 55 -55 163 -35 80 -66 145 -69 145 -3 0 -25 -58 -48
-130z"/>
<path d="M10942 6266 c-7 -62 -12 -162 -11 -222 l1 -109 37 111 38 110 -22
108 c-13 59 -25 109 -27 112 -2 2 -10 -47 -16 -110z"/>
<path d="M1664 6245 l-31 -94 41 -91 c23 -53 43 -85 47 -78 18 35 20 181 3
261 -9 45 -20 85 -23 90 -4 4 -21 -36 -37 -88z"/>
<path d="M12050 5790 c-118 -132 -216 -243 -218 -248 -2 -8 252 -589 262 -599
2 -2 145 98 317 223 173 125 315 228 317 229 3 3 -433 603 -451 622 -10 10
-60 -40 -227 -227z"/>
<path d="M875 5743 c-71 -124 -131 -229 -133 -233 -3 -8 397 -374 403 -368 10
11 145 444 141 454 -8 20 -268 374 -275 374 -3 0 -64 -102 -136 -227z"/>
<path d="M11375 5803 c-50 -86 -92 -163 -94 -171 -4 -19 71 -382 79 -381 3 0
69 72 147 159 l141 158 -86 196 c-48 107 -89 196 -92 196 -3 0 -46 -70 -95
-157z"/>
<path d="M1512 5775 l-51 -158 97 -134 c53 -73 98 -130 99 -125 1 4 9 72 18
151 l15 143 -56 127 c-31 69 -59 132 -64 140 -5 9 -26 -43 -58 -144z"/>
<path d="M1867 5880 c-4 -14 -10 -64 -15 -112 l-8 -88 45 -104 c25 -58 47
-104 49 -102 7 7 -20 215 -42 321 -17 80 -25 103 -29 85z"/>
<path d="M11036 5763 c-24 -76 -27 -101 -24 -185 l3 -97 49 86 49 86 -18 91
c-10 50 -21 94 -24 99 -4 4 -20 -32 -35 -80z"/>
<path d="M1335 5234 l-67 -207 24 -23 c13 -12 84 -77 158 -143 111 -100 136
-118 142 -104 6 17 38 307 38 350 0 15 -156 244 -225 331 -1 1 -33 -90 -70
-204z"/>
<path d="M10849 5425 c-21 -34 -109 -366 -109 -407 0 -7 27 35 61 93 l60 107
-3 108 c-2 60 -6 105 -9 99z"/>
<path d="M597 5413 c-2 -4 -89 -154 -192 -333 -103 -179 -189 -328 -191 -332
-2 -3 132 -85 298 -181 167 -96 320 -185 340 -196 l37 -22 101 311 c56 171
100 315 98 319 -2 4 -97 92 -213 196 -116 103 -224 201 -241 217 -18 17 -34
26 -37 21z"/>
<path d="M11082 5296 l-72 -125 0 -153 1 -153 56 60 c30 33 79 87 109 121 l54
61 -33 157 c-17 86 -35 156 -38 156 -3 0 -38 -56 -77 -124z"/>
<path d="M11555 5241 c-82 -92 -151 -175 -153 -184 -3 -16 86 -447 93 -456 3
-3 329 229 422 299 l21 16 -108 245 c-60 134 -112 245 -117 246 -4 1 -75 -74
-158 -166z"/>
<path d="M1807 5325 c-21 -173 -25 -151 44 -245 l61 -85 -7 89 c-7 94 -15 121
-62 226 l-30 65 -6 -50z"/>
<path d="M2074 4935 c3 -22 8 -73 12 -113 6 -69 10 -77 71 -163 36 -50 67 -89
69 -87 7 8 -75 235 -115 318 -37 76 -41 81 -37 45z"/>
<path d="M1747 4770 l-16 -160 47 -44 c102 -94 196 -176 198 -173 2 2 -4 70
-14 153 l-17 149 -85 117 c-47 65 -87 118 -91 118 -3 0 -13 -72 -22 -160z"/>
<path d="M11137 4777 l-127 -142 0 -197 0 -197 173 126 c94 69 173 127 175
128 3 3 -86 416 -90 421 -2 2 -61 -61 -131 -139z"/>
<path d="M10800 4809 c-31 -57 -51 -110 -66 -175 -11 -52 -18 -94 -15 -93 3 0
36 35 74 77 l67 77 0 97 c0 54 -3 98 -7 98 -5 0 -28 -37 -53 -81z"/>
<path d="M1131 4604 c-46 -141 -79 -259 -74 -263 32 -29 456 -262 462 -255 4
5 18 111 31 235 l23 226 -44 40 c-148 135 -305 273 -310 273 -3 0 -43 -115
-88 -256z"/>
<path d="M11814 4639 c-137 -100 -257 -187 -268 -194 -17 -13 -16 -25 42 -297
33 -156 64 -300 67 -320 4 -21 11 -38 15 -38 9 0 700 307 707 313 2 3 -62 153
-143 333 -80 181 -152 341 -158 356 l-12 28 -250 -181z"/>
<path d="M10502 4442 c-50 -86 -122 -236 -137 -283 -6 -18 4 -10 37 26 111
124 107 116 132 231 13 60 23 110 21 112 -1 1 -25 -37 -53 -86z"/>
<path d="M10770 4368 c-46 -51 -92 -102 -102 -114 -16 -18 -86 -300 -76 -309
2 -2 63 40 136 92 l132 95 0 164 c0 90 -2 164 -4 164 -2 0 -41 -42 -86 -92z"/>
<path d="M2130 4403 c1 -16 5 -59 9 -98 l9 -70 73 -67 c40 -38 74 -66 76 -65
2 2 -9 42 -23 88 -19 60 -42 106 -82 162 -30 42 -57 77 -59 77 -1 0 -3 -12 -3
-27z"/>
<path d="M1707 4378 c-14 -106 -40 -388 -36 -391 2 -3 86 -52 187 -110 161
-93 182 -103 182 -84 -1 59 -39 370 -46 376 -27 24 -233 208 -255 228 l-26 24
-6 -43z"/>
<path d="M11198 4193 l-188 -137 0 -238 c0 -131 3 -238 8 -237 20 1 487 217
486 225 -5 44 -109 524 -113 524 -3 -1 -90 -62 -193 -137z"/>
<path d="M814 3873 c-64 -197 -119 -363 -121 -370 -3 -7 43 -27 124 -53 70
-23 238 -77 372 -121 134 -44 245 -78 246 -77 2 2 18 148 36 325 21 205 30
326 24 332 -14 13 -548 321 -557 321 -4 0 -60 -161 -124 -357z"/>
<path d="M2497 3995 c37 -111 51 -130 172 -231 l34 -28 -18 33 c-52 101 -205
331 -220 331 -2 0 12 -47 32 -105z"/>
<path d="M2173 3978 c3 -13 11 -82 18 -155 7 -72 15 -136 18 -141 7 -12 281
-173 281 -165 0 2 -20 69 -45 146 l-46 142 -109 98 c-60 53 -112 97 -115 97
-4 0 -5 -10 -2 -22z"/>
<path d="M10375 3930 c-39 -45 -75 -100 -102 -160 l-43 -91 28 16 c15 9 54 38
86 64 l60 46 21 98 c12 53 19 97 16 96 -3 0 -33 -31 -66 -69z"/>
<path d="M10710 3838 c-74 -55 -143 -106 -153 -113 -14 -10 -29 -60 -58 -201
-22 -103 -38 -188 -37 -189 2 -2 91 36 198 84 l195 87 3 217 c1 119 -1 217 -5
216 -5 0 -69 -46 -143 -101z"/>
<path d="M1649 3818 c-13 -89 -55 -535 -51 -539 10 -10 505 -169 510 -164 4 4
-35 409 -43 450 -3 15 -54 50 -167 115 -220 127 -248 142 -249 138z"/>
<path d="M9993 3618 c-78 -88 -199 -248 -188 -248 3 0 45 29 94 65 72 53 92
73 109 112 11 27 32 74 46 106 14 31 25 57 23 57 -1 0 -39 -42 -84 -92z"/>
<path d="M11300 3540 l-285 -128 -3 -332 -2 -332 27 6 c400 84 726 155 730
160 5 5 -39 223 -127 626 -18 85 -31 126 -41 127 -8 1 -142 -56 -299 -127z"/>
<path d="M2632 3580 c3 -8 18 -53 32 -100 l28 -85 84 -49 c47 -26 87 -46 89
-45 6 7 -81 149 -111 180 -46 49 -129 115 -122 99z"/>
<path d="M10233 3491 c-60 -44 -115 -86 -121 -93 -15 -18 -123 -261 -120 -268
2 -4 69 22 149 58 l146 65 32 154 c18 85 31 156 28 159 -2 2 -53 -32 -114 -75z"/>
<path d="M2230 3464 c0 -51 41 -399 48 -405 17 -16 402 -136 402 -125 0 21
-112 351 -124 362 -6 6 -82 52 -168 102 -151 87 -158 90 -158 66z"/>
<path d="M3079 3240 c62 -106 78 -120 225 -197 l29 -15 -21 29 c-28 39 -199
211 -251 252 l-41 33 59 -102z"/>
<path d="M10636 3245 c-115 -52 -211 -97 -214 -99 -6 -7 -102 -459 -98 -463 4
-5 514 104 526 112 12 7 14 545 3 544 -5 0 -102 -43 -217 -94z"/>
<path d="M9772 3155 c-51 -36 -91 -78 -129 -130 -30 -42 -54 -78 -52 -79 2 -2
45 15 94 39 l90 42 42 91 c23 51 39 92 35 92 -4 -1 -40 -25 -80 -55z"/>
<path d="M2809 3032 c26 -82 51 -154 55 -160 3 -6 73 -32 154 -58 81 -25 151
-49 157 -52 5 -3 0 10 -11 29 -11 19 -46 79 -78 135 l-59 101 -101 59 c-56 32
-115 66 -133 76 l-31 19 47 -149z"/>
<path d="M1500 3141 c0 -3 -18 -177 -40 -386 -21 -209 -35 -382 -30 -385 11
-7 759 -84 765 -78 7 7 -63 640 -72 649 -4 4 -100 38 -213 74 -113 37 -251 81
-307 100 -57 18 -103 30 -103 26z"/>
<path d="M10068 2991 c-92 -42 -172 -80 -177 -86 -7 -8 -120 -254 -158 -344
-4 -9 -1 -12 13 -7 10 3 105 24 209 46 105 23 193 44 197 48 4 4 25 93 48 197
22 105 43 198 46 208 3 9 2 16 -3 16 -4 -1 -83 -36 -175 -78z"/>
<path d="M9395 2976 c-136 -102 -189 -144 -245 -197 l-65 -60 60 26 c33 14 81
36 108 47 39 17 59 37 113 110 36 49 64 91 62 93 -1 1 -16 -7 -33 -19z"/>
<path d="M2293 2851 c3 -23 16 -145 28 -272 22 -213 25 -230 44 -234 34 -7
517 -56 521 -53 2 2 -30 105 -69 228 l-73 224 -209 68 c-116 38 -219 71 -229
74 -17 6 -18 2 -13 -35z"/>
<path d="M3300 2865 c0 -4 21 -44 48 -90 l47 -82 94 -31 c52 -17 96 -30 98
-28 9 8 -133 147 -175 171 -26 15 -62 36 -79 47 -18 11 -33 16 -33 13z"/>
<path d="M9536 2755 c-65 -30 -125 -60 -133 -66 -21 -18 -174 -231 -169 -237
3 -2 75 11 160 29 l156 33 14 36 c8 19 37 86 65 148 28 64 45 112 38 111 -7 0
-65 -25 -131 -54z"/>
<path d="M3765 2668 c106 -126 115 -133 228 -171 59 -19 107 -34 107 -32 0 15
-334 235 -357 235 -2 0 7 -15 22 -32z"/>
<path d="M2987 2483 c36 -109 68 -201 72 -205 6 -6 358 -48 407 -48 20 0 14
15 -74 167 l-97 166 -175 59 c-96 32 -180 58 -187 58 -7 0 13 -74 54 -197z"/>
<path d="M10602 2585 c-161 -35 -299 -65 -306 -68 -7 -3 -18 -29 -24 -59 -6
-29 -36 -170 -66 -313 -31 -143 -56 -263 -56 -267 0 -5 176 -8 390 -8 l390 0
0 390 c0 365 -1 390 -17 389 -10 -1 -150 -29 -311 -64z"/>
<path d="M9027 2526 c-86 -40 -240 -158 -214 -164 12 -2 187 34 191 40 1 2 28
38 60 81 32 43 56 80 54 82 -1 1 -43 -16 -91 -39z"/>
<path d="M3592 2353 c44 -76 82 -140 84 -143 6 -5 318 -39 323 -34 2 1 -41 52
-95 113 l-99 110 -141 46 c-77 25 -143 45 -147 45 -3 0 30 -62 75 -137z"/>
<path d="M9878 2431 c-120 -26 -220 -50 -223 -53 -6 -6 -195 -427 -195 -434 0
-9 539 -3 545 6 5 8 71 308 111 503 4 19 2 27 -8 26 -7 0 -111 -22 -230 -48z"/>
<path d="M8548 2396 c-93 -42 -282 -146 -276 -152 2 -1 52 9 112 22 88 20 117
31 145 56 95 83 132 118 125 118 -5 0 -53 -20 -106 -44z"/>
<path d="M9261 2299 c-96 -21 -175 -40 -176 -41 -24 -29 -225 -310 -225 -313
0 -3 98 -4 217 -3 l217 3 67 150 c112 250 111 245 91 244 -9 0 -95 -18 -191
-40z"/>
<path d="M4138 2253 c81 -96 93 -104 178 -114 124 -16 127 -11 38 52 -56 41
-103 64 -162 83 -46 14 -85 26 -88 26 -3 0 12 -21 34 -47z"/>
<path d="M4570 2225 c0 -2 40 -33 89 -68 l89 -63 108 -12 c59 -7 109 -10 111
-8 6 6 -189 88 -291 123 -108 36 -106 35 -106 28z"/>
<path d="M8696 2179 c-77 -17 -137 -36 -150 -47 -121 -107 -196 -177 -196
-184 0 -4 72 -8 159 -8 l159 0 88 123 c48 67 92 128 97 135 13 17 -5 15 -157
-19z"/>
<path d="M2291 2168 c0 -54 74 -736 80 -742 4 -4 731 68 765 76 10 3 -179 604
-196 621 -5 6 -595 76 -647 77 -2 0 -3 -15 -2 -32z"/>
<path d="M3113 2098 c2 -7 39 -121 82 -253 42 -132 80 -243 83 -247 7 -6 530
46 537 54 4 3 -220 396 -231 407 -6 6 -392 50 -443 50 -22 1 -32 -3 -28 -11z"/>
<path d="M8164 2066 c-86 -20 -253 -98 -254 -118 0 -5 43 -8 96 -8 89 0 98 2
128 26 50 42 128 116 124 118 -2 1 -44 -7 -94 -18z"/>
<path d="M7660 2036 c-114 -27 -271 -75 -284 -87 -6 -5 36 -9 100 -9 l109 0
105 60 c58 33 96 59 85 59 -11 0 -63 -11 -115 -23z"/>
<path d="M3877 1858 c58 -101 107 -185 109 -187 3 -4 426 38 430 42 2 2 -65
78 -202 231 l-53 59 -163 18 c-90 10 -177 18 -195 19 l-31 0 105 -182z"/>
<path d="M4405 1958 c11 -12 60 -68 110 -123 49 -55 90 -101 90 -102 1 -4 325
32 325 37 0 3 -54 44 -120 91 l-119 87 -118 11 c-65 7 -134 14 -153 17 l-35 6
20 -24z"/>
<path d="M5572 1892 l106 -48 109 12 c59 7 110 13 113 14 24 8 -354 71 -420
70 -8 0 33 -22 92 -48z"/>
<path d="M5081 1850 l84 -60 60 6 c33 4 80 10 104 13 l45 6 -89 39 c-86 37
-168 55 -249 56 l-38 0 83 -60z"/>
<path d="M6512 1857 c-51 -5 -92 -11 -90 -12 2 -2 52 -15 112 -28 l109 -25
100 34 c55 19 102 36 105 39 9 8 -235 3 -336 -8z"/>
<path d="M7025 1760 c-45 -15 -73 -30 -65 -33 25 -9 161 -37 179 -37 9 0 54
23 101 50 l85 50 -110 -1 c-94 0 -122 -5 -190 -29z"/>
<path d="M7505 1720 c-66 -39 -121 -74 -123 -79 -1 -4 14 -11 35 -14 21 -3 92
-17 157 -31 l119 -26 61 54 c34 30 88 79 121 109 l60 56 -155 0 -155 0 -120
-69z"/>
<path d="M8023 1663 c-78 -70 -141 -129 -139 -130 5 -5 419 -94 422 -91 1 2
59 81 128 176 l125 172 -197 0 -197 0 -142 -127z"/>
<path d="M8606 1599 c-76 -104 -137 -191 -135 -193 4 -3 492 -106 518 -109 10
-1 50 76 122 238 60 132 108 243 108 248 1 4 -106 7 -237 7 l-238 0 -138 -191z"/>
<path d="M9364 1733 c-14 -32 -73 -165 -131 -296 -59 -134 -102 -242 -97 -246
13 -11 744 -164 751 -157 5 5 163 729 163 749 0 4 -149 7 -330 7 l-330 0 -26
-57z"/>
<path d="M6033 1731 c-28 -4 -54 -9 -57 -12 -3 -3 35 -23 85 -45 l91 -40 94
30 c52 17 94 33 94 36 0 10 -173 40 -216 39 -21 -1 -62 -5 -91 -8z"/>
<path d="M5499 1675 c-58 -7 -116 -15 -128 -17 -17 -2 8 -24 112 -100 l134
-97 154 50 c84 28 155 51 156 53 7 7 -275 126 -297 125 -14 -1 -73 -7 -131
-14z"/>
<path d="M6510 1592 c-77 -25 -140 -48 -140 -52 0 -6 280 -130 293 -130 6 0
259 143 276 157 9 7 -9 11 -146 40 l-143 30 -140 -45z"/>
<path d="M4898 1611 c-81 -9 -149 -19 -152 -22 -4 -4 186 -223 258 -297 l23
-24 159 52 c87 29 175 57 195 63 19 7 37 16 40 21 2 5 -63 58 -145 118 -170
124 -138 116 -378 89z"/>
<path d="M4320 1550 c-80 -10 -164 -19 -187 -19 -23 -1 -45 -6 -48 -11 -5 -8
229 -432 255 -463 8 -9 520 152 520 163 0 3 -70 83 -155 178 l-156 172 -42 -1
c-23 -1 -107 -10 -187 -19z"/>
<path d="M6998 1427 c-87 -50 -158 -94 -158 -97 0 -3 86 -43 191 -89 140 -61
195 -81 208 -75 20 10 309 266 310 275 1 7 -346 80 -374 78 -11 0 -91 -42
-177 -92z"/>
<path d="M3535 1468 c-154 -16 -281 -31 -283 -32 -2 -3 26 -91 194 -608 l45
-137 27 9 c15 5 181 59 370 120 188 61 342 114 342 118 0 4 -72 131 -159 282
l-159 275 -48 2 c-27 0 -175 -12 -329 -29z"/>
<path d="M5953 1412 c-95 -31 -173 -59 -173 -63 0 -7 315 -238 336 -246 12 -4
373 197 374 208 0 8 -338 159 -354 158 -6 -1 -89 -26 -183 -57z"/>
<path d="M7564 1248 c-93 -83 -170 -154 -172 -158 -1 -4 109 -57 244 -118
l247 -110 17 21 c77 101 302 419 298 422 -6 6 -427 95 -448 95 -10 0 -94 -68
-186 -152z"/>
<path d="M5545 1280 c-11 -5 -105 -37 -210 -71 -104 -33 -192 -63 -193 -64 -6
-6 359 -406 367 -403 29 11 461 264 461 269 0 12 -364 273 -385 275 -11 2 -29
-1 -40 -6z"/>
<path d="M8173 1003 l-193 -266 356 -159 c196 -87 358 -158 359 -158 6 0 318
710 314 714 -4 4 -625 136 -637 136 -4 0 -94 -120 -199 -267z"/>
<path d="M6462 1117 c-106 -62 -192 -116 -191 -122 2 -13 420 -316 431 -313
12 4 398 351 398 358 0 8 -412 190 -430 190 -8 -1 -102 -51 -208 -113z"/>
<path d="M4652 989 l-303 -100 18 -32 c11 -18 99 -170 197 -339 l178 -308 41
24 c23 14 174 101 335 194 162 93 294 172 294 176 0 16 -428 485 -442 485 -8
0 -151 -45 -318 -100z"/>
<path d="M7018 758 c-130 -117 -237 -217 -239 -223 -1 -5 139 -112 311 -237
l313 -227 229 316 c126 173 227 317 225 320 -7 6 -586 263 -595 263 -4 0 -114
-96 -244 -212z"/>
<path d="M5835 754 c-149 -85 -276 -159 -283 -163 -8 -5 70 -99 245 -294 142
-157 263 -286 268 -287 13 -1 574 502 574 515 0 10 -502 377 -523 383 -6 1
-133 -68 -281 -154z"/>
</g>
</svg>
