<svg version="1.0" xmlns="http://www.w3.org/2000/svg"
 width="1280.000000pt" height="1280.000000pt" viewBox="0 0 1280.000000 1280.000000"
 preserveAspectRatio="xMidYMid meet" fill="#000000" stroke="none">
<g transform="translate(0.000000,1280.000000) scale(0.100000,-0.100000)">
<path d="M6277 12367 c-3 -9 -31 -16 -78 -21 -41 -4 -78 -11 -83 -16 -6 -6
-22 -10 -37 -10 -15 0 -30 -4 -34 -9 -3 -6 -26 -13 -50 -17 -25 -3 -48 -10
-51 -15 -3 -5 -12 -9 -19 -9 -8 0 -39 -12 -70 -26 -58 -28 -55 -28 -200 -3
-88 16 -392 17 -465 2 -81 -17 -141 -33 -177 -49 -17 -8 -34 -14 -38 -14 -24
0 -269 -134 -340 -186 -19 -13 -51 -24 -85 -27 -30 -3 -111 -11 -180 -17 -69
-7 -132 -16 -142 -21 -9 -5 -30 -9 -47 -9 -16 0 -32 -4 -36 -9 -3 -6 -26 -13
-50 -17 -25 -3 -48 -10 -51 -15 -3 -5 -13 -9 -22 -9 -33 0 -222 -110 -316
-184 -22 -17 -85 -75 -141 -128 -76 -74 -108 -98 -127 -98 -15 0 -30 -4 -33
-10 -3 -5 -19 -10 -35 -10 -16 0 -31 -4 -34 -9 -4 -5 -24 -12 -47 -16 -22 -4
-53 -13 -67 -21 -15 -8 -33 -14 -40 -14 -7 0 -20 -4 -30 -9 -9 -6 -54 -28 -99
-50 -115 -57 -188 -109 -285 -204 -93 -92 -200 -228 -235 -297 -4 -8 -11 -19
-15 -25 -4 -5 -16 -20 -26 -32 -9 -11 -64 -45 -122 -74 -279 -141 -466 -326
-595 -589 -25 -52 -49 -102 -53 -110 -5 -8 -17 -43 -27 -78 -22 -70 -23 -71
-110 -139 -70 -54 -204 -187 -261 -258 -39 -48 -124 -179 -124 -190 0 -3 -11
-28 -24 -55 -14 -28 -28 -65 -32 -83 -3 -17 -10 -38 -14 -47 -21 -40 -43 -145
-62 -285 -6 -44 -13 -82 -17 -85 -11 -9 -105 -124 -129 -158 -61 -87 -84 -125
-131 -216 -28 -55 -51 -107 -51 -116 0 -9 -4 -20 -8 -25 -12 -14 -31 -81 -44
-155 -6 -36 -12 -162 -14 -280 l-4 -215 -46 -95 c-73 -150 -83 -173 -90 -205
-4 -16 -10 -34 -14 -40 -9 -12 -30 -95 -37 -148 -3 -20 -9 -40 -14 -43 -12 -7
-12 -334 0 -334 5 0 11 -21 14 -47 7 -66 26 -164 37 -188 26 -60 25 -184 -2
-211 -4 -3 -10 -33 -14 -66 -4 -32 -11 -61 -15 -64 -5 -3 -9 -25 -9 -49 0 -24
-4 -47 -10 -50 -13 -8 -14 -345 -1 -345 5 0 11 -17 14 -37 7 -53 28 -136 37
-148 4 -5 10 -22 14 -38 8 -33 43 -113 96 -222 l40 -80 3 -210 c3 -201 19
-359 38 -379 5 -6 9 -20 9 -32 0 -13 5 -26 10 -29 6 -3 10 -14 10 -24 0 -21
89 -197 129 -256 15 -22 39 -56 53 -77 24 -35 116 -148 129 -158 4 -3 11 -41
17 -85 26 -192 51 -281 130 -455 39 -88 80 -149 158 -241 78 -92 241 -241 290
-267 14 -8 29 -36 45 -84 29 -90 135 -306 186 -378 112 -159 307 -318 508
-415 76 -37 125 -72 125 -91 0 -7 4 -14 9 -14 5 0 12 -8 15 -17 23 -64 178
-254 286 -349 55 -49 143 -114 154 -114 4 0 23 -11 44 -23 20 -13 75 -39 122
-57 47 -18 92 -36 100 -40 9 -4 31 -11 50 -15 19 -4 40 -11 45 -15 6 -4 24
-10 40 -13 81 -15 93 -23 175 -101 47 -45 108 -100 135 -123 111 -89 299 -203
337 -203 9 0 19 -4 22 -9 4 -5 25 -12 48 -16 23 -4 49 -11 58 -15 32 -16 116
-31 228 -40 215 -19 232 -23 289 -63 29 -20 57 -37 62 -37 5 0 14 -6 20 -14
18 -21 238 -126 265 -126 8 0 17 -4 20 -9 4 -5 25 -12 48 -16 23 -4 49 -11 58
-15 60 -32 364 -37 515 -10 126 23 143 23 189 1 24 -11 56 -23 70 -27 14 -3
29 -10 31 -15 3 -4 26 -11 50 -15 25 -3 48 -10 51 -15 3 -5 18 -9 33 -9 15 0
31 -4 37 -10 5 -5 45 -13 88 -16 51 -5 80 -12 83 -21 7 -19 229 -19 236 0 3 9
30 16 72 20 64 6 120 20 156 38 9 4 34 11 55 15 22 3 44 10 49 14 6 4 21 11
35 15 14 4 44 16 67 27 45 21 48 21 188 -3 88 -16 392 -17 465 -2 81 17 141
33 177 49 17 8 34 14 39 14 18 0 216 107 293 158 l84 56 166 13 c91 7 182 17
201 22 19 5 59 17 89 25 29 9 62 16 72 16 10 0 21 5 24 10 3 6 14 10 23 10 68
0 353 201 502 354 40 41 62 56 82 56 15 0 30 5 33 10 3 6 17 10 31 10 13 0 32
4 42 9 9 5 51 20 92 32 84 26 250 105 325 156 115 78 354 345 381 426 4 9 10
17 14 17 4 0 12 11 18 25 8 16 42 40 104 71 109 55 177 97 273 169 70 53 186
167 218 215 68 100 90 137 132 221 25 51 49 101 53 109 5 8 17 43 27 78 22 71
16 64 147 172 157 130 308 318 362 450 10 25 21 52 25 60 4 8 16 42 25 75 10
33 22 69 27 80 10 23 26 108 41 220 9 71 14 84 47 120 47 52 139 176 176 240
50 86 105 199 105 217 0 9 5 20 10 23 6 3 10 16 10 29 0 12 4 26 9 32 19 20
35 178 38 379 l3 210 40 80 c53 109 88 189 96 222 4 16 10 33 14 38 5 6 11 31
15 58 4 26 11 50 16 53 5 3 9 20 9 39 0 19 5 37 10 40 13 8 14 317 1 331 -5 5
-11 29 -14 54 -8 65 -27 162 -37 185 -20 49 -28 106 -18 147 5 24 14 52 18 63
11 24 30 123 37 188 3 26 9 47 14 47 5 0 9 75 9 170 0 94 -4 170 -9 170 -5 0
-11 17 -14 38 -6 45 -24 119 -36 147 -4 11 -23 58 -41 105 -19 47 -50 114 -69
150 l-36 65 -6 220 c-5 213 -22 370 -40 390 -5 5 -9 19 -9 31 0 13 -4 26 -10
29 -5 3 -10 14 -10 24 0 26 -93 202 -153 290 -45 66 -139 186 -158 201 -4 3
-11 41 -17 85 -21 156 -45 253 -92 370 -35 88 -50 119 -87 180 -77 125 -188
244 -368 393 -53 44 -62 57 -80 113 -10 35 -22 71 -27 79 -4 8 -27 56 -52 106
-39 81 -61 117 -133 224 -38 57 -174 186 -258 245 -49 34 -139 88 -200 120
-108 56 -144 85 -168 135 -42 84 -166 234 -287 346 -74 68 -127 104 -235 156
-22 11 -57 28 -78 39 -22 10 -44 19 -50 19 -7 0 -24 6 -38 14 -14 7 -43 16
-65 20 -21 5 -43 11 -49 16 -5 4 -23 10 -40 13 -81 15 -94 23 -186 111 -52 50
-113 105 -135 122 -109 86 -291 194 -326 194 -9 0 -19 4 -22 9 -4 5 -25 12
-48 16 -23 4 -49 11 -58 15 -32 16 -117 31 -233 40 -192 16 -235 24 -260 48
-13 12 -26 22 -29 22 -4 0 -33 17 -65 38 -32 20 -74 45 -93 54 -114 54 -170
78 -183 78 -9 0 -18 4 -21 9 -4 5 -25 12 -48 16 -23 4 -49 11 -58 15 -60 32
-358 37 -520 10 -139 -23 -139 -23 -184 -2 -24 12 -56 24 -70 28 -14 3 -29 10
-31 15 -3 4 -26 11 -50 15 -25 3 -48 10 -51 15 -3 5 -18 9 -33 9 -15 0 -31 4
-37 10 -5 5 -45 13 -88 16 -51 5 -80 12 -83 21 -7 19 -229 19 -236 0z"/>
</g>
</svg>
