<svg version="1.0" xmlns="http://www.w3.org/2000/svg"
 width="1280.000000pt" height="1280.000000pt" viewBox="0 0 1280.000000 1280.000000"
 preserveAspectRatio="xMidYMid meet" fill="#000000" stroke="none">
<g transform="translate(0.000000,1280.000000) scale(0.100000,-0.100000)">
<path d="M5997 12789 c-1141 -62 -2188 -422 -3207 -1102 -350 -234 -620 -456
-921 -756 -360 -361 -639 -717 -917 -1173 -650 -1066 -952 -2129 -952 -3358 0
-1300 337 -2416 1068 -3540 509 -783 1147 -1401 1958 -1898 1076 -659 2138
-962 3374 -962 1301 0 2415 336 3540 1068 948 617 1664 1432 2204 2510 374
746 562 1424 638 2292 16 191 16 869 0 1060 -76 867 -265 1547 -638 2292 -533
1065 -1232 1867 -2164 2483 -1147 757 -2282 1101 -3610 1093 -124 0 -292 -5
-373 -9z"/>
</g>
</svg>
