<svg version="1.0" xmlns="http://www.w3.org/2000/svg" width="1270.000000pt" height="1280.000000pt" viewBox="0 0 1270.000000 1280.000000" preserveAspectRatio="xMidYMid meet" fill="#000000" stroke="none">
<g transform="translate(0.000000,1280.000000) scale(0.100000,-0.100000)">
<path d="M5730 12794 c-25 -3 -112 -18 -195 -34 -222 -44 -339 -60 -450 -61 -55 0 -116 -6 -135 -12 -30 -11 -35 -16 -32 -41 3 -28 3 -28 -40 -21 -105 17 -188 0 -188 -38 0 -14 -176 -48 -264 -51 -37 -1 -52 -7 -67 -25 -11 -13 -29 -25 -42 -26 -12 -2 -40 -9 -62 -17 -94 -35 -101 -36 -135 -22 -50 22 -72 19 -65 -9 5 -19 -1 -26 -39 -44 -25 -13 -83 -32 -128 -43 -111 -28 -135 -37 -190 -78 -27 -18 -117 -65 -200 -104 -84 -39 -177 -88 -206 -110 -29 -22 -68 -46 -85 -53 -18 -7 -40 -22 -50 -33 -10 -11 -39 -25 -65 -32 -70 -19 -99 -37 -114 -67 -9 -19 -36 -39 -84 -63 -40 -20 -84 -51 -99 -69 -16 -18 -69 -60 -118 -93 -50 -34 -118 -86 -151 -117 -34 -31 -83 -74 -111 -96 -27 -21 -63 -51 -80 -66 -16 -15 -71 -52 -121 -82 -50 -30 -123 -86 -163 -125 -72 -70 -73 -70 -49 -83 l23 -13 -30 -7 c-16 -4 -49 -7 -73 -8 -38 -1 -45 -5 -60 -33 -9 -18 -58 -73 -109 -123 -50 -49 -115 -119 -143 -155 -29 -36 -90 -103 -136 -150 -55 -57 -87 -98 -96 -125 -10 -31 -26 -48 -71 -78 -69 -46 -88 -78 -63 -106 15 -17 15 -19 1 -25 -9 -3 -24 -6 -33 -6 -21 -1 -67 -62 -118 -155 -21 -38 -74 -117 -117 -175 -44 -58 -94 -135 -113 -173 -19 -37 -50 -92 -70 -123 -19 -30 -46 -84 -60 -120 -13 -36 -46 -98 -72 -137 -55 -81 -211 -396 -249 -502 -14 -38 -50 -118 -79 -176 -29 -59 -62 -135 -74 -169 -12 -35 -37 -94 -56 -131 -19 -38 -34 -82 -34 -98 0 -16 -5 -42 -10 -56 -16 -42 4 -69 46 -62 19 3 34 2 34 -3 0 -9 -14 -14 -67 -25 -17 -3 -36 -12 -41 -18 -23 -29 -64 -271 -55 -320 3 -14 -3 -49 -12 -77 l-17 -51 28 -41 28 -40 -26 -23 c-32 -28 -50 -59 -43 -78 3 -7 23 -22 43 -32 31 -15 34 -19 17 -23 -39 -8 -55 -33 -54 -81 1 -25 -6 -93 -15 -151 -15 -88 -17 -148 -12 -365 3 -143 8 -293 12 -332 5 -52 3 -82 -7 -105 -9 -22 -14 -73 -14 -148 0 -99 3 -118 19 -134 15 -15 17 -26 11 -60 -26 -156 -24 -231 11 -338 14 -44 14 -52 -1 -99 -14 -40 -15 -56 -6 -78 9 -19 9 -40 2 -72 -15 -62 -13 -85 6 -104 12 -13 16 -32 14 -73 -1 -32 5 -83 14 -115 8 -32 15 -72 15 -89 0 -19 13 -48 35 -79 31 -42 36 -56 39 -116 3 -82 26 -130 69 -148 31 -13 31 -13 7 -17 -37 -5 -37 -45 -1 -114 19 -37 27 -63 22 -72 -5 -8 -3 -26 5 -41 7 -15 20 -58 28 -96 8 -39 26 -97 40 -130 13 -33 32 -89 41 -125 51 -204 165 -473 241 -572 25 -31 52 -74 60 -95 9 -21 38 -85 66 -143 28 -58 61 -131 73 -162 13 -32 54 -108 93 -170 38 -62 83 -139 101 -170 18 -32 36 -60 41 -63 6 -3 29 -36 53 -73 25 -37 88 -114 142 -172 53 -58 117 -132 142 -165 25 -33 100 -114 167 -180 67 -66 165 -169 217 -229 135 -156 143 -164 175 -172 17 -4 51 -31 82 -65 35 -39 73 -68 115 -87 67 -32 86 -50 139 -129 85 -129 434 -411 628 -508 52 -26 108 -58 125 -70 30 -23 305 -176 337 -188 10 -3 51 -28 90 -55 106 -71 330 -163 443 -182 70 -11 92 -22 158 -74 73 -57 126 -77 362 -136 105 -26 215 -55 245 -64 30 -9 105 -20 165 -25 61 -6 157 -21 215 -35 58 -14 164 -37 235 -51 72 -14 159 -32 195 -40 36 -8 115 -17 175 -20 61 -4 151 -13 200 -20 289 -44 340 -47 561 -30 114 9 211 18 214 20 10 6 290 33 470 45 160 11 314 35 414 65 27 8 90 20 140 26 59 7 121 22 176 44 47 19 137 52 200 73 116 39 374 143 446 180 21 11 85 29 141 40 56 12 128 34 160 51 32 16 101 38 153 49 84 18 128 38 375 164 154 79 318 171 365 204 47 33 101 70 121 82 19 12 44 31 55 43 10 12 46 35 79 51 79 40 170 106 225 163 25 26 90 78 145 115 119 81 304 249 375 342 28 36 75 82 104 101 29 20 93 74 143 120 87 84 95 96 148 224 16 38 20 41 49 36 44 -7 85 30 119 105 20 45 44 74 104 127 43 37 96 93 119 124 22 31 58 71 78 89 44 38 83 89 161 205 78 115 171 246 193 271 10 12 30 42 44 68 14 26 56 84 92 130 80 100 120 191 247 558 12 36 32 90 45 120 12 30 25 84 29 120 4 36 18 108 31 160 13 52 24 102 24 112 0 10 17 36 37 59 44 49 80 168 60 200 -9 14 -8 27 1 54 24 64 92 349 92 384 0 70 24 166 47 195 21 25 24 38 22 105 -1 42 3 89 10 104 16 42 14 98 -9 181 -21 75 -21 75 -2 218 13 95 16 149 10 161 -6 13 -3 38 13 84 18 54 20 72 11 96 -6 16 -9 34 -6 41 2 6 -2 41 -9 77 -11 52 -11 71 -1 99 9 26 11 98 7 270 -5 241 -20 359 -48 390 -19 21 -19 33 1 72 15 29 15 34 -1 60 -9 16 -20 55 -25 86 -33 223 -52 331 -71 413 -12 52 -27 128 -35 169 -13 74 -98 390 -136 505 -11 33 -26 94 -35 135 -8 41 -27 113 -42 160 -88 263 -88 263 -206 560 -23 58 -59 153 -79 212 -28 79 -52 125 -91 178 -30 40 -57 85 -60 101 -4 16 -12 29 -19 29 -22 0 -47 36 -60 86 -7 27 -33 78 -58 114 -24 36 -66 101 -92 145 -25 44 -67 102 -91 130 -44 48 -46 49 -97 48 -51 -2 -52 -1 -30 14 30 21 28 42 -10 94 -62 86 -228 278 -280 323 -29 25 -87 76 -128 112 -41 36 -94 75 -118 87 -32 16 -61 45 -107 108 -62 85 -82 103 -290 259 -40 30 -97 74 -127 97 -138 109 -191 148 -293 217 -60 40 -145 102 -188 138 -72 60 -148 109 -367 233 -47 26 -93 53 -104 59 -14 8 -20 8 -23 -1 -8 -22 -28 -14 -68 28 -22 22 -74 58 -116 79 -41 21 -81 45 -88 54 -21 26 -224 135 -297 160 -38 13 -89 33 -114 43 -74 33 -349 123 -373 123 -12 0 -34 -6 -49 -14 -24 -13 -27 -12 -32 8 -7 27 -26 38 -139 76 -154 51 -373 84 -662 100 -82 5 -163 14 -180 21 -23 9 -208 12 -755 14 -399 2 -745 1 -770 -1z m184 -50 c9 -3 16 -10 16 -15 0 -11 -81 0 -94 12 -11 10 54 12 78 3z m1156 -23 c74 -12 191 -33 260 -46 155 -30 278 -49 307 -48 12 1 40 15 62 32 37 30 81 41 81 22 0 -5 -9 -12 -19 -16 -23 -7 -32 -27 -22 -44 5 -7 39 -16 77 -21 68 -9 230 -42 289 -59 17 -5 80 -30 140 -56 61 -25 173 -71 250 -101 77 -31 201 -86 275 -124 74 -37 146 -71 160 -75 37 -11 212 -100 316 -161 50 -29 112 -58 139 -64 60 -13 79 -23 135 -70 25 -20 86 -61 135 -91 98 -59 383 -268 455 -334 25 -23 99 -84 165 -137 66 -53 145 -120 175 -150 30 -30 89 -80 131 -111 113 -82 415 -416 636 -702 51 -66 114 -145 139 -175 26 -30 56 -75 67 -100 23 -51 71 -118 172 -240 157 -188 290 -409 382 -634 101 -247 122 -311 129 -389 5 -66 28 -141 84 -277 27 -65 38 -106 49 -185 17 -119 70 -333 96 -390 16 -34 29 -85 36 -141 5 -48 23 -141 40 -207 16 -65 34 -167 40 -226 6 -58 19 -140 30 -182 10 -42 19 -97 19 -122 0 -25 7 -79 16 -119 10 -42 18 -131 19 -208 2 -81 10 -164 20 -208 14 -61 15 -83 5 -140 -13 -81 -3 -117 37 -133 l28 -11 -23 -9 c-33 -13 -51 -66 -63 -186 -8 -89 -7 -113 5 -144 14 -34 14 -50 1 -141 -8 -57 -15 -147 -15 -200 0 -80 -5 -110 -25 -165 -26 -68 -59 -268 -70 -423 -9 -121 -23 -186 -55 -260 -31 -73 -136 -355 -185 -500 -18 -52 -46 -124 -63 -160 -86 -187 -152 -343 -165 -393 -18 -67 -148 -286 -251 -424 -41 -54 -111 -158 -155 -231 -45 -73 -115 -173 -156 -223 -42 -50 -95 -120 -120 -157 -53 -79 -514 -559 -701 -730 -73 -66 -165 -144 -205 -174 -41 -30 -101 -79 -135 -109 -85 -76 -210 -177 -272 -221 -29 -21 -79 -60 -111 -86 -51 -43 -188 -119 -416 -230 -38 -19 -108 -60 -155 -92 -47 -31 -123 -76 -170 -99 -115 -58 -419 -180 -503 -202 -44 -11 -96 -35 -145 -67 -55 -36 -110 -61 -191 -86 -63 -20 -120 -36 -127 -36 -6 0 -52 -16 -102 -35 -92 -35 -225 -68 -322 -80 -79 -9 -364 -54 -440 -70 -36 -7 -96 -16 -135 -20 -38 -4 -115 -15 -170 -26 -148 -28 -353 -39 -710 -39 -275 0 -365 4 -640 30 -176 16 -358 36 -405 44 -47 8 -141 22 -209 31 -88 11 -165 29 -260 60 -74 25 -148 45 -163 45 -16 0 -68 15 -117 34 -48 19 -117 41 -152 50 -86 22 -399 151 -476 197 -34 21 -88 47 -120 59 -61 23 -440 216 -508 258 -22 14 -74 41 -115 60 -93 42 -239 125 -305 173 -27 20 -77 51 -110 69 -60 34 -142 114 -138 135 2 6 -16 15 -39 21 -33 7 -48 17 -65 44 -43 68 -67 93 -158 161 -66 50 -104 87 -137 136 -47 68 -89 103 -126 103 -11 0 -28 12 -38 27 -33 52 -149 187 -250 293 -55 58 -123 132 -150 165 -176 210 -434 599 -572 860 -52 99 -113 209 -136 245 -43 68 -171 322 -202 400 -10 25 -42 86 -73 135 -85 139 -92 157 -113 288 -15 90 -25 125 -39 135 -9 6 -20 26 -24 42 -4 17 -11 30 -16 30 -5 0 -9 22 -9 49 0 27 -10 80 -21 117 -12 38 -27 97 -35 131 -7 34 -29 99 -48 144 -20 46 -36 99 -36 118 0 50 -18 160 -32 196 -6 17 -25 49 -40 73 -29 42 -30 62 -2 62 11 0 12 4 5 19 -7 12 -7 30 -1 52 14 49 12 137 -6 279 -14 108 -20 129 -42 153 -25 26 -25 28 -7 40 16 13 17 23 9 118 -13 145 -11 341 6 644 8 143 14 323 12 399 -2 90 1 150 9 168 15 36 6 70 -32 113 -27 30 -29 35 -12 35 43 0 87 80 51 92 -8 3 -3 16 14 39 46 62 63 156 36 199 -10 16 -9 24 10 50 13 17 20 35 17 40 -3 5 3 18 14 29 11 11 22 40 26 72 9 72 30 175 58 281 18 68 31 95 61 128 22 25 35 48 32 57 -9 21 51 184 90 244 18 28 45 86 60 128 37 102 85 202 134 280 22 36 40 74 40 85 0 12 18 46 40 76 36 51 80 133 80 150 0 4 14 23 32 41 17 19 48 66 68 104 125 240 402 636 545 780 49 49 109 118 133 151 48 68 543 557 607 599 22 15 63 48 90 74 28 26 73 65 100 86 28 21 88 71 134 109 46 39 123 96 171 126 49 30 126 80 172 112 45 31 123 78 171 104 49 27 106 63 127 82 22 18 65 44 97 58 32 14 148 71 258 126 110 55 223 108 250 118 67 24 224 98 255 120 14 10 59 31 99 47 46 17 81 38 94 55 23 31 16 53 -14 37 -11 -5 -28 -8 -37 -6 -13 3 -11 7 11 17 23 11 39 12 88 1 57 -11 62 -11 126 18 38 16 86 32 108 36 22 4 90 20 150 36 61 15 191 45 290 64 264 53 493 105 522 118 18 8 23 17 20 34 -5 27 13 31 29 6 10 -16 29 -18 180 -16 106 1 201 7 254 17 52 10 192 20 360 26 151 5 300 11 330 13 107 7 216 0 350 -22z m-1340 -1 c0 -5 -11 -10 -25 -10 -14 0 -25 5 -25 10 0 6 11 10 25 10 14 0 25 -4 25 -10z m1884 -9 c8 -12 -56 -23 -79 -14 -18 6 -18 7 1 14 27 11 72 11 78 0z m516 -106 c36 -19 42 -51 8 -40 -13 3 -28 7 -35 7 -14 2 -25 26 -17 39 7 12 10 12 44 -6z m-3690 -130 c17 -9 30 -22 30 -30 0 -23 -16 -18 -52 15 -36 32 -25 39 22 15z m4275 -115 c4 -6 -7 -10 -24 -10 -17 0 -31 5 -31 10 0 6 11 10 24 10 14 0 28 -4 31 -10z m-4535 -26 c0 -8 -4 -12 -10 -9 -5 3 -10 10 -10 16 0 5 5 9 10 9 6 0 10 -7 10 -16z m-324 -99 c4 -14 3 -29 0 -33 -9 -8 -26 18 -26 41 0 26 19 20 26 -8z m5174 10 c0 -9 -6 -12 -15 -9 -8 4 -15 10 -15 15 0 5 7 9 15 9 8 0 15 -7 15 -15z m-5310 -124 c0 -6 -4 -13 -10 -16 -5 -3 -10 1 -10 9 0 9 5 16 10 16 6 0 10 -4 10 -9z m5575 -51 c3 -6 -1 -13 -10 -16 -19 -8 -30 0 -20 15 8 14 22 14 30 1z m-5946 -41 c-16 -10 -23 -4 -14 10 3 6 11 8 17 5 6 -4 5 -9 -3 -15z m132 11 c5 0 9 -4 9 -10 0 -5 -10 -10 -22 -10 -13 0 -38 -9 -55 -20 -18 -11 -33 -16 -33 -11 0 17 63 62 77 57 8 -4 19 -6 24 -6z m-131 -95 c11 -13 7 -15 -24 -15 -35 0 -49 13 -23 23 22 9 34 7 47 -8z m6270 -45 c12 -8 11 -10 -7 -10 -12 0 -25 5 -28 10 -8 13 15 13 35 0z m-6420 -70 c0 -5 -5 -10 -11 -10 -5 0 -7 5 -4 10 3 6 8 10 11 10 2 0 4 -4 4 -10z m7375 -630 c3 -5 -1 -10 -9 -10 -9 0 -16 5 -16 10 0 6 4 10 9 10 6 0 13 -4 16 -10z m-8755 -350 c0 -5 -4 -10 -10 -10 -5 0 -10 5 -10 10 0 6 5 10 10 10 6 0 10 -4 10 -10z m-66 -125 c-4 -8 -8 -15 -10 -15 -2 0 -4 7 -4 15 0 8 4 15 10 15 5 0 7 -7 4 -15z m-866 -1126 c-2 -6 -8 -10 -13 -10 -5 0 -11 4 -13 10 -2 6 4 11 13 11 9 0 15 -5 13 -11z m-223 -439 c-3 -5 -11 -10 -16 -10 -6 0 -7 5 -4 10 3 6 11 10 16 10 6 0 7 -4 4 -10z m-195 -300 c0 -5 -4 -10 -10 -10 -5 0 -10 5 -10 10 0 6 5 10 10 10 6 0 10 -4 10 -10z m-2 -162 c-5 -15 -48 -24 -48 -10 0 14 12 22 33 22 10 0 17 -5 15 -12z m-221 -630 c27 -25 29 -38 6 -38 -17 0 -63 37 -63 52 0 16 34 8 57 -14z m-57 -98 c12 -8 9 -10 -12 -10 -16 0 -28 5 -28 10 0 13 20 13 40 0z m-4 -55 c18 -15 18 -15 -5 -13 -14 2 -26 9 -29 16 -5 17 10 15 34 -3z m24 -114 c7 -14 7 -22 -1 -27 -12 -7 -29 12 -29 34 0 19 18 14 30 -7z m-35 -140 c-6 -5 -21 -12 -35 -15 -24 -7 -24 -6 -6 8 21 17 57 23 41 7z m-67 -270 c3 -8 -1 -12 -9 -9 -7 2 -15 10 -17 17 -3 8 1 12 9 9 7 -2 15 -10 17 -17z m12467 -131 c3 -5 1 -10 -4 -10 -6 0 -11 5 -11 10 0 6 2 10 4 10 3 0 8 -4 11 -10z m-12425 -1874 c0 -3 -4 -8 -10 -11 -5 -3 -10 -1 -10 4 0 6 5 11 10 11 6 0 10 -2 10 -4z m10990 -3030 c0 -8 -7 -17 -16 -20 -21 -8 -26 -3 -18 18 8 20 34 21 34 2z"/>
<path d="M6060 12376 l-45 -11 60 -3 c75 -4 135 6 114 19 -18 11 -73 10 -129 -5z"/>
<path d="M6295 12371 c-30 -12 74 -25 127 -16 35 6 39 9 23 16 -26 10 -124 10 -150 0z"/>
<path d="M5705 12340 c-77 -16 -158 -29 -181 -29 -63 -1 -414 -92 -647 -167 -59 -20 -167 -50 -240 -69 -72 -18 -188 -53 -257 -78 -69 -25 -145 -52 -170 -60 -51 -17 -291 -120 -332 -142 -15 -9 -58 -27 -95 -41 -65 -24 -255 -126 -413 -222 -41 -24 -102 -60 -135 -79 -64 -36 -129 -93 -107 -93 12 0 431 220 457 239 13 10 187 86 343 151 67 27 175 72 240 99 64 26 182 69 262 95 80 26 180 61 223 77 42 16 144 48 225 70 81 22 194 55 252 74 58 19 150 41 205 50 108 18 496 100 559 118 22 7 41 18 44 25 6 20 -77 13 -233 -18z"/>
<path d="M6770 12351 c0 -6 4 -12 9 -15 13 -8 42 4 35 15 -7 12 -44 12 -44 0z"/>
<path d="M6915 12340 c3 -5 18 -10 33 -10 15 0 63 -7 107 -16 102 -19 272 -33 305 -24 23 6 21 8 -25 23 -82 28 -434 50 -420 27z"/>
<path d="M7460 12282 c0 -11 24 -17 215 -52 267 -50 411 -85 565 -136 384 -127 491 -159 511 -151 23 8 -104 61 -281 117 -90 29 -210 72 -267 96 -78 33 -135 49 -245 68 -324 57 -498 77 -498 58z"/>
<path d="M6430 12140 c-664 -57 -870 -91 -1205 -199 -66 -22 -174 -53 -240 -70 -66 -17 -212 -60 -325 -96 -113 -37 -257 -80 -320 -96 -77 -20 -138 -43 -185 -70 -38 -22 -96 -49 -129 -60 -80 -27 -238 -108 -332 -169 -43 -28 -118 -70 -168 -94 -80 -39 -210 -123 -331 -216 -22 -16 -64 -45 -94 -63 -66 -39 -75 -57 -31 -57 34 0 131 54 183 102 16 14 77 52 136 84 58 32 146 82 195 111 48 30 134 77 190 105 55 28 113 59 129 70 137 97 687 299 1057 389 41 10 224 58 405 107 413 113 516 133 814 162 242 23 1025 4 1153 -28 36 -9 48 -7 48 9 0 11 -147 47 -241 59 -81 10 -529 31 -594 28 -16 -1 -68 -4 -115 -8z"/>
<path d="M7550 12031 c0 -10 -1 -10 107 -37 70 -17 98 -15 77 6 -6 6 -45 17 -88 25 -91 18 -96 18 -96 6z"/>
<path d="M8887 11894 c-15 -15 16 -43 70 -64 100 -40 170 -78 225 -123 82 -66 141 -105 194 -126 60 -23 346 -187 429 -245 33 -24 68 -45 78 -49 33 -12 17 14 -30 46 -26 17 -69 50 -97 72 -28 22 -87 63 -131 90 -44 27 -107 70 -140 95 -33 25 -125 78 -205 118 -80 41 -163 84 -185 98 -22 13 -71 36 -110 50 -38 15 -75 31 -81 35 -6 5 -14 6 -17 3z"/>
<path d="M8125 11872 c14 -15 143 -65 249 -96 236 -72 624 -262 880 -431 96 -63 202 -129 236 -146 62 -33 116 -86 126 -125 3 -12 24 -32 47 -44 41 -23 112 -79 382 -300 308 -252 460 -422 990 -1107 79 -103 228 -350 255 -425 12 -35 42 -99 66 -143 54 -100 107 -225 123 -289 6 -26 30 -83 51 -127 42 -83 50 -132 24 -147 -13 -7 -11 -11 14 -21 34 -14 41 -27 94 -180 21 -63 52 -139 68 -170 16 -31 37 -87 46 -126 9 -38 23 -82 30 -96 8 -15 11 -41 8 -61 -4 -21 2 -64 15 -109 11 -41 25 -117 31 -169 6 -52 26 -194 45 -315 18 -121 38 -260 44 -310 33 -275 41 -865 16 -1185 -17 -222 -20 -236 -85 -530 -50 -223 -86 -339 -125 -400 -13 -20 -44 -103 -70 -186 -52 -165 -205 -556 -262 -667 -47 -95 -116 -215 -172 -303 -25 -40 -66 -109 -91 -154 -82 -150 -245 -387 -321 -465 -31 -33 -82 -98 -112 -145 -38 -60 -75 -102 -124 -142 -38 -32 -117 -106 -175 -166 -58 -60 -134 -130 -169 -155 -35 -25 -88 -75 -117 -110 -75 -94 -272 -256 -368 -305 -22 -11 -47 -28 -55 -38 -8 -10 -57 -45 -109 -79 -52 -34 -106 -75 -120 -90 -14 -15 -57 -45 -96 -66 -39 -22 -79 -48 -89 -59 -9 -10 -30 -22 -46 -25 -16 -4 -56 -27 -90 -52 -42 -30 -100 -59 -182 -88 -66 -24 -144 -60 -174 -81 -52 -36 -132 -68 -398 -162 -71 -25 -132 -50 -134 -55 -11 -28 -44 -47 -82 -47 -22 0 -50 -5 -62 -12 -12 -6 -55 -17 -96 -25 -72 -12 -118 -33 -76 -33 17 0 18 -2 5 -10 -8 -5 -32 -10 -52 -10 -21 0 -79 -13 -130 -29 -51 -16 -122 -31 -158 -34 -36 -3 -99 -13 -140 -21 -107 -22 -320 -55 -424 -66 -48 -5 -161 -23 -250 -39 -308 -57 -362 -64 -423 -57 -32 4 -186 11 -343 16 -161 5 -322 16 -370 24 -246 42 -337 61 -460 93 -74 19 -162 41 -195 48 -33 8 -93 25 -134 39 -41 14 -84 26 -96 26 -12 0 -47 15 -78 34 -47 28 -66 34 -109 34 -43 -1 -71 7 -148 44 -62 30 -121 50 -170 58 -115 18 -191 39 -235 64 -22 13 -94 54 -160 91 -66 37 -138 80 -160 95 -22 14 -74 46 -115 69 -144 81 -302 188 -388 262 -48 40 -123 103 -167 138 -44 35 -98 80 -120 101 -22 20 -76 63 -120 96 -115 84 -203 173 -211 210 -5 25 -11 32 -32 32 -28 0 -127 99 -224 225 -28 37 -55 67 -59 67 -13 0 -205 225 -244 285 -21 33 -61 87 -90 120 -29 33 -60 76 -70 95 -10 19 -35 57 -55 85 -21 27 -46 66 -55 85 -26 51 -170 235 -200 254 -14 9 -25 25 -25 35 0 10 -29 55 -65 101 -70 88 -108 149 -120 190 -4 14 -47 112 -96 218 -49 105 -89 195 -89 198 0 4 -18 33 -40 66 -37 56 -79 147 -135 295 -13 35 -42 97 -65 139 -22 43 -46 100 -51 128 -6 28 -20 80 -30 116 -11 36 -23 88 -28 115 -5 28 -16 75 -25 106 -9 30 -24 129 -35 220 -14 123 -24 176 -42 212 -19 39 -21 51 -12 67 9 13 12 135 13 432 1 227 2 455 3 507 1 63 -2 95 -9 98 -20 7 -34 -56 -34 -146 0 -47 -7 -129 -14 -181 -18 -119 -38 -388 -37 -498 1 -46 9 -136 18 -200 9 -64 16 -139 15 -166 -1 -28 7 -95 18 -150 60 -310 93 -432 167 -612 18 -45 57 -151 87 -235 89 -254 135 -368 196 -489 32 -63 76 -153 97 -200 63 -136 263 -476 337 -570 23 -30 59 -80 79 -110 116 -178 265 -368 387 -495 37 -38 101 -113 142 -165 41 -52 83 -102 93 -110 9 -8 44 -47 77 -87 33 -41 92 -99 131 -130 40 -32 126 -109 192 -173 66 -63 169 -155 229 -205 59 -49 125 -106 145 -126 20 -20 88 -71 151 -113 108 -71 148 -101 260 -195 25 -20 75 -51 111 -68 37 -17 114 -62 170 -100 154 -103 371 -214 584 -299 75 -29 398 -113 485 -125 36 -5 94 -14 130 -20 36 -5 131 -18 211 -29 80 -11 206 -35 280 -53 212 -53 276 -66 399 -77 132 -13 590 -7 755 9 61 6 215 18 344 26 253 17 418 37 521 65 36 10 187 49 335 88 149 39 289 77 313 86 23 8 75 22 115 31 200 42 249 56 298 84 30 16 117 57 194 89 179 77 579 285 695 363 30 20 91 56 135 80 44 23 98 57 120 75 22 17 81 60 130 95 97 68 223 174 268 226 15 17 69 59 120 94 86 59 181 145 273 249 22 25 51 53 65 62 14 9 31 30 37 47 7 17 17 44 22 59 7 18 26 35 53 47 25 12 54 38 72 62 16 24 45 62 62 85 94 124 189 261 226 326 23 40 61 96 84 124 23 27 65 96 95 151 29 56 76 134 104 173 28 40 64 98 78 130 15 33 54 107 87 165 33 59 73 142 88 185 31 83 54 137 86 194 10 19 33 82 51 140 18 58 53 164 79 235 25 72 55 155 64 185 10 30 35 94 55 142 25 61 40 118 51 195 8 59 24 135 35 168 29 86 83 415 86 515 1 84 29 379 40 433 4 19 0 35 -12 48 -15 17 -15 23 -4 44 10 19 11 53 4 152 -8 131 -9 168 -5 285 2 46 -2 73 -13 90 -14 22 -29 142 -56 453 -5 55 -20 152 -33 215 -14 63 -30 158 -37 210 -15 121 -102 399 -182 580 -33 74 -71 171 -85 215 -14 44 -33 96 -44 115 -10 19 -29 62 -43 95 -42 103 -214 464 -255 533 -21 37 -68 124 -105 194 -36 69 -87 155 -113 190 -117 160 -163 217 -225 284 -37 40 -79 91 -93 115 -33 51 -302 344 -493 535 -176 178 -406 383 -531 476 -53 39 -122 91 -154 115 -32 25 -72 49 -90 54 -18 5 -57 29 -87 54 -74 62 -176 131 -286 193 -50 28 -98 60 -107 70 -33 37 -352 174 -517 222 -52 15 -144 44 -205 63 -124 39 -196 54 -180 39z"/>
<path d="M10020 11195 c0 -25 41 -72 94 -108 63 -42 186 -147 394 -337 111 -101 127 -113 143 -108 16 5 -49 80 -131 149 -41 35 -125 111 -186 170 -61 58 -135 125 -164 148 -52 41 -150 97 -150 86z"/>
<path d="M2750 11134 c-47 -31 -132 -96 -190 -143 -58 -48 -169 -136 -247 -194 -79 -60 -165 -135 -195 -170 -29 -34 -102 -116 -163 -182 -161 -176 -194 -216 -288 -360 -46 -71 -128 -186 -181 -254 -53 -68 -117 -158 -142 -200 -25 -42 -90 -150 -145 -241 -128 -214 -385 -725 -444 -885 -14 -38 -39 -90 -56 -116 -16 -26 -40 -88 -54 -140 -13 -52 -40 -141 -59 -199 -39 -116 -73 -242 -141 -520 -34 -141 -47 -219 -55 -325 -11 -148 -26 -321 -40 -445 -11 -89 -13 -561 -4 -649 6 -49 10 -61 24 -61 32 0 39 49 33 227 -4 131 0 213 16 376 12 114 21 229 20 255 -1 26 8 74 19 109 26 74 45 182 67 368 31 273 54 431 70 475 9 25 30 101 47 169 28 116 76 249 98 276 6 7 20 41 31 76 11 35 36 93 53 129 18 36 36 77 39 91 9 38 95 189 221 394 62 99 141 236 175 305 35 69 90 163 123 210 110 159 185 275 211 325 14 28 52 85 86 129 34 43 71 95 83 115 45 75 256 331 367 445 64 65 151 145 193 177 42 32 95 81 118 108 23 27 70 71 103 98 34 26 82 66 107 89 25 23 87 69 138 103 50 34 92 68 92 76 0 29 -47 14 -130 -41z"/>
<path d="M2960 10900 c-14 -11 -74 -51 -135 -89 -60 -38 -121 -81 -134 -94 -42 -46 5 -66 56 -23 15 12 48 36 73 51 51 32 203 154 208 167 7 16 -43 7 -68 -12z"/>
<path d="M2529 10595 c-141 -111 -290 -249 -401 -372 -137 -153 -264 -307 -284 -344 -8 -17 -56 -86 -105 -155 -50 -69 -116 -173 -148 -232 -32 -59 -83 -147 -113 -197 -31 -49 -79 -135 -107 -190 -28 -55 -65 -125 -81 -155 -33 -60 -46 -110 -36 -137 11 -28 50 27 120 172 34 72 86 165 114 208 28 44 56 95 61 114 6 19 28 63 49 96 22 34 46 74 53 89 49 94 134 220 161 239 54 37 215 198 293 291 41 49 87 100 104 114 17 14 39 42 48 62 10 20 72 93 138 162 102 107 235 273 235 294 0 15 -24 1 -101 -59z"/>
<path d="M10710 10594 c0 -26 94 -134 117 -134 25 0 13 22 -44 81 -50 53 -73 70 -73 53z"/>
<path d="M10880 10401 c0 -22 94 -141 112 -141 24 0 3 53 -38 99 -42 46 -74 65 -74 42z"/>
<path d="M11025 10210 c-9 -15 22 -60 40 -60 17 0 19 23 5 51 -12 21 -35 25 -45 9z"/>
<path d="M11240 9911 c0 -14 38 -57 45 -50 9 10 -17 59 -32 59 -7 0 -13 -4 -13 -9z"/>
<path d="M11320 9775 c0 -23 53 -95 71 -95 11 0 -7 47 -34 87 -26 39 -37 42 -37 8z"/>
<path d="M11414 9636 c-4 -10 12 -49 44 -104 109 -189 281 -569 364 -801 11 -30 38 -125 60 -210 71 -278 76 -295 101 -361 14 -36 37 -111 52 -167 27 -100 37 -118 48 -89 13 34 -36 314 -73 421 -12 33 -37 120 -56 193 -19 73 -49 168 -65 210 -17 42 -38 99 -46 127 -8 27 -30 80 -49 117 -19 37 -52 113 -74 168 -51 129 -75 175 -168 332 -82 140 -127 193 -138 164z"/>
<path d="M1102 8497 c-41 -51 -86 -171 -193 -517 -92 -296 -106 -354 -119 -485 -6 -61 -17 -155 -24 -210 -15 -110 -9 -143 18 -104 9 13 16 39 16 59 0 19 7 58 15 85 9 28 29 133 46 235 16 102 39 209 49 238 11 30 29 93 40 140 22 96 128 409 160 471 21 42 26 86 11 95 -5 3 -13 0 -19 -7z"/>
<path d="M12077 7817 c-8 -22 2 -47 18 -47 23 0 26 17 7 40 -16 20 -19 21 -25 7z"/>
<path d="M739 7074 c-16 -20 -25 -119 -11 -128 6 -4 23 14 38 39 23 41 25 49 14 75 -14 34 -22 37 -41 14z"/>
<path d="M12242 6730 c0 -140 -3 -271 -6 -290 -4 -19 -13 -154 -21 -300 -14 -250 -39 -456 -79 -640 -8 -36 -22 -117 -31 -180 -25 -180 -93 -493 -135 -625 -21 -66 -49 -158 -61 -205 -30 -114 -190 -512 -266 -664 -20 -39 -61 -111 -93 -161 -31 -49 -67 -110 -80 -134 -24 -49 -252 -382 -377 -552 -239 -327 -285 -380 -603 -700 -343 -345 -598 -568 -795 -696 -93 -61 -185 -132 -185 -144 0 -17 33 -9 89 23 64 37 329 222 441 309 41 32 110 84 153 115 42 31 180 158 306 282 126 125 272 268 324 317 52 50 107 110 122 133 14 24 59 86 98 137 125 162 234 318 262 375 15 30 53 91 85 135 31 44 67 98 78 120 11 22 54 82 96 134 48 60 82 113 92 145 9 28 59 134 111 235 51 101 93 190 93 196 0 7 11 32 24 56 58 105 143 405 205 724 17 83 44 193 62 245 23 70 35 131 44 230 7 74 25 189 40 255 22 98 28 163 36 355 6 129 10 274 9 322 -1 62 4 103 17 140 26 77 22 238 -10 393 -43 202 -46 196 -45 -85z"/>
<path d="M367 5993 c-11 -10 -8 -43 3 -43 6 0 10 11 10 25 0 26 -2 29 -13 18z"/>
<path d="M390 5595 c0 -51 29 -224 42 -248 11 -21 12 -20 19 18 9 56 -19 205 -45 240 -15 19 -15 19 -16 -10z"/>
<path d="M454 5224 c3 -9 6 -18 6 -20 0 -3 4 -3 10 1 11 7 2 35 -12 35 -6 0 -7 -7 -4 -16z"/>
<path d="M590 4776 c0 -15 18 -31 26 -23 7 7 -7 37 -17 37 -5 0 -9 -6 -9 -14z"/>
<path d="M635 4663 c12 -69 66 -237 95 -293 16 -30 43 -91 60 -135 17 -44 43 -100 57 -125 45 -77 129 -247 148 -297 10 -26 46 -93 80 -148 33 -55 83 -144 109 -198 81 -163 213 -354 302 -433 42 -38 85 -87 96 -109 60 -118 327 -442 440 -535 20 -17 84 -90 141 -163 113 -143 168 -199 264 -274 33 -26 103 -83 155 -125 212 -175 246 -201 307 -235 35 -20 97 -64 137 -98 47 -41 118 -86 202 -128 71 -36 166 -88 211 -116 49 -30 127 -65 194 -87 119 -39 187 -70 252 -113 22 -15 65 -37 95 -48 133 -51 194 -78 337 -149 125 -62 174 -80 275 -104 68 -16 166 -42 218 -58 79 -25 259 -71 335 -87 11 -2 79 -11 150 -20 72 -8 174 -23 227 -32 93 -16 101 -16 171 2 64 16 82 17 148 6 180 -29 249 -34 489 -35 300 -1 560 20 990 79 96 14 217 29 267 34 86 9 145 24 343 86 41 13 104 29 140 35 63 11 95 19 250 59 124 32 418 137 458 164 21 13 85 48 143 76 165 80 240 123 315 178 38 28 94 62 124 76 31 15 68 40 84 56 27 28 27 30 9 40 -17 8 -70 -15 -309 -132 -159 -78 -343 -162 -409 -186 -66 -24 -196 -73 -290 -109 -173 -66 -435 -137 -635 -171 -58 -11 -116 -23 -130 -29 -61 -24 -283 -56 -905 -133 -133 -16 -662 -22 -865 -10 -323 19 -613 55 -815 99 -240 53 -729 210 -1140 367 -459 174 -648 275 -946 501 -318 242 -586 483 -899 809 -64 66 -148 151 -188 190 -39 38 -84 87 -99 108 -16 22 -60 78 -99 125 -116 143 -471 666 -529 782 -18 36 -58 106 -88 155 -72 119 -291 569 -318 653 -12 37 -31 85 -42 107 -31 62 -99 165 -109 165 -5 0 -6 -17 -3 -37z"/>
<path d="M9137 1403 c-4 -3 -7 -15 -7 -25 0 -23 32 -24 51 -2 10 13 10 17 -2 25 -17 10 -33 11 -42 2z"/>
<path d="M5310 12760 c-12 -8 -9 -10 13 -10 16 0 26 4 22 10 -8 12 -16 12 -35 0z"/>
<path d="M12435 4460 c-7 -12 11 -40 26 -40 14 0 10 26 -5 39 -10 9 -16 9 -21 1z"/>
</g>
</svg>