<svg version="1.0" xmlns="http://www.w3.org/2000/svg"
 width="1261.000000pt" height="1280.000000pt" viewBox="0 0 1261.000000 1280.000000"
 preserveAspectRatio="xMidYMid meet" fill="#000000" stroke="none">
<g transform="translate(0.000000,1280.000000) scale(0.100000,-0.100000)">
<path d="M6331 12784 c-124 -18 -131 -22 -41 -24 41 -1 95 -5 120 -8 112 -18
-74 -37 -315 -33 -77 2 -142 5 -145 7 -2 3 2 10 10 15 26 18 -51 -2 -92 -23
-21 -11 -38 -21 -38 -22 0 -1 61 0 135 2 130 4 135 4 135 -16 0 -27 -24 -32
-159 -32 -108 0 -113 -1 -108 -20 5 -19 0 -20 -102 -20 -59 0 -111 -4 -117 -9
-12 -12 -165 -41 -213 -41 -20 1 -47 7 -61 15 -41 23 -86 17 -190 -25 -54 -21
-136 -49 -182 -60 -45 -12 -92 -24 -103 -27 -18 -5 -19 -4 -5 12 14 16 13 17
-5 12 -11 -3 -49 -13 -85 -22 -36 -9 -161 -53 -278 -96 -210 -79 -303 -102
-316 -81 -7 12 -45 2 -160 -42 -38 -15 -74 -25 -80 -23 -6 3 -59 -29 -119 -69
-59 -41 -110 -74 -114 -74 -4 0 4 11 17 25 13 14 21 25 18 25 -3 0 -42 -20
-87 -45 -45 -25 -86 -45 -91 -45 -28 0 -436 -286 -484 -339 l-19 -21 47 21
c26 11 50 18 53 16 2 -3 -36 -38 -86 -77 -50 -39 -91 -76 -91 -81 0 -15 -60
-40 -80 -34 -57 18 22 146 120 194 52 26 250 166 250 177 0 9 -58 -26 -147
-90 -51 -36 -101 -66 -113 -66 -11 0 -47 -13 -80 -30 -33 -16 -67 -30 -75 -30
-25 0 11 57 59 91 40 30 199 119 211 119 3 0 4 -9 0 -19 -5 -18 -3 -19 23 -12
45 13 89 39 206 118 127 86 176 113 208 113 13 0 82 33 154 73 137 75 181 103
173 111 -2 3 -67 -31 -143 -75 -132 -76 -165 -89 -136 -54 29 35 -6 25 -121
-34 -66 -35 -123 -60 -126 -57 -8 8 -221 -104 -343 -179 -52 -32 -137 -91
-190 -131 -92 -69 -97 -75 -108 -125 -7 -28 -31 -103 -54 -167 l-42 -115 -116
-95 c-204 -169 -342 -292 -493 -441 -81 -80 -147 -141 -147 -135 0 24 90 145
175 234 90 95 137 137 129 115 -10 -28 140 120 179 177 18 26 42 49 54 52 26
7 138 117 158 156 25 48 -11 56 -53 12 -15 -16 -52 -39 -82 -51 -46 -18 -58
-29 -74 -62 -11 -25 -83 -104 -189 -209 -95 -93 -173 -167 -175 -165 -2 2 17
36 43 76 49 75 143 174 176 184 23 8 25 21 3 29 -10 4 -35 -13 -72 -50 -31
-31 -68 -62 -82 -71 -14 -8 -56 -62 -95 -119 -38 -58 -103 -142 -142 -187 -40
-45 -98 -116 -130 -157 -31 -41 -121 -140 -199 -220 -143 -148 -203 -225 -187
-241 16 -16 51 19 154 152 56 72 103 128 106 125 3 -3 -7 -24 -23 -46 -56 -79
-59 -84 -46 -76 6 4 12 3 12 -2 0 -19 -59 -89 -119 -141 -34 -30 -71 -72 -83
-95 l-20 -41 36 34 c20 19 36 31 36 25 0 -5 -23 -45 -51 -88 -53 -84 -109
-189 -109 -206 0 -26 24 -5 58 51 67 111 133 209 141 209 5 0 6 -12 4 -27 -5
-27 -4 -27 9 -8 8 11 52 83 99 160 77 129 84 145 85 198 2 48 9 70 43 126 36
61 46 71 99 94 80 36 132 35 132 -3 0 -20 -183 -200 -203 -200 -18 0 -160
-306 -159 -341 0 -23 -11 -37 -63 -79 -82 -64 -191 -195 -306 -366 -49 -74
-92 -141 -95 -149 -3 -7 3 -22 14 -33 19 -19 19 -20 -24 -82 -24 -34 -45 -67
-47 -74 -10 -28 -15 4 -6 43 5 24 8 45 6 47 -2 2 -47 -83 -101 -189 -54 -105
-105 -197 -112 -203 -14 -11 -44 -86 -44 -108 0 -6 16 18 35 54 38 70 69 107
78 93 3 -4 -16 -60 -42 -123 -65 -158 -111 -292 -125 -368 l-12 -65 -49 -1
-50 -1 -2 50 c-3 60 14 233 29 293 6 23 8 45 6 48 -8 7 -138 -327 -194 -498
-65 -198 -84 -199 -44 -2 12 55 22 115 24 134 4 38 101 276 121 297 7 7 23 43
35 79 13 37 46 119 76 184 29 64 58 139 65 166 6 27 16 54 22 59 10 11 10 9
-18 -110 -21 -92 -37 -201 -33 -228 3 -17 11 -7 37 43 25 48 36 86 43 145 13
124 32 175 97 263 82 111 107 160 56 112 -14 -13 -25 -20 -25 -16 0 9 53 87
95 141 44 55 53 75 23 48 -43 -40 -40 -25 10 40 27 34 72 96 101 139 29 42 75
100 103 129 37 38 51 62 53 85 1 17 16 61 33 98 l32 68 -86 -78 c-114 -104
-146 -144 -246 -314 -212 -361 -300 -529 -393 -751 -27 -65 -54 -115 -59 -113
-14 5 -98 -182 -147 -326 -42 -126 -53 -201 -68 -465 -11 -185 -43 -368 -71
-407 -21 -28 -34 -79 -44 -168 -7 -53 -20 -90 -29 -80 -3 3 -1 32 4 64 11 64
1 88 -22 60 -11 -13 -13 -44 -11 -135 4 -133 -14 -273 -33 -265 -7 2 -17 0
-23 -6 -11 -11 -13 -9 -25 32 -2 8 -10 -25 -18 -75 -18 -117 -18 -312 1 -400
7 -38 14 -122 14 -185 0 -96 -3 -125 -23 -176 -20 -53 -22 -76 -19 -163 1 -56
-1 -101 -5 -101 -10 0 3 -210 14 -230 7 -12 8 -10 9 8 0 45 18 20 25 -35 11
-96 45 -254 62 -292 l17 -36 6 75 c5 66 3 78 -16 105 -22 31 -23 40 -39 290
l-5 80 14 -71 c12 -63 42 -141 51 -132 2 1 -2 42 -8 91 -8 65 -8 95 1 120 13
37 6 441 -9 492 -6 20 -7 -1 -4 -62 7 -107 -8 -125 -24 -30 -17 105 -26 520
-11 556 16 40 28 40 22 1 -4 -30 13 -64 28 -55 5 3 11 24 15 48 4 23 10 46 13
51 2 5 21 -43 41 -105 l36 -114 -1 -210 c-1 -146 -5 -217 -13 -233 -10 -18
-10 -47 -1 -135 7 -62 13 -173 15 -248 1 -77 7 -144 13 -155 6 -10 12 -13 12
-6 0 28 20 9 20 -20 0 -18 7 -75 15 -125 15 -90 14 -94 -5 -113 -11 -11 -20
-28 -20 -38 0 -10 -6 -27 -14 -38 -14 -18 -16 -16 -37 34 -12 29 -23 51 -25
49 -2 -1 3 -30 11 -62 18 -76 18 -86 1 -79 -24 9 -28 -30 -16 -154 11 -100 16
-121 36 -143 19 -19 24 -36 24 -75 0 -73 20 -219 40 -299 10 -38 17 -71 15
-73 -1 -2 -30 46 -63 106 -52 92 -92 149 -92 129 0 -3 23 -65 51 -138 37 -100
50 -145 48 -179 -3 -49 19 -129 30 -112 9 15 118 -112 158 -184 18 -33 33 -51
33 -41 0 33 -50 169 -86 232 -59 106 -37 93 30 -18 35 -58 92 -145 127 -194
34 -48 75 -119 90 -158 34 -87 84 -263 76 -271 -20 -21 -87 88 -87 143 0 28
-35 9 -40 -22 -5 -28 -7 -27 -24 25 -10 30 -26 64 -37 75 -11 11 -49 72 -85
135 -35 63 -76 129 -90 145 l-25 30 16 -32 c16 -34 48 -173 41 -180 -2 -2 -16
18 -32 46 -23 44 -44 65 -44 45 0 -14 125 -234 133 -234 5 0 5 9 2 20 -3 11
-3 20 0 20 6 0 93 -179 108 -222 4 -10 2 -18 -3 -18 -6 0 -10 5 -10 10 0 13
-37 13 -46 -1 -8 -14 52 -76 81 -83 15 -4 27 -18 35 -41 6 -19 18 -41 25 -49
8 -8 58 -90 111 -182 167 -290 278 -457 353 -528 51 -49 45 -23 -12 50 -60 76
-97 140 -97 165 0 9 -20 33 -45 53 -25 21 -63 69 -87 109 -51 88 -102 206 -92
215 4 4 8 2 10 -3 16 -44 144 -214 234 -312 74 -79 136 -159 190 -245 44 -69
80 -131 80 -137 0 -6 -8 -7 -17 -4 -14 5 -13 0 7 -33 57 -96 136 -191 290
-349 177 -183 260 -276 260 -292 0 -6 22 -45 50 -87 27 -42 50 -82 50 -89 0
-28 128 -136 247 -208 48 -30 101 -76 163 -144 71 -77 106 -107 154 -130 34
-17 93 -56 131 -86 39 -30 110 -86 158 -123 49 -38 91 -75 94 -83 7 -17 75
-53 101 -53 23 0 112 -56 112 -70 0 -20 259 -175 281 -168 6 2 -17 24 -52 48
-34 24 -57 46 -51 48 13 4 212 -97 252 -128 l25 -20 -27 0 c-16 0 -28 -3 -28
-8 0 -4 29 -27 65 -51 36 -24 65 -48 65 -53 0 -12 164 -88 274 -127 114 -40
239 -72 456 -115 96 -19 227 -51 290 -71 281 -89 623 -164 830 -183 52 -5 147
-7 210 -5 114 5 115 5 139 -21 16 -17 35 -26 55 -26 27 -1 28 -2 13 -11 -13
-8 -61 -5 -175 10 -86 12 -170 21 -187 20 l-30 -1 28 -11 c49 -19 29 -27 -70
-27 -85 -1 -96 -2 -80 -14 14 -11 27 -12 55 -4 42 12 179 5 340 -17 134 -18
361 -37 372 -30 5 3 41 6 82 6 70 1 178 -20 225 -43 15 -8 83 -9 215 -5 170 6
234 12 415 42 24 4 40 12 37 17 -3 5 -1 15 6 23 9 10 7 16 -6 23 -19 10 -14
12 169 48 75 14 94 15 127 4 22 -7 37 -16 35 -21 -3 -4 -32 -10 -66 -14 -40
-5 -57 -11 -51 -17 11 -11 48 -4 181 32 41 11 76 18 78 16 3 -2 -26 -14 -62
-26 -36 -12 -65 -24 -63 -26 2 -2 33 4 68 12 36 8 175 35 310 60 376 68 321
46 775 299 110 61 243 126 295 145 52 19 187 81 301 137 117 57 209 97 211 91
2 -6 60 24 129 67 268 170 313 195 344 195 23 0 48 14 96 53 35 29 136 109
224 176 163 126 204 164 122 116 -26 -14 -51 -24 -56 -20 -6 3 -41 -25 -78
-62 -50 -50 -81 -72 -118 -84 -43 -14 -69 -17 -54 -6 7 6 253 209 272 226 15
12 20 13 26 2 6 -9 11 -10 15 -2 4 6 2 11 -5 11 -9 0 -9 3 0 14 6 8 11 18 10
22 -4 23 4 35 36 59 18 15 42 28 52 29 10 2 53 45 97 97 153 184 238 280 243
276 7 -7 -22 -58 -62 -112 -36 -47 -32 -50 15 -11 l25 21 -20 -25 c-10 -14
-58 -65 -105 -115 -111 -115 -180 -195 -180 -206 0 -68 380 358 572 641 35 52
89 120 119 150 31 30 96 116 146 190 101 151 174 237 207 246 47 11 280 434
356 644 25 70 45 107 76 141 42 46 124 194 124 224 0 12 -6 15 -20 10 -13 -4
-22 -1 -25 8 -9 21 42 169 78 230 39 64 211 490 227 561 10 46 6 71 -9 61 -5
-2 -14 -32 -21 -65 -7 -33 -19 -68 -27 -77 -13 -16 -13 -13 -8 30 4 26 22 98
41 160 49 156 44 144 53 128 6 -9 12 3 20 38 17 79 59 384 71 511 12 137 12
437 0 500 -8 39 -8 36 -5 -25 3 -38 1 -86 -4 -105 l-8 -35 -8 53 c-12 85 -20
49 -17 -78 3 -77 0 -120 -7 -124 -7 -5 -11 6 -11 32 0 66 -12 162 -20 157 -4
-3 -13 -26 -20 -52 l-13 -48 -8 35 c-4 19 -17 127 -29 240 -12 113 -26 214
-31 225 -6 13 -7 -76 -2 -245 11 -413 9 -554 -10 -644 -16 -75 -39 -112 -60
-99 -5 3 -6 -8 -3 -24 4 -17 2 -68 -4 -114 -6 -46 -15 -118 -19 -159 -11 -98
-51 -244 -63 -232 -5 5 -10 35 -11 66 -1 31 -4 50 -8 44 -4 -7 -28 -98 -53
-203 -105 -427 -199 -701 -341 -990 -97 -198 -205 -382 -223 -378 -5 1 -22
-26 -37 -60 -31 -71 -122 -209 -204 -312 -99 -125 -215 -255 -227 -255 -17 0
-107 -106 -209 -245 -159 -217 -193 -259 -266 -333 -48 -50 -74 -70 -79 -61
-12 18 -158 -89 -275 -201 -191 -184 -535 -439 -863 -639 -80 -50 -105 -61
-116 -52 -17 14 -52 1 -263 -99 -114 -54 -168 -74 -216 -80 -67 -8 -194 -61
-237 -99 -14 -12 -18 -20 -10 -17 168 56 183 42 25 -22 -72 -29 -153 -68 -180
-86 -42 -28 -64 -35 -129 -41 -71 -6 -82 -10 -111 -40 -39 -38 -110 -65 -172
-65 -35 0 -49 -5 -66 -26 -15 -17 -42 -30 -82 -39 -32 -8 -61 -13 -62 -11 -2
2 23 23 57 47 76 56 57 61 -69 19 -108 -35 -109 -36 -87 -11 9 10 51 33 92 51
41 18 73 35 70 37 -14 14 -193 -27 -360 -82 -105 -35 -227 -70 -271 -79 -74
-15 -237 -36 -277 -36 -29 0 -20 18 12 25 37 8 46 21 23 33 -12 6 -70 -1 -168
-20 -140 -26 -161 -27 -315 -22 -94 4 -210 15 -270 26 -65 12 -184 22 -315 28
-115 4 -235 13 -265 20 -64 14 -276 112 -302 140 -21 23 -134 60 -290 95 -103
24 -226 57 -267 73 -9 3 4 -18 28 -46 l43 -53 97 3 c60 2 114 -2 143 -11 76
-22 59 -35 -34 -27 -46 3 -127 9 -181 13 -86 5 -105 10 -150 37 -28 17 -67 52
-86 78 -31 42 -44 50 -135 83 -56 21 -222 96 -369 167 -236 113 -282 132 -380
154 -148 32 -242 80 -392 200 -140 112 -155 121 -155 99 0 -16 -10 -15 -57 2
-7 3 -13 0 -13 -6 0 -21 -49 20 -80 67 -18 27 -30 58 -30 78 0 29 -4 34 -37
45 -28 9 -85 60 -213 188 -172 172 -174 174 -98 121 43 -29 81 -50 85 -47 11
11 -9 26 -150 113 -125 78 -168 98 -116 55 13 -11 18 -20 11 -21 -26 0 -140
129 -198 226 -32 54 -58 105 -58 111 1 7 -32 45 -74 85 -333 319 -400 385
-407 403 -4 11 -15 29 -25 40 -25 28 -150 270 -150 290 0 25 -57 132 -85 157
-30 28 -149 283 -260 558 -85 210 -219 589 -211 598 3 2 31 -12 63 -31 32 -20
120 -69 196 -110 136 -74 139 -76 164 -129 16 -32 26 -73 27 -103 2 -63 61
-186 145 -304 34 -47 67 -105 75 -135 19 -63 79 -167 146 -251 27 -35 50 -66
50 -69 0 -22 -26 5 -79 83 -33 49 -67 91 -75 94 -8 3 -22 21 -32 39 -31 61
-166 289 -170 286 -2 -2 6 -32 16 -66 30 -95 41 -179 28 -207 -9 -20 -5 -31
36 -84 47 -61 87 -84 109 -62 36 36 98 -30 189 -201 60 -112 65 -119 108 -135
65 -24 105 -63 65 -63 -8 0 -15 -4 -15 -8 0 -13 53 -83 85 -112 38 -35 125
-155 125 -172 0 -8 7 -23 15 -34 19 -25 19 -35 0 -28 -9 4 -15 0 -15 -10 0
-19 103 -122 130 -131 23 -7 63 12 55 26 -12 18 10 8 37 -18 15 -15 28 -22 28
-17 0 6 -16 25 -35 44 -19 19 -35 39 -35 45 0 18 -112 171 -206 280 -135 157
-344 461 -349 508 -2 12 -24 58 -51 102 -57 96 -153 296 -259 537 -65 150 -81
178 -105 188 -20 8 -35 28 -55 77 -16 35 -43 80 -61 100 -31 32 -35 34 -78 28
l-46 -7 -29 66 c-42 92 -53 136 -36 136 17 0 -8 64 -48 123 -14 20 -28 54 -32
75 -7 40 -34 97 -35 72 0 -8 4 -30 9 -48 5 -17 6 -32 1 -32 -4 0 -13 21 -19
48 -7 26 -30 75 -52 108 -22 34 -44 77 -49 95 -18 60 -31 192 -20 203 15 15
39 -13 51 -60 16 -64 33 -56 24 11 -8 70 8 72 23 3 6 -29 19 -91 28 -137 19
-89 30 -107 125 -181 37 -29 41 -31 27 -10 -46 65 -68 109 -74 148 -3 23 -3
42 2 42 13 0 0 259 -15 297 -12 31 -13 32 -37 16 -16 -10 -26 -29 -30 -55 -12
-69 -27 -25 -28 79 0 64 4 106 13 122 11 21 11 25 -3 33 -18 10 -22 80 -7 120
6 16 5 32 -4 47 -16 30 -21 21 -35 -63 -10 -52 -10 -85 0 -147 12 -75 11 -81
-6 -94 -27 -20 -45 1 -59 72 -14 65 -11 80 13 61 13 -11 14 -9 9 17 -15 71
-19 335 -8 450 7 66 16 124 20 128 4 4 11 -40 14 -99 3 -59 11 -112 17 -118
13 -13 13 89 -1 169 -5 33 -12 76 -15 95 l-5 35 17 -29 c14 -26 18 -27 26 -12
5 9 9 31 8 49 -1 18 -2 81 -3 141 0 81 -3 103 -10 85 -10 -23 -10 -22 -18 16
-11 57 -11 216 1 336 10 100 44 313 57 354 l6 20 8 -20 c5 -11 6 -72 2 -135
-4 -97 -3 -113 8 -102 11 10 14 52 15 175 1 174 22 291 49 280 9 -3 25 17 44
57 29 57 31 71 32 169 1 142 9 187 59 315 29 76 42 127 44 170 2 36 13 85 28
121 38 92 175 338 180 323 3 -7 15 6 26 29 17 32 114 259 159 371 3 7 11 11
18 8 9 -3 17 11 25 42 6 25 27 80 46 121 40 86 38 104 -2 35 -16 -27 -64 -96
-108 -154 -51 -68 -102 -151 -142 -235 -35 -71 -64 -125 -64 -120 0 24 34 151
77 288 40 126 53 155 90 198 34 40 43 58 43 88 0 59 28 139 53 152 12 7 28 19
35 28 55 69 101 151 141 250 46 116 131 251 158 251 22 0 -11 -70 -131 -275
-54 -94 -72 -131 -61 -133 11 -3 3 -24 -32 -88 -26 -49 -42 -89 -37 -94 15
-14 40 12 54 55 18 55 49 98 67 91 10 -4 22 11 40 52 25 53 118 182 144 198 7
4 16 -1 21 -10 14 -24 24 -20 77 29 26 25 51 45 54 45 4 0 -5 -16 -18 -36 -14
-20 -25 -44 -25 -53 -1 -9 -32 -54 -70 -101 -71 -85 -85 -114 -53 -108 37 7
282 398 323 513 9 27 6 25 -31 -17 -42 -49 -59 -59 -59 -34 0 8 -12 16 -26 18
l-26 3 38 38 c20 20 43 37 51 37 7 0 13 7 13 16 0 8 14 35 30 59 17 24 30 47
30 52 0 4 26 19 57 32 31 14 122 67 202 119 80 52 170 106 199 121 52 25 54
25 67 7 17 -23 7 -30 280 185 221 173 386 295 491 361 97 62 102 64 77 36 -13
-13 -23 -27 -23 -30 0 -13 177 63 227 98 29 20 69 57 89 82 56 71 106 122 115
117 4 -3 65 13 135 35 71 22 140 40 153 40 14 0 89 38 168 85 148 90 209 118
330 155 l72 22 47 -28 c39 -23 58 -28 113 -27 55 0 77 6 136 36 57 29 103 42
245 68 96 18 214 33 262 35 103 2 150 12 145 27 -2 7 -16 13 -30 15 -15 2 -27
7 -27 12 0 8 110 25 145 21 11 -1 87 12 170 29 82 17 201 37 263 45 135 18
368 20 378 4 3 -6 26 -20 51 -31 24 -10 41 -23 38 -29 -9 -14 -93 -11 -102 4
-24 41 -177 58 -312 36 -60 -10 -68 -14 -63 -31 3 -12 -6 -30 -24 -50 l-29
-30 45 8 c25 5 151 7 280 4 210 -4 508 -4 660 0 122 3 659 -122 853 -199 41
-17 83 -29 93 -29 25 2 216 -101 209 -112 -3 -5 9 -17 27 -26 48 -24 120 -75
115 -80 -8 -9 -136 25 -178 47 -23 11 -44 18 -47 15 -7 -8 -5 -9 53 -39 55
-29 41 -35 -25 -12 -24 8 -45 14 -47 11 -2 -2 56 -25 129 -51 154 -55 176 -65
220 -104 22 -18 58 -34 108 -45 158 -38 324 -120 415 -205 22 -21 57 -48 78
-60 20 -13 37 -28 38 -34 0 -7 44 -40 97 -75 74 -48 88 -55 57 -27 -34 31 -37
35 -15 29 42 -11 101 -45 128 -72 22 -21 39 -26 103 -32 57 -5 89 -14 123 -34
58 -34 242 -190 257 -218 10 -18 8 -19 -13 -13 -12 4 -71 30 -131 58 -59 27
-110 48 -113 44 -3 -3 12 -15 34 -26 70 -36 282 -220 282 -246 0 -5 20 -23 45
-38 25 -16 62 -49 84 -73 21 -24 46 -44 54 -44 9 0 47 -12 86 -26 64 -24 78
-35 157 -120 47 -52 83 -94 79 -94 -4 0 16 -25 44 -56 68 -74 65 -92 -4 -24
-30 30 -55 50 -55 44 0 -21 46 -79 79 -99 18 -11 62 -46 99 -77 72 -63 87 -70
77 -35 -6 21 -6 21 14 -3 11 -14 39 -59 61 -101 22 -42 46 -82 55 -89 24 -20
18 -31 -10 -18 -14 6 -27 9 -30 6 -3 -3 17 -43 46 -89 86 -140 80 -133 90
-118 4 8 6 25 2 39 -6 27 -1 24 37 -25 21 -28 22 -29 15 -5 -10 36 100 -131
146 -222 21 -43 39 -85 39 -93 0 -9 13 -35 29 -58 15 -23 68 -109 116 -192 48
-82 104 -175 124 -205 31 -48 36 -52 39 -32 2 13 -3 31 -11 40 -8 9 -27 41
-42 71 -20 41 -23 52 -11 48 13 -5 16 0 16 25 0 30 1 31 19 14 30 -28 87 -151
130 -282 38 -119 88 -231 97 -221 3 3 -16 74 -42 158 -62 205 -127 369 -140
356 -3 -3 2 -20 11 -37 9 -18 12 -30 7 -26 -16 10 -162 204 -162 215 0 6 -22
56 -50 111 -27 55 -50 102 -50 105 0 21 27 -20 70 -105 27 -54 54 -101 60
-105 15 -9 -2 32 -66 160 -51 101 -87 160 -68 111 18 -46 -22 6 -150 199 -75
113 -164 239 -196 280 -33 41 -60 80 -60 86 0 6 -16 37 -35 69 -19 32 -35 63
-35 71 0 18 54 -36 76 -77 10 -19 23 -34 27 -34 14 0 1 24 -58 110 -58 81
-150 170 -178 170 -15 0 -207 195 -207 211 0 5 -15 15 -32 23 -37 17 -246 211
-237 220 10 11 181 -124 261 -206 42 -43 84 -78 92 -78 26 0 184 -140 341
-302 171 -175 211 -225 290 -358 32 -52 77 -123 101 -158 24 -35 44 -66 44
-70 0 -12 208 -322 216 -322 3 0 0 9 -6 21 -7 11 -10 23 -7 25 5 6 99 -138
123 -190 14 -29 22 -34 40 -30 19 5 27 -2 53 -48 17 -29 43 -89 57 -133 28
-82 62 -160 69 -153 7 7 -22 153 -34 177 -7 13 -30 50 -51 82 -52 80 -98 213
-109 312 -5 45 -8 84 -6 86 2 2 18 -7 35 -19 17 -12 33 -20 36 -17 10 10 -27
69 -79 125 -84 92 -127 148 -127 165 0 9 -13 31 -29 49 -32 37 -115 208 -101
208 5 0 21 -17 36 -37 16 -21 32 -42 36 -48 19 -22 -40 99 -117 240 -113 207
-155 291 -155 314 0 28 -193 267 -222 275 -13 3 -33 6 -45 6 -12 0 -42 16 -67
35 -26 19 -49 35 -52 35 -7 0 86 -121 106 -138 39 -33 52 -31 20 3 -25 27 -29
36 -15 30 11 -4 33 -10 49 -13 48 -8 147 -149 232 -330 24 -52 43 -97 41 -98
-2 -2 -28 21 -57 51 -30 30 -60 55 -66 55 -7 0 -23 15 -35 33 -13 17 -56 67
-96 109 -40 43 -73 82 -73 88 0 6 -37 49 -82 96 -46 47 -85 90 -87 97 -5 17
-73 87 -84 87 -5 0 -7 -7 -3 -15 7 -20 0 -19 -41 6 -38 24 -103 104 -103 128
0 9 9 22 21 29 18 12 24 11 43 -6 42 -39 106 -74 121 -68 22 8 44 -5 121 -70
48 -41 66 -51 70 -40 8 20 -17 64 -85 148 -79 97 -130 146 -128 122 1 -11 -7
-20 -23 -24 -20 -5 -25 -12 -24 -37 l2 -31 -62 43 c-33 23 -108 66 -166 96
-88 45 -120 69 -200 148 -68 67 -112 101 -155 121 -56 26 -192 136 -181 147 8
8 105 -44 204 -109 51 -34 95 -59 98 -56 2 3 -21 29 -53 58 -41 37 -97 72
-198 121 -154 75 -242 130 -275 172 -34 43 -5 34 103 -33 99 -61 171 -100 183
-100 4 0 -23 28 -60 61 -77 71 -81 89 -7 30 28 -22 86 -61 129 -86 81 -49 164
-115 143 -115 -13 0 15 -50 36 -63 32 -20 148 -118 257 -215 65 -59 122 -108
127 -110 48 -18 -148 193 -273 294 -42 34 -114 95 -160 134 -115 100 -181 150
-263 198 -82 48 -141 96 -110 89 11 -3 28 -8 38 -12 34 -14 16 11 -32 43 -41
28 -52 32 -68 22 -16 -10 -27 -8 -64 10 -80 41 -203 125 -289 200 -112 97
-173 134 -274 170 -46 17 -194 75 -328 131 -277 115 -530 214 -571 224 -16 4
-27 14 -27 24 0 33 -22 41 -108 41 -46 0 -125 5 -177 11 -125 15 -146 8 -62
-20 38 -13 66 -25 64 -28 -9 -8 -250 29 -311 48 -48 14 -61 15 -72 5 -14 -15
-50 -13 -234 10 -63 8 -129 14 -147 14 -18 0 -33 5 -33 10 0 6 -15 17 -32 25
-31 13 -26 14 82 14 63 0 170 -6 237 -12 68 -7 119 -9 115 -6 -21 21 -198 41
-432 50 -140 5 -276 13 -302 18 -27 4 -48 6 -48 4 0 -2 20 -13 45 -24 30 -13
78 -22 138 -26 63 -4 103 -12 127 -25 l35 -19 -35 6 c-80 15 -180 24 -262 25
-48 0 -107 6 -130 14 -24 8 -91 17 -150 21 -108 7 -125 14 -96 43 27 27 -8 34
-139 30 -108 -3 -135 -7 -175 -27 -37 -18 -57 -21 -88 -16 -41 7 -45 11 -32
31 9 15 176 51 271 60 54 5 75 3 93 -8 28 -18 178 -31 228 -20 24 5 39 16 48
35 9 18 24 30 43 34 16 3 28 8 25 10 -2 2 -46 11 -97 18 -116 18 -323 17 -448
-1z m79 -403 c-39 -13 -55 -22 -54 -34 1 -9 1 -17 0 -17 0 0 -39 -7 -86 -15
-91 -16 -370 -20 -335 -5 11 5 35 9 53 9 43 1 32 21 -12 21 -39 0 -268 -43
-345 -65 -31 -9 -65 -25 -76 -35 -11 -9 -40 -20 -65 -23 -52 -7 -170 3 -170
13 0 4 14 13 32 21 99 41 -127 -8 -322 -69 -52 -17 -128 -40 -167 -52 -40 -11
-73 -26 -73 -31 0 -6 6 -9 13 -6 8 3 65 8 128 11 111 7 113 6 90 -11 -13 -10
-40 -33 -60 -52 -20 -18 -52 -41 -71 -51 -35 -18 -107 -36 -123 -32 -4 1 -43
-7 -87 -18 -43 -11 -86 -20 -96 -20 -16 0 -16 1 0 19 17 19 16 19 -17 16 -34
-3 -204 -69 -222 -86 -16 -15 10 -10 85 17 40 14 74 24 76 21 9 -8 -80 -54
-231 -120 -82 -36 -201 -88 -263 -116 -105 -47 -210 -84 -308 -110 -65 -17
-108 -51 -112 -88 -4 -43 -44 -76 -171 -142 -77 -41 -109 -64 -126 -90 -12
-20 -32 -45 -44 -55 -11 -11 -21 -27 -21 -36 0 -10 -25 -33 -57 -55 -65 -42
-103 -74 -103 -87 0 -18 23 -5 125 72 94 71 145 96 145 73 0 -5 -17 -22 -37
-40 -21 -18 -32 -32 -25 -33 7 0 49 35 95 79 85 81 136 115 165 109 12 -3 3
-12 -27 -27 -25 -13 -70 -49 -102 -80 -67 -66 -138 -127 -234 -201 -38 -30
-86 -68 -106 -86 -38 -33 -76 -50 -87 -40 -3 4 25 39 64 78 76 78 69 81 -17 6
-31 -26 -59 -48 -63 -48 -10 0 -7 50 4 71 13 22 -116 -56 -162 -99 -16 -14
-28 -20 -28 -14 0 23 -23 12 -106 -48 -101 -74 -135 -86 -73 -28 57 54 179
139 269 187 37 20 116 69 176 109 87 59 113 82 136 122 16 28 26 50 24 50 -3
0 -49 -34 -102 -76 -62 -48 -102 -73 -112 -69 -10 4 -33 -11 -64 -42 -26 -26
-48 -43 -48 -39 0 15 92 139 144 194 27 28 44 52 38 52 -6 0 -53 -28 -104 -62
-67 -44 -152 -120 -303 -268 -115 -113 -226 -217 -245 -231 -19 -13 -96 -84
-170 -157 -139 -138 -247 -231 -337 -288 -61 -40 -166 -88 -161 -74 2 5 32 50
67 100 55 78 68 91 87 86 24 -6 85 59 288 309 134 165 243 284 358 390 113
105 150 125 63 35 -33 -34 -51 -58 -40 -52 25 13 67 58 139 149 31 40 78 87
104 104 28 20 40 25 30 12 -10 -11 -18 -22 -18 -24 0 -12 131 60 180 100 149
119 358 239 665 381 110 51 206 101 214 112 20 27 126 98 147 98 14 0 15 -2 3
-16 -12 -15 -11 -16 11 -8 38 13 122 11 127 -4 3 -8 -38 -33 -113 -67 -64 -31
-115 -58 -112 -61 10 -9 162 38 236 73 48 22 76 42 82 57 12 31 287 206 375
238 91 33 234 72 241 65 3 -3 42 10 86 29 57 24 84 31 93 24 26 -22 128 -22
220 -1 50 11 160 36 245 56 102 23 191 37 259 40 57 3 107 7 109 10 3 3 134 5
291 4 286 -1 286 -1 231 -18z m710 -101 c140 -6 356 -18 480 -26 211 -15 238
-19 446 -70 228 -55 285 -72 250 -73 -37 -2 3 -28 77 -50 39 -12 113 -36 162
-52 50 -16 110 -32 133 -34 52 -5 108 -22 140 -42 18 -11 21 -17 12 -28 -8
-10 -3 -17 22 -33 36 -22 238 -127 260 -135 7 -2 11 -7 8 -10 -3 -3 -33 0 -65
8 -82 19 -91 19 -64 -5 l24 -20 -25 5 c-14 3 -76 16 -139 30 -132 29 -135 29
-98 9 15 -8 69 -24 120 -34 107 -23 197 -57 197 -75 0 -6 -11 -17 -25 -23 -54
-25 -299 51 -254 79 19 11 4 23 -51 38 -25 7 -70 28 -100 47 -36 22 -81 38
-132 48 -43 8 -88 20 -100 27 -29 15 -68 50 -68 61 0 5 10 8 23 6 17 -2 21 1
19 16 -3 17 1 18 35 13 l38 -6 -29 16 c-16 8 -69 19 -117 23 -93 7 -113 16
-123 54 -5 20 -27 31 -158 74 -84 28 -191 60 -237 72 -98 25 -211 40 -211 28
0 -4 6 -8 13 -8 7 -1 5 -6 -6 -14 -16 -12 -14 -14 20 -21 45 -8 108 -33 101
-40 -2 -3 -85 6 -183 20 -205 29 -231 30 -155 6 l55 -17 -115 -7 c-160 -10
-238 -9 -344 4 -109 13 -177 29 -171 39 3 5 38 11 79 15 56 5 80 4 102 -8 24
-13 38 -13 72 -4 23 6 42 14 42 18 0 4 -53 17 -117 29 -237 44 -318 73 -177
65 43 -3 194 -10 334 -15z m-5644 -2825 c-31 -69 -65 -159 -76 -198 -24 -87
-59 -159 -116 -244 -24 -34 -42 -63 -39 -63 8 0 -27 -105 -76 -225 -26 -66
-55 -151 -64 -188 -21 -89 -63 -178 -120 -251 -30 -39 -52 -82 -66 -128 -23
-75 -20 -97 6 -51 l16 28 -6 -50 c-9 -71 -123 -517 -135 -529 -16 -16 -12 14
10 80 26 75 21 103 -8 47 -12 -24 -25 -43 -28 -43 -9 0 6 109 19 137 13 30 0
44 -19 19 -13 -19 -14 -18 -16 15 -4 81 23 175 82 288 20 38 23 36 20 -19 -1
-19 1 -32 4 -29 7 7 66 203 62 206 -2 2 -11 -13 -22 -32 -19 -36 -29 -41 -51
-27 -10 6 2 51 46 183 60 181 84 235 133 307 28 40 58 56 58 30 1 -13 72 149
86 194 6 22 6 22 -13 6 -11 -10 -26 -18 -35 -18 -23 0 -44 -30 -63 -87 -16
-50 -35 -70 -35 -39 0 26 20 69 82 178 55 97 64 107 84 102 25 -7 40 16 46 72
5 42 -17 39 -48 -5 -16 -22 -32 -41 -35 -41 -14 0 73 226 114 299 45 79 64 93
91 66 15 -16 18 -15 36 7 29 34 24 12 -11 -50 -17 -30 -28 -56 -26 -58 9 -9
54 55 97 137 46 90 60 112 67 105 3 -2 -21 -61 -51 -131z m-761 -1905 c8 -12
-3 -91 -15 -111 -16 -24 -20 -4 -14 59 7 59 15 74 29 52z m-145 -380 c17 -135
35 -263 40 -285 11 -46 11 -272 0 -360 -5 -42 -8 1 -9 145 -2 264 -15 292 -64
135 -14 -44 -37 -134 -51 -200 -15 -66 -29 -124 -31 -130 -18 -39 24 522 50
675 8 46 11 86 6 90 -4 3 -4 40 0 82 7 70 16 105 24 96 2 -2 18 -114 35 -248z
m79 -1067 c6 -16 18 -59 26 -98 9 -38 29 -109 45 -156 31 -90 54 -269 33 -256
-6 4 -13 27 -15 51 -3 26 -19 67 -39 98 -29 47 -33 61 -32 116 1 45 -2 62 -10
59 -7 -2 -13 -18 -15 -35 -4 -41 -18 -41 -26 -1 -8 42 -8 234 1 242 12 13 21
7 32 -20z m-400 -638 l0 -20 -9 20 c-5 11 -9 27 -9 35 -1 13 0 13 9 0 5 -8 9
-24 9 -35z m555 -641 c9 -4 16 -18 16 -34 0 -44 -17 -44 -28 0 -5 22 -8 40 -7
40 2 0 10 -3 19 -6z m154 -396 c34 -73 86 -191 117 -263 31 -71 85 -186 121
-254 35 -68 64 -129 64 -137 0 -33 -20 -7 -80 102 -36 64 -66 112 -67 107 -12
-36 206 -411 240 -414 7 -1 18 -2 25 -3 7 0 26 -24 42 -53 25 -43 27 -52 14
-57 -9 -3 -23 -2 -32 3 -26 14 -125 121 -151 164 -36 58 -36 37 -1 -33 17 -34
26 -59 20 -55 -15 9 -49 80 -137 279 -87 199 -115 266 -108 266 3 0 14 -18 25
-41 12 -23 24 -39 26 -36 3 3 -31 92 -75 199 -67 162 -121 319 -121 350 0 30
25 -10 78 -124z m1336 -1547 c16 -16 23 -31 18 -35 -11 -7 -72 40 -72 55 0 18
27 8 54 -20z"/>
<path d="M4675 12045 c-41 -18 -3 -19 45 0 31 12 32 14 10 14 -14 0 -38 -6
-55 -14z"/>
<path d="M4028 11795 c-55 -29 -68 -45 -36 -45 13 0 41 16 63 35 47 40 38 44
-27 10z"/>
<path d="M3700 11649 c-52 -21 -104 -39 -115 -39 -18 0 -275 -126 -275 -135 0
-2 9 -1 20 2 37 10 20 -13 -48 -65 -69 -52 -90 -60 -108 -42 -7 7 -31 -5 -72
-36 -34 -25 -62 -48 -62 -50 0 -7 38 15 45 26 11 18 26 10 20 -10 -9 -27 -3
-26 52 14 69 49 105 65 133 60 17 -4 46 8 92 35 37 23 69 41 72 41 3 0 27 15
53 33 27 19 98 64 159 100 189 113 199 134 34 66z"/>
<path d="M2305 10683 c-40 -21 -75 -53 -75 -70 0 -23 14 -15 65 37 54 55 54
57 10 33z"/>
<path d="M2006 10368 c-14 -18 -23 -34 -20 -37 4 -5 27 21 45 52 16 28 2 20
-25 -15z"/>
<path d="M7130 12170 c0 -5 19 -10 43 -9 36 1 38 2 17 9 -36 12 -60 12 -60 0z"/>
<path d="M8725 11844 c21 -22 112 -60 122 -50 4 3 -130 76 -140 76 -4 0 5 -12
18 -26z"/>
<path d="M1292 9178 c-28 -45 -56 -118 -48 -125 3 -3 22 29 42 71 37 82 41
110 6 54z"/>
<path d="M7140 12734 c-14 -7 -55 -16 -91 -20 -37 -3 -73 -10 -80 -15 -29 -18
5 -21 96 -9 52 7 111 10 130 7 39 -6 38 2 -3 31 -23 16 -30 17 -52 6z"/>
<path d="M5160 12680 c-419 -71 -720 -137 -720 -159 0 -4 10 -13 23 -18 21
-10 19 -12 -33 -37 -68 -32 -85 -33 -70 -7 26 49 -64 30 -138 -29 -27 -22 -53
-40 -57 -40 -10 0 -145 -89 -145 -96 0 -6 31 10 76 41 36 24 140 52 152 40 4
-4 -9 -20 -28 -36 -19 -15 -31 -29 -27 -29 15 0 66 30 74 44 4 7 49 26 98 41
50 14 140 53 200 85 159 83 327 133 415 123 35 -4 73 4 170 36 132 43 233 61
244 43 3 -6 -13 -13 -41 -17 -89 -13 -293 -86 -293 -104 0 -4 41 3 92 16 51
13 153 31 228 40 74 9 137 18 139 20 3 2 -5 10 -17 19 -28 20 -28 30 4 59 16
15 21 25 13 24 -8 0 -169 -27 -359 -59z"/>
<path d="M5720 12720 c-11 -7 -5 -10 23 -10 20 0 37 5 37 10 0 13 -40 13 -60
0z"/>
<path d="M4750 12520 c-8 -5 -10 -10 -5 -10 6 0 17 5 25 10 8 5 11 10 5 10 -5
0 -17 -5 -25 -10z"/>
<path d="M6255 12059 c-11 -4 -38 -8 -59 -8 -30 -1 -37 -4 -29 -12 13 -13 123
-3 123 11 0 14 -14 18 -35 9z"/>
<path d="M8238 11753 c7 -3 16 -2 19 1 4 3 -2 6 -13 5 -11 0 -14 -3 -6 -6z"/>
<path d="M4744 11718 l-19 -23 23 19 c21 18 27 26 19 26 -2 0 -12 -10 -23 -22z"/>
<path d="M8219 11670 c25 -11 52 -19 60 -17 19 5 -29 26 -74 33 -25 4 -23 1
14 -16z"/>
<path d="M2413 11409 c-54 -47 -71 -73 -27 -42 33 24 91 83 81 83 -3 0 -27
-19 -54 -41z"/>
<path d="M10370 11385 c0 -5 86 -65 94 -65 17 0 1 18 -38 43 -42 26 -56 32
-56 22z"/>
<path d="M2275 11299 c-56 -57 -34 -51 35 10 27 24 39 41 30 41 -9 0 -38 -23
-65 -51z"/>
<path d="M1734 10807 c-72 -78 -144 -158 -160 -177 -25 -32 -26 -33 -4 -15 14
11 48 41 77 67 28 27 61 48 71 48 25 0 81 68 121 149 18 34 31 64 29 66 -2 2
-62 -60 -134 -138z"/>
<path d="M2462 10444 c-44 -38 -52 -54 -26 -54 11 0 14 -6 8 -22 -7 -22 -6
-22 17 -5 34 25 85 47 108 47 20 0 36 26 22 35 -5 2 -29 -3 -55 -12 -53 -20
-65 -14 -42 22 22 33 17 32 -32 -11z"/>
<path d="M1349 10377 c-55 -69 -50 -80 5 -12 21 25 34 45 29 45 -4 0 -20 -15
-34 -33z"/>
<path d="M1076 9790 c-14 -22 -26 -41 -26 -44 0 -2 16 4 35 13 27 12 34 22 35
44 0 38 -13 34 -44 -13z"/>
<path d="M1887 9678 c-86 -143 -107 -186 -107 -215 0 -28 27 5 101 123 43 70
69 120 65 130 -3 8 3 33 15 56 11 22 18 42 16 44 -2 3 -43 -60 -90 -138z"/>
<path d="M11836 8996 c10 -25 12 -41 5 -45 -6 -4 4 -23 24 -46 18 -22 36 -37
40 -33 8 8 -38 102 -68 140 -16 22 -17 22 -1 -16z"/>
<path d="M12111 8955 c2 -5 18 -37 35 -70 58 -112 172 -425 155 -425 -11 0
-51 45 -51 57 0 39 -105 341 -116 331 -1 -2 17 -69 41 -148 48 -158 63 -230
47 -230 -5 0 -20 26 -33 58 -13 31 -25 50 -27 42 -3 -19 110 -228 116 -212 2
7 -3 33 -12 59 -19 55 -20 67 -5 57 16 -10 63 -116 88 -199 16 -54 26 -73 46
-82 14 -6 25 -8 25 -3 0 4 -13 40 -30 80 -16 40 -30 77 -30 83 0 23 31 -19 49
-69 11 -29 29 -62 40 -73 10 -10 21 -25 23 -32 3 -8 9 -11 13 -7 28 26 -177
503 -293 685 -45 70 -94 129 -81 98z"/>
<path d="M11960 8836 c0 -11 83 -157 87 -153 6 7 -70 157 -79 157 -4 0 -8 -2
-8 -4z"/>
<path d="M11986 8700 c6 -35 19 -58 28 -49 3 2 -4 22 -15 44 l-19 40 6 -35z"/>
<path d="M11766 8427 c3 -10 9 -15 12 -12 3 3 0 11 -7 18 -10 9 -11 8 -5 -6z"/>
<path d="M11897 8361 c20 -34 38 -59 41 -57 7 7 -52 109 -65 114 -7 2 4 -24
24 -57z"/>
<path d="M11810 8394 c0 -19 24 -69 141 -294 25 -47 50 -98 57 -115 11 -28 11
-26 8 25 -3 30 -10 79 -16 108 -9 41 -16 52 -31 52 -14 0 -32 26 -70 103 -27
56 -59 111 -70 122 -19 19 -19 19 -19 -1z"/>
<path d="M12210 8313 c0 -19 81 -245 103 -290 26 -52 74 -265 84 -378 7 -76
38 -144 56 -126 6 6 20 11 30 11 20 0 20 -6 0 105 -10 50 10 19 52 -84 22 -54
45 -98 50 -99 20 -3 10 171 -19 315 -26 132 -30 141 -47 130 -13 -8 -19 -26
-21 -66 l-3 -55 -38 58 c-31 46 -42 78 -62 175 -22 107 -59 200 -86 216 -14 9
-11 -28 6 -68 18 -43 20 -66 5 -51 -6 6 -28 55 -48 109 -21 54 -43 100 -50
103 -6 2 -12 0 -12 -5z"/>
<path d="M107 7563 c-2 -5 -7 -25 -11 -45 -6 -31 -4 -38 9 -38 11 0 15 11 15
45 0 43 -4 54 -13 38z"/>
<path d="M12466 7308 c1 -116 20 -212 49 -247 36 -43 44 -161 11 -161 -9 0 -9
-25 2 -105 9 -61 19 -102 25 -98 5 3 7 25 3 49 -3 26 -2 44 4 44 12 0 10 20
19 -158 6 -101 13 -157 21 -165 10 -10 11 5 5 73 -4 47 -8 206 -10 353 -4 298
-12 346 -64 385 -18 13 -35 40 -46 72 -9 27 -17 50 -18 50 -1 0 -2 -42 -1 -92z"/>
<path d="M927 7073 c-3 -4 -8 -50 -12 -101 -6 -66 -4 -92 4 -92 7 0 11 23 12
63 l1 62 14 -40 14 -40 -5 69 c-4 65 -16 98 -28 79z"/>
<path d="M12176 5867 c-5 -65 -6 -120 -4 -123 10 -10 26 162 19 201 -6 32 -9
17 -15 -78z"/>
<path d="M34 5815 c9 -53 27 -108 33 -101 7 7 -18 119 -30 131 -6 6 -7 -4 -3
-30z"/>
<path d="M670 3644 c0 -6 16 -65 35 -130 36 -121 132 -331 162 -356 10 -7 5 7
-11 35 -32 54 -30 73 3 31 33 -42 24 -16 -25 76 -26 47 -73 146 -105 220 -32
74 -59 130 -59 124z"/>
<path d="M1490 3612 c0 -7 7 -29 15 -49 17 -41 19 -57 5 -48 -21 13 -9 -15 33
-75 23 -34 47 -69 52 -78 6 -9 25 -39 42 -66 61 -93 55 -145 -9 -94 -54 42
-40 19 51 -86 78 -89 113 -113 44 -29 -80 97 -79 97 127 -61 118 -90 157 -112
114 -65 -10 12 -45 42 -77 66 -32 25 -56 50 -54 56 2 6 -22 46 -53 88 -32 43
-106 158 -165 256 -116 190 -125 204 -125 185z"/>
<path d="M990 3135 c0 -3 7 -22 15 -42 22 -53 18 -63 -9 -20 -32 52 -35 53
-31 13 6 -68 92 -266 144 -335 l26 -35 5 38 5 38 105 -127 c72 -86 115 -149
137 -198 38 -84 42 -107 16 -86 -36 30 6 -27 72 -99 42 -45 110 -100 188 -153
67 -45 147 -103 177 -128 45 -39 51 -41 33 -16 -12 17 -35 44 -53 60 -39 37
-57 67 -36 59 11 -4 13 0 10 18 -5 20 -1 18 23 -12 15 -19 56 -67 91 -106 59
-69 80 -101 47 -74 -8 7 -15 10 -15 7 0 -9 154 -155 245 -231 86 -73 123 -96
94 -59 -16 20 -21 24 102 -65 76 -55 235 -139 244 -130 7 6 -56 46 -185 118
-139 77 -242 159 -326 257 -50 58 -52 71 -10 52 32 -15 41 -8 27 19 -11 20
-205 182 -218 182 -4 0 6 -13 22 -30 16 -16 25 -33 21 -37 -3 -4 -59 48 -124
115 -64 67 -124 122 -133 122 -18 0 -210 272 -301 428 -33 56 -64 102 -69 102
-13 0 -11 -7 9 -38 l17 -27 -31 22 c-50 35 -101 98 -134 163 -37 74 -67 85
-40 15 19 -50 -8 -14 -80 105 -67 111 -80 129 -80 115z"/>
<path d="M2008 2879 c5 -33 8 -35 27 -15 11 11 12 16 2 23 -29 23 -33 22 -29
-8z"/>
<path d="M2241 2738 c28 -24 55 -90 44 -107 -3 -6 11 -19 32 -30 21 -10 54
-36 73 -55 33 -35 34 -36 10 -34 -73 8 1 -104 135 -204 221 -165 462 -290 895
-465 133 -54 195 -84 220 -108 44 -42 169 -120 325 -202 137 -72 127 -82 -30
-29 -55 19 -102 32 -104 30 -2 -2 52 -30 120 -63 l124 -59 31 19 c17 11 39 19
48 19 24 0 156 -68 156 -81 0 -6 -6 -9 -13 -6 -8 3 -40 8 -73 12 l-59 6 25
-20 c32 -26 109 -50 179 -56 l56 -5 -41 19 c-51 23 -58 34 -42 60 16 26 1 43
-71 77 -31 15 -51 29 -45 31 32 11 307 -80 371 -123 14 -8 22 -22 19 -29 -7
-19 78 -50 219 -81 61 -13 151 -33 200 -44 50 -11 122 -36 161 -55 54 -27 84
-35 130 -36 75 -2 176 19 171 34 -2 7 -35 22 -73 34 -47 14 -60 22 -41 22 15
1 27 6 27 11 0 12 -67 13 -72 1 -1 -5 -50 7 -108 25 -122 39 -111 37 -108 22
5 -25 -190 -4 -272 29 -11 4 -8 8 10 13 21 6 15 9 -35 19 -101 20 -226 61
-231 76 -3 8 -31 19 -62 25 -32 6 -104 25 -162 42 -58 17 -113 33 -122 35 -25
7 -22 23 5 24 12 0 -17 13 -64 29 -48 16 -131 51 -185 78 -99 50 -276 161
-288 181 -4 5 -13 8 -21 5 -29 -11 -155 84 -155 116 0 10 -9 21 -20 25 -27 9
-122 80 -275 205 -114 94 -233 180 -250 180 -3 0 -74 32 -158 71 -167 78 -333
167 -502 268 -123 74 -142 83 -104 49z"/>
<path d="M10856 1914 c-53 -58 -88 -84 -70 -51 17 29 -27 -24 -72 -88 -58 -83
-46 -75 109 70 59 55 107 105 107 112 0 27 -18 17 -74 -43z"/>
<path d="M3105 1911 l-30 -6 40 -30 c22 -17 61 -51 87 -77 26 -25 76 -60 110
-76 35 -17 99 -47 143 -68 44 -20 74 -39 67 -42 -7 -2 -26 2 -43 8 -72 30 -28
-4 108 -82 249 -145 361 -194 385 -170 13 13 90 -23 148 -68 19 -15 65 -34
101 -43 37 -9 127 -40 200 -68 394 -150 460 -170 499 -149 12 6 20 13 18 15
-1 2 -64 18 -138 35 -185 45 -182 44 -168 75 18 39 1 47 -113 50 -135 3 -221
32 -496 165 -169 82 -212 107 -242 142 -20 23 -39 49 -43 59 -7 19 -209 121
-278 140 -42 12 -227 120 -295 172 -22 18 -38 22 -60 18z"/>
<path d="M2060 1733 c86 -77 192 -184 234 -237 24 -31 92 -73 102 -63 1 1 -26
26 -62 55 -35 29 -64 57 -64 62 0 5 10 10 22 12 19 2 5 18 -82 96 -57 51 -109
91 -115 89 -5 -2 -29 9 -52 24 -69 48 -62 33 17 -38z"/>
<path d="M10594 1718 c-52 -38 -154 -142 -154 -156 0 -7 7 -27 16 -43 18 -35
28 -31 76 35 36 49 37 70 3 64 -14 -3 -25 -2 -25 3 0 10 49 45 75 53 21 6 63
66 47 66 -5 0 -22 -10 -38 -22z"/>
<path d="M3362 1588 c15 -13 55 -38 90 -56 56 -30 60 -31 33 -8 -16 14 -57 40
-90 57 -51 26 -56 27 -33 7z"/>
<path d="M2432 1398 c3 -7 30 -33 62 -57 31 -23 100 -83 153 -132 60 -56 99
-86 103 -79 10 16 64 -13 234 -125 78 -51 199 -123 271 -161 96 -50 124 -69
111 -74 -14 -5 7 -18 78 -48 54 -23 106 -42 116 -42 10 0 90 -35 178 -78 88
-44 198 -94 244 -112 45 -18 101 -41 123 -50 78 -34 473 -161 652 -210 424
-115 935 -197 1338 -215 72 -3 180 -8 240 -11 120 -5 131 9 15 21 -37 4 -73
11 -81 16 -8 5 -9 9 -4 9 28 1 -25 20 -56 20 -61 0 -129 12 -129 23 0 6 49 8
140 4 81 -3 140 -1 140 4 0 5 -4 9 -9 9 -5 0 -23 12 -40 26 -46 39 -150 43
-322 14 -100 -17 -159 -21 -232 -18 -53 3 -100 8 -104 12 -4 3 2 12 12 20 18
13 17 15 -20 25 -22 6 -75 16 -118 22 -43 5 -115 21 -160 36 -62 19 -94 24
-133 20 -45 -5 -53 -3 -57 14 -4 14 -14 19 -39 19 -40 0 -343 61 -448 90 -41
11 -134 36 -205 55 -72 19 -202 62 -290 96 -154 59 -215 86 -170 75 11 -2 40
-8 65 -11 80 -12 32 12 -89 45 -135 36 -157 46 -142 64 9 10 -17 22 -117 56
-70 24 -190 67 -266 97 -76 29 -142 51 -145 47 -3 -3 12 -21 34 -40 22 -18 36
-34 31 -34 -29 0 -265 154 -253 166 2 3 23 -3 46 -12 23 -9 45 -14 48 -10 11
11 -2 16 -112 46 -77 20 -115 36 -134 54 -57 57 7 42 213 -50 217 -98 158 -50
-83 67 -79 38 -175 90 -212 114 -38 25 -69 42 -69 39 0 -3 21 -27 46 -54 37
-39 43 -50 28 -50 -26 0 -70 28 -209 134 -137 105 -157 119 -136 93 25 -32 1
-31 -65 1 -72 36 -77 37 -72 20z"/>
<path d="M4430 1352 c0 -12 92 -32 143 -32 57 0 35 15 -44 28 -79 14 -99 15
-99 4z"/>
<path d="M10242 1329 c-42 -31 -52 -50 -15 -31 18 10 70 62 62 62 -3 0 -24
-14 -47 -31z"/>
<path d="M4438 1263 c7 -3 16 -2 19 1 4 3 -2 6 -13 5 -11 0 -14 -3 -6 -6z"/>
<path d="M4488 1253 c7 -3 16 -2 19 1 4 3 -2 6 -13 5 -11 0 -14 -3 -6 -6z"/>
<path d="M5710 1119 c-11 -8 -12 -12 -2 -16 21 -8 2 -23 -31 -23 -40 -1 -19
-14 36 -24 39 -7 48 -20 21 -30 -20 -8 -143 -8 -183 0 -38 8 -31 24 10 24 19
0 28 4 24 11 -10 15 -115 7 -125 -10 -5 -10 -42 -17 -124 -24 -64 -6 -116 -13
-116 -17 0 -3 42 -14 93 -24 259 -50 373 -67 512 -72 147 -6 151 -6 185 18 34
24 35 26 33 88 -1 34 -5 66 -10 71 -9 9 -224 39 -276 39 -18 0 -39 -5 -47 -11z"/>
<path d="M9595 931 c-6 -5 -43 -27 -83 -49 -74 -39 -81 -52 -30 -52 34 0 79
18 137 54 40 26 42 28 24 41 -21 17 -35 18 -48 6z"/>
<path d="M9355 830 c-34 -36 -31 -36 31 -9 37 15 45 22 34 29 -24 15 -34 12
-65 -20z"/>
<path d="M9261 769 c-24 -11 -42 -22 -39 -25 10 -9 56 7 74 27 20 23 21 23
-35 -2z"/>
<path d="M7107 675 c-69 -15 -77 -20 -41 -29 27 -7 119 18 129 35 8 12 -15 10
-88 -6z"/>
<path d="M8612 520 c-139 -49 -278 -100 -309 -114 -30 -14 -67 -26 -80 -26
-24 0 -158 -68 -150 -76 2 -3 24 0 48 5 133 31 41 -17 -123 -65 -156 -44 -344
-83 -444 -90 l-79 -5 115 41 c174 62 192 67 287 86 81 15 130 34 91 34 -9 0
-18 5 -20 11 -3 8 -43 2 -128 -19 -229 -57 -468 -95 -893 -142 -148 -17 -275
-30 -283 -30 -9 0 -12 -4 -9 -10 3 -5 23 -10 43 -10 65 0 20 -17 -93 -35 -60
-9 -118 -22 -129 -27 -37 -20 1 -26 89 -13 50 6 115 10 145 8 30 -2 91 0 135
5 l80 8 -40 20 -40 19 99 3 c72 2 110 -2 138 -13 53 -21 148 -19 292 6 67 11
150 24 186 29 253 32 851 205 1233 356 195 78 231 104 141 104 -37 0 -45 3
-40 15 3 8 2 15 -2 15 -4 -1 -121 -41 -260 -90z"/>
<path d="M6230 240 c0 -12 8 -12 35 0 18 8 17 9 -7 9 -16 1 -28 -3 -28 -9z"/>
</g>
</svg>
