<svg version="1.0" xmlns="http://www.w3.org/2000/svg"
 width="1273.000000pt" height="1280.000000pt" viewBox="0 0 1273.000000 1280.000000"
 preserveAspectRatio="xMidYMid meet" fill="#000000" stroke="none">
<g transform="translate(0.000000,1280.000000) scale(0.100000,-0.100000)">
<path d="M6100 12790 c-236 -11 -228 -10 -205 -19 31 -12 -112 -24 -192 -16
-93 9 -345 -22 -616 -77 -59 -12 -105 -23 -103 -25 2 -3 41 3 85 12 159 32
113 8 -64 -34 -99 -23 -189 -47 -200 -51 -40 -17 13 -11 123 15 269 61 592
109 962 141 107 9 200 20 205 24 6 4 56 11 113 15 56 4 105 11 108 16 3 5 -10
8 -28 7 -18 -1 -103 -5 -188 -8z"/>
<path d="M6530 12780 l135 -19 -130 4 c-125 3 -129 3 -95 -12 29 -13 82 -17
291 -18 260 -3 359 -10 370 -27 3 -5 65 -18 137 -28 73 -11 154 -26 181 -34
27 -8 75 -17 107 -21 33 -3 68 -10 79 -15 11 -4 63 -16 114 -25 283 -52 866
-232 971 -301 19 -13 69 -35 110 -49 41 -15 93 -37 115 -50 22 -12 92 -45 155
-73 63 -28 168 -75 233 -106 128 -61 132 -62 121 -44 -11 17 101 -47 161 -92
28 -21 77 -51 110 -68 33 -16 71 -40 85 -52 14 -12 -19 1 -75 30 -55 29 -109
60 -121 71 -11 10 -26 19 -33 19 -6 0 -26 7 -44 15 -48 23 -19 4 178 -113 99
-59 194 -116 210 -127 l30 -19 -30 34 -30 34 30 -19 c17 -10 88 -60 158 -112
70 -51 133 -93 138 -93 6 0 29 -13 52 -28 116 -79 81 -44 -103 103 -80 63
-151 115 -158 115 -7 0 -79 45 -161 99 -81 54 -206 131 -277 171 -71 40 -143
83 -160 96 -29 21 -127 68 -439 211 -726 332 -1607 539 -2375 558 l-175 4 135
-19z"/>
<path d="M5995 12714 c-233 -17 -346 -34 -368 -56 -19 -18 -272 -54 -289 -41
-22 18 -261 -22 -641 -107 -154 -35 -428 -141 -757 -293 -41 -19 -113 -49
-160 -68 -78 -30 -421 -195 -565 -271 -33 -17 -136 -79 -230 -137 -93 -58
-181 -110 -195 -115 -25 -9 -375 -268 -440 -325 l-35 -32 52 31 c28 17 79 55
112 85 53 48 121 93 121 82 0 -6 -239 -199 -272 -219 -14 -10 -29 -25 -32 -35
-3 -10 -27 -34 -53 -53 -27 -19 -126 -114 -221 -209 -94 -96 -172 -172 -172
-168 0 14 137 165 245 269 60 58 107 109 104 112 -17 18 -419 -400 -593 -617
-50 -62 -118 -144 -151 -183 -33 -38 -120 -151 -193 -251 -73 -101 -137 -183
-142 -183 -28 0 -290 -453 -394 -680 -21 -47 -52 -104 -68 -128 -29 -42 -98
-183 -113 -231 -5 -17 -4 -21 5 -16 20 12 17 6 -116 -317 -79 -190 -175 -488
-179 -553 -2 -33 -17 -100 -34 -150 -61 -183 -141 -741 -141 -982 0 -100 19
-86 22 15 1 42 3 60 5 39 2 -20 8 -35 14 -32 5 4 9 -56 10 -152 2 -296 14
-280 22 27 3 162 11 338 17 390 16 151 41 293 56 315 8 11 14 33 14 50 0 40
46 296 73 410 21 87 22 89 28 50 3 -22 7 -33 8 -24 2 32 84 317 138 483 107
332 259 682 417 961 70 123 80 138 258 410 101 154 277 386 343 451 17 17 101
114 186 215 200 239 353 404 409 442 51 35 199 155 310 253 256 224 903 660
1031 694 20 6 116 48 213 95 97 47 207 95 244 107 94 30 212 76 242 94 l25 15
-25 -7 c-48 -13 -14 4 80 40 52 20 127 50 165 65 39 16 99 35 135 41 36 7 79
20 95 29 54 30 113 50 182 61 37 6 72 15 78 20 14 11 117 41 123 35 3 -2 -15
-13 -39 -24 -57 -26 -41 -26 49 -1 98 27 124 24 37 -5 -38 -13 -68 -23 -65
-24 13 -3 178 31 310 63 164 39 297 62 307 52 3 -3 -6 -6 -22 -6 -16 0 -26 -3
-22 -6 3 -3 29 -3 58 1 31 4 47 10 39 15 -15 9 15 16 105 25 33 3 77 8 98 11
32 5 36 3 31 -11 -6 -15 -2 -16 32 -11 192 29 568 35 759 11 66 -8 210 -22
320 -30 265 -21 352 -36 525 -95 80 -26 190 -60 245 -75 55 -15 174 -47 263
-72 162 -44 203 -50 143 -18 -17 8 -31 18 -31 21 0 18 175 -51 238 -94 15 -10
104 -49 197 -86 94 -38 276 -120 405 -183 129 -63 282 -134 340 -158 140 -59
232 -113 393 -228 82 -60 154 -103 186 -114 51 -16 82 -42 182 -150 14 -15 59
-54 100 -85 66 -51 271 -239 226 -208 -9 7 -20 11 -22 8 -3 -2 32 -34 78 -70
45 -37 118 -95 162 -130 96 -77 151 -137 261 -283 45 -60 124 -155 176 -210
121 -129 296 -337 331 -395 20 -33 -13 -3 -119 105 -131 134 -163 159 -63 50
43 -47 237 -333 329 -485 79 -130 85 -137 60 -70 -11 30 -53 104 -94 165 -101
152 -130 209 -85 169 34 -30 115 -155 176 -271 31 -59 71 -130 88 -158 72
-112 235 -460 339 -722 60 -152 168 -464 163 -470 -2 -1 -53 63 -113 144 -95
128 -182 282 -167 296 8 8 -59 164 -124 287 -106 201 -182 354 -179 358 4 4
36 -50 111 -191 31 -60 59 -106 62 -104 2 3 -12 44 -32 92 -20 48 -37 97 -38
109 -1 21 -65 135 -95 169 -8 9 -23 17 -32 17 -20 0 -34 20 -158 222 -53 85
-110 164 -136 188 -25 24 -46 51 -46 62 0 21 -17 45 -135 193 -92 114 -109
140 -118 175 -8 33 -140 170 -163 170 -9 0 -27 8 -38 18 -12 9 -4 -3 17 -28
21 -25 80 -98 130 -162 51 -65 127 -162 170 -215 84 -105 332 -472 364 -538
11 -22 48 -89 82 -150 83 -146 192 -371 282 -580 40 -93 80 -180 89 -192 9
-11 34 -63 55 -115 44 -108 56 -126 86 -142 16 -8 32 -37 56 -106 18 -52 33
-105 33 -118 0 -13 11 -52 26 -87 14 -35 34 -97 45 -137 11 -40 24 -77 28 -83
34 -44 121 -408 93 -391 -6 3 -13 20 -17 36 -4 17 -10 28 -14 25 -5 -2 -18 46
-31 108 -19 97 -74 247 -86 235 -2 -3 5 -31 15 -64 11 -32 27 -115 36 -184 31
-244 38 -291 46 -296 5 -3 13 10 18 28 l9 33 1 -35 c2 -52 11 -79 26 -74 17 7
26 -45 31 -176 2 -58 7 -175 12 -260 4 -85 5 -186 2 -225 l-5 -70 -6 75 c-5
54 -6 41 -3 -47 2 -77 -1 -125 -8 -129 -9 -5 -10 -97 -7 -494 0 -19 -3 -51 -7
-70 l-7 -35 -7 30 c-6 24 -8 20 -9 -25 0 -41 2 -51 10 -40 12 18 6 -68 -17
-230 -20 -138 -36 -191 -29 -95 3 39 8 86 10 105 5 31 4 33 -5 11 -6 -14 -15
-79 -20 -145 -10 -121 -42 -299 -59 -320 -17 -23 -43 -116 -76 -281 -19 -93
-57 -235 -84 -315 -27 -80 -64 -192 -83 -250 -23 -74 -88 -215 -222 -480 -104
-206 -192 -377 -196 -380 -4 -3 -28 -48 -54 -100 -27 -52 -44 -90 -38 -85 24
24 167 258 218 357 31 60 58 108 60 105 10 -10 -148 -349 -191 -408 -18 -25
-50 -84 -72 -131 -22 -47 -60 -109 -84 -139 -24 -30 -55 -72 -69 -93 -13 -22
-26 -34 -28 -28 -2 7 19 47 46 90 27 42 48 79 45 82 -6 6 -15 -6 -74 -95 -122
-183 -245 -342 -257 -331 -3 4 -18 -6 -34 -21 -54 -52 -27 -4 58 102 47 58 83
110 79 113 -4 4 -12 0 -18 -8 -88 -116 -339 -453 -357 -480 l-23 -35 40 38
c30 28 43 35 49 26 5 -8 -7 -26 -35 -50 -23 -21 -64 -65 -90 -98 -27 -34 -82
-87 -122 -118 -41 -31 -110 -87 -154 -123 -151 -124 -244 -192 -254 -186 -6 4
-88 -53 -183 -127 -319 -247 -686 -497 -730 -497 -31 0 -209 -96 -331 -178
-111 -75 -186 -109 -407 -187 -52 -18 -147 -56 -210 -85 -63 -28 -189 -76
-279 -107 -142 -48 -173 -55 -234 -54 -83 2 -172 -13 -246 -40 -79 -29 -416
-88 -571 -100 -94 -7 -138 -15 -146 -25 -7 -9 -48 -17 -120 -23 -60 -6 -154
-15 -209 -20 -97 -9 -344 -21 -277 -14 18 3 42 13 53 24 19 19 17 19 -148 19
-93 0 -260 7 -373 16 -113 8 -277 19 -365 24 -365 21 -1047 201 -1370 362 -77
38 -144 74 -150 79 -5 6 28 -4 75 -21 47 -17 94 -33 105 -36 32 -8 -89 51
-188 91 -51 21 -115 50 -144 66 -28 15 -108 53 -178 83 -160 69 -314 154 -439
242 -174 123 -207 144 -268 174 -33 17 -77 44 -98 60 -21 17 -64 42 -95 56
-31 13 -82 42 -114 63 -70 48 -275 219 -280 234 -4 12 -3 11 114 -71 41 -29
75 -51 75 -48 0 3 -44 40 -97 83 -54 43 -163 142 -243 220 -80 78 -174 161
-209 184 -81 55 -242 225 -276 292 -16 33 -72 100 -150 179 -118 121 -215 249
-212 279 3 22 -126 218 -142 216 -7 -1 -39 36 -71 83 -58 85 -85 135 -316 585
-68 132 -123 235 -124 229 0 -7 14 -41 31 -77 17 -36 31 -81 31 -99 0 -19 19
-67 44 -115 24 -44 44 -86 44 -93 0 -23 113 -237 178 -338 84 -129 281 -425
371 -557 38 -55 67 -104 64 -108 -3 -4 8 -25 23 -45 40 -52 282 -309 459 -485
83 -82 128 -131 100 -109 -79 63 -409 395 -532 536 -149 169 -257 314 -392
524 -61 95 -111 175 -111 177 0 8 -159 274 -200 335 -45 67 -110 184 -110 196
0 5 5 1 11 -8 5 -10 14 -18 20 -18 5 0 -2 23 -17 51 -14 28 -28 49 -30 46 -3
-3 0 -15 6 -27 13 -24 8 -36 -10 -25 -15 10 -54 89 -85 177 -28 80 -74 180
-75 163 0 -29 29 -105 92 -240 58 -123 158 -366 158 -384 0 -2 -10 4 -22 15
-21 19 -21 19 -14 0 4 -11 41 -71 82 -135 111 -171 217 -353 220 -379 1 -12
39 -82 85 -155 45 -72 111 -179 146 -237 70 -117 218 -307 264 -342 17 -13 51
-41 77 -63 26 -22 42 -33 36 -25 -46 64 -80 99 -97 102 -34 5 -197 212 -276
353 l-23 40 37 -40 c64 -70 179 -205 224 -263 74 -96 272 -312 285 -312 19 0
149 -138 141 -150 -3 -5 -35 15 -71 45 -35 30 -69 55 -75 55 -6 0 -44 32 -85
72 -74 71 -99 80 -47 16 89 -109 186 -207 204 -205 10 1 19 8 19 15 0 9 15 1
38 -19 20 -19 96 -80 167 -135 72 -56 162 -130 200 -166 39 -35 98 -83 132
-106 70 -48 159 -122 145 -122 -5 0 -49 29 -97 65 -48 36 -90 64 -92 62 -8 -9
97 -88 208 -158 156 -98 256 -166 265 -180 9 -16 -1 -10 -117 68 -53 35 -106
65 -117 68 -22 4 -87 45 -153 97 -20 15 -40 28 -44 28 -14 0 163 -135 253
-193 50 -33 92 -65 92 -72 0 -14 79 -69 87 -61 8 7 33 -8 273 -164 247 -161
296 -187 565 -305 254 -112 367 -158 555 -226 74 -27 158 -60 185 -73 55 -27
320 -81 346 -71 9 3 74 -6 145 -21 71 -14 149 -28 174 -29 25 -2 99 -12 165
-24 66 -11 148 -23 183 -27 34 -4 65 -11 68 -15 7 -12 -13 -11 -151 6 -127 16
-151 18 -144 11 9 -9 233 -37 409 -51 225 -18 220 -18 200 -4 -16 11 64 7 210
-11 41 -5 102 -9 136 -10 47 0 61 -3 61 -15 0 -12 -18 -15 -98 -15 -63 0 -106
-5 -124 -14 -14 -8 -22 -16 -17 -20 17 -10 348 -19 447 -11 95 8 97 9 50 16
-27 4 -81 10 -119 13 -37 3 -70 7 -72 9 -3 2 40 7 93 10 243 16 278 17 258 8
-11 -5 -42 -10 -69 -10 -27 -1 -46 -4 -42 -8 10 -10 395 -3 420 8 13 5 -28 7
-104 4 -157 -7 -132 10 31 20 63 4 119 10 124 14 6 3 62 11 125 18 63 6 169
20 234 31 73 12 129 16 145 12 14 -5 22 -9 16 -9 -78 -7 -232 -41 -185 -41 10
0 10 -3 -1 -17 -13 -15 -11 -16 11 -10 14 3 48 9 75 13 28 3 55 11 62 16 7 5
40 12 75 14 165 10 828 169 813 195 -9 14 43 32 97 34 33 1 73 15 140 48 51
26 82 44 68 40 -14 -4 -38 -8 -55 -8 -16 -1 -39 -6 -50 -12 -11 -5 -54 -20
-95 -33 -41 -12 -130 -44 -198 -71 -127 -51 -359 -119 -405 -119 -14 0 -73
-11 -132 -25 -59 -14 -110 -24 -112 -21 -2 2 20 9 49 16 39 10 48 15 34 20
-25 8 50 30 245 70 89 19 245 64 409 119 146 49 281 93 300 96 54 11 267 93
340 130 36 19 119 60 185 91 137 65 259 134 425 240 97 62 203 140 163 119
-34 -17 -5 9 79 72 112 82 135 96 142 84 8 -12 -95 -104 -151 -138 -24 -14
-43 -27 -43 -29 0 -7 49 15 87 39 73 46 91 50 49 12 -64 -57 -216 -146 -245
-143 -19 2 -60 -20 -142 -75 -65 -42 -166 -102 -225 -133 -115 -58 -138 -74
-113 -74 9 0 66 27 127 60 62 33 117 60 122 60 13 0 207 109 330 185 149 93
286 198 326 250 111 145 155 192 252 272 130 107 326 282 487 437 66 63 121
113 123 111 9 -9 -464 -464 -547 -526 -65 -49 -156 -137 -149 -144 4 -4 26 9
49 29 23 20 62 45 86 57 24 11 43 25 43 30 0 11 43 54 220 219 74 69 124 111
112 93 -13 -18 -62 -68 -109 -112 -48 -45 -84 -81 -79 -81 20 0 180 155 279
270 60 70 133 151 163 180 29 30 71 78 92 105 38 49 276 327 391 455 101 114
196 241 278 375 155 252 263 449 348 635 31 69 77 168 102 220 110 232 200
485 233 660 66 352 92 473 115 543 14 43 25 85 25 95 0 10 8 25 19 34 11 9 21
36 25 64 4 27 12 62 18 77 8 22 8 31 -1 36 -16 11 12 211 32 226 25 18 41 192
43 470 1 143 5 364 9 490 6 190 5 245 -8 315 -9 47 -19 119 -22 160 -3 41 -14
107 -24 145 l-19 70 -1 -66 c-1 -36 5 -85 13 -110 16 -49 30 -222 17 -201 -9
15 -6 -212 5 -498 9 -211 5 -540 -6 -578 -5 -15 -9 -20 -10 -12 -1 8 -8 -3
-15 -25 -12 -39 -13 -36 -20 78 -4 64 -3 226 3 360 11 254 2 662 -16 707 -12
32 -35 201 -34 257 0 47 10 85 20 79 26 -16 -3 306 -33 364 -7 14 -16 54 -20
90 -4 36 -18 116 -31 179 -13 63 -22 116 -20 118 1 2 16 -35 31 -82 16 -48 32
-88 36 -91 8 -5 -32 151 -51 201 -6 17 -18 62 -26 100 -9 47 -35 113 -79 200
-64 128 -79 147 -50 65 16 -45 12 -70 -4 -29 -5 13 -31 74 -59 134 -27 61 -66
154 -86 208 -20 55 -46 121 -56 148 -11 27 -15 49 -10 49 11 0 49 -82 57 -123
3 -17 11 -26 18 -23 12 4 76 -122 140 -276 15 -38 30 -68 33 -68 4 0 1 13 -14
75 -4 15 -1 14 10 -5 9 -14 15 -21 16 -17 0 15 -83 202 -100 224 -9 12 -32 56
-50 98 -27 63 -31 78 -19 85 11 7 7 17 -19 52 -17 24 -40 59 -49 78 -175 350
-430 789 -476 817 -12 8 -7 -1 54 -92 25 -38 57 -90 69 -115 12 -25 37 -65 55
-90 31 -42 124 -206 138 -243 13 -34 -2 -15 -44 56 -23 39 -97 153 -162 252
-207 310 -217 327 -217 341 0 37 -155 242 -365 484 -89 102 -174 203 -190 225
-16 22 -59 76 -95 120 -36 44 -72 89 -80 100 -32 42 25 -8 145 -129 125 -126
291 -330 410 -504 39 -56 75 -102 80 -102 13 0 69 -73 115 -148 17 -28 35 -50
39 -47 4 2 33 -35 64 -83 31 -48 66 -93 78 -100 17 -11 11 6 -31 85 -47 86
-94 168 -141 241 -14 23 -36 32 -23 10 19 -35 -36 31 -129 156 -58 76 -115
159 -127 185 -44 89 -147 198 -379 405 l-35 31 33 -39 c18 -21 30 -40 28 -43
-6 -6 -116 111 -137 145 -10 15 -52 60 -96 99 -75 69 -98 106 -38 62 33 -24
-20 28 -192 187 -65 60 -126 114 -134 118 -8 4 6 -12 33 -36 26 -24 47 -48 47
-53 0 -5 12 -22 28 -38 l27 -30 -25 12 c-14 7 4 -14 40 -46 106 -94 186 -176
168 -169 -10 3 -18 2 -18 -1 0 -4 8 -16 18 -27 41 -47 -54 31 -171 141 -67 63
-148 133 -181 155 -32 22 -93 68 -135 102 -185 147 -297 229 -359 262 -37 20
-81 49 -98 64 -34 29 -186 125 -244 154 l-35 18 30 -27 c27 -24 28 -25 5 -14
-65 31 -167 94 -181 112 -55 68 -403 233 -689 325 -702 227 -1176 339 -1509
357 -113 6 -193 21 -165 32 7 2 65 -3 130 -12 139 -18 172 -19 158 -5 -8 8
-230 37 -429 55 -207 19 -720 36 -830 29z m1994 -389 c75 -16 101 -25 65 -25
-32 0 -153 28 -171 40 -15 9 -14 9 7 5 14 -3 58 -12 99 -20z m2917 -2017 l29
-33 -32 29 c-18 17 -33 31 -33 33 0 8 8 1 36 -29z m829 -913 c90 -137 186
-328 236 -466 21 -58 60 -160 87 -225 61 -146 114 -295 108 -302 -3 -3 -10 6
-15 19 -68 179 -171 420 -242 568 -49 101 -87 186 -85 189 3 2 21 -28 40 -67
38 -75 57 -96 31 -34 -26 62 -176 316 -205 348 -26 28 -60 85 -60 101 0 18 41
-32 105 -131z m534 -1298 c1 -5 -3 -5 -9 -2 -5 3 -10 16 -9 28 0 21 1 21 9 2
5 -11 9 -24 9 -28z m176 -1073 c11 -90 -11 -67 -28 29 -23 127 -21 172 3 88
10 -36 21 -88 25 -117z m34 -243 c0 -35 -2 -62 -5 -59 -3 3 -12 50 -20 104
-12 81 -12 103 -2 123 12 23 13 20 19 -40 4 -35 7 -93 8 -128z m61 -704 c-6
-100 -18 -236 -26 -302 -8 -66 -19 -176 -24 -245 -6 -68 -13 -127 -17 -130 -9
-8 8 494 17 505 7 10 20 92 40 270 5 50 10 95 11 100 0 6 3 4 6 -3 3 -8 0 -95
-7 -195z m-143 -779 c-3 -8 -6 -5 -6 6 -1 11 2 17 5 13 3 -3 4 -12 1 -19z
m-10 -55 c-3 -10 -5 -4 -5 12 0 17 2 24 5 18 2 -7 2 -21 0 -30z m-63 -210 c-4
-27 -8 -77 -9 -113 -1 -47 -12 -97 -40 -178 -21 -62 -40 -110 -43 -107 -3 3
-11 0 -19 -6 -18 -16 -18 -15 33 186 41 162 73 265 83 265 2 0 0 -21 -5 -47z
m70 -604 c-40 -155 -64 -219 -244 -643 -38 -89 -51 -90 -20 -1 11 32 20 65 19
74 -1 24 -55 -100 -80 -181 -29 -97 -57 -159 -123 -270 -31 -52 -56 -100 -56
-106 0 -7 -16 -37 -35 -67 -19 -30 -46 -78 -61 -107 -32 -63 -128 -209 -194
-293 -25 -33 -59 -86 -74 -118 -15 -32 -38 -64 -50 -73 -13 -8 -54 -53 -91
-100 -37 -47 -70 -83 -72 -80 -6 6 57 94 87 121 32 29 90 111 95 132 1 11 35
68 74 128 66 101 79 125 66 125 -2 0 -41 -56 -86 -125 -44 -69 -85 -125 -89
-125 -12 0 -206 -282 -233 -338 -44 -91 -153 -218 -216 -252 -60 -31 -24 21
109 160 67 70 260 343 260 368 0 7 24 40 53 74 162 193 404 557 392 591 -7 16
55 124 70 124 10 -1 144 249 164 307 9 25 9 27 -4 16 -9 -8 0 23 21 71 66 153
132 323 153 394 13 44 28 75 41 83 11 7 20 8 20 4 0 -28 -26 -141 -51 -223
-16 -53 -29 -100 -29 -105 2 -31 115 272 176 469 20 65 38 116 41 114 2 -3
-13 -69 -33 -148z m-234 -74 c-58 -174 -150 -385 -168 -385 -9 0 -82 -165 -82
-184 0 -5 9 -1 20 9 11 10 20 15 20 10 0 -20 -87 -169 -101 -172 -24 -7 -75
-103 -55 -103 8 0 22 10 30 22 34 49 12 -6 -59 -148 -41 -81 -82 -155 -90
-163 -21 -21 -31 -5 -18 29 6 17 10 30 8 30 -2 0 -27 -40 -56 -90 -28 -49 -53
-90 -55 -90 -2 0 25 55 60 123 36 67 74 145 84 172 11 28 45 95 75 150 30 55
62 114 70 130 25 48 172 413 197 490 48 145 146 345 170 345 5 0 -18 -79 -50
-175z m-916 -1647 c-25 -49 -129 -197 -170 -243 -19 -22 -32 -33 -28 -25 10
21 206 300 211 300 2 0 -4 -15 -13 -32z m-94 -265 c-24 -32 -78 -92 -119 -133
-42 -41 -158 -165 -258 -276 -185 -205 -341 -357 -448 -437 -33 -25 -96 -78
-140 -119 -44 -41 -107 -90 -140 -108 -33 -19 -102 -65 -154 -102 -198 -144
-438 -286 -736 -435 -93 -46 -192 -99 -220 -115 -47 -29 -140 -61 -210 -73
-24 -4 -20 0 20 20 28 13 73 34 100 46 28 13 44 24 36 27 -10 3 -7 8 10 18 16
9 19 13 8 14 -8 0 -37 -14 -65 -31 -27 -18 -89 -51 -139 -75 -49 -24 -105 -54
-124 -66 -76 -48 -317 -149 -457 -191 -294 -87 -332 -97 -380 -97 -27 0 -124
-16 -216 -34 -266 -55 -383 -74 -553 -91 -151 -15 -639 -30 -585 -18 14 2 30
9 35 13 16 13 340 31 367 21 29 -11 409 40 473 64 48 17 190 35 225 28 29 -5
224 38 430 94 146 41 157 57 15 24 -119 -29 -122 -26 -30 18 83 40 366 122
407 119 24 -2 212 61 205 69 -2 2 -16 -1 -31 -7 -15 -5 -25 -6 -22 -1 3 5 48
25 98 46 90 36 595 259 708 313 30 14 70 42 90 62 19 20 94 71 165 114 73 43
166 109 213 151 45 40 112 92 147 115 36 23 65 47 65 52 0 12 -5 9 -125 -79
-55 -41 -111 -76 -125 -80 -14 -3 -50 -23 -80 -45 l-55 -39 45 42 c25 23 64
51 88 61 24 11 45 25 48 32 3 7 42 39 87 71 45 32 115 85 154 117 82 65 101
74 57 26 -23 -27 -24 -29 -3 -10 30 26 44 28 35 6 -7 -19 -1 -15 96 58 42 32
80 58 83 58 4 0 37 23 74 52 78 61 99 74 56 35 -46 -43 -249 -193 -445 -331
-95 -67 -164 -126 -147 -126 3 0 50 31 103 70 53 38 100 70 105 70 4 0 25 15
46 33 34 29 36 30 16 5 -11 -15 -48 -51 -82 -79 -100 -86 -72 -75 56 19 182
136 483 411 856 786 163 165 300 296 304 293 3 -4 -14 -32 -37 -64z m-1600
-1228 c0 -2 -10 -9 -22 -15 -22 -11 -22 -10 -4 4 21 17 26 19 26 11z m-5888
-379 c115 -42 148 -57 148 -68 0 -11 -10 -10 -64 8 -26 9 -49 14 -52 12 -2 -3
44 -19 104 -37 59 -18 141 -48 182 -66 41 -18 126 -49 187 -69 107 -36 146
-56 106 -56 -42 0 16 -28 101 -48 50 -12 98 -30 110 -41 34 -31 555 -173 630
-171 19 1 -27 30 -48 30 -10 0 -17 3 -14 6 3 3 57 -4 119 -15 70 -12 186 -22
299 -26 166 -5 283 -15 378 -31 19 -3 32 -1 32 6 0 5 -10 10 -22 10 -13 0 -30
5 -38 10 -24 16 26 12 105 -7 l70 -17 -45 -8 c-63 -9 -159 -10 -195 0 -17 4
-46 5 -65 2 -27 -4 -9 -9 75 -19 61 -8 128 -17 150 -21 l40 -8 -45 -1 c-109
-3 -555 42 -849 85 -207 30 -630 135 -667 165 -7 5 -83 34 -170 63 -320 108
-391 135 -397 149 -3 7 -66 41 -141 77 -75 35 -134 65 -132 67 2 2 14 0 27 -5
13 -5 42 -12 64 -16 36 -6 32 -2 -32 28 -40 19 -73 37 -73 40 0 12 32 5 122
-28z m3885 -702 c-3 -3 -12 -4 -19 -1 -8 3 -5 6 6 6 11 1 17 -2 13 -5z m-1990
-10 c-3 -3 -12 -4 -19 -1 -8 3 -5 6 6 6 11 1 17 -2 13 -5z"/>
<path d="M12090 3829 c-7 -11 -10 -23 -7 -25 2 -2 9 7 15 21 14 30 7 33 -8 4z"/>
<path d="M11708 3028 c-17 -15 -31 -48 -20 -48 4 0 16 14 25 30 20 33 19 36
-5 18z"/>
<path d="M10677 1980 c-23 -22 -37 -40 -32 -40 6 0 29 18 50 40 51 52 37 52
-18 0z"/>
<path d="M9772 1252 c-45 -30 -47 -50 -3 -28 29 15 69 56 55 56 -5 0 -28 -13
-52 -28z"/>
<path d="M9585 1149 c-27 -16 -57 -34 -65 -39 -54 -34 -259 -155 -332 -195
-48 -27 -86 -50 -84 -52 1 -2 46 17 99 42 53 25 99 45 103 45 15 0 262 140
275 157 8 9 32 29 53 45 54 39 17 37 -49 -3z"/>
<path d="M3822 715 c4 -5 27 -17 50 -27 24 -11 39 -15 33 -9 -5 5 -28 17 -50
27 -22 9 -37 13 -33 9z"/>
<path d="M4948 12643 c7 -3 16 -2 19 1 4 3 -2 6 -13 5 -11 0 -14 -3 -6 -6z"/>
<path d="M5378 12633 c6 -2 18 -2 25 0 6 3 1 5 -13 5 -14 0 -19 -2 -12 -5z"/>
<path d="M7351 12626 c11 -9 69 -15 64 -6 -3 6 -20 10 -37 10 -17 0 -29 -2
-27 -4z"/>
<path d="M4460 12520 c-254 -79 -537 -182 -626 -228 l-39 -21 46 4 c26 2 107
26 180 53 190 71 486 172 502 172 28 0 117 43 117 56 0 20 -6 18 -180 -36z"/>
<path d="M6760 12421 c-12 -8 -12 -14 -1 -34 12 -22 23 -26 115 -36 186 -21
262 -24 282 -13 18 11 17 11 -6 12 -14 0 -32 5 -40 11 -11 8 9 9 70 4 50 -3
91 -12 100 -20 10 -9 55 -15 150 -19 74 -3 151 -8 170 -11 24 -4 30 -3 20 3
-18 11 -245 55 -430 83 -158 23 -408 35 -430 20z"/>
<path d="M7360 12296 c0 -8 166 -56 193 -56 14 0 55 -9 91 -20 37 -12 103 -25
147 -30 82 -9 200 -39 267 -67 20 -8 87 -30 147 -48 61 -18 128 -41 150 -52
50 -25 145 -57 151 -50 3 2 -23 15 -57 27 -33 13 -76 34 -95 47 -35 23 -221
84 -377 123 -45 12 -143 38 -217 60 -74 21 -160 43 -190 48 -66 13 -210 25
-210 18z"/>
<path d="M7960 12248 c5 -5 204 -65 286 -87 26 -7 44 -18 46 -29 4 -14 22 -22
69 -31 116 -24 281 -83 474 -171 219 -99 358 -175 420 -229 17 -14 102 -64
189 -111 86 -47 231 -134 322 -194 91 -59 168 -105 172 -101 4 3 -1 11 -11 16
-9 6 -54 38 -99 73 -46 34 -123 86 -173 115 -49 29 -108 68 -130 86 -81 66
-484 285 -524 285 -9 0 -70 27 -136 60 -106 53 -521 212 -740 284 -74 25 -177
46 -165 34z"/>
<path d="M3455 12100 c-8 -13 5 -13 25 0 13 8 13 10 -2 10 -9 0 -20 -4 -23
-10z"/>
<path d="M3350 12040 c-20 -11 -28 -19 -19 -20 9 0 27 9 40 20 30 24 24 24
-21 0z"/>
<path d="M8390 12046 c0 -6 123 -46 127 -42 3 2 -21 13 -52 25 -55 21 -75 25
-75 17z"/>
<path d="M3193 11980 c-85 -44 -106 -60 -81 -60 16 0 178 87 178 96 0 10 -24
1 -97 -36z"/>
<path d="M8587 11998 c23 -12 43 -28 46 -37 2 -9 22 -25 45 -36 22 -11 38 -23
36 -27 -3 -4 44 -30 103 -59 323 -153 614 -319 760 -431 23 -18 74 -55 114
-83 40 -27 158 -116 263 -198 105 -81 252 -190 326 -242 156 -109 352 -264
495 -391 60 -53 92 -77 81 -59 -11 17 -25 41 -32 53 -7 13 -38 47 -69 74 -37
33 -54 56 -50 66 8 21 -172 197 -335 326 -218 173 -437 316 -789 515 -79 45
-162 94 -185 110 -52 36 -224 134 -343 196 -98 51 -118 69 -39 35 77 -33 67
-22 -24 25 -53 28 -99 44 -122 44 -20 1 -58 10 -85 22 -26 11 -59 25 -72 30
-41 16 -16 20 28 4 50 -17 45 -1 -7 21 -45 19 -173 64 -181 63 -3 0 13 -10 36
-21z"/>
<path d="M9520 11626 c0 -3 9 -10 20 -16 11 -6 20 -8 20 -6 0 3 -9 10 -20 16
-11 6 -20 8 -20 6z"/>
<path d="M10210 11401 c44 -36 200 -142 200 -137 0 9 -159 125 -194 142 l-31
15 25 -20z"/>
<path d="M2228 11308 c-45 -37 -62 -68 -38 -68 20 0 92 76 89 92 -3 13 -14 8
-51 -24z"/>
<path d="M2127 11195 c-38 -26 -53 -54 -19 -36 17 9 69 61 61 61 -2 0 -21 -11
-42 -25z"/>
<path d="M1916 11019 c-64 -61 -116 -116 -116 -121 0 -12 159 136 208 192 18
22 31 40 28 40 -2 0 -57 -50 -120 -111z"/>
<path d="M11060 10231 c0 -5 7 -15 17 -22 15 -13 15 -12 4 9 -12 23 -21 28
-21 13z"/>
<path d="M11903 9518 c25 -46 64 -121 87 -167 22 -45 43 -81 46 -78 12 12
-150 327 -169 327 -5 0 11 -37 36 -82z"/>
<path d="M12328 7110 c-2 -30 -1 -63 4 -72 4 -9 8 -50 8 -90 0 -40 5 -80 11
-88 13 -18 4 227 -9 275 -8 28 -9 26 -14 -25z"/>
<path d="M182 7000 c0 -14 2 -19 5 -12 2 6 2 18 0 25 -3 6 -5 1 -5 -13z"/>
<path d="M2 6290 c-2 -102 27 -630 37 -680 5 -25 19 -65 30 -90 l20 -45 0 50
c1 58 -21 197 -38 238 -6 16 -11 74 -11 130 0 56 -5 131 -11 167 -6 36 -14
117 -18 180 -6 84 -8 98 -9 50z"/>
<path d="M50 5353 c0 -22 49 -298 65 -370 18 -79 38 -100 30 -30 l-5 42 16
-35 c9 -19 31 -96 50 -170 32 -131 67 -230 82 -230 5 0 16 -25 27 -55 10 -30
21 -55 25 -55 8 0 -65 236 -93 302 -18 42 -59 223 -82 358 -22 128 -35 170
-51 163 -8 -3 -11 -17 -8 -41 2 -20 -5 -3 -17 38 -19 68 -39 112 -39 83z"/>
<path d="M371 4734 c-2 -23 42 -171 59 -199 10 -16 37 -78 60 -137 23 -59 46
-111 52 -114 7 -5 9 -2 6 7 -3 8 -41 106 -85 219 -44 113 -83 212 -86 220 -3
8 -6 10 -6 4z"/>
<path d="M200 4614 c0 -20 99 -302 152 -433 52 -131 157 -345 164 -338 3 2
-11 39 -30 81 -20 43 -32 84 -29 93 4 10 2 14 -4 10 -6 -4 -20 14 -32 43 -42
97 -82 214 -78 229 1 9 11 -4 20 -29 l17 -45 -4 42 c-6 60 -38 141 -46 118 -4
-12 -20 21 -46 101 -27 82 -44 119 -54 119 -8 0 -18 5 -22 10 -5 6 -8 6 -8 -1z"/>
<path d="M471 4362 c-2 -46 181 -513 195 -499 3 3 -12 44 -32 93 -59 141 -124
317 -124 334 0 8 -9 33 -19 55 -16 32 -20 35 -20 17z"/>
<path d="M391 4183 c-1 -16 51 -144 56 -139 2 2 -10 37 -26 77 -17 41 -30 68
-30 62z"/>
<path d="M11308 2957 c-86 -130 -106 -167 -94 -167 8 0 144 208 170 258 37 72
7 35 -76 -91z"/>
<path d="M11074 2121 c-81 -79 -184 -196 -184 -209 1 -4 44 38 96 93 94 98
179 195 172 195 -1 0 -39 -36 -84 -79z"/>
<path d="M10577 2073 c-58 -47 -72 -72 -19 -34 17 12 36 21 44 21 14 0 58 40
58 53 0 17 -29 2 -83 -40z"/>
<path d="M1965 1749 c84 -85 335 -299 350 -299 14 0 -22 35 -135 129 -63 53
-153 133 -201 179 -48 45 -90 82 -95 82 -5 0 32 -41 81 -91z"/>
<path d="M10440 1510 c-19 -17 -30 -30 -24 -30 6 0 23 14 39 30 36 38 30 38
-15 0z"/>
<path d="M2275 1510 c3 -5 11 -10 16 -10 6 0 7 5 4 10 -3 6 -11 10 -16 10 -6
0 -7 -4 -4 -10z"/>
<path d="M2270 1456 c0 -2 8 -10 18 -17 15 -13 16 -12 3 4 -13 16 -21 21 -21
13z"/>
<path d="M9677 996 c-59 -41 -73 -55 -29 -30 33 19 91 63 82 63 -3 0 -27 -15
-53 -33z"/>
<path d="M8990 600 c-30 -16 -50 -29 -45 -29 6 0 35 13 65 29 30 16 51 29 45
29 -5 0 -35 -13 -65 -29z"/>
<path d="M5555 59 c11 -4 70 -7 130 -7 77 0 100 2 76 8 -44 11 -233 10 -206
-1z"/>
</g>
</svg>
