<svg version="1.0" xmlns="http://www.w3.org/2000/svg"
 width="1237.000000pt" height="1280.000000pt" viewBox="0 0 1237.000000 1280.000000"
 preserveAspectRatio="xMidYMid meet" fill="#000000" stroke="none">
<g transform="translate(0.000000,1280.000000) scale(0.100000,-0.100000)">
<path d="M5185 12789 c-187 -19 -452 -75 -448 -94 1 -6 5 -19 9 -29 6 -17 4
-18 -27 -13 -19 3 -64 9 -101 13 -58 5 -68 4 -68 -9 0 -9 -28 -32 -62 -53 -35
-20 -72 -45 -83 -55 -15 -13 -51 -20 -150 -29 -171 -15 -524 -60 -553 -71 -22
-8 -22 -10 -7 -40 21 -40 93 -73 138 -64 22 5 29 4 22 -3 -19 -21 -192 -71
-360 -106 -93 -19 -201 -45 -240 -57 l-70 -22 35 -12 35 -12 -91 -22 c-116
-29 -121 -32 -106 -67 7 -14 11 -28 10 -30 -2 -1 -68 -36 -148 -76 -80 -41
-222 -122 -316 -180 -198 -123 -294 -173 -366 -192 l-52 -13 42 -28 c23 -15
42 -31 42 -34 0 -4 -70 -38 -156 -75 -85 -38 -153 -70 -151 -72 2 -2 37 7 77
21 40 14 75 24 76 22 2 -2 -22 -23 -54 -47 -370 -287 -882 -705 -882 -721 0
-5 11 -9 25 -9 23 0 24 -2 15 -20 -6 -12 -39 -42 -72 -68 l-61 -47 37 -5 37
-5 -67 -80 c-152 -183 -258 -349 -414 -650 -126 -245 -189 -357 -284 -510 -84
-135 -110 -185 -97 -185 4 0 29 29 55 65 53 72 71 82 61 33 -14 -64 -92 -201
-176 -310 -14 -19 -17 -28 -7 -28 7 0 45 34 85 75 40 41 77 75 83 75 15 0 12
-84 -5 -106 -19 -25 -19 -48 0 -40 46 17 59 -37 26 -102 -17 -34 -27 -40 -95
-62 -42 -13 -81 -30 -87 -37 -13 -15 -7 -86 11 -129 11 -26 10 -40 -9 -102
-20 -65 -61 -132 -82 -132 -9 0 -24 53 -34 123 -4 31 -11 47 -20 47 -16 0 -54
-68 -80 -145 -24 -72 -21 -185 11 -370 38 -217 39 -417 5 -550 -28 -106 -25
-186 8 -219 l21 -20 44 21 c24 12 47 19 50 16 9 -10 7 -73 -5 -137 -6 -32 -9
-60 -6 -62 2 -2 29 58 59 133 30 76 59 137 63 137 5 -1 22 -26 37 -55 26 -51
27 -57 18 -117 -8 -47 -20 -74 -47 -110 -20 -26 -51 -78 -69 -117 -38 -81 -55
-141 -22 -75 41 79 62 62 108 -92 25 -83 51 -118 77 -102 10 6 28 28 41 50
l23 39 -6 -63 c-6 -50 -4 -62 6 -60 11 2 15 -20 19 -97 6 -109 4 -112 37 54
27 137 57 182 94 144 15 -15 20 -43 25 -155 4 -75 10 -142 14 -148 5 -9 13 -8
29 2 19 11 27 10 61 -9 68 -40 70 -37 90 77 28 159 117 504 169 654 12 33 21
62 21 65 0 3 -24 -19 -54 -48 -67 -66 -81 -62 -73 22 4 42 16 81 42 130 26 49
39 89 43 129 5 65 -2 71 -38 32 -19 -19 -21 -27 -12 -33 9 -5 12 -24 10 -52
-2 -35 -8 -46 -28 -56 -37 -18 -50 -1 -50 68 0 72 29 153 77 216 39 51 53 89
53 144 0 50 -18 63 -80 54 -56 -8 -61 -1 -24 34 41 39 71 109 120 278 38 132
59 189 102 276 2 4 -18 -6 -46 -22 -27 -17 -53 -31 -57 -31 -13 0 5 120 27
179 26 69 89 169 151 237 26 29 47 54 47 56 0 2 -15 2 -34 0 l-35 -4 29 73
c16 41 40 124 55 184 15 61 37 130 48 155 28 60 84 114 141 135 26 10 45 23
43 29 -7 17 99 218 140 265 20 24 50 52 67 62 28 17 31 24 31 70 0 50 0 51 40
64 45 16 78 51 135 145 22 36 49 81 62 99 13 21 16 31 8 25 -8 -5 -60 -9 -115
-9 -55 0 -108 -4 -118 -9 -16 -8 -16 -3 6 40 47 92 100 125 230 143 118 16
207 70 207 123 0 31 -12 27 -135 -42 l-60 -34 80 85 c44 47 131 159 194 249
131 186 218 284 288 323 56 30 137 51 170 42 22 -5 21 -6 -19 -76 -22 -38 -38
-72 -35 -75 6 -6 129 40 161 61 36 24 33 39 -4 20 -20 -10 -36 -13 -46 -7 -26
14 110 132 214 185 112 57 180 79 382 122 91 20 196 45 235 56 81 24 225 88
225 100 0 9 -17 14 -72 24 -49 8 -55 21 -19 40 41 21 112 19 196 -5 113 -32
204 -22 294 33 l35 21 -32 13 c-18 7 -32 17 -32 22 0 18 91 35 130 24 37 -9
38 -9 53 23 23 48 109 84 362 153 305 83 390 119 480 202 l42 39 57 -19 c149
-52 374 -85 577 -86 153 0 156 0 197 28 66 43 56 68 -45 122 -69 37 -95 62
-91 88 3 19 8 22 43 19 22 -2 96 -22 165 -44 92 -29 150 -42 220 -46 l95 -7
-26 -26 c-14 -15 -62 -47 -106 -73 -44 -25 -88 -55 -97 -65 -36 -40 3 -74 121
-105 48 -13 53 -12 82 8 17 11 31 23 31 26 0 3 -33 4 -74 2 -77 -4 -136 14
-136 42 0 17 14 22 105 41 69 15 78 14 211 -10 184 -34 317 -64 327 -74 12
-12 -2 -37 -30 -52 -18 -10 -59 -14 -135 -13 -61 1 -106 -2 -101 -6 4 -5 159
-10 343 -13 467 -7 584 -27 824 -145 4 -2 5 5 1 17 -7 22 4 28 21 12 5 -6 38
-24 73 -41 78 -39 156 -48 253 -30 68 13 72 13 114 -9 24 -13 68 -50 98 -82
47 -51 59 -59 90 -59 31 0 37 4 50 35 10 24 22 35 35 35 26 0 114 -33 149 -56
l26 -17 -24 -19 c-12 -10 -21 -20 -19 -22 12 -11 118 -73 140 -83 14 -6 52
-14 84 -18 54 -7 62 -12 131 -78 l74 -70 0 67 c0 36 4 66 8 66 23 0 197 -220
352 -445 57 -82 136 -193 176 -245 73 -97 213 -240 233 -240 22 0 11 75 -19
128 -17 28 -43 76 -60 105 -51 89 -33 75 39 -31 77 -113 184 -245 363 -450
246 -280 367 -444 445 -602 41 -83 42 -85 20 -88 -32 -5 -47 -21 -69 -72 -37
-85 -60 -96 -120 -55 -36 25 -37 25 -31 80 5 42 2 60 -12 82 -24 36 -136 167
-147 171 -15 6 -8 -65 12 -131 24 -78 107 -206 217 -337 200 -239 247 -314
241 -389 -2 -25 -6 -53 -9 -61 -3 -11 5 -16 26 -18 76 -7 75 -6 75 -80 0 -66
-11 -95 -37 -103 -9 -3 -1 -24 23 -64 20 -33 66 -115 101 -183 36 -68 68 -121
70 -118 12 12 21 239 13 331 -12 130 -33 197 -77 246 -36 39 -38 64 -8 75 10
4 34 -11 66 -41 30 -28 56 -44 65 -41 7 3 20 8 27 11 8 4 13 -11 15 -52 4 -92
17 -116 94 -185 52 -46 79 -79 100 -123 35 -75 35 -85 0 -85 -30 0 -53 -20
-66 -55 -4 -11 -12 -82 -17 -158 -4 -75 -13 -146 -19 -157 -8 -15 -6 -36 6
-82 12 -48 15 -94 12 -198 -2 -74 -9 -144 -15 -154 -8 -15 -1 -56 34 -185 82
-309 105 -425 112 -576 l6 -140 28 80 c15 44 37 98 50 119 23 40 72 84 83 74
3 -3 1 -32 -5 -64 -14 -74 -14 -138 0 -188 12 -42 62 -101 78 -92 16 10 41
141 41 211 0 63 -2 69 -33 99 -18 17 -56 43 -85 58 -72 38 -87 70 -87 183 0
82 3 94 28 130 15 22 37 69 49 105 20 57 23 85 23 222 0 87 1 158 3 158 2 0
16 -10 32 -21 18 -14 51 -24 90 -28 33 -3 61 -9 61 -14 0 -4 -11 -40 -23 -80
-34 -106 -31 -317 7 -567 46 -310 37 -554 -27 -642 -11 -17 -46 -46 -77 -65
-102 -65 -125 -96 -160 -220 -21 -77 -25 -73 -42 52 -7 50 -14 83 -15 75 -2
-8 -5 -32 -9 -53 -5 -33 -12 -41 -48 -56 -43 -18 -65 -52 -82 -121 -5 -21 2
-16 41 25 l46 50 -5 -89 c-4 -77 -10 -99 -41 -160 l-37 -71 58 58 c32 31 62
57 67 57 5 0 6 -40 3 -89 -6 -91 -23 -141 -54 -161 -16 -9 -15 -12 11 -34 27
-22 27 -25 13 -47 -16 -24 -39 -109 -30 -109 2 0 11 16 19 35 14 35 40 50 30
18 -37 -123 -33 -233 9 -233 8 0 24 -9 36 -21 17 -17 20 -29 15 -61 -5 -32 -3
-43 11 -53 14 -11 18 -28 18 -81 l0 -68 -34 -3 c-74 -6 -136 -67 -287 -284
-54 -78 -123 -167 -152 -197 -50 -52 -55 -54 -92 -49 -22 3 -40 1 -40 -4 0 -5
14 -9 30 -9 17 0 30 -2 30 -5 0 -3 -41 -60 -91 -126 -73 -97 -88 -123 -79
-134 7 -9 11 -41 10 -82 -4 -95 -6 -91 55 -108 36 -11 56 -23 60 -36 11 -35
-36 -111 -122 -198 -71 -72 -81 -86 -72 -103 6 -10 9 -23 7 -27 -7 -19 -144
-131 -160 -131 -9 0 -24 -10 -32 -22 -26 -37 -18 -44 15 -12 l32 29 -7 -49
c-8 -66 -44 -141 -94 -197 -23 -26 -105 -95 -183 -155 -125 -96 -216 -182
-243 -232 -5 -9 16 7 47 36 60 56 68 60 87 37 18 -22 -26 -85 -89 -126 -28
-18 -51 -36 -51 -39 0 -16 -378 -268 -480 -320 -40 -20 -56 -44 -22 -34 9 3
67 31 129 62 129 65 141 64 122 -13 -17 -68 -72 -118 -197 -184 -57 -29 -106
-51 -108 -48 -3 3 2 30 12 61 22 71 13 85 -41 59 -30 -14 -44 -32 -76 -95 -21
-43 -38 -87 -36 -99 2 -19 -17 -31 -143 -89 -80 -37 -190 -84 -245 -104 -154
-56 -146 -51 -98 -66 54 -17 80 -9 136 40 51 45 67 45 67 -2 0 -53 -59 -96
-287 -213 -232 -118 -231 -119 16 -64 74 16 136 27 139 24 3 -3 -35 -45 -85
-94 -272 -265 -688 -431 -1347 -536 -205 -32 -477 -67 -483 -62 -2 3 38 19 89
36 51 17 108 40 126 51 29 18 33 25 30 58 l-3 37 -90 -3 c-49 -2 -180 -12
-290 -22 -110 -11 -220 -21 -245 -23 -25 -3 -65 -13 -90 -23 -38 -15 -72 -17
-215 -16 -183 2 -261 -8 -297 -38 -36 -31 -8 -43 77 -34 39 4 89 8 113 8 27 0
42 5 42 13 0 21 47 26 204 20 178 -6 273 -24 416 -78 225 -84 257 -113 170
-156 -63 -31 -165 -56 -230 -57 -33 0 -110 15 -190 36 -244 65 -543 94 -840
83 -173 -7 -175 -8 -298 -51 -68 -24 -130 -44 -139 -44 -32 0 -87 55 -148 150
-35 54 -79 110 -98 124 -41 32 -129 64 -195 73 l-47 6 49 -51 49 -50 -46 -7
c-26 -4 -64 -5 -87 -3 -22 2 -40 1 -40 -2 0 -6 288 -178 387 -232 35 -18 61
-37 60 -43 -6 -19 -100 -36 -162 -30 -118 12 -263 74 -515 220 -192 111 -261
147 -266 142 -3 -3 28 -27 68 -53 88 -58 74 -67 -50 -30 -255 77 -466 202
-861 510 -243 189 -262 202 -285 193 -27 -10 -19 -23 57 -88 89 -77 126 -119
127 -141 0 -30 -19 -30 -62 0 -24 16 -90 53 -148 82 -129 64 -186 103 -203
137 -9 17 -17 22 -21 14 -14 -22 -63 -10 -135 34 -41 25 -78 44 -83 43 -4 -2
8 -26 27 -55 19 -29 35 -55 35 -59 0 -8 -77 37 -198 118 -269 180 -574 482
-820 813 -151 202 -330 490 -434 700 -28 55 -52 102 -54 104 -2 2 -15 -10 -29
-27 -14 -17 -35 -32 -46 -34 -18 -3 -17 -7 14 -53 120 -178 270 -463 306 -579
12 -38 19 -71 17 -73 -2 -3 -18 5 -35 18 -31 23 -67 70 -93 123 l-15 29 -6
-32 c-6 -27 -10 -30 -24 -22 -45 24 -112 95 -142 151 -26 48 -101 248 -101
268 0 2 12 -3 26 -13 14 -9 27 -15 29 -13 3 2 -10 46 -27 98 -27 85 -31 113
-37 260 -7 164 -7 167 -43 242 -57 120 -103 185 -146 207 -45 23 -57 18 -67
-29 -8 -39 -31 -80 -45 -80 -5 0 -12 10 -15 23 -4 12 -45 90 -91 172 -98 177
-134 266 -134 335 0 28 3 50 8 50 4 0 27 -48 51 -105 46 -111 78 -167 62 -110
-5 17 -25 82 -44 145 -45 142 -77 275 -77 317 0 37 -16 52 -25 23 -12 -36 -21
-21 -37 63 l-16 82 5 -65 c6 -78 -8 -100 -45 -74 -32 22 -60 82 -88 187 -16
62 -22 77 -19 47 2 -25 9 -121 15 -215 15 -250 28 -340 61 -440 31 -91 116
-265 130 -265 4 0 5 16 2 35 -3 19 -2 35 3 35 14 0 79 -108 127 -210 25 -52
75 -178 112 -280 37 -102 85 -220 106 -262 22 -43 39 -80 39 -83 0 -3 -9 -1
-19 5 -28 14 -58 12 -64 -5 -6 -15 394 -506 612 -750 228 -256 459 -472 685
-640 l111 -83 49 -108 c27 -60 51 -111 53 -113 2 -3 18 10 36 28 l34 32 62
-42 c78 -52 89 -74 67 -128 -15 -38 -14 -46 7 -42 5 1 38 -25 73 -58 89 -82
120 -95 203 -87 56 5 72 3 105 -14 21 -12 40 -19 42 -17 8 8 -78 97 -156 162
-86 72 -107 108 -75 131 16 12 25 7 83 -48 88 -81 205 -167 456 -332 239 -157
336 -242 357 -316 7 -25 13 -46 14 -48 3 -5 466 -145 716 -217 624 -179 1097
-277 1484 -307 147 -11 205 -8 205 12 0 5 -11 12 -25 16 -14 3 -25 10 -25 15
0 4 19 1 43 -8 29 -11 77 -16 157 -17 124 0 180 8 422 60 163 35 246 42 266
22 18 -18 111 50 152 110 l35 51 165 1 c155 0 353 19 368 35 4 4 -14 5 -40 3
-27 -3 -48 -2 -48 3 0 4 24 10 53 13 148 15 158 15 151 4 -5 -8 -1 -9 12 -4
10 5 46 15 79 22 209 50 444 134 975 347 184 74 362 143 395 153 59 19 59 19
25 24 -43 6 -49 28 -21 92 19 44 20 45 75 51 169 17 450 161 712 365 126 97
324 280 324 298 0 8 -12 27 -26 41 -30 30 -37 22 94 93 87 48 111 70 77 70 -8
0 -15 4 -15 8 0 10 278 283 493 486 167 157 297 305 350 396 33 56 68 130 63
130 -1 0 -30 -27 -63 -60 -54 -54 -64 -60 -101 -60 -23 0 -42 5 -42 10 0 6 26
50 58 98 117 174 512 813 512 828 0 3 -7 4 -15 0 -8 -3 -15 -1 -15 5 0 18 53
114 111 201 33 48 59 91 59 97 0 5 -15 18 -34 29 l-35 20 34 64 c18 35 65 154
104 266 60 170 127 331 146 350 2 3 11 -1 20 -8 22 -18 28 -8 14 26 -6 16 -13
23 -16 17 -10 -28 -23 -11 -23 30 0 49 24 134 104 359 71 203 97 302 105 411
3 48 4 87 2 87 -2 0 -18 -17 -36 -37 -41 -47 -55 -38 -55 37 0 59 1 60 35 75
49 20 70 73 84 208 13 129 30 171 81 197 l37 19 -22 83 c-12 46 -30 107 -39
137 -9 30 -15 55 -13 56 1 1 22 15 47 30 25 15 46 29 48 30 2 1 -11 23 -27 47
-35 52 -54 125 -45 176 3 21 17 81 31 136 32 130 38 207 23 294 -11 70 -22 88
-34 57 -3 -8 -10 -15 -16 -15 -7 0 -10 41 -8 122 3 124 13 153 37 102 6 -15
14 -24 17 -21 8 8 -35 250 -71 392 -38 151 -60 208 -77 203 -19 -7 -29 -71
-13 -81 7 -4 18 -22 24 -40 24 -74 41 -317 23 -317 -20 0 -55 53 -92 140 -44
99 -71 145 -103 171 -16 13 -18 23 -13 53 6 32 9 36 32 30 23 -6 24 -5 13 20
-14 30 -24 33 -37 11 -6 -13 -14 -14 -34 -6 -24 9 -27 16 -33 78 -9 100 -40
253 -75 373 -72 245 -100 357 -110 433 -9 75 -8 82 10 102 15 16 20 35 20 78
0 70 -17 83 -25 20 -4 -27 -10 -61 -14 -78 l-8 -30 -32 34 c-30 32 -87 130
-79 135 2 2 22 13 46 26 23 13 42 28 42 34 0 10 -142 276 -166 310 -16 24 -17
23 -44 -103 -11 -52 -22 -96 -24 -98 -6 -6 -67 105 -115 207 -21 47 -71 177
-110 291 -83 240 -119 330 -167 416 -28 51 -40 63 -60 63 -63 0 -124 61 -279
275 -116 160 -212 267 -287 318 -58 40 -128 72 -128 59 0 -4 19 -35 43 -67 85
-117 79 -119 -34 -10 -139 135 -176 165 -354 290 -161 112 -278 203 -350 270
l-50 47 70 -38 c69 -36 195 -114 604 -368 112 -70 214 -132 225 -138 19 -9 19
-9 6 5 -8 8 -62 55 -120 104 -58 49 -188 167 -290 263 -243 227 -306 282 -422
373 -151 117 -321 217 -476 280 -69 29 -75 23 -37 -38 32 -52 32 -65 -4 -65
-22 0 -44 14 -88 58 -41 41 -97 78 -193 130 -156 85 -179 104 -161 126 25 30
-39 32 -276 10 l-73 -7 -127 85 c-215 142 -424 262 -433 249 -6 -10 -33 -10
-126 -1 -295 28 -483 58 -1023 165 -473 93 -622 117 -855 140 -168 16 -495 18
-631 4z m2137 -428 c83 -21 208 -75 208 -89 0 -5 -24 -7 -53 -4 -39 3 -56 0
-65 -11 -11 -12 -6 -23 29 -63 37 -43 40 -49 24 -60 -15 -11 -13 -13 19 -19
20 -4 34 -11 31 -15 -6 -9 -61 2 -92 18 -12 7 -32 27 -44 44 -12 18 -32 41
-43 50 -21 17 -21 18 10 18 17 0 37 6 43 14 15 18 -1 31 -92 76 -67 33 -96 60
-64 60 7 0 48 -9 89 -19z m513 -36 c20 -8 60 -37 90 -66 55 -52 71 -78 36 -60
-16 9 -176 41 -202 41 -15 0 -89 72 -89 86 0 19 119 19 165 -1z m-2961 -310
c34 -23 132 -36 194 -26 61 9 62 6 27 -56 -24 -40 -28 -42 -48 -31 -27 15
-161 14 -258 -2 -77 -13 -92 -7 -87 35 3 18 33 37 146 94 1 0 13 -6 26 -14z
m974 -49 c-57 -51 -238 -96 -328 -82 -49 7 -78 21 -68 32 4 4 81 15 170 25 90
11 181 25 203 33 22 7 42 14 45 14 3 1 -7 -9 -22 -22z m-2602 -724 c-21 -40
-61 -63 -186 -107 -58 -20 -121 -47 -141 -60 -27 -17 -39 -21 -47 -13 -8 8 3
25 41 62 44 44 72 59 192 107 77 31 144 53 148 49 5 -4 2 -21 -7 -38z m6395
-184 c113 -147 158 -180 201 -141 17 15 18 14 18 -16 0 -29 -3 -32 -21 -26
-17 6 -8 -10 35 -65 31 -40 55 -75 52 -77 -7 -7 -46 15 -102 58 -58 44 -122
123 -179 219 -21 36 -47 80 -57 98 -34 56 -11 35 53 -50z m-7711 -78 c-18 -28
-47 -62 -64 -74 -44 -34 -96 -58 -96 -46 0 24 176 188 188 175 3 -2 -10 -27
-28 -55z m-206 -92 c-48 -81 -111 -122 -199 -132 -32 -4 -73 -13 -89 -21 -16
-8 -31 -13 -33 -11 -6 6 66 85 87 96 9 5 49 16 88 24 38 8 87 24 109 35 46 24
46 24 37 9z m8086 -543 c50 -74 59 -92 40 -80 -11 7 -110 151 -110 160 0 16
24 -12 70 -80z m1450 -620 c0 -12 11 -55 25 -96 35 -101 56 -194 49 -213 -8
-21 -24 -20 -24 2 0 36 -62 122 -135 188 -80 72 -94 98 -75 135 12 22 14 20
40 -37 14 -32 34 -65 43 -73 16 -12 17 -8 17 48 0 34 5 71 11 82 10 20 11 20
30 3 10 -9 19 -27 19 -39z m-10024 -289 c-20 -48 -38 -48 -24 2 13 48 18 56
30 44 6 -6 4 -23 -6 -46z m-67 -125 c-25 -65 -39 -70 -39 -15 0 25 8 42 27 60
14 13 28 22 31 20 2 -3 -6 -32 -19 -65z m211 15 c0 -3 -27 -26 -60 -51 -66
-50 -108 -105 -112 -145 -3 -21 1 -24 20 -22 23 3 23 3 -8 -58 -25 -50 -39
-65 -72 -80 -85 -38 -98 6 -45 160 l32 95 35 1 c36 1 84 23 160 73 49 33 50
33 50 27z m9662 -240 c-6 -69 4 -98 95 -284 41 -85 72 -156 70 -159 -6 -5 -95
144 -156 261 -77 144 -87 236 -28 236 22 0 23 -3 19 -54z m612 -21 l26 -60
-35 37 c-33 35 -44 66 -28 81 8 9 7 11 37 -58z m-719 -186 c21 -33 35 -62 33
-65 -4 -4 -77 23 -86 31 -4 4 9 95 13 95 2 0 20 -27 40 -61z m506 -416 c11
-34 10 -38 -15 -58 -28 -23 -27 -35 9 -118 9 -22 14 -46 12 -55 -5 -26 -57 82
-57 118 0 45 23 159 31 154 4 -2 13 -21 20 -41z m-10916 -263 c16 -26 -90
-170 -114 -156 -20 13 -11 71 19 119 25 39 35 47 59 47 17 0 33 -5 36 -10z
m10385 -5484 c0 -8 -142 -261 -154 -273 -9 -10 -11 4 -8 60 5 101 32 154 97
189 48 27 65 33 65 24z m-200 -184 c0 -28 -93 -127 -144 -154 -51 -26 -119
-27 -153 -1 -15 10 -28 24 -30 30 -2 6 27 22 64 37 37 14 109 41 158 60 98 38
105 40 105 28z m-403 -178 c-20 -20 -40 -48 -43 -63 -3 -14 -10 -41 -16 -60
-12 -40 -23 -28 -34 35 -6 40 -6 40 57 82 34 23 65 42 68 42 3 0 -11 -16 -32
-36z m-8408 -376 l63 -68 -61 0 c-41 0 -63 4 -66 13 -7 23 -12 128 -5 125 4
-2 35 -33 69 -70z m7676 -68 c-3 -5 -33 -28 -65 -51 -64 -44 -71 -55 -42 -62
10 -3 6 -5 -10 -6 -48 -2 -32 26 45 78 78 54 81 56 72 41z m-195 -208 c0 -5
-46 -28 -102 -52 -119 -51 -136 -62 -82 -53 21 3 37 3 34 0 -9 -10 -310 -99
-322 -95 -20 7 100 95 187 138 44 22 105 46 135 54 61 16 150 21 150 8z m-156
-258 c28 -11 17 -30 -23 -42 -21 -7 -43 -12 -49 -12 -15 0 -35 38 -27 50 7 11
74 14 99 4z m-100 -340 c-10 -14 -45 -45 -80 -70 -67 -48 -240 -134 -269 -134
-10 0 38 35 106 78 68 43 149 94 179 114 67 45 87 48 64 12z m-5252 -290 c27
-6 29 -8 13 -16 -12 -7 -30 -7 -56 1 -49 15 -64 36 -20 27 17 -3 45 -9 63 -12z
m4878 9 c0 -5 -7 -17 -15 -27 -25 -33 -18 -39 38 -32 39 5 49 4 41 -4 -15 -15
-94 -26 -94 -13 0 7 -19 9 -47 5 -54 -5 -53 -3 14 44 49 34 63 40 63 27z
m-2575 -343 c-3 -5 -11 -10 -16 -10 -6 0 -7 5 -4 10 3 6 11 10 16 10 6 0 7 -4
4 -10z m-45 -39 c0 -5 2 -16 6 -24 4 -12 -16 -15 -113 -20 -195 -8 -213 -36
-41 -63 51 -9 95 -17 97 -20 12 -12 -19 -19 -94 -23 -71 -2 -105 3 -224 33
-215 56 -249 49 -237 -44 l7 -50 -98 46 c-127 58 -179 89 -187 110 -12 31 8
36 95 23 179 -26 600 -9 724 30 40 12 65 13 65 2z m76 -66 c24 -18 7 -19 -26
0 -16 9 -19 14 -9 15 8 0 24 -7 35 -15z"/>
<path d="M8947 10943 c-16 -16 -4 -23 38 -23 61 0 106 -25 208 -114 87 -75
143 -105 172 -89 12 7 -13 28 -104 90 -65 45 -145 96 -178 113 -56 28 -121 39
-136 23z"/>
<path d="M2437 10533 c-59 -42 -105 -78 -103 -80 2 -3 15 2 28 10 12 8 39 20
58 26 33 10 139 105 129 115 -2 2 -53 -30 -112 -71z"/>
<path d="M1999 10074 c-18 -19 -27 -32 -18 -29 14 5 65 65 56 65 -2 0 -19 -16
-38 -36z"/>
<path d="M1721 9641 c-10 -6 -10 -10 -1 -16 7 -4 19 0 28 9 14 13 14 16 2 16
-8 0 -21 -4 -29 -9z"/>
<path d="M11135 7760 c10 -11 20 -18 23 -15 7 6 -18 35 -31 35 -5 0 -2 -9 8
-20z"/>
<path d="M182 6257 c-67 -80 -59 -366 19 -739 6 -32 16 -58 22 -58 7 0 8 85 3
258 -9 370 -18 552 -26 552 -4 0 -12 -6 -18 -13z"/>
<path d="M1 5480 l1 -105 14 50 c13 49 10 114 -7 145 -5 9 -8 -29 -8 -90z"/>
<path d="M125 5340 c7 -39 14 -73 17 -76 3 -3 9 17 12 43 4 26 9 60 12 76 5
24 3 27 -24 27 l-29 0 12 -70z"/>
<path d="M221 5388 c-1 -16 4 -28 9 -28 12 0 12 8 0 35 -8 18 -9 17 -9 -7z"/>
<path d="M318 4812 c22 -44 47 -110 57 -146 10 -37 20 -64 22 -62 3 3 -1 45
-8 94 -9 67 -10 99 -1 132 6 25 10 45 8 47 -1 1 -28 5 -59 9 l-58 7 39 -81z"/>
<path d="M476 4587 c-3 -12 -6 -42 -6 -67 1 -42 2 -44 15 -26 16 22 21 101 6
110 -5 3 -11 -4 -15 -17z"/>
<path d="M636 4529 c-9 -13 -16 -35 -16 -49 0 -27 62 -119 68 -101 6 17 -16
153 -26 163 -6 6 -16 1 -26 -13z"/>
<path d="M564 4305 c8 -38 109 -242 113 -228 5 13 -82 213 -103 239 -14 18
-15 17 -10 -11z"/>
<path d="M11694 3804 c-37 -57 -42 -87 -6 -37 25 36 54 93 47 93 -3 0 -21 -25
-41 -56z"/>
<path d="M1620 2782 c0 -7 25 -67 55 -132 30 -65 55 -126 55 -134 0 -21 -20
-20 -50 4 -43 34 -42 22 4 -34 24 -30 47 -64 51 -75 3 -12 10 -21 15 -21 5 0
7 6 5 13 -3 6 -9 53 -15 102 -8 73 -17 105 -49 170 -43 87 -70 128 -71 107z"/>
<path d="M1210 2770 c0 -19 68 -160 69 -143 1 18 -37 116 -54 139 -11 15 -14
16 -15 4z"/>
<path d="M9829 2539 c-35 -28 -72 -57 -82 -64 -11 -8 -17 -22 -15 -34 2 -18
16 -9 88 64 46 47 82 85 79 85 -4 0 -35 -23 -70 -51z"/>
<path d="M9037 1958 c-70 -39 -126 -72 -124 -74 1 -2 23 2 47 8 38 9 210 119
210 134 0 6 6 9 -133 -68z"/>
<path d="M2190 1897 c0 -14 112 -183 143 -216 40 -42 106 -91 123 -91 29 0
-35 165 -86 223 -29 34 -34 36 -49 23 -15 -14 -21 -13 -51 5 -19 12 -45 30
-57 42 -13 11 -23 17 -23 14z"/>
<path d="M8605 1640 c-12 -20 5 -28 41 -20 59 14 65 30 12 30 -26 0 -50 -4
-53 -10z"/>
<path d="M8266 1511 c-8 -12 157 -72 168 -61 13 13 -12 40 -51 57 -37 15 -109
18 -117 4z"/>
<path d="M7724 1073 c-15 -49 -26 -64 -61 -82 l-38 -20 86 -1 87 0 -15 60
c-12 47 -20 60 -35 60 -10 0 -21 -8 -24 -17z"/>
<path d="M4380 1003 c1 -11 220 -156 227 -150 8 9 -45 84 -74 105 -39 27 -154
61 -153 45z"/>
<path d="M6677 992 c-62 -9 -106 -20 -104 -26 5 -16 58 -27 103 -22 55 7 156
45 149 57 -7 11 -7 11 -148 -9z"/>
<path d="M4630 825 c0 -2 15 -12 33 -20 l32 -16 -25 20 c-24 20 -40 26 -40 16z"/>
<path d="M6212 733 c3 -17 -9 -18 -230 -18 -184 1 -230 -2 -217 -11 23 -17
129 -34 206 -34 35 0 132 7 214 15 83 8 169 15 193 15 26 0 41 4 37 10 -3 6
-25 10 -48 10 -40 0 -86 9 -135 24 -19 6 -23 4 -20 -11z"/>
</g>
</svg>
