<svg version="1.0" xmlns="http://www.w3.org/2000/svg"
 width="1268.000000pt" height="1280.000000pt" viewBox="0 0 1268.000000 1280.000000"
 preserveAspectRatio="xMidYMid meet" fill="#000000" stroke="none">
<g transform="translate(0.000000,1280.000000) scale(0.100000,-0.100000)">
<path d="M5885 12794 c-22 -2 -103 -9 -180 -14 -557 -43 -1176 -180 -1703
-376 -1193 -445 -2205 -1206 -2969 -2234 -176 -237 -285 -423 -434 -742 -329
-703 -520 -1427 -584 -2203 -22 -269 -17 -323 10 -108 82 644 276 1322 541
1884 504 1069 1266 1950 2254 2604 265 176 394 251 660 383 708 353 1467 560
2325 634 222 19 795 16 1025 -5 838 -78 1611 -302 2330 -675 1823 -946 3062
-2689 3349 -4712 72 -504 80 -1088 21 -1599 -83 -725 -290 -1426 -611 -2071
-801 -1607 -2245 -2801 -3956 -3270 -388 -106 -792 -175 -1238 -212 -192 -15
-716 -15 -910 1 -714 57 -1352 207 -1940 457 -206 88 -595 282 -770 384 -999
587 -1820 1439 -2374 2467 -187 348 -402 882 -506 1260 -16 57 -30 101 -32 99
-8 -7 57 -236 117 -418 254 -762 676 -1505 1206 -2123 144 -168 423 -452 588
-599 1316 -1173 3080 -1746 4836 -1570 2009 200 3793 1332 4835 3068 493 820
778 1692 882 2696 13 125 17 262 17 565 1 407 -5 524 -45 830 -221 1725 -1119
3266 -2517 4318 -858 646 -1875 1070 -2933 1221 -329 47 -483 58 -879 61 -206
2 -393 1 -415 -1z"/>
<path d="M5876 12480 c-429 -28 -900 -108 -1304 -221 -1586 -444 -2968 -1552
-3749 -3004 -231 -429 -433 -1122 -518 -1780 -25 -195 -16 -183 29 40 120 583
272 1029 525 1535 402 804 970 1499 1681 2059 179 141 525 375 719 486 1210
691 2589 945 3971 729 856 -133 1679 -456 2414 -947 755 -504 1403 -1194 1871
-1992 115 -196 296 -566 381 -780 218 -551 351 -1099 409 -1695 20 -196 28
-773 14 -965 -58 -808 -263 -1567 -615 -2275 -305 -612 -639 -1079 -1139
-1590 -162 -165 -173 -178 -73 -87 203 188 475 496 673 762 398 535 731 1190
928 1826 132 424 210 818 253 1274 21 221 24 803 5 1005 -74 812 -260 1487
-601 2186 -403 827 -931 1493 -1646 2076 -942 768 -2064 1221 -3324 1343 -192
19 -716 27 -904 15z"/>
<path d="M5831 12210 c-812 -63 -1543 -267 -2256 -628 -399 -202 -769 -447
-1126 -742 -189 -157 -598 -571 -701 -710 -512 -690 -878 -1544 -1034 -2409
-34 -190 -29 -192 16 -6 136 568 399 1183 720 1686 594 931 1426 1659 2430
2129 583 273 1165 429 1870 502 196 20 903 17 1100 -5 992 -112 1811 -407
2609 -940 508 -339 1013 -816 1377 -1302 658 -875 1033 -1865 1135 -2995 16
-178 17 -686 1 -875 -103 -1210 -543 -2292 -1311 -3220 -151 -183 -529 -562
-706 -709 -584 -486 -1213 -835 -1916 -1064 -367 -121 -746 -201 -1169 -247
-198 -22 -726 -31 -950 -16 -883 59 -1729 310 -2456 727 -163 94 -504 322
-649 434 -841 651 -1471 1487 -1850 2455 -136 345 -246 750 -309 1130 -33 199
-36 211 -30 135 7 -90 49 -328 85 -490 354 -1561 1355 -2910 2753 -3709 700
-400 1432 -635 2271 -727 189 -21 774 -30 976 -15 987 74 1867 362 2699 884
344 216 687 492 995 801 882 885 1460 2035 1634 3251 45 313 55 475 55 850 0
375 -10 537 -55 850 -154 1072 -633 2118 -1358 2960 -124 144 -375 399 -527
536 -712 637 -1562 1087 -2489 1318 -281 69 -553 115 -905 152 -136 14 -782
20 -929 9z"/>
<path d="M5840 11859 c-1363 -109 -2594 -681 -3549 -1648 -345 -350 -625 -720
-871 -1153 -148 -260 -310 -720 -403 -1143 -42 -189 -84 -433 -91 -531 -5 -57
0 -42 28 86 193 888 588 1691 1178 2392 143 170 477 504 638 638 806 670 1752
1092 2755 1229 242 33 345 41 625 48 1092 24 2160 -273 3055 -851 361 -233
645 -466 960 -787 1153 -1178 1699 -2780 1509 -4429 -115 -1001 -518 -1963
-1156 -2757 -139 -173 -267 -314 -452 -498 -89 -88 -129 -132 -91 -98 101 88
356 351 461 473 445 523 812 1169 1027 1810 206 612 302 1252 283 1890 -16
571 -100 1047 -280 1586 -355 1060 -1017 1979 -1908 2650 -812 611 -1766 977
-2823 1084 -145 15 -749 21 -895 9z"/>
<path d="M5930 11559 c-1697 -102 -3227 -1014 -4138 -2466 -104 -166 -162
-282 -235 -468 -159 -406 -257 -784 -316 -1215 -38 -277 -48 -495 -42 -890 2
-148 19 -108 20 48 3 426 124 1044 298 1515 473 1284 1458 2339 2698 2888
1046 463 2186 561 3302 283 360 -89 665 -200 988 -359 489 -240 896 -530 1294
-920 836 -820 1340 -1807 1491 -2920 56 -415 63 -842 20 -1245 -124 -1158
-635 -2222 -1464 -3045 -811 -805 -1838 -1302 -2961 -1434 -301 -36 -769 -46
-1025 -22 -664 61 -1205 209 -1775 485 -1032 500 -1870 1338 -2361 2361 -68
142 -159 354 -194 453 -13 34 -25 61 -27 59 -2 -3 16 -58 41 -123 206 -555
523 -1085 925 -1554 208 -242 533 -542 813 -751 426 -318 946 -585 1463 -752
1939 -628 4065 -40 5422 1498 559 633 969 1437 1153 2258 262 1171 110 2408
-425 3466 -423 837 -1079 1558 -1874 2060 -912 576 -2005 855 -3091 790z"/>
<path d="M602 5725 c0 -16 2 -22 5 -12 2 9 2 23 0 30 -3 6 -5 -1 -5 -18z"/>
<path d="M612 5640 c0 -19 2 -27 5 -17 2 9 2 25 0 35 -3 9 -5 1 -5 -18z"/>
<path d="M181 4774 c0 -11 3 -14 6 -6 3 7 2 16 -1 19 -3 4 -6 -2 -5 -13z"/>
</g>
</svg>
