<svg version="1.0" xmlns="http://www.w3.org/2000/svg"
 width="1280.000000pt" height="1271.000000pt" viewBox="0 0 1280.000000 1271.000000"
 preserveAspectRatio="xMidYMid meet" fill="#000000" stroke="none">
<g transform="translate(0.000000,1271.000000) scale(0.100000,-0.100000)">
<path d="M5697 12663 c-47 -5 -77 -47 -77 -109 0 -41 -1 -42 -42 -48 -28 -5
-44 -3 -49 5 -10 17 -229 -18 -229 -36 0 -7 -12 -16 -26 -19 -14 -4 -38 -19
-52 -34 -15 -16 -35 -31 -43 -34 -14 -6 -13 -23 17 -154 18 -82 32 -149 31
-150 -8 -7 -82 -22 -89 -18 -4 3 -8 14 -8 25 0 11 -7 22 -15 25 -8 4 -15 14
-15 24 0 10 -7 25 -15 33 -7 8 -17 26 -21 41 -3 14 -10 26 -14 26 -4 0 -22 13
-40 30 -29 27 -59 33 -44 9 3 -5 0 -17 -8 -26 -7 -9 -13 -36 -13 -61 l0 -44
-95 -28 c-52 -15 -97 -26 -99 -24 -2 2 -34 101 -71 221 -53 172 -71 218 -84
217 -9 -1 -19 8 -22 22 -7 27 -12 28 -49 14 -24 -9 -27 -7 -37 21 -10 30 -13
31 -51 25 -23 -4 -61 -16 -85 -26 -43 -19 -44 -22 -39 -54 5 -31 3 -36 -24
-45 -25 -8 -28 -13 -20 -33 6 -16 4 -26 -6 -33 -12 -9 -5 -37 46 -173 34 -90
61 -171 61 -181 0 -10 7 -36 16 -56 13 -31 13 -39 2 -46 -20 -13 -35 -11 -42
6 -3 8 -10 14 -16 13 -6 -2 -32 51 -58 116 l-47 119 -42 4 c-35 3 -46 -1 -73
-27 -22 -21 -29 -36 -25 -50 5 -14 -2 -23 -24 -35 -36 -18 -35 -15 -16 -62 19
-44 19 -54 0 -29 -13 17 -15 18 -60 0 -26 -9 -49 -24 -52 -31 -3 -8 -23 -23
-45 -34 -33 -17 -39 -24 -33 -42 4 -12 7 -31 6 -41 0 -10 9 -36 20 -57 24 -49
24 -53 -6 -67 -24 -11 -26 -9 -60 59 -21 40 -40 67 -46 63 -6 -3 -23 -7 -39
-8 -17 -1 -40 -14 -55 -31 -23 -23 -25 -32 -16 -51 9 -20 7 -25 -18 -40 -16
-10 -27 -23 -25 -29 3 -6 -2 -17 -10 -24 -16 -14 -18 -11 -116 169 -83 151
-146 234 -187 247 -62 19 -73 -17 -32 -99 17 -33 28 -62 25 -65 -5 -5 -36 25
-51 50 -7 12 -14 14 -24 8 -13 -8 -13 -14 -2 -38 8 -15 15 -67 17 -115 2 -72
7 -93 28 -127 14 -22 26 -43 26 -45 0 -3 -20 -19 -45 -36 -39 -27 -46 -29 -51
-15 -4 9 -12 14 -20 11 -7 -3 -21 8 -31 25 -17 26 -21 28 -38 15 -18 -13 -18
-15 -2 -39 10 -16 13 -28 7 -32 -6 -3 -7 -16 -4 -29 4 -17 -1 -27 -20 -39
l-26 -17 -47 69 c-27 39 -51 70 -55 71 -5 0 -8 -16 -8 -36 0 -31 2 -35 14 -25
12 10 21 4 50 -36 l35 -48 -22 -17 c-15 -12 -25 -14 -34 -6 -7 6 -13 7 -13 2
-1 -5 -14 6 -29 24 -25 30 -32 32 -50 22 l-22 -11 22 -30 c16 -23 18 -33 9
-43 -7 -9 -7 -16 -1 -20 20 -13 -3 -103 -50 -198 -27 -52 -63 -88 -76 -74 -10
9 -64 -35 -57 -46 4 -6 -1 -17 -11 -24 -18 -13 -18 -15 4 -38 l22 -24 -73 -27
c-40 -15 -121 -52 -181 -83 -101 -52 -108 -54 -126 -38 -17 15 -19 15 -32 0
-8 -10 -45 -32 -84 -50 -73 -34 -156 -106 -136 -119 7 -4 -44 -46 -120 -101
-156 -112 -258 -194 -354 -284 -52 -49 -92 -76 -157 -105 -49 -21 -88 -42 -88
-47 0 -8 51 12 114 44 l39 20 -48 -56 c-46 -54 -47 -58 -29 -71 222 -158 329
-243 332 -262 5 -31 -17 -68 -31 -54 -20 20 -47 12 -67 -21 -10 -17 -16 -36
-13 -41 3 -5 -5 -15 -16 -24 -14 -9 -20 -21 -16 -32 9 -30 -27 -64 -71 -66
-30 -2 -62 10 -140 52 -99 52 -102 53 -107 31 -4 -12 -5 -23 -4 -24 11 -9 108
-54 114 -52 13 3 93 -42 93 -52 0 -18 -22 -11 -112 38 -75 40 -90 45 -98 32
-5 -8 -10 -18 -10 -22 0 -5 43 -28 96 -53 52 -26 98 -53 101 -61 3 -8 -7 -31
-24 -52 -43 -54 -46 -61 -33 -77 6 -8 9 -18 6 -24 -3 -5 17 -23 44 -41 55 -35
64 -64 31 -94 -18 -16 -20 -16 -39 8 -26 34 -56 33 -71 -1 -29 -69 -26 -69
-162 -3 -68 34 -151 76 -184 95 -33 19 -62 35 -65 35 -3 0 -13 -14 -22 -30
l-17 -31 66 -32 c47 -23 67 -28 70 -19 7 19 16 16 137 -49 l115 -60 -11 -30
c-5 -16 -14 -31 -18 -34 -11 -7 -242 84 -255 100 -12 14 -109 65 -124 65 -6 0
-17 -13 -26 -30 l-15 -30 66 -30 c47 -21 71 -27 79 -20 14 11 245 -93 245
-110 0 -23 -42 -91 -53 -86 -7 2 -29 10 -50 17 -20 7 -37 18 -37 24 0 7 -19
20 -42 29 -41 17 -57 12 -58 -19 0 -11 61 -38 91 -41 9 -1 35 -12 58 -26 34
-21 39 -27 27 -37 -10 -9 -20 -9 -41 1 -23 10 -29 10 -40 -5 -14 -19 -35 -23
-35 -7 0 10 -90 54 -95 48 -1 -2 -7 -13 -13 -24 -10 -19 -8 -23 19 -34 19 -8
27 -16 21 -22 -6 -6 -37 2 -82 21 -94 40 -103 34 -11 -7 39 -17 75 -40 81 -51
14 -27 13 -30 -10 -24 -28 7 -40 -43 -15 -61 22 -16 13 -46 -13 -46 -15 0 -26
-18 -47 -74 -24 -61 -32 -72 -48 -68 -18 5 -37 -12 -37 -33 0 -6 13 -16 30
-22 31 -12 40 -40 16 -49 -8 -3 -24 0 -36 6 -18 10 -22 9 -27 -9 -8 -31 -5
-35 30 -47 19 -7 32 -17 31 -27 0 -10 -1 -32 -2 -51 -1 -19 -10 -42 -19 -52
-12 -12 -14 -19 -6 -21 8 -3 9 -12 1 -34 -5 -16 -14 -26 -19 -23 -5 3 -9 1 -9
-4 0 -6 6 -12 13 -15 15 -6 11 -63 -4 -73 -12 -7 -85 13 -144 41 -62 28 -130
41 -140 25 -12 -20 14 -37 78 -50 34 -7 92 -21 130 -32 58 -17 67 -23 67 -43
l0 -23 -57 15 c-32 8 -67 20 -78 27 -21 13 -103 36 -129 36 -9 0 -16 -6 -16
-14 0 -13 96 -46 135 -46 41 0 121 -33 130 -54 13 -27 7 -69 -9 -63 -6 3 -38
10 -71 17 -33 7 -64 18 -70 25 -8 10 -86 35 -109 35 -3 0 -6 -20 -6 -44 l0
-43 98 -27 c53 -15 105 -30 115 -32 15 -5 26 -44 12 -44 -3 0 -53 11 -111 25
-92 22 -110 23 -144 12 -22 -6 -40 -15 -40 -19 0 -4 -7 -5 -15 -2 -8 4 -17 -1
-21 -9 -3 -8 -25 -21 -50 -28 -24 -7 -44 -19 -44 -26 0 -6 -6 -16 -14 -20 -7
-4 -19 -33 -25 -62 -11 -54 -11 -55 17 -84 16 -16 45 -32 63 -36 29 -6 34 -11
31 -32 -6 -50 -13 -69 -26 -69 -9 0 -17 -28 -25 -92 -6 -51 -14 -103 -17 -115
-3 -16 0 -23 11 -23 11 0 13 -7 9 -29 -4 -16 -1 -32 5 -35 6 -4 11 -16 11 -27
0 -10 5 -19 10 -19 6 0 10 -10 10 -23 0 -23 4 -24 147 -36 81 -7 150 -14 153
-16 3 -2 4 -24 2 -50 -4 -45 -5 -47 -33 -43 -16 3 -29 1 -29 -3 0 -3 -30 -10
-67 -14 -50 -5 -75 -14 -96 -31 -16 -13 -35 -24 -43 -24 -23 0 -16 -20 10 -30
13 -5 28 -16 33 -24 4 -8 24 -16 43 -18 20 -2 35 -8 34 -15 -1 -7 -2 -56 -3
-109 l-1 -95 -235 7 c-215 6 -235 6 -235 -9 0 -12 -9 -17 -30 -17 -28 0 -30
-3 -30 -34 0 -32 -3 -35 -32 -38 l-33 -3 -3 -66 c-4 -88 8 -119 48 -119 27 0
30 -3 30 -30 0 -25 4 -30 25 -30 17 0 25 -6 25 -17 0 -15 15 -16 159 -10 87 4
193 4 235 1 71 -7 76 -8 76 -30 0 -14 -6 -24 -14 -24 -8 0 -16 -5 -18 -11 -2
-6 -56 -12 -131 -16 -90 -4 -127 -10 -127 -18 0 -7 -7 -18 -15 -25 -19 -16
-19 -31 2 -80 13 -29 24 -40 40 -40 17 0 22 -7 25 -32 3 -31 5 -33 53 -39 28
-3 39 -7 27 -7 -23 -2 -24 -4 -17 -54 4 -29 11 -55 16 -58 4 -3 12 -28 16 -55
8 -44 11 -50 31 -47 13 2 29 -1 35 -6 7 -6 32 -7 62 -2 59 9 65 7 65 -25 0
-25 -7 -28 -101 -41 -43 -5 -47 -8 -52 -39 -6 -38 1 -75 14 -75 5 0 9 -9 9
-20 0 -16 7 -20 30 -20 26 0 31 -5 37 -30 3 -16 11 -30 18 -30 10 0 25 -20 25
-35 0 -1 -88 -20 -195 -40 -107 -21 -195 -41 -195 -45 0 -4 -16 -11 -36 -15
-38 -7 -84 -47 -84 -74 0 -30 34 -41 97 -31 75 13 78 13 64 -4 -6 -7 -25 -16
-42 -20 -22 -4 -30 -11 -27 -23 2 -14 11 -17 39 -15 36 3 144 -22 164 -39 9
-7 64 1 116 17 13 4 20 -6 29 -45 11 -49 11 -51 -16 -76 -15 -14 -36 -25 -46
-25 -14 0 -19 -6 -16 -22 2 -18 9 -22 28 -20 14 1 34 -2 45 -7 11 -5 27 -11
36 -14 9 -3 19 -17 21 -31 5 -24 1 -27 -80 -52 -85 -26 -90 -32 -36 -48 17 -5
22 -3 20 10 0 11 12 21 34 30 56 20 77 18 82 -11 3 -14 1 -25 -3 -25 -5 0 -9
-6 -9 -13 0 -8 -18 -19 -40 -26 -30 -9 -38 -15 -33 -29 11 -30 13 -31 43 -20
21 7 34 7 43 0 6 -6 30 -15 52 -21 26 -7 65 -33 108 -72 69 -62 96 -104 79
-121 -12 -12 8 -68 25 -68 6 0 15 -9 18 -21 5 -14 12 -18 23 -14 50 21 49 24
55 -102 3 -65 12 -152 21 -193 16 -73 16 -75 -3 -90 -19 -14 -20 -18 -6 -55 8
-22 14 -61 15 -86 0 -51 46 -154 69 -154 8 0 32 -57 60 -145 64 -194 116 -329
161 -420 31 -61 40 -95 50 -175 7 -55 17 -104 22 -110 6 -6 8 3 4 25 -13 84
-17 130 -12 130 3 0 17 -22 31 -49 13 -27 29 -52 35 -56 6 -3 86 49 178 116
92 67 176 124 187 126 11 3 31 -5 45 -17 23 -20 23 -22 7 -31 -29 -16 -21 -55
18 -86 19 -15 35 -34 35 -40 0 -7 8 -13 18 -13 37 0 72 -69 47 -90 -8 -6 -12
-17 -9 -23 2 -7 -32 -48 -76 -92 -44 -44 -80 -83 -80 -86 0 -4 8 -10 17 -13
11 -5 30 7 60 36 24 23 43 47 43 54 0 15 69 68 78 60 3 -4 -29 -42 -71 -84
-61 -61 -75 -80 -65 -90 21 -21 31 -14 103 64 81 88 94 90 137 21 25 -39 32
-44 62 -43 23 1 48 13 75 34 33 26 44 30 64 23 13 -5 27 -19 30 -31 4 -18 -1
-24 -29 -36 -19 -8 -34 -20 -34 -26 0 -7 16 -29 36 -49 l37 -38 -74 -80 c-41
-45 -107 -110 -146 -147 -40 -36 -73 -71 -73 -78 0 -7 9 -21 20 -31 21 -19 22
-18 72 32 41 41 49 55 40 65 -9 11 8 33 82 107 l94 94 31 -22 c17 -12 31 -25
31 -27 0 -12 -174 -209 -189 -215 -19 -8 -91 -85 -91 -97 0 -5 11 -19 24 -31
l23 -22 47 54 c26 31 44 61 41 69 -3 8 30 52 86 112 l92 98 40 -41 40 -40 -33
-38 c-19 -21 -37 -37 -40 -36 -4 1 -22 -14 -41 -33 -31 -32 -32 -35 -16 -51
16 -16 19 -15 47 12 16 16 30 34 30 40 0 6 18 29 40 50 33 33 42 37 50 25 7
-11 2 -22 -16 -41 -22 -23 -23 -27 -9 -39 20 -17 19 -29 -4 -38 -10 -4 -31
-22 -46 -40 -22 -26 -25 -35 -15 -47 16 -19 29 -19 52 2 42 38 14 -14 -49 -91
l-67 -81 80 83 c75 78 123 106 110 64 -4 -12 2 -26 15 -38 20 -18 21 -18 35 0
11 16 16 17 29 6 9 -7 13 -21 10 -30 -4 -13 10 -31 55 -66 64 -50 66 -54 48
-72 -8 -8 -8 -15 2 -27 17 -21 37 -19 50 5 11 21 44 27 55 10 3 -5 -2 -21 -12
-36 -16 -25 -16 -27 2 -41 21 -15 19 -16 61 41 12 18 15 18 31 5 10 -8 35 -23
56 -32 24 -11 35 -21 31 -29 -5 -7 -2 -9 8 -5 21 7 61 -21 54 -39 -3 -8 -1
-14 3 -14 5 0 11 6 14 13 3 9 13 8 41 -6 l38 -18 -18 -27 c-57 -87 -68 -102
-78 -102 -6 0 -26 -26 -44 -57 -25 -43 -30 -58 -20 -64 26 -17 17 -27 138 164
29 46 48 66 57 62 8 -3 17 -5 19 -5 19 0 -36 -90 -86 -141 -38 -39 -66 -97
-53 -110 8 -8 23 7 54 53 24 34 42 65 40 67 -2 1 12 24 31 50 26 35 42 47 64
49 57 4 60 -10 19 -78 -20 -34 -43 -64 -50 -67 -18 -6 -67 -82 -63 -95 2 -5
20 -16 39 -22 l35 -12 69 103 c59 89 70 102 82 90 12 -12 6 -27 -43 -108 -41
-68 -57 -104 -57 -131 0 -21 2 -41 6 -44 4 -4 2 -13 -4 -20 -9 -10 -7 -15 4
-20 12 -4 16 -18 13 -55 -2 -33 2 -50 11 -53 7 -3 13 -12 13 -19 0 -8 23 -26
51 -42 50 -27 53 -27 85 -12 18 9 41 29 50 44 10 15 19 30 21 32 7 10 83 -34
83 -48 0 -11 32 -32 88 -61 85 -43 90 -44 184 -45 l98 0 56 130 c31 72 59 133
63 137 9 11 92 -23 85 -34 -6 -10 -16 -82 -16 -118 0 -14 -4 -33 -9 -42 -6
-12 -5 -29 5 -53 9 -20 13 -42 10 -50 -4 -9 0 -15 10 -15 9 0 16 4 16 9 0 5
13 14 29 21 16 6 35 25 41 41 7 16 15 29 19 29 15 0 191 -65 191 -71 0 -4 -33
-104 -74 -224 -55 -163 -70 -218 -60 -222 9 -3 11 -15 8 -33 -6 -25 -3 -29 26
-35 28 -6 31 -10 25 -33 -4 -15 -7 -31 -8 -36 -2 -11 118 -55 150 -56 14 0 24
9 31 30 10 26 13 28 41 20 33 -9 41 -5 41 22 0 14 5 18 19 13 16 -5 23 12 59
142 22 82 44 160 48 176 3 15 10 27 14 27 4 0 13 23 20 51 10 42 16 50 33 47
39 -6 41 -59 8 -186 l-30 -113 24 -25 c22 -23 32 -26 102 -23 15 0 25 8 29 24
5 21 9 22 37 14 46 -13 45 -13 53 36 3 25 11 45 16 45 6 0 8 -9 5 -19 -7 -27
10 -32 120 -36 90 -4 91 -4 97 20 4 14 11 25 16 25 5 0 12 22 16 49 8 62 14
70 45 64 l26 -5 -13 -71 c-13 -79 -12 -87 17 -87 10 0 19 -4 19 -9 0 -12 41
-22 54 -13 6 4 20 7 31 7 14 0 21 8 23 28 3 26 6 28 33 22 23 -5 34 -2 44 12
11 14 16 15 26 6 9 -9 7 -51 -9 -190 -22 -190 -21 -300 3 -319 8 -6 15 -16 15
-23 0 -15 29 -14 45 3 8 7 19 43 26 80 12 71 29 80 29 15 0 -32 3 -39 20 -39
15 0 20 7 20 27 0 26 75 153 90 153 4 0 10 28 14 62 3 34 8 63 10 65 2 2 26 1
53 -2 53 -8 73 -31 73 -87 0 -21 5 -28 20 -28 15 0 20 7 20 29 0 20 6 30 20
34 12 3 20 14 20 27 0 16 4 20 16 16 9 -3 24 -6 35 -6 18 0 19 -6 13 -85 -4
-47 -4 -85 0 -85 9 0 45 42 46 52 0 4 -7 5 -15 2 -12 -5 -15 5 -15 55 0 59 1
61 26 61 35 0 53 -26 54 -72 0 -34 3 -38 25 -38 23 0 25 4 25 40 0 29 4 40 15
40 8 0 15 7 15 15 0 8 5 15 10 15 6 0 10 7 10 15 0 27 167 125 215 125 14 0
25 -4 25 -10 0 -5 16 -10 35 -10 19 0 35 4 35 9 0 5 10 11 23 13 18 2 22 9 20
36 -1 27 2 32 16 27 76 -24 223 -55 286 -61 73 -7 78 -9 87 -35 8 -24 13 -27
41 -22 18 2 60 -2 94 -10 68 -15 173 -6 173 16 0 9 65 13 233 14 134 2 281 9
349 18 110 14 121 14 213 -5 113 -23 105 -22 105 -12 0 5 -37 14 -82 22 -86
14 -85 21 4 34 26 4 50 11 52 15 3 4 -24 97 -60 206 -38 114 -63 208 -60 220
3 12 17 27 30 33 21 9 26 8 31 -8 3 -10 13 -21 21 -24 19 -7 84 19 84 34 0 7
8 9 19 5 14 -4 25 1 37 20 19 29 73 35 94 10 7 -8 18 -15 24 -15 6 0 34 -48
61 -106 47 -98 51 -104 69 -92 18 14 17 16 -9 69 -15 29 -34 58 -41 64 -20 15
-46 83 -34 90 5 3 30 -36 56 -87 25 -51 48 -94 49 -96 2 -2 13 1 25 8 20 11
20 13 -31 107 -60 112 -59 120 22 144 43 12 53 19 51 34 -2 10 2 21 8 25 8 5
5 22 -9 61 -20 51 -20 54 -3 71 9 9 26 18 37 20 17 2 21 -3 23 -34 4 -47 22
-53 77 -26 25 12 46 20 48 17 14 -15 127 -228 127 -238 0 -8 44 -95 65 -129 3
-4 65 20 65 25 0 2 -15 31 -32 64 -25 46 -37 59 -51 55 -16 -4 -29 17 -77 117
l-58 121 30 19 c26 15 33 16 43 5 25 -27 135 -210 135 -225 0 -24 60 -123 75
-123 7 0 22 8 34 18 l20 17 -37 60 c-23 37 -43 59 -52 58 -10 -2 -35 33 -75
109 -33 62 -61 115 -63 118 -2 5 81 50 93 50 9 0 58 -81 52 -86 -5 -5 25 -78
38 -92 2 -2 13 1 24 8 l21 11 -20 39 c-11 21 -24 42 -30 45 -12 7 -50 79 -50
95 0 20 31 9 42 -15 10 -22 16 -25 40 -20 22 5 28 3 28 -10 0 -23 41 -95 54
-95 6 0 17 4 25 9 12 8 13 14 3 36 -14 31 -15 35 -3 35 5 0 26 -27 46 -60 45
-75 58 -79 16 -6 -35 60 -45 134 -15 104 15 -15 19 -15 40 -1 19 12 22 19 14
33 -6 10 -10 21 -10 23 0 11 33 17 44 8 8 -7 32 3 76 30 56 36 66 39 86 28 19
-10 26 -9 39 1 13 11 13 15 -2 40 -14 24 -14 31 -4 44 18 22 25 20 41 -9 15
-29 19 -30 45 -11 18 13 18 15 -8 47 l-26 33 42 43 c23 24 47 43 54 43 7 0 13
6 13 13 0 18 37 38 57 30 16 -6 16 -5 4 11 -13 15 -11 20 13 44 l27 27 40 -45
c22 -25 49 -63 60 -85 11 -22 33 -55 50 -74 28 -30 32 -32 47 -18 14 15 11 21
-27 71 -23 30 -46 56 -51 58 -5 2 -27 28 -50 57 -36 50 -39 56 -25 70 14 15
19 12 51 -24 19 -22 41 -53 49 -70 19 -41 85 -116 96 -109 18 11 8 31 -42 84
-70 76 -108 131 -104 155 4 32 16 55 29 55 14 -1 101 -106 101 -123 0 -17 58
-87 72 -87 7 0 18 10 24 23 7 12 17 25 22 29 6 4 -22 47 -67 103 -68 85 -76
99 -64 111 13 13 25 3 93 -76 56 -65 84 -90 101 -90 12 0 26 -5 29 -10 4 -6
11 -8 16 -4 5 3 16 1 24 -6 8 -7 15 -7 19 -1 7 10 60 -3 82 -21 7 -5 16 -2 24
7 7 8 16 12 22 9 5 -3 29 11 54 31 44 36 45 39 39 79 -4 24 -18 53 -34 69
l-26 28 35 29 c19 16 40 28 46 26 17 -6 179 160 164 169 -8 5 -5 14 10 30 12
13 19 29 15 35 -4 6 -1 17 5 25 6 8 9 19 5 25 -4 6 -1 18 6 26 6 8 10 16 8 18
-75 64 -215 189 -216 194 -1 4 11 23 26 42 28 33 30 34 48 17 11 -9 26 -17 35
-17 8 0 23 -9 33 -20 10 -11 21 -17 26 -14 5 3 19 -2 31 -9 13 -8 47 -17 76
-20 51 -4 53 -3 47 17 -4 12 -9 32 -12 46 -3 14 -16 35 -30 46 l-25 22 62 78
c34 44 68 79 74 78 7 -1 92 -61 190 -134 128 -96 180 -130 188 -122 8 8 18 6
35 -6 22 -13 26 -14 34 -1 26 44 26 43 54 25 27 -17 28 -17 55 9 16 15 39 47
51 71 l23 43 -23 25 c-22 23 -22 25 -6 49 15 24 15 26 -4 39 -13 10 -17 18
-11 28 7 11 -25 37 -133 110 -78 52 -153 105 -167 117 -14 13 -35 31 -48 40
-15 12 -21 24 -17 35 13 33 73 15 176 -51 88 -56 98 -60 126 -51 47 17 77 102
45 127 -16 11 -16 14 1 44 19 35 19 35 -35 65 -35 18 -36 26 -4 18 21 -5 28 0
47 38 13 23 22 48 21 55 -2 7 7 31 18 54 12 22 20 42 18 44 -2 1 -13 8 -26 14
-12 7 -20 16 -17 21 3 5 -17 21 -45 35 -54 27 -57 32 -37 59 12 17 17 16 79
-15 l65 -32 21 21 c25 25 45 62 38 69 -3 3 -1 14 4 24 8 14 6 21 -12 30 -13 6
-24 13 -26 14 -2 2 4 17 13 34 14 28 14 32 1 37 -12 4 -13 11 -6 24 9 17 24
11 181 -62 95 -45 179 -81 188 -82 9 -1 33 -7 54 -15 33 -11 43 -11 72 4 19 9
35 20 35 25 0 26 -19 44 -74 73 -48 25 -56 32 -39 35 12 2 32 -2 44 -8 17 -10
23 -9 30 1 13 21 11 26 -19 38 -26 11 -112 111 -112 131 0 9 -28 23 -97 50
l-22 9 21 51 c15 37 25 49 36 45 9 -3 19 -1 22 6 6 8 13 8 30 -1 12 -6 28 -9
36 -6 23 9 16 36 -11 46 -14 5 -25 16 -25 24 0 8 -7 19 -15 24 -13 6 -13 14
-5 39 l11 31 85 -28 84 -29 -17 32 c-14 28 -17 30 -26 15 -10 -15 -15 -15 -61
4 -62 24 -59 22 -51 47 7 25 52 35 90 21 31 -12 30 -12 39 17 6 18 1 23 -29
33 -24 8 -35 17 -31 26 3 7 0 17 -7 21 -31 20 -49 57 -68 143 -20 94 -18 150
6 150 17 0 26 37 18 83 -4 28 -11 39 -29 43 -13 3 -24 9 -24 13 0 3 17 31 38
61 20 30 62 104 93 165 51 100 58 110 81 107 22 -3 26 2 32 33 4 20 21 58 37
85 34 55 58 159 39 170 -8 5 2 48 35 151 57 178 112 386 121 459 6 51 20 82
92 208 13 23 20 42 15 42 -5 0 -26 -32 -47 -70 -39 -73 -49 -85 -42 -47 3 12
8 43 11 70 l6 47 -213 0 c-177 0 -217 3 -236 16 -29 20 -30 64 -2 64 31 0 47
43 31 85 -7 19 -9 40 -6 46 4 5 -1 19 -10 29 -21 24 -13 88 13 97 9 4 22 12
29 19 6 6 62 17 123 24 89 10 110 16 106 27 -4 8 -6 19 -6 24 0 11 -87 0 -125
-17 -42 -18 -107 -22 -113 -6 -2 6 -1 12 2 12 19 0 211 31 214 35 3 2 2 12 -2
21 -7 18 -42 16 -165 -6 -77 -14 -83 -9 -79 73 2 37 -1 57 -8 57 -6 0 -17 7
-24 15 -8 10 -31 15 -71 15 -64 0 -83 16 -72 58 6 25 15 27 44 11 35 -19 52 6
44 66 l-6 52 113 23 c62 12 131 24 153 25 66 4 145 17 150 25 3 5 2 21 -1 38
-6 29 -6 29 -52 21 -80 -15 -89 -18 -94 -37 -4 -16 -26 -21 -133 -36 -70 -9
-130 -15 -132 -13 -2 3 -6 20 -9 39 l-6 34 132 32 c73 18 136 30 141 27 4 -3
38 0 74 6 68 13 72 17 59 67 -4 15 -12 21 -23 18 -9 -3 -42 -10 -74 -16 -43
-9 -57 -15 -53 -26 6 -16 5 -16 -149 -43 -116 -20 -124 -19 -125 24 0 11 -3
29 -6 41 -5 18 1 23 38 33 24 6 54 10 68 9 14 -1 40 -1 58 0 27 2 32 6 32 28
0 26 -1 27 -47 20 -26 -3 -49 -10 -52 -15 -4 -5 -30 -12 -59 -16 -49 -6 -54
-5 -50 11 2 10 17 21 35 26 25 7 32 13 30 30 -2 18 4 21 43 23 72 4 88 11 82
41 -4 23 -8 26 -38 21 -60 -10 -27 20 37 33 33 7 57 15 55 17 -2 3 -29 0 -60
-7 -41 -8 -60 -8 -76 0 -20 11 -20 13 -5 24 11 8 14 20 10 37 -5 20 -11 25
-29 22 -30 -6 -45 26 -21 43 15 11 15 18 -3 85 -21 76 -21 89 4 89 16 0 18 18
5 39 -6 9 -18 11 -39 6 -23 -5 -33 -2 -41 12 -8 15 -5 20 23 33 29 13 33 18
26 37 -8 19 -12 20 -50 11 -22 -6 -42 -9 -43 -7 -38 68 -56 109 -48 109 6 0
11 5 11 10 0 6 -6 10 -14 10 -18 0 -29 31 -19 55 5 14 3 17 -10 12 -12 -4 -21
2 -32 23 -8 16 -15 33 -15 37 0 10 118 53 146 53 34 0 124 41 124 57 0 25 -28
25 -92 -2 -154 -65 -186 -75 -198 -60 -6 8 -9 18 -6 23 7 12 125 56 132 49 11
-10 119 41 122 58 5 22 -26 16 -112 -24 -124 -58 -173 -62 -194 -16 -10 21 -7
24 55 50 36 16 73 28 82 28 26 -2 111 30 111 41 -1 6 -11 24 -24 39 l-22 28
-113 -42 c-89 -32 -115 -38 -122 -28 -4 7 -6 16 -4 19 2 4 51 27 109 51 58 24
107 51 110 59 8 23 30 54 44 63 7 5 10 12 7 17 -7 11 34 80 46 80 6 0 5 8 -1
19 -6 12 -6 22 -1 26 14 8 -29 104 -52 116 -19 11 -72 8 -114 -6 -18 -6 -25
-1 -42 33 -14 27 -17 42 -9 50 14 14 -91 214 -109 208 -6 -3 -19 6 -27 20 -9
13 -23 24 -31 24 -8 0 -15 5 -15 10 0 6 -7 10 -16 10 -9 0 -22 7 -28 16 -10
13 -28 6 -140 -60 -70 -42 -132 -74 -137 -70 -5 3 -16 19 -25 37 -16 29 -16
32 5 48 11 9 21 22 21 28 0 6 11 17 25 23 14 6 25 17 25 24 0 8 11 21 25 30
14 9 25 24 25 33 0 9 7 29 15 45 8 15 15 29 15 31 0 11 -106 2 -125 -11 -23
-15 -24 -14 -83 72 l-60 88 21 16 c12 9 98 70 190 134 119 84 167 123 163 133
-4 8 3 22 15 32 l20 16 -20 27 -21 26 26 21 c27 21 27 21 9 54 -18 35 -50 73
-78 96 -14 11 -21 11 -43 -3 -24 -17 -26 -16 -46 9 -19 24 -22 25 -38 10 -12
-11 -20 -13 -25 -6 -3 6 -10 11 -14 11 -5 0 -70 -49 -146 -110 -76 -60 -142
-110 -147 -110 -6 0 -27 -13 -48 -30 -36 -28 -38 -29 -54 -12 -12 14 -13 21
-3 31 6 6 12 18 12 25 0 7 42 48 93 90 81 69 92 81 92 110 0 33 -19 56 -68 84
-20 11 -27 11 -42 -3 -16 -15 -19 -14 -38 9 -25 32 -33 32 -62 1 -13 -14 -28
-25 -34 -25 -6 0 -5 5 2 12 7 7 12 15 12 20 0 13 -62 78 -74 78 -7 0 -27 16
-46 35 l-34 35 -23 -22 c-13 -12 -26 -18 -30 -14 -4 3 -25 -12 -48 -34 l-41
-41 -19 21 c-18 20 -18 21 35 75 53 53 53 55 35 75 -10 11 -14 20 -10 20 4 0
0 9 -10 20 -10 11 -24 20 -30 20 -7 0 -18 7 -25 15 -12 14 -16 13 -36 -6 -23
-22 -24 -22 -45 -3 -12 10 -30 19 -42 19 -11 0 -22 5 -24 11 -2 7 55 75 127
152 71 77 130 143 130 148 0 4 11 22 25 40 27 35 34 95 13 112 -19 14 -48 0
-93 -47 -21 -23 -43 -41 -47 -41 -15 0 -8 27 12 45 11 10 20 24 20 31 0 25
-22 26 -48 2 -15 -14 -58 -35 -97 -48 -55 -18 -79 -33 -112 -69 l-43 -45 -37
34 c-21 19 -39 36 -41 37 -2 1 0 8 4 15 5 7 7 20 6 29 -2 9 4 22 13 29 20 16
19 36 -1 44 -11 4 -22 -1 -31 -14 -9 -12 -21 -19 -29 -16 -8 3 -24 0 -34 -6
-17 -11 -23 -9 -41 9 l-22 21 52 65 c28 36 51 67 51 70 0 5 -29 0 -60 -10 -13
-4 -12 -6 2 -14 16 -9 15 -14 -15 -54 -33 -46 -48 -53 -64 -32 -21 26 -20 55
2 83 17 21 20 33 13 42 -16 19 -36 14 -54 -14 -10 -15 -23 -23 -32 -19 -8 3
-21 0 -28 -6 -8 -6 -14 -8 -14 -4 0 4 -7 2 -15 -5 -12 -10 -39 -11 -107 -6
-100 8 -158 28 -158 55 0 18 -34 40 -60 39 -8 0 -22 2 -30 6 -10 4 -21 -3 -31
-20 l-16 -25 -58 73 c-33 40 -93 105 -134 145 -70 67 -74 73 -64 96 11 23 9
26 -15 36 -15 6 -47 34 -70 61 -47 54 -138 108 -154 92 -6 -6 -41 14 -96 56
-121 91 -344 238 -422 277 -44 23 -88 57 -139 109 -40 42 -75 75 -77 73 -2 -2
21 -31 52 -65 l55 -62 -66 31 c-36 17 -68 30 -69 28 -2 -2 -32 -92 -66 -199
-35 -107 -70 -203 -78 -213 -23 -26 -68 -19 -65 9 3 30 -28 55 -70 57 -20 2
-39 6 -43 10 -4 4 -24 4 -46 1 -42 -7 -78 14 -78 46 0 9 -4 20 -9 25 -6 6 -2
48 9 105 24 122 24 130 1 130 -28 0 -32 -10 -36 -97 -5 -90 -13 -133 -26 -133
-13 0 -11 32 6 130 8 47 15 86 15 88 0 1 -11 2 -24 2 -25 0 -36 -28 -36 -91 0
-15 -5 -51 -11 -79 -9 -43 -14 -50 -35 -50 -13 0 -42 7 -65 17 -39 15 -43 15
-54 0 -7 -10 -17 -17 -23 -17 -6 0 -19 -25 -27 -55 -17 -56 -36 -72 -75 -60
-24 8 -25 18 -3 56 21 36 11 48 -46 56 -23 3 -44 10 -47 15 -8 12 14 196 31
268 7 30 16 76 20 102 6 46 5 46 -25 53 -17 4 -34 5 -36 2 -3 -3 -9 -33 -14
-68 -8 -54 -7 -66 7 -76 17 -13 17 -18 -14 -186 l-16 -87 -36 6 c-20 4 -37 8
-39 9 -7 6 20 270 27 275 5 3 10 37 12 75 l4 70 -32 3 c-35 3 -32 9 -48 -105
-4 -36 -2 -43 11 -43 13 0 15 -7 11 -37 -3 -21 -11 -82 -18 -137 l-13 -98 -35
6 c-20 3 -44 6 -53 6 -15 0 -18 9 -18 54 0 30 4 56 10 58 5 2 13 24 16 51 7
46 6 47 -20 47 -23 0 -26 -4 -28 -37 0 -21 0 -45 0 -53 1 -8 -1 -36 -4 -62 -5
-39 -10 -48 -25 -48 -17 0 -19 6 -17 38 3 32 0 37 -19 40 -25 4 -29 12 -14 28
5 5 11 32 13 59 3 48 2 50 -22 50 -20 0 -26 -6 -28 -27 -2 -16 -8 -28 -14 -28
-7 0 -9 33 -5 103 3 69 2 86 -3 52 -5 -27 -9 -68 -9 -91 -1 -26 -8 -47 -19
-57 -23 -21 -32 -21 -32 -2 0 10 -10 15 -30 15 -23 0 -30 -4 -30 -20 0 -15 -7
-20 -25 -20 -18 0 -25 5 -25 20 0 18 -7 20 -80 20 -79 0 -80 0 -80 25 0 20 -5
25 -24 25 -21 0 -25 -6 -28 -32 -2 -25 -8 -34 -25 -36 -20 -3 -23 1 -23 27 0
28 -3 31 -30 31 -16 0 -29 -3 -29 -7 1 -5 1 -22 0 -39 -1 -29 -5 -32 -56 -44
-44 -11 -57 -11 -70 0 -10 8 -15 9 -15 1 0 -15 -60 -14 -61 2 0 6 -4 2 -9 -10
-7 -18 -17 -23 -44 -23 l-34 0 -8 67 c-4 37 -3 73 2 82 5 9 8 44 6 79 -4 58
-6 63 -25 60 -21 -3 -22 -7 -18 -73 3 -38 5 -104 5 -145 1 -71 0 -75 -23 -78
-23 -4 -23 -3 -21 90 5 157 2 188 -16 188 -15 0 -16 -14 -10 -132 7 -145 3
-161 -46 -173 -25 -6 -25 -6 -31 72 -3 42 -2 80 3 83 5 3 6 32 3 64 -5 53 -8
57 -27 51 -12 -4 -30 -9 -41 -11 -19 -5 -20 -12 -16 -130 3 -118 2 -124 -17
-124 -18 0 -20 9 -27 114 -6 94 -10 118 -26 132 -10 9 -19 21 -19 26 0 9 -37
48 -45 48 -10 0 -55 49 -55 60 0 5 -9 10 -20 10 -11 0 -20 5 -20 10 0 10 -10
10 -83 3z m366 -350 c5 -63 3 -83 -7 -72 -10 10 -18 139 -9 139 6 0 13 -30 16
-67z m2411 15 c-3 -5 -14 -2 -25 8 -27 25 -23 37 6 18 14 -9 22 -20 19 -26z
m-19 -48 c-9 -33 -10 -34 -34 -20 -24 12 -25 18 -11 56 10 26 11 26 31 8 15
-13 18 -25 14 -44z m79 27 c13 -10 16 -20 11 -36 l-7 -23 -25 25 c-36 35 -18
63 21 34z m93 -98 c-14 -35 -17 -36 -45 -6 -20 21 -21 27 -11 56 l11 32 28
-26 c25 -24 27 -30 17 -56z m-105 2 c-8 -22 -8 -22 -31 -4 -18 15 -21 24 -15
47 l7 28 24 -24 c18 -19 22 -29 15 -47z m-101 33 c14 -13 15 -21 7 -45 -12
-34 -19 -36 -42 -10 -13 14 -14 24 -7 45 12 30 18 32 42 10z m280 -22 c13 -11
18 -21 12 -25 -6 -4 -21 5 -33 18 -27 29 -13 33 21 7z m-191 -47 c0 -1 -5 -16
-11 -33 -10 -30 -11 -31 -35 -16 -27 18 -28 22 -14 59 9 25 11 25 35 9 14 -9
25 -17 25 -19z m90 -27 c0 -23 -9 -22 -37 1 -15 13 -20 25 -16 40 l6 22 23
-22 c13 -12 24 -31 24 -41z m84 44 c13 -16 14 -24 5 -51 l-12 -33 -24 24 c-21
22 -23 28 -12 51 14 32 20 33 43 9z m96 -25 c0 -7 -5 -19 -10 -27 -14 -23 -44
10 -35 39 5 17 10 19 26 11 10 -6 19 -16 19 -23z m-386 0 c14 -10 15 -17 7
-40 -9 -23 -15 -27 -34 -21 -29 9 -29 7 -16 42 12 36 17 38 43 19z m450 -47
c-3 -8 -9 -23 -11 -33 -6 -20 -22 -18 -37 5 -7 11 -6 24 2 42 10 23 14 25 32
14 12 -8 18 -19 14 -28z m-282 13 c21 -19 23 -42 6 -66 -12 -15 -15 -15 -36 1
-20 16 -21 21 -11 50 13 37 16 38 41 15z m100 -59 c-6 -11 -16 -34 -22 -51
-14 -38 -21 -40 -43 -15 -14 15 -15 23 -5 50 13 33 22 39 33 22 3 -5 11 -10
17 -10 6 0 2 10 -9 23 -30 33 -17 56 14 24 20 -19 23 -28 15 -43z m83 49 c9
-12 10 -23 2 -40 -12 -26 -20 -29 -36 -9 -8 9 -8 21 -1 40 11 30 18 32 35 9z
m-270 -39 c0 -13 -6 -18 -20 -16 -29 5 -38 17 -30 42 6 19 9 20 28 7 12 -8 22
-23 22 -33z m424 12 c8 -10 7 -23 -5 -52 l-16 -39 -19 24 c-17 21 -17 25 -4
52 17 32 27 36 44 15z m-94 -65 c-7 -33 -21 -36 -38 -10 -5 8 -4 25 3 43 10
27 12 28 26 14 12 -11 14 -25 9 -47z m165 16 c0 -4 -9 -26 -21 -48 -20 -39
-21 -40 -39 -24 -15 13 -17 22 -10 36 6 10 14 29 20 44 9 22 12 24 30 13 11
-7 20 -16 20 -21z m-435 3 c10 -11 15 -20 11 -20 -14 0 -46 21 -46 30 0 16 16
11 35 -10z m185 -24 c-5 -5 -10 -17 -10 -26 0 -9 -6 -24 -13 -33 -10 -15 -15
-16 -30 -4 -16 11 -17 16 -6 40 10 21 17 26 33 21 20 -6 20 -6 3 13 -22 25
-10 39 15 16 13 -11 15 -20 8 -27z m284 -68 c-21 -41 -28 -47 -40 -38 -18 16
-18 26 6 79 20 42 21 43 40 26 19 -17 19 -18 -6 -67z m-144 52 c8 -15 7 -27
-3 -45 -13 -25 -13 -26 -30 -7 -15 16 -16 24 -6 46 15 31 25 33 39 6z m-90
-15 c20 -24 6 -28 -15 -5 -10 11 -13 20 -8 20 6 0 16 -7 23 -15z m310 -23 c-1
-4 -13 -31 -28 -60 -26 -50 -29 -52 -44 -35 -15 17 -14 22 8 71 21 48 25 52
44 42 11 -6 20 -14 20 -18z m-320 -7 c12 -14 5 -55 -9 -55 -17 0 -32 30 -26
50 8 24 18 25 35 5z m151 -51 c-11 -25 -13 -26 -31 -9 -15 14 -17 22 -8 47
l11 30 20 -21 c18 -17 19 -24 8 -47z m-86 26 c10 -11 16 -20 13 -20 -3 0 -13
9 -23 20 -10 11 -16 20 -13 20 3 0 13 -9 23 -20z m-3 -52 c-17 -17 -45 12 -36
36 6 16 8 16 28 -3 16 -16 18 -23 8 -33z m137 18 c8 -10 8 -21 1 -41 -10 -26
-11 -27 -30 -10 -15 14 -17 21 -8 41 13 27 21 30 37 10z m-256 -76 c79 -45 86
-54 65 -83 -11 -15 -18 -16 -45 -5 -17 6 -34 19 -36 27 -2 9 -35 27 -75 41
-40 13 -72 27 -72 31 0 3 5 20 11 38 l11 31 32 -18 c17 -10 66 -38 109 -62z
m165 48 c7 -7 12 -18 12 -25 0 -11 -5 -11 -20 -3 -11 6 -20 17 -20 25 0 18 12
19 28 3z m135 -47 c-2 -42 -9 -49 -30 -28 -14 13 -15 21 -5 42 16 35 37 26 35
-14z m-83 -6 c14 -16 10 -18 -14 -9 -9 3 -16 10 -16 15 0 14 16 11 30 -6z
m500 -145 c0 -13 -19 -22 -30 -15 -14 9 0 34 16 28 8 -3 14 -9 14 -13z m29
-47 c-15 -18 -34 -1 -25 22 5 14 9 15 21 5 12 -10 13 -16 4 -27z m-73 -31
c-16 -32 -34 -48 -42 -39 -3 3 4 24 16 47 15 28 25 39 32 32 6 -6 4 -20 -6
-40z m104 14 c0 -8 -4 -18 -10 -21 -5 -3 -10 3 -10 14 0 12 5 21 10 21 6 0 10
-6 10 -14z m-56 -5 c8 -13 -26 -71 -41 -71 -18 0 -16 17 4 51 18 30 28 35 37
20z m96 -19 c-1 -17 -19 -34 -29 -28 -8 5 -8 13 -1 27 10 18 30 18 30 1z m-77
-49 c-16 -24 -33 -31 -33 -13 0 6 7 22 17 36 11 18 18 22 24 13 4 -7 0 -23 -8
-36z m97 -3 c-8 -15 -15 -19 -22 -12 -6 6 -5 17 3 31 18 27 35 10 19 -19z
m-57 4 c8 -9 -15 -44 -30 -44 -10 0 -10 6 -1 25 11 25 19 30 31 19z m85 -33
c-14 -22 -28 -28 -28 -11 0 19 24 50 33 41 5 -5 3 -18 -5 -30z m-2558 -15
c1041 -114 1991 -524 2775 -1197 154 -132 413 -392 539 -539 704 -824 1120
-1825 1206 -2905 23 -285 12 -727 -26 -1030 -166 -1342 -886 -2579 -1979
-3400 -761 -572 -1605 -898 -2580 -997 -169 -17 -746 -17 -915 0 -1231 126
-2289 627 -3142 1489 -389 393 -680 797 -924 1285 -373 745 -550 1537 -531
2378 12 537 91 992 256 1487 462 1384 1506 2504 2860 3070 510 213 983 322
1631 377 112 9 693 -3 830 -18z m-3806 -137 c11 -18 14 -29 9 -26 -6 4 -23 11
-38 17 -23 9 -25 13 -15 25 18 21 23 19 44 -16z m-222 -99 c-54 -96 -83 -132
-97 -120 -11 9 -8 22 15 73 15 34 33 86 40 115 l12 52 28 -37 28 -38 -26 -45z
m7022 109 c43 0 55 -3 41 -9 -40 -17 -195 -7 -195 13 0 6 18 7 46 3 26 -3 74
-6 108 -7z m-7105 -119 c-20 -53 -35 -78 -41 -72 -6 6 -1 27 15 58 13 27 30
67 38 89 7 23 14 33 17 24 1 -9 -11 -54 -29 -99z m329 63 c14 -6 16 -19 3 -28
-6 -3 -8 -20 -6 -37 2 -18 -1 -38 -7 -45 -8 -11 -16 -6 -35 19 -34 44 -54 93
-47 112 5 14 10 14 42 0 21 -9 43 -18 50 -21z m6831 17 c-5 -8 -17 -26 -27
-39 -18 -23 -22 -23 -68 -12 -125 30 -156 42 -145 54 7 9 47 12 129 12 104 0
119 -2 111 -15z m-131 -57 c71 -17 95 -33 47 -33 -13 0 -58 7 -99 16 -57 13
-73 20 -69 31 4 9 14 13 27 9 11 -3 54 -13 94 -23z m-6903 -12 c-3 -9 -24 -48
-47 -88 -30 -53 -44 -69 -52 -60 -9 8 0 31 38 93 28 45 55 79 59 77 5 -3 6
-12 2 -22z m59 -63 c22 -32 32 -54 25 -57 -6 -2 -15 3 -20 10 -4 7 -11 10 -15
6 -4 -4 -13 -2 -21 4 -10 9 -19 7 -38 -5 -14 -9 -25 -12 -25 -6 0 15 43 100
51 100 3 0 23 -24 43 -52z m6888 25 c9 -5 -62 -103 -74 -103 -5 0 -7 17 -4 38
3 28 -1 43 -17 61 l-22 23 55 -7 c30 -4 58 -9 62 -12z m123 -122 c-9 -57 -13
-65 -30 -51 -9 8 -21 6 -43 -7 -24 -14 -34 -15 -43 -6 -23 23 86 133 114 116
5 -3 6 -26 2 -52z m43 37 c7 -9 5 -20 -9 -37 l-19 -23 0 36 c0 37 10 45 28 24z
m-7494 -191 c15 -24 -3 -35 -20 -13 -8 11 -14 24 -14 29 0 13 22 3 34 -16z
m-44 -12 c7 -9 10 -18 7 -22 -8 -7 -37 15 -37 28 0 14 16 11 30 -6z m-31 -19
c9 -10 8 -15 -3 -19 -14 -5 -36 10 -36 25 0 13 27 9 39 -6z m-43 -34 c-9 -9
-37 8 -31 18 5 8 11 7 21 -1 8 -6 12 -14 10 -17z m-40 -3 c3 -6 1 -16 -5 -22
-9 -9 -14 -8 -21 3 -9 15 -4 30 10 30 5 0 12 -5 16 -11z m122 -20 c7 -12 11
-23 8 -27 -7 -6 -46 27 -46 40 0 16 25 8 38 -13z m-163 -8 c7 -12 -12 -24 -25
-16 -11 7 -4 25 10 25 5 0 11 -4 15 -9z m129 -10 c12 -13 14 -21 6 -26 -11 -7
-50 21 -50 37 0 15 27 8 44 -11z m-40 -20 c19 -20 24 -31 16 -36 -13 -8 -72
44 -64 57 9 14 19 9 48 -21z m-35 -27 c36 -45 25 -62 -14 -24 -19 19 -35 38
-35 42 0 18 30 7 49 -18z m-400 -208 c43 -44 43 -44 21 -56 -20 -11 -27 -7
-66 31 -41 40 -43 45 -27 56 24 18 24 18 72 -31z m-55 -35 l39 -40 -27 -7
c-22 -5 -34 -1 -61 26 -27 26 -32 37 -24 47 18 21 32 16 73 -26z m-68 -27 c39
-30 42 -39 14 -54 -16 -8 -26 -4 -56 22 -33 30 -35 33 -18 45 23 17 20 17 60
-13z m200 -15 c16 -17 16 -22 4 -29 -21 -13 -25 -13 -46 11 -16 17 -16 22 -4
29 21 13 25 13 46 -11z m-231 -49 c3 -5 -4 -14 -15 -20 -16 -9 -26 -6 -50 11
-28 21 -29 24 -14 41 16 17 18 17 45 -3 16 -11 31 -24 34 -29z m168 26 c22
-17 22 -32 -2 -39 -24 -6 -71 38 -49 46 21 9 32 7 51 -7z m-59 -35 c17 -19 17
-20 -4 -31 -19 -10 -26 -9 -44 9 -18 19 -19 23 -6 31 22 14 35 12 54 -9z
m-196 -14 l22 -24 -24 -11 c-20 -9 -27 -7 -46 13 -21 22 -21 24 -3 34 25 14
27 14 51 -12z m128 -18 c16 -17 16 -22 4 -29 -22 -14 -35 -12 -54 9 -17 18
-17 20 1 30 25 14 27 14 49 -10z m161 4 c-9 -9 -20 -13 -24 -9 -4 4 -1 11 7
16 25 16 35 11 17 -7z m-356 -29 c10 -13 10 -17 -2 -25 -32 -20 -61 0 -39 26
16 19 24 19 41 -1z m317 4 c-6 -17 -36 -34 -45 -24 -4 4 1 14 11 22 24 17 39
18 34 2z m-185 -16 c15 -16 15 -19 -4 -31 -18 -10 -24 -10 -42 6 -12 10 -24
19 -27 21 -7 5 24 22 41 22 9 0 23 -8 32 -18z m97 3 c0 -2 -10 -9 -22 -15 -22
-11 -22 -10 -4 4 21 17 26 19 26 11z m-164 -47 c4 -6 -1 -17 -11 -24 -16 -12
-22 -11 -42 8 -22 21 -23 23 -7 35 18 13 46 4 60 -19z m198 23 c3 -4 -3 -16
-13 -25 -17 -15 -19 -15 -31 0 -12 13 -11 17 1 25 18 11 36 11 43 0z m-329
-11 c3 -6 -6 -15 -20 -20 -37 -14 -40 -13 -20 10 20 22 31 25 40 10z m219 -15
c-10 -8 -23 -14 -29 -14 -5 0 -1 6 9 14 11 8 24 15 30 15 5 0 1 -7 -10 -15z
m-176 -21 c29 -20 28 -28 -4 -43 -23 -10 -30 -9 -51 11 l-24 22 23 13 c29 16
29 16 56 -3z m223 5 c16 -8 18 -13 8 -25 -15 -18 -33 -18 -49 1 -23 28 4 44
41 24z m-115 -24 c-23 -17 -36 -19 -36 -6 0 11 18 19 40 20 11 0 10 -3 -4 -14z
m-188 -24 c28 -24 28 -26 -8 -41 -25 -11 -34 -10 -57 5 l-27 18 23 18 c29 23
40 23 69 0z m246 1 c15 -18 15 -20 -2 -35 -17 -16 -20 -15 -43 9 -20 21 -21
27 -9 34 22 14 35 12 54 -8z m231 -2 c17 -19 17 -20 -7 -48 -13 -16 -29 -27
-35 -25 -7 3 -33 -23 -59 -56 -26 -34 -50 -61 -54 -61 -5 0 -18 9 -31 20 l-24
20 89 85 c50 47 93 85 96 85 4 0 15 -9 25 -20z m-364 -22 c-22 -17 -41 -17
-41 1 0 11 43 30 54 23 5 -3 -1 -13 -13 -24z m68 -22 c23 -24 23 -24 3 -35
-27 -15 -33 -14 -61 10 -23 19 -23 20 -5 34 27 20 37 19 63 -9z m-130 0 c9
-10 6 -17 -14 -30 -20 -13 -28 -14 -45 -4 -19 12 -18 13 13 30 17 9 33 17 33
18 1 0 7 -6 13 -14z m-141 -8 c17 -17 15 -23 -15 -37 -36 -16 -53 1 -28 29 21
23 27 24 43 8z m198 -37 l25 -19 -23 -16 c-12 -9 -27 -16 -33 -16 -12 1 -60
39 -54 44 10 8 45 25 52 26 5 0 20 -9 33 -19z m-143 -6 c18 -13 17 -14 -6 -30
-20 -13 -30 -14 -46 -5 -27 14 -26 24 2 38 29 14 29 14 50 -3z m-129 -14 c3
-4 -6 -13 -20 -20 -35 -16 -40 -14 -19 9 20 22 31 25 39 11z m66 -50 c0 -3 -9
-12 -21 -19 -17 -11 -25 -11 -45 3 -30 19 -30 29 -1 42 16 7 28 6 45 -5 12 -8
22 -17 22 -21z m118 23 c28 -19 28 -28 -2 -44 -21 -11 -28 -10 -50 8 l-26 20
23 15 c28 20 28 20 55 1z m112 -9 c-7 -8 -20 -15 -29 -15 -12 0 -10 5 9 20 28
21 39 18 20 -5z m-172 -63 c2 -6 -6 -16 -18 -22 -17 -9 -25 -7 -46 9 l-25 19
23 16 c19 13 25 14 42 3 11 -8 22 -19 24 -25z m121 25 c8 -11 6 -18 -8 -31
-16 -15 -23 -16 -42 -5 l-23 12 23 18 c28 23 35 23 50 6z m-74 -53 c20 -13 22
-19 12 -35 -15 -24 -25 -24 -57 1 -25 19 -25 19 -5 34 25 19 21 19 50 0z
m10285 -1323 c0 -10 -121 -64 -128 -56 -8 7 -3 10 63 39 71 30 65 28 65 17z
m-11188 -842 c49 -10 88 -29 61 -29 -23 0 -118 24 -127 32 -13 11 2 10 66 -3z
m11718 -1424 c0 -2 -5 -16 -12 -30 -9 -20 -17 -25 -32 -21 -12 3 -24 6 -28 6
-5 0 -8 11 -8 25 0 23 4 25 40 25 22 0 40 -2 40 -5z m80 1 c0 -3 -4 -16 -10
-30 -7 -20 -16 -26 -40 -26 -32 0 -36 9 -20 41 7 12 21 19 40 19 17 0 30 -2
30 -4z m80 -7 c0 -27 -22 -49 -50 -49 -34 0 -34 -1 -20 34 7 20 16 26 40 26
16 0 30 -5 30 -11z m30 -11 c0 -19 -18 -43 -25 -36 -4 3 -2 16 5 27 12 24 20
27 20 9z m-220 -63 c0 -2 -5 -16 -12 -30 -15 -32 -48 -34 -48 -2 0 13 3 27 7
30 7 8 53 10 53 2z m80 -5 c-1 -37 -14 -50 -51 -50 l-40 0 16 30 c13 25 21 30
45 28 17 -1 30 -5 30 -8z m70 -8 c0 -15 -32 -52 -45 -52 -19 0 -25 13 -18 38
4 16 13 22 34 22 16 0 29 -3 29 -8z m50 -6 c0 -28 -12 -46 -31 -46 -21 0 -24
12 -9 41 12 22 40 26 40 5z m-245 -88 c-4 -13 -12 -27 -18 -33 -7 -7 -8 -4 -3
8 3 10 6 25 6 33 0 8 5 14 11 14 6 0 8 -9 4 -22z m95 17 c0 -4 -6 -19 -14 -34
-12 -23 -20 -27 -45 -23 -33 5 -37 12 -21 43 8 13 21 19 45 19 19 0 35 -2 35
-5z m60 -1 c0 -18 -37 -64 -52 -64 -15 0 -16 4 -7 26 5 15 12 31 15 35 6 10
44 12 44 3z m80 -10 c0 -2 -5 -15 -12 -29 -9 -20 -18 -25 -49 -25 l-38 0 19
33 c17 29 24 33 50 29 16 -2 30 -6 30 -8z m-183 -104 c-11 -30 -32 -37 -68
-22 -12 5 -14 13 -8 30 7 18 16 22 48 22 l39 0 -11 -30z m53 25 c0 -16 -25
-55 -36 -55 -10 0 -11 7 -3 30 6 17 17 30 25 30 8 0 14 -2 14 -5z m-240 -24
c0 -18 -36 -206 -44 -227 -2 -6 -18 -9 -34 -6 -29 4 -30 6 -25 41 4 20 10 39
15 42 6 3 12 43 15 88 l6 81 33 0 c27 0 34 -4 34 -19z m312 -11 c-10 -17 -23
-28 -30 -25 -8 3 -22 5 -33 5 -16 0 -17 3 -7 25 9 20 18 25 49 25 l38 0 -17
-30z m29 -23 c-18 -18 -23 -1 -9 29 13 28 13 28 16 5 2 -13 -1 -28 -7 -34z
m-181 -26 c0 -26 -15 -41 -39 -41 -34 0 -40 6 -34 31 4 14 14 19 39 19 19 0
34 -4 34 -9z m30 -21 c-6 -11 -15 -20 -21 -20 -6 0 -6 7 1 20 6 11 15 20 21
20 6 0 6 -7 -1 -20z m90 14 c0 -20 -24 -44 -45 -44 -28 0 -38 12 -29 34 4 10
18 16 40 16 19 0 34 -3 34 -6z m53 -24 c-3 -13 -14 -20 -29 -20 -26 0 -27 1
-18 24 3 9 16 16 29 16 18 0 22 -4 18 -20z m-215 -38 c20 -13 3 -42 -24 -42
-17 0 -24 6 -24 18 0 31 21 41 48 24z m36 -26 c-3 -9 -10 -16 -15 -16 -6 0 -5
9 1 21 13 24 24 20 14 -5z m80 15 c13 -21 -7 -41 -40 -41 -37 0 -39 2 -24 31
11 19 54 26 64 10z m82 -17 c-3 -9 -6 -20 -6 -25 0 -5 -16 -9 -35 -9 -38 0
-40 2 -25 31 14 25 76 28 66 3z m-220 -61 c-3 -8 -6 -17 -6 -19 0 -2 -7 -4
-15 -4 -15 0 -21 31 -9 43 11 11 35 -5 30 -20z m24 -3 c-6 -11 -13 -20 -16
-20 -2 0 0 9 6 20 6 11 13 20 16 20 2 0 0 -9 -6 -20z m74 14 c25 -10 -3 -44
-36 -44 -29 0 -33 6 -22 34 6 16 30 21 58 10z m98 -10 c3 -3 4 -14 1 -25 -4
-14 -14 -19 -42 -19 -46 0 -53 6 -38 31 11 18 66 27 79 13z m-224 -69 c-13
-29 -28 -33 -28 -7 0 22 8 32 26 32 11 0 11 -5 2 -25z m102 7 c0 -24 -27 -43
-53 -37 -22 6 -25 10 -16 26 10 19 69 28 69 11z m108 -8 c2 -1 1 -12 -3 -24
-6 -20 -12 -22 -53 -16 -55 7 -57 9 -43 34 9 17 18 19 53 15 24 -3 45 -7 46
-9z m-239 -65 c-13 -26 -23 -18 -14 10 3 12 11 19 16 16 5 -4 5 -14 -2 -26z
m94 15 c11 -12 -18 -44 -40 -44 -28 0 -38 17 -23 35 12 15 51 20 63 9z m124
-18 c1 -1 0 -12 -4 -24 -5 -20 -10 -22 -42 -17 -82 14 -82 13 -68 36 10 18 18
20 62 14 27 -3 51 -7 52 -9z m-157 -45 c0 -36 -28 -51 -58 -33 -22 14 -2 42
29 42 16 0 29 -4 29 -9z m138 -16 c2 -2 1 -13 -3 -24 -5 -18 -12 -20 -48 -15
-86 11 -89 12 -76 36 10 18 17 20 67 14 31 -4 58 -8 60 -11z m-229 -420 c1 -2
0 -9 -4 -15 -9 -14 -65 -3 -85 17 -13 14 -10 14 35 8 28 -4 52 -8 54 -10z m51
-20 c0 -8 -7 -15 -15 -15 -8 0 -15 7 -15 15 0 8 7 15 15 15 8 0 15 -7 15 -15z
m-67 -25 c15 -13 -13 -22 -49 -16 -21 4 -34 13 -34 22 0 12 8 14 38 8 20 -3
41 -10 45 -14z m51 -8 c2 -4 1 -14 -3 -20 -10 -17 -41 -4 -34 14 6 15 29 19
37 6z m-90 -28 c22 -9 20 -24 -3 -24 -26 0 -51 10 -51 21 0 10 31 12 54 3z
m66 -24 c0 -5 -7 -10 -15 -10 -8 0 -15 5 -15 10 0 6 7 10 15 10 8 0 15 -4 15
-10z m-81 -19 c7 -5 9 -11 4 -14 -13 -8 -53 3 -53 14 0 11 31 11 49 0z m69
-22 c-2 -6 -7 -10 -11 -10 -4 1 -14 1 -23 1 -8 0 -12 5 -9 10 8 13 48 13 43
-1z m-34 -25 c22 -9 20 -24 -3 -24 -21 0 -34 13 -24 24 8 7 8 7 27 0z m-11
-40 c12 -13 -3 -21 -28 -17 -13 3 -22 9 -19 14 6 10 38 12 47 3z m-11367 -259
c4 -9 11 -15 18 -14 37 4 56 -2 56 -20 0 -25 -109 -57 -140 -41 -11 6 -20 13
-20 15 0 9 63 75 71 75 5 0 12 -7 15 -15z m-72 -17 c-10 -13 -20 -25 -22 -28
-3 -5 -22 21 -22 32 0 6 18 11 54 17 5 0 1 -9 -10 -21z m11299 -135 c4 -53 5
-99 2 -101 -9 -10 -24 49 -31 122 -6 64 -4 76 8 76 12 0 16 -21 21 -97z m47
90 c1 -32 32 -149 49 -182 24 -46 24 -46 -31 -29 -44 13 -44 14 -53 136 -5 78
-4 82 15 82 11 0 20 -3 20 -7z m53 -93 c8 -41 18 -84 22 -95 6 -16 5 -17 -4
-5 -16 22 -51 137 -51 168 0 46 17 10 33 -68z m-139 -21 c4 -28 5 -53 2 -56
-6 -7 -116 29 -116 38 0 4 18 10 39 14 30 5 41 12 45 31 10 39 23 28 30 -27z
m-11094 16 c0 -8 -7 -15 -16 -15 -8 0 -13 -4 -9 -9 3 -6 -2 -14 -10 -19 -13
-6 -14 -14 -6 -35 6 -14 7 -29 2 -31 -10 -7 -84 74 -76 83 6 6 93 39 108 40 4
1 7 -6 7 -14z m-78 -97 c53 -58 66 -83 42 -83 -10 0 -124 129 -124 140 0 19
32 -4 82 -57z m-57 0 c25 -28 55 -64 66 -80 18 -25 19 -29 5 -34 -10 -4 -31 7
-56 30 -22 19 -65 52 -96 73 l-56 37 39 12 c21 7 41 12 45 13 3 1 27 -22 53
-51z m-72 -32 c60 -40 117 -96 97 -96 -7 0 -34 19 -59 43 -25 23 -59 52 -76
64 -48 35 -19 26 38 -11z m11225 -27 c43 -19 62 -43 46 -59 -5 -5 -31 -12 -58
-16 -45 -6 -49 -5 -42 11 5 13 -1 25 -19 41 -16 14 -23 27 -19 38 7 18 18 16
92 -15z m55 -98 c-4 -17 -9 -18 -35 -9 -22 8 -26 13 -16 19 7 5 23 9 35 9 16
0 20 -5 16 -19z m-11003 -249 c0 -5 -11 -14 -25 -20 -20 -9 -25 -9 -25 2 0 14
14 24 38 25 6 1 12 -3 12 -7z m-15 -59 c-24 -17 -35 -17 -35 1 0 8 8 16 18 19
27 6 37 -5 17 -20z m85 -1 c0 -5 -11 -14 -25 -20 -20 -9 -25 -9 -25 2 0 14 14
24 38 25 6 1 12 -3 12 -7z m-70 -27 c0 -8 -2 -15 -4 -15 -2 0 -11 -3 -20 -6
-10 -4 -16 -1 -16 9 0 14 13 24 33 26 4 1 7 -6 7 -14z m67 -32 c-12 -7 -28
-12 -34 -13 -22 0 -14 19 14 34 35 18 54 -2 20 -21z m-67 -12 c0 -12 -20 -25
-27 -18 -7 7 6 27 18 27 5 0 9 -4 9 -9z m74 -34 c-33 -17 -54 -16 -54 3 0 4
17 15 38 23 51 20 65 -1 16 -26z m-64 -11 c0 -16 -18 -31 -27 -22 -8 8 5 36
17 36 5 0 10 -6 10 -14z m120 -4 c0 -4 -17 -14 -37 -22 -21 -8 -41 -16 -45
-18 -5 -2 -8 3 -8 11 0 9 12 20 28 25 34 13 62 15 62 4z m-112 -49 c-5 -25
-28 -28 -28 -4 0 12 6 21 16 21 9 0 14 -7 12 -17z m262 -369 c0 -9 -41 -34
-55 -34 -3 0 -5 11 -5 23 0 27 40 52 52 33 4 -6 8 -16 8 -22z m-70 -26 c0 -17
-13 -30 -51 -51 -55 -31 -54 -31 -63 -2 -5 16 3 25 42 46 59 33 72 35 72 7z
m113 -31 c-7 -11 -23 12 -23 33 1 12 4 11 15 -4 8 -10 12 -23 8 -29z m-40 3
c5 -19 -24 -50 -45 -50 -16 0 -8 49 10 59 24 15 29 14 35 -9z m232 -30 c9 -17
13 -35 10 -40 -4 -6 14 -40 39 -76 25 -36 46 -66 46 -68 0 -1 -14 -12 -30 -25
l-31 -22 -49 106 c-28 58 -50 112 -50 120 0 13 26 34 42 35 4 0 15 -14 23 -30z
m-295 -17 c0 -11 -88 -68 -95 -61 -1 1 -5 12 -9 23 -5 16 3 25 42 45 45 25 61
23 62 -7z m125 7 c7 -23 -2 -43 -16 -35 -12 8 -12 55 0 55 5 0 12 -9 16 -20z
m-55 -19 c0 -5 2 -16 5 -23 5 -12 -30 -38 -50 -38 -14 0 -2 50 13 59 22 13 32
14 32 2z m-61 -66 c1 -10 -78 -60 -84 -53 -2 2 -5 13 -7 26 -2 18 6 28 37 45
40 23 52 19 54 -18z m140 16 c8 -15 7 -20 -5 -25 -21 -8 -21 -8 -27 13 -9 34
16 43 32 12z m-69 -20 c0 -5 2 -15 5 -23 3 -8 -7 -21 -25 -31 l-30 -18 0 27
c0 15 8 33 18 40 20 16 32 18 32 5z m103 -41 c3 -13 -3 -24 -18 -34 -22 -15
-24 -14 -31 6 -4 15 -1 26 12 35 24 18 31 16 37 -7z m-169 -6 c10 -27 7 -33
-25 -49 -34 -18 -34 -18 -43 10 -4 15 1 24 22 37 35 21 39 21 46 2z m108 -29
c3 -14 1 -25 -3 -25 -5 0 -9 11 -9 25 0 14 2 25 4 25 2 0 6 -11 8 -25z m-22
-16 c0 -22 -25 -48 -47 -49 -19 0 -15 48 5 59 27 16 42 13 42 -10z m114 -16
c7 -18 -30 -55 -49 -49 -21 6 -16 42 7 54 32 15 35 14 42 -5z m-184 -28 c0
-15 -8 -29 -22 -36 -18 -10 -24 -8 -35 7 -12 16 -11 21 9 36 32 24 48 22 48
-7z m110 -21 c0 -14 -4 -23 -10 -19 -5 3 -10 15 -10 26 0 10 5 19 10 19 6 0
10 -12 10 -26z m-30 -17 c0 -23 -34 -52 -50 -42 -18 11 -10 42 13 53 32 16 37
14 37 -11z m128 -18 c2 -18 -5 -29 -27 -42 l-30 -18 -7 27 c-5 21 -2 31 17 45
30 23 43 20 47 -12z m-198 -23 c0 -33 -20 -44 -37 -20 -12 16 -11 20 4 31 25
19 33 16 33 -11z m122 -21 c3 -14 1 -28 -4 -31 -12 -8 -14 -5 -22 29 -5 20 -3
27 8 27 7 0 16 -11 18 -25z m-37 -22 c5 -21 1 -31 -17 -45 -31 -24 -35 -23
-41 10 -4 20 -1 32 15 45 28 23 35 22 43 -10z m165 -20 c0 -7 -4 -13 -10 -13
-5 0 -10 6 -10 14 0 8 -3 23 -6 33 -5 16 -4 16 10 -1 9 -11 16 -26 16 -33z
m-30 -9 c0 -12 -11 -29 -26 -39 -30 -19 -30 -19 -38 20 -6 26 -2 33 21 47 30
18 43 10 43 -28z m-208 -14 c5 -34 -7 -41 -17 -10 -5 17 0 40 9 40 2 0 6 -13
8 -30z m133 -21 c5 -22 3 -34 -6 -40 -24 -15 -29 -10 -29 24 0 55 24 66 35 16z
m146 -11 c10 -18 8 -24 -6 -34 -23 -17 -35 -9 -35 20 0 41 23 48 41 14z m-191
-28 c0 -18 -8 -34 -22 -44 -25 -18 -33 -13 -42 26 -5 23 -2 30 21 42 34 18 43
13 43 -24z m140 6 c0 -8 2 -20 5 -28 3 -8 -7 -21 -25 -31 l-29 -18 -7 27 c-6
21 -2 31 16 46 27 22 40 23 40 4z m100 -67 c0 -4 -13 -17 -29 -28 l-29 -21 -7
27 c-5 21 -1 31 17 45 21 16 24 16 36 1 6 -9 12 -20 12 -24z m-167 4 c5 -25
-13 -52 -34 -53 -13 0 -20 52 -8 66 18 22 36 16 42 -13z m-65 -74 c-9 -6 -17
0 -27 18 -12 24 -11 28 5 40 17 12 20 11 27 -18 6 -23 5 -34 -5 -40z m156 39
c4 -16 0 -28 -15 -40 -28 -23 -35 -23 -43 5 -4 15 0 27 15 40 28 22 35 22 43
-5z m-64 -60 c0 -16 -35 -48 -52 -48 -19 0 -7 58 15 73 24 16 37 7 37 -25z
m-70 -46 l-1 -27 -13 25 c-15 25 -12 45 5 35 5 -4 9 -18 9 -33z m8870 -912 c0
-8 -20 8 -45 35 -24 28 -44 57 -45 65 0 8 20 -8 45 -35 24 -28 44 -57 45 -65z
m-6880 -405 c0 -4 -57 -102 -67 -114 -2 -2 -6 -2 -9 2 -7 7 57 117 68 117 5 0
8 -2 8 -5z m4559 -657 c6 -17 10 -32 9 -33 -6 -6 -175 -25 -213 -25 -35 0 -44
4 -48 22 -3 12 -4 25 -2 28 8 13 68 21 75 9 5 -7 27 -4 71 9 88 28 95 27 108
-10z m320 -109 c14 -41 15 -39 -14 -39 -18 0 -28 7 -35 26 -12 30 -6 44 20 44
11 0 22 -12 29 -31z m-79 -16 c0 -8 -13 -13 -30 -13 -16 0 -30 5 -30 10 0 6 0
13 -1 18 0 4 10 10 23 13 23 5 38 -5 38 -28z m-90 -3 c0 -12 -17 -12 -45 0
-17 7 -15 9 13 9 17 1 32 -3 32 -9z m-170 -22 c0 -7 3 -23 6 -35 5 -19 2 -23
-19 -23 -19 0 -26 6 -30 27 -3 16 -3 31 0 35 7 13 43 9 43 -4z m89 -19 c16
-46 14 -50 -16 -43 -35 8 -32 6 -43 43 -8 30 -7 31 20 31 22 0 30 -6 39 -31z
m-165 5 c10 -27 7 -34 -18 -34 -17 0 -25 7 -28 25 -4 21 -1 25 17 25 13 0 26
-7 29 -16z m256 -10 c15 -38 13 -44 -19 -44 -33 0 -35 2 -45 43 -6 25 -4 27
24 27 24 0 33 -6 40 -26z m99 -15 c10 -28 9 -29 -25 -29 -20 0 -34 5 -34 13 0
6 -3 21 -6 33 -5 18 -2 20 25 16 22 -3 32 -12 40 -33z m-564 21 c4 -6 -6 -10
-22 -9 -25 0 -26 1 -8 9 11 5 21 9 22 9 1 1 5 -3 8 -9z m73 -7 c2 -8 -6 -13
-22 -13 -26 0 -40 12 -29 24 11 11 46 2 51 -11z m62 13 c0 -2 3 -11 6 -20 4
-11 0 -16 -14 -16 -21 0 -46 23 -35 33 7 8 43 10 43 3z m510 -15 c18 -34 12
-52 -15 -48 -29 4 -30 5 -39 40 -6 24 -4 27 18 27 15 0 30 -8 36 -19z m-1980
-50 c0 -42 -5 -65 -19 -82 l-18 -23 -27 46 c-31 53 -33 68 -7 68 12 0 21 9 25
25 4 16 13 25 26 25 18 0 20 -7 20 -59z m120 29 c0 -11 5 -20 10 -20 6 0 10
-7 10 -15 0 -10 10 -15 30 -15 17 0 30 -4 30 -8 0 -7 -82 -52 -95 -52 -3 0 -5
29 -5 65 0 37 4 65 10 65 6 0 10 -9 10 -20z m1156 -4 c1 0 4 -13 8 -28 4 -20
2 -28 -6 -28 -22 0 -36 14 -44 44 -6 26 -5 28 17 21 13 -4 24 -8 25 -9z m72
-40 c3 -24 0 -27 -20 -24 -18 2 -24 10 -26 35 -3 30 -2 32 20 24 15 -5 24 -18
26 -35z m-509 -38 c0 -10 -6 -18 -14 -18 -11 0 -15 11 -15 38 0 70 24 53 29
-20z m634 65 c-7 -2 -19 -2 -25 0 -7 3 -2 5 12 5 14 0 19 -2 13 -5z m-771 -33
c3 -20 0 -30 -9 -30 -13 0 -18 41 -6 53 10 10 10 9 15 -23z m90 -7 c6 -44 4
-48 -17 -40 -20 8 -21 77 -1 77 8 0 16 -14 18 -37z m621 30 c2 -5 7 -20 11
-35 6 -25 4 -26 -21 -19 -18 5 -29 16 -34 34 -6 24 -4 27 16 27 13 0 26 -3 28
-7z m140 0 c-7 -2 -21 -2 -30 0 -10 3 -4 5 12 5 17 0 24 -2 18 -5z m82 -3 c4
-6 -5 -10 -19 -10 -14 0 -26 5 -26 10 0 6 9 10 19 10 11 0 23 -4 26 -10z
m-887 -33 c2 -19 -1 -27 -12 -27 -11 0 -16 10 -16 31 0 38 24 35 28 -4z m735
26 c2 -5 7 -20 11 -35 7 -32 -12 -38 -38 -12 -23 22 -21 54 3 54 11 0 22 -3
24 -7z m247 -8 c0 -17 -4 -18 -37 -9 -33 9 -28 24 7 24 20 0 30 -5 30 -15z
m90 -4 c15 -29 13 -31 -22 -24 -53 10 -66 43 -18 43 19 0 33 -7 40 -19z m-274
3 c15 -4 23 -16 26 -35 4 -27 2 -30 -21 -27 -20 2 -27 10 -32 36 -7 34 -6 35
27 26z m377 -20 c4 -23 2 -25 -26 -22 -20 2 -32 10 -38 26 -8 20 -5 22 25 22
28 0 34 -4 39 -26z m86 -6 c6 -17 10 -32 9 -34 -2 -1 -15 0 -30 3 -18 3 -30
14 -37 34 -9 28 -9 29 19 29 23 0 30 -6 39 -32z m-1729 -10 c0 -5 -5 -8 -11
-8 -6 0 -44 -13 -86 -30 -85 -34 -83 -34 -83 -19 0 6 37 27 83 48 77 36 96 38
97 9z m1371 -11 c6 -24 4 -27 -16 -27 -23 0 -35 17 -35 50 0 29 42 10 51 -23z
m-357 8 c3 -8 8 -38 12 -66 7 -51 7 -51 -17 -44 -13 4 -25 8 -25 9 -1 0 -6 27
-11 59 -10 55 -9 57 12 57 13 0 25 -7 29 -15z m446 -11 c14 -36 13 -44 -9 -44
-25 0 -51 26 -51 51 0 31 48 26 60 -7z m-1800 -42 c-23 -8 -37 7 -32 33 l5 26
18 -28 c11 -16 14 -29 9 -31z m682 33 c4 -17 1 -25 -8 -25 -8 0 -14 11 -14 25
0 14 4 25 9 25 5 0 11 -11 13 -25z m725 17 c14 -9 34 -98 25 -107 -16 -16 -41
-3 -46 25 -3 17 -9 44 -12 60 -6 31 7 39 33 22z m490 -7 c2 -1 6 -16 9 -35 7
-33 7 -33 -26 -26 -41 8 -38 5 -46 44 -6 32 -6 32 27 26 19 -4 35 -8 36 -9z
m-1169 -23 c2 -15 -2 -22 -12 -22 -11 0 -16 9 -16 26 0 31 23 28 28 -4z m766
-1 c16 -59 17 -81 3 -81 -21 0 -47 27 -47 48 0 9 -3 27 -6 38 -5 19 -2 21 20
17 14 -3 27 -13 30 -22z m-1144 1 c0 -11 -16 -26 -44 -39 -24 -12 -59 -34 -77
-50 -74 -62 -71 -62 -67 -9 l3 48 80 34 c93 39 105 41 105 16z m418 -11 c3
-16 -1 -22 -10 -19 -7 3 -15 15 -16 27 -3 16 1 22 10 19 7 -3 15 -15 16 -27z
m1210 23 c33 -9 28 -34 -8 -34 -16 0 -30 2 -30 4 0 2 -3 11 -6 20 -7 17 6 20
44 10z m-1168 -30 c0 -8 -4 -14 -10 -14 -5 0 -10 9 -10 21 0 11 5 17 10 14 6
-3 10 -13 10 -21z m754 14 c18 -58 17 -68 -9 -68 -19 0 -26 6 -31 28 -3 15 -7
33 -10 40 -2 7 6 12 22 12 13 0 26 -6 28 -12z m-704 -19 c0 -24 -23 -21 -28 4
-2 10 3 17 12 17 10 0 16 -9 16 -21z m778 9 c20 -20 15 -58 -7 -58 -22 0 -26
4 -35 43 -5 22 -3 27 12 27 10 0 23 -5 30 -12z m432 2 c-20 -13 -40 -13 -40 0
0 6 12 10 28 10 21 0 24 -2 12 -10z m-1160 -15 c0 -8 -7 -15 -15 -15 -8 0 -15
7 -15 15 0 8 7 15 15 15 8 0 15 -7 15 -15z m794 5 c34 -12 34 -40 1 -40 -14 0
-25 4 -25 9 0 5 -3 16 -6 25 -7 19 -4 19 30 6z m-1354 -23 c0 -8 -19 -22 -42
-33 -22 -10 -57 -30 -77 -44 -58 -42 -69 -44 -26 -5 31 28 129 94 143 95 1 0
2 -6 2 -13z m1460 3 c11 -7 7 -10 -17 -10 -18 0 -33 5 -33 10 0 13 30 13 50 0z"/>
<path d="M12408 7793 c7 -3 16 -2 19 1 4 3 -2 6 -13 5 -11 0 -14 -3 -6 -6z"/>
<path d="M9590 1220 c6 -11 13 -20 16 -20 2 0 0 9 -6 20 -6 11 -13 20 -16 20
-2 0 0 -9 6 -20z"/>
</g>
</svg>
