<svg version="1.0" xmlns="http://www.w3.org/2000/svg"
 width="1276.000000pt" height="1280.000000pt" viewBox="0 0 1276.000000 1280.000000"
 preserveAspectRatio="xMidYMid meet" fill="#000000" stroke="none">
<g transform="translate(0.000000,1280.000000) scale(0.100000,-0.100000)">
<path d="M5930 12789 c-516 -42 -1055 -147 -1470 -288 -470 -159 -748 -273
-1105 -455 -345 -175 -519 -286 -805 -509 -489 -384 -926 -806 -1191 -1152
-350 -457 -483 -673 -741 -1205 -139 -286 -188 -416 -327 -870 -114 -372 -138
-465 -175 -675 -59 -332 -86 -486 -98 -570 -17 -121 -17 -1025 0 -1212 33
-354 111 -814 193 -1138 29 -113 136 -436 174 -525 18 -41 41 -100 50 -130 10
-30 27 -73 37 -94 11 -22 27 -62 35 -90 14 -49 193 -406 218 -436 7 -8 39 -67
72 -130 93 -180 346 -587 497 -799 89 -125 356 -407 721 -762 280 -272 327
-313 554 -478 318 -232 596 -408 901 -568 385 -203 1002 -432 1435 -532 125
-28 541 -96 710 -116 77 -8 165 -20 195 -25 99 -18 500 -33 715 -26 207 6 330
16 655 56 460 57 788 131 1234 281 376 126 528 193 936 409 447 237 799 467
1065 697 44 38 109 90 145 115 88 62 345 302 463 433 261 288 414 489 723 952
304 454 590 1071 744 1603 98 341 124 470 190 955 28 204 55 399 61 435 16
105 22 565 11 830 -18 414 -87 866 -197 1285 -64 246 -151 503 -214 635 -17
36 -31 73 -31 83 0 9 -20 57 -43 105 -24 48 -79 164 -121 259 -43 95 -90 191
-105 215 -15 24 -53 90 -85 148 -32 58 -83 143 -113 190 -30 47 -89 140 -131
207 -246 392 -469 661 -921 1114 -150 150 -283 274 -321 299 -36 24 -96 71
-135 105 -203 179 -619 450 -990 647 -173 92 -722 339 -795 358 -25 6 -148 44
-275 85 -374 119 -832 213 -1245 255 -312 31 -887 47 -1100 29z m574 -169 c54
-27 67 -30 156 -30 79 0 102 -3 120 -18 l22 -18 -106 -118 c-154 -170 -216
-269 -265 -418 -13 -38 -26 -68 -30 -68 -5 0 -16 21 -26 48 -33 88 -109 208
-212 335 -35 43 -63 82 -63 87 0 6 -8 10 -18 10 -26 0 -60 40 -68 78 -8 38 2
43 131 66 72 12 98 22 139 51 47 34 55 36 106 31 33 -3 78 -17 114 -36z m983
-81 c79 -10 313 -66 400 -95 66 -22 194 -87 414 -210 227 -127 316 -159 529
-194 78 -13 130 -33 130 -51 0 -20 -95 -111 -166 -159 -127 -84 -214 -105
-345 -80 -82 16 -137 47 -166 94 -33 52 -104 129 -213 229 -67 62 -107 89
-185 127 -144 69 -278 109 -291 88 -11 -18 48 -62 125 -92 109 -43 244 -138
362 -255 108 -108 149 -167 149 -219 0 -32 -86 -170 -127 -201 -23 -19 -40
-21 -160 -21 -94 0 -144 4 -168 14 -45 19 -86 84 -121 190 -33 100 -94 221
-139 273 -34 40 -119 93 -130 81 -10 -10 12 -46 78 -128 97 -122 133 -221 125
-346 -3 -52 -9 -70 -34 -100 -60 -75 -162 -103 -292 -80 -87 15 -159 46 -197
83 -36 37 -32 59 15 83 52 27 72 68 78 161 4 63 1 82 -17 118 -37 72 -133 93
-221 49 -37 -19 -51 -34 -75 -83 -27 -54 -30 -69 -30 -155 0 -86 3 -101 32
-164 62 -129 225 -249 378 -277 96 -18 269 -5 460 35 192 39 301 75 560 183
367 152 601 218 840 235 180 12 343 4 451 -22 262 -63 428 -162 591 -350 187
-216 235 -517 126 -788 -81 -203 -216 -340 -421 -427 -155 -65 -223 -80 -372
-80 -151 0 -212 14 -350 80 -89 44 -151 86 -381 266 -285 223 -383 278 -589
330 -63 16 -119 34 -124 39 -16 16 31 97 85 150 115 114 321 165 437 108 63
-30 159 -128 218 -222 63 -101 183 -263 223 -300 27 -26 31 -27 37 -11 8 20
-6 46 -87 158 -32 45 -85 134 -118 197 -109 212 -108 236 15 357 47 46 97 86
110 89 15 4 41 0 62 -10 20 -9 69 -20 108 -26 38 -5 95 -20 125 -34 l55 -24
-9 -89 c-13 -133 -3 -265 26 -348 41 -118 87 -198 104 -182 2 3 -13 70 -35
149 -22 79 -43 164 -47 191 -14 102 42 258 101 283 44 18 155 18 200 -1 45
-18 167 -136 188 -180 35 -74 18 -105 -64 -117 -136 -18 -224 -129 -191 -240
8 -24 33 -61 64 -93 44 -45 59 -54 101 -60 117 -18 222 39 277 150 26 53 32
80 37 153 9 166 -43 299 -167 422 -143 142 -295 198 -566 207 -307 11 -492
-36 -945 -237 -154 -68 -217 -90 -375 -130 -277 -70 -422 -93 -595 -94 -214
-1 -343 34 -525 144 -99 60 -174 137 -234 243 -97 171 -125 283 -118 462 10
233 86 375 298 556 182 155 305 204 521 208 42 0 112 -4 155 -10z m-1944 -53
c195 -38 403 -133 503 -231 70 -69 154 -192 182 -268 22 -58 48 -188 58 -287
18 -191 -112 -442 -313 -603 -193 -154 -342 -207 -584 -207 -259 0 -469 51
-790 190 -86 38 -178 75 -205 83 -27 8 -159 58 -294 110 -303 118 -315 122
-442 148 -189 39 -434 25 -573 -34 -179 -74 -325 -230 -377 -400 -26 -87 -22
-217 10 -289 44 -99 133 -168 217 -168 86 0 136 44 155 137 22 103 0 135 -135
204 -35 17 -35 39 -4 106 24 50 82 95 159 124 82 31 205 24 278 -16 63 -34
102 -92 102 -149 0 -46 -39 -166 -87 -265 -25 -53 -57 -97 -115 -157 -45 -47
-78 -87 -74 -91 3 -3 29 4 57 18 103 48 227 219 258 354 6 28 15 91 21 140 14
123 34 185 67 217 37 34 58 44 177 85 l101 34 58 -63 c81 -88 117 -151 117
-210 0 -63 -58 -174 -163 -313 -124 -162 -148 -198 -138 -208 6 -6 21 -1 39
12 49 34 181 179 256 281 39 52 102 128 141 168 l71 72 69 0 c85 -1 176 -19
230 -47 89 -46 225 -183 225 -226 0 -11 -13 -18 -37 -22 -178 -28 -206 -40
-508 -232 -540 -342 -721 -414 -1015 -399 -205 9 -385 60 -489 138 -91 67
-206 191 -235 252 -50 106 -94 354 -83 474 7 82 59 249 98 318 16 28 29 58 29
67 0 9 15 26 33 39 17 12 73 54 122 93 260 203 585 288 915 241 303 -44 349
-58 878 -270 497 -199 576 -223 782 -233 381 -19 621 122 671 393 22 121 -15
255 -86 310 -93 70 -235 3 -235 -113 0 -61 28 -104 95 -144 33 -20 66 -48 73
-63 12 -23 11 -32 -8 -71 -57 -119 -282 -194 -418 -140 -110 44 -160 186 -114
320 10 28 55 110 101 183 46 73 81 135 78 138 -10 11 -110 -75 -150 -129 -53
-71 -92 -150 -128 -262 -46 -142 -82 -166 -282 -186 -73 -7 -112 -7 -125 0
-17 9 -64 78 -131 192 l-23 40 27 52 c68 133 207 293 368 426 86 71 102 91 72
91 -62 0 -175 -85 -406 -307 -186 -178 -245 -219 -330 -232 -62 -10 -183 2
-250 24 -118 40 -246 231 -201 302 4 7 35 21 67 32 183 59 398 140 529 197
204 90 307 129 449 170 242 70 451 90 610 60z m891 -1270 c51 -53 71 -140 39
-168 -28 -25 -100 -58 -125 -58 -35 0 -125 46 -138 70 -22 42 31 134 98 170
56 29 89 26 126 -14z m-4108 -284 c1 -197 19 -331 60 -449 14 -41 23 -77 20
-81 -4 -3 -44 6 -89 21 -46 15 -121 32 -167 38 -80 11 -272 8 -417 -7 -35 -4
-63 -3 -63 0 0 23 49 94 99 143 55 55 59 62 66 118 9 73 40 130 101 184 41 36
53 41 94 41 53 0 94 25 170 105 56 59 101 88 114 75 6 -6 11 -87 12 -188z
m8146 81 c31 -18 69 -44 85 -57 40 -33 68 -46 98 -46 73 0 157 -80 176 -168
12 -58 13 -59 127 -160 39 -34 80 -75 91 -90 l19 -28 -156 4 c-187 5 -279 -9
-445 -68 -61 -22 -113 -38 -115 -35 -3 3 4 36 17 73 41 126 50 424 16 559 -7
28 -11 54 -8 57 7 7 30 -3 95 -41z m-3662 -199 c387 -39 827 -150 1235 -311
160 -63 496 -229 630 -310 49 -31 100 -59 113 -64 12 -5 22 -13 22 -18 0 -5
28 -26 61 -47 150 -91 459 -346 619 -510 216 -222 471 -527 516 -617 15 -29
76 -131 137 -227 154 -246 359 -670 446 -923 77 -225 143 -494 175 -722 21
-149 46 -455 46 -570 0 -111 -26 -548 -41 -690 -12 -121 -104 -560 -130 -627
-10 -26 -28 -84 -39 -130 -50 -193 -221 -594 -374 -873 -121 -220 -170 -293
-339 -498 -262 -320 -368 -432 -642 -673 -307 -270 -436 -359 -760 -523 -441
-225 -876 -383 -1250 -455 -200 -38 -245 -44 -465 -61 -256 -19 -371 -19 -681
0 -212 13 -279 21 -480 60 -339 65 -550 123 -791 216 -144 55 -361 150 -470
205 -518 260 -1090 713 -1412 1118 -333 418 -702 1125 -836 1603 -56 197 -116
541 -162 918 -21 179 -16 601 11 825 38 319 118 671 211 930 119 330 143 386
283 665 107 213 164 308 287 475 289 392 653 752 1030 1020 261 186 599 366
989 530 406 169 914 279 1401 304 136 7 512 -4 660 -20z m-4693 -454 c87 -7
128 -15 182 -38 82 -35 183 -104 231 -159 213 -242 291 -677 173 -963 -19 -47
-51 -112 -71 -145 -67 -112 -231 -350 -296 -429 -70 -87 -161 -257 -226 -423
-21 -53 -45 -102 -55 -108 -14 -8 -27 1 -76 53 -80 88 -100 143 -107 299 -4
110 -3 125 17 166 26 53 78 103 147 142 191 108 365 277 464 450 59 104 100
245 70 245 -5 0 -10 -13 -10 -29 0 -16 -7 -36 -15 -45 -9 -8 -29 -41 -46 -73
-111 -211 -365 -432 -562 -488 -95 -27 -178 -4 -323 90 -49 31 -91 59 -93 61
-6 6 112 236 136 265 28 33 69 43 274 64 227 23 296 51 393 155 51 56 82 116
74 142 -2 6 -38 -21 -79 -61 -89 -87 -139 -115 -248 -135 -270 -51 -404 30
-403 244 1 58 7 92 23 130 37 85 161 180 237 180 36 0 46 -14 57 -80 9 -53 36
-95 75 -115 60 -31 111 -14 178 59 36 39 42 52 42 88 0 55 -47 155 -89 191
-41 34 -82 42 -216 41 -126 -1 -174 -15 -271 -81 -167 -114 -239 -260 -290
-588 -22 -142 -14 -255 25 -395 41 -144 134 -415 183 -530 145 -342 194 -492
249 -760 25 -128 31 -179 31 -290 0 -201 -34 -375 -97 -500 -62 -123 -237
-302 -353 -363 -133 -70 -188 -82 -372 -82 -182 0 -238 12 -386 80 -231 106
-402 344 -445 617 -27 171 24 544 101 748 25 64 106 225 219 435 76 140 118
238 186 428 15 43 35 88 45 100 l18 22 44 -21 c24 -12 70 -45 101 -74 78 -71
90 -114 85 -299 -4 -161 9 -138 -176 -340 -139 -152 -191 -224 -243 -336 -39
-86 -75 -202 -66 -212 3 -2 22 26 43 62 59 107 149 222 253 326 123 122 176
154 252 152 31 0 71 -9 90 -18 65 -34 191 -128 201 -151 8 -17 8 -51 -1 -120
-20 -165 -37 -182 -249 -255 -136 -47 -206 -82 -283 -143 -72 -56 -146 -166
-111 -166 4 0 38 27 76 59 195 166 400 225 496 144 41 -34 57 -68 70 -145 12
-79 -1 -165 -35 -223 -33 -57 -102 -125 -126 -125 -12 0 -37 17 -58 37 -20 20
-51 47 -70 60 -64 43 -159 24 -230 -47 -28 -29 -31 -37 -31 -96 0 -147 84
-213 259 -201 258 18 410 150 477 415 65 257 3 531 -254 1117 -201 459 -242
616 -242 922 0 342 95 625 269 806 160 167 304 240 505 257 132 11 131 11 253
0z m8898 -20 c168 -42 349 -158 442 -283 66 -89 134 -239 188 -412 l47 -150
-5 -220 c-4 -186 -9 -238 -31 -340 -39 -183 -110 -380 -236 -655 -158 -346
-201 -443 -241 -555 l-43 -120 -4 -172 c-4 -184 4 -236 53 -333 61 -120 207
-232 369 -281 65 -19 176 -14 225 11 93 47 161 132 161 202 0 50 -45 132 -97
178 -37 32 -53 40 -86 40 -74 0 -137 -60 -152 -145 -13 -78 -51 -92 -133 -51
-95 48 -171 146 -192 248 -20 98 1 161 76 227 102 89 216 119 330 86 113 -33
174 -71 266 -168 84 -88 88 -91 88 -62 -1 70 -152 227 -275 284 -33 16 -94 36
-135 46 -124 29 -167 51 -181 93 -13 40 -7 211 10 254 7 19 35 40 95 73 99 53
141 59 210 26 76 -37 256 -241 395 -450 30 -45 57 -79 59 -73 6 18 -47 134
-102 227 -30 50 -92 135 -137 190 -110 132 -202 263 -241 342 -26 53 -33 80
-36 147 -11 200 80 372 234 443 70 32 80 24 89 -65 11 -111 35 -231 67 -332
35 -109 51 -145 83 -180 27 -31 167 -297 194 -371 34 -92 89 -310 102 -404 21
-145 18 -377 -5 -455 -46 -156 -155 -347 -257 -452 -97 -99 -245 -155 -470
-178 -179 -18 -336 3 -447 59 -175 88 -301 233 -372 429 -91 249 -93 459 -9
796 42 165 58 209 172 466 54 124 110 257 124 295 14 39 37 97 53 130 47 100
99 267 111 355 17 128 6 434 -20 537 -66 263 -216 428 -444 489 -61 16 -157
18 -207 4 -104 -29 -190 -125 -190 -211 0 -42 4 -50 41 -84 58 -53 141 -89
186 -82 47 8 111 51 131 89 32 57 53 78 80 78 69 0 182 -92 182 -149 0 -15 9
-40 20 -54 25 -32 25 -58 0 -139 -19 -61 -64 -137 -99 -166 -38 -31 -98 -52
-154 -52 -97 0 -194 41 -381 162 -33 21 -61 36 -63 34 -9 -9 42 -92 85 -138
53 -57 140 -101 227 -117 33 -6 131 -15 218 -21 87 -5 167 -14 177 -20 30 -16
38 -39 45 -130 3 -47 11 -114 18 -149 l11 -64 -54 -49 c-79 -71 -149 -116
-195 -126 -62 -14 -150 9 -257 67 -78 42 -119 75 -251 200 -149 142 -217 200
-217 186 0 -32 158 -234 251 -319 73 -68 186 -144 305 -205 151 -78 192 -131
181 -238 -14 -137 -182 -380 -257 -371 -27 3 -38 23 -139 241 -58 125 -191
343 -366 602 -124 183 -162 248 -185 320 -7 22 -20 50 -28 63 -33 50 4 362 64
541 34 101 81 169 198 287 151 151 296 240 429 264 73 13 207 4 302 -20z
m-7924 -519 c44 -44 48 -66 20 -126 -26 -58 -55 -80 -105 -80 -49 0 -94 29
-121 78 -23 44 -15 75 34 127 34 36 43 40 86 40 42 0 52 -5 86 -39z m6655 -14
c60 -54 60 -151 1 -187 -35 -22 -115 -27 -148 -10 -68 37 -63 176 9 214 48 26
98 20 138 -17z m-9500 -2939 c10 -24 55 -79 99 -124 125 -126 267 -218 423
-274 34 -12 62 -26 62 -29 0 -14 -57 -59 -135 -106 -173 -105 -273 -193 -380
-337 -28 -37 -55 -68 -62 -68 -6 0 -28 32 -47 71 -34 68 -36 77 -36 171 0 90
-3 104 -31 160 -37 72 -36 107 4 208 18 45 27 94 32 160 6 95 31 210 45 210 4
0 15 -19 26 -42z m12329 -40 c30 -137 32 -153 24 -175 -16 -43 -10 -96 21
-173 38 -98 39 -144 1 -196 -28 -37 -29 -45 -33 -159 -2 -93 -8 -130 -23 -163
l-20 -43 -42 64 c-47 72 -203 225 -308 304 -39 29 -105 71 -147 94 -43 23 -75
45 -73 50 3 4 49 31 102 59 160 86 253 153 395 287 43 40 82 73 88 73 5 0 12
-10 15 -22z m-10871 -317 c41 -27 66 -70 66 -115 0 -31 -7 -45 -35 -72 -20
-18 -53 -39 -75 -45 -46 -14 -78 2 -110 54 -22 35 -27 115 -10 147 26 48 113
64 164 31z m9437 -40 c45 -44 51 -83 19 -123 -38 -48 -134 -76 -146 -43 -4 8
-12 15 -19 15 -26 0 -45 31 -45 71 0 75 39 118 109 119 37 0 49 -5 82 -39z
m-9934 -172 c402 -45 603 -276 714 -823 34 -169 33 -199 -21 -406 -36 -137
-77 -241 -187 -474 -46 -99 -93 -205 -103 -235 -10 -31 -42 -107 -70 -170
-112 -248 -153 -375 -170 -528 -19 -179 17 -427 81 -555 63 -126 184 -250 295
-300 41 -19 66 -23 159 -23 92 0 118 4 157 22 148 68 217 205 157 312 -57 102
-207 129 -275 48 -26 -31 -27 -33 -21 -144 3 -62 4 -113 2 -113 -40 0 -168 26
-194 40 -62 31 -105 93 -140 197 -32 95 -28 147 19 239 73 147 131 183 263
165 177 -25 358 -116 382 -192 10 -30 25 -22 25 13 0 26 -11 43 -58 88 -94 92
-223 144 -384 155 -219 15 -247 33 -299 184 -38 114 -39 111 40 205 72 86 95
100 172 104 154 9 319 -76 554 -287 50 -44 91 -76 93 -71 19 56 -219 286 -405
391 -133 74 -183 133 -183 214 1 70 25 195 45 235 24 46 153 172 173 168 10
-2 52 -74 107 -183 49 -99 127 -236 171 -305 45 -69 89 -141 99 -160 10 -19
44 -75 75 -125 97 -153 180 -301 201 -360 32 -90 44 -263 30 -418 -19 -207
-67 -320 -190 -450 -124 -130 -251 -213 -385 -252 -84 -25 -368 -17 -479 13
-129 35 -202 77 -294 169 -72 72 -90 98 -137 195 -72 148 -108 249 -140 390
-33 148 -33 220 4 415 65 350 145 585 339 1002 158 337 210 537 198 760 -9
190 -77 353 -191 467 -96 94 -139 114 -247 114 -117 0 -155 -13 -211 -70 -62
-65 -77 -113 -54 -175 35 -92 104 -131 172 -99 37 18 114 105 114 130 0 39
105 -11 166 -79 51 -57 74 -119 81 -224 5 -62 3 -76 -16 -107 -45 -71 -151
-135 -241 -143 -44 -4 -67 0 -110 18 -70 29 -170 93 -239 152 -80 69 -105 63
-52 -11 53 -72 174 -140 378 -212 66 -23 134 -50 150 -60 51 -31 66 -79 71
-230 l4 -135 -53 -25 c-29 -14 -87 -47 -128 -73 -41 -27 -89 -51 -107 -54 -53
-9 -123 38 -237 157 -120 126 -214 253 -270 368 -22 45 -44 82 -48 82 -22 0
-19 -49 5 -95 14 -26 26 -54 26 -62 0 -48 108 -196 309 -423 74 -84 113 -138
144 -200 38 -78 42 -91 41 -160 0 -59 -8 -94 -34 -165 -31 -85 -38 -95 -129
-186 -99 -98 -136 -122 -152 -98 -4 7 -16 45 -25 84 -46 191 -108 355 -266
694 -175 377 -200 467 -199 717 0 111 5 175 15 205 8 24 17 60 20 79 10 54
100 234 171 341 129 194 283 299 480 328 86 12 133 12 242 0z m10648 -44 c88
-23 252 -107 319 -163 33 -27 96 -90 141 -141 71 -79 86 -104 117 -184 20 -50
41 -124 47 -164 15 -100 13 -381 -3 -473 -15 -81 -115 -339 -188 -485 -175
-348 -236 -506 -269 -700 -11 -66 -26 -126 -33 -133 -21 -22 -90 5 -147 56
-35 32 -62 69 -94 135 -49 99 -65 165 -65 262 0 135 39 201 236 400 76 78 162
174 190 215 73 106 188 327 174 335 -18 11 -37 -12 -100 -124 -106 -187 -261
-345 -407 -418 -60 -30 -80 -35 -117 -31 -66 8 -132 44 -205 114 l-66 62 1 84
c1 87 16 151 43 182 26 29 97 61 226 100 178 54 249 92 331 178 75 79 127 159
122 186 -2 11 -23 -8 -66 -61 -228 -279 -603 -332 -717 -102 -63 127 31 336
169 375 57 16 80 7 108 -38 41 -67 119 -122 171 -122 61 0 116 86 117 180 0
78 -24 114 -105 152 -181 84 -375 52 -507 -85 -66 -69 -86 -107 -127 -242 -29
-94 -31 -110 -31 -255 1 -271 10 -306 178 -655 288 -600 330 -697 367 -844 44
-173 59 -505 30 -676 -12 -71 -28 -114 -72 -202 -84 -170 -145 -257 -264 -373
-93 -92 -120 -112 -210 -157 -123 -62 -172 -73 -334 -73 -159 0 -211 10 -320
64 -152 76 -287 211 -359 361 -66 137 -126 375 -126 503 0 120 67 362 134 487
47 87 158 264 241 385 169 246 271 440 286 547 10 69 23 103 40 103 18 0 145
-128 184 -184 47 -69 62 -150 46 -260 -17 -125 -38 -156 -181 -270 -219 -175
-403 -374 -443 -479 -10 -26 -1 -19 151 121 239 219 390 325 462 325 71 0 140
-46 240 -159 19 -21 43 -43 53 -49 17 -10 17 -15 1 -115 -22 -145 -43 -209
-77 -234 -24 -17 -49 -21 -200 -27 -216 -10 -232 -14 -361 -104 -77 -54 -126
-99 -126 -115 0 -12 7 -8 115 63 82 56 184 89 272 91 66 0 79 -3 160 -44 111
-57 127 -83 127 -210 1 -71 -4 -94 -26 -142 -49 -106 -152 -190 -237 -192
l-35 -1 -13 85 c-11 78 -15 88 -47 118 -47 42 -108 44 -185 6 -65 -33 -81 -57
-88 -131 -8 -85 11 -140 66 -194 68 -68 140 -92 256 -87 146 6 247 64 353 201
76 100 162 248 183 319 41 135 41 490 -1 668 -24 101 -141 403 -258 660 -163
361 -212 550 -212 814 0 446 147 733 455 889 150 75 374 107 510 72z m-8797
-3099 c23 -23 27 -35 27 -87 0 -52 -3 -63 -25 -79 -31 -24 -101 -35 -142 -24
-89 26 -95 161 -9 210 41 23 117 13 149 -20z m6674 2 c50 -28 79 -76 81 -132
2 -37 -3 -50 -28 -77 -80 -85 -187 -74 -237 23 -22 42 -26 115 -8 148 31 58
123 76 192 38z m-6372 -362 c168 -36 286 -97 655 -336 198 -128 394 -229 588
-300 81 -29 147 -58 147 -62 0 -19 -50 -86 -94 -126 -90 -83 -232 -130 -350
-117 -127 15 -141 26 -304 242 -131 173 -192 236 -297 306 -61 40 -135 70
-135 54 0 -3 37 -36 83 -75 88 -75 206 -206 275 -305 49 -71 92 -195 92 -267
0 -41 -6 -56 -44 -107 -51 -68 -159 -173 -177 -173 -7 0 -22 9 -34 20 -12 12
-57 35 -100 53 -45 18 -86 43 -96 57 -10 14 -28 74 -40 135 -49 256 -142 469
-227 518 -39 22 -47 10 -21 -34 105 -180 158 -416 120 -531 -15 -47 -70 -95
-116 -104 -43 -8 -122 7 -186 34 -62 27 -162 112 -183 156 -20 42 -14 56 44
123 80 91 80 220 -1 305 -31 33 -42 38 -80 38 -56 0 -99 -26 -143 -87 -45 -61
-56 -108 -56 -231 0 -98 0 -99 50 -201 59 -120 126 -197 238 -272 97 -65 146
-78 326 -85 221 -9 354 6 576 65 233 63 309 89 545 188 435 183 662 243 920
243 306 0 517 -79 732 -274 60 -54 131 -158 182 -266 l36 -75 -1 -155 c-1
-138 -4 -165 -28 -243 -14 -49 -36 -107 -48 -130 -123 -243 -398 -462 -638
-508 -36 -7 -137 -12 -225 -12 -140 0 -172 3 -259 26 -130 35 -370 131 -690
279 -143 66 -306 135 -361 154 -81 27 -224 53 -291 54 -45 0 2 118 69 175 114
98 352 165 477 135 60 -14 98 -44 305 -240 213 -201 380 -301 526 -317 87 -9
76 9 -50 77 -192 103 -465 330 -510 424 -26 53 -27 127 -2 181 26 58 136 199
163 211 13 6 43 7 68 3 25 -4 70 -8 101 -8 69 -1 116 -16 151 -49 33 -30 44
-64 52 -155 14 -147 80 -279 194 -389 69 -67 161 -121 225 -133 58 -11 45 10
-33 51 -91 47 -205 166 -252 262 -31 62 -33 74 -33 167 0 115 17 164 80 233
52 58 105 76 208 70 146 -7 249 -79 283 -195 24 -84 19 -96 -49 -110 -138 -27
-168 -152 -63 -257 52 -53 83 -61 150 -42 65 19 129 73 164 140 24 46 27 61
27 156 0 99 -2 110 -32 171 -41 83 -98 148 -176 201 -95 65 -211 101 -414 129
-81 11 -104 11 -195 -5 -241 -42 -495 -140 -710 -273 -171 -106 -341 -175
-589 -242 -176 -47 -280 -62 -435 -62 -164 -1 -228 9 -367 57 -221 76 -352
160 -475 304 -160 188 -198 306 -190 589 4 140 6 149 41 234 62 152 202 337
255 337 10 0 32 17 49 38 51 63 208 128 380 157 103 17 145 17 223 1z m6335
-51 c191 -34 293 -86 426 -215 138 -135 223 -284 250 -436 33 -189 -26 -466
-132 -621 -85 -124 -249 -259 -390 -320 -141 -61 -244 -77 -494 -78 -321 0
-433 25 -735 162 -91 41 -187 83 -215 93 -27 10 -142 58 -255 108 -377 165
-424 176 -746 170 -234 -4 -237 -5 -378 -87 -100 -58 -185 -140 -222 -217 -26
-54 -29 -69 -29 -169 0 -125 15 -167 76 -217 93 -75 275 -28 294 76 15 78 -47
174 -127 198 -21 6 -43 17 -49 24 -31 38 51 156 140 200 29 15 83 33 120 40
65 13 67 12 106 -14 94 -64 165 -170 165 -245 0 -63 -31 -211 -54 -262 -43
-94 -144 -187 -267 -246 -65 -32 -72 -52 -20 -57 85 -9 222 87 311 218 52 76
67 116 96 245 14 63 39 140 59 181 40 83 71 103 225 152 154 48 147 48 161 4
6 -20 29 -71 49 -112 50 -100 63 -143 62 -206 -1 -78 -41 -150 -147 -262 -110
-116 -206 -195 -331 -268 -52 -30 -94 -58 -94 -61 0 -12 78 10 161 46 124 54
191 106 384 301 177 179 225 219 287 239 50 16 161 15 223 -3 128 -36 158 -53
236 -135 71 -74 146 -192 134 -211 -2 -4 -60 -10 -128 -14 -222 -12 -327 -47
-787 -258 -174 -81 -239 -106 -403 -157 -94 -29 -410 -48 -531 -33 -97 13
-197 51 -284 110 -68 47 -170 153 -207 217 -77 130 -137 330 -136 449 1 83 37
236 77 328 77 175 206 318 353 392 139 69 207 81 461 81 246 -1 319 -11 504
-75 125 -43 370 -140 478 -188 37 -17 116 -49 175 -71 59 -22 144 -56 189 -75
175 -77 392 -111 642 -103 226 7 348 40 483 131 204 137 306 345 254 521 -35
120 -84 189 -157 219 -115 48 -227 -33 -216 -156 5 -43 12 -55 77 -123 39 -41
71 -82 71 -91 0 -30 -64 -136 -107 -180 -55 -55 -95 -67 -197 -62 -118 6 -160
31 -206 122 -31 63 -35 79 -35 150 0 125 37 194 213 395 64 74 73 91 46 91
-21 0 -220 -194 -256 -250 -50 -78 -79 -189 -88 -335 -9 -155 -23 -198 -74
-219 -30 -12 -255 -66 -278 -66 -4 0 -24 24 -44 54 -20 30 -54 67 -75 82 -22
15 -54 43 -71 62 -29 33 -30 39 -25 98 8 109 106 265 260 417 94 92 166 145
302 222 55 31 107 63 115 72 13 14 11 15 -20 10 -61 -8 -212 -78 -314 -145
-127 -84 -278 -229 -381 -367 -92 -123 -146 -178 -190 -195 -78 -31 -246 0
-338 61 -55 36 -125 113 -139 152 -6 15 -17 27 -26 27 -14 1 -12 4 6 20 21 18
45 24 182 48 104 19 242 98 477 274 251 187 510 320 698 357 67 13 258 6 370
-14z m-7357 -411 l-42 -99 2 -243 c3 -275 5 -267 -74 -237 -31 12 -53 29 -70
55 -28 43 -74 77 -149 111 -59 28 -185 148 -185 176 0 11 -28 59 -63 105 -60
81 -95 143 -85 153 2 3 77 0 165 -7 203 -14 292 -4 435 50 57 22 104 38 106
37 1 -1 -17 -46 -40 -101z m8248 -49 c130 -24 280 -33 403 -23 62 5 115 7 118
5 8 -9 -88 -127 -142 -173 -31 -27 -72 -74 -90 -104 -41 -68 -64 -89 -140
-129 -33 -17 -93 -58 -134 -91 -109 -87 -158 -91 -148 -13 27 208 28 227 17
351 -6 70 -14 142 -17 160 -5 30 -4 32 25 32 16 0 65 -7 108 -15z m-4117 -523
c45 -36 65 -75 56 -110 -8 -34 -96 -122 -121 -122 -35 0 -108 44 -127 77 -23
39 -25 105 -4 136 40 62 132 71 196 19z m-23 -1065 c102 -171 153 -243 253
-354 50 -56 91 -107 91 -113 0 -6 -17 -18 -37 -26 -30 -13 -58 -15 -144 -9
l-106 7 -7 -25 c-9 -36 -60 -69 -115 -74 -47 -5 -81 12 -163 78 -25 20 -30 21
-72 9 -62 -17 -221 -10 -242 12 -15 14 -7 23 87 94 117 88 261 230 277 271 6
16 27 69 46 119 20 50 36 98 36 106 0 19 10 29 21 22 5 -3 39 -56 75 -117z"/>
<path d="M715 5591 c-3 -5 6 -22 20 -38 26 -29 32 -22 15 21 -10 27 -24 33
-35 17z"/>
</g>
</svg>
