<?xml version="1.0" encoding="utf-8"?>
<!-- Generator: Adobe Illustrator 21.0.2, SVG Export Plug-In . SVG Version: 6.00 Build 0)  -->
<svg version="1.1"
	 id="Layer_1" xmlns:cc="http://creativecommons.org/ns#" xmlns:dc="http://purl.org/dc/elements/1.1/" xmlns:inkscape="http://www.inkscape.org/namespaces/inkscape" xmlns:rdf="http://www.w3.org/1999/02/22-rdf-syntax-ns#" xmlns:sodipodi="http://sodipodi.sourceforge.net/DTD/sodipodi-0.dtd" xmlns:svg="http://www.w3.org/2000/svg"
	 xmlns="http://www.w3.org/2000/svg" xmlns:xlink="http://www.w3.org/1999/xlink" x="0px" y="0px" viewBox="0 0 512 512"
	 style="enable-background:new 0 0 512 512;" xml:space="preserve">
<style type="text/css">
	.st0{opacity:0.4;}
	.st1{fill:#DFDBD2;}
</style>
<g class="st0">
	<path id="path2554-4" class="st1" d="M354.2,0C319,25.4,288.3,54.1,269,92.3l13.6-54.1c-20.4,36.3-34.4,73.9-38.9,110.7l-27.4-18.3
		l-4.9,3.8c24.6,44.3,11.7,67.7-0.4,76.1c-24.6,17-60.6,38.2-78.3,56.8c-34.3,35.1-44.2,68.7-41.1,113
		c3.4,56.8,44.7,104.1,99.9,122.6c24.2,7.9,46.5,9.1,71.5,9.1c40.1,0,81.4-10.6,111.3-35.6C406,449.9,425,410.2,425,369
		c0-41.6-17.4-81-48.1-109c-16.3-14.8-36.7-26.9-57.9-38.6c-9.5-5.3-38.6-28-28.8-60.5l-21.1-2.9c29.2-45.8,67.3-91.3,114.9-133.7
		c-36.7,12.5-69.2,31.4-93.5,65.5C305,59.8,328.4,29.9,354.2,0z M222.1,142.3l21.4,8.8l0,0l9.4,4.1h-0.2v208.6
		c-4.2,12.5-7.8,14.5-17.7,26.3c-11.7,13.6-13.7,33.7-13.7,50c0,6.8,2.7,14.4,5.4,21.6c3,7.6,5.6,15.1,9.8,20.8
		c5.4,7.9,12,12.9,16.3,14.7v1c-14.6-3.1-31.2-8.3-41.2-16.8c-20.1-17.4-37.8-46.5-40.1-71.9c-1.9-20.8,17.4-51.5,44.2-67
		c22.7-13.2,28-28.3,32.9-52.6c-6.8,21.2-13.2,39-35.2,50.3c-31.8,16.6-48.1,44.6-46.6,71.1c2.3,34.1,15.9,57.1,42.8,75.7
		c7.8,5.5,20.2,11.1,31.5,14.9c-41.3-9.6-45.4-14-57.3-28.1c0-0.8-3-2.7-3-3.4c-15.1-17.4-34.4-46.9-41.3-74.2
		c-2.3-9.5-4.5-19.7-1.9-29.1c12.5-44.7,39.7-62.1,67-80.6c6.8-4.5,13.2-9.1,19.7-13.6c15.1-11.7,18.9-43.1,22.3-60.5
		c-6.4,21.6-12.9,48.1-24.6,56.8c-6.1,4.9-13.6,8.7-20,12.9c-28.4,19.3-56.4,37.5-69.3,83.6c-3,11.7-0.8,20.4,1.9,31.8
		c7.2,28.4,26.5,58.7,42.4,76.8c0,0,2.6,2.6,2.6,3c7.2,8.3,16.5,14.2,27.4,18.9c-9.5-2.6-18.7-6-27.4-10.2
		c-44.3-21.6-73.8-67.7-75.7-105.6c-4.2-76.8,32.9-99.1,67-127.1c19.3-15.9,45.8-23.5,61.3-51.5c3-6.1,4.6-19.7,1.1-33.7
		C232,163.1,224.8,146.1,222.1,142.3L222.1,142.3z M254.3,155.8l10.4,4.5c0.1,4.7,0.1,9.4,0.1,13.9c0-1.6,0-3.1,0-4.8
		c-1.1,20.2-1.4,27.7,2.4,42.4c4.2,16.3,25.4,39.7,34.1,66.6c16.6,51.5,12.5,118.8,0.4,171.4c-2.1,8.7-8,19.2-15.9,28.9
		c2.8-5.1,5.2-10.6,6.8-16.4c12.1-42.4,17-62.1,11.3-109c-0.8-4.5-2.7-20.1-9.8-36.7c-10.6-25.4-25.7-49.6-27.6-54.5
		c-3.4-7.9-8-42.4-8.7-65.8c0.4,19.7,1.9,56.4,7.2,70.8c1.5,4.9,15.5,26.5,25.3,52.6c6.8,18.2,8.3,34.8,9.5,39.7
		c4.5,21.6-1.1,57.9-8.7,92.3c-3.1,15.3-12.4,33.6-23.8,44.7c-0.1,0.1-0.3,0.2-0.4,0.3c7.1-7.2,14-19.2,18.2-33.7
		c5.7-20.1,7.9-45.7,7.5-62c-0.4-9.5-4.6-29.9-12.1-48.5c-4.2-10.2-10.6-20.4-14.7-27.6c-4.5-7.2-4.6-22.7-6.8-40.9
		c0.4,19.7-1.5,29.6,3.4,43.6c3,8.3,13.3,19.7,16.3,30.7c4.2,14.8,8.7,31,8.3,40.9c0,11.4-0.7,32.6-5.6,55.3
		c-3.7,18.4-12.1,34.3-26.1,43.5c-0.2,0.2-0.5,0.3-0.7,0.5v-0.7c0.1,0,0.3,0.1,0.4,0.1h0.1c0.1,0,0.2,0.1,0.3,0.1v-0.4
		c7.3-8.2,11.8-16.3,13.2-24.5c1.9-9.8,2.3-19.7,3.5-31.4c1.1-9.8,0.3-23.1-2.3-36.7c-3.8-17-10.2-34.4-12.8-46.5
		c0.4,13.2,5.7,30.2,8,47.6c1.9,12.9,1.1,25.8,0.7,37.2c-0.4,13.1-4.8,36.7-10.7,48.1c-0.1,0-0.1-0.1-0.2-0.1L254.3,155.8
		L254.3,155.8z M252.8,365v125.4c-4.4-2.4-6.5-5.2-9.8-9.4c-4.5-6.4-7.6-12.9-10.7-20.4c-2.3-5.7-4.9-12.2-6.1-19.7
		c-1.5-11.4-1.1-29.1,11.8-47.3C247.1,380.3,249.7,378.3,252.8,365L252.8,365z"/>
</g>
</svg>
