<?xml version="1.0" encoding="UTF-8" standalone="no"?>
<svg
   width="24"
   height="24"
   viewBox="0 0 24 24"
   fill="none"
   stroke="#4d4d4d"
   stroke-width="2"
   stroke-linecap="round"
   stroke-linejoin="round"
   version="1.1"
   id="svg3"
   sodipodi:docname="gpu_dark.svg"
   inkscape:export-filename="gpu_dark.svg"
   inkscape:export-xdpi="96"
   inkscape:export-ydpi="96"
   xmlns:inkscape="http://www.inkscape.org/namespaces/inkscape"
   xmlns:sodipodi="http://sodipodi.sourceforge.net/DTD/sodipodi-0.dtd"
   xmlns="http://www.w3.org/2000/svg"
   xmlns:svg="http://www.w3.org/2000/svg">
  <defs
     id="defs3" />
  <sodipodi:namedview
     id="namedview3"
     pagecolor="#ffffff"
     bordercolor="#000000"
     borderopacity="0.25"
     inkscape:showpageshadow="2"
     inkscape:pageopacity="0.0"
     inkscape:pagecheckerboard="0"
     inkscape:deskcolor="#d1d1d1"
     showguides="true">
    <inkscape:page
       x="0"
       y="0"
       width="24"
       height="24"
       id="page2"
       margin="0"
       bleed="0" />
    <sodipodi:guide
       position="12.016444,15.719491"
       orientation="1,0"
       id="guide1"
       inkscape:locked="false" />
  </sodipodi:namedview>
  <path
     id="rect1"
     d="M 14.205882,18 H 4 C 3.446,18 3,17.554 3,17 V 7 C 3,6.446 3.446,6 4,6 h 11.764705"
     sodipodi:nodetypes="cssssc" />
  <path
     id="line1"
     d="M 3.9411764,12 H 15.588236"
     sodipodi:nodetypes="cc"
     inkscape:export-filename="line1.svg"
     inkscape:export-xdpi="96"
     inkscape:export-ydpi="96" />
  <g
     id="g4"
     transform="translate(8.6176471,-0.0588235)">
    <g
       id="g3"
       style="fill:#ffffff;fill-opacity:1">
      <g
         id="g2"
         style="fill:#ffffff;fill-opacity:1;stroke:#000000;stroke-opacity:1">
        <!-- Outline Stem -->
        <path
           style="baseline-shift:baseline;display:inline;overflow:visible;opacity:1;vector-effect:none;fill:#4d4d4d;fill-opacity:1;stroke:none;enable-background:accumulate;stop-color:#000000;stop-opacity:1"
           d="M 10,1 C 8.078297,1 6.5,2.5782972 6.5,4.5 v 10.785156 c 0,0.207455 7,-2.865715 7,0 V 4.5 C 13.5,2.5782972 11.921703,1 10,1 Z m 0,2 c 0.848297,0 1.5,0.6517028 1.5,1.5 v 10.785156 c 0,-0.424371 -3,-0.892664 -3,0 V 4.5 C 8.5,3.6517028 9.151703,3 10,3 Z"
           id="rect1-3" />
        <!-- Bulb (outline) -->
        <path
           id="circle1"
           d="m 14,18 a 4,4 0 0 1 -4,4 4,4 0 0 1 -4,-4 4,4 0 0 1 4,-4 4,4 0 0 1 4,4 z"
           style="fill:none;fill-opacity:1;stroke:#4d4d4d;stroke-opacity:1" />
      </g>
    </g>
  </g>
</svg>
