<?xml version="1.0" encoding="UTF-8" standalone="no"?>
<svg
   width="24"
   height="24"
   viewBox="0 0 24 24"
   stroke="#ffffff"
   fill="none"
   stroke-width="2"
   aria-hidden="true"
   version="1.1"
   id="svg1"
   xml:space="preserve"
   xmlns="http://www.w3.org/2000/svg"
   xmlns:svg="http://www.w3.org/2000/svg"><defs
     id="defs1" /><!-- Outline thermometer: stem + bulb --><g
     id="g3"
     style="fill:#ffffff;fill-opacity:1"><g
       id="g1"
       style="fill:#ffffff;fill-opacity:1;stroke:#000000;stroke-opacity:1"><!-- Outline Stem --><path
         style="baseline-shift:baseline;display:inline;overflow:visible;opacity:1;vector-effect:none;fill:#ffffff;fill-opacity:1;stroke:none;enable-background:accumulate;stop-color:#000000;stop-opacity:1"
         d="M 12,1 C 10.078297,1 8.5,2.5782972 8.5,4.5 v 10.785156 c 0,0.207455 7,-2.865715 7,0 V 4.5 C 15.5,2.5782972 13.921703,1 12,1 Z m 0,2 c 0.848297,0 1.5,0.6517028 1.5,1.5 v 10.785156 c 0,-0.424371 -3,-0.892664 -3,0 V 4.5 C 10.5,3.6517028 11.151703,3 12,3 Z"
         id="rect1" /><!-- Bulb (outline) --><path
         id="circle1"
         d="m 16,18 a 4,4 0 0 1 -4,4 4,4 0 0 1 -4,-4 4,4 0 0 1 4,-4 4,4 0 0 1 4,4 z"
         style="fill:none;fill-opacity:1;stroke:#ffffff;stroke-opacity:1" /></g></g></svg>
