<?xml version="1.0" encoding="UTF-8"?>
<svg version="1.1" id="svg" xmlns="http://www.w3.org/2000/svg" xmlns:xlink="http://www.w3.org/1999/xlink" x="0px" y="0px" width="512px" height="512px" viewBox="0 0 1200 1200" xml:space="preserve"><a id="transrate" xlink:href="http://free.arinco.org/"><path fill="#E5E5E5" d="M154.637,0C69.243,0,0.013,69.268,0.013,154.433v891.135c0,85.292,69.396,154.433,154.624,154.433h665.739 c19.999,0,44.582-13.936,55.027-31.411l314.954-529.713c12.789-21.477,12.891-56.174,0-77.751L875.403,31.386 C865.061,14.037,840.272,0,820.325,0H154.637z"/><path fill="#FFF" d="M173.193,25C91.357,25,25.012,91.382,25.012,172.998v854.004c0,81.738,66.504,147.998,148.181,147.998h638 c19.166,0,42.725-13.354,52.734-30.103l301.832-507.642c12.256-20.581,12.354-53.833,0-74.512L863.928,55.078 C854.016,38.452,830.262,25,811.145,25H173.193z"/><circle fill="#383838" cx="626" cy="470" r="260"/><path fill="#FFF" d="M632.005,542.541c-9.318-19.17-18.332-42.479-25.238-70.104c21.074-8.569,42.707-13.102,62.766-13.102 c4.57,0,9.039,0.267,13.406,0.711c-8.354,23.055-21.633,48.877-42.631,73.633c-2.666,3.06-5.459,5.979-8.303,8.836V542.541z M529.084,571.842c-9.306-21.785,10.854-57.332,43.685-81.021c8.201,30.164,18.713,55.72,29.453,76.451 c-20.084,13.102-40.6,20.274-55.936,17.938c-8.531-1.308-13.851-5.408-17.177-13.343L529.084,571.842z M729.454,433.729 c3.58-17.418,4.773-31.535,5.18-40.765h-37.629c-0.355,7.021-1.32,17.418-3.809,30.215c-29.326-4.291-62.41-0.165-94.072,11.565 c-3.529-21.138-5.713-40.739-6.906-58.157c112.734-6.5,179.283-33.985,182.33-35.293l-14.447-34.988 c-0.711,0.254-63.654,26.051-169.33,32.373c-0.152-26.165,1.6-42.072,1.701-42.961h-37.756c-0.66,7.363-1.777,22.75-1.625,44.281 l-3.453,0.102c-33.706,0.076-64.987-2.514-72.401-3.199v38.149c11.058,0.978,37.781,3.034,68.187,3.034l9.191-0.102 c1.473,21.658,4.342,46.465,9.344,73.531c-49.905,29.974-89.527,88.144-69.354,135.383c8.48,19.855,24.832,32.576,46.097,35.826 c3.555,0.521,7.211,0.838,11.02,0.838c21.48,0,46.135-8.798,69.672-23.766c15.336,23.131,27.777,35.356,28.844,36.397 l25.848-27.562c-0.254-0.254-11.172-10.918-24.883-31.979c6.145-5.726,12.137-11.705,17.672-18.205 c24.984-29.479,40.523-60.062,50.197-87.407c8.506,4.938,16.834,12.378,21.252,23.448c15.031,37.705-6.652,81.225-26.914,100.153 l25.492,27.828c33.668-31.472,56.951-90.378,36.258-142.175c-8.125-20.389-23.816-36.321-45.652-46.541L729.454,433.729z"/><circle fill="#F00" cx="366" cy="730" r="260"/><path fill="#FFF" d="M412.681,749.348h-93.336l46.668-119.234L412.681,749.348z M386.16,567.297h-40.295l-125.328,304.51h51.302 l30.812-81.021h126.725l30.812,81.021h51.276L386.16,567.297z"/></a></svg>
