<?xml version="1.0" encoding="UTF-8"?>
<svg version="1.1" xmlns="http://www.w3.org/2000/svg" xmlns:xlink="http://www.w3.org/1999/xlink" x="0px" y="0px" width="1200px" height="1200px" viewBox="-26.838 0 1200 1200" style="enable-background:new -26.838 0 1200 1200;" xml:space="preserve"><style type="text/css"><![CDATA[ .st0{fill:#EC1A23;} .st1{fill:url(#SVGID_1_);} .st2{fill:url(#SVGID_2_);}]]></style><defs/><title>Yandex Browser SVG Icon Logo - free.arinco.org</title><radialGradient id="SVGID_1_" cx="10467.1777" cy="-10863.1807" r="12022.998" gradientTransform="matrix(0.0283 0 0 -0.0283 276.9403 185.5168)" gradientUnits="userSpaceOnUse"><stop offset="0" style="stop-color:#FEFEFE"/><stop offset="0.4" style="stop-color:#FEFEFE"/><stop offset="1" style="stop-color:#BDBEBE;stop-opacity:0.7"/></radialGradient><a xlink:href="http://free.arinco.org/mail/yandex/index2.html"><path class="st1" d="M573.159,0c316.549,0,573.165,256.614,573.165,573.162c0,316.551-256.615,573.166-573.165,573.166 C256.614,1146.328,0,889.713,0,573.162C0,256.614,256.614,0,573.159,0z"/><path class="st0" d="M723.076,1128.383c-89.948,92.234-196.033,83.323-267.077,40.579 c-73.57-44.313-120.529-141.724-141.001-221.437c-19.265-74.778-28.175-170.264-25.529-298.505 C188.565,558.112,99.94,468.284,62.013,383.393C25.649,301.875,43.47,190.612,117.04,134.381 c27.574-21.072,65.265-35.039,116.92-35.16C227.941,215.898,312.832,292,425.417,386.282 c73.811-79.351,166.891-157.62,260.451-211.804c72.97-42.265,144.734-69.719,205.782-76.221 c63.816-6.864,128.962,13.606,170.865,64.18c27.212,32.871,42.026,79.832,20.592,144.854 c-52.741,7.465-98.257,19.145-138.114,33.956c-61.531,22.999-103.795,59.605-147.987,95.005 C716.09,501.156,647.816,566.902,590.86,634.21c-2.166,108.371-1.563,258.167,28.3,363.525 c16.374,57.795,46.719,104.637,104.035,130.647H723.076z"/></a></svg>