<?xml version="1.0" ?><!DOCTYPE svg  PUBLIC '-//W3C//DTD SVG 1.1//EN'  'http://www.w3.org/Graphics/SVG/1.1/DTD/svg11.dtd'><svg enable-background="new 0 0 512 512" height="512px" id="Layer_1" version="1.1" viewBox="0 0 512 512" width="512px" xml:space="preserve" xmlns="http://www.w3.org/2000/svg" xmlns:xlink="http://www.w3.org/1999/xlink"><path d="M255.982,0C114.63,0,0.002,114.593,0.002,255.982C0.002,397.392,114.63,512,255.982,512  c141.429,0,256.017-114.608,256.017-256.018C511.999,114.593,397.411,0,255.982,0 M237.963,142.775  c-25.297-1.58-49.324-6.465-71.349-14.089c17.711-36.058,42.545-65.34,71.349-84.442V142.775z M237.963,178.935v59.009h-99.574  c1.579-26.834,6.661-52.329,14.479-75.817C179.243,171.465,207.892,177.238,237.963,178.935 M237.963,274.024v58.407  c-30.227,1.714-58.989,7.565-85.481,17c-7.702-23.414-12.629-48.743-14.093-75.407H237.963z M237.963,368.608v99.919  c-29.148-19.313-54.175-49.001-71.928-85.556C188.215,375.192,212.434,370.228,237.963,368.608 M274.041,368.608  c25.529,1.619,49.748,6.584,71.927,14.363c-17.75,36.555-42.814,66.288-71.927,85.594V368.608z M274.041,332.432v-58.407h99.572  c-1.465,26.664-6.393,51.993-14.092,75.407C333.069,339.997,304.267,334.146,274.041,332.432 M274.041,237.944v-59.009  c30.034-1.697,58.719-7.47,85.096-16.808c7.814,23.488,12.857,48.983,14.438,75.817H274.041z M274.041,142.775V44.244  c28.841,19.102,53.637,48.384,71.349,84.402C323.365,136.27,299.341,141.195,274.041,142.775 M336.806,51.542  c26.296,10.435,50.13,25.781,70.345,44.952c-8.817,6.511-18.365,12.518-28.532,17.864C367.299,90.911,353.209,69.757,336.806,51.542   M133.345,114.358c-10.166-5.346-19.677-11.353-28.496-17.864c20.214-19.171,44.012-34.555,70.311-44.952  C158.796,69.757,144.703,90.911,133.345,114.358 M119.638,147.799c-9.625,28.011-15.596,58.378-17.292,90.145H36.894  c3.462-42.76,19.25-82.154,43.777-114.532C92.643,132.515,105.659,140.736,119.638,147.799 M102.274,274.024  c1.616,31.589,7.508,61.859,16.942,89.731c-13.902,7.122-26.88,15.323-38.815,24.45c-24.413-32.345-40.045-71.538-43.507-114.182  H102.274z M132.843,397.331c11.167,23.334,25.068,44.473,41.241,62.727c-26.029-10.533-49.595-25.834-69.579-44.902  C113.245,408.69,122.678,402.665,132.843,397.331 M379.158,397.331c10.128,5.334,19.596,11.359,28.301,17.847  c-19.943,19.046-43.511,34.347-69.538,44.838C354.092,441.804,367.991,420.667,379.158,397.331 M392.791,363.756  c9.431-27.872,15.281-58.104,16.938-89.731h65.383c-3.468,42.644-19.099,81.837-43.511,114.182  C419.665,379.078,406.652,370.876,392.791,363.756 M409.653,237.944c-1.694-31.766-7.66-62.134-17.248-90.145  c13.938-7.063,26.953-15.285,38.887-24.388c24.569,32.378,40.318,71.734,43.82,114.532H409.653z"/></svg>