<svg xmlns="http://www.w3.org/2000/svg" viewBox="0 0 48 48"><defs><linearGradient id="3" x1="307.01" y1="499.5" x2="308.65" y2="536.53" gradientUnits="userSpaceOnUse" gradientTransform="matrix(1.1865 0 0-1.02616-323 544.48)"><stop stop-color="#1360c1"/><stop offset="1" stop-color="#2190ec"/></linearGradient><linearGradient id="4" x1="47.83" y1="21.32" x2="46.836" y2="3.397" gradientUnits="userSpaceOnUse"><stop stop-color="#cdd6da"/><stop offset="1" stop-color="#f6f7f8"/></linearGradient><linearGradient id="2" x1="59.22" y1="37.13" x2="67.54" y2="34.11" gradientUnits="userSpaceOnUse"><stop stop-color="#1e48aa"/><stop offset="1" stop-color="#1e2a8d"/></linearGradient><linearGradient id="0" x1="70.21" y1="30.867" x2="69.59" y2="14.09" gradientUnits="userSpaceOnUse"><stop stop-color="#1f52b9"/><stop offset="1" stop-color="#147bdc"/></linearGradient><linearGradient id="1" x1="331.2" y1="531.93" x2="330.68" y2="493.75" gradientUnits="userSpaceOnUse" gradientTransform="matrix(1.3571 0 0-1.03373-382.32 554.24)"><stop stop-color="#dcebe8"/><stop offset="1" stop-color="#f6f8f7"/></linearGradient></defs><g transform="matrix(.99999 0 0 .99999-33.481 5.512)" enable-background="new"><path d="m59.909 42.37l-13.233-38.976h28.755c5.383-.219 5.997 3.562 5.997 3.562v31.16c0 0 .943 4.254-4.758 4.254z" fill="url(#1)" fill-rule="evenodd"/><path d="m63.54 18.732h9.709c-.274 1.753-1.203 3.621-2.766 5.555-.996-1.595-1.636-3.143-2-4.173-.092-.26-.338-.434-.614-.434h-1.598c-.208 0-.403.099-.526.267-.123.168-.158.383-.095.582.379 1.192 1.25 3.532 2.862 5.91-1.904 1.851-3.801 3.185-4.535 3.677-.292.196-.376.588-.189.886l.802 1.282c.093.148.242.253.413.291.046.001.093.015.139.015.126 0 .251-.037.358-.107.756-.497 2.716-1.852 4.769-3.819.76.792 2.545 2.179 3.603 2.949.161.117.368.154.561.1.192-.055.349-.195.425-.38l.598-1.462c.12-.294.011-.632-.259-.799-.689-.428-1.987-1.306-3.047-2.447 2.326-2.722 3.652-5.376 3.944-7.891h.513c.359 0 .651-.292.651-.651v-1.735c0-.359-.291-.651-.651-.651h-5.07v-.891c0-.36-.291-.651-.651-.651h-1.624c-.359 0-.651.291-.651.651v.891h-5.07c-.359 0-.651.291-.651.651v1.735c0 .359.291.65.651.65" fill="url(#0)"/><g fill-rule="evenodd"><path d="m56.2 32.935l3.562 9.516 8.535-9.516z" fill="url(#2)"/><path d="m55.32-5.47l12.985 38.69h-30.05c-4.707.218-4.769-3.536-4.769-3.536v-30.932c0 0 .125-4.223 5.109-4.223z" fill="url(#3)"/></g><path d="m50.27 5.455c-.097-.312-.386-.525-.713-.525h-4.145c-.328 0-.617.214-.713.528l-4.953 16.194c-.069.226-.027.472.114.663.141.19.363.302.6.302h2.571c.335 0 .629-.224.719-.546l1.11-3.995h5.067l1.202 4.01c.094.316.385.532.715.532h2.733c.238 0 .46-.113.6-.303.141-.191.182-.437.112-.664l-5.02-16.195m-4.836 9.633l1.866-7.164h.051l1.996 7.164h-3.913z" fill="url(#4)"/></g></svg>