<?xml version="1.0" encoding="UTF-8" standalone="no"?>
<svg
   version="1.1"
   width="256px"
   height="256px"
   style="shape-rendering:geometricPrecision; text-rendering:geometricPrecision; image-rendering:optimizeQuality; fill-rule:evenodd; clip-rule:evenodd"
   id="svg170"
   xmlns="http://www.w3.org/2000/svg"
   xmlns:svg="http://www.w3.org/2000/svg">
  <defs
     id="defs174" />
  <g
     id="g4">
    <path
       style="opacity:1"
       fill="#1a1a83"
       d="M 102.5,5.5 C 100.902,10.7009 98.7354,15.7009 96,20.5C 94.5295,19.7334 93.0295,19.0668 91.5,18.5C 93.6534,14.1932 95.8201,9.85989 98,5.5C 99.4902,4.27207 100.99,4.27207 102.5,5.5 Z"
       id="path2" />
  </g>
  <g
     id="g8"
     style="fill:#b3b3b3">
    <path
       style="opacity:1;fill:#b3b3b3"
       fill="#2f2fee"
       d="M 102.5,5.5 C 104.827,5.66462 106.993,6.33129 109,7.5C 109.333,12.8333 109.667,18.1667 110,23.5C 113.852,20.9075 117.852,18.5742 122,16.5C 125.763,17.9286 128.596,20.4286 130.5,24C 127.421,28.0791 124.754,32.4124 122.5,37C 122.645,37.772 122.978,38.4387 123.5,39C 127.61,39.8497 131.61,41.0163 135.5,42.5C 137.084,44.9522 137.417,47.4522 136.5,50C 131.883,51.8859 127.716,54.3859 124,57.5C 123.365,59.6354 123.699,61.6354 125,63.5C 127,65.5 129,67.5 131,69.5C 131.547,73.4042 129.88,75.7375 126,76.5C 116.195,71.8216 111.695,74.8216 112.5,85.5C 114.517,90.6169 112.85,93.9502 107.5,95.5C 106.712,94.2299 105.712,93.2299 104.5,92.5C 103.659,91.0736 102.659,89.7403 101.5,88.5C 100.952,86.4677 99.6188,85.4677 97.5,85.5C 97.1667,85.5 96.8333,85.5 96.5,85.5C 94.5544,86.0347 93.5544,87.368 93.5,89.5C 91.6076,92.2765 89.9409,95.2765 88.5,98.5C 87.3112,99.4287 85.9778,99.762 84.5,99.5C 83.791,98.596 82.791,98.2627 81.5,98.5C 81.8275,93.456 81.4941,88.456 80.5,83.5C 79.2519,82.9598 78.0852,82.2931 77,81.5C 76.6012,81.7284 76.4346,82.0618 76.5,82.5C 72.1454,84.429 67.9788,86.7624 64,89.5C 63.0053,88.9341 62.172,88.2674 61.5,87.5C 61.4894,85.9826 60.8228,84.8159 59.5,84C 62.8015,79.8677 65.4681,75.3677 67.5,70.5C 67.4546,67.8105 66.1213,66.4772 63.5,66.5C 59.5,65.8333 55.5,65.1667 51.5,64.5C 52.5071,60.2205 51.1737,57.2205 47.5,55.5C 51.4934,52.8366 55.8268,50.6699 60.5,49C 61.4061,47.3005 61.7394,45.4672 61.5,43.5C 62.4232,44.3029 63.4232,44.4696 64.5,44C 61.2463,41.2532 58.5797,38.0865 56.5,34.5C 57.9885,32.3549 58.9885,30.0215 59.5,27.5C 62.7396,27.7678 65.9063,28.4345 69,29.5C 70.6434,28.6854 72.1434,27.6854 73.5,26.5C 74.5832,26.5394 75.5832,26.8728 76.5,27.5C 77.5572,22.4921 77.3905,17.4921 76,12.5C 74.9887,11.6634 73.8221,11.33 72.5,11.5C 73.2246,10.0303 74.8912,8.86367 77.5,8C 78.5,7.33333 79.5,7.33333 80.5,8C 83.813,10.9834 86.813,14.3167 89.5,18C 90.0944,18.4643 90.7611,18.631 91.5,18.5C 93.0295,19.0668 94.5295,19.7334 96,20.5C 98.7354,15.7009 100.902,10.7009 102.5,5.5 Z M 104.5,29.5 C 107.165,32.3347 109.665,35.3347 112,38.5C 113.264,44.2172 113.431,49.8839 112.5,55.5C 110.826,60.8623 108.159,65.529 104.5,69.5C 101.528,71.3222 98.5279,73.1555 95.5,75C 90.8333,75.6667 86.1667,75.6667 81.5,75C 74.2252,69.1925 70.8919,61.5258 71.5,52C 73.903,46.5272 76.5697,41.1939 79.5,36C 83.1667,33.6667 86.8333,31.3333 90.5,29C 95.2041,28.3523 99.8708,28.519 104.5,29.5 Z"
       id="path6" />
  </g>
  <g
     id="g12"
     style="fill:#333333">
    <path
       style="opacity:1;fill:#333333"
       fill="#0a0933"
       d="M 72.5,11.5 C 73.8221,11.33 74.9887,11.6634 76,12.5C 77.3905,17.4921 77.5572,22.4921 76.5,27.5C 75.5832,26.8728 74.5832,26.5394 73.5,26.5C 72.9466,21.518 72.6133,16.518 72.5,11.5 Z"
       id="path10" />
  </g>
  <g
     id="g16"
     style="fill:#333333">
    <path
       style="opacity:1;fill:#333333"
       fill="#2121a7"
       d="M 59.5,27.5 C 58.9885,30.0215 57.9885,32.3549 56.5,34.5C 55.8333,34.5 55.1667,34.5 54.5,34.5C 53.5222,34.189 52.8555,33.5223 52.5,32.5C 53.3333,30.8333 54.1667,29.1667 55,27.5C 56.4902,26.2721 57.9902,26.2721 59.5,27.5 Z"
       id="path14" />
  </g>
  <g
     id="g20">
    <path
       style="opacity:1"
       fill="#0a0933"
       d="M 54.5,34.5 C 55.1667,34.5 55.8333,34.5 56.5,34.5C 58.5797,38.0865 61.2463,41.2532 64.5,44C 63.4232,44.4696 62.4232,44.3029 61.5,43.5C 58.7606,40.7673 56.4273,37.7673 54.5,34.5 Z"
       id="path18" />
  </g>
  <g
     id="g24"
     style="fill:#666666">
    <path
       style="opacity:1;fill:#666666"
       fill="#0c0e43"
       d="M 104.5,29.5 C 105.552,29.3505 106.552,29.5172 107.5,30C 109.963,33.4646 112.796,36.6312 116,39.5C 117.724,45.4918 118.224,51.4918 117.5,57.5C 115.95,56.5592 114.284,55.8925 112.5,55.5C 113.431,49.8839 113.264,44.2172 112,38.5C 109.665,35.3347 107.165,32.3347 104.5,29.5 Z"
       id="path22" />
  </g>
  <g
     id="g28">
    <path
       style="opacity:1"
       fill="#0f0e4c"
       d="M 47.5,55.5 C 51.1737,57.2205 52.5071,60.2205 51.5,64.5C 47.8263,62.7795 46.4929,59.7795 47.5,55.5 Z"
       id="path26" />
  </g>
  <g
     id="g32"
     style="fill:#4d4d4d">
    <path
       style="opacity:1;fill:#4d4d4d"
       fill="#191a82"
       d="M 63.5,66.5 C 66.1213,66.4772 67.4546,67.8105 67.5,70.5C 65.4681,75.3677 62.8015,79.8677 59.5,84C 60.8228,84.8159 61.4894,85.9826 61.5,87.5C 59.3702,85.8729 57.3702,84.0396 55.5,82C 58.8513,77.1293 61.518,71.9627 63.5,66.5 Z"
       id="path30" />
  </g>
  <g
     id="g36"
     style="fill:#666666">
    <path
       style="opacity:1;fill:#666666"
       fill="#1e1e96"
       d="M 112.5,55.5 C 114.284,55.8925 115.95,56.5592 117.5,57.5C 115.369,61.5949 113.369,65.7615 111.5,70C 108.914,72.0662 106.581,71.8995 104.5,69.5C 108.159,65.529 110.826,60.8623 112.5,55.5 Z"
       id="path34" />
  </g>
  <g
     id="g40">
    <path
       style="opacity:1"
       fill="#0a0933"
       d="M 81.5,98.5 C 81.1667,98.5 80.8333,98.5 80.5,98.5C 80.5,97.8333 80.1667,97.5 79.5,97.5C 78.8333,97.1667 78.1667,96.8333 77.5,96.5C 77.0019,91.8478 76.6686,87.1811 76.5,82.5C 76.4346,82.0618 76.6012,81.7284 77,81.5C 78.0852,82.2931 79.2519,82.9598 80.5,83.5C 81.4941,88.456 81.8275,93.456 81.5,98.5 Z"
       id="path38" />
  </g>
  <g
     id="g44">
    <path
       style="opacity:1"
       fill="#4d0a00"
       d="M 93.5,89.5 C 95.4841,89.484 96.4841,90.484 96.5,92.5C 95.4529,97.0384 93.9529,101.372 92,105.5C 89.5574,103.699 87.0574,102.032 84.5,100.5C 84.5,100.167 84.5,99.8333 84.5,99.5C 85.9778,99.762 87.3112,99.4287 88.5,98.5C 89.9409,95.2765 91.6076,92.2765 93.5,89.5 Z"
       id="path42" />
  </g>
  <g
     id="g48"
     style="fill:#b3b3b3">
    <path
       style="opacity:1;fill:#b3b3b3"
       fill="#bf1700"
       d="M 96.5,85.5 C 96.5,86.1667 96.8333,86.5 97.5,86.5C 97.5,87.1667 97.8333,87.5 98.5,87.5C 99.391,88.1098 100.391,88.4431 101.5,88.5C 102.659,89.7403 103.659,91.0736 104.5,92.5C 105.041,98.2038 108.041,101.371 113.5,102C 115.919,97.828 118.585,93.828 121.5,90C 118.609,88.7258 115.942,87.2258 113.5,85.5C 121.669,85.8575 126.335,89.8575 127.5,97.5C 127.187,100.247 127.52,102.914 128.5,105.5C 129.293,105.931 130.127,106.265 131,106.5C 134.698,103.299 138.531,100.299 142.5,97.5C 144.017,97.5106 145.184,98.1772 146,99.5C 145.947,101.936 146.113,104.269 146.5,106.5C 151.528,106.244 156.028,107.911 160,111.5C 161.536,115.675 160.702,119.509 157.5,123C 160.806,123.986 163.806,125.486 166.5,127.5C 169.152,128.325 170.485,130.158 170.5,133C 169.795,135.542 168.461,137.708 166.5,139.5C 164.967,141.355 163.3,143.188 161.5,145C 164.495,146.498 167.495,147.998 170.5,149.5C 171.29,150.401 172.29,151.068 173.5,151.5C 173.799,153.604 173.466,155.604 172.5,157.5C 169.1,159.856 165.767,162.189 162.5,164.5C 161.596,165.209 161.263,166.209 161.5,167.5C 161.5,168.167 161.833,168.5 162.5,168.5C 162.5,169.167 162.833,169.5 163.5,169.5C 165.546,171.279 167.713,172.946 170,174.5C 170.579,175.928 170.412,177.262 169.5,178.5C 169.53,179.497 169.03,180.164 168,180.5C 164.192,181.532 160.525,182.865 157,184.5C 155.813,186.044 155.48,187.711 156,189.5C 158.029,192.029 159.862,194.696 161.5,197.5C 160.833,198.833 160.167,200.167 159.5,201.5C 145.527,199.112 141.527,204.112 147.5,216.5C 146.352,218.149 145.019,219.649 143.5,221C 139.958,220.743 136.624,219.577 133.5,217.5C 131.742,218.128 130.242,219.128 129,220.5C 128.803,225.086 128.303,229.586 127.5,234C 126.034,234.635 124.7,235.469 123.5,236.5C 121.016,234.517 118.683,232.35 116.5,230C 113.962,229.133 111.962,229.799 110.5,232C 109.536,235.894 108.369,239.727 107,243.5C 105.215,244.24 103.382,244.907 101.5,245.5C 100.893,245.376 100.56,245.043 100.5,244.5C 99.438,241.484 98.2714,238.484 97,235.5C 95.5098,234.272 94.0098,234.272 92.5,235.5C 89.4861,239.005 86.8194,242.838 84.5,247C 82.2884,247.789 80.2884,247.622 78.5,246.5C 78.6699,242.355 78.0033,238.355 76.5,234.5C 73.7679,232.966 71.7679,233.633 70.5,236.5C 68.0365,238.461 65.7032,240.628 63.5,243C 61.2251,243.405 59.2251,242.905 57.5,241.5C 58.3413,237.134 59.3413,232.801 60.5,228.5C 56.9448,224.903 53.6115,225.237 50.5,229.5C 48.0721,230.212 45.7388,231.212 43.5,232.5C 41.812,231.479 40.4787,230.145 39.5,228.5C 41.955,224.425 44.2884,220.259 46.5,216C 45.6831,214.51 44.8498,213.01 44,211.5C 41.2617,212.482 38.4284,213.148 35.5,213.5C 34.1825,213.821 32.8492,214.154 31.5,214.5C 29.9623,214.547 28.9623,213.88 28.5,212.5C 28.4431,211.391 28.1098,210.391 27.5,209.5C 30.7684,205.729 34.2684,202.062 38,198.5C 37.9813,196.893 37.8146,195.226 37.5,193.5C 34.5176,193.037 31.5176,192.704 28.5,192.5C 26.7085,192.634 25.0418,192.301 23.5,191.5C 23.3212,185.651 20.6546,181.318 15.5,178.5C 19.8333,175.833 24.1667,173.167 28.5,170.5C 31.1303,172.628 33.6303,174.961 36,177.5C 36.8077,175.421 36.641,173.421 35.5,171.5C 33.2612,170.212 30.9279,169.212 28.5,168.5C 27.1667,167.5 25.8333,166.5 24.5,165.5C 25.0889,163.648 25.7556,161.815 26.5,160C 23.9614,157.63 21.6281,155.13 19.5,152.5C 24.0946,151.185 28.7613,150.185 33.5,149.5C 35.8367,151.666 38.3367,153.666 41,155.5C 41.7065,153.919 42.5399,152.419 43.5,151C 41.0374,147.535 38.2041,144.369 35,141.5C 34.9593,138.975 35.7927,136.642 37.5,134.5C 35.3271,131.932 32.9938,129.599 30.5,127.5C 34.84,128.101 39.1733,128.768 43.5,129.5C 45.0712,128.025 46.4045,126.358 47.5,124.5C 50.0608,126.371 52.5608,128.371 55,130.5C 53.7678,126.285 52.6012,121.952 51.5,117.5C 52.7927,115.704 54.2927,114.037 56,112.5C 59.8606,114.764 63.8606,116.764 68,118.5C 69.9802,117.685 71.4802,116.352 72.5,114.5C 72.6658,109.821 72.4992,105.155 72,100.5C 69.6182,98.6113 67.1182,96.9447 64.5,95.5C 66.0463,94.1402 67.8796,93.1402 70,92.5C 72.6325,93.644 75.1325,94.9773 77.5,96.5C 78.1667,96.8333 78.8333,97.1667 79.5,97.5C 80.1667,97.5 80.5,97.8333 80.5,98.5C 81.1834,100.176 82.5168,100.843 84.5,100.5C 87.0574,102.032 89.5574,103.699 92,105.5C 93.9529,101.372 95.4529,97.0384 96.5,92.5C 96.4841,90.484 95.4841,89.484 93.5,89.5C 93.5544,87.368 94.5544,86.0347 96.5,85.5 Z M 80.5,98.5 C 80.8333,98.5 81.1667,98.5 81.5,98.5C 82.791,98.2627 83.791,98.596 84.5,99.5C 84.5,99.8333 84.5,100.167 84.5,100.5C 82.5168,100.843 81.1834,100.176 80.5,98.5 Z M 108.5,152.5 C 110.534,156.392 110.867,160.392 109.5,164.5C 109.122,166.921 108.455,169.254 107.5,171.5C 102.51,178.827 95.5097,182.16 86.5,181.5C 82.9843,169.56 86.6509,160.393 97.5,154C 101.086,152.892 104.753,152.392 108.5,152.5 Z"
       id="path46" />
  </g>
  <g
     id="g52">
    <path
       style="opacity:1"
       fill="#720f02"
       d="M 112.5,85.5 C 112.833,85.5 113.167,85.5 113.5,85.5C 115.942,87.2258 118.609,88.7258 121.5,90C 118.585,93.828 115.919,97.828 113.5,102C 108.041,101.371 105.041,98.2038 104.5,92.5C 105.712,93.2299 106.712,94.2299 107.5,95.5C 112.85,93.9502 114.517,90.6169 112.5,85.5 Z"
       id="path50" />
  </g>
  <g
     id="g56">
    <path
       style="opacity:1"
       fill="#0a0933"
       d="M 97.5,86.5 C 97.5,86.1667 97.5,85.8333 97.5,85.5C 99.6188,85.4677 100.952,86.4677 101.5,88.5C 100.391,88.4431 99.391,88.1098 98.5,87.5C 97.8333,87.5 97.5,87.1667 97.5,86.5 Z"
       id="path54" />
  </g>
  <g
     id="g60">
    <path
       style="opacity:1"
       fill="#931200"
       d="M 142.5,97.5 C 138.531,100.299 134.698,103.299 131,106.5C 130.127,106.265 129.293,105.931 128.5,105.5C 127.52,102.914 127.187,100.247 127.5,97.5C 129.127,95.3702 130.96,93.3702 133,91.5C 136.485,93.1498 139.651,95.1498 142.5,97.5 Z"
       id="path58" />
  </g>
  <g
     id="g64">
    <path
       style="opacity:1"
       fill="#280500"
       d="M 64.5,95.5 C 67.1182,96.9447 69.6182,98.6113 72,100.5C 72.4992,105.155 72.6658,109.821 72.5,114.5C 69.8508,112.86 67.1841,111.193 64.5,109.5C 64.5,104.833 64.5,100.167 64.5,95.5 Z"
       id="path62" />
  </g>
  <g
     id="g68">
    <path
       style="opacity:1"
       fill="#004510"
       d="M 184.5,101.5 C 190.525,104.932 196.692,108.265 203,111.5C 202.711,115.888 201.878,120.221 200.5,124.5C 193.55,121.692 186.883,118.358 180.5,114.5C 181.388,109.927 182.721,105.594 184.5,101.5 Z"
       id="path66" />
  </g>
  <g
     id="g72">
    <path
       style="opacity:1"
       fill="#008d22"
       d="M 224.5,113.5 C 221.469,117.029 218.303,120.362 215,123.5C 214.127,123.265 213.293,122.931 212.5,122.5C 211.395,118.473 210.229,114.473 209,110.5C 206.686,109.267 204.519,107.933 202.5,106.5C 203.122,105.373 203.955,104.373 205,103.5C 211.514,107.006 218.014,110.339 224.5,113.5 Z"
       id="path70" />
  </g>
  <g
     id="g76">
    <path
       style="opacity:1"
       fill="#9f1300"
       d="M 64.5,109.5 C 67.1841,111.193 69.8508,112.86 72.5,114.5C 71.4802,116.352 69.9802,117.685 68,118.5C 63.8606,116.764 59.8606,114.764 56,112.5C 54.2927,114.037 52.7927,115.704 51.5,117.5C 48.8333,115.833 46.1667,114.167 43.5,112.5C 44.3733,110.114 45.8733,108.114 48,106.5C 51.8606,108.764 55.8606,110.764 60,112.5C 61.6434,111.685 63.1434,110.685 64.5,109.5 Z"
       id="path74" />
  </g>
  <g
     id="g80">
    <path
       style="opacity:1"
       fill="#00a529"
       d="M 180.5,114.5 C 186.883,118.358 193.55,121.692 200.5,124.5C 199.312,125.364 198.145,126.364 197,127.5C 193.983,125.494 190.983,123.494 188,121.5C 186.019,122.65 184.186,123.984 182.5,125.5C 176.298,121.899 169.964,118.566 163.5,115.5C 164.388,113.191 166.054,111.524 168.5,110.5C 171.761,112.047 174.928,113.713 178,115.5C 178.902,115.257 179.735,114.923 180.5,114.5 Z"
       id="path78" />
  </g>
  <g
     id="g84"
     style="fill:#cccccc">
    <path
       style="opacity:1;fill:#cccccc"
       fill="#00be2f"
       d="M 202.5,106.5 C 204.519,107.933 206.686,109.267 209,110.5C 210.229,114.473 211.395,118.473 212.5,122.5C 213.293,122.931 214.127,123.265 215,123.5C 218.303,120.362 221.469,117.029 224.5,113.5C 226.487,114.164 228.154,115.331 229.5,117C 228.308,118.912 227.308,120.912 226.5,123C 230.252,125.293 234.086,127.46 238,129.5C 238.681,131.529 239.014,133.529 239,135.5C 234.731,138.098 231.564,141.598 229.5,146C 229.833,146.833 230.167,147.667 230.5,148.5C 233.167,150.167 235.833,151.833 238.5,153.5C 237.833,155.167 237.167,156.833 236.5,158.5C 232.678,159.662 228.845,160.662 225,161.5C 224.219,162.729 223.719,164.062 223.5,165.5C 224.399,168.697 225.399,171.864 226.5,175C 225.392,177.112 223.892,178.946 222,180.5C 219.272,178.108 216.272,176.108 213,174.5C 209.507,178.396 207.507,183.063 207,188.5C 204.891,190.418 202.725,190.751 200.5,189.5C 200.876,184.546 199.043,180.88 195,178.5C 193.824,180.196 192.657,181.862 191.5,183.5C 189.484,185.348 187.317,187.015 185,188.5C 183.541,188.192 182.374,187.525 181.5,186.5C 183.205,181.902 184.371,177.235 185,172.5C 184.333,171.833 183.667,171.167 183,170.5C 179.314,172.177 175.481,173.01 171.5,173C 170.733,171.53 170.067,170.03 169.5,168.5C 172.833,165.336 176.333,162.336 180,159.5C 180.798,157.741 180.631,156.074 179.5,154.5C 177.473,153.487 175.473,152.487 173.5,151.5C 172.29,151.068 171.29,150.401 170.5,149.5C 171.167,147.181 171.334,144.847 171,142.5C 169.348,141.601 167.848,140.601 166.5,139.5C 168.461,137.708 169.795,135.542 170.5,133C 170.485,130.158 169.152,128.325 166.5,127.5C 166.5,126.833 166.833,126.5 167.5,126.5C 173.446,129.809 179.446,133.142 185.5,136.5C 185.221,132.943 184.221,129.276 182.5,125.5C 184.186,123.984 186.019,122.65 188,121.5C 190.983,123.494 193.983,125.494 197,127.5C 198.145,126.364 199.312,125.364 200.5,124.5C 201.878,120.221 202.711,115.888 203,111.5C 196.692,108.265 190.525,104.932 184.5,101.5C 186.455,100.677 188.455,100.51 190.5,101C 194.402,103.119 198.402,104.952 202.5,106.5 Z"
       id="path82" />
  </g>
  <g
     id="g88">
    <path
       style="opacity:1"
       fill="#280500"
       d="M 43.5,112.5 C 46.1667,114.167 48.8333,115.833 51.5,117.5C 52.6012,121.952 53.7678,126.285 55,130.5C 52.5608,128.371 50.0608,126.371 47.5,124.5C 46.1667,120.5 44.8333,116.5 43.5,112.5 Z"
       id="path86" />
  </g>
  <g
     id="g92">
    <path
       style="opacity:1"
       fill="#002909"
       d="M 163.5,115.5 C 169.964,118.566 176.298,121.899 182.5,125.5C 184.221,129.276 185.221,132.943 185.5,136.5C 179.446,133.142 173.446,129.809 167.5,126.5C 166.167,122.833 164.833,119.167 163.5,115.5 Z"
       id="path90" />
  </g>
  <g
     id="g96">
    <path
       style="opacity:1"
       fill="#700f01"
       d="M 30.5,127.5 C 32.9938,129.599 35.3271,131.932 37.5,134.5C 35.7927,136.642 34.9593,138.975 35,141.5C 38.2041,144.369 41.0374,147.535 43.5,151C 42.5399,152.419 41.7065,153.919 41,155.5C 38.3367,153.666 35.8367,151.666 33.5,149.5C 33.8769,147.742 34.5435,146.075 35.5,144.5C 33.0617,140.558 30.0617,137.058 26.5,134C 27.7332,131.686 29.0666,129.519 30.5,127.5 Z"
       id="path94" />
  </g>
  <g
     id="g100">
    <path
       style="opacity:1"
       fill="#006919"
       d="M 166.5,139.5 C 167.848,140.601 169.348,141.601 171,142.5C 171.334,144.847 171.167,147.181 170.5,149.5C 167.495,147.998 164.495,146.498 161.5,145C 163.3,143.188 164.967,141.355 166.5,139.5 Z"
       id="path98" />
  </g>
  <g
     id="g104">
    <path
       style="opacity:1"
       fill="#003e10"
       d="M 211.5,152.5 C 207.983,150.576 204.316,148.909 200.5,147.5C 204.099,141.994 207.933,141.66 212,146.5C 212.789,148.712 212.622,150.712 211.5,152.5 Z"
       id="path102" />
  </g>
  <g
     id="g108">
    <path
       style="opacity:1"
       fill="#590b00"
       d="M 19.5,152.5 C 21.6281,155.13 23.9614,157.63 26.5,160C 25.7556,161.815 25.0889,163.648 24.5,165.5C 22.2034,163.706 20.0367,161.706 18,159.5C 17.7247,156.942 18.2247,154.608 19.5,152.5 Z"
       id="path106" />
  </g>
  <g
     id="g112">
    <path
       style="opacity:1"
       fill="#008120"
       d="M 200.5,147.5 C 204.316,148.909 207.983,150.576 211.5,152.5C 210.11,158.237 207.11,159.071 202.5,155C 201.522,153.025 200.189,151.358 198.5,150C 198.639,148.699 199.305,147.866 200.5,147.5 Z"
       id="path110" />
  </g>
  <g
     id="g116">
    <path
       style="opacity:1"
       fill="#008d23"
       d="M 173.5,151.5 C 175.473,152.487 177.473,153.487 179.5,154.5C 180.631,156.074 180.798,157.741 180,159.5C 176.333,162.336 172.833,165.336 169.5,168.5C 167.302,166.902 164.969,165.569 162.5,164.5C 165.767,162.189 169.1,159.856 172.5,157.5C 173.466,155.604 173.799,153.604 173.5,151.5 Z"
       id="path114" />
  </g>
  <g
     id="g120">
    <path
       style="opacity:1"
       fill="#2e0600"
       d="M 108.5,152.5 C 116.7,155.522 120.033,161.189 118.5,169.5C 115.442,167.98 112.442,166.313 109.5,164.5C 110.867,160.392 110.534,156.392 108.5,152.5 Z"
       id="path118" />
  </g>
  <g
     id="g124">
    <path
       style="opacity:1"
       fill="#590b00"
       d="M 28.5,168.5 C 30.9279,169.212 33.2612,170.212 35.5,171.5C 36.641,173.421 36.8077,175.421 36,177.5C 33.6303,174.961 31.1303,172.628 28.5,170.5C 28.5,169.833 28.5,169.167 28.5,168.5 Z"
       id="path122" />
  </g>
  <g
     id="g128">
    <path
       style="opacity:1"
       fill="#5b0b00"
       d="M 109.5,164.5 C 112.442,166.313 115.442,167.98 118.5,169.5C 118.606,172.079 117.939,174.412 116.5,176.5C 113.265,175.267 110.265,173.601 107.5,171.5C 108.455,169.254 109.122,166.921 109.5,164.5 Z"
       id="path126" />
  </g>
  <g
     id="g132">
    <path
       style="opacity:1"
       fill="#004a13"
       d="M 162.5,164.5 C 164.969,165.569 167.302,166.902 169.5,168.5C 170.067,170.03 170.733,171.53 171.5,173C 175.481,173.01 179.314,172.177 183,170.5C 183.667,171.167 184.333,171.833 185,172.5C 184.371,177.235 183.205,181.902 181.5,186.5C 177.228,184.226 173.228,181.559 169.5,178.5C 170.412,177.262 170.579,175.928 170,174.5C 167.713,172.946 165.546,171.279 163.5,169.5C 162.833,169.5 162.5,169.167 162.5,168.5C 161.833,168.5 161.5,168.167 161.5,167.5C 161.263,166.209 161.596,165.209 162.5,164.5 Z"
       id="path130" />
  </g>
  <g
     id="g136">
    <path
       style="opacity:1"
       fill="#2f0600"
       d="M 15.5,178.5 C 20.6546,181.318 23.3212,185.651 23.5,191.5C 18.2662,188.628 15.5995,184.295 15.5,178.5 Z"
       id="path134" />
  </g>
  <g
     id="g140">
    <path
       style="opacity:1"
       fill="#002909"
       d="M 200.5,189.5 C 196.975,188.241 193.975,186.241 191.5,183.5C 192.657,181.862 193.824,180.196 195,178.5C 199.043,180.88 200.876,184.546 200.5,189.5 Z"
       id="path138" />
  </g>
  <g
     id="g144">
    <path
       style="opacity:1"
       fill="#a11400"
       d="M 107.5,171.5 C 110.265,173.601 113.265,175.267 116.5,176.5C 111.814,185.344 104.48,189.177 94.5,188C 91.0641,186.726 88.3974,184.559 86.5,181.5C 95.5097,182.16 102.51,178.827 107.5,171.5 Z"
       id="path142" />
  </g>
  <g
     id="g148">
    <path
       style="opacity:1"
       fill="#8a1100"
       d="M 28.5,192.5 C 31.5176,192.704 34.5176,193.037 37.5,193.5C 37.8146,195.226 37.9813,196.893 38,198.5C 34.2684,202.062 30.7684,205.729 27.5,209.5C 25.8606,207.194 23.8606,205.194 21.5,203.5C 20.475,203.103 20.3083,202.437 21,201.5C 23.3347,198.335 25.8347,195.335 28.5,192.5 Z"
       id="path146" />
  </g>
  <g
     id="g152">
    <path
       style="opacity:1"
       fill="#280500"
       d="M 21.5,203.5 C 23.8606,205.194 25.8606,207.194 27.5,209.5C 28.1098,210.391 28.4431,211.391 28.5,212.5C 25.027,210.363 22.6936,207.363 21.5,203.5 Z"
       id="path150" />
  </g>
  <g
     id="g156">
    <path
       style="opacity:1"
       fill="#6d0d00"
       d="M 39.5,228.5 C 36.4731,226.471 34.1398,223.804 32.5,220.5C 33.7878,218.261 34.7878,215.928 35.5,213.5C 38.4284,213.148 41.2617,212.482 44,211.5C 44.8498,213.01 45.6831,214.51 46.5,216C 44.2884,220.259 41.955,224.425 39.5,228.5 Z"
       id="path154" />
  </g>
  <g
     id="g160">
    <path
       style="opacity:1"
       fill="#460900"
       d="M 57.5,241.5 C 54.8697,239.372 52.3697,237.039 50,234.5C 49.6155,232.803 49.7822,231.137 50.5,229.5C 53.6115,225.237 56.9448,224.903 60.5,228.5C 59.3413,232.801 58.3413,237.134 57.5,241.5 Z"
       id="path158" />
  </g>
  <g
     id="g164">
    <path
       style="opacity:1"
       fill="#280500"
       d="M 78.5,246.5 C 74.6616,244.006 71.9949,240.673 70.5,236.5C 71.7679,233.633 73.7679,232.966 76.5,234.5C 78.0033,238.355 78.6699,242.355 78.5,246.5 Z"
       id="path162" />
  </g>
  <g
     id="g168">
    <path
       style="opacity:1"
       fill="#280500"
       d="M 100.5,244.5 C 97.0969,242.1 94.4302,239.1 92.5,235.5C 94.0098,234.272 95.5098,234.272 97,235.5C 98.2714,238.484 99.438,241.484 100.5,244.5 Z"
       id="path166" />
  </g>
</svg>
