<?xml version="1.0" encoding="UTF-8" standalone="no"?>
<svg
   version="1.1"
   viewBox="0 0 16 16"
   id="svg10"
   sodipodi:docname="eye-disabled-symbolic.svg"
   inkscape:version="1.1.2 (0a00cf5339, 2022-02-04)"
   xmlns:inkscape="http://www.inkscape.org/namespaces/inkscape"
   xmlns:sodipodi="http://sodipodi.sourceforge.net/DTD/sodipodi-0.dtd"
   xmlns="http://www.w3.org/2000/svg"
   xmlns:svg="http://www.w3.org/2000/svg">
  <defs
     id="defs14" />
  <sodipodi:namedview
     id="namedview12"
     pagecolor="#ffffff"
     bordercolor="#666666"
     borderopacity="1.0"
     inkscape:pageshadow="2"
     inkscape:pageopacity="0.0"
     inkscape:pagecheckerboard="0"
     showgrid="false"
     inkscape:zoom="52.75"
     inkscape:cx="4.1895735"
     inkscape:cy="8.4834123"
     inkscape:window-width="1920"
     inkscape:window-height="1016"
     inkscape:window-x="0"
     inkscape:window-y="27"
     inkscape:window-maximized="1"
     inkscape:current-layer="svg10" />
  <g
     transform="translate(-236 -380.03)"
     fill="#808080"
     id="g8">
    <path
       d="m244 381.99c-3.6479 5e-3 -6.8308 2.4765-7.7383 6.0098 0.91502 3.5255 4.096 5.9879 7.7383 5.9902 3.6479-5e-3 6.8308-2.4765 7.7383-6.0098-0.91502-3.5255-4.096-5.9879-7.7383-5.9902zm-0.0781 1.0293c1.7403-0.0197 3.5112 0.63214 4.7774 1.8359 0.93959 0.82912 1.6024 1.936 1.9785 3.125-0.48037 1.618-1.5667 3.0464-3.0059 3.9297-1.1694 0.73635-2.5634 1.0892-3.9199 1.0449-1.0355-0.0138-2.1048-0.33363-2.9922-0.79492-1.6174-0.85283-2.8849-2.3578-3.4199-4.1094 0.085-0.51892 0.34571-1.0247 0.59766-1.4941 1.1884-2.1249 3.5457-3.5312 5.9844-3.5371z"
       style="paint-order:normal"
       id="path2" />
    <path
       d="m244.2 383.99c-0.13341-6e-3 -0.26704-5e-3 -0.40039 2e-3 -2.205 0.1136-3.9009 1.9922-3.7891 4.1973 0.11256 2.2057 1.9915 3.9028 4.1973 3.791 2.2057-0.11256 3.9028-1.9915 3.791-4.1973v-2e-3c-0.10487-2.0517-1.7469-3.6904-3.7988-3.791zm-0.34765 1a3 3 0 0 1 3.1484 2.8418v2e-3a3 3 0 0 1-2.8438 3.1484 3 3 0 0 1-3.1484-2.8438 3 3 0 0 1 2.8438-3.1484z"
       id="path4" />
    <path
       d="m243.9 385.99a2 2 0 0 0-1.8965 2.0996 2 2 0 0 0 2.0996 1.8965 2 2 0 0 0 1.8965-2.0996 2 2 0 0 0-0.0879-0.48633 1 1 0 0 1-0.85938 0.58594 1 1 0 0 1-1.0488-0.94727 1 1 0 0 1 0.58203-0.96094 2 2 0 0 0-0.68554-0.0879z"
       id="path6" />
  </g>
  <path
     style="fill:#808080;opacity:0"
     id="path1530"
     sodipodi:type="arc"
     sodipodi:cx="12.213332"
     sodipodi:cy="4.406909"
     sodipodi:rx="0.96169698"
     sodipodi:ry="9.0003653"
     sodipodi:start="0"
     sodipodi:end="6.2822777"
     sodipodi:arc-type="slice"
     d="m 13.175029,4.406909 a 0.96169698,9.0003653 0 0 1 -0.961479,9.000365 0.96169698,9.0003653 0 0 1 -0.961915,-8.9962808 0.96169698,9.0003653 0 0 1 0.961043,-9.0044474 0.96169698,9.0003653 0 0 1 0.962351,8.9921947 l -0.961697,0.00817 z"
     transform="matrix(0.9110827,0.41222363,-0.74280352,0.66950946,0,0)" />
  <rect
     style="fill:#808080;stroke-width:1.46753"
     id="rect1658"
     width="1.2078266"
     height="19.180799"
     x="10.643158"
     y="-9.9555368"
     transform="matrix(0.6845239,0.72899041,-0.79398542,0.60793681,0,0)"
     ry="0.89220732"
     rx="0.60391331" />
</svg>
