<?xml version="1.0" encoding="UTF-8" standalone="no"?>
<!-- Generator: Adobe Illustrator 16.0.0, SVG Export Plug-In . SVG Version: 6.00 Build 0)  -->

<svg
   version="1.1"
   id="Capa_1"
   x="0px"
   y="0px"
   width="46.127px"
   height="46.127px"
   viewBox="0 0 46.127 46.127"
   style="enable-background:new 0 0 46.127 46.127;"
   xml:space="preserve"
   sodipodi:docname="clock-webradioreceiver-symbolic.svg"
   inkscape:version="1.2.2 (b0a8486541, 2022-12-01)"
   xmlns:inkscape="http://www.inkscape.org/namespaces/inkscape"
   xmlns:sodipodi="http://sodipodi.sourceforge.net/DTD/sodipodi-0.dtd"
   xmlns="http://www.w3.org/2000/svg"
   xmlns:svg="http://www.w3.org/2000/svg"
   xmlns:rdf="http://www.w3.org/1999/02/22-rdf-syntax-ns#"
   xmlns:cc="http://creativecommons.org/ns#"
   xmlns:dc="http://purl.org/dc/elements/1.1/"><sodipodi:namedview
   id="namedview13"
   pagecolor="#ffffff"
   bordercolor="#000000"
   borderopacity="0.25"
   inkscape:showpageshadow="2"
   inkscape:pageopacity="0.0"
   inkscape:pagecheckerboard="0"
   inkscape:deskcolor="#d1d1d1"
   showgrid="false"
   inkscape:zoom="69.113536"
   inkscape:cx="16.856322"
   inkscape:cy="27.295666"
   inkscape:window-width="1860"
   inkscape:window-height="968"
   inkscape:window-x="0"
   inkscape:window-y="40"
   inkscape:window-maximized="1"
   inkscape:current-layer="g4" /><metadata
   id="metadata45"><rdf:RDF><cc:Work
       rdf:about=""><dc:format>image/svg+xml</dc:format><dc:type
         rdf:resource="http://purl.org/dc/dcmitype/StillImage" /></cc:Work></rdf:RDF></metadata><defs
   id="defs43" />
<g
   id="g8">
   <g
   id="g6"
   style="fill:#bebebe;fill-opacity:1">
      <path
   style="fill:#bebebe;fill-opacity:1"
   d="M38.314,13.816H20.5L38.549,7.42c1.043-0.368,1.588-1.514,1.219-2.557c-0.369-1.042-1.517-1.594-2.557-1.22L8.507,13.816    H7.813C3.498,13.816,0,17.313,0,21.629v13.159c0,4.314,3.498,7.812,7.813,7.812h30.501c4.314,0,7.812-3.498,7.812-7.812V21.629    C46.128,17.313,42.63,13.816,38.314,13.816z M12.797,35.964c-4.297,0-7.781-3.483-7.781-7.781c0-4.297,3.484-7.779,7.781-7.779    c4.297,0,7.781,3.482,7.781,7.779C20.579,32.48,17.095,35.964,12.797,35.964z M41.105,31.89c0,1.369-1.109,2.479-2.479,2.479    H25.543c-1.369,0-2.479-1.11-2.479-2.479v-0.062c0-1.369,1.11-2.479,2.479-2.479h13.085c1.369,0,2.479,1.109,2.479,2.479v0.062    H41.105z M41.105,24.124c0,1.369-1.109,2.479-2.479,2.479H25.543c-1.369,0-2.479-1.108-2.479-2.479v-0.063    c0-1.368,1.11-2.479,2.479-2.479h13.085c1.369,0,2.479,1.11,2.479,2.479v0.063H41.105z"
   id="path2" />
      
   </g>
</g>
<g
   id="layer1" /><g
   id="layer2"
   transform="translate(5.9916442,21.469446)"><g
     transform="matrix(0.79849273,0,0,0.79849273,-504.1821,-175.34959)"
     id="g4"
     style="fill:#bebebe;fill-opacity:1"><path
       d="m 640,220 c -0.23347,0.002 -0.46677,0.0132 -0.69922,0.0352 -0.12011,0.0123 -0.23993,0.0272 -0.35937,0.0449 -0.1392,0.0172 -0.27792,0.038 -0.41602,0.0625 -0.12433,0.0244 -0.24806,0.0517 -0.37109,0.082 -0.14092,0.032 -0.28094,0.0678 -0.41992,0.10742 -0.10884,0.0335 -0.21692,0.0693 -0.32422,0.10742 -0.14605,0.0492 -0.29064,0.10261 -0.4336,0.16016 -0.10714,0.0452 -0.21329,0.0927 -0.31836,0.14258 -0.13256,0.0596 -0.26347,0.12275 -0.39258,0.18945 -2.6217,1.3838 -4.2632,4.1039 -4.2656,7.0684 3.8e-4,2.9107 1.5816,5.5915 4.1289,7 h 0.0176 c 1.127,0.62142 2.3872,0.96178 3.6738,0.99219 0.0599,0.003 0.11977,0.006 0.17969,0.008 0.23347,-0.002 0.46677,-0.0132 0.69922,-0.0352 0.12011,-0.0123 0.23993,-0.0272 0.35937,-0.0449 0.1392,-0.0172 0.27792,-0.038 0.41602,-0.0625 0.11776,-0.0234 0.23497,-0.0494 0.35156,-0.0781 0.15479,-0.0351 0.30851,-0.0749 0.46094,-0.11914 0.0864,-0.0272 0.17237,-0.0558 0.25781,-0.0859 0.16265,-0.0534 0.32354,-0.11204 0.48242,-0.17578 0.0978,-0.041 0.19488,-0.084 0.29102,-0.12891 0.15066,-0.0683 0.29917,-0.14125 0.44531,-0.21875 1.363,-0.72538 2.487,-1.8297 3.2363,-3.1797 v -0.0176 c 0.62142,-1.127 0.96178,-2.3872 0.99219,-3.6738 0.003,-0.0599 0.006,-0.11977 0.008,-0.17969 -0.002,-0.23347 -0.0132,-0.46677 -0.0352,-0.69922 -0.0123,-0.12011 -0.0272,-0.23993 -0.0449,-0.35937 -0.0172,-0.1392 -0.038,-0.27792 -0.0625,-0.41602 -0.0244,-0.12433 -0.0518,-0.24806 -0.082,-0.37109 -0.032,-0.14092 -0.0678,-0.28096 -0.10742,-0.41992 -0.0335,-0.10884 -0.0693,-0.21692 -0.10742,-0.32422 -0.0492,-0.14605 -0.10261,-0.29064 -0.16016,-0.4336 -0.0452,-0.10714 -0.0928,-0.21329 -0.14258,-0.31836 -0.0596,-0.13256 -0.12275,-0.26347 -0.18945,-0.39258 -0.71899,-1.3615 -1.8156,-2.4866 -3.1582,-3.2402 -0.006,-1.1e-4 -0.01,-0.002 -0.0156,-0.002 -0.69887,-0.39233 -1.4527,-0.67742 -2.2363,-0.84571 -0.2287,-0.0478 -0.45939,-0.0856 -0.6914,-0.11328 -0.0325,-0.005 -0.0651,-0.0106 -0.0977,-0.0156 h -0.0117 c -0.16825,-0.0158 -0.33695,-0.0264 -0.50586,-0.0312 -0.11776,-0.009 -0.2345,-0.0145 -0.3518,-0.0178 z m -0.0975,1.17535 c 3.86599,0 6.73476,3.04914 6.73476,6.91513 0,3.86599 -2.8255,6.58552 -6.69149,6.58552 -3.86599,0 -6.65718,-2.68272 -6.65718,-6.54871 0,-3.86599 2.74792,-6.95194 6.61391,-6.95194 z m 3.67564,3.81295 c -0.10897,-0.0129 -0.23096,0.01 -0.33398,0.0859 l -3.44875,1.97016 c -0.12197,-0.0505 -0.16339,-0.0445 -0.29542,-0.0443 -0.13711,3e-4 -0.18066,-0.0155 -0.30626,0.0395 l -2.35045,-1.22987 c -0.41156,-0.19162 -1.4329,-0.44242 -1.33656,-0.16157 l -0.1183,0.15034 c -0.23365,0.0699 0.47908,0.69708 0.78933,1.10205 l 2.24645,1.12057 c -0.005,0.0389 0.1006,0.11622 0.0756,-0.021 9.8e-4,0.35628 0.19145,0.68514 0.5,0.86328 l 0.004,-0.0151 c 0.0717,-0.26757 -0.0103,0.17661 0.24819,0.20585 l 0.37333,0.0422 c 0.25836,0.0292 0.563,-0.40221 0.36926,-0.20423 l -0.0571,0.0584 c 0.34801,-0.0761 0.5622,-0.59361 0.56248,-0.95059 0,-0.0451 0.0706,0.12907 0.0646,0.0845 l 3.25739,-2.20167 c 0.20601,-0.15208 0.87883,-1.13483 0.79444,-0.97879 l -0.11636,-0.12966 c 0.14045,-0.11618 -0.66386,0.0704 -0.84902,0.13444 z"
       color="#000000"
       color-rendering="auto"
       dominant-baseline="auto"
       fill="#808080"
       image-rendering="auto"
       shape-rendering="auto"
       solid-color="#000000"
       style="font-variant-ligatures:normal;font-variant-position:normal;font-variant-caps:normal;font-variant-numeric:normal;font-variant-alternates:normal;font-feature-settings:normal;text-indent:0;text-decoration-line:none;text-decoration-style:solid;text-decoration-color:#000000;text-transform:none;text-orientation:mixed;white-space:normal;shape-padding:0;isolation:auto;mix-blend-mode:normal;fill:#bebebe;fill-opacity:1"
       id="path2-3"
       sodipodi:nodetypes="ccccccccccccccccccccccccccccccccccccccccccccccssssscccccccccccccccccccccccc" /></g></g></svg>
