<?xml version="1.0" encoding="UTF-8" standalone="no"?>
<!-- Generator: Adobe Illustrator 16.0.0, SVG Export Plug-In . SVG Version: 6.00 Build 0)  -->

<svg
   xmlns:dc="http://purl.org/dc/elements/1.1/"
   xmlns:cc="http://creativecommons.org/ns#"
   xmlns:rdf="http://www.w3.org/1999/02/22-rdf-syntax-ns#"
   xmlns:svg="http://www.w3.org/2000/svg"
   xmlns="http://www.w3.org/2000/svg"
   xmlns:sodipodi="http://sodipodi.sourceforge.net/DTD/sodipodi-0.dtd"
   xmlns:inkscape="http://www.inkscape.org/namespaces/inkscape"
   version="1.1"
   id="Capa_1"
   x="0px"
   y="0px"
   width="46.127px"
   height="46.127px"
   viewBox="0 0 46.127 46.127"
   style="enable-background:new 0 0 46.127 46.127;"
   xml:space="preserve"
   sodipodi:docname="radioapplet-symbolic.svg"
   inkscape:version="0.92.3 (2405546, 2018-03-11)"><metadata
   id="metadata45"><rdf:RDF><cc:Work
       rdf:about=""><dc:format>image/svg+xml</dc:format><dc:type
         rdf:resource="http://purl.org/dc/dcmitype/StillImage" /></cc:Work></rdf:RDF></metadata><defs
   id="defs43" /><sodipodi:namedview
   pagecolor="#ffffff"
   bordercolor="#666666"
   borderopacity="0"
   objecttolerance="10"
   gridtolerance="10"
   guidetolerance="10"
   inkscape:pageopacity="0"
   inkscape:pageshadow="2"
   inkscape:window-width="1804"
   inkscape:window-height="666"
   id="namedview41"
   showgrid="false"
   inkscape:zoom="5.1163094"
   inkscape:cx="-14.659004"
   inkscape:cy="23.063499"
   inkscape:window-x="0"
   inkscape:window-y="36"
   inkscape:window-maximized="0"
   inkscape:current-layer="Capa_1" />
<g
   id="g8">
   <g
   id="g6">
      <path
   style="fill: #bebebe;"
   d="M38.314,13.816H20.5L38.549,7.42c1.043-0.368,1.588-1.514,1.219-2.557c-0.369-1.042-1.517-1.594-2.557-1.22L8.507,13.816    H7.813C3.498,13.816,0,17.313,0,21.629v13.159c0,4.314,3.498,7.812,7.813,7.812h30.501c4.314,0,7.812-3.498,7.812-7.812V21.629    C46.128,17.313,42.63,13.816,38.314,13.816z M12.797,35.964c-4.297,0-7.781-3.483-7.781-7.781c0-4.297,3.484-7.779,7.781-7.779    c4.297,0,7.781,3.482,7.781,7.779C20.579,32.48,17.095,35.964,12.797,35.964z M41.105,31.89c0,1.369-1.109,2.479-2.479,2.479    H25.543c-1.369,0-2.479-1.11-2.479-2.479v-0.062c0-1.369,1.11-2.479,2.479-2.479h13.085c1.369,0,2.479,1.109,2.479,2.479v0.062    H41.105z M41.105,24.124c0,1.369-1.109,2.479-2.479,2.479H25.543c-1.369,0-2.479-1.108-2.479-2.479v-0.063    c0-1.368,1.11-2.479,2.479-2.479h13.085c1.369,0,2.479,1.11,2.479,2.479v0.063H41.105z"
   id="path2" />
      <path
   style="fill: #bebebe;"
   d="M12.797,23.408c-2.633,0-4.776,2.143-4.776,4.774c0,2.635,2.143,4.776,4.776,4.776c2.634,0,4.776-2.143,4.776-4.776    C17.574,25.55,15.431,23.408,12.797,23.408z"
   id="path4" />
   </g>
</g>
</svg>
