<?xml version="1.0" encoding="UTF-8" standalone="no"?>
<svg
   xmlns:osb="http://www.openswatchbook.org/uri/2009/osb"
   xmlns:dc="http://purl.org/dc/elements/1.1/"
   xmlns:cc="http://creativecommons.org/ns#"
   xmlns:rdf="http://www.w3.org/1999/02/22-rdf-syntax-ns#"
   xmlns:svg="http://www.w3.org/2000/svg"
   xmlns="http://www.w3.org/2000/svg"
   xmlns:xlink="http://www.w3.org/1999/xlink"
   xmlns:sodipodi="http://sodipodi.sourceforge.net/DTD/sodipodi-0.dtd"
   xmlns:inkscape="http://www.inkscape.org/namespaces/inkscape"
   style="display:inline"
   version="1.0"
   id="svg2"
   height="16"
   width="16"
   sodipodi:docname="music-folder-full-symbolic.svg"
   inkscape:version="0.92.5 (2060ec1f9f, 2020-04-08)">
  <sodipodi:namedview
     pagecolor="#ffffff"
     bordercolor="#666666"
     borderopacity="1"
     objecttolerance="10"
     gridtolerance="10"
     guidetolerance="10"
     inkscape:pageopacity="0"
     inkscape:pageshadow="2"
     inkscape:window-width="1876"
     inkscape:window-height="965"
     id="namedview27"
     showgrid="false"
     inkscape:zoom="29.5"
     inkscape:cx="9.1181011"
     inkscape:cy="8.5633698"
     inkscape:window-x="0"
     inkscape:window-y="40"
     inkscape:window-maximized="1"
     inkscape:current-layer="g846" />
  <defs
     id="defs4">
    <linearGradient
       id="linearGradient5606"
       osb:paint="solid">
      <stop
         id="stop5608"
         offset="0"
         style="stop-color:#000000;stop-opacity:1;" />
    </linearGradient>
    <filter
       color-interpolation-filters="sRGB"
       id="filter7554">
      <feBlend
         id="feBlend7556"
         in2="BackgroundImage"
         mode="darken" />
    </filter>
    <clipPath
       id="clipPath848"
       clipPathUnits="userSpaceOnUse">
      <use
         height="100%"
         width="100%"
         id="use850"
         xlink:href="#g844"
         y="0"
         x="0" />
    </clipPath>
  </defs>
  <metadata
     id="metadata7">
    <rdf:RDF>
      <cc:Work
         rdf:about="">
        <dc:format>image/svg+xml</dc:format>
        <dc:type
           rdf:resource="http://purl.org/dc/dcmitype/StillImage" />
        <dc:title />
      </cc:Work>
    </rdf:RDF>
  </metadata>
  <g
     id="layer1"
     style="display:inline">
    <path
       id="path3040"
       d="M 1.5,4 C 0.669,4 0,4.6192276 0,5.3886719 V 12.611328 C 0,13.380773 0.669,14 1.5,14 H 7.9785156 L 11.349609,7.75 c 0.306149,-0.5257721 0.696672,-0.7680238 1.09961,-0.7460938 0.402937,0.021952 0.821223,0.2975075 1.126953,0.7929688 L 16,12.222656 V 5.3886719 C 16,4.6192276 15.331,4 14.5,4 Z"
       style="display:inline;fill:#bebebe;fill-opacity:1;stroke:none"
       inkscape:connector-curvature="0" />
    <g
       transform="translate(-840.0002,470.00693)"
       style="display:inline"
       id="layer9" />
    <g
       transform="translate(-840.0002,470.00693)"
       style="display:inline;filter:url(#filter7554)"
       id="layer10" />
    <g
       transform="translate(-565,-181.99307)"
       style="display:inline"
       id="layer1-1" />
    <g
       transform="translate(-840.0002,470.00693)"
       style="display:inline"
       id="layer14" />
    <g
       transform="translate(-840.0002,470.00693)"
       style="display:inline"
       id="layer15" />
    <g
       transform="translate(-840.0002,470.00693)"
       style="display:inline"
       id="g71291" />
    <g
       transform="translate(-599,3.006937)"
       style="display:inline"
       id="layer2" />
    <g
       transform="translate(-599,3.006937)"
       style="display:inline"
       id="g6058" />
    <g
       transform="translate(-840.0002,470.00693)"
       style="display:inline"
       id="layer12" />
    <path
       class="warning"
       id="path18112"
       d="M 12.470703,9.4394531 C 12.239449,9.4268671 12.015549,9.5654358 11.839844,9.8671875 L 9.0878906,14.96875 C 8.8531299,15.392704 9.1102113,16 9.5703125,16 h 5.7890625 c 0.432019,0 0.838271,-0.510055 0.537109,-1.03125 L 13.117188,9.8945312 C 12.941724,9.6101754 12.701957,9.452052 12.470703,9.4394531 Z M 12,11 h 1 v 2 h -1 z m 0,3 h 1 v 1 h -1 z"
       style="color:#bebebe;display:inline;overflow:visible;visibility:visible;fill:#f57900;fill-opacity:1;fill-rule:nonzero;stroke:none;stroke-width:1.78124988;marker:none;enable-background:new"
       inkscape:connector-curvature="0" />
    <path
       id="path3028"
       d="M 3,1 C 2.446,1 2,1.446 2,2 1.446,2 1,2.446 1,3 H 2 15 C 15,2.446 14.554,2 14,2 H 7 C 7,1.446 6.554,1 6,1 Z"
       style="display:inline;fill:#bebebe;fill-opacity:1;stroke:none"
       inkscape:connector-curvature="0" />
    <g
       clip-path="url(#clipPath848)"
       id="g846">
      <g
         id="g844">
        <path
           style="display:inline;opacity:1;fill:#000000;fill-opacity:0.23529412;stroke:#000000;stroke-width:0.30000001;stroke-linejoin:miter;stroke-miterlimit:4;stroke-dasharray:none;stroke-dashoffset:0;stroke-opacity:1"
           d="m 2.6538465,6.0000005 v 0.52479 0.552133 0.5384615 3.447414 A 1.3461538,1.076923 0 0 0 1.8461543,10.846154 1.3461538,1.076923 0 0 0 0.5000001,11.923077 1.3461538,1.076923 0 0 0 1.8461543,13 1.3461538,1.076923 0 0 0 3.1923081,11.923077 V 7.615385 h 3.7692303 v 2.908952 A 1.3461538,1.076923 0 0 0 6.1538461,10.307693 1.3461538,1.076923 0 0 0 4.8076926,11.384615 1.3461538,1.076923 0 0 0 6.1538461,12.461538 1.3461538,1.076923 0 0 0 7.4999999,11.384615 V 7.615385 7.0769235 6.0000005 H 7.0151746 Z"
           id="rect4067-4-5"
           inkscape:connector-curvature="0"
           clip-path="none" />
      </g>
    </g>
  </g>
</svg>
