<?xml version="1.0" encoding="UTF-8" standalone="no"?>
<!-- Generator: Adobe Illustrator 16.0.0, SVG Export Plug-In . SVG Version: 6.00 Build 0)  -->

<svg
   version="1.1"
   id="Capa_1"
   x="0px"
   y="0px"
   width="46.127px"
   height="46.127px"
   viewBox="0 0 46.127 46.127"
   style="enable-background:new 0 0 46.127 46.127;"
   xml:space="preserve"
   sodipodi:docname="webradioreceiver-muted-symbolic.svg"
   inkscape:version="1.1.2 (0a00cf5339, 2022-02-04)"
   xmlns:inkscape="http://www.inkscape.org/namespaces/inkscape"
   xmlns:sodipodi="http://sodipodi.sourceforge.net/DTD/sodipodi-0.dtd"
   xmlns="http://www.w3.org/2000/svg"
   xmlns:svg="http://www.w3.org/2000/svg"
   xmlns:rdf="http://www.w3.org/1999/02/22-rdf-syntax-ns#"
   xmlns:cc="http://creativecommons.org/ns#"
   xmlns:dc="http://purl.org/dc/elements/1.1/"><metadata
   id="metadata45"><rdf:RDF><cc:Work
       rdf:about=""><dc:format>image/svg+xml</dc:format><dc:type
         rdf:resource="http://purl.org/dc/dcmitype/StillImage" /></cc:Work></rdf:RDF></metadata><defs
   id="defs43" /><sodipodi:namedview
   pagecolor="#ffffff"
   bordercolor="#666666"
   borderopacity="0"
   objecttolerance="10"
   gridtolerance="10"
   guidetolerance="10"
   inkscape:pageopacity="0"
   inkscape:pageshadow="2"
   inkscape:window-width="1804"
   inkscape:window-height="666"
   id="namedview41"
   showgrid="false"
   inkscape:zoom="5.1163094"
   inkscape:cx="-14.659004"
   inkscape:cy="23.0635"
   inkscape:window-x="0"
   inkscape:window-y="40"
   inkscape:window-maximized="0"
   inkscape:current-layer="layer1"
   inkscape:pagecheckerboard="0" />
<g
   id="g8">
   <g
   id="g6">
      <path
   style="fill: #bebebe;"
   d="M38.314,13.816H20.5L38.549,7.42c1.043-0.368,1.588-1.514,1.219-2.557c-0.369-1.042-1.517-1.594-2.557-1.22L8.507,13.816    H7.813C3.498,13.816,0,17.313,0,21.629v13.159c0,4.314,3.498,7.812,7.813,7.812h30.501c4.314,0,7.812-3.498,7.812-7.812V21.629    C46.128,17.313,42.63,13.816,38.314,13.816z M12.797,35.964c-4.297,0-7.781-3.483-7.781-7.781c0-4.297,3.484-7.779,7.781-7.779    c4.297,0,7.781,3.482,7.781,7.779C20.579,32.48,17.095,35.964,12.797,35.964z M41.105,31.89c0,1.369-1.109,2.479-2.479,2.479    H25.543c-1.369,0-2.479-1.11-2.479-2.479v-0.062c0-1.369,1.11-2.479,2.479-2.479h13.085c1.369,0,2.479,1.109,2.479,2.479v0.062    H41.105z M41.105,24.124c0,1.369-1.109,2.479-2.479,2.479H25.543c-1.369,0-2.479-1.108-2.479-2.479v-0.063    c0-1.368,1.11-2.479,2.479-2.479h13.085c1.369,0,2.479,1.11,2.479,2.479v0.063H41.105z"
   id="path2" />
      <path
   style="fill: #bebebe;"
   d="M12.797,23.408c-2.633,0-4.776,2.143-4.776,4.774c0,2.635,2.143,4.776,4.776,4.776c2.634,0,4.776-2.143,4.776-4.776    C17.574,25.55,15.431,23.408,12.797,23.408z"
   id="path4" />
   </g>
</g>
<g
   inkscape:groupmode="layer"
   id="layer1"
   inkscape:label="Layer sound"><g
     id="layer9"
     transform="translate(-100.82242,-198.14574)"><path
       id="path8126"
       style="color:#bebebe;fill:#bebebe"
       d="m 101,202 h 2.4844 l 2.9688,-3 0.54687,0.0156 v 12 l -0.47529,8.3e-4 -3.0403,-3.0164 h -2.4844 z" /><path
       id="path8132"
       d="m 112,198 v 1.4375 c 1.8319,2.0957 2.4091,4.9545 1.7812,7.5625 h 1.9375 c 0.59628,-3.1402 -0.20259,-6.5122 -2.4062,-9 z m -2,2 v 1.8125 c 1.4103,1.8431 1.4103,4.5319 0,6.375 V 210 h 1 v -3 h 1.7188 c 0.63623,-2.4022 0.0964,-5.1222 -1.625,-7 z"
       style="color:#000000;text-indent:0;text-transform:none;opacity:0.35;fill:#bebebe" /><path
       id="path3761-2-3-5-4-8-9-8-0-1-7"
       style="color:#bebebe;fill:#ff0000"
       d="m 112,208 h 1.375 L 114.5,209.0938 115.5938,208 H 117 v 1.4688 l -1.0938,1.0625 1.0938,1.0625 V 213 h -1.4375 L 114.5,211.9375 113.4375,213 H 112 v -1.4062 l 1.0625,-1.0625 L 112,209.4688 Z" /><path
       id="path6297-4-2-2"
       style="color:#000000;text-indent:0;text-transform:none;opacity:0.35;fill:#bebebe"
       d="m 110,205 c 0,-1.2573 -0.31165,-2.2157 -1,-3 h -1 v 3 0.375 2.625 h 1 c 0.67206,-0.8369 1,-1.7427 1,-3 z" /></g></g></svg>
