<?xml version="1.0" encoding="UTF-8" standalone="no"?>
<svg
   xmlns:dc="http://purl.org/dc/elements/1.1/"
   xmlns:cc="http://creativecommons.org/ns#"
   xmlns:rdf="http://www.w3.org/1999/02/22-rdf-syntax-ns#"
   xmlns:svg="http://www.w3.org/2000/svg"
   xmlns="http://www.w3.org/2000/svg"
   viewBox="0 0 71.412065 50"
   version="1.1"
   y="0"
   x="0"
   height="50"
   width="71.412064"
   id="Layer_1"
   xml:space="preserve"><metadata
   id="metadata10"><rdf:RDF><cc:Work
       rdf:about=""><dc:format>image/svg+xml</dc:format><dc:type
         rdf:resource="http://purl.org/dc/dcmitype/StillImage" /><dc:title></dc:title></cc:Work></rdf:RDF></metadata><defs
   id="defs8" />
  <style
   type="text/css"
   id="style3">
    .st0{fill:red}.st1{fill:#bebebe}.st2{fill:#282828}
  </style>
  <g
   transform="scale(.58824)"
   id="g5">
    <path
   transform="scale(1.7)"
   d="M35.705078 0S13.35386.0001149 7.765625 1.4707031c-3 .8235294-5.4713925 3.2946921-6.2949219 6.3535157C.0001149 13.412454 0 25 0 25s.0001149 11.64637 1.4707031 17.175781c.8235294 3.058824 3.2360984 5.471393 6.2949219 6.294922C13.412684 50.000115 35.705078 50 35.705078 50s22.353171-.000115 27.941406-1.470703c3.058824-.82353 5.471393-3.236098 6.294922-6.294922 1.470588-5.588235 1.470703-17.175781 1.470703-17.175781s.058709-11.64614-1.470703-17.2343752c-.823529-3.0588236-3.236098-5.4713925-6.294922-6.2949219C58.058249-.00011488 35.705078 0 35.705078 0zm-7.117187 14.294922L47.175781 25l-18.58789 10.705078V14.294922z"
   fill-opacity="1"
   fill="#bebebe"
   id="path7" />
  </g>
</svg>