<?xml version="1.0" encoding="UTF-8" standalone="no"?>
<!-- Created with Inkscape (http://www.inkscape.org/) -->

<svg
   xmlns:dc="http://purl.org/dc/elements/1.1/"
   xmlns:cc="http://creativecommons.org/ns#"
   xmlns:rdf="http://www.w3.org/1999/02/22-rdf-syntax-ns#"
   xmlns:svg="http://www.w3.org/2000/svg"
   xmlns="http://www.w3.org/2000/svg"
   xmlns:xlink="http://www.w3.org/1999/xlink"
   xmlns:sodipodi="http://sodipodi.sourceforge.net/DTD/sodipodi-0.dtd"
   xmlns:inkscape="http://www.inkscape.org/namespaces/inkscape"
   width="48px"
   height="48px"
   viewBox="0 0 48 48"
   version="1.1"
   id="SVGRoot"
   inkscape:version="0.92.5 (2060ec1f9f, 2020-04-08)"
   sodipodi:docname="icon2.svg"
   inkscape:export-filename="/home/claude/.local/share/cinnamon/applets/Sensors@claudiux/icons/icon2.png"
   inkscape:export-xdpi="96"
   inkscape:export-ydpi="96">
  <defs
     id="defs815">
    <linearGradient
       inkscape:collect="always"
       id="linearGradient843">
      <stop
         style="stop-color:#ff0000;stop-opacity:1;"
         offset="0"
         id="stop839" />
      <stop
         style="stop-color:#ff0000;stop-opacity:0;"
         offset="1"
         id="stop841" />
    </linearGradient>
    <linearGradient
       inkscape:collect="always"
       xlink:href="#linearGradient843"
       id="linearGradient845"
       x1="52.3125"
       y1="25.875"
       x2="-6.375"
       y2="31.6875"
       gradientUnits="userSpaceOnUse" />
  </defs>
  <sodipodi:namedview
     id="base"
     pagecolor="#ffffff"
     bordercolor="#666666"
     borderopacity="1.0"
     inkscape:pageopacity="0.0"
     inkscape:pageshadow="2"
     inkscape:zoom="5.3333333"
     inkscape:cx="12.28125"
     inkscape:cy="24"
     inkscape:document-units="px"
     inkscape:current-layer="layer2"
     showgrid="false"
     inkscape:window-width="1882"
     inkscape:window-height="980"
     inkscape:window-x="0"
     inkscape:window-y="36"
     inkscape:window-maximized="1"
     inkscape:grid-bbox="true" />
  <metadata
     id="metadata818">
    <rdf:RDF>
      <cc:Work
         rdf:about="">
        <dc:format>image/svg+xml</dc:format>
        <dc:type
           rdf:resource="http://purl.org/dc/dcmitype/StillImage" />
        <dc:title />
      </cc:Work>
    </rdf:RDF>
  </metadata>
  <g
     inkscape:label="Cadrant_rouge"
     inkscape:groupmode="layer"
     id="layer1">
    <path
       style="opacity:1;fill:url(#linearGradient845);fill-opacity:1;stroke:#bebebe;stroke-width:0.1;stroke-miterlimit:4;stroke-dasharray:none;stroke-opacity:1"
       d="M 23.570312,3.1894531 A 22.96875,22.96875 0 0 0 5.7070312,12.142578 22.96875,22.96875 0 0 0 3.4472656,36.566406 19.971109,19.972252 0 0 1 5.5390625,15.556641 19.971109,19.972252 0 0 1 27.25,8.65625 19.971109,19.972252 0 0 1 41.300781,26.589844 l 5.535157,-1.759766 A 22.96875,22.96875 0 0 0 30.677734,4.2089844 22.96875,22.96875 0 0 0 23.570312,3.1894531 Z"
       id="path1371"
       inkscape:connector-curvature="0" />
    <path
       inkscape:connector-curvature="0"
       id="path888"
       d="M 23.570312,3.1894531 A 22.96875,22.96875 0 0 0 5.7070312,12.142578 22.96875,22.96875 0 0 0 3.4472656,36.566406 19.971109,19.972252 0 0 1 5.5390625,15.556641 19.971109,19.972252 0 0 1 27.25,8.65625 19.971109,19.972252 0 0 1 41.300781,26.589844 l 5.535157,-1.759766 A 22.96875,22.96875 0 0 0 30.677734,4.2089844 22.96875,22.96875 0 0 0 23.570312,3.1894531 Z"
       style="opacity:1;fill:url(#linearGradient845);fill-opacity:1;stroke:#bebebe;stroke-width:0.1;stroke-miterlimit:4;stroke-dasharray:none;stroke-opacity:1" />
  </g>
  <g
     inkscape:groupmode="layer"
     id="layer3"
     inkscape:label="Cadrant_vert" />
  <g
     inkscape:groupmode="layer"
     id="layer2"
     inkscape:label="Aiguille">
    <path
       style="opacity:0.75;fill:#800000;fill-opacity:1;stroke:#fefefe;stroke-width:0.75590551;stroke-miterlimit:4;stroke-dasharray:none;stroke-opacity:1"
       d="M 37.394531,4.5527344 22.072266,27.476562 22.257812,31.267578 25.787109,29.224609 38.1875,4.7207031 Z"
       id="path1378"
       inkscape:connector-curvature="0" />
  </g>
</svg>
