<?xml version="1.0" encoding="UTF-8" standalone="no"?>
<!-- Created with Inkscape (http://www.inkscape.org/) -->

<svg
   xmlns:dc="http://purl.org/dc/elements/1.1/"
   xmlns:cc="http://creativecommons.org/ns#"
   xmlns:rdf="http://www.w3.org/1999/02/22-rdf-syntax-ns#"
   xmlns:svg="http://www.w3.org/2000/svg"
   xmlns="http://www.w3.org/2000/svg"
   xmlns:sodipodi="http://sodipodi.sourceforge.net/DTD/sodipodi-0.dtd"
   xmlns:inkscape="http://www.inkscape.org/namespaces/inkscape"
   id="svg7384"
   height="16"
   width="16"
   version="1.1"
   inkscape:version="0.48.4 r9939"
   sodipodi:docname="lock-symbolic.svg">
  <defs
     id="defs10" />
  <sodipodi:namedview
     pagecolor="#ffffff"
     bordercolor="#666666"
     borderopacity="1"
     objecttolerance="10"
     gridtolerance="10"
     guidetolerance="10"
     inkscape:pageopacity="0"
     inkscape:pageshadow="2"
     inkscape:window-width="1022"
     inkscape:window-height="622"
     id="namedview8"
     showgrid="false"
     inkscape:zoom="14.75"
     inkscape:cx="-10.279642"
     inkscape:cy="5.1269958"
     inkscape:window-x="0"
     inkscape:window-y="76"
     inkscape:window-maximized="0"
     inkscape:current-layer="g2988" />
  <metadata
     id="metadata90">
    <rdf:RDF>
      <cc:Work
         rdf:about="">
        <dc:format>image/svg+xml</dc:format>
        <dc:type
           rdf:resource="http://purl.org/dc/dcmitype/StillImage" />
        <dc:title>Gnome Symbolic Icon Theme</dc:title>
      </cc:Work>
    </rdf:RDF>
  </metadata>
  <title
     id="title9167">Gnome Symbolic Icon Theme</title>
  <g
     id="g2984">
    <g
       id="g2988"
       transform="matrix(2,0,0,2,-4,-12.5)">
      <rect
         style="fill:#bebebe;fill-opacity:1;stroke:none"
         id="rect2982"
         width="6.2222228"
         height="4.666667"
         x="2.8888886"
         y="9.083333"
         rx="0.77777785"
         ry="0.38888893" />
      <path
         style="font-size:medium;font-style:normal;font-variant:normal;font-weight:normal;font-stretch:normal;text-indent:0;text-align:start;text-decoration:none;line-height:normal;letter-spacing:normal;word-spacing:normal;text-transform:none;direction:ltr;block-progression:tb;writing-mode:lr-tb;text-anchor:start;baseline-shift:baseline;color:#000000;fill:#bebebe;fill-opacity:1;stroke:none;stroke-width:0.8888889;marker:none;visibility:visible;display:inline;overflow:visible;enable-background:accumulate;font-family:Sans;-inkscape-font-specification:Sans"
         d="m 5.2343749,6.7500002 c -0.2676239,0 -0.526624,0.058234 -0.7382813,0.1640625 -0.2116574,0.1058287 -0.4375,0.2851226 -0.4375,0.6015626 l 0,3.1171877 c 0,0.316441 0.2258426,0.523078 0.4375,0.628907 0.2116573,0.105828 0.4706574,0.164062 0.7382813,0.164062 l 1.5312501,0 c 0.2676239,0 0.5266239,-0.05823 0.7382813,-0.164062 0.2116573,-0.105829 0.4375,-0.312466 0.4375,-0.628907 l 0,-3.1171877 c 0,-0.31644 -0.2258427,-0.4957339 -0.4375,-0.6015626 C 7.2922489,6.8082341 7.0332489,6.7500002 6.765625,6.7500002 l -1.5312501,0 z M 4.8242186,7.5156253 c 0,0.1009955 -0.042165,0.1167859 0.027344,0.082031 0.069509,-0.034755 0.2195475,-0.082031 0.3828125,-0.082031 l 1.5312501,0 c 0.163265,0 0.3133032,0.047276 0.3828125,0.082031 0.069509,0.034755 0.027344,0.018965 0.027344,-0.082031 l 0,3.1171877 c 0,-0.100995 0.042165,-0.08944 -0.027344,-0.05469 -0.069509,0.03476 -0.2195475,0.05469 -0.3828125,0.05469 l -1.5312501,0 c -0.163265,0 -0.3133032,-0.01993 -0.3828125,-0.05469 -0.069509,-0.03476 -0.027344,-0.04631 -0.027344,0.05469 l 0,-3.1171877 z"
         id="rect3754"
         inkscape:connector-curvature="0" />
    </g>
  </g>
</svg>
