<?xml version="1.0" encoding="UTF-8" standalone="no"?>
<!-- Created with Inkscape (http://www.inkscape.org/) -->

<svg
   xmlns:dc="http://purl.org/dc/elements/1.1/"
   xmlns:cc="http://creativecommons.org/ns#"
   xmlns:rdf="http://www.w3.org/1999/02/22-rdf-syntax-ns#"
   xmlns:svg="http://www.w3.org/2000/svg"
   xmlns="http://www.w3.org/2000/svg"
   xmlns:sodipodi="http://sodipodi.sourceforge.net/DTD/sodipodi-0.dtd"
   xmlns:inkscape="http://www.inkscape.org/namespaces/inkscape"
   id="svg7384"
   height="16.024"
   width="16"
   version="1.1"
   inkscape:version="0.48.4 r9939"
   sodipodi:docname="logOff-symbolic.svg">
  <defs
     id="defs10" />
  <sodipodi:namedview
     pagecolor="#ffffff"
     bordercolor="#666666"
     borderopacity="1"
     objecttolerance="10"
     gridtolerance="10"
     guidetolerance="10"
     inkscape:pageopacity="0"
     inkscape:pageshadow="2"
     inkscape:window-width="1024"
     inkscape:window-height="690"
     id="namedview8"
     showgrid="false"
     inkscape:zoom="14.727908"
     inkscape:cx="-1.1817056"
     inkscape:cy="8.0120001"
     inkscape:window-x="0"
     inkscape:window-y="25"
     inkscape:window-maximized="1"
     inkscape:current-layer="layer12" />
  <metadata
     id="metadata90">
    <rdf:RDF>
      <cc:Work
         rdf:about="">
        <dc:format>image/svg+xml</dc:format>
        <dc:type
           rdf:resource="http://purl.org/dc/dcmitype/StillImage" />
        <dc:title>Gnome Symbolic Icon Theme</dc:title>
      </cc:Work>
    </rdf:RDF>
  </metadata>
  <title
     id="title9167">Gnome Symbolic Icon Theme</title>
  <g
     id="layer12"
     transform="matrix(0,1,-1,0,701.00067,-99.98802)">
    <g
       id="layer12-2"
       transform="matrix(0.99978597,0,0,1,0.03508505,-0.48753259)">
      <path
         inkscape:connector-curvature="0"
         id="path3869-2"
         style="text-indent:0;text-transform:none;block-progression:tb;color:#000000;fill:#bebebe"
         d="m 103.73614,688.93415 c -0.14954,-0.017 -0.23692,0.18611 -0.35057,0.28455 -0.11365,0.0984 -0.22403,0.20042 -0.33097,0.30587 -0.10694,0.10544 -0.21043,0.21434 -0.31031,0.3266 -0.0999,0.11225 -0.19612,0.22786 -0.28858,0.34673 -0.0925,0.11887 -0.18113,0.24099 -0.26582,0.36626 -0.0847,0.12528 -0.16541,0.25371 -0.24199,0.3852 -1.9396,3.3304 -0.81232,7.6493 2.5173,9.5893 3.32962,1.94 7.6475,0.8125 9.587,-2.5179 0.9698,-1.6652 1.17288,-3.57753 0.71731,-5.31605 -0.22778,-0.86927 -0.62023,-1.69508 -1.16384,-2.42482 -0.1359,-0.18244 -0.28125,-0.35887 -0.43583,-0.52848 -0.15459,-0.16961 -0.31841,-0.33239 -0.49125,-0.48752 -0.0864,-0.0776 -0.1751,-0.15322 -0.26601,-0.22685 l -1.465,1.41594 c 0.13708,0.0995 0.26775,0.20489 0.39188,0.31556 0.12414,0.11068 0.24172,0.22665 0.35263,0.34737 0.1109,0.12071 0.21511,0.24617 0.3125,0.37581 0.38953,0.51857 0.66978,1.1041 0.83155,1.72089 0.32354,1.23357 0.17316,2.5922 -0.52464,3.79035 -1.3956,2.3963 -4.433,3.1905 -6.8288,1.7946 -2.3854,-1.3899 -3.1918,-4.4121 -1.821,-6.8036 l 0.003,-0.003 0.003,-0.003 0.003,-0.003 0.003,-0.003 0.003,-0.003 0.003,-0.003 0.003,-0.003 0.003,-0.003 c 0.0547,-0.0939 0.11242,-0.18602 0.17302,-0.27613 0.0606,-0.0901 0.12408,-0.17823 0.1903,-0.26421 0.0662,-0.086 0.13518,-0.16981 0.20674,-0.25133 0.0716,-0.0815 0.14573,-0.16074 0.22235,-0.23749 0.0766,-0.0767 0.1557,-0.15102 0.23711,-0.22267 0.0814,-0.0717 0.16512,-0.14068 0.25102,-0.20691 l -1.23015,-1.57707 z"
         sodipodi:nodetypes="cssssscscssssccsssssccccccccccsssssccc" />
      <path
         inkscape:connector-curvature="0"
         id="path4710"
         style="text-indent:0;text-transform:none;block-progression:tb;color:#000000;fill:#bebebe"
         d="m 107.78,686.48796 a 1.0001,1.0001 0 0 0 -0.78,1 v 5 a 1.0001,1.0001 0 1 0 2,0 v -5 a 1.0001,1.0001 0 0 0 -1.2188,-1 z" />
    </g>
    <g
       id="layer12-25"
       transform="matrix(0,-0.50942134,0.59848934,0,-259.45897,732.36106)">
      <path
         inkscape:connector-curvature="0"
         id="path3807-1-1-9-38-4"
         style="text-indent:0;text-transform:none;block-progression:tb;color:#000000;fill:#bebebe"
         d="m 85.116953,609.82539 v 8.34839 h 0.79339 0.08229 c 0.153128,8.4e-4 0.304469,-0.0324 0.437733,-0.10435 l 6.128255,-3.33936 c 0.272007,-0.1435 0.410374,-0.43699 0.410374,-0.73048 0,-0.29349 -0.138367,-0.58699 -0.410374,-0.73049 l -6.128255,-3.33935 c -0.133071,-0.0751 -0.284527,-0.10853 -0.437733,-0.10853 h -0.08208 z" />
    </g>
  </g>
</svg>
