<?xml version="1.0" encoding="UTF-8" standalone="no"?>
<!-- Created with Inkscape (http://www.inkscape.org/) -->

<svg
   xmlns:dc="http://purl.org/dc/elements/1.1/"
   xmlns:cc="http://creativecommons.org/ns#"
   xmlns:rdf="http://www.w3.org/1999/02/22-rdf-syntax-ns#"
   xmlns:svg="http://www.w3.org/2000/svg"
   xmlns="http://www.w3.org/2000/svg"
   xmlns:sodipodi="http://sodipodi.sourceforge.net/DTD/sodipodi-0.dtd"
   xmlns:inkscape="http://www.inkscape.org/namespaces/inkscape"
   id="svg7384"
   height="16.024"
   width="16"
   version="1.1"
   inkscape:version="0.48.4 r9939"
   sodipodi:docname="shutDown-symbolic.svg">
  <defs
     id="defs10" />
  <sodipodi:namedview
     pagecolor="#ffffff"
     bordercolor="#666666"
     borderopacity="1"
     objecttolerance="10"
     gridtolerance="10"
     guidetolerance="10"
     inkscape:pageopacity="0"
     inkscape:pageshadow="2"
     inkscape:window-width="1022"
     inkscape:window-height="480"
     id="namedview8"
     showgrid="false"
     inkscape:zoom="14.727908"
     inkscape:cx="-0.62308483"
     inkscape:cy="8.0120001"
     inkscape:window-x="0"
     inkscape:window-y="25"
     inkscape:window-maximized="0"
     inkscape:current-layer="layer12" />
  <metadata
     id="metadata90">
    <rdf:RDF>
      <cc:Work
         rdf:about="">
        <dc:format>image/svg+xml</dc:format>
        <dc:type
           rdf:resource="http://purl.org/dc/dcmitype/StillImage" />
        <dc:title>Gnome Symbolic Icon Theme</dc:title>
      </cc:Work>
    </rdf:RDF>
  </metadata>
  <title
     id="title9167">Gnome Symbolic Icon Theme</title>
  <g
     id="layer12"
     transform="translate(-100 -685.98)">
    <path
       id="path3869-2"
       style="text-indent:0;text-transform:none;block-progression:tb;color:#000000;fill:#bebebe"
       d="m 104.84066,688.81615 a 0.99976603,0.99998598 0 0 0 -0.34806,0.1339 c -1.05317,0.60952 -1.93098,1.46569 -2.54345,2.51737 -1.93919,3.32968 -0.81215,7.64766 2.51676,9.58724 3.32891,1.93959 7.64586,0.81233 9.58495,-2.51736 1.93918,-3.32969 0.81214,-7.64766 -2.51676,-9.58725 a 1.0078964,1.0081964 0 1 0 -1.01739,1.74073 c 2.39519,1.3956 3.18912,4.43315 1.79382,6.82894 -1.3953,2.39579 -4.43205,3.18982 -6.82734,1.79422 -2.38489,-1.38961 -3.19112,-4.41116 -1.82061,-6.80215 l 0.0268,-0.0268 c 0.4375,-0.75122 1.06828,-1.38561 1.82061,-1.82101 a 0.99976603,0.99998598 0 0 0 -0.66934,-1.84781 z"
       inkscape:connector-curvature="0" />
    <path
       id="path4710"
       style="text-indent:0;text-transform:none;block-progression:tb;color:#000000;fill:#bebebe"
       d="m 107.78013,686.02815 a 0.999886,0.99461689 0 0 0 -0.77983,0.99452 v 4.97258 a 0.999886,0.99461689 0 1 0 1.99957,0 v -4.97258 a 0.999886,0.99461689 0 0 0 -1.21854,-0.99452 z"
       inkscape:connector-curvature="0" />
  </g>
</svg>
