<?xml version="1.0" encoding="UTF-8" standalone="no"?>
<!-- Created with Inkscape (http://www.inkscape.org/) -->

<svg
   xmlns:dc="http://purl.org/dc/elements/1.1/"
   xmlns:cc="http://creativecommons.org/ns#"
   xmlns:rdf="http://www.w3.org/1999/02/22-rdf-syntax-ns#"
   xmlns:svg="http://www.w3.org/2000/svg"
   xmlns="http://www.w3.org/2000/svg"
   xmlns:sodipodi="http://sodipodi.sourceforge.net/DTD/sodipodi-0.dtd"
   xmlns:inkscape="http://www.inkscape.org/namespaces/inkscape"
   id="svg7384"
   height="16"
   width="16"
   version="1.1"
   inkscape:version="0.48.4 r9939"
   sodipodi:docname="suspend-symbolic.svg">
  <defs
     id="defs10" />
  <sodipodi:namedview
     pagecolor="#ffffff"
     bordercolor="#666666"
     borderopacity="1"
     objecttolerance="10"
     gridtolerance="10"
     guidetolerance="10"
     inkscape:pageopacity="0"
     inkscape:pageshadow="2"
     inkscape:window-width="1022"
     inkscape:window-height="622"
     id="namedview8"
     showgrid="false"
     inkscape:zoom="14.75"
     inkscape:cx="-1.2203394"
     inkscape:cy="5.1256096"
     inkscape:window-x="0"
     inkscape:window-y="25"
     inkscape:window-maximized="0"
     inkscape:current-layer="svg7384" />
  <metadata
     id="metadata90">
    <rdf:RDF>
      <cc:Work
         rdf:about="">
        <dc:format>image/svg+xml</dc:format>
        <dc:type
           rdf:resource="http://purl.org/dc/dcmitype/StillImage" />
        <dc:title>Gnome Symbolic Icon Theme</dc:title>
      </cc:Work>
    </rdf:RDF>
  </metadata>
  <title
     id="title9167">Gnome Symbolic Icon Theme</title>
  <path
     id="path4639-4-4-7"
     style="text-indent:0;text-transform:none;block-progression:tb;color:#000000;fill:#bebebe"
     d="m 8.1162437,3.41885 c 0.3018663,0.055212 0.5418088,0.3478388 0.53683,0.6546751 l 0,3.2733574 1.9640163,0 c 0.345879,-0.00525 0.66402,0.3087612 0.66402,0.6546663 0,0.3459138 -0.318141,0.659575 -0.66402,0.6546749 l -2.6186913,0 C 7.6556262,8.6561888 7.3437675,8.3443213 7.3437325,8.0015488 L 7.3438812,4.0735251 C 7.3368812,3.6857425 7.7401863,3.34612 8.1211525,3.41885 z"
     inkscape:connector-curvature="0"
     sodipodi:nodetypes="ccccscccccc" />
  <path
     id="path3869-9"
     style="text-indent:0;text-transform:none;block-progression:tb;color:#000000;fill:#bebebe"
     d="m 1,8.0000263 c 0,3.8532287 3.14678,6.9999997 7,6.9999997 3.853229,0 7,-3.146771 7,-6.9999997 l -2.153734,0 c 0,2.6891897 -2.156971,4.8461607 -4.846161,4.8461607 -2.6891813,0 -4.8461438,-2.156971 -4.8461438,-4.8461607 0,-2.68919 2.1569625,-4.8461613 4.8461438,-4.8461613 l 0,-2.15389125 c -3.8532288,0 -7,3.14677125 -7,7.00000005 z"
     inkscape:connector-curvature="0"
     sodipodi:nodetypes="csccsscccc" />
</svg>
