<?xml version="1.0" encoding="UTF-8" standalone="no"?>
<!-- Created with Inkscape (http://www.inkscape.org/) -->

<svg
   xmlns:dc="http://purl.org/dc/elements/1.1/"
   xmlns:cc="http://creativecommons.org/ns#"
   xmlns:rdf="http://www.w3.org/1999/02/22-rdf-syntax-ns#"
   xmlns:svg="http://www.w3.org/2000/svg"
   xmlns="http://www.w3.org/2000/svg"
   xmlns:sodipodi="http://sodipodi.sourceforge.net/DTD/sodipodi-0.dtd"
   xmlns:inkscape="http://www.inkscape.org/namespaces/inkscape"
   id="svg7384"
   height="16"
   width="16"
   version="1.1"
   inkscape:version="0.48.4 r9939"
   sodipodi:docname="uSwitch-symbolic.svg">
  <defs
     id="defs11" />
  <sodipodi:namedview
     pagecolor="#ffffff"
     bordercolor="#666666"
     borderopacity="1"
     objecttolerance="10"
     gridtolerance="10"
     guidetolerance="10"
     inkscape:pageopacity="0"
     inkscape:pageshadow="2"
     inkscape:window-width="1024"
     inkscape:window-height="690"
     id="namedview9"
     showgrid="false"
     inkscape:zoom="14.75"
     inkscape:cx="7.0508475"
     inkscape:cy="6.053096"
     inkscape:window-x="0"
     inkscape:window-y="25"
     inkscape:window-maximized="1"
     inkscape:current-layer="layer9-0" />
  <metadata
     id="metadata90">
    <rdf:RDF>
      <cc:Work
         rdf:about="">
        <dc:format>image/svg+xml</dc:format>
        <dc:type
           rdf:resource="http://purl.org/dc/dcmitype/StillImage" />
        <dc:title>Gnome Symbolic Icon Theme</dc:title>
      </cc:Work>
    </rdf:RDF>
  </metadata>
  <title
     id="title9167">Gnome Symbolic Icon Theme</title>
  <g
     id="layer12"
     transform="translate(-241 -667)">
    <g
       id="layer9-0"
       transform="matrix(0.75,0,0,0.75,207.94915,415.875)">
      <path
         inkscape:connector-curvature="0"
         id="rect20599-4"
         style="color:#bebebe;fill:#bebebe"
         d="m 46.8678,344.46667 c -1.450867,0.13249 -2.8,1.61691 -2.8,3.42857 v 4.57143 h 9.333333 v -4.57143 c 0,-1.81167 -1.349133,-3.29611 -2.8,-3.42857 v 1.14286 H 46.8678 z" />
      <path
         inkscape:connector-curvature="0"
         id="path20580-7"
         style="color:#bebebe;fill:#bebebe"
         d="m 51.734466,341.53334 a 3,3 0 0 1 -6,0 3,3 0 1 1 6,0 z" />
    </g>
    <g
       id="layer12-1"
       transform="matrix(0.80000002,0,0,0.75,52.213074,165.24252)">
      <g
         id="g3034"
         transform="matrix(0.80580175,0,0,1,51.310006,0.6791911)">
        <path
           d="m 244,674 v 2 h 10 v -2 h -10 z"
           style="text-indent:0;text-transform:none;block-progression:tb;color:#000000;fill:#bebebe"
           id="path15405"
           inkscape:connector-curvature="0" />
        <path
           d="m 247,671 v 1 c 0,0.25689 -0.12983,0.52846 -0.3125,0.71875 l -2.28,2.28 2.2812,2.2812 c 0.18267,0.19029 0.3125,0.46186 0.3125,0.71875 v 1 h -1 c -0.30945,0 -0.55232,-0.0903 -0.75,-0.28125 l -3.66,-3.72 3.66,-3.72 c 0.2,-0.19 0.44,-0.28 0.75,-0.28 z"
           style="text-indent:0;text-transform:none;block-progression:tb;color:#bebebe;fill:#bebebe"
           id="rect3217-6-2-2-4-85-5-2"
           inkscape:connector-curvature="0" />
      </g>
      <g
         id="layer12-9"
         transform="matrix(0.80580175,0,0,1,49.368024,8.6767411)">
        <g
           id="g3030">
          <path
             d="m 244,674 v 2 h 10 v -2 h -10 z"
             style="text-indent:0;text-transform:none;block-progression:tb;color:#000000;fill:#bebebe"
             id="path15405-2"
             inkscape:connector-curvature="0" />
          <path
             d="m 251,671 v 1 c 0,0.25689 0.12983,0.52846 0.3125,0.71875 l 2.2812,2.2812 -2.2812,2.2812 C 251.12983,677.47144 251,677.74301 251,677.9999 v 1 h 1 c 0.30945,0 0.55232,-0.0903 0.75,-0.28125 l 3.66,-3.72 -3.66,-3.72 c -0.2,-0.19 -0.44,-0.28 -0.75,-0.28 z"
             style="text-indent:0;text-transform:none;block-progression:tb;color:#bebebe;fill:#bebebe"
             id="rect3217-6-2-2-4-85-5"
             inkscape:connector-curvature="0" />
        </g>
      </g>
    </g>
  </g>
</svg>
