<?xml version="1.0" encoding="UTF-8" standalone="no"?>
<svg
   height="16"
   width="16"
   version="1.1"
   id="svg4"
   sodipodi:docname="alt-critical-notif-symbolic.svg"
   inkscape:version="1.2.2 (b0a8486541, 2022-12-01)"
   xmlns:inkscape="http://www.inkscape.org/namespaces/inkscape"
   xmlns:sodipodi="http://sodipodi.sourceforge.net/DTD/sodipodi-0.dtd"
   xmlns="http://www.w3.org/2000/svg"
   xmlns:svg="http://www.w3.org/2000/svg"
   xmlns:rdf="http://www.w3.org/1999/02/22-rdf-syntax-ns#"
   xmlns:cc="http://creativecommons.org/ns#"
   xmlns:dc="http://purl.org/dc/elements/1.1/">
  <sodipodi:namedview
     id="namedview7"
     pagecolor="#ffffff"
     bordercolor="#666666"
     borderopacity="1.0"
     inkscape:showpageshadow="2"
     inkscape:pageopacity="0.0"
     inkscape:pagecheckerboard="0"
     inkscape:deskcolor="#d1d1d1"
     showgrid="false"
     inkscape:zoom="52.375"
     inkscape:cx="8"
     inkscape:cy="8"
     inkscape:window-width="2560"
     inkscape:window-height="1008"
     inkscape:window-x="0"
     inkscape:window-y="183"
     inkscape:window-maximized="1"
     inkscape:current-layer="svg4" />
  <metadata
     id="metadata10">
    <rdf:RDF>
      <cc:Work
         rdf:about="">
        <dc:format>image/svg+xml</dc:format>
        <dc:type
           rdf:resource="http://purl.org/dc/dcmitype/StillImage" />
      </cc:Work>
    </rdf:RDF>
  </metadata>
  <defs
     id="defs8" />
  <path
     id="path2-3"
     style="color:#bebebe;overflow:visible;isolation:auto;mix-blend-mode:normal;fill:#f57900;fill-opacity:1;marker:none"
     overflow="visible"
     d="M 7.565,1.701 C 6.395424,2.0770812 5.4472029,2.9431816 4.967,4.074 c 0,0 -1.915,4.62 -3.686,4.559 -0.019,0.004 -0.033,0.02 -0.052,0.025 -0.077392,0.021033 -0.1507317,0.05483 -0.217,0.1 -0.027,0.017 -0.054,0.03 -0.078,0.05 -0.0898925,0.0743 -0.16084157,0.1688991 -0.207,0.276 -0.15855276,0.3827333 0.0232334,0.8215275 0.406,0.98 l 9.701,4.018 c 0.382457,0.159688 0.821803,-0.02251 0.979,-0.406 0.04316,-0.108517 0.05996,-0.225729 0.049,-0.342 -0.002,-0.032 -0.014,-0.059 -0.02,-0.09 -0.01478,-0.07868 -0.04249,-0.154373 -0.082,-0.224 C 11.75,13.003 11.751,12.981 11.74,12.965 10.987,12.262 11.321,10.419 11.73,8.988 9.0791781,8.8446476 7.002498,6.654694 7,4 7.0015795,3.199487 7.1953439,2.4110549 7.565,1.701 Z"
     sodipodi:nodetypes="ccccccccccccccccc" />
  <path
     id="path4"
     style="color:#bebebe;overflow:visible;isolation:auto;mix-blend-mode:normal;fill:#f57900;fill-opacity:1;marker:none"
     overflow="visible"
     d="M 16,4 A 4,4 0 0 1 8,4 4,4 0 1 1 16,4 Z"
     class="warning" />
  <path
     d="m 1.9695498,11.485666 c -0.1276379,0.902584 0.3711898,1.77728 1.213,2.127 0.842546,0.348161 1.8139159,0.08249 2.362,-0.646 z"
     style="color:#bebebe;overflow:visible;isolation:auto;mix-blend-mode:normal;fill:#f57900;fill-opacity:1;marker:none"
     id="path947" />
</svg>
