<?xml version="1.0" encoding="UTF-8" standalone="no"?>
<svg
   height="16"
   width="16"
   version="1.1"
   id="svg8"
   sodipodi:docname="new-notif-symbolic (copie)22.svg"
   inkscape:version="1.4 (e7c3feb100, 2024-10-09)"
   xml:space="preserve"
   xmlns:inkscape="http://www.inkscape.org/namespaces/inkscape"
   xmlns:sodipodi="http://sodipodi.sourceforge.net/DTD/sodipodi-0.dtd"
   xmlns="http://www.w3.org/2000/svg"
   xmlns:svg="http://www.w3.org/2000/svg"><defs
     id="defs12" /><sodipodi:namedview
     id="namedview10"
     pagecolor="#505050"
     bordercolor="#eeeeee"
     borderopacity="1"
     inkscape:showpageshadow="0"
     inkscape:pageopacity="0"
     inkscape:pagecheckerboard="0"
     inkscape:deskcolor="#505050"
     showgrid="false"
     inkscape:zoom="16"
     inkscape:cx="-18.3125"
     inkscape:cy="18.875"
     inkscape:window-width="2560"
     inkscape:window-height="1379"
     inkscape:window-x="0"
     inkscape:window-y="34"
     inkscape:window-maximized="1"
     inkscape:current-layer="g6" /><g
     transform="translate(-273 211)"
     id="g6"><path
       color="#bebebe"
       d="m 280.565,-209.299 c -1.16958,0.37608 -2.1178,1.24218 -2.598,2.373 0,0 -1.915,4.62 -3.686,4.559 -0.019,0.004 -0.033,0.02 -0.052,0.025 -0.0774,0.021 -0.15073,0.0548 -0.217,0.1 -0.027,0.017 -0.054,0.03 -0.078,0.05 -0.0899,0.0743 -0.16084,0.1689 -0.207,0.276 -0.15855,0.38273 0.0232,0.82153 0.406,0.98 l 9.701,4.018 c 0.38246,0.15969 0.8218,-0.0225 0.979,-0.406 0.0432,-0.10852 0.06,-0.22573 0.049,-0.342 -0.002,-0.032 -0.014,-0.059 -0.02,-0.09 -0.0148,-0.0787 -0.0425,-0.15437 -0.082,-0.224 -0.01,-0.017 -0.009,-0.039 -0.02,-0.055 -0.753,-0.703 -0.419,-2.546 -0.01,-3.977 -2.65082,-0.14335 -4.7275,-2.33331 -4.73,-4.988 0.002,-0.80051 0.19534,-1.58895 0.565,-2.299 z"
       fill="#666666"
       overflow="visible"
       style="isolation:auto;mix-blend-mode:normal;marker:none"
       id="path2"
       sodipodi:nodetypes="ccccccccccccccccc" /><path
       class="error"
       color="#bebebe"
       d="M289-207a4 4 0 0 1-8 0 4 4 0 1 1 8 0z"
       fill="#d33636"
       overflow="visible"
       style="isolation:auto;mix-blend-mode:normal;marker:none"
       id="path4" /><g
       id="g1"
       transform="translate(272.99772,-210.99748)"><path
         style="color:#bebebe;overflow:visible;isolation:auto;mix-blend-mode:normal;fill:#666666;fill-opacity:1;stroke-width:1.16276;marker:none"
         d="m 1.9678193,11.490421 c -0.1484121,1.049487 0.4314767,2.066491 1.4102983,2.473133 0.9796771,0.404826 2.108364,0.09535 2.7456532,-0.751706 z"
         id="path2-3-5-2-2-5-19"
         sodipodi:nodetypes="cccc" /></g></g></svg>
