<?xml version="1.0" encoding="UTF-8" standalone="no"?>
<svg
   height="16"
   width="16"
   version="1.1"
   id="svg6"
   sodipodi:docname="empty-notification-symbolic.svg"
   inkscape:version="1.2.2 (b0a8486541, 2022-12-01)"
   xmlns:inkscape="http://www.inkscape.org/namespaces/inkscape"
   xmlns:sodipodi="http://sodipodi.sourceforge.net/DTD/sodipodi-0.dtd"
   xmlns="http://www.w3.org/2000/svg"
   xmlns:svg="http://www.w3.org/2000/svg">
  <defs
     id="defs10" />
  <sodipodi:namedview
     id="namedview8"
     pagecolor="#ffffff"
     bordercolor="#000000"
     borderopacity="0.25"
     inkscape:showpageshadow="2"
     inkscape:pageopacity="0.0"
     inkscape:pagecheckerboard="0"
     inkscape:deskcolor="#d1d1d1"
     showgrid="false"
     inkscape:zoom="32"
     inkscape:cx="7.359375"
     inkscape:cy="9.53125"
     inkscape:window-width="1830"
     inkscape:window-height="1194"
     inkscape:window-x="697"
     inkscape:window-y="248"
     inkscape:window-maximized="0"
     inkscape:current-layer="svg6" />
  <g
     color="#bebebe"
     transform="translate(-293 211)"
     id="g4">
    <path
       d="M301-210.01a1 1 0 0 0-1 1v.01c-1.764.456-2.998 2.168-3 3.99 0 0 0 5-1.66 5.622-.016.01-.023.03-.04.043a.726.726 0 0 0-.161.175c-.018.027-.039.048-.053.077a.738.738 0 0 0-.086.334c0 .415.335.75.75.75h10.5c.416 0 .75-.335.75-.75a.738.738 0 0 0-.086-.334c-.014-.03-.035-.05-.052-.077a.725.725 0 0 0-.162-.175c-.016-.012-.023-.033-.04-.043-1.66-.622-1.66-5.622-1.66-5.622-.002-1.822-1.235-3.534-3-3.99v-.01a1 1 0 0 0-1-1zm-1.933 13a2 2 0 0 0 1.933 1.5 2 2 0 0 0 1.936-1.5z"
       fill="#666"
       overflow="visible"
       style="isolation:auto;mix-blend-mode:normal;marker:none"
       id="path2" />
  </g>
</svg>
