<?xml version="1.0" encoding="UTF-8" standalone="no"?>
<svg
   xmlns:dc="http://purl.org/dc/elements/1.1/"
   xmlns:cc="http://creativecommons.org/ns#"
   xmlns:rdf="http://www.w3.org/1999/02/22-rdf-syntax-ns#"
   xmlns:svg="http://www.w3.org/2000/svg"
   xmlns="http://www.w3.org/2000/svg"
   xmlns:sodipodi="http://sodipodi.sourceforge.net/DTD/sodipodi-0.dtd"
   xmlns:inkscape="http://www.inkscape.org/namespaces/inkscape"
   width="0.166668in"
   height="0.166668in"
   viewBox="0 0 128 128"
   version="1.1"
   id="svg1542"
   sodipodi:docname="sus3.svg"
   inkscape:version="0.92.3 (2405546, 2018-03-11)">
  <metadata
     id="metadata1548">
    <rdf:RDF>
      <cc:Work
         rdf:about="">
        <dc:format>image/svg+xml</dc:format>
        <dc:type
           rdf:resource="http://purl.org/dc/dcmitype/StillImage" />
        <dc:title></dc:title>
      </cc:Work>
    </rdf:RDF>
  </metadata>
  <defs
     id="defs1546" />
  <sodipodi:namedview
     pagecolor="#ffffff"
     bordercolor="#666666"
     borderopacity="1"
     objecttolerance="10"
     gridtolerance="10"
     guidetolerance="10"
     inkscape:pageopacity="0"
     inkscape:pageshadow="2"
     inkscape:window-width="1336"
     inkscape:window-height="690"
     id="namedview1544"
     showgrid="false"
     inkscape:zoom="31.187251"
     inkscape:cx="8.0000639"
     inkscape:cy="8.0000639"
     inkscape:window-x="0"
     inkscape:window-y="25"
     inkscape:window-maximized="1"
     inkscape:current-layer="svg1542" />
  <path
     id="Sélection"
     fill="none"
     stroke="black"
     stroke-width="1"
     d="M 22.10,16.04            C 23.48,13.02 28.22,10.11 31.00,8.45              39.13,3.61 49.49,0.11 59.00,0.00              68.20,-0.10 75.05,-0.40 84.00,2.52              108.45,10.50 127.96,33.74 128.00,60.00              128.02,75.99 127.91,82.56 119.57,97.00              98.72,133.12 44.34,139.63 16.44,107.96              2.44,92.08 -3.21,70.78 1.00,50.00              2.52,42.49 5.11,34.19 11.00,29.00              11.12,32.53 10.98,35.57 15.06,36.84              16.25,37.01 17.77,36.96 19.00,36.84              19.00,36.84 13.44,56.00 13.44,56.00              11.23,70.00 14.68,78.46 20.00,91.00              20.00,91.00 51.85,55.00 51.85,55.00              51.85,55.00 66.00,40.00 66.00,40.00              67.84,42.83 72.93,50.93 73.29,54.00              73.76,57.92 65.96,71.45 64.00,76.00              64.00,76.00 82.26,56.42 82.26,56.42              84.05,54.42 87.12,50.19 90.00,50.20              92.66,50.20 96.21,54.18 97.96,56.00              97.96,56.00 115.00,74.00 115.00,74.00              115.00,65.02 115.66,57.75 112.96,49.00              106.39,27.70 86.87,13.89 65.00,13.04              58.84,12.80 49.60,14.33 44.00,16.90              32.07,22.38 37.20,25.00 22.10,25.00              21.95,22.65 21.37,17.97 22.10,16.04 Z" />
  <path
     style="fill:none;fill-opacity:1;stroke:none;stroke-width:0.02565151;stroke-miterlimit:4;stroke-dasharray:none"
     d="M 7.4132857,15.943049 C 5.3845608,15.839262 3.452211,14.941446 2.1784963,13.510841 0.46273793,11.583743 -0.26590966,9.0881707 0.15040662,6.5647594 0.27179602,5.8289838 0.48372048,5.1127081 0.71829765,4.6453658 0.84641141,4.3901279 1.1069726,4.0001589 1.2209291,3.8931024 l 0.075427,-0.07086 0.022183,0.1672229 c 0.060732,0.4578178 0.3192635,0.6993517 0.7501718,0.7008498 0.178068,6.188e-4 0.200438,0.00749 0.1849886,0.056817 -0.00967,0.030862 -0.1609526,0.5506558 -0.3361926,1.1550973 -0.371845,1.282576 -0.4072435,1.5016248 -0.3784578,2.3419275 0.019002,0.5546921 0.071644,0.8801949 0.2316458,1.4323263 0.1540072,0.5314468 0.6583854,1.7961538 0.7163246,1.7961538 0.017943,0 0.9518097,-1.038886 2.0752601,-2.308636 C 6.2192051,7.2913047 8.1387478,5.1898563 8.2310897,5.1475146 8.2889672,5.1209762 8.991763,6.4078181 9.0619058,6.6687654 9.1313399,6.927077 8.9951965,7.3016615 8.36652,8.5820443 7.9421922,9.4462449 7.9300895,9.4765486 7.9913113,9.5215228 c 0.057378,0.04215 0.07005,0.038613 0.1362361,-0.038035 C 8.167683,9.4370088 8.6737286,8.8915971 9.2520935,8.2714626 9.830458,7.6513278 10.420868,7.0123699 10.564115,6.8515561 c 0.53968,-0.6058626 0.743568,-0.6327531 1.246596,-0.1644117 0.118315,0.1101569 0.748638,0.7630153 1.400716,1.4507963 0.652079,0.6877811 1.197836,1.2553207 1.212794,1.2611991 0.03918,0.015398 0.03356,-1.7985173 -0.0067,-2.1682816 C 14.180507,5.0551785 12.834092,3.1880458 10.796078,2.2088741 9.6209641,1.6442858 8.2752045,1.4398608 6.9893262,1.6306168 5.9864103,1.7793963 5.2261894,2.0788195 4.5177935,2.6040631 4.0697165,2.936292 3.8818946,2.9986907 3.2079323,3.0392287 L 2.8503053,3.0607395 2.83035,2.9698838 C 2.8193746,2.9199132 2.8085519,2.7037919 2.8062997,2.4896142 2.8024433,2.1229 2.8071346,2.0917878 2.8867797,1.9558837 3.2259948,1.3770569 5.0158034,0.45209262 6.275,0.20486813 6.8109581,0.09964074 7.137421,0.07428451 7.9583802,0.07412074 8.8045227,0.07395194 9.306255,0.11025604 9.7700179,0.20520631 10.871694,0.4307623 12.055953,1.0057774 13.040585,1.7932262 c 0.417038,0.3335214 1.043297,0.9791925 1.364504,1.4067994 0.87278,1.1618901 1.36106,2.3949908 1.491871,3.7675651 0.04761,0.4995301 0.01847,2.0194021 -0.04803,2.5053943 -0.09567,0.699175 -0.253606,1.203879 -0.595635,1.903459 -0.472677,0.966803 -0.879825,1.546137 -1.567342,2.230181 -0.52529,0.522637 -0.941372,0.848846 -1.517742,1.189913 -1.106145,0.654562 -2.4843278,1.079268 -3.6807645,1.134277 -0.2028072,0.0093 -0.4264563,0.02106 -0.4969979,0.02608 -0.070542,0.005 -0.3302632,-0.0012 -0.5771589,-0.01384 z"
     id="path2096"
     inkscape:connector-curvature="0"
     transform="scale(7.9999361)" />
  <path
     style="fill:none;fill-opacity:1;stroke:none;stroke-width:0.02565151;stroke-miterlimit:4;stroke-dasharray:none"
     d="M 7.4132857,15.943049 C 5.3845608,15.839262 3.452211,14.941446 2.1784963,13.510841 0.46273793,11.583743 -0.26590966,9.0881707 0.15040662,6.5647594 0.27179602,5.8289838 0.48372048,5.1127081 0.71829765,4.6453658 0.84641141,4.3901279 1.1069726,4.0001589 1.2209291,3.8931024 l 0.075427,-0.07086 0.022183,0.1672229 c 0.060732,0.4578178 0.3192635,0.6993517 0.7501718,0.7008498 0.178068,6.188e-4 0.200438,0.00749 0.1849886,0.056817 -0.00967,0.030862 -0.1609526,0.5506558 -0.3361926,1.1550973 -0.371845,1.282576 -0.4072435,1.5016248 -0.3784578,2.3419275 0.019002,0.5546921 0.071644,0.8801949 0.2316458,1.4323263 0.1540072,0.5314468 0.6583854,1.7961538 0.7163246,1.7961538 0.017943,0 0.9518097,-1.038886 2.0752601,-2.308636 C 6.2192051,7.2913047 8.1387478,5.1898563 8.2310897,5.1475146 8.2889672,5.1209762 8.991763,6.4078181 9.0619058,6.6687654 9.1313399,6.927077 8.9951965,7.3016615 8.36652,8.5820443 7.9421922,9.4462449 7.9300895,9.4765486 7.9913113,9.5215228 c 0.057378,0.04215 0.07005,0.038613 0.1362361,-0.038035 C 8.167683,9.4370088 8.6737286,8.8915971 9.2520935,8.2714626 9.830458,7.6513278 10.420868,7.0123699 10.564115,6.8515561 c 0.53968,-0.6058626 0.743568,-0.6327531 1.246596,-0.1644117 0.118315,0.1101569 0.748638,0.7630153 1.400716,1.4507963 0.652079,0.6877811 1.197836,1.2553207 1.212794,1.2611991 0.03918,0.015398 0.03356,-1.7985173 -0.0067,-2.1682816 C 14.180507,5.0551785 12.834092,3.1880458 10.796078,2.2088741 9.6209641,1.6442858 8.2752045,1.4398608 6.9893262,1.6306168 5.9864103,1.7793963 5.2261894,2.0788195 4.5177935,2.6040631 4.0697165,2.936292 3.8818946,2.9986907 3.2079323,3.0392287 L 2.8503053,3.0607395 2.83035,2.9698838 C 2.8193746,2.9199132 2.8085519,2.7037919 2.8062997,2.4896142 2.8024433,2.1229 2.8071346,2.0917878 2.8867797,1.9558837 3.2259948,1.3770569 5.0158034,0.45209262 6.275,0.20486813 6.8109581,0.09964074 7.137421,0.07428451 7.9583802,0.07412074 8.8045227,0.07395194 9.306255,0.11025604 9.7700179,0.20520631 10.871694,0.4307623 12.055953,1.0057774 13.040585,1.7932262 c 0.417038,0.3335214 1.043297,0.9791925 1.364504,1.4067994 0.87278,1.1618901 1.36106,2.3949908 1.491871,3.7675651 0.04761,0.4995301 0.01847,2.0194021 -0.04803,2.5053943 -0.09567,0.699175 -0.253606,1.203879 -0.595635,1.903459 -0.472677,0.966803 -0.879825,1.546137 -1.567342,2.230181 -0.52529,0.522637 -0.941372,0.848846 -1.517742,1.189913 -1.106145,0.654562 -2.4843278,1.079268 -3.6807645,1.134277 -0.2028072,0.0093 -0.4264563,0.02106 -0.4969979,0.02608 -0.070542,0.005 -0.3302632,-0.0012 -0.5771589,-0.01384 z"
     id="path2098"
     inkscape:connector-curvature="0"
     transform="scale(7.9999361)" />
  <path
     style="opacity:1;fill:#bebebe;fill-opacity:1;stroke:#bebebe;stroke-width:0.30000001;stroke-miterlimit:0;stroke-dasharray:none;stroke-opacity:1"
     d="M 7.4132857,15.943049 C 5.3845608,15.839262 3.452211,14.941446 2.1784963,13.510841 0.46273793,11.583743 -0.26590966,9.0881707 0.15040662,6.5647594 0.27179602,5.8289838 0.48372048,5.1127081 0.71829765,4.6453658 0.84641141,4.3901279 1.1069726,4.0001589 1.2209291,3.8931024 l 0.075427,-0.07086 0.022183,0.1672229 c 0.060732,0.4578178 0.3192635,0.6993517 0.7501718,0.7008498 0.178068,6.188e-4 0.200438,0.00749 0.1849886,0.056817 -0.00967,0.030862 -0.1609526,0.5506558 -0.3361926,1.1550973 -0.371845,1.282576 -0.4072435,1.5016248 -0.3784578,2.3419275 0.019002,0.5546921 0.071644,0.8801949 0.2316458,1.4323263 0.1540072,0.5314468 0.6583854,1.7961538 0.7163246,1.7961538 0.017943,0 0.9518097,-1.038886 2.0752601,-2.308636 C 6.2192051,7.2913047 8.1387478,5.1898563 8.2310897,5.1475146 8.2889672,5.1209762 8.991763,6.4078181 9.0619058,6.6687654 9.1313399,6.927077 8.9951965,7.3016615 8.36652,8.5820443 7.9421922,9.4462449 7.9300895,9.4765486 7.9913113,9.5215228 c 0.057378,0.04215 0.07005,0.038613 0.1362361,-0.038035 C 8.167683,9.4370088 8.6737286,8.8915971 9.2520935,8.2714626 9.830458,7.6513278 10.420868,7.0123699 10.564115,6.8515561 c 0.53968,-0.6058626 0.743568,-0.6327531 1.246596,-0.1644117 0.118315,0.1101569 0.748638,0.7630153 1.400716,1.4507963 0.652079,0.6877811 1.197836,1.2553207 1.212794,1.2611991 0.03918,0.015398 0.03356,-1.7985173 -0.0067,-2.1682816 C 14.180507,5.0551785 12.834092,3.1880458 10.796078,2.2088741 9.6209641,1.6442858 8.2752045,1.4398608 6.9893262,1.6306168 5.9864103,1.7793963 5.2261894,2.0788195 4.5177935,2.6040631 4.0697165,2.936292 6.3377746,3.7093624 5.1317954,3.6163876 L 3.3312711,3.4775765 2.4776418,3.2584633 C 2.4280865,3.2457432 2.5199724,2.6396631 2.5177202,2.4254854 2.5138638,2.0587712 2.9995209,0.39237543 3.079166,0.25647133 3.2157162,0.02346613 3.3949404,1.4337838 3.8723763,1.1553874 3.9866732,1.0887401 4.1070351,1.0227059 4.2316888,0.95820114 4.3679898,0.88766929 4.5094221,0.81896609 4.6536677,0.75328948 4.7964672,0.68827131 4.942024,0.62621935 5.0880889,0.56829588 5.4961006,0.40649487 5.9080776,0.27690788 6.275,0.20486813 6.8109581,0.09964074 7.137421,0.07428451 7.9583802,0.07412074 8.8045227,0.07395194 9.306255,0.11025604 9.7700179,0.20520631 10.871694,0.4307623 12.055953,1.0057774 13.040585,1.7932262 c 0.417038,0.3335214 1.043297,0.9791925 1.364504,1.4067994 0.87278,1.1618901 1.36106,2.3949908 1.491871,3.7675651 0.04761,0.4995301 0.01847,2.0194021 -0.04803,2.5053943 -0.09567,0.699175 -0.253606,1.203879 -0.595635,1.903459 -0.472677,0.966803 -0.879825,1.546137 -1.567342,2.230181 -0.52529,0.522637 -0.941372,0.848846 -1.517742,1.189913 -1.106145,0.654562 -2.4843278,1.079268 -3.6807645,1.134277 -0.2028072,0.0093 -0.4264563,0.02106 -0.4969979,0.02608 -0.070542,0.005 -0.3302632,-0.0012 -0.5771589,-0.01384 z"
     id="path2100"
     inkscape:connector-curvature="0"
     sodipodi:nodetypes="csssscsccssssscssccsscsccsssscsssssssssssscsssscccc"
     transform="scale(7.9999361)" />
</svg>
