<svg version="1" xmlns="http://www.w3.org/2000/svg" width="933.333" height="933.333" viewBox="0 0 700.000000 700.000000"><path d="M347.4 4c-1.7.4-3.6 1-4.2 1.4-.6.3-5.4 7.6-10.7 16.2-5.4 8.5-10.2 15.7-10.9 15.9-6.9 2.1-5.8 2.8-22.6-15.4-4.7-5.1-9.8-9.9-11.4-10.8-3.5-1.8-8.6-1.1-11.1 1.6-.9 1.1-4.5 9.5-8 18.7l-6.3 16.8-4 1.5-4 1.4-10.2-7.4c-21.9-15.9-23.4-16.6-29.1-12.7-3.3 2.2-4.4 5.1-5.9 15.3-.7 4.4-1.4 8.9-1.5 10-.2 1.1-.6 3.8-.9 6-1.2 8.2-1.8 9.5-4.6 11-4.1 2.1-4.8 2-15.2-2.9-17.9-8.3-23.5-10.5-25.8-10.1-3.3.6-7 3.3-7.9 5.8-.8 2-.5 27.3.3 35.5.3 2.6-.3 3.7-2.7 5.8-3.6 3-2.6 3.1-24.2-2.1-16-3.7-19-3.8-22.4-.1-3.2 3.4-3.2 7 0 20 1.6 6.5 3.4 14.5 4 17.8 1.2 5.8 1.1 6-1.6 8.8-1.5 1.6-3.2 2.7-3.9 2.5-2.8-.9-34.8-1.4-37-.5-1.4.5-3.2 2-4.1 3.3-3.4 5.3-3.4 5.5 8.6 31.4 2.1 4.5 3.9 8.8 4 9.5.4 1.9-2.9 7.8-4.4 7.8-3.9.1-34.6 5.9-36.4 6.9-3.1 1.6-5.3 6.2-4.7 9.7.3 1.5 5.3 9.5 11.1 17.7l10.7 15-1.5 4c-1.5 4.3.6 3.2-23.6 12.2-12 4.4-13 5-14.9 8.7-2.5 4.9-.7 9.2 6.8 16 3.5 3.1 9.5 8.7 13.4 12.5 6.8 6.4 7.1 7 6.7 10.5-.6 4.5-.7 4.6-16.8 14.3C4.6 343.2 3 344.7 3 349.8c0 5.4 1.9 7.1 19.2 17.7 14.5 8.9 14.6 9 15.1 13 .4 4.4 1.5 3.2-18.2 21.5-9.3 8.6-11 11.9-8.7 17.3 1.7 4.2 2.7 4.8 21.6 11.7 8 2.9 15 5.7 15.6 6.2.7.5 1.5 2.5 1.9 4.4.6 3.3 0 4.5-9.5 17.6-5.6 7.7-10.5 15-10.9 16.2-1.6 4.6.2 9.6 4.1 11.7 1.7.9 33.7 6.9 37 6.9.4 0 1.6 1.6 2.6 3.7l1.9 3.6-7.3 15.9c-4 8.7-7.5 17.2-7.7 18.7-.6 3.7 2.4 8.8 5.9 10.1 1.4.6 7.1.8 12.7.5 23.5-1.1 25.6-.9 28.3 1.6 1.3 1.2 2.4 3.1 2.4 4.1 0 1-1.6 8.5-3.6 16.6-4.8 19.9-4.9 21.5-1.9 25.1 3.3 3.9 6.3 4.4 13.9 2.7 3.5-.9 7.6-1.7 9.1-2 1.4-.3 4.1-1 5.8-1.5 3-1 5.1-1.4 12.3-2.7 2.3-.5 3.7 0 5.9 1.8 3 2.7 2.9 1 2 30.8-.1 4.7.1 9.5.6 10.7 1.1 3 6.5 6.2 9.8 5.8 1.4-.2 10-3.7 19-7.8l16.3-7.5 3.4 2c1.9 1.1 3.4 2.1 3.4 2.2 0 .1.4 2.7 1 5.7.5 3 1.2 7.2 1.5 9.4.2 2.2.6 4.9.9 6 .2 1.1.7 4 1.1 6.5.4 2.5.9 5.3 1.1 6.4.6 3 3.3 6.6 5.9 7.6 5.1 1.9 8.3.2 28.5-14.7 7.6-5.7 8.9-6.3 12-5.8 1.9.4 4 1.2 4.6 1.8.6.7 3.7 8.3 7 17.1 3.2 8.7 6.6 16.9 7.6 18.1 2.4 3 7.9 4 11.5 2.1 1.5-.8 6.9-5.9 11.8-11.2 16.1-17.4 15.1-16.5 18.2-15.8 1.5.3 3.3.7 3.9.9.7.2 5.5 7.4 10.9 15.9 5.3 8.6 10.1 15.9 10.7 16.2.6.4 2.6 1 4.4 1.4 5.4 1.2 8.4-1.8 18.7-18.5 9-14.6 9.3-15 13.2-15.7 3.8-.6 4.2-.4 7.9 3.5 23 24.6 23.5 25.1 28.8 24.2 4.8-.8 7.1-3.8 10.8-14 9.3-25.3 8.8-24.4 13-25.6l3.9-1.2 13.7 9.9c16.9 12.1 15.7 11.4 19.6 11.9 4.6.6 9.5-3.3 10.4-8.3.9-4.8.8-4.5 3.4-20.5l2.3-13.8 3.5-1.8 3.5-1.8 16.9 7.8c18.6 8.4 21.2 8.9 25.8 4.3l2.5-2.5-.3-19.7-.3-19.8 2.8-2.4c2.8-2.4 3.4-2.4 15.3.5 25.5 6.2 27.1 6.2 31.2 1.6 1.5-1.7 2.8-4 2.8-5s-1.8-9.6-4-19.1c-2.2-9.5-3.8-18-3.5-19 1.3-4.2 4.1-5.3 12.7-5 27.4.8 30.5.7 33.2-1.9 5.1-4.8 4.7-7.1-5.8-29.3-2.5-5.3-4.8-10.8-5.1-12.1-.6-2.4 1.7-8.7 3.3-8.7.4 0 8.4-1.3 17.9-2.9 18.1-3 21.7-4.3 23.4-8.9 1.7-4.3 0-7.9-11.1-23.1L647.8 445l1.4-4.1 1.3-4.1 16.7-6.2c9.2-3.5 17.6-7.1 18.7-8 2.6-2.4 3.6-7.1 2.1-10.5-.6-1.5-5-6.4-9.8-10.8-18.2-16.9-18-16.6-17.3-20.9.6-3.7 1.2-4.2 15.9-13.4 8.3-5.2 15.9-10.5 16.8-11.8 2.1-3 2.1-7.2 0-10.4-1.3-2-14.6-11.2-20.1-13.8-.5-.3-3.6-2.2-6.7-4.2-4.6-3-5.8-4.3-5.9-6.5-.2-4.9.1-5.5 7.8-12.7 4.1-3.9 9.9-9.4 12.8-12.1 6.3-6 7.8-8.5 7.1-12.6-.7-4.6-3.1-6.5-12-9.9-28.7-11-26.5-9.8-27.7-14l-1.2-3.8L658 241c5.6-7.8 10.7-15.7 11.3-17.5 2-6.6-3.2-11.8-13.2-13-3-.4-6.1-.8-7-1-.9-.1-6.1-1-11.6-2-5.5-.9-10.1-1.7-10.1-1.8-.1-.1-1.1-1.7-2.2-3.5-1.7-2.9-1.8-3.7-.7-6 .8-1.5 4.2-8.8 7.6-16.2 7.2-15.6 7.8-19.6 3.5-23.9-2.5-2.4-3.2-2.6-11.9-2.6-5 0-13.8.2-19.5.5l-10.3.5-2.6-2.9-2.6-2.9L593 130c4.2-18.4 4.2-18.7 2.5-22.3-3-6.3-5.5-6.5-26.5-1.6l-18.2 4.2-2.6-2-2.7-2V86.2c0-19.6-.1-20.1-2.3-22.5-1.3-1.4-3.7-2.7-5.3-3.1-3.2-.6-4.4-.2-28.7 11-4.1 1.9-8 3.4-8.8 3.4-2 0-7.4-2.8-7.4-3.9 0-.5-1.3-8.9-3-18.7-2.4-14.9-3.3-18.1-5.2-20-2.7-2.7-7-3.7-10.3-2.4-2 .7-20.3 13.6-28 19.5-2.3 1.8-3.2 1.8-7.3.4-2.6-.9-3.5-2.2-5.8-8.2-11.2-29.6-11.3-29.9-16.4-31.2-4.4-1.1-8 1.3-16.9 10.7-17 18.2-16.3 17.6-20.6 16.9-4.1-.6-4.9-1.8-19.7-26.1-4-6.4-7.9-9-12.4-8zm11.4 63.6c17.2 11.3 9.6 37.9-10.8 37.8-11.6-.1-21.2-9.8-20.5-20.6.6-7.6 3.2-12.3 9.1-16.6 6-4.2 16.3-4.5 22.2-.6zm-47.9 40.1c28.3 30.2 30.1 31.5 41.8 28.9 3.6-.8 4.5-1.5 19.9-16.1 8.1-7.7 16.7-15.8 19.1-18.1l4.4-4.1 11.7 2.8c45.6 10.8 87.5 34.3 120.7 67.6 12.2 12.2 22.8 25.3 33 40.6 7.4 11.2 7.7 12 6.7 15-.5 1.8-6.2 14.9-12.5 29.2-6.3 14.3-11.7 27.3-12 29-.7 4.8 1.9 11.8 5.9 15.8 2.1 2 4.3 3.7 4.9 3.7.7 0 2.5.6 4.1 1.4 6.7 3.2 25.3 11.6 25.8 11.6.2 0 4.2 1.8 8.9 4 6 2.8 8.6 4.5 8.6 5.7 0 1 .2 9.4.4 18.6.2 9.2.1 18.2-.2 20l-.7 3.2-13.7.1c-7.6.1-14.1.4-14.4.8-.4.4-.8 5.9-1 12.2-.3 18.2-4.1 27.8-13.1 33.5-6.2 3.9-11.1 5.2-20.2 5.3-9.3 0-16.8-2.5-22-7.4-3-2.9-3.9-4.7-5-10-.7-3.6-1.4-7-1.5-7.5-1.6-7.4-4.6-15.9-8.7-24.4-4.4-9.1-6.1-11.5-13.7-19-4.7-4.7-10.4-10-12.5-11.6l-3.9-3.1 7.9-5.6c24.6-17.4 38.5-35.5 43-55.9.6-2.8.6-19.5 0-22.4-6.5-31.3-31.5-56.9-66.3-67.8-16.9-5.4-13.6-5.3-159.5-5.2-74.7 0-135.8-.2-135.8-.5 0-1 13.8-14.7 21.3-21.3 29.1-25.3 63.8-43.8 100.7-53.7 6.3-1.7 12.9-3.4 14.5-3.9 4-1.1 4.8-.5 13.4 8.6zM109.5 252.6c8.1 3.3 12.4 9.2 13 17.9.8 10.8-7.4 20.4-18.1 21.3-18.5 1.5-29.3-18.3-18-33.1 5.1-6.7 15.3-9.4 23.1-6.1zm493.8 1.8c2.1 1 5 3.4 6.4 5.3 13.1 17.1-5 40.1-24.6 31.3-5.2-2.4-7.7-5-10.3-10.9-4.4-9.6.3-21.1 10.7-26.4 3.9-2 12.9-1.7 17.8.7zm-426.2 1.3c.1.5.2 36.9.3 81l.1 80.3H169c-14.1.1-57.3.1-60.7.1-3.7-.1-3.9-.5-7.8-19.6-2.5-12.5-2.9-15.2-4.1-28.7-1.3-13.6-.7-46.9.8-48.3.4-.4 8.3-4 25.3-11.5 21.6-9.6 21.8-9.7 24.8-12.8 2.9-3 5.6-10.3 5.1-13.6-.6-4-1.6-7.2-3.9-12.1-3.8-8.2-6.5-14.4-6.5-15 0-.8 35-.6 35.1.2zm206.4 2.4c11.2 2.9 19.7 8.8 22.8 15.8 5.5 12.4-1 23.1-17.3 28.6-5 1.7-9.8 1.9-51.2 2.1-35.5.3-45.8.1-45.9-.9-.4-3.2-.5-45.3-.2-46 .6-1.1 87.2-.8 91.8.4zm-13.1 117.7c15.5 5.7 25 19.2 28.9 41.2.3 1.4 1.3 6.1 2.2 10.5.9 4.4 1.9 9.1 2.1 10.5 1.6 8.8 5.8 24.3 7.8 28.7 5.8 12.4 17.4 25.6 26.3 29.5 4.7 2.1 6.1 2.1 60 2.2 49.5 0 55.1.2 54.3 1.6-1.5 2.8-20.2 24.2-21.7 24.7-.8.3-6-.4-11.6-1.6-5.6-1.2-15.6-3.3-22.2-4.7-13.5-2.9-19.8-2.7-24.5.6-5.9 4.2-6.9 7-12.6 33.2-3 13.9-5.4 25.5-5.4 25.9 0 2.6-41.6 16.4-55.6 18.4-2.1.4-4.6.8-5.4 1-.8.3-3.2.7-5.2 1-2.1.3-5.3.7-7 1-32.6 4.5-71.7 1.1-105.8-9.2-10.7-3.2-30.6-10.8-32.2-12.2-.4-.3-2.8-10.3-5.3-22.1-6.9-32.7-7.8-35.1-15.6-39-5.2-2.7-9.2-2.5-25.5 1-7.6 1.7-17.4 3.7-21.8 4.6l-7.8 1.7-2.7-2.9c-4.8-5.3-13.7-15.9-16.4-19.5l-2.6-3.5 103.7.1c57 0 104.5-.3 105.5-.7 1.6-.8 1.7-3.7 1.7-38.9 0-32.4-.2-38-1.5-38.5-.8-.3-15.3-.7-32.2-.7l-30.8-.2v-46.2l36.5.1c34.6.2 36.8.3 42.4 2.4zM204.3 543.5c7.6 3.6 11.7 10.7 11.3 19.5-.8 16.6-20.3 25.3-33 14.8-10.1-8.3-10.2-22.8-.1-31.6 1.9-1.8 4.8-3.4 6.3-3.8 1.5-.3 3.2-.7 3.7-.9 2-.7 8.5.4 11.8 2zm305.5.9c10.7 5.5 14.4 20.2 7.5 29.9-8 11.5-25.3 11.9-33.3.7-3.2-4.5-4.7-12.9-3.1-18.2 1.6-5.1 8.5-12.3 13.3-13.6 4.5-1.2 12-.7 15.6 1.2z"/></svg>