<?xml version="1.0" encoding="UTF-8" standalone="no"?>
<svg
   xmlns:dc="http://purl.org/dc/elements/1.1/"
   xmlns:cc="http://creativecommons.org/ns#"
   xmlns:rdf="http://www.w3.org/1999/02/22-rdf-syntax-ns#"
   xmlns:svg="http://www.w3.org/2000/svg"
   xmlns="http://www.w3.org/2000/svg"
   xmlns:sodipodi="http://sodipodi.sourceforge.net/DTD/sodipodi-0.dtd"
   xmlns:inkscape="http://www.inkscape.org/namespaces/inkscape"
   version="1"
   width="933.333"
   height="933.333"
   viewBox="0 0 700.000000 700.000000"
   id="svg3763"
   sodipodi:docname="icon2.svg"
   inkscape:version="0.92.3 (2405546, 2018-03-11)">
  <metadata
     id="metadata3769">
    <rdf:RDF>
      <cc:Work
         rdf:about="">
        <dc:format>image/svg+xml</dc:format>
        <dc:type
           rdf:resource="http://purl.org/dc/dcmitype/StillImage" />
        <dc:title></dc:title>
      </cc:Work>
    </rdf:RDF>
  </metadata>
  <defs
     id="defs3767" />
  <sodipodi:namedview
     pagecolor="#ffffff"
     bordercolor="#666666"
     borderopacity="1"
     objecttolerance="10"
     gridtolerance="10"
     guidetolerance="10"
     inkscape:pageopacity="0"
     inkscape:pageshadow="2"
     inkscape:window-width="1440"
     inkscape:window-height="853"
     id="namedview3765"
     showgrid="false"
     inkscape:zoom="0.66964309"
     inkscape:cx="466.6665"
     inkscape:cy="466.6665"
     inkscape:window-x="0"
     inkscape:window-y="22"
     inkscape:window-maximized="1"
     inkscape:current-layer="svg3763" />
  <path
     d="M347.4 4c-1.7.4-3.6 1-4.2 1.4-.6.3-5.4 7.6-10.7 16.2-5.4 8.5-10.2 15.7-10.9 15.9-6.9 2.1-5.8 2.8-22.6-15.4-4.7-5.1-9.8-9.9-11.4-10.8-3.5-1.8-8.6-1.1-11.1 1.6-.9 1.1-4.5 9.5-8 18.7l-6.3 16.8-4 1.5-4 1.4-10.2-7.4c-21.9-15.9-23.4-16.6-29.1-12.7-3.3 2.2-4.4 5.1-5.9 15.3-.7 4.4-1.4 8.9-1.5 10-.2 1.1-.6 3.8-.9 6-1.2 8.2-1.8 9.5-4.6 11-4.1 2.1-4.8 2-15.2-2.9-17.9-8.3-23.5-10.5-25.8-10.1-3.3.6-7 3.3-7.9 5.8-.8 2-.5 27.3.3 35.5.3 2.6-.3 3.7-2.7 5.8-3.6 3-2.6 3.1-24.2-2.1-16-3.7-19-3.8-22.4-.1-3.2 3.4-3.2 7 0 20 1.6 6.5 3.4 14.5 4 17.8 1.2 5.8 1.1 6-1.6 8.8-1.5 1.6-3.2 2.7-3.9 2.5-2.8-.9-34.8-1.4-37-.5-1.4.5-3.2 2-4.1 3.3-3.4 5.3-3.4 5.5 8.6 31.4 2.1 4.5 3.9 8.8 4 9.5.4 1.9-2.9 7.8-4.4 7.8-3.9.1-34.6 5.9-36.4 6.9-3.1 1.6-5.3 6.2-4.7 9.7.3 1.5 5.3 9.5 11.1 17.7l10.7 15-1.5 4c-1.5 4.3.6 3.2-23.6 12.2-12 4.4-13 5-14.9 8.7-2.5 4.9-.7 9.2 6.8 16 3.5 3.1 9.5 8.7 13.4 12.5 6.8 6.4 7.1 7 6.7 10.5-.6 4.5-.7 4.6-16.8 14.3C4.6 343.2 3 344.7 3 349.8c0 5.4 1.9 7.1 19.2 17.7 14.5 8.9 14.6 9 15.1 13 .4 4.4 1.5 3.2-18.2 21.5-9.3 8.6-11 11.9-8.7 17.3 1.7 4.2 2.7 4.8 21.6 11.7 8 2.9 15 5.7 15.6 6.2.7.5 1.5 2.5 1.9 4.4.6 3.3 0 4.5-9.5 17.6-5.6 7.7-10.5 15-10.9 16.2-1.6 4.6.2 9.6 4.1 11.7 1.7.9 33.7 6.9 37 6.9.4 0 1.6 1.6 2.6 3.7l1.9 3.6-7.3 15.9c-4 8.7-7.5 17.2-7.7 18.7-.6 3.7 2.4 8.8 5.9 10.1 1.4.6 7.1.8 12.7.5 23.5-1.1 25.6-.9 28.3 1.6 1.3 1.2 2.4 3.1 2.4 4.1 0 1-1.6 8.5-3.6 16.6-4.8 19.9-4.9 21.5-1.9 25.1 3.3 3.9 6.3 4.4 13.9 2.7 3.5-.9 7.6-1.7 9.1-2 1.4-.3 4.1-1 5.8-1.5 3-1 5.1-1.4 12.3-2.7 2.3-.5 3.7 0 5.9 1.8 3 2.7 2.9 1 2 30.8-.1 4.7.1 9.5.6 10.7 1.1 3 6.5 6.2 9.8 5.8 1.4-.2 10-3.7 19-7.8l16.3-7.5 3.4 2c1.9 1.1 3.4 2.1 3.4 2.2 0 .1.4 2.7 1 5.7.5 3 1.2 7.2 1.5 9.4.2 2.2.6 4.9.9 6 .2 1.1.7 4 1.1 6.5.4 2.5.9 5.3 1.1 6.4.6 3 3.3 6.6 5.9 7.6 5.1 1.9 8.3.2 28.5-14.7 7.6-5.7 8.9-6.3 12-5.8 1.9.4 4 1.2 4.6 1.8.6.7 3.7 8.3 7 17.1 3.2 8.7 6.6 16.9 7.6 18.1 2.4 3 7.9 4 11.5 2.1 1.5-.8 6.9-5.9 11.8-11.2 16.1-17.4 15.1-16.5 18.2-15.8 1.5.3 3.3.7 3.9.9.7.2 5.5 7.4 10.9 15.9 5.3 8.6 10.1 15.9 10.7 16.2.6.4 2.6 1 4.4 1.4 5.4 1.2 8.4-1.8 18.7-18.5 9-14.6 9.3-15 13.2-15.7 3.8-.6 4.2-.4 7.9 3.5 23 24.6 23.5 25.1 28.8 24.2 4.8-.8 7.1-3.8 10.8-14 9.3-25.3 8.8-24.4 13-25.6l3.9-1.2 13.7 9.9c16.9 12.1 15.7 11.4 19.6 11.9 4.6.6 9.5-3.3 10.4-8.3.9-4.8.8-4.5 3.4-20.5l2.3-13.8 3.5-1.8 3.5-1.8 16.9 7.8c18.6 8.4 21.2 8.9 25.8 4.3l2.5-2.5-.3-19.7-.3-19.8 2.8-2.4c2.8-2.4 3.4-2.4 15.3.5 25.5 6.2 27.1 6.2 31.2 1.6 1.5-1.7 2.8-4 2.8-5s-1.8-9.6-4-19.1c-2.2-9.5-3.8-18-3.5-19 1.3-4.2 4.1-5.3 12.7-5 27.4.8 30.5.7 33.2-1.9 5.1-4.8 4.7-7.1-5.8-29.3-2.5-5.3-4.8-10.8-5.1-12.1-.6-2.4 1.7-8.7 3.3-8.7.4 0 8.4-1.3 17.9-2.9 18.1-3 21.7-4.3 23.4-8.9 1.7-4.3 0-7.9-11.1-23.1L647.8 445l1.4-4.1 1.3-4.1 16.7-6.2c9.2-3.5 17.6-7.1 18.7-8 2.6-2.4 3.6-7.1 2.1-10.5-.6-1.5-5-6.4-9.8-10.8-18.2-16.9-18-16.6-17.3-20.9.6-3.7 1.2-4.2 15.9-13.4 8.3-5.2 15.9-10.5 16.8-11.8 2.1-3 2.1-7.2 0-10.4-1.3-2-14.6-11.2-20.1-13.8-.5-.3-3.6-2.2-6.7-4.2-4.6-3-5.8-4.3-5.9-6.5-.2-4.9.1-5.5 7.8-12.7 4.1-3.9 9.9-9.4 12.8-12.1 6.3-6 7.8-8.5 7.1-12.6-.7-4.6-3.1-6.5-12-9.9-28.7-11-26.5-9.8-27.7-14l-1.2-3.8L658 241c5.6-7.8 10.7-15.7 11.3-17.5 2-6.6-3.2-11.8-13.2-13-3-.4-6.1-.8-7-1-.9-.1-6.1-1-11.6-2-5.5-.9-10.1-1.7-10.1-1.8-.1-.1-1.1-1.7-2.2-3.5-1.7-2.9-1.8-3.7-.7-6 .8-1.5 4.2-8.8 7.6-16.2 7.2-15.6 7.8-19.6 3.5-23.9-2.5-2.4-3.2-2.6-11.9-2.6-5 0-13.8.2-19.5.5l-10.3.5-2.6-2.9-2.6-2.9L593 130c4.2-18.4 4.2-18.7 2.5-22.3-3-6.3-5.5-6.5-26.5-1.6l-18.2 4.2-2.6-2-2.7-2V86.2c0-19.6-.1-20.1-2.3-22.5-1.3-1.4-3.7-2.7-5.3-3.1-3.2-.6-4.4-.2-28.7 11-4.1 1.9-8 3.4-8.8 3.4-2 0-7.4-2.8-7.4-3.9 0-.5-1.3-8.9-3-18.7-2.4-14.9-3.3-18.1-5.2-20-2.7-2.7-7-3.7-10.3-2.4-2 .7-20.3 13.6-28 19.5-2.3 1.8-3.2 1.8-7.3.4-2.6-.9-3.5-2.2-5.8-8.2-11.2-29.6-11.3-29.9-16.4-31.2-4.4-1.1-8 1.3-16.9 10.7-17 18.2-16.3 17.6-20.6 16.9-4.1-.6-4.9-1.8-19.7-26.1-4-6.4-7.9-9-12.4-8zm11.4 63.6c17.2 11.3 9.6 37.9-10.8 37.8-11.6-.1-21.2-9.8-20.5-20.6.6-7.6 3.2-12.3 9.1-16.6 6-4.2 16.3-4.5 22.2-.6zm-47.9 40.1c28.3 30.2 30.1 31.5 41.8 28.9 3.6-.8 4.5-1.5 19.9-16.1 8.1-7.7 16.7-15.8 19.1-18.1l4.4-4.1 11.7 2.8c45.6 10.8 87.5 34.3 120.7 67.6 12.2 12.2 22.8 25.3 33 40.6 7.4 11.2 7.7 12 6.7 15-.5 1.8-6.2 14.9-12.5 29.2-6.3 14.3-11.7 27.3-12 29-.7 4.8 1.9 11.8 5.9 15.8 2.1 2 4.3 3.7 4.9 3.7.7 0 2.5.6 4.1 1.4 6.7 3.2 25.3 11.6 25.8 11.6.2 0 4.2 1.8 8.9 4 6 2.8 8.6 4.5 8.6 5.7 0 1 .2 9.4.4 18.6.2 9.2.1 18.2-.2 20l-.7 3.2-13.7.1c-7.6.1-14.1.4-14.4.8-.4.4-.8 5.9-1 12.2-.3 18.2-4.1 27.8-13.1 33.5-6.2 3.9-11.1 5.2-20.2 5.3-9.3 0-16.8-2.5-22-7.4-3-2.9-3.9-4.7-5-10-.7-3.6-1.4-7-1.5-7.5-1.6-7.4-4.6-15.9-8.7-24.4-4.4-9.1-6.1-11.5-13.7-19-4.7-4.7-10.4-10-12.5-11.6l-3.9-3.1 7.9-5.6c24.6-17.4 38.5-35.5 43-55.9.6-2.8.6-19.5 0-22.4-6.5-31.3-31.5-56.9-66.3-67.8-16.9-5.4-13.6-5.3-159.5-5.2-74.7 0-135.8-.2-135.8-.5 0-1 13.8-14.7 21.3-21.3 29.1-25.3 63.8-43.8 100.7-53.7 6.3-1.7 12.9-3.4 14.5-3.9 4-1.1 4.8-.5 13.4 8.6zM109.5 252.6c8.1 3.3 12.4 9.2 13 17.9.8 10.8-7.4 20.4-18.1 21.3-18.5 1.5-29.3-18.3-18-33.1 5.1-6.7 15.3-9.4 23.1-6.1zm493.8 1.8c2.1 1 5 3.4 6.4 5.3 13.1 17.1-5 40.1-24.6 31.3-5.2-2.4-7.7-5-10.3-10.9-4.4-9.6.3-21.1 10.7-26.4 3.9-2 12.9-1.7 17.8.7zm-426.2 1.3c.1.5.2 36.9.3 81l.1 80.3H169c-14.1.1-57.3.1-60.7.1-3.7-.1-3.9-.5-7.8-19.6-2.5-12.5-2.9-15.2-4.1-28.7-1.3-13.6-.7-46.9.8-48.3.4-.4 8.3-4 25.3-11.5 21.6-9.6 21.8-9.7 24.8-12.8 2.9-3 5.6-10.3 5.1-13.6-.6-4-1.6-7.2-3.9-12.1-3.8-8.2-6.5-14.4-6.5-15 0-.8 35-.6 35.1.2zm206.4 2.4c11.2 2.9 19.7 8.8 22.8 15.8 5.5 12.4-1 23.1-17.3 28.6-5 1.7-9.8 1.9-51.2 2.1-35.5.3-45.8.1-45.9-.9-.4-3.2-.5-45.3-.2-46 .6-1.1 87.2-.8 91.8.4zm-13.1 117.7c15.5 5.7 25 19.2 28.9 41.2.3 1.4 1.3 6.1 2.2 10.5.9 4.4 1.9 9.1 2.1 10.5 1.6 8.8 5.8 24.3 7.8 28.7 5.8 12.4 17.4 25.6 26.3 29.5 4.7 2.1 6.1 2.1 60 2.2 49.5 0 55.1.2 54.3 1.6-1.5 2.8-20.2 24.2-21.7 24.7-.8.3-6-.4-11.6-1.6-5.6-1.2-15.6-3.3-22.2-4.7-13.5-2.9-19.8-2.7-24.5.6-5.9 4.2-6.9 7-12.6 33.2-3 13.9-5.4 25.5-5.4 25.9 0 2.6-41.6 16.4-55.6 18.4-2.1.4-4.6.8-5.4 1-.8.3-3.2.7-5.2 1-2.1.3-5.3.7-7 1-32.6 4.5-71.7 1.1-105.8-9.2-10.7-3.2-30.6-10.8-32.2-12.2-.4-.3-2.8-10.3-5.3-22.1-6.9-32.7-7.8-35.1-15.6-39-5.2-2.7-9.2-2.5-25.5 1-7.6 1.7-17.4 3.7-21.8 4.6l-7.8 1.7-2.7-2.9c-4.8-5.3-13.7-15.9-16.4-19.5l-2.6-3.5 103.7.1c57 0 104.5-.3 105.5-.7 1.6-.8 1.7-3.7 1.7-38.9 0-32.4-.2-38-1.5-38.5-.8-.3-15.3-.7-32.2-.7l-30.8-.2v-46.2l36.5.1c34.6.2 36.8.3 42.4 2.4zM204.3 543.5c7.6 3.6 11.7 10.7 11.3 19.5-.8 16.6-20.3 25.3-33 14.8-10.1-8.3-10.2-22.8-.1-31.6 1.9-1.8 4.8-3.4 6.3-3.8 1.5-.3 3.2-.7 3.7-.9 2-.7 8.5.4 11.8 2zm305.5.9c10.7 5.5 14.4 20.2 7.5 29.9-8 11.5-25.3 11.9-33.3.7-3.2-4.5-4.7-12.9-3.1-18.2 1.6-5.1 8.5-12.3 13.3-13.6 4.5-1.2 12-.7 15.6 1.2z"
     id="path3761" />
  <path
     style="fill:#000000;stroke-width:1.49333286"
     d="m 460.99184,926.4629 c -2.4929,-0.92 -7.88696,-7.84706 -16.23444,-20.84827 -6.87562,-10.70878 -13.47561,-20.445 -14.66666,-21.63605 -1.19106,-1.19105 -4.37751,-2.16555 -7.08101,-2.16555 -4.33584,0 -6.72362,1.94443 -20.24954,16.48978 -16.38673,17.62175 -21.67855,21.4584 -27.56084,19.98203 -5.50156,-1.38079 -6.7454,-3.48726 -16.56592,-28.05472 -12.25426,-30.65584 -13.36086,-31.00822 -39,-12.41887 -19.62739,14.23063 -24.84519,16.74558 -30.16795,14.54081 -2.21267,-0.91652 -4.82797,-2.95529 -5.81178,-4.53062 -1.52326,-2.43914 -4.82091,-19.43413 -8.61213,-44.38392 -0.75992,-5.00111 -1.93931,-6.85105 -5.83195,-9.14777 l -4.87941,-2.8789 -11.05581,5.16264 c -34.04838,15.89934 -39.79266,17.24936 -46.18713,10.85489 -2.71731,-2.71731 -2.94867,-5.05507 -2.94867,-29.79424 v -26.84556 l -3.72675,-2.44187 c -4.2211,-2.76577 -6.34314,-2.53638 -30.46996,3.29367 -17.60886,4.25504 -25.97153,4.80344 -29.43358,1.93021 -5.31337,-4.40971 -5.27925,-8.31131 0.28929,-33.07289 6.0769,-27.02217 5.82516,-29.83963 -2.88098,-32.24352 -2.83535,-0.78286 -15.16651,-1.06437 -27.49036,-0.62756 -21.312556,0.7554 -22.495032,0.64572 -25.506804,-2.36605 -6.734659,-6.73466 -6.451023,-7.90098 12.129965,-49.87879 2.923102,-6.60382 2.975769,-7.39364 0.796596,-11.94667 l -2.33344,-4.87534 -23.643881,-4.27699 c -13.004133,-2.35236 -25.141846,-4.95953 -26.972695,-5.79372 -3.98281,-1.8147 -7.151905,-8.72409 -5.863432,-12.78372 0.508784,-1.60303 6.953789,-11.54325 14.322234,-22.08936 13.512462,-19.33975 15.412794,-24.19049 11.530508,-29.43241 -1.026667,-1.38623 -11.578915,-6.23782 -23.44944,-10.78133 -22.864836,-8.75161 -26.138536,-10.71051 -27.594589,-16.5119 -1.455831,-5.80049 2.467192,-11.26999 19.331913,-26.95264 23.60711,-21.95247 23.44896,-23.74487 -3.602756,-40.83199 C 7.6568286,475.26404 5.0275539,472.86013 5.0275539,466.6665 c 0,-6.22652 2.9608064,-8.94106 24.5214721,-22.48187 27.517049,-17.28161 27.560443,-17.89771 2.935372,-41.67678 C 21.04378,391.46028 14.277472,383.76 13.623222,381.04321 c -1.655516,-6.87459 3.034449,-11.47786 17.419719,-17.09772 35.512317,-13.8735 33.057504,-12.5864 35.042065,-18.37333 1.828833,-5.33284 1.773998,-5.45332 -10.419072,-22.89354 C 38.667427,298.365 37.536776,296.09092 39.768277,290.7036 c 2.445906,-5.90493 5.746967,-7.12364 31.948752,-11.79507 31.692901,-5.65041 31.975501,-6.17629 18.935934,-35.23713 -11.430313,-25.47435 -12.182856,-29.28536 -6.838218,-34.63 l 3.977949,-3.97795 26.213756,0.48908 c 25.98133,0.48473 26.23892,0.45799 29.05296,-3.01721 3.61104,-4.45945 3.65438,-3.74454 -1.64079,-27.06871 -8.98115,-39.5602 -6.93674,-41.63661 32.34702,-32.85333 11.02038,2.464 21.04918,4.48 22.28621,4.48 1.23705,0 3.81988,-1.5707 5.73963,-3.49045 3.43335,-3.43336 3.47769,-3.87 2.71058,-26.69545 -0.42893,-12.76274 -0.34045,-24.955812 0.19662,-27.095706 1.21724,-4.849845 8.78152,-9.027839 13.98187,-7.722635 2.07182,0.519995 12.68724,4.942678 23.58979,9.828185 10.90257,4.885507 20.85757,8.882736 22.12226,8.882736 1.26469,0 4.04701,-1.511995 6.18294,-3.359994 3.26829,-2.827705 4.22801,-5.60746 6.05806,-17.546661 4.72665,-30.836641 5.21429,-32.634929 9.92411,-36.597986 2.43283,-2.0471 5.68982,-3.721999 7.23774,-3.721999 2.7154,0 15.84091,8.393814 35.48481,22.692658 8.96902,6.528573 9.65947,6.771318 14.7854,5.198126 5.96222,-1.829857 5.46034,-0.918634 17.52347,-31.815901 5.50121,-14.090209 7.88756,-18.48367 10.7473,-19.786659 7.55851,-3.443887 9.6076,-2.211928 28.26201,16.991778 15.46835,15.923823 18.80822,18.66666 22.72974,18.66666 5.94803,0 6.63685,-0.764686 21.42922,-23.789482 13.07804,-20.356399 17.04863,-23.8322503 24.13032,-21.1236773 4.56241,1.7450153 6.86014,4.6062243 17.47988,21.7665003 18.41298,29.753296 19.33255,29.86692 43.17782,5.335189 26.97078,-27.7472287 28.75972,-27.2352852 44.03465,12.601463 3.77564,9.846835 8.00431,18.743336 9.39702,19.770002 5.4752,4.036138 10.41822,2.10651 29.69767,-11.593179 10.41804,-7.402913 20.5402,-13.860989 22.49367,-14.35128 4.02513,-1.010245 10.0296,2.307149 12.48705,6.898942 0.8775,1.639628 3.3022,13.231626 5.38822,25.759992 5.34544,32.104208 5.76846,32.313878 37.11955,18.398556 12.1515,-5.393503 23.51899,-9.791427 25.26107,-9.773164 1.74209,0.01826 4.84743,1.32259 6.90076,2.898502 3.71238,2.849217 3.73595,3.020999 4.1993,30.606384 0.60719,36.14882 -1.05413,34.59804 29.87514,27.88747 26.37908,-5.72335 32.07096,-5.94275 35.28087,-1.35997 3.35357,4.78791 2.89991,11.89667 -2.15533,33.77329 -5.32942,23.06315 -5.36266,23.74903 -1.35758,28.01225 3.05521,3.25212 3.67404,3.30621 28.74666,2.51285 24.19637,-0.76563 25.83107,-0.64175 29.3362,2.22333 5.6795,4.64242 4.70361,11.67737 -4.39823,31.70597 -11.94965,26.2952 -11.454,24.57492 -8.7279,30.29158 l 2.39571,5.02387 23.59908,3.93039 c 24.96561,4.15798 30.01431,6.24715 32.59337,13.4872 1.21404,3.40807 0.15963,5.72105 -8.44001,18.51412 -5.40506,8.04071 -12.28662,18.07031 -15.29237,22.28801 -5.30728,7.44723 -5.40341,7.81592 -3.3312,12.77541 1.96132,4.69409 3.62849,5.68726 20.62502,12.28679 23.30851,9.05039 29.17143,12.04107 31.26159,15.94655 3.17248,5.92785 0.10513,10.72736 -18.07612,28.28401 -24.06028,23.23369 -24.09194,25.78158 -0.49138,39.55146 5.59991,3.26729 14.1045,8.82265 18.89908,12.34523 8.47384,6.22575 8.70467,6.58041 8.26106,12.69333 -0.45497,6.26949 -0.51426,6.32726 -19.47808,18.98196 -24.37588,16.2662 -25.0316,16.86095 -25.0316,22.70405 0,4.19222 2.30205,7.03626 17.84092,22.04128 10.72459,10.35614 18.22093,18.81056 18.79364,21.19556 2.03691,8.48261 -3.71821,12.45501 -34.39456,23.74042 -15.1757,5.58293 -16.16594,6.27785 -18.35688,12.88219 -1.50007,4.52177 -1.00379,5.54869 10.31936,21.35332 6.54238,9.13171 13.32899,19.35384 15.08138,22.71587 2.8918,5.54808 2.98453,6.47247 1.00356,10.00668 -3.19609,5.70208 -7.86591,7.37549 -33.02553,11.83457 l -22.69027,4.02143 -2.03992,5.35969 c -1.9837,5.21201 -1.78685,5.92441 7.14509,25.85703 10.90134,24.32757 11.89024,28.63833 7.74524,33.76232 -2.96148,3.66097 -3.27479,3.70359 -30.60442,4.16294 -36.53722,0.61412 -34.57745,-1.47195 -28.01701,29.82236 2.7065,12.91043 5.21952,24.84645 5.58449,26.52447 0.40842,1.87775 -0.77702,4.6054 -3.08276,7.09334 -4.96618,5.35858 -9.75055,5.26235 -36.35472,-0.73116 l -21.26578,-4.79086 -4.12088,3.08711 -4.1209,3.0871 0.56805,26.84141 0.56805,26.84141 -4.69292,3.34167 c -5.96716,4.24899 -9.19377,3.60702 -30.78983,-6.12594 -24.3848,-10.98979 -24.19959,-10.93823 -29.76296,-8.28523 l -4.80678,2.29219 -4.01414,24.41566 c -3.7615,22.87901 -4.29637,24.67411 -8.49868,28.52231 -2.46649,2.25867 -5.71376,4.10667 -7.21613,4.10667 -3.10561,0 -14.67414,-7.23954 -32.77574,-20.51091 -11.4326,-8.38192 -12.78235,-8.99014 -17.17333,-7.73844 -2.62105,0.74715 -5.47326,2.31644 -6.33824,3.48731 -0.86498,1.17087 -4.86329,10.90672 -8.88512,21.63522 -8.24601,21.99681 -11.27828,26.59801 -18.43988,27.98089 -4.84517,0.93559 -5.58295,0.36553 -23.18883,-17.9172 -24.89071,-25.8476 -25.38391,-25.82228 -42.92744,2.20486 -14.31014,22.86157 -18.51998,26.57758 -26.69265,23.56148 z m 36.58665,-125.31213 c 19.98236,-2.21695 43.4694,-6.91995 63.21384,-12.65781 16.62529,-4.83141 39.2048,-12.8866 43.11079,-15.37969 0.98522,-0.62884 4.52448,-13.89264 7.86501,-29.4751 9.00654,-42.01253 11.27853,-47.88657 20.15012,-52.09643 7.1757,-3.40508 13.40424,-2.97599 41.70154,2.87292 32.72787,6.76469 33.17019,6.75237 40.71265,-1.1349 10.85197,-11.34811 23.15968,-26.77068 22.1618,-27.77054 -0.53579,-0.53687 -34.35103,-1.31212 -75.14497,-1.72278 -84.2718,-0.84835 -77.98005,0.11886 -92.28601,-14.18708 -10.54944,-10.54946 -18.74975,-23.60073 -22.70711,-36.1397 -1.7982,-5.69762 -6.21825,-24.08893 -9.82232,-40.86957 -3.60409,-16.78065 -7.97309,-34.20628 -9.70889,-38.72361 -6.08536,-15.83676 -17.33303,-27.35609 -32.5072,-33.29235 -5.12201,-2.00377 -15.28256,-2.63077 -56.4037,-3.48064 l -50.15629,-1.03661 0.40373,31.97146 0.40372,31.97146 42.04901,0.39637 42.04901,0.39634 1.04318,13.91405 c 1.31657,17.56057 0.36212,84.71767 -1.23949,87.21321 -0.9443,1.47135 -30.59087,1.86667 -139.98983,1.86667 -88.27744,0 -138.79181,0.52504 -138.79181,1.44258 0,0.79343 5.20799,7.58787 11.57333,15.09876 6.36533,7.5109 12.62524,14.98012 13.91093,16.59828 2.31086,2.90846 2.67447,2.87239 31.78783,-3.1521 33.86572,-7.00791 38.04192,-7.27033 45.85136,-2.88117 7.74453,4.35266 10.13748,10.51926 18.45579,47.56029 5.14931,22.92964 7.61181,31.22817 9.81109,33.063 4.4919,3.7475 38.53837,15.82069 58.03366,20.57927 15.00485,3.66251 40.67928,7.87311 58.46925,9.58895 11.97102,1.1546 43.49089,0.8543 55.99998,-0.53353 z m 178.04168,-24.63382 c 22.38461,-6.64751 26.26898,-36.28063 6.50188,-49.60166 -4.02269,-2.71089 -7.10096,-3.39554 -15.26682,-3.39554 -9.68454,0 -10.55105,0.29169 -16.3025,5.48777 -7.88967,7.12784 -10.36095,12.13714 -10.36095,21.00164 0,13.13347 8.22901,24.58356 19.5967,27.26746 7.29734,1.72291 7.50561,1.71292 15.83169,-0.75967 z m -399.59536,-4.42312 c 11.03578,-7.30313 14.85997,-22.89263 8.85816,-36.11074 -6.08189,-13.39442 -26.06834,-18.91275 -38.5596,-10.64642 -11.71722,7.75409 -16.34797,20.9771 -11.65223,33.27271 2.6794,7.01592 12.18396,16.47685 17.80155,17.71987 6.7902,1.50246 17.90085,-0.49557 23.55212,-4.23542 z M 739.49179,554.82965 c 16.53958,-6.48797 24.64661,-24.34 24.64661,-54.2729 v -9.59096 l 6.92842,-0.94965 c 3.81064,-0.5223 12.47033,-0.94964 19.24378,-0.94964 h 12.31533 l 1.02246,-6.81819 c 0.56234,-3.75 0.54551,-16.83771 -0.0373,-29.08383 -0.97099,-20.39917 -1.32416,-22.43627 -4.21288,-24.30079 -3.87732,-2.50254 -57.28075,-26.4105 -58.99346,-26.4105 -0.67843,0 -3.49552,-2.31347 -6.2602,-5.14103 -4.98604,-5.09945 -8.50071,-12.32869 -8.71915,-17.93424 -0.0624,-1.60341 7.27838,-20.14536 16.31305,-41.20436 9.03466,-21.05899 16.42666,-40.05847 16.42666,-42.22106 0,-8.68552 -31.89451,-50.67944 -56.96688,-75.00547 -44.53779,-43.21202 -97.80845,-72.41414 -159.20746,-87.27495 l -13.82772,-3.34681 -14.1769,13.23734 c -37.59913,35.1073 -40.51244,37.45795 -47.77337,38.5468 -9.96295,1.49404 -15.61841,-2.45099 -41.41376,-28.88864 -12.10341,-12.40478 -22.93062,-22.55415 -24.06048,-22.55415 -4.18149,0 -44.68867,12.09884 -58.07059,17.34475 -29.79008,11.67816 -67.42245,33.35127 -89.97429,51.81771 -9.88115,8.09113 -38.10169,35.60511 -38.10169,37.14775 0,0.66536 71.73597,1.24395 159.41327,1.28575 87.67731,0.0418 172.85328,0.65108 189.27994,1.35394 26.22474,1.12211 31.41446,1.77169 42.55998,5.32719 42.2341,13.4729 72.92839,40.72502 86.05501,76.40444 3.84953,10.4634 4.28877,13.51108 4.26396,29.58506 -0.0258,16.73607 -0.3356,18.63215 -4.68846,28.6993 -8.83054,20.42293 -25.782,39.84405 -50.53719,57.89991 -6.57066,4.79249 -12.18523,8.8988 -12.47681,9.12513 -0.29159,0.22631 2.06041,2.59596 5.22667,5.26588 3.16624,2.66991 10.56071,9.6489 16.43215,15.50885 14.72219,14.69341 24.86277,34.91241 30.5649,60.94245 3.4289,15.65285 5.56021,19.28365 14.33999,24.42896 10.32739,6.05224 31.7179,7.02683 44.46645,2.02596 z M 236.99192,447.99984 V 339.73321 h -23.89333 c -16.61356,0 -23.89332,0.50865 -23.89332,1.66943 0,0.91819 2.60432,7.47019 5.78741,14.56 3.18307,7.08982 6.24928,15.02369 6.81381,17.63084 1.40039,6.46738 -1.76505,16.18436 -6.91134,21.21582 -2.41185,2.35802 -16.32613,9.50624 -32.22078,16.55285 -15.38666,6.82141 -29.41726,13.28878 -31.17911,14.37192 -7.13491,4.3864 -6.10102,63.3065 1.82406,103.95123 2.06784,10.60518 4.50799,20.92443 5.42254,22.93166 l 1.66283,3.64951 h 48.29362 48.29361 z M 522.4787,402.6925 c 28.74344,-11.38375 29.83396,-39.82407 2.07053,-53.99929 l -10.23688,-5.22666 -63.2469,-0.4199 -63.24692,-0.41989 v 31.28211 c 0,23.59322 0.45881,31.48346 1.86667,32.10131 1.02666,0.45055 29.41865,0.64347 63.09331,0.42872 59.49051,-0.3794 61.46692,-0.48563 69.70019,-3.7464 z M 151.35518,385.13409 c 16.44739,-9.40019 16.44739,-36.56775 0,-46.02224 -8.3084,-4.77594 -14.42338,-5.86736 -21.77787,-3.88701 -16.15787,4.35087 -25.33827,22.62343 -18.99446,37.80632 2.49069,5.96106 11.57697,14.13847 17.04983,15.34441 2.2436,0.49439 4.75127,1.12153 5.57261,1.39364 3.18966,1.05682 12.23061,-1.25207 18.14989,-4.63512 z m 656.83473,0.2484 c 15.74821,-12.01174 13.92957,-38.26943 -3.21402,-46.4046 -8.45095,-4.01023 -20.81917,-3.7734 -27.78404,0.53203 -17.55444,10.85152 -17.28781,38.17084 0.4653,47.6742 9.41224,5.03844 22.58394,4.26122 30.53276,-1.80163 z M 473.96129,139.53162 c 15.59512,-5.89226 22.14276,-25.78506 13.39831,-40.706328 -9.02049,-15.392298 -31.19505,-17.467599 -43.31371,-4.053697 -9.85056,10.903405 -10.65937,25.590055 -1.95519,35.503555 8.19114,9.32919 21.47027,13.18597 31.87059,9.25647 z"
     id="path3771"
     inkscape:connector-curvature="0"
     transform="scale(0.75000026)" />
  <path
     style="fill:#000080;stroke-width:1.49333286"
     d="m 440.08518,800.28227 c -21.73285,-2.53937 -41.31735,-5.85478 -56.53371,-9.57049 -17.81772,-4.35092 -53.01857,-16.50933 -57.52582,-19.86947 -1.52944,-1.14018 -4.53433,-11.39814 -8.39426,-28.6559 -10.17465,-45.49089 -11.1837,-48.05329 -20.86851,-52.99411 -8.12983,-4.14753 -12.30934,-3.86645 -45.18196,3.03856 l -28.77566,6.04442 -7.10977,-7.91109 c -3.91037,-4.35109 -10.1603,-11.76153 -13.88875,-16.46764 l -6.77898,-8.55654 138.83134,-0.40345 c 76.35723,-0.2219 139.39115,-0.96346 140.07537,-1.6479 1.51707,-1.51758 1.67923,-97.74904 0.17089,-101.42219 -0.98602,-2.40121 -4.47083,-2.61333 -42.93332,-2.61333 h -41.86018 v -30.83893 -30.83893 l 49.17923,0.81667 49.17924,0.81668 8.68741,3.96698 c 9.35391,4.27131 18.19662,11.87173 23.54538,20.23754 5.55467,8.68785 9.21281,20.42119 14.9063,47.81127 7.37189,35.46449 10.67462,46.88024 16.72995,57.82642 6.41004,11.58738 19.69881,26.11128 28.77,31.44405 l 6.86909,4.03821 71.67998,0.41545 c 39.42398,0.22848 72.55717,0.72567 73.62931,1.10485 2.65122,0.93764 1.54818,2.59186 -12.32491,18.48369 -10.26674,11.76071 -12.50596,13.596 -16.58836,13.596 -2.59571,0 -16.40669,-2.41358 -30.69108,-5.36353 -47.40482,-9.7898 -50.12192,-7.82284 -61.04279,44.19018 -3.36279,16.016 -6.69199,30.51556 -7.39825,32.22126 -2.42314,5.8522 -50.83377,21.67378 -84.46387,27.60449 -17.21416,3.03574 -65.68326,5.15714 -79.89331,3.49678 z"
     id="path3797"
     inkscape:connector-curvature="0"
     transform="scale(0.75000026)" />
  <path
     style="fill:#000080;stroke-width:1.49333286"
     d="m 248.89372,772.4264 c -16.26535,-8.21701 -19.60664,-27.30137 -7.14658,-40.81894 7.22754,-7.84095 14.40724,-10.32352 23.77132,-8.21955 11.85139,2.66283 19.28959,10.80924 20.39751,22.33961 0.97485,10.14544 -0.26969,14.15649 -6.549,21.10693 -8.38775,9.28425 -19.22714,11.27331 -30.47325,5.59195 z"
     id="path3799"
     inkscape:connector-curvature="0"
     transform="scale(0.75000026)" />
  <path
     style="fill:#000080;stroke-width:1.49333286"
     d="m 140.13533,552.15981 c -2.55248,-4.80453 -9.1199,-41.22308 -10.83913,-60.10665 -2.06256,-22.65456 -0.82503,-60.86586 2.06482,-63.75571 1.07359,-1.07359 15.36775,-7.99221 31.76478,-15.37471 32.08646,-14.4464 36.64924,-17.73035 39.53736,-28.45601 2.0953,-7.78133 1.09678,-12.4459 -6.1398,-28.68223 -3.20362,-7.18779 -5.82476,-13.40379 -5.82476,-13.81333 0,-0.40954 10.08,-0.74462 22.39999,-0.74462 h 22.39999 v 106.77329 106.7733 h -46.98744 c -43.22548,0 -47.0986,-0.20923 -48.37581,-2.61333 z"
     id="path3801"
     inkscape:connector-curvature="0"
     transform="scale(0.75000026)" />
  <path
     style="fill:#000080;stroke-width:1.49333286"
     d="m 130.21862,387.62632 c -6.94427,-1.67586 -10.7271,-4.16574 -15.16123,-9.97918 -5.7685,-7.56288 -6.50112,-19.86052 -1.67779,-28.1631 6.28204,-10.81353 17.92909,-15.86192 29.44232,-12.76173 25.77342,6.94006 26.07479,43.60597 0.41699,50.73184 -6.15446,1.70926 -6.62524,1.71549 -13.02029,0.17217 z"
     id="path3803"
     inkscape:connector-curvature="0"
     transform="scale(0.75000026)" />
  <path
     style="fill:#000080;stroke-width:1.49333286"
     d="m 708.74017,556.29007 c -15.38089,-2.69754 -22.6974,-9.76535 -25.90783,-25.02717 -3.16383,-15.04036 -7.47671,-27.47879 -14.47658,-41.75081 -5.11614,-10.43129 -8.33482,-14.48979 -21.70253,-27.3652 -8.63251,-8.3146 -15.46582,-15.3328 -15.18513,-15.59598 0.28069,-0.26319 5.97188,-4.51692 12.64711,-9.45272 34.0894,-25.20649 52.05291,-52.13375 53.84792,-80.7179 1.82966,-29.136 -8.57355,-54.1087 -32.4405,-77.87284 -15.92896,-15.86034 -32.61803,-25.96053 -55.50018,-33.58859 l -16.87066,-5.62405 -38.82665,-1.22037 c -21.35466,-0.6712 -106.36263,-1.28484 -188.9066,-1.36365 l -150.07995,-0.14329 15.54063,-14.98145 c 31.93513,-30.78603 67.24578,-53.75414 108.54038,-70.60101 19.67919,-8.02848 58.25903,-19.21463 62.08316,-18.0009 1.48567,0.47153 10.60649,9.25396 20.26848,19.51651 9.662,10.26255 21.17752,21.45338 25.59005,24.86852 7.19947,5.57212 8.8413,6.1975 15.99903,6.09403 5.02404,-0.0726 9.51636,-1.12056 12.13723,-2.83129 2.28852,-1.49381 15.12697,-13.10943 28.52989,-25.8125 l 24.36895,-23.09649 21.02223,5.48571 c 71.89783,18.76159 131.13853,57.22454 180.12272,116.94752 11.25667,13.72445 27.1304,38.26473 27.1304,41.9427 0,1.96373 -7.01901,19.88043 -15.59779,39.81487 -8.57878,19.93444 -16.02098,37.93058 -16.53821,39.99142 -1.43755,5.72763 1.70289,14.97174 7.10896,20.92573 3.77716,4.15999 11.06034,8.072 32.52416,17.46974 39.53027,17.30796 36.63374,14.89329 37.81419,31.52358 1.21517,17.11947 1.23305,33.94004 0.0408,38.38897 -0.82987,3.09668 -1.79379,3.37026 -12.2996,3.49083 -6.26953,0.072 -14.75916,0.57595 -18.86582,1.12 l -7.46667,0.98917 -1.01095,17.19919 c -1.28938,21.93603 -4.76732,31.92355 -13.92318,39.98286 -9.38797,8.26362 -24.8994,11.89367 -39.71743,9.29486 z"
     id="path3805"
     inkscape:connector-curvature="0"
     transform="scale(0.75000026)" />
  <path
     style="fill:#000080;stroke-width:1.49333286"
     d="m 390.42113,404.55801 c -0.6101,-0.61009 -1.10927,-14.43726 -1.10927,-30.72703 v -29.61777 h 60.42396 c 56.84779,0 60.8983,0.17748 68.43847,2.99861 26.03905,9.74246 33.10196,33.86281 14.14878,48.31911 -11.51718,8.78458 -12.91167,8.95232 -79.5553,9.56936 -33.68056,0.31184 -61.73655,0.0678 -62.34664,-0.54228 z"
     id="path3807"
     inkscape:connector-curvature="0"
     transform="scale(0.75000026)" />
  <path
     style="fill:#000080;stroke-width:1.49333286"
     d="m 452.77851,136.90167 c -14.13103,-6.68679 -19.19673,-22.08162 -11.90552,-36.18127 7.80361,-15.090514 31.13482,-17.884627 42.38136,-5.075531 10.64939,12.128991 9.02339,29.231161 -3.702,38.937291 -7.03262,5.36404 -18.28061,6.33849 -26.77384,2.31951 z"
     id="path3809"
     inkscape:connector-curvature="0"
     transform="scale(0.75000026)" />
  <path
     style="fill:#000080;stroke-width:1.49333286"
     d="m 780.59577,387.34658 c -8.68852,-3.46661 -14.96404,-13.73344 -14.96404,-24.48137 0,-8.28008 2.61614,-13.71944 9.50961,-19.77199 9.40286,-8.25582 24.2541,-7.71408 34.47214,1.25748 12.81103,11.24823 10.02706,32.96355 -5.33277,41.59626 -5.9015,3.31683 -17.20554,3.98482 -23.68494,1.39962 z"
     id="path3811"
     inkscape:connector-curvature="0"
     transform="scale(0.75000026)" />
  <path
     style="fill:#000000;stroke-width:1.49333286"
     d="m 658.80513,775.29945 c -11.28197,-4.36281 -17.12002,-13.13967 -17.12002,-25.73807 0,-6.06862 0.89118,-8.90377 4.26101,-13.55568 6.38045,-8.80796 11.35863,-11.4819 21.20361,-11.38917 10.35447,0.0975 16.69228,3.2032 21.56593,10.56777 10.23245,15.46228 3.70802,34.22834 -14.02673,40.34475 -6.16691,2.12685 -9.93085,2.07245 -15.8838,-0.2296 z"
     id="path3813"
     inkscape:connector-curvature="0"
     transform="scale(0.75000026)" />
  <path
     style="fill:#ffffff;stroke-width:1.49333286"
     d="m 460.99184,926.48682 c -2.45595,-0.91029 -7.52915,-7.32629 -14.82714,-18.75167 -14.76464,-23.11481 -17.2354,-25.92212 -22.81457,-25.92212 -3.81417,0 -7.24496,2.79774 -21.89392,17.85406 -26.17171,26.89951 -28.79526,26.45342 -42.11967,-7.16165 -4.60716,-11.62298 -9.59559,-22.47963 -11.08543,-24.12588 -4.84403,-5.3526 -9.70481,-3.76028 -27.79464,9.10513 -20.78115,14.77946 -25.62096,17.0917 -31.05962,14.83895 -2.17492,-0.90088 -4.78652,-2.9704 -5.80356,-4.59894 -1.01703,-1.62854 -3.62466,-13.65628 -5.79471,-26.72832 l -3.94555,-23.76733 -4.89253,-2.63479 c -4.81652,-2.59387 -5.03903,-2.56998 -14.32388,1.53769 -37.88124,16.75886 -39.8943,17.28704 -46.76469,12.26967 -2.75112,-2.0091 -3.04555,-4.37738 -3.73333,-30.02914 l -0.74667,-27.84802 -3.92472,-2.37785 c -3.68087,-2.23012 -5.20647,-2.07881 -24.554,2.43519 -22.65712,5.28617 -30.78585,5.99233 -34.4049,2.98879 -5.24236,-4.35078 -5.22254,-8.26188 0.16591,-32.72781 2.87342,-13.04661 5.2244,-24.42954 5.2244,-25.2954 0,-0.86587 -1.344,-2.9183 -2.98667,-4.56097 -2.75911,-2.75911 -4.97778,-2.98666 -29.11999,-2.98666 -24.029997,0 -26.370647,-0.23732 -29.082005,-2.94868 -6.432146,-6.43216 -5.896425,-8.68713 11.296441,-47.54934 4.071774,-9.20373 4.110674,-9.54615 1.611266,-14.18667 -2.485439,-4.61459 -3.123576,-4.85666 -21.566785,-8.181 -32.203575,-5.80461 -32.993823,-6.0456 -35.459414,-10.81353 -1.217045,-2.35351 -2.21281,-5.28083 -2.21281,-6.50515 0,-1.22433 6.383998,-11.71335 14.186662,-23.30893 7.802664,-11.59558 14.186662,-22.5948 14.186662,-24.44267 0,-5.73584 -3.153879,-7.92021 -21.653326,-14.99716 C 21.1698,565.91266 17.118755,563.73775 14.740658,558.76824 11.608177,552.22227 14.309832,547.96811 33.268685,529.59302 56.914287,506.67549 56.812392,506.0498 26.342434,487.06234 7.9489702,475.60038 5.0275539,472.77026 5.0275539,466.41355 c 0,-5.88911 4.1887522,-9.76994 23.0187091,-21.32653 28.622357,-17.56653 28.789797,-18.89036 5.243152,-41.45381 -18.247331,-17.4854 -21.794881,-22.83896 -19.081132,-28.79498 2.290475,-5.02705 5.913746,-7.02071 27.157036,-14.94292 19.315909,-7.20342 25.386658,-11.44312 25.386658,-17.72958 0,-1.85583 -4.211251,-9.37835 -9.358336,-16.71671 -12.46803,-17.77605 -19.014988,-28.17507 -19.014988,-30.20292 0,-3.68685 3.525414,-9.03894 6.995343,-10.61994 2.023633,-0.92203 13.205527,-3.4212 24.848652,-5.55369 23.791287,-4.35752 25.948524,-5.16789 27.979853,-10.51069 1.178163,-3.0988 0.304014,-6.41793 -4.793959,-18.20253 -15.355311,-35.49573 -15.366594,-35.54506 -9.478897,-41.43276 3.724923,-3.72491 3.826816,-3.73681 29.871015,-3.48622 27.0626,0.2604 29.48871,-0.21187 31.35888,-6.10425 0.47845,-1.50747 -1.17552,-11.88921 -3.6755,-23.07051 -9.03625,-40.41517 -6.78647,-42.74135 32.54682,-33.65223 22.75571,5.25839 22.32083,5.23334 27.10036,1.56106 l 3.71262,-2.85253 -0.47233,-24.68084 c -0.25978,-13.57446 -0.0348,-26.059245 0.49988,-27.743964 1.3207,-4.161155 9.09183,-7.991941 13.81013,-6.807722 2.07237,0.52013 11.92365,4.554773 21.89175,8.965872 23.80951,10.536224 24.94063,10.782914 29.77648,6.493953 3.49217,-3.097244 4.31474,-5.950499 7.67305,-26.6158 3.51877,-21.652638 4.05249,-23.411727 8.26889,-27.253324 2.47903,-2.258666 5.73655,-4.106665 7.23891,-4.106665 3.057,0 16.18234,8.181497 32.58145,20.309217 5.99736,4.435258 12.22317,8.064106 13.83513,8.064106 7.96853,0 9.82583,-2.580446 19.27352,-26.777697 7.49069,-19.185011 9.88185,-23.833942 12.98644,-25.248494 7.63956,-3.480817 9.6465,-2.291186 28.56616,16.93287 25.34114,25.748846 24.18494,25.933347 45.3914,-7.243374 16.60637,-25.98006098 21.27711,-26.29351602 36.70508,-2.463289 22.83125,35.265447 22.47028,35.162779 44.26776,12.590926 17.38381,-18.001392 23.28622,-22.29168 28.77339,-20.914489 4.85285,1.217988 8.01403,6.618263 16.34699,27.925809 3.76503,9.62727 8.20717,19.235189 9.87142,21.350932 5.07712,6.454512 9.23359,5.135242 30.30973,-9.620343 10.57969,-7.406932 20.821,-13.865008 22.75846,-14.351282 3.95734,-0.993226 10.00418,2.321328 12.39928,6.796619 0.84524,1.579333 3.24909,12.835329 5.34189,25.013325 3.33912,19.430323 4.28034,22.566642 7.6859,25.610953 4.81412,4.303441 5.37501,4.173151 31.17538,-7.241505 11.09015,-4.906532 21.65518,-8.906023 23.47784,-8.88776 1.82266,0.01826 4.99393,1.322478 7.04726,2.898254 3.69312,2.834186 3.74138,3.164939 4.48,30.704522 0.67987,25.34907 1.00598,28.02873 3.64542,29.95507 3.80768,2.77896 3.40629,2.81516 26.22124,-2.36441 39.48924,-8.96504 41.81836,-6.63592 32.85332,32.85333 -5.3243,23.4525 -5.32893,23.54385 -1.40323,27.72257 2.99394,3.18689 3.76788,3.25469 28.74666,2.51822 24.18479,-0.71305 25.88464,-0.58162 29.38185,2.27193 5.96375,4.86613 4.79294,11.90858 -5.8871,35.41064 -13.40248,29.49302 -13.03775,30.17079 19.1698,35.6213 23.89913,4.04448 29.00563,6.0329 31.92008,12.42943 2.10352,4.61673 0.1441,8.40256 -16.31873,31.52917 -6.05367,8.50408 -11.13424,15.92276 -11.29016,16.48597 -0.15592,0.56323 0.15584,3.09894 0.69283,5.63492 1.06844,5.04591 5.23074,7.34519 31.01463,17.13269 20.52165,7.78995 25.14574,12.72321 20.41093,21.77558 -1.22765,2.34712 -9.68234,11.44116 -18.78819,20.20898 -22.82976,21.98225 -22.76142,23.23287 2.11059,38.62874 8.21333,5.08408 17.48787,11.26546 20.61008,13.73639 5.14304,4.0702 5.63445,5.07178 5.22667,10.65298 -0.44269,6.05894 -0.7329,6.35075 -17.62342,17.72054 -25.3268,17.04862 -26.87999,18.42213 -26.87999,23.77035 0,3.89812 2.6876,7.20823 17.83251,21.963 18.87349,18.38728 21.59851,22.90922 17.53912,29.10462 -2.23964,3.41813 -14.71578,9.3508 -38.08629,18.11086 -11.0112,4.12737 -13.712,6.90877 -13.712,14.12116 0,1.48635 5.03081,9.8043 11.1796,18.48434 6.14878,8.68004 12.65053,18.60394 14.44833,22.05309 2.97224,5.70237 3.07076,6.6244 1.08615,10.16512 -3.23223,5.76655 -8.52877,7.6635 -33.17309,11.88091 l -22.3202,3.81968 -2.01031,4.81135 c -2.36383,5.65743 -1.76591,7.73658 9.07561,31.55836 8.6423,18.98951 9.57378,23.80606 5.56286,28.76474 -2.94654,3.64279 -3.41443,3.71016 -30.87814,4.44551 -36.82575,0.98601 -34.55018,-2.24966 -25.98517,36.94901 2.37658,10.87661 4.32105,20.35448 4.32105,21.06192 0,0.70745 -1.64791,3.06438 -3.66203,5.23765 -4.88944,5.2758 -9.8835,5.17134 -36.31821,-0.75962 l -21.31356,-4.78198 -4.0731,3.04233 -4.07308,3.04234 0.53393,26.85611 0.53393,26.85611 -4.22714,3.32506 c -5.65166,4.44561 -9.67057,3.57316 -34.7804,-7.55038 -29.23416,-12.9506 -29.72354,-12.66669 -35.12089,20.37473 -3.6489,22.33783 -4.19434,24.16068 -8.37809,27.99999 -2.4613,2.25867 -5.79185,4.10667 -7.40123,4.10667 -2.59092,0 -16.38976,-8.74179 -37.58418,-23.81022 -5.84848,-4.15805 -7.789,-4.79048 -12.17452,-3.96774 -5.95129,1.11646 -7.11068,3.11755 -16.8611,29.10208 -6.49383,17.30586 -11.51878,24.06254 -17.89532,24.06254 -3.34819,0 -7.72009,-3.63116 -22.47463,-18.66666 -25.11865,-25.59697 -24.02827,-25.73335 -44.48997,5.56486 -10.75923,16.45731 -15.87538,22.2208 -19.47924,21.94389 -0.84392,-0.0648 -3.21439,-0.74057 -5.26772,-1.50162 z m 58.23998,-128.35489 c 28.36155,-4.90209 80.84135,-20.92345 85.01668,-25.9544 0.83602,-1.00735 4.84322,-16.73666 8.90486,-34.95402 7.9284,-35.56057 10.46017,-41.74091 18.70098,-45.65144 7.26525,-3.44758 13.45524,-3.02895 41.87273,2.83191 13.92709,2.87234 27.51049,5.22244 30.18534,5.22244 4.24627,0 6.31573,-1.65796 16.30978,-13.06666 13.32173,-15.20744 16.35157,-19.47511 14.87581,-20.95327 -0.58941,-0.59036 -34.11242,-1.40939 -74.49559,-1.82005 l -73.42395,-0.74667 -6.94564,-4.08307 c -12.9664,-7.62242 -27.56235,-26.9761 -33.43463,-44.33308 -1.99545,-5.89805 -6.02287,-22.28124 -8.9498,-36.4071 -10.67707,-51.52922 -17.29246,-64.21525 -39.52323,-75.79185 -6.10703,-3.18021 -9.37622,-3.59656 -35.83999,-4.56433 -16.01599,-0.5857 -39.36798,-1.12391 -51.89331,-1.19604 l -22.77333,-0.13114 v 31.15198 31.15199 l 7.84,0.94169 c 4.312,0.51793 23.40366,0.94754 42.42593,0.95467 l 34.58593,0.0134 1.0225,12.32 c 1.32388,15.95133 0.35961,86.41908 -1.21586,88.8533 -0.95222,1.47128 -30.60638,1.86667 -139.99995,1.86667 -76.3355,-4.6e-4 -138.79181,0.55609 -138.79181,1.23633 0,1.42789 22.0172,28.14212 26.27178,31.87646 2.67843,2.35089 4.53952,2.15175 31.22153,-3.34083 32.79159,-6.75024 37.83866,-7.04512 45.63014,-2.66607 7.65707,4.30351 10.2193,10.69638 17.87021,44.58684 8.53325,37.79892 7.56097,36.00023 22.59472,41.79998 35.38587,13.65123 59.56445,19.25627 105.7982,24.52595 13.70168,1.56169 58.32308,-0.59065 76.15997,-3.67363 z m 161.27994,-23.69564 c 2.87467,-1.45706 7.23147,-5.48731 9.68177,-8.95612 6.2105,-8.7919 6.33608,-20.74476 0.31357,-29.84539 -6.11299,-9.23735 -11.74575,-12.10277 -23.80437,-12.10945 -9.51229,-0.006 -10.41535,0.30128 -16.15,5.48219 -7.85752,7.09878 -10.36095,12.13579 -10.36095,20.84658 0,22.00626 20.61069,34.57214 40.31998,24.58219 z m -407.11327,-0.90453 c 18.66841,-8.85875 19.03157,-38.74925 0.5861,-48.24162 -27.57554,-14.19086 -54.16643,18.19197 -34.31278,41.78669 8.32012,9.88791 21.26946,12.36628 33.72668,6.45493 z M 735.91557,556.02962 c 19.35178,-6.59594 28.08964,-23.93361 28.19325,-55.94107 l 0.0296,-9.13795 5.59999,-0.92561 c 3.08,-0.50909 11.72943,-0.93302 19.22094,-0.94205 l 13.62095,-0.0164 1.00516,-7.57729 c 0.94226,-7.10317 -0.0653,-41.75057 -1.41035,-48.49725 -0.69241,-3.47308 -1.95936,-4.14794 -38.03669,-20.26088 -16.44591,-7.34513 -27.92618,-13.42251 -30.96983,-16.39475 -4.35517,-4.25297 -7.8262,-12.04443 -7.8485,-17.61763 -0.004,-1.14464 7.38367,-19.4803 16.41833,-40.74593 9.03467,-21.26562 16.42666,-40.21823 16.42666,-42.11689 0,-1.89867 -3.77575,-9.099 -8.39056,-16.00072 C 700.88493,206.73788 632.10111,157.29113 549.17916,135.65283 l -20.88553,-5.45003 -17.27054,16.28524 c -31.52514,29.72661 -37.78022,34.72327 -44.78289,35.77338 -4.57532,0.68611 -7.75873,0.23245 -11.39835,-1.62431 -2.77751,-1.41698 -15.86643,-13.24001 -29.08647,-26.2734 -13.22003,-13.03341 -24.66343,-23.69709 -25.42978,-23.69709 -0.76635,0 -10.95966,2.71851 -22.6518,6.04113 -44.69099,12.70008 -81.41906,30.64352 -116.52291,56.92706 -13.81401,10.34306 -46.55896,40.76337 -46.55896,43.25363 0,0.72672 70.17214,1.33159 159.41327,1.37414 187.55902,0.0894 213.48035,0.834 231.83992,6.65944 16.83025,5.34021 36.86337,15.78819 49.35426,25.73998 18.79391,14.97358 34.19098,38.30671 39.66554,60.11019 3.30005,13.14309 2.20816,34.79252 -2.35775,46.74783 -7.4697,19.55858 -28.5944,43.91657 -53.35366,61.51983 l -10.50199,7.46666 16.00523,15.68 c 20.4131,19.99829 29.01264,35.61491 35.91654,65.22384 4.51428,19.36054 7.37278,23.26158 20.61337,28.13142 6.80659,2.50344 27.94424,2.80038 34.72891,0.48785 z M 236.99192,447.99984 V 339.73321 h -23.89333 c -14.18527,0 -23.89332,0.57954 -23.89332,1.42635 0,0.78449 2.59916,7.33649 5.7759,14.55999 3.17675,7.22351 6.24296,15.26678 6.81382,17.87393 1.41523,6.4635 -1.74256,16.17361 -6.89938,21.21536 -2.37502,2.32203 -17.11056,9.94997 -33.4554,17.31839 -16.06596,7.24269 -30.09839,14.05608 -31.18317,15.14087 -3.12338,3.12338 -4.39848,35.9659 -2.3842,61.40955 1.68977,21.34453 7.41609,55.08996 10.7724,63.48216 l 1.64239,4.10666 h 48.35214 48.35215 z m 284.02373,-44.7069 c 8.434,-3.07667 19.49848,-12.45619 22.09852,-18.73325 2.56021,-6.18092 1.13914,-16.86188 -3.0585,-22.98793 -1.88802,-2.75539 -6.57045,-7.15094 -10.40541,-9.76791 -12.92248,-8.81823 -15.30923,-9.08397 -81.58909,-9.08397 h -60.24264 v 30.31466 c 0,22.22791 0.49795,30.82896 1.86667,32.24263 1.48666,1.53548 14.33109,1.79006 63.09331,1.25055 52.94213,-0.58574 62.17522,-1.02344 68.23714,-3.23478 z M 149.63195,386.4165 c 4.54528,-2.47497 10.82245,-9.60025 12.59832,-14.30051 6.19433,-16.39463 -4.21681,-33.98618 -22.13386,-37.39927 -19.9508,-3.80052 -38.01239,20.02683 -29.22222,38.55075 6.65589,14.02623 25.44201,20.39965 38.75776,13.14903 z m 654.88426,1.07387 c 6.87584,-3.50779 13.1249,-12.16137 14.38366,-19.91819 1.84249,-11.35396 -5.87951,-25.74445 -15.90102,-29.63268 -2.07193,-0.80388 -7.59981,-1.50924 -12.28419,-1.56746 -6.57796,-0.0818 -9.66854,0.68314 -13.57466,3.35965 -15.44039,10.57994 -17.26445,31.7915 -3.81284,44.33847 7.54896,7.04127 21.1645,8.53435 31.18905,3.42021 z M 473.00475,139.63289 c 6.00439,-1.66806 13.91166,-9.15798 16.26883,-15.41015 2.24471,-5.95393 1.96468,-18.36415 -0.52176,-23.1236 -2.82861,-5.414373 -9.64058,-11.698382 -14.79053,-13.644168 -14.42152,-5.448825 -32.61753,3.942339 -36.79705,18.991368 -2.07454,7.46968 -1.96265,9.91027 0.75222,16.40787 5.93573,14.20621 20.05129,20.95606 35.08829,16.77868 z"
     id="path3815"
     inkscape:connector-curvature="0"
     transform="scale(0.75000026)" />
  <path
     style="fill:#000000;stroke-width:1.49333286"
     d="m 390.29504,384.90653 c -0.53408,-10.47199 -0.97379,-24.01998 -0.97712,-30.10662 l -0.006,-11.06663 60.85332,0.93117 c 67.56193,1.03382 69.5787,1.30761 80.87835,10.9797 7.79705,6.67397 10.58828,12.04665 10.58828,20.38072 0,12.94483 -11.97582,24.08883 -28.44477,26.46905 -5.29937,0.7659 -34.8995,1.40606 -65.77808,1.42258 l -56.14285,0.03 z"
     id="path3817"
     inkscape:connector-curvature="0"
     transform="scale(0.75000026)" />
  <path
     style="fill:#000000;stroke-width:1.49333286"
     d="m 426.64518,798.08242 c -31.64082,-4.69634 -56.55947,-10.9814 -84.12224,-21.21755 -13.31027,-4.94311 -16.44193,-6.69494 -17.67914,-9.88953 -0.82695,-2.13524 -4.49521,-16.65027 -8.1517,-32.2556 -7.42155,-31.67403 -10.90205,-40.25531 -18.32104,-45.17115 -7.09196,-4.69916 -15.41324,-4.36161 -45.69915,1.85377 -13.96266,2.86545 -26.52806,5.2161 -27.92311,5.22366 -2.72973,0.0148 -26.50839,-26.38241 -26.55528,-29.47959 -0.0224,-1.47841 26.29511,-1.87889 126.5317,-1.92548 116.0919,-0.0539 147.66565,-0.57639 149.70661,-2.47704 1.35992,-1.26644 1.71065,-92.52828 0.37541,-97.68546 l -1.30972,-5.05865 -41.7195,-0.74666 -41.71949,-0.74667 -0.40411,-30.19704 -0.40413,-30.19705 48.93745,0.9224 c 56.07766,1.05697 57.7419,1.40079 72.18782,14.91326 12.485,11.67824 15.58659,19.72826 26.08611,67.70509 8.82144,40.30893 13.96332,51.66503 31.0517,68.57917 15.89462,15.73256 12.78119,15.03038 66.70508,15.04438 53.97917,0.0134 98.84292,1.44099 98.23214,3.12442 -1.23185,3.39532 -22.80635,26.78593 -25.55851,27.70999 -4.23135,1.42072 -6.38738,1.15884 -34.57715,-4.19985 -36.64207,-6.96541 -44.7674,-5.33441 -51.84378,10.40666 -1.58855,3.53364 -5.86959,19.66164 -9.51344,35.83999 -5.49077,24.37855 -7.23885,29.95766 -10.20921,32.5834 -6.84344,6.04951 -51.82855,20.12587 -80.77001,25.2739 -16.08813,2.8617 -78.64559,4.24729 -93.33331,2.06723 z"
     id="path3819"
     inkscape:connector-curvature="0"
     transform="scale(0.75000026)" />
  <path
     style="fill:#000000;stroke-width:1.49333286"
     d="m 248.23607,770.88576 c -8.45519,-4.78886 -12.73749,-11.78344 -12.73749,-20.80503 0,-8.16161 1.48035,-11.84582 7.2758,-18.10764 8.42368,-9.10153 17.4825,-10.7143 28.60905,-5.09334 9.6489,4.87447 13.39514,11.29074 13.39514,22.9422 0,8.45148 -0.4896,9.99149 -4.70168,14.78877 -2.58592,2.9452 -6.58455,6.32859 -8.88584,7.51863 -6.17953,3.19556 -16.06256,2.66015 -22.95498,-1.24359 z"
     id="path3821"
     inkscape:connector-curvature="0"
     transform="scale(0.75000026)" />
  <path
     style="fill:#000000;stroke-width:1.49333286"
     d="m 126.48606,385.84218 c -9.4585,-3.77162 -14.9341,-12.62895 -14.9341,-24.15742 0,-14.96602 12.14728,-26.01638 27.02722,-24.5866 13.29601,1.27757 22.58517,11.66657 22.48079,25.14251 -0.11537,14.89382 -10.72199,25.43597 -25.33857,25.18454 -3.02653,-0.0521 -7.18243,-0.76443 -9.23534,-1.58303 z"
     id="path3823"
     inkscape:connector-curvature="0"
     transform="scale(0.75000026)" />
  <path
     style="fill:#000000;stroke-width:1.49333286"
     d="m 452.78184,135.78068 c -10.76097,-5.61092 -14.80273,-12.63837 -13.85333,-24.08691 1.15321,-13.906185 10.7751,-22.840468 24.59833,-22.840468 9.74162,0 15.34611,2.670434 20.9078,9.962182 3.53574,4.635596 4.18386,6.909326 4.18386,14.677806 0,7.76849 -0.64812,10.04221 -4.18386,14.67781 -2.30113,3.01693 -6.13176,6.49262 -8.51251,7.72376 -5.62268,2.9076 -17.45694,2.84921 -23.14029,-0.11417 z"
     id="path3825"
     inkscape:connector-curvature="0"
     transform="scale(0.75000026)" />
  <path
     style="fill:#000000;stroke-width:1.49333286"
     d="m 775.35491,382.78532 c -10.34216,-9.47789 -11.64815,-26.52305 -2.74951,-35.88548 8.92358,-9.38866 20.34855,-11.32064 31.06216,-5.25265 8.44607,4.78369 12.73749,11.78508 12.73749,20.78101 0,8.4403 -2.29787,13.56366 -8.89822,19.83959 -4.16454,3.95986 -5.90436,4.51618 -15.66529,5.00908 -10.71786,0.54123 -11.11211,0.43382 -16.48663,-4.49155 z"
     id="path3827"
     inkscape:connector-curvature="0"
     transform="scale(0.75000026)" />
  <path
     style="fill:#000000;stroke-width:1.49333286"
     d="m 703.12557,554.03702 c -7.05842,-2.20192 -12.82394,-6.81759 -15.86869,-12.70388 -1.06212,-2.05333 -3.71488,-10.45333 -5.89502,-18.66666 -2.18015,-8.21333 -7.17459,-21.65332 -11.09877,-29.86665 -6.13516,-12.84095 -9.14806,-17.02571 -21.50314,-29.86666 -7.90256,-8.21333 -14.57527,-15.35849 -14.82822,-15.87813 -0.25298,-0.51965 5.58805,-5.63836 12.98004,-11.37492 24.81406,-19.25696 40.50249,-38.59489 47.32117,-58.32919 2.9135,-8.43214 3.44068,-12.90365 3.37868,-28.65772 -0.0644,-16.34296 -0.55189,-19.91988 -3.91675,-28.73404 -5.50738,-14.42652 -12.45314,-25.31506 -24.24074,-38.00112 -17.02631,-18.32407 -34.3344,-29.04239 -62.86234,-38.92854 l -14.93333,-5.17503 -173.97327,-1.21569 c -95.6853,-0.66863 -179.66232,-1.2659 -186.61559,-1.32728 l -12.64232,-0.11159 8.16232,-8.35226 c 19.32779,-19.77756 49.04841,-42.25177 75.62551,-57.18668 25.00892,-14.05367 62.19612,-28.26025 90.51834,-34.5806 l 8.64826,-1.92993 23.45839,23.21606 c 12.90213,12.76883 25.76253,24.38534 28.57869,25.81446 6.81069,3.45626 18.1221,2.18566 24.53894,-2.75644 2.57809,-1.98558 15.08447,-13.34435 27.79197,-25.2417 l 23.10453,-21.63156 18.9882,5.00896 c 61.27269,16.1633 112.34213,45.45275 155.81599,89.36388 17.74938,17.92791 30.93185,33.9995 42.92216,52.32913 7.47812,11.43182 8.68887,14.22094 8.10317,18.66666 -0.37872,2.87466 -7.47836,21.47016 -15.77697,41.32335 -8.2986,19.85318 -15.08837,38.19194 -15.08837,40.75282 0,6.50884 4.99069,15.5823 11.15825,20.28652 2.86685,2.18666 17.15304,9.32217 31.7471,15.85671 14.59405,6.53453 28.21463,13.53389 30.26796,15.55411 3.64603,3.58727 3.74431,4.26124 4.20246,28.82397 l 0.46912,25.1508 -4.76245,0.95249 c -2.61935,0.52388 -8.87846,0.95989 -13.90912,0.96893 -5.03067,0.009 -11.55812,0.41535 -14.50546,0.90292 l -5.35878,0.88647 -1.68082,18.13708 c -2.15055,23.20577 -3.91779,28.53819 -12.21115,36.84573 -10.89895,10.91759 -29.56936,14.83519 -46.10995,9.67522 z"
     id="path3829"
     inkscape:connector-curvature="0"
     transform="scale(0.75000026)" />
  <path
     style="fill:#000000;stroke-width:1.49333286"
     d="m 156.66822,553.65867 c -18.20038,-0.57407 -16.11032,2.1644 -21.94417,-28.75219 -3.20889,-17.00555 -4.25183,-27.79295 -4.85893,-50.25704 -0.42516,-15.73205 -0.29472,-32.43187 0.28986,-37.11073 l 1.06289,-8.50702 29.36703,-14.14406 c 32.54543,-15.67489 38.42098,-19.46751 41.47215,-26.76999 3.35015,-8.01805 2.46285,-14.87129 -3.89571,-30.08911 -3.28749,-7.86788 -5.7672,-14.5153 -5.51047,-14.77203 0.25674,-0.25674 10.0025,-0.922 21.65725,-1.47835 l 21.19046,-1.01156 v 107.00327 107.00328 l -31.73332,-0.31494 c -17.45332,-0.17322 -38.647,-0.533 -47.09704,-0.79953 z"
     id="path3831"
     inkscape:connector-curvature="0"
     transform="scale(0.75000026)" />
</svg>
