<svg xmlns="http://www.w3.org/2000/svg" xmlns:xlink="http://www.w3.org/1999/xlink">

<defs>
    <linearGradient id="grad1" x1="0%" y1="0%" x2="100%" y2="0%">
        <stop offset="0%" style="stop-color:rgb(0,140,255);stop-opacity:1" />
        <stop offset="100%" style="stop-color:rgb(0,180,255);stop-opacity:1" />
    </linearGradient>
</defs>

<rect x="2" y="2" width="48" height="38" rx="1" ry="1" stroke="#000000" stroke-width="3" fill="none"/>

<rect x="24" y="38" width="4" height="8" rx="1" ry="1" fill="#000000"/>
<ellipse cx="26" cy="47" rx="12" ry="2"/>

<rect x="3" y="3" width="46" height="36" rx="0" ry="0" fill="url(#grad1)"/>

<rect x="8" y="8" width="4" height="4" rx="1" ry="1" fill="#FFFFFF"/>
<rect x="8" y="16" width="4" height="4" rx="1" ry="1" fill="#FFFFFF"/>
<rect x="8" y="24" width="4" height="4" rx="1" ry="1" fill="#FFFFFF"/>

<rect x="15" y="8" width="4" height="4" rx="1" ry="1" fill="#FFFFFF"/>
<rect x="15" y="16" width="4" height="4" rx="1" ry="1" fill="#FFFFFF"/>
<rect x="15" y="24" width="4" height="4" rx="1" ry="1" fill="#FFFFFF"/>

<rect x="33" y="8" width="4" height="4" rx="1" ry="1" fill="#FFFFFF"/>
<rect x="33" y="16" width="4" height="4" rx="1" ry="1" fill="#FFFFFF"/>
<rect x="33" y="24" width="4" height="4" rx="1" ry="1" fill="#FFFFFF"/>

<rect x="40" y="8" width="4" height="4" rx="1" ry="1" fill="#FFFFFF"/>
<rect x="40" y="16" width="4" height="4" rx="1" ry="1" fill="#FFFFFF"/>
<rect x="40" y="24" width="4" height="4" rx="1" ry="1" fill="#FFFFFF"/>

<rect x="3" y="36" width="44" height="3" rx="0" ry="0" fill="#CCCCCC"/>
<rect x="3" y="36" width="8" height="3" rx="1" ry="1" fill="#00FF00"/>
<rect x="43" y="36" width="6" height="3" rx="0" ry="0" fill="#AAAAAA"/>

</svg>
