<?xml version="1.0" encoding="UTF-8"?>
<!DOCTYPE svg PUBLIC "-//W3C//DTD SVG 1.1//EN" "http://www.w3.org/Graphics/SVG/1.1/DTD/svg11.dtd">
<svg xmlns="http://www.w3.org/2000/svg" version="1.1" width="32px" height="32px" style="shape-rendering:geometricPrecision; text-rendering:geometricPrecision; image-rendering:optimizeQuality; fill-rule:evenodd; clip-rule:evenodd" xmlns:xlink="http://www.w3.org/1999/xlink">
<g><path style="opacity:1" fill="#ffffff" d="M 31.5,12.5 C 31.5,13.5 31.5,14.5 31.5,15.5C 23.0094,13.6719 22.3427,15.3386 29.5,20.5C 30.3857,21.325 30.719,22.325 30.5,23.5C 29.0695,23.5792 27.7362,23.2458 26.5,22.5C 25.0158,20.9263 23.3492,19.593 21.5,18.5C 19.4827,19.6729 18.816,21.1729 19.5,23C 18.552,23.4828 17.552,23.6495 16.5,23.5C 16.3573,21.7376 16.6906,20.0113 17.5,18.5C 15.8917,17.6816 14.2251,17.0149 12.5,16.5C 9.14203,18.8678 5.8087,21.2011 2.5,23.5C 1.49005,22.1789 0.490049,20.8456 -0.5,19.5C -0.5,18.8333 -0.5,18.1667 -0.5,17.5C 0.833333,16.8333 0.833333,16.1667 -0.5,15.5C -0.5,14.8333 -0.5,14.1667 -0.5,13.5C 1.18264,12.3393 3.01597,11.3393 5,10.5C 5.87318,10.7355 6.70651,11.0688 7.5,11.5C 13.5097,10.6463 19.5097,9.64628 25.5,8.5C 26.8333,8.83333 28.1667,9.16667 29.5,9.5C 29.9424,10.7387 30.6091,11.7387 31.5,12.5 Z"/></g>
</svg>