<?xml version="1.0" ?><!DOCTYPE svg  PUBLIC '-//W3C//DTD SVG 1.1//EN'  'http://www.w3.org/Graphics/SVG/1.1/DTD/svg11.dtd'><svg height="52px" id="Layer_1" style="enable-background:new 0 0 64.016 52;" version="1.1" viewBox="0 0 64.016 52" width="64.016px" xml:space="preserve" xmlns="http://www.w3.org/2000/svg" xmlns:xlink="http://www.w3.org/1999/xlink"><g id="Brush"><g><path d="M26,26C13.811,26,15.563,40,6,40c-3.813,0-6-2-6-2s3.119,14,18,14c11.102,0,20-4.579,20-14    C38,31.852,33.221,26,26,26z" style="fill:#CCCCCC;"/></g></g><g id="Paint"><g><path d="M10.016,46c7.052,0,8-6,8-6c-2.149,2.179-6,2-6,2c1.651-1.651,1.97-6.03,2.031-7.514    C12.117,37.425,10.098,40,6,40c-3.813,0-6-2-6-2s2.563,11.331,13.945,13.583c2.502-1.005,4.07-3.583,4.07-3.583    C13.066,48.997,10.016,46,10.016,46z" style="fill:#88C057;"/></g></g><g id="Tube_1_"><g><polygon points="34.016,18.001 28.016,28 36.016,36 46.016,30   " style="fill:#6D5778;"/></g></g><g id="Handle_1_"><g><path d="M50.016,0c-6,0-16,18.001-16,18.001l12,11.999c0,0,18-10,18-16C64.016,12,52.016,0,50.016,0z" style="fill:#9B7CAB;"/></g></g><g/><g/><g/><g/><g/><g/><g/><g/><g/><g/><g/><g/><g/><g/><g/></svg>