<?xml version="1.0" encoding="UTF-8" standalone="no"?>
<!-- Created with Inkscape (http://www.inkscape.org/) -->

<svg
   xmlns:dc="http://purl.org/dc/elements/1.1/"
   xmlns:cc="http://creativecommons.org/ns#"
   xmlns:rdf="http://www.w3.org/1999/02/22-rdf-syntax-ns#"
   xmlns:svg="http://www.w3.org/2000/svg"
   xmlns="http://www.w3.org/2000/svg"
   xmlns:sodipodi="http://sodipodi.sourceforge.net/DTD/sodipodi-0.dtd"
   xmlns:inkscape="http://www.inkscape.org/namespaces/inkscape"
   id="svg7384"
   version="1.1"
   height="16"
   width="24"
   inkscape:version="0.48.3.1 r9886"
   sodipodi:docname="windows-quick-list-with-close-button-symbolic.svg">
  <sodipodi:namedview
     pagecolor="#ffffff"
     bordercolor="#666666"
     borderopacity="1"
     objecttolerance="10"
     gridtolerance="10"
     guidetolerance="10"
     inkscape:pageopacity="0"
     inkscape:pageshadow="2"
     inkscape:window-width="1920"
     inkscape:window-height="1029"
     id="namedview15"
     showgrid="false"
     inkscape:zoom="16"
     inkscape:cx="-0.3942919"
     inkscape:cy="7.6575641"
     inkscape:window-x="1680"
     inkscape:window-y="22"
     inkscape:window-maximized="1"
     inkscape:current-layer="svg7384"
     units="px"
     inkscape:snap-page="true"
     width="32px" />
  <title
     id="title9167">Gnome Symbolic Icon Theme</title>
  <metadata
     id="metadata90">
    <rdf:RDF>
      <cc:Work
         rdf:about="">
        <dc:format>image/svg+xml</dc:format>
        <dc:type
           rdf:resource="http://purl.org/dc/dcmitype/StillImage" />
        <dc:title>Gnome Symbolic Icon Theme</dc:title>
      </cc:Work>
    </rdf:RDF>
  </metadata>
  <defs
     id="defs7386" />
  <g
     transform="translate(-60,-518.00002)"
     id="layer9"
     style="display:inline" />
  <g
     transform="translate(-60,-518.00002)"
     id="layer10" />
  <g
     transform="translate(-60,-518.00002)"
     id="layer11" />
  <g
     transform="translate(-60,-518.00002)"
     id="layer13" />
  <g
     transform="translate(-60,-518.00002)"
     id="layer14" />
  <g
     transform="translate(-60,-518.00002)"
     id="layer15" />
  <g
     transform="matrix(0.81218066,0,0,0.74216585,-46.039508,-384.78539)"
     id="layer12"
     style="fill:#7d7d7d;fill-opacity:1">
    <g
       transform="translate(19,-242)"
       id="layer4-4-1"
       style="fill:#7d7d7d;fill-opacity:1;display:inline">
      <path
         inkscape:connector-curvature="0"
         d="m 45,764 1,0 c 0.01037,-1.2e-4 0.02079,-4.6e-4 0.03125,0 0.254951,0.0112 0.50987,0.12858 0.6875,0.3125 L 49,766.59375 51.3125,764.3125 C 51.578125,764.082 51.759172,764.007 52,764 l 1,0 0,1 c 0,0.28647 -0.03434,0.55065 -0.25,0.75 l -2.28125,2.28125 2.25,2.25 C 52.906938,770.46942 52.999992,770.7347 53,771 l 0,1 -1,0 c -0.265301,-10e-6 -0.530586,-0.0931 -0.71875,-0.28125 L 49,769.4375 46.71875,771.71875 C 46.530586,771.90694 46.26529,772 46,772 l -1,0 0,-1 c -3e-6,-0.26529 0.09306,-0.53058 0.28125,-0.71875 l 2.28125,-2.25 L 45.28125,765.75 C 45.070508,765.55537 44.97809,765.28075 45,765 l 0,-1 z"
         id="path10839-9"
         style="font-size:medium;font-style:normal;font-variant:normal;font-weight:normal;font-stretch:normal;text-indent:0;text-align:start;text-decoration:none;line-height:normal;letter-spacing:normal;word-spacing:normal;text-transform:none;direction:ltr;block-progression:tb;writing-mode:lr-tb;text-anchor:start;color:#bebebe;fill:#7d7d7d;fill-opacity:1;fill-rule:nonzero;stroke:none;stroke-width:1.78124988;marker:none;visibility:visible;display:inline;overflow:visible;enable-background:new;font-family:Andale Mono;-inkscape-font-specification:Andale Mono" />
    </g>
  </g>
  <g
     id="g3019"
     transform="matrix(1.0150944,0,0,1.0446429,1.8373197,-18.180466)">
    <g
       id="g3013">
      <g
         id="g3008">
        <g
           transform="matrix(1.2559241,0,0,1.2240437,-1.8922191,16.38394)"
           id="g3002">
          <g
             id="g3005">
            <path
               inkscape:connector-curvature="0"
               id="path3003"
               d="m 3.3682081,11.479936 0,-1.3125 -1.40625,0 -1.40625,0 0,-4.4062501 0,-4.40625 5.21875,0 5.2187499,0 0,1.3125 0,1.3125 1.375,0 1.375,0 0,4.40625 0,4.4062501 -5.1874999,0 -5.1875,0 0,-1.3125 z m 9.4374999,-3.0937501 0,-3.46875 -0.90625,0 -0.90625,0 0,2.625 0,2.6250001 -3.3437499,0 -3.34375,0 0,0.84375 0,0.84375 4.25,0 4.2499999,0 0,-3.4687501 z m -2.75,-1.71875 0,-2.5625 0.258229,0 0.25823,0 -0.03562,-0.2655874 C 10.50988,3.6405548 10.444937,3.5224553 10.278315,3.3697573 10.084592,3.1922238 10.055708,3.1282017 10.055708,2.8763433 c 0,-0.2539475 0.02735,-0.3131972 0.223198,-0.4835338 0.170381,-0.1481869 0.231488,-0.2569802 0.25823,-0.4597486 l 0.03503,-0.265625 -0.263165,0 c -0.226225,0 -0.3135952,0.043864 -0.622452,0.3125 -0.1976094,0.171875 -0.4094138,0.3125 -0.4706775,0.3125 -0.061264,0 -0.2652544,-0.140625 -0.4533132,-0.3125 -0.288515,-0.2636866 -0.3801887,-0.3125 -0.5868881,-0.3125 -0.241975,0 -0.2449631,0.0029 -0.2449631,0.2375 0,0.130625 0.03375,0.27125 0.075,0.3125 0.058333,0.058333 -0.6569444,0.075 -3.21875,0.075 l -3.29375,0 0,3.46875 0,3.46875 4.28125,0 4.2812499,0 0,-2.5625 z"
               style="fill:#7d7d7d;fill-opacity:1" />
          </g>
        </g>
      </g>
    </g>
  </g>
  <rect
     style="fill:#7d7d7d;fill-opacity:1"
     id="rect3011"
     width="7.25"
     height="0.9375"
     x="4.8125"
     y="0.875" />
  <rect
     style="fill:#7d7d7d;fill-opacity:1"
     id="rect3026"
     width="12.1875"
     height="1.625"
     x="1.25"
     y="0.6875" />
  <rect
     style="fill:#7d7d7d;fill-opacity:1"
     id="rect3028"
     width="0.75"
     height="9.0625"
     x="1.3125"
     y="2.125" />
  <rect
     style="fill:#7d7d7d;fill-opacity:1"
     id="rect3030"
     width="11.4375"
     height="1.125"
     x="1.3125"
     y="10.25" />
  <rect
     style="fill:#7d7d7d;fill-opacity:1"
     id="rect3032"
     width="1.125"
     height="8.75"
     x="12.75"
     y="2.3125" />
  <rect
     style="fill:#7d7d7d;fill-opacity:1"
     id="rect3042"
     width="0.8125"
     height="3.0625"
     x="4.9375"
     y="11.4375" />
</svg>
