<?xml version="1.0" encoding="UTF-8"?>
<svg width="16" height="16" version="1.1" viewBox="0 0 16 16" xmlns="http://www.w3.org/2000/svg">
 <path d="m13.244 9-5.2441 5.2441v0.75586h6c0.554 0 1-0.446 1-1v-4c0-0.554-0.446-1-1-1h-0.75586z" fill="#7f7f7f" opacity=".5"/>
 <path d="m10.363 2.8086c-0.25562 0-0.51116 0.0971-0.70703 0.29297l-1.6562 1.6562v8.4863l5.8984-5.8984c0.39174-0.39174 0.39174-1.0243 0-1.416l-2.8281-2.8281c-0.19587-0.19587-0.45141-0.29297-0.70703-0.29297z" fill="#7f7f7f" opacity=".75"/>
 <path d="m2 1c-0.554 0-1 0.446-1 1v12c0 0.554 0.446 1 1 1h4c0.554 0 1-0.446 1-1v-12c0-0.554-0.446-1-1-1h-4zm2 11a1 1 0 0 1 1 1 1 1 0 0 1-1 1 1 1 0 0 1-1-1 1 1 0 0 1 1-1z" fill="#7f7f7f"/>
</svg>
