<?xml version="1.0" encoding="UTF-8"?>
<!-- Created with Inkscape (http://www.inkscape.org/) -->
<svg width="16" height="16" version="1.1" viewBox="0 0 16 16" xmlns="http://www.w3.org/2000/svg">
 <path d="m8 0c-4.4102 0-8 3.5898-8 8s3.5898 8 8 8 8-3.5898 8-8-3.5898-8-8-8zm0 1.4551c3.6244 0 6.5449 2.9205 6.5449 6.5449 0 0.54176-0.072191 1.0654-0.19531 1.5684l-3.0938-3.4395-4.0176 4.5723 1.9395-3.8789-0.9707-1.7305-5.6699 6.5176c-0.68319-1.034-1.082-2.2729-1.082-3.6094 0-3.6244 2.9205-6.5449 6.5449-6.5449zm-3 9.5449h7v1h-7v-1zm0 2h7v1h-7v-1z" fill="#7f7f7f"/>
</svg>
