<?xml version="1.0" encoding="UTF-8" standalone="no"?>
<!-- Created with Inkscape (http://www.inkscape.org/) -->

<svg
   xmlns:dc="http://purl.org/dc/elements/1.1/"
   xmlns:cc="http://creativecommons.org/ns#"
   xmlns:rdf="http://www.w3.org/1999/02/22-rdf-syntax-ns#"
   xmlns:svg="http://www.w3.org/2000/svg"
   xmlns="http://www.w3.org/2000/svg"
   xmlns:xlink="http://www.w3.org/1999/xlink"
   version="1.0"
   width="50"
   height="50"
   id="svg2"
   style="display:inline">
  <defs
     id="defs4">
    <linearGradient
       id="linearGradient3391">
      <stop
         id="stop3393"
         style="stop-color:#006304;stop-opacity:1"
         offset="0" />
      <stop
         id="stop3395"
         style="stop-color:#000000;stop-opacity:0"
         offset="1" />
    </linearGradient>
    <linearGradient
       id="linearGradient3252">
      <stop
         id="stop3254"
         style="stop-color:#e1f0d2;stop-opacity:1"
         offset="0" />
      <stop
         id="stop3256"
         style="stop-color:#d1e8b9;stop-opacity:1"
         offset="1" />
    </linearGradient>
    <linearGradient
       id="linearGradient3358">
      <stop
         id="stop3360"
         style="stop-color:#ffffff;stop-opacity:1"
         offset="0" />
      <stop
         id="stop3362"
         style="stop-color:#ffffff;stop-opacity:0"
         offset="1" />
    </linearGradient>
    <linearGradient
       id="linearGradient5262">
      <stop
         id="stop5264"
         style="stop-color:#50821f;stop-opacity:1"
         offset="0" />
      <stop
         id="stop5266"
         style="stop-color:#3a5e17;stop-opacity:1"
         offset="1" />
    </linearGradient>
    <linearGradient
       id="linearGradient4641">
      <stop
         id="stop4643"
         style="stop-color:#ebebeb;stop-opacity:1"
         offset="0" />
      <stop
         id="stop4645"
         style="stop-color:#fefefe;stop-opacity:1"
         offset="1" />
    </linearGradient>
    <linearGradient
       id="linearGradient4509">
      <stop
         id="stop4511"
         style="stop-color:#d7f0be;stop-opacity:1"
         offset="0" />
      <stop
         id="stop5270"
         style="stop-color:#87cf3e;stop-opacity:1"
         offset="0.10406084" />
      <stop
         id="stop3279"
         style="stop-color:#76b834;stop-opacity:1"
         offset="0.65339524" />
      <stop
         id="stop4513"
         style="stop-color:#558921;stop-opacity:1"
         offset="1" />
    </linearGradient>
    <filter
       color-interpolation-filters="sRGB"
       id="filter4475">
      <feGaussianBlur
         id="feGaussianBlur4477"
         stdDeviation="0.76628407" />
    </filter>
    <filter
       color-interpolation-filters="sRGB"
       id="filter4558">
      <feGaussianBlur
         id="feGaussianBlur4560"
         stdDeviation="0.23289955" />
    </filter>
    <filter
       color-interpolation-filters="sRGB"
       id="filter4727">
      <feGaussianBlur
         id="feGaussianBlur4729"
         stdDeviation="0.76625531" />
    </filter>
    <filter
       color-interpolation-filters="sRGB"
       id="filter3312">
      <feGaussianBlur
         id="feGaussianBlur3314"
         stdDeviation="1.818536" />
    </filter>
    <filter
       color-interpolation-filters="sRGB"
       id="filter3316">
      <feGaussianBlur
         id="feGaussianBlur3318"
         stdDeviation="1.8180469" />
    </filter>
    <filter
       color-interpolation-filters="sRGB"
       id="filter3392">
      <feGaussianBlur
         id="feGaussianBlur3394"
         stdDeviation="2.6431129" />
    </filter>
    <filter
       color-interpolation-filters="sRGB"
       id="filter3400">
      <feGaussianBlur
         id="feGaussianBlur3402"
         stdDeviation="4.3351562" />
    </filter>
    <filter
       color-interpolation-filters="sRGB"
       id="filter3382">
      <feGaussianBlur
         id="feGaussianBlur3384"
         stdDeviation="0.31017995" />
    </filter>
    <filter
       color-interpolation-filters="sRGB"
       id="filter3386">
      <feGaussianBlur
         id="feGaussianBlur3388"
         stdDeviation="1.7520733" />
    </filter>
    <filter
       color-interpolation-filters="sRGB"
       id="filter3501">
      <feGaussianBlur
         id="feGaussianBlur3503"
         stdDeviation="2.7024656" />
    </filter>
    <filter
       color-interpolation-filters="sRGB"
       id="filter3505">
      <feGaussianBlur
         id="feGaussianBlur3507"
         stdDeviation="2.6921094" />
    </filter>
    <radialGradient
       cx="270.80911"
       cy="237.79498"
       r="229.14702"
       fx="270.80911"
       fy="237.79498"
       id="radialGradient3189"
       xlink:href="#linearGradient5262"
       gradientUnits="userSpaceOnUse"
       gradientTransform="matrix(0.4209227,-0.4490176,0.9257013,0.8677805,-81.885326,153.99719)"
       spreadMethod="reflect" />
    <radialGradient
       cx="270.80911"
       cy="237.79498"
       r="229.14702"
       fx="270.80911"
       fy="237.79498"
       id="radialGradient3191"
       xlink:href="#linearGradient5262"
       gradientUnits="userSpaceOnUse"
       gradientTransform="matrix(0.5836709,-0.5795945,0.2882392,0.2902665,25.626226,326.68858)"
       spreadMethod="reflect" />
    <linearGradient
       x1="269.25922"
       y1="83.839706"
       x2="211.5087"
       y2="143.09712"
       id="linearGradient3193"
       xlink:href="#linearGradient4641"
       gradientUnits="userSpaceOnUse"
       gradientTransform="matrix(4.8286654,0,0,4.8286654,-44.207118,316.31481)" />
    <radialGradient
       cx="274.40192"
       cy="93.761421"
       r="33.476257"
       fx="274.40192"
       fy="93.761421"
       id="radialGradient3195"
       xlink:href="#linearGradient4509"
       gradientUnits="userSpaceOnUse"
       gradientTransform="matrix(-9.8692341,-8.1828846,5.8952789,-7.1101486,2514.088,3044.96)" />
    <linearGradient
       x1="164.66057"
       y1="398.86209"
       x2="413.92288"
       y2="94.45993"
       id="linearGradient3197"
       xlink:href="#linearGradient3391"
       gradientUnits="userSpaceOnUse" />
    <linearGradient
       x1="331.84512"
       y1="376.71875"
       x2="353.72147"
       y2="341.35938"
       id="linearGradient3199"
       xlink:href="#linearGradient3252"
       gradientUnits="userSpaceOnUse"
       gradientTransform="matrix(0.8517613,0,0,0.8517613,37.638533,36.924231)" />
    <linearGradient
       x1="246.03314"
       y1="217.01048"
       x2="253.81628"
       y2="87.802109"
       id="linearGradient3201"
       xlink:href="#linearGradient3358"
       gradientUnits="userSpaceOnUse"
       gradientTransform="matrix(0.8517613,0,0,0.8517613,37.638535,36.924233)" />
    <radialGradient
       cx="270.80911"
       cy="237.79498"
       r="229.14702"
       fx="270.80911"
       fy="237.79498"
       id="radialGradient3280"
       xlink:href="#linearGradient5262"
       gradientUnits="userSpaceOnUse"
       gradientTransform="matrix(0.4209227,-0.4490176,0.9257013,0.8677805,-81.885326,153.99719)"
       spreadMethod="reflect" />
    <radialGradient
       cx="270.80911"
       cy="237.79498"
       r="229.14702"
       fx="270.80911"
       fy="237.79498"
       id="radialGradient3282"
       xlink:href="#linearGradient5262"
       gradientUnits="userSpaceOnUse"
       gradientTransform="matrix(0.5836709,-0.5795945,0.2882392,0.2902665,25.626226,326.68858)"
       spreadMethod="reflect" />
    <linearGradient
       x1="269.25922"
       y1="83.839706"
       x2="211.5087"
       y2="143.09712"
       id="linearGradient3284"
       xlink:href="#linearGradient4641"
       gradientUnits="userSpaceOnUse"
       gradientTransform="matrix(4.8286654,0,0,4.8286654,-44.207118,316.31481)" />
    <radialGradient
       cx="274.40192"
       cy="93.761421"
       r="33.476257"
       fx="274.40192"
       fy="93.761421"
       id="radialGradient3286"
       xlink:href="#linearGradient4509"
       gradientUnits="userSpaceOnUse"
       gradientTransform="matrix(-9.8692341,-8.1828846,5.8952789,-7.1101486,2514.088,3044.96)" />
    <linearGradient
       x1="164.66057"
       y1="398.86209"
       x2="413.92288"
       y2="94.45993"
       id="linearGradient3288"
       xlink:href="#linearGradient3391"
       gradientUnits="userSpaceOnUse" />
    <linearGradient
       x1="331.84512"
       y1="376.71875"
       x2="353.72147"
       y2="341.35938"
       id="linearGradient3290"
       xlink:href="#linearGradient3252"
       gradientUnits="userSpaceOnUse"
       gradientTransform="matrix(0.8517613,0,0,0.8517613,37.638533,36.924231)" />
    <linearGradient
       x1="246.03314"
       y1="217.01048"
       x2="253.81628"
       y2="87.802109"
       id="linearGradient3292"
       xlink:href="#linearGradient3358"
       gradientUnits="userSpaceOnUse"
       gradientTransform="matrix(0.8517613,0,0,0.8517613,37.638535,36.924233)" />
  </defs>
  <metadata
     id="metadata7">
    <rdf:RDF>
      <cc:Work
         rdf:about="">
        <dc:format>image/svg+xml</dc:format>
        <dc:type
           rdf:resource="http://purl.org/dc/dcmitype/StillImage" />
        <dc:title></dc:title>
      </cc:Work>
    </rdf:RDF>
  </metadata>
  <g
     transform="translate(0,-450)"
     id="layer5"
     style="display:inline" />
  <g
     transform="translate(-854.41643,-1080.5597)"
     id="layer8"
     style="display:inline" />
  <g
     transform="translate(-854.41643,-1080.5597)"
     id="layer12"
     style="display:inline" />
  <g
     transform="translate(-854.41643,-1080.5597)"
     id="layer9"
     style="display:inline" />
  <g
     transform="translate(0,-450)"
     id="layer3"
     style="display:inline" />
  <g
     transform="translate(0,-450)"
     id="layer4"
     style="display:inline" />
  <g
     transform="translate(-854.41643,-1080.5597)"
     id="layer10"
     style="display:inline" />
  <g
     transform="translate(0,-450)"
     id="layer14"
     style="display:inline" />
  <g
     transform="translate(0,-450)"
     id="layer1"
     style="display:inline" />
  <g
     transform="translate(0,-450)"
     id="layer2"
     style="display:inline">
    <g
       transform="matrix(0.21131671,0,0,0.19572418,-50.792495,376.41264)"
       id="g2986">
      <g
         transform="matrix(1,0,0,1.1561703,0,-83.594488)"
         id="g3255">
        <g
           transform="matrix(0.12659562,0,0,0.1129398,399.63991,420.5509)"
           id="g3077"
           style="display:inline">
          <path
             d="M 11.935396,29.133725 302.5227,29.888206 c 84.26721,-0.264442 191.65954,25.717172 191.63564,158.241854 l 7e-5,275.98129 -300.68821,1.88385 C 125.55969,466.6869 10.123085,443.67021 12.422083,313.40483 L 10.304566,178.71087 z"
             id="path3463"
             style="fill:url(#radialGradient3280);fill-opacity:1;stroke:none;display:inline" />
          <path
             d="M 11.935396,29.133725 302.5227,29.888206 c 84.26721,-0.264442 191.65954,25.717172 191.63564,158.241854 l 7e-5,275.98129 -300.68821,1.88385 C 125.55969,466.6869 10.123085,443.67021 12.422083,313.40483 L 10.304566,178.71087 z"
             id="path3467"
             style="opacity:0.3;fill:url(#radialGradient3282);fill-opacity:1;stroke:none;display:inline" />
          <path
             d="M -30.1875,-9.15625 -20.391533,0.875 300.96875,1.75 c 98.93289,-0.3104654 225.02805,30.192263 225,185.78125 l 0.46859,305.78409 9.53141,8.21591 0,-324 C 535.9968,21.942263 409.90164,-8.5604649 310.96875,-8.25 z"
             transform="matrix(0.8517613,0,0,0.8517613,37.638535,36.924233)"
             id="path3471"
             style="opacity:0.5;fill:#ffffff;fill-opacity:1;stroke:none;display:inline;filter:url(#filter3505)" />
          <path
             d="m -30.1875,-9.15625 -1.90625,175.625 2.5,158.125 C -32.29286,477.53025 103.20797,504.56209 182.9375,503.75 l 353.03125,-2.21875 -9.49308,-8.56089 -334.69442,1.06089 C 112.05172,494.84332 -23.48036,467.8115 -20.78125,314.875 L -23.25,156.75 -20.699565,0.74488 z"
             transform="matrix(0.8517613,0,0,0.8517613,37.638535,36.924233)"
             id="path3496"
             style="opacity:0.5;fill:#000000;fill-opacity:1;stroke:none;display:inline;filter:url(#filter3501)" />
          <path
             d="m 196.48574,80.077717 52.59388,0.156065 c 11.29323,-0.675515 28.1257,10.047269 28.24774,26.218908 l 10e-6,45.72702 -44.32244,0.31213 c -10.01024,0.11462 -26.52377,-9.06183 -26.6871,-25.28252 l -0.31213,-22.31728 -9.20783,0 z"
             transform="matrix(4.8286654,0,0,4.8286654,-898.62355,-314.2449)"
             id="path4471"
             style="opacity:0.6;fill:none;stroke:#000000;stroke-width:1.5;stroke-linecap:butt;stroke-linejoin:miter;stroke-miterlimit:4;stroke-opacity:1;stroke-dasharray:none;display:inline;filter:url(#filter4475)" />
          <path
             d="m 904.55677,702.9833 253.95823,0.75358 c 59.9782,-0.21156 135.8096,48.51491 136.3988,126.60234 l 0,220.80048 -214.0182,1.5072 c -48.3361,0.5534 -128.07433,-43.7566 -128.86299,-122.08087 l -1.50717,-107.76268 -44.46153,0 z"
             transform="translate(-854.41643,-630.55971)"
             id="path4473"
             style="fill:url(#linearGradient3284);fill-opacity:1;stroke:none;display:inline" />
          <path
             d="m 196.23178,79.654061 0.0443,25.380199 9.05339,0.40233 0.58072,22.3125 c 0.16333,16.22069 16.67726,25.52998 26.6875,25.41536 l 44.82292,-0.86695 -1.60159,-1.78048 -40.97525,0.26724 c -10.01024,0.11462 -26.52417,-9.06056 -26.6875,-25.28125 l -0.3125,-22.3125 -9.21875,0 -0.32254,-21.472093 z"
             transform="matrix(4.8286654,0,0,4.8286654,-898.62355,-314.2449)"
             id="path4718"
             style="opacity:0.3;fill:#393939;fill-opacity:1;stroke:none;display:inline;filter:url(#filter4727)" />
          <path
             d="M 12.90625,41.71875 26.293193,51.486853 303,51.25 c 70.41661,-0.248391 159.46445,56.97865 160.15625,148.65625 l -0.54408,241.22019 8.57533,9.34231 0,-259.21875 C 470.4957,99.5724 381.47909,42.34536 311.0625,42.59375 z"
             transform="matrix(0.8517613,0,0,0.8517613,37.63853,36.92423)"
             id="path3352"
             style="fill:#ffffff;fill-opacity:1;stroke:none;display:inline;filter:url(#filter3400)" />
          <path
             d="m 203.55611,86.855966 43.02647,0.244673 c 12.26378,-0.142536 24.10579,5.62863 24.00212,22.066851 l -0.31191,28.8189 c 0.0252,1.82245 0.0781,3.68847 -0.35199,4.76001 -0.21,0.52319 -0.65859,1.04733 -0.93419,1.38075"
             transform="matrix(4.821604,0,0,4.800791,-895.17185,-311.85118)"
             id="path4480"
             style="opacity:0.6;fill:none;stroke:#000000;stroke-width:0.53111309;stroke-linecap:butt;stroke-linejoin:miter;stroke-miterlimit:4;stroke-opacity:1;stroke-dasharray:none;display:inline;filter:url(#filter3382)" />
          <path
             d="m 85.558838,105.58134 206.482362,0.75358 c 59.21769,-0.68825 117.30627,27.63448 116.8057,107.00912 l -0.75355,140.92045 c 0.42246,30.51265 -12.74193,36.87319 -36.92574,35.41855 l -130.37023,0.75355 C 159.36524,392.21174 132.2092,326.6454 131.52754,279.65954 l 0,-89.67665 C 131.9754,156.7267 113.95984,156.3894 85.558838,157.57871 z"
             id="path4482"
             style="fill:url(#radialGradient3286);fill-opacity:1;stroke:none;display:inline" />
          <path
             d="m 429.56886,402.08477 c -3.91078,4.07629 -5.59607,4.86182 -7.48847,6.38145 -7.18413,4.60669 -18.06932,4.32062 -30.90083,3.81356 l -156.39507,1.54839 C 139.01201,413.38916 112.82481,337.94776 112.03213,282.97424 l 0,-104.92179 c 0.52079,-37.53273 -20.726983,-39.90083 -53.753368,-38.50934 l 0.144789,-55.96034 0.01107,-4.909402"
             transform="matrix(0.8517613,0,0,0.8517613,37.638535,36.924233)"
             id="path3335"
             style="opacity:0.6;fill:none;stroke:url(#linearGradient3288);stroke-width:2;stroke-linecap:butt;stroke-linejoin:miter;stroke-miterlimit:4;stroke-opacity:1;stroke-dasharray:none;display:inline;filter:url(#filter3386)" />
          <path
             d="m 218.50274,93.690905 6.50733,0.01854 0.0356,31.314965 c 0.26574,7.24978 5.58511,7.8584 9.83209,7.64719 l 15.76256,0 c 5.85632,-0.13341 9.00511,-2.80512 8.99734,-8.43612 l -0.11025,-15.41042 c -0.15451,-4.20283 -7.54849,-3.74729 -7.4739,0.22049 l 0.01,14.83059 -6.20538,0 -0.0558,-14.92641 c -0.0351,-3.41729 -7.73071,-4.81924 -7.77603,0.57844 l 0.12885,14.47683 -6.60915,-0.0186 0.009,-14.80755 c 0.0166,-3.4083 2.5096,-7.48929 6.31565,-9.223975 3.04533,-1.387966 7.11457,-1.594551 11.01617,2.072195 3.49003,-3.705888 9.37944,-3.7582 12.46789,-1.39206 1.96793,1.50768 4.6066,3.21112 4.68064,7.89236 l 0.2205,16.24936 c 0.0571,8.58825 -4.98546,14.32241 -12.49381,14.29355 l -21.27065,0.0272 c -9.50403,0.0359 -14.09973,-6.60248 -13.94385,-15.29436 z"
             transform="matrix(4.8286654,0,0,4.8286654,-898.62355,-314.2449)"
             id="path4518"
             style="opacity:0.6;fill:none;stroke:#000000;stroke-width:1;stroke-linecap:butt;stroke-linejoin:miter;stroke-miterlimit:4;stroke-opacity:1;stroke-dasharray:none;display:inline;filter:url(#filter4558)" />
          <path
             d="m 218.28781,93.852103 6.50733,0.01854 0.0356,31.314967 c 0.26574,7.24978 5.58511,7.8584 9.83209,7.64719 l 15.76256,0 c 5.85632,-0.13341 9.00511,-2.80512 8.99734,-8.43612 l -0.11025,-15.41042 c -0.15451,-4.20283 -7.54849,-3.74729 -7.4739,0.22049 l 0.01,14.83059 -6.20538,0 -0.0558,-14.92641 c -0.0351,-3.41729 -7.73071,-4.81924 -7.77603,0.57844 l 0.12885,14.47683 -6.60915,-0.0186 0.009,-14.80755 c 0.0166,-3.4083 2.5096,-7.48929 6.31565,-9.22398 3.04533,-1.387963 7.11457,-1.594548 11.01617,2.0722 3.49003,-3.70589 9.37944,-3.758202 12.46789,-1.39206 1.96793,1.50768 4.6066,3.21112 4.68064,7.89236 l 0.2205,16.24936 c 0.0571,8.58825 -4.98546,14.32241 -12.49381,14.29355 l -21.27065,0.0272 c -9.50403,0.0359 -14.09973,-6.60248 -13.94385,-15.29436 z"
             transform="matrix(4.8286654,0,0,4.8286654,-898.62355,-314.2449)"
             id="path4592"
             style="opacity:0.2;fill:none;stroke:#000000;stroke-width:1;stroke-linecap:butt;stroke-linejoin:miter;stroke-miterlimit:4;stroke-opacity:1;stroke-dasharray:none;display:inline;filter:url(#filter4558)" />
          <path
             d="m 1010.8695,768.71682 31.4217,0.0895 0.1717,151.20947 c 1.2832,35.00677 26.9686,37.94558 47.4759,36.92571 l 76.1121,0 c 28.2782,-0.64417 43.4826,-13.54498 43.445,-40.73518 l -0.5322,-74.41178 c -0.7462,-20.29405 -36.4492,-18.09441 -36.0889,1.06469 l 0.048,71.61195 -29.9637,0 -0.2696,-72.07465 c -0.1694,-16.50095 -37.329,-23.27048 -37.5478,2.79311 l 0.6222,69.90376 -31.9133,-0.0899 0.042,-71.50072 c 0.08,-16.45753 12.118,-36.16326 30.496,-44.53947 14.7049,-6.70203 34.3539,-7.69955 53.1935,10.00593 16.8522,-17.89449 45.2901,-18.14708 60.2032,-6.7218 9.5025,7.28009 22.2438,15.50543 22.6013,38.10956 l 1.0647,78.46273 c 0.2756,41.46978 -24.073,69.15811 -60.3284,69.01876 l -102.7088,0.1314 c -45.8918,0.17348 -68.083,-31.88117 -67.3302,-73.85135 z"
             transform="translate(-854.41643,-630.55971)"
             id="path4544"
             style="fill:#ffffff;fill-opacity:1;stroke:none;display:inline" />
          <path
             d="m 139.37401,118.48669 0.35431,171.11677 c -0.88369,49.27458 25.1335,86.83358 79.01219,86.62995 l 120.46702,-0.17715 c 20.80751,0.08 38.28453,-7.65099 50.667,-21.25889 -11.92011,10.58097 -27.51211,16.54559 -45.7066,16.47564 l -120.64417,0.17715 c -53.87869,0.20369 -79.89588,-37.53253 -79.01219,-86.80711 l -0.42994,-162.78581 z m 93.8934,46.75229 c -12.31388,11.49522 -19.77337,27.44613 -19.84162,41.45482 l -0.17716,83.9726 37.55737,0.16276 -5.31654,-5.00026 -27.28042,-0.12291 0,-83.9726 c 0.0588,-12.07612 5.64188,-25.6174 15.05837,-36.49441 z m 121.88428,17.71574 c -7.19843,0.32733 -15.60618,1.40722 -22.4402,12.74467 15.1416,-11.26744 38.63703,-8.35185 39.27015,8.86853 l 0.35836,85.92772 c 9.78493,2.8e-4 27.73433,0.12554 37.90904,-0.0979 -2.07354,-1.63366 -2.60348,-3.1703 -4.03987,-4.43555 -5.52595,-0.0713 -14.95485,0.0603 -28.54539,0.20973 l -0.89889,-86.38726 c -0.43799,-11.91303 -11.07735,-17.30899 -21.6132,-16.82995 z m -78.1264,0.35431 c -7.2994,-0.3885 -17.9679,1.57837 -23.14883,12.03604 17.8798,-10.74418 39.71052,-4.08981 39.85446,9.93148 l 0.65582,84.68122 35.25431,0.1288 -5.53921,-4.91205 -24.75472,0 -0.35431,-84.68122 c -0.0994,-9.68635 -11.00383,-16.6007 -21.96752,-17.18427 z"
             transform="matrix(0.8517613,0,0,0.8517613,37.638535,36.924233)"
             id="path4624"
             style="opacity:0.5;fill:#393939;fill-opacity:1;stroke:none;display:inline;filter:url(#filter3392)" />
          <path
             d="m 355.07932,284.36088 0,1.27764 c 0.0376,27.19021 -15.16161,40.10727 -43.43983,40.75146 l -58.10609,0 0,30.98282 73.17162,-0.10647 c 36.25531,0.13936 60.61752,-27.54952 60.34197,-69.01929 l -0.0532,-3.88616 z"
             id="path2486"
             style="fill:url(#linearGradient3290);fill-opacity:1;stroke:#000000;stroke-width:0.85176128;stroke-opacity:1;display:inline" />
          <path
             d="m 372.6875,290.5 0,1.5 c 0.0441,31.92233 -17.80031,47.08744 -51,47.84375 l -68.21875,0 0,36.375 4.40625,-3.6875 0.25,-27.875 64.3125,-0.46875 c 31.52264,-0.6659 53.8702,-16.99176 54.0625,-49.8799 l 29.5876,0.0161 4.06865,-3.82374 z"
             transform="matrix(0.8517613,0,0,0.8517613,37.638535,36.924233)"
             id="path3261"
             style="opacity:0.5;fill:#000000;fill-opacity:1;stroke:none;display:inline;filter:url(#filter3316)" />
          <path
             d="m 406.09494,294.33533 c 0.32351,48.68708 -26.4986,79.26579 -69.06369,79.10217 l -79.14122,-0.82503 -4.42128,3.60628 85.90625,-0.125 c 42.5651,0.16361 71.16725,-32.34417 70.84375,-81.03125 l -0.0625,-4.5625 z"
             transform="matrix(0.8517613,0,0,0.8517613,37.638535,36.924233)"
             id="path3307"
             style="opacity:0.8;fill:#ffffff;fill-opacity:1;stroke:none;display:inline;filter:url(#filter3312)" />
          <path
             d="m 85.550108,105.57087 0,52.01067 c 28.401002,-1.18931 46.416352,-0.86264 45.968492,32.39355 55.00104,15.82181 104.68672,83.21515 279.20725,74.44314 l -1.8791,-51.07295 c 0.50057,-79.37463 -57.58009,-107.69076 -116.79777,-107.0025 z"
             id="path3400"
             style="opacity:0.2;fill:url(#linearGradient3292);fill-opacity:1;stroke:none;display:inline" />
        </g>
        <path
           d="m 301.86314,570.2889 c -1.1,-0.1249 -4.73423,-0.67457 -8.07607,-1.22148 -5.18147,-0.84798 -6.32915,-1.26365 -7.79505,-2.8232 l -1.719,-1.82882 2.29506,0.3284 c 13.11583,1.87681 32.15555,2.36089 43.79506,1.11347 3.575,-0.38313 6.6663,-0.61742 6.86956,-0.52065 0.20326,0.0968 -0.49052,0.92868 -1.54174,1.84868 -1.60762,1.40695 -2.93746,1.8083 -8.36956,2.52595 -5.99683,0.79227 -20.64168,1.12455 -25.45826,0.57765 z m 6.73764,-101.90629 c -5.82159,-2.06871 -9.58151,-8.35929 -7.82905,-13.09851 0.57218,-1.54735 1.20262,-1.8828 4.3799,-2.33048 4.87957,-0.68754 15.10041,-0.67235 19.06229,0.0283 l 3.14922,0.55696 0,4.79025 c 0,3.77077 -0.42083,5.20874 -1.97736,6.75665 -3.66552,3.64519 -11.48338,5.18072 -16.785,3.29679 z m 6.5742,-7.97294 c 0.22855,-0.60208 -0.30446,-0.88201 -1.6795,-0.88201 -2.29335,0 -3.56338,0.75773 -2.59812,1.5501 0.97327,0.79894 3.89389,0.3428 4.27762,-0.66809 z m 20.51255,6.02763 c -4.42662,-1.8897 -5.45225,-3.58571 -5.11787,-8.46312 l 0.29348,-4.28084 10.12458,-0.14389 c 11.64813,-0.16552 11.33657,-0.30555 11.36177,5.10668 0.022,4.73287 -4.06414,8.30475 -10.06574,8.79886 -2.8442,0.23415 -4.12758,0.0362 -6.59622,-1.01769 z m 5.67561,-5.89497 c 0,-1.18181 -3.47524,-1.42555 -4.32411,-0.30327 -0.67431,0.89151 0.1316,1.31794 2.49078,1.31794 1.16666,0 1.83333,-0.36896 1.83333,-1.01467 z"
           id="path4026"
           style="fill:#ffffff;fill-opacity:1" />
        <path
           d="m 263.96265,610.26947 c 0,-0.67168 6.61166,-8.85119 10.23826,-12.66609 5.46292,-5.74658 11.90554,-8.50221 16.78226,-7.1781 2.98802,0.8113 2.45281,1.80553 -3.03099,5.63059 -5.55529,3.87493 -15.98953,13.02366 -15.98953,14.01961 0,0.4056 -1.45529,0.63756 -4,0.63756 -2.2,0 -4,-0.19961 -4,-0.44357 z m 25.00711,-2.21993 c 0.004,-1.46492 0.29346,-4.20169 0.64345,-6.0817 0.54359,-2.92001 1.13872,-3.71596 4.08326,-5.46122 6.1149,-3.62433 6.03069,-6.38717 -0.26109,-8.5663 l -3.49666,-1.21106 0.59447,-4.11594 c 0.7859,-5.44134 0.85771,-5.52862 4.23921,-5.15182 3.21285,0.358 8.69018,-0.45276 6.19025,-0.9163 -0.825,-0.15297 -4.2,-0.40744 -7.5,-0.5655 -16.28915,-0.78017 -16.29432,-0.78087 -19.42714,-2.59107 -1.63582,-0.94521 -3.2819,-2.55066 -3.65797,-3.56768 -1.00471,-2.71704 0.12121,-9.31056 1.97405,-11.56032 l 1.6099,-1.95477 12.50058,0.21113 c 9.78175,0.1652 12.50058,0.0682 12.50058,-0.44608 0,-0.41219 -1.29776,-0.65721 -3.48095,-0.65721 -2.80411,0 -3.57222,-0.22195 -3.95037,-1.1415 -0.25818,-0.62782 -0.69442,-19.17721 -0.96943,-41.22085 -0.63154,-50.62139 -2.81859,-76.46718 -7.62009,-90.05169 -1.1342,-3.20888 -2.23994,-6.3515 -2.45722,-6.98359 -0.84131,-2.44753 15.92225,-5.20054 31.54195,-5.18001 8.34639,0.011 11.37351,0.19677 20.68611,1.2697 1.9332,0.22273 2.25811,0.59718 2.30763,2.6594 0.17553,7.31059 3.31751,8.6709 7.97943,3.45468 5.01718,-5.61372 5.81592,-4.13149 1.92877,3.57927 -1.01895,2.02126 -2.16237,5.06391 -2.54093,6.76147 -0.37856,1.69755 -0.97395,3.17602 -1.32309,3.2855 -0.34914,0.10947 -2.7613,-0.0478 -5.36036,-0.34958 l -4.72557,-0.54861 0.33586,-3.60371 c 0.18472,-1.98204 -0.0122,-4.05577 -0.43766,-4.60828 -0.48827,-0.63412 -0.80446,0.30503 -0.85745,2.54677 -0.1426,6.03329 0.22333,5.83433 -10.73064,5.83433 -16.68542,0 -27.87208,1.44788 -24.48058,3.16851 0.88087,0.44689 2.8518,0.4417 8.17618,-0.0215 17.68711,-1.53874 42.56261,-0.0455 47.00831,2.82184 2.5986,1.67602 2.56529,4.83781 -0.0738,7.00417 -1.96723,1.61487 -9.77719,4.27632 -12.54874,4.27632 -0.73739,0 -2.96071,0.82188 -4.94071,1.8264 -1.98,1.00452 -3.70071,1.74649 -3.82379,1.64883 -5.4198,-4.30048 -9.86434,-5.73805 -16.5586,-5.35581 -3.81849,0.21804 -5.20977,0.6192 -8.32866,2.40154 -2.05941,1.17688 -4.28154,3.08213 -4.93806,4.23391 -1.59625,2.80036 -1.55886,8.23111 0.0732,10.63548 2.36981,3.49118 9.86988,6.93232 15.10924,6.93232 4.43719,0 10.2579,-2.21485 13.52174,-5.14518 0.92844,-0.83356 1.36694,-0.73688 4.80202,1.05876 l 3.78028,1.97611 -1.05132,21.98266 c -0.57823,12.09046 -1.05164,31.37208 -1.05202,42.84805 -7.8e-4,23.19904 0.41327,21.86853 -6.96148,22.37037 -2.22157,0.15116 -4.03922,0.50825 -4.03922,0.79351 0,0.34472 4.68157,0.40529 13.95814,0.18064 l 13.95814,-0.33805 1.15782,2.16241 c 1.47265,2.7504 0.61504,8.89303 -1.53627,11.00364 -0.89872,0.8817 -2.62488,1.81035 -3.83593,2.06367 -11.68762,2.44469 -15.86201,3.22851 -19.86924,3.73078 -7.06531,0.88557 -6.89421,1.34532 0.50067,1.34532 l 6.66667,0 0,10.82802 c 0,5.95541 0.29415,13.60347 0.65368,16.99567 l 0.65367,6.16765 -17.15368,0 -17.15367,0 0,-7.32638 c 0,-6.79152 -0.73447,-8.83558 -2.61895,-7.28864 -0.41643,0.34184 -0.95521,3.77006 -1.19729,7.61828 l -0.44013,6.99674 -3.87182,0 -3.87181,0 0.007,-2.6635 z m 40.262,-37.38734 c 4.82301,-0.59161 9.91259,-1.29621 11.31018,-1.56579 2.89041,-0.55753 2.27236,-1.71222 -0.66345,-1.23949 -4.72179,0.76031 0.3225,-2.91338 5.97146,-4.34893 6.69338,-1.70098 2.85677,-1.87118 -6.65404,-0.2952 -15.60418,2.58568 -27.69973,2.97559 -42.73326,1.37757 -13.90691,-1.47827 -15.61309,-1.98751 -13.20557,-3.94144 1.12558,-0.9135 -1.06008,-1.32192 -3.05987,-0.57177 -0.97429,0.36546 -1.89135,1.46123 -2.04142,2.43922 -0.14985,0.97661 -0.51537,2.40349 -0.81226,3.17083 -0.39771,1.02793 -0.14153,1.39516 0.97324,1.39516 0.90721,0 1.63973,-0.55863 1.82946,-1.39516 0.3061,-1.34966 0.405,-1.31872 3.03232,0.94864 3.14659,2.71552 6.82623,3.76662 16.58982,4.73897 8.68689,0.86511 18.54491,0.62669 29.46339,-0.71261 z m -2.26911,-63.69885 c 0,-21.53348 -0.18729,-24.60567 -1.5,-24.60567 -1.31243,0 -1.5,3.03461 -1.5,24.26745 0,13.3471 0.3,24.41965 0.66667,24.60567 0.36666,0.18603 1.04166,0.33822 1.5,0.33822 0.45833,0 0.83333,-11.07254 0.83333,-24.60567 z m 11.76716,-62.66017 c 2.34717,-2.25176 -0.25152,-10.09938 -2.8995,-8.75598 -0.74401,0.37747 -0.68115,1.3911 0.21181,3.41547 1.11715,2.53258 1.06848,3.05161 -0.40482,4.31696 -0.92106,0.79104 -1.67465,1.70515 -1.67465,2.03135 0,1.02847 3.39209,0.31137 4.76716,-1.0078 z m -30.04459,-1.64435 c -0.12196,-1.46492 0.15512,-3.63377 0.61574,-4.81966 0.69434,-1.78763 0.57411,-2.15617 -0.70341,-2.15617 -1.84441,0 -3.62136,2.89832 -3.62932,5.91967 -0.007,2.58797 0.77617,3.71966 2.57357,3.71966 1.00836,0 1.30721,-0.69614 1.14342,-2.6635 z m -23.84141,136.71043 c -0.32944,-1.00818 -0.18269,-1.48147 0.37209,-1.20001 0.50384,0.25561 0.74864,1.00477 0.544,1.66477 -0.31488,1.01552 -0.45572,0.94406 -0.91609,-0.46476 z m 54.81884,-0.93953 c -1.83288,-0.92989 -0.51206,-2.30697 2.90809,-3.03197 4.98023,-1.05569 5.43384,-0.4899 1.29191,1.61143 -1.925,0.97662 -3.815,1.61586 -4.2,1.42054 z m -59.95,-0.52203 c 0.6875,-0.14073 1.8125,-0.14073 2.5,0 0.6875,0.14075 0.125,0.2559 -1.25,0.2559 -1.375,0 -1.9375,-0.11515 -1.25,-0.2559 z m 77.78185,-11.33267 c 0.339,-1.53468 1.37052,-3.2849 2.29226,-3.88937 0.92174,-0.60447 6.23155,-4.02896 11.79958,-7.61 5.56803,-3.58103 13.9419,-9.41602 18.60859,-12.96665 4.6667,-3.55063 8.84568,-6.29023 9.28664,-6.088 0.44095,0.20222 0.49759,0.0984 0.12587,-0.23079 -0.37172,-0.32917 0.73619,-1.81311 2.46204,-3.29767 5.07072,-4.36179 7.89317,-8.00888 7.89317,-10.19935 0,-1.76102 -0.60928,-2.33673 -4.36279,-4.12237 -2.39953,-1.14151 -4.88884,-2.87453 -5.53178,-3.85114 -0.66425,-1.00897 -3.34539,-2.76144 -6.20944,-4.05867 -4.66897,-2.11475 -4.96402,-2.38478 -4.00358,-3.664 2.0894,-2.78291 8.79512,-2.44396 12.6305,0.63841 2.49964,2.00889 5.14644,3.02559 7.87655,3.02559 2.91104,0 8.11703,-2.94443 12.36838,-6.99538 3.74675,-3.57014 4.43286,-4.74693 5.61949,-9.63829 0.74341,-3.0644 1.66194,-5.82634 2.04118,-6.13765 0.37924,-0.31131 1.99713,-0.56602 3.59532,-0.56602 5.11428,0 5.47492,1.32698 2.02162,7.43855 -3.71032,6.56643 -3.8578,8.08961 -0.83049,8.57707 1.81451,0.29217 2.84427,-0.0456 5.69582,-1.86832 6.15139,-3.93196 16.34038,-8.56663 18.83313,-8.56663 3.26681,0 3.91498,1.35449 1.41492,2.95678 -1.16328,0.74555 -4.18928,2.90025 -6.72443,4.78821 -2.53515,1.88796 -7.49474,4.7417 -11.02132,6.34166 -3.52658,1.59996 -6.41222,3.18636 -6.41252,3.52533 -8.7e-4,0.96431 3.7953,1.75681 8.59154,1.79358 3.2531,0.025 5.68696,-0.3786 9.46035,-1.56865 2.79424,-0.88123 5.69898,-1.60224 6.45498,-1.60224 3.66449,0 2.96421,2.61959 -1.30634,4.88671 -5.57479,2.95953 -8.22969,3.56826 -17.90264,4.10486 -7.66262,0.42508 -10.03988,0.78337 -14.2141,2.14231 -2.8229,0.919 -5.53255,1.46881 -6.20296,1.2586 -0.72646,-0.22778 -0.92713,-0.15713 -0.51487,0.18129 0.37155,0.305 0.0511,0.73979 -0.71202,0.96621 -0.76315,0.22643 -5.24997,4.2357 -9.9707,8.90949 -4.72073,4.67378 -11.86763,10.95204 -15.882,13.95167 -6.84205,5.11253 -26.21036,17.65285 -34.28117,22.19588 l -3.60516,2.02932 0.61638,-2.79033 z m 58.792,-48.39542 c -0.71904,-2.24796 1.16696,-5.0524 4.81557,-7.16064 2.01003,-1.16144 2.56235,-1.80625 1.76208,-2.05716 -1.69314,-0.53089 -7.52769,3.18608 -8.92708,5.68709 -1.33446,2.38498 -0.49268,5.25146 1.54216,5.25146 0.9849,0 1.20655,-0.47248 0.80727,-1.72075 z m -83.32385,-66.75624 c 0,-0.93608 6.16176,-2.15279 9.29319,-1.83505 3.20773,0.32548 5.70681,1.15056 5.70681,1.88414 0,0.24486 -3.375,0.44521 -7.5,0.44521 -4.20155,0 -7.5,-0.21739 -7.5,-0.4943 z m -28.83757,-1.18168 c 1.44672,-1.37143 6.92817,-2.88598 10.45271,-2.88812 3.18006,-0.002 7.68457,1.4303 9.29257,2.95461 0.81096,0.76876 -0.12006,0.84849 -9.90771,0.84849 -10.10059,0 -10.74003,-0.0594 -9.83757,-0.91498 z m -31.16243,-35.32942 c 0,-0.26257 0.44485,-0.61687 0.98855,-0.78735 0.56686,-0.17774 0.7345,0.026 0.39301,0.47739 -0.66479,0.87892 -1.38156,1.03973 -1.38156,0.30996 z"
           id="path3130"
           style="fill:#9c5537;fill-opacity:1" />
        <path
           d="m 258.81977,610.91089 c 0,-0.13035 2.27132,-3.04118 5.04739,-6.4685 8.46305,-10.44845 14.29235,-15.16842 19.56219,-15.83945 2.30723,-0.29379 2.39042,-0.46937 2.39042,-5.04542 l 0,-4.74104 -4.65912,-0.32399 c -6.1474,-0.42747 -10.98002,-2.36517 -13.93872,-5.58889 -2.80099,-3.05189 -3.05208,-6.11045 -0.95758,-11.66424 2.47652,-6.56671 4.23824,-7.53206 13.44086,-7.36504 l 6.61456,0.12006 -0.18341,-36.99609 c -0.18882,-38.08748 -1.3439,-61.61428 -3.81109,-77.62476 -1.69624,-11.00753 -2.73199,-14.4905 -5.96874,-20.07129 l -2.45837,-4.23872 2.20126,-0.9411 c 3.9101,-1.67169 11.65841,-3.39791 20.03762,-4.46414 9.88991,-1.25845 24.8365,-1.07211 36.63859,0.45679 7.08245,0.91749 7.50134,1.05289 8.36375,2.70349 0.85269,1.63199 0.9598,1.66823 1.76191,0.59612 1.00002,-1.33662 3.27114,-1.43892 8.29636,-0.37369 4.08836,0.86665 4.36368,1.49826 2.11382,4.84932 -0.82956,1.2356 -2.62047,5.10029 -3.97981,8.58821 l -2.47152,6.34167 2.22982,0.74689 c 1.22639,0.41078 3.69231,1.51146 5.47981,2.44595 2.82659,1.47771 3.24714,2.04137 3.22804,4.32645 -0.0259,3.09368 -2.66765,6.34313 -6.35241,7.81361 -1.4441,0.57629 -2.62563,1.1795 -2.62563,1.34045 0,0.16096 1.40709,1.30542 3.12686,2.54324 7.36943,5.30422 3.65655,14.61831 -6.71562,16.84673 l -3.08877,0.66362 -0.65852,11.82286 c -0.36219,6.50258 -0.95856,25.58135 -1.32527,42.39726 l -0.66674,30.57438 6.13553,-0.13437 c 7.06881,-0.15482 9.89752,0.79024 11.06987,3.69835 0.37074,0.91965 1.1125,1.73702 1.64836,1.81637 3.3777,0.50024 40.19989,-26.60244 45.77122,-33.68953 2.48231,-3.15767 2.14996,-4.04595 -2.2664,-6.05735 -2.18321,-0.99433 -4.68554,-2.75911 -5.56072,-3.92174 -1.00695,-1.33766 -3.21816,-2.75597 -6.02186,-3.86251 -5.12627,-2.0232 -6.09548,-3.27465 -4.47063,-5.77244 1.68516,-2.59048 5.29228,-3.83987 11.08612,-3.83987 5.11079,0 5.59721,0.16487 10.3784,3.5177 1.618,1.13463 3.2826,2.06296 3.69911,2.06296 1.05818,0 4.97178,-2.76711 8.75096,-6.18738 2.61918,-2.37042 3.44196,-3.91255 4.57861,-8.58164 1.74437,-7.1655 3.0674,-8.24991 10.33023,-8.46711 9.85184,-0.2946 11.49913,2.56707 6.0825,10.56651 -1.71422,2.53161 -2.87171,4.72726 -2.57219,4.87921 0.29952,0.15195 1.64254,-0.60142 2.9845,-1.67415 3.71694,-2.97126 10.38472,-6.89852 12.92948,-7.61533 3.13578,-0.88329 7.89211,-0.83236 10.55246,0.113 3.32487,1.18149 2.97797,4.09337 -0.88538,7.43207 -3.6203,3.12866 -13.70677,9.53059 -15.59492,9.89818 -0.71345,0.1389 -1.29719,0.57441 -1.29719,0.96781 0,0.54008 1.21645,0.40254 4.96676,-0.56161 3.36022,-0.86387 6.6028,-1.27689 10.02475,-1.27689 4.59512,0 5.15464,0.12768 6.11407,1.39517 0.58084,0.76734 0.81276,2.16915 0.51537,3.11511 -0.58841,1.8717 -5.03452,5.63639 -6.65658,5.63639 -0.55399,0 -2.7438,0.58303 -4.86626,1.29561 -3.08042,1.03422 -5.65008,1.36822 -12.73639,1.65547 -14.13861,0.5731 -20.62867,3.00633 -26.34113,9.87568 -1.56359,1.88024 -4.90787,5.20561 -7.43174,7.3897 -2.52387,2.18408 -4.58885,4.14376 -4.58885,4.35484 0,0.21109 -2.78833,2.35987 -6.19629,4.77508 -17.07241,12.09918 -37.25498,24.59097 -53.14961,32.89639 l -6.97711,3.64575 0.675,13.73042 0.67499,13.73042 -2.39686,0 c -1.6403,0 -2.58718,-0.36031 -2.99983,-1.1415 -0.33164,-0.62782 -0.60913,-8.29891 -0.61664,-17.04687 l -0.0136,-15.90536 -6.15989,0.17802 c -7.28356,0.2105 -9.29085,-0.77108 -2.62878,-1.2855 2.35877,-0.18213 5.63867,-0.66731 7.28867,-1.07816 1.65,-0.41086 5.7,-1.27663 9,-1.92394 4.11646,-0.80746 6.66904,-1.68029 8.13123,-2.78042 3.56977,-2.68584 4.20049,-9.534 1.14922,-12.4778 -0.87985,-0.84887 -1.71057,-0.91132 -7.63387,-0.5739 -15.47229,0.88137 -26.61325,0.28731 -16.90126,-0.90122 1.79007,-0.21906 4.26718,-0.65716 5.50468,-0.97355 l 2.25,-0.57527 0.0124,-26.16878 c 0.007,-14.39282 0.46034,-33.60566 1.00788,-42.6952 l 0.99551,-16.52643 -3.78119,-2.07791 -3.78119,-2.07792 -2.28564,2.01482 c -4.39323,3.87267 -12.65986,5.09105 -19.25157,2.8374 -4.79865,-1.64062 -9.00365,-6.05916 -9.64919,-10.13921 -0.6954,-4.39512 1.61579,-7.88197 7.17568,-10.82583 3.94307,-2.08779 4.55604,-2.23151 9.5175,-2.23151 4.91035,0 5.61538,0.15965 9.52198,2.15617 2.32044,1.18589 4.43993,2.49861 4.70998,2.91716 0.37233,0.57708 1.11944,0.38394 3.09131,-0.79919 1.43018,-0.8581 5.458,-2.17637 8.95072,-2.92946 7.27469,-1.56858 11.76582,-4.35445 11.76582,-7.29841 0,-3.45758 -3.90796,-4.78819 -18.29915,-6.23064 -6.06646,-0.60805 -24.51996,-0.28812 -32.39225,0.5616 -5.19908,0.56117 -7.51035,0.16037 -7.11147,-1.23321 0.41311,-1.44331 8.95028,-2.31281 22.99385,-2.34189 5.88004,-0.0122 10.93687,-0.22397 11.23739,-0.47066 0.30052,-0.2467 0.84576,-2.76606 1.21165,-5.59859 0.36589,-2.83253 1.04656,-5.26962 1.51261,-5.41575 0.46606,-0.14613 0.84737,2.35317 0.84737,5.55399 l 0,5.81969 4.12374,0.35346 c 4.42366,0.37916 5.82359,-0.10733 5.87001,-2.03994 0.0211,-0.88079 3.37083,-8.80252 5.55198,-13.12999 1.27179,-2.52328 -1.56251,-1.30845 -3.93594,1.68701 -2.36067,2.97935 -4.82703,4.17937 -6.66907,3.24483 -0.61288,-0.31093 -1.36293,-2.40547 -1.66678,-4.65454 l -0.55246,-4.08921 -5.11074,-0.56592 c -8.53279,-0.94485 -21.74234,-1.19074 -29.09089,-0.54151 -6.15733,0.54399 -17.88357,2.63496 -19.7375,3.5195 -0.39471,0.18831 0.15376,2.50722 1.2188,5.15311 2.70376,6.71691 3.92855,11.41099 4.54201,17.40747 0.29033,2.83795 0.94471,8.01367 1.45418,11.50159 1.12771,7.72048 2.81376,43.09822 3.78397,79.39768 l 0.71869,26.88867 3.28935,0.25368 c 1.80915,0.13951 3.26814,0.48196 3.24221,0.76099 -0.0288,0.3102 -4.9573,0.50734 -12.68334,0.50734 l -12.63621,0 -1.33845,1.95348 c -1.83595,2.6796 -2.77291,7.86407 -1.93409,10.70191 0.45239,1.53051 1.73074,2.95181 3.65492,4.06364 2.53618,1.46546 3.77732,1.75013 8.6824,1.99138 13.76305,0.67694 18.58963,1.11177 18.978,1.70975 0.29653,0.45657 -1.15179,0.63418 -5.17146,0.63418 l -5.58333,0 0.006,4.69283 c 0.006,4.6832 0.0125,4.69461 3.00904,5.55971 3.95694,1.14234 5.38591,3.06703 3.93408,5.29884 -0.61082,0.93897 -1.64642,1.99052 -2.30134,2.33675 -4.80402,2.53982 -5.64808,3.58124 -5.64808,6.96881 0,1.87667 -0.28617,4.47132 -0.63592,5.76592 -0.5486,2.03056 -0.95431,2.35381 -2.95431,2.35381 -2.15988,0 -2.33861,-0.22842 -2.61408,-3.34089 l -0.29569,-3.34089 -3.84456,3.34089 c -3.03411,2.63661 -4.34713,3.34089 -6.22857,3.34089 -2.22517,0 -2.30399,-0.0929 -1.18313,-1.39517 2.39723,-2.7851 12.10265,-11.10657 16.40659,-14.06706 5.19289,-3.57198 5.23886,-4.51764 0.23,-4.73071 -6.87728,-0.29254 -11.83711,3.20822 -20.88215,14.73911 -4.04475,5.15637 -4.43408,5.45383 -7.13813,5.45383 -1.57303,0 -2.86005,-0.10665 -2.86005,-0.23701 z m 88.80809,-35.54281 c -1.22345,-0.62069 -7.80809,1.22225 -7.80809,2.18537 0,1.7236 1.34623,1.69354 4.9,-0.1094 1.925,-0.97662 3.23364,-1.9108 2.90809,-2.07597 z m 23.3982,-13.58908 c 22.11759,-13.63486 29.10436,-18.98629 42.9173,-32.87202 5.6511,-5.68089 6.08537,-5.96237 12.3893,-8.03069 5.87164,-1.92649 7.55049,-2.21058 16.58591,-2.80671 8.56479,-0.56507 10.59691,-0.88529 13.7271,-2.16308 9.99233,-4.079 10.56251,-8.90149 0.64891,-5.48837 -5.73621,1.97489 -10.48687,2.55118 -14.9166,1.80949 -5.91054,-0.98963 -5.57464,-1.75233 2.55383,-5.79873 4.06338,-2.02277 8.7315,-4.68687 10.37359,-5.92022 1.6421,-1.23336 4.24438,-3.06037 5.78285,-4.06005 3.02231,-1.96384 2.85822,-3.50941 -0.37259,-3.50941 -1.03957,0 -3.79911,0.85612 -6.13231,1.90249 -5.56025,2.49362 -5.48198,2.4524 -11.13655,5.86491 -3.55803,2.14725 -5.44695,2.89927 -7,2.78688 -3.15265,-0.22818 -3.21136,-2.67314 -0.19205,-7.99756 3.82371,-6.74298 3.40256,-8.1374 -2.45775,-8.1374 -2.64742,0 -2.87164,0.33308 -4.36325,6.48162 -1.16523,4.80316 -1.89897,6.07103 -5.60469,9.68471 -8.19341,7.98987 -12.73558,9.04188 -20.00929,4.63434 -3.4246,-2.07515 -4.76969,-2.53666 -7.39312,-2.53666 -7.05043,0 -7.61655,2.67306 -1.08878,5.14092 3.40694,1.28801 4.81475,2.24626 5.72435,3.89641 0.84563,1.53407 2.44318,2.70253 5.34353,3.90827 7.29766,3.03379 6.56113,5.81821 -3.95658,14.95774 -9.75058,8.47293 -23.13649,18.14677 -37.20645,26.88867 -5.40399,3.3576 -6.19491,4.13311 -6.72644,6.59534 l -0.60235,2.79033 2.20292,-1.32702 c 1.21161,-0.72987 6.12075,-3.74226 10.90921,-6.6942 z m 43.15643,-42.809 c -0.37146,-0.75086 -0.14705,-2.36739 0.4987,-3.59229 1.27214,-2.41307 6.65289,-6.20384 8.80594,-6.20384 2.01007,0 1.61078,0.70523 -1.14219,2.01735 -3.51237,1.67404 -5.91617,5.13719 -5.09924,7.34644 0.52532,1.42064 0.34467,1.79755 -0.86156,1.79755 -0.83945,0 -1.83019,-0.61435 -2.20165,-1.36521 z m -93.0849,-50.38477 c 4.714,-1.88122 6.72218,-4.87678 6.72218,-10.02736 l 0,-4.63564 -3.75,-0.52836 c -4.7931,-0.67531 -13.68853,-0.67792 -18.46151,-0.005 -3.17728,0.44768 -3.80772,0.78314 -4.3799,2.33049 -1.75246,4.73922 2.00746,11.0298 7.82905,13.09851 3.10356,1.10285 8.97861,0.98952 12.04018,-0.23226 z m -9.77782,-7.1007 c -0.92331,-0.75793 0.36137,-1.522 2.55902,-1.522 1.27431,0 1.94098,0.34851 1.94098,1.01467 0,1.07608 -3.34741,1.45347 -4.5,0.50733 z m 33.72127,6.06012 c 5.81999,-1.34533 9.21639,-6.83283 7.35113,-11.87708 l -0.66303,-1.79304 -9.84769,0 c -11.41649,0 -11.06168,-0.16459 -11.06168,5.13112 0,4.07591 1.62156,6.42114 5.51368,7.97436 3.0595,1.22096 5.253,1.36319 8.70759,0.56464 z m -7.4857,-5.85606 c -1.11931,-0.56785 0.47193,-1.72606 2.37142,-1.72606 1.22634,0 1.89301,0.35734 1.89301,1.01467 0,0.96733 -2.82954,1.43937 -4.26443,0.71139 z m 11.26443,-9.83037 c 0,-0.27187 -1.38285,-0.8571 -3.07299,-1.30051 -3.63289,-0.9531 -7.92648,-0.62164 -10.47831,0.80891 -1.72702,0.96817 -1.62091,0.9859 5.89631,0.9859 4.30215,0 7.65499,-0.21649 7.65499,-0.4943 z m -24,-0.55228 c 0,-0.15707 -1.24898,-0.89265 -2.77551,-1.63463 -2.7197,-1.32193 -4.53424,-1.61923 -8.89776,-1.45784 -2.09396,0.0774 -8.32673,2.35496 -8.32673,3.04265 0,0.18447 4.5,0.33541 10,0.33541 5.5,0 10,-0.12852 10,-0.28559 z m -26,152.76923 c 0,-3.89 0.39854,-7.19769 0.88565,-7.35042 0.48711,-0.15274 1.0513,0.23331 1.25376,0.85789 0.70956,2.18895 -0.31622,13.56526 -1.22316,13.56526 -0.51119,0 -0.91625,-3.12678 -0.91625,-7.07273 z m 0.5,-32.32211 c -9.10521,-0.98176 -12.45208,-2.01299 -15.47811,-4.76911 l -2.47812,-2.25706 -0.5317,1.522 c -0.84894,2.43007 -2.54178,1.2643 -2.21014,-1.522 0.32642,-2.74245 2.36118,-4.81967 4.72112,-4.81967 1.67937,0 1.97919,0.7973 0.47695,1.26833 -3.95624,1.24048 2.37991,2.88374 15.64418,4.05724 14.807,1.31001 28.50011,0.68369 42.7925,-1.95728 3.81517,-0.70498 7.30267,-1.16702 7.75,-1.02675 1.70764,0.53542 0.66241,1.10118 -3.53797,1.91502 -2.74299,0.53146 -4.85642,1.35389 -5.71792,2.22509 -0.75164,0.76011 -1.51139,1.52332 -1.68834,1.696 -0.17694,0.1727 0.82112,0.20316 2.21792,0.0677 2.61037,-0.25316 3.49161,0.52828 1.35221,1.19908 -0.65308,0.20478 -3.69058,0.69141 -6.75,1.08142 -18.9464,2.41521 -24.53423,2.61695 -36.56258,1.32 z m 29.77047,-1.81442 c 3.37479,-0.4617 5.34769,-1.09692 6.74341,-2.1712 2.05595,-1.58244 2.58079,-2.52589 1.15677,-2.07939 -0.45614,0.14302 -3.94364,0.51491 -7.75,0.82642 -10.7292,0.87806 -26.40539,0.64926 -35.67051,-0.52063 -4.4137,-0.55731 -8.17856,-1.01329 -8.36636,-1.01329 -0.1878,0 0.43652,0.79343 1.38738,1.76317 1.80534,1.84119 5.47172,2.75324 15.30403,3.80704 5.55515,0.59539 20.89234,0.25017 27.19528,-0.61212 z m -3.75233,-40.59826 c -0.33242,-1.18589 -0.47249,-11.95409 -0.31127,-23.92933 0.22699,-16.86061 0.57516,-21.82083 1.54313,-21.98445 0.98832,-0.16705 1.25,4.84237 1.25,23.92933 0,14.70505 -0.36691,24.14062 -0.93873,24.14062 -0.5163,0 -1.21071,-0.97028 -1.54313,-2.15617 z m 10.26916,-83.35288 c -0.37576,-0.19064 0.0237,-0.89392 0.88759,-1.56285 1.43374,-1.11014 1.56028,-5.27978 0.21359,-7.03846 -0.21366,-0.27904 0.0615,-0.58121 0.61152,-0.67152 1.31869,-0.21651 3.79742,4.82093 3.08289,6.26526 -0.71992,1.45523 -3.91085,3.45643 -4.79559,3.00757 z m -28.67299,-2.13281 c -1.03889,-2.0529 -0.0708,-6.43983 1.60917,-7.29214 0.70095,-0.35562 0.98626,1.01683 0.90112,4.33467 -0.0685,2.67027 -0.44475,4.85615 -0.83606,4.8575 -0.3913,0.002 -1.1447,-0.85365 -1.67423,-1.90003 z"
           id="path3066"
           style="fill:#000000" />
      </g>
    </g>
  </g>
</svg>
