<?xml version="1.0" encoding="UTF-8"?>
<!DOCTYPE svg PUBLIC "-//W3C//DTD SVG 1.1//EN" "http://www.w3.org/Graphics/SVG/1.1/DTD/svg11.dtd">
<svg xmlns="http://www.w3.org/2000/svg" version="1.1" width="32px" height="32px" style="shape-rendering:geometricPrecision; text-rendering:geometricPrecision; image-rendering:optimizeQuality; fill-rule:evenodd; clip-rule:evenodd" xmlns:xlink="http://www.w3.org/1999/xlink">
<g><path style="opacity:1" fill="#000000" d="M -0.5,16.5 C -0.5,15.5 -0.5,14.5 -0.5,13.5C 1.26241,13.3573 2.92908,13.6906 4.5,14.5C 8.69423,11.657 13.1942,10.657 18,11.5C 19.4341,11.0696 20.6008,10.2362 21.5,9C 23.9018,8.18591 26.2351,8.35258 28.5,9.5C 27.7769,11.1639 28.1103,12.8306 29.5,14.5C 28.5557,16.6879 26.889,18.0212 24.5,18.5C 23.5258,20.7427 23.1924,23.076 23.5,25.5C 19.8011,24.5225 16.1345,23.3559 12.5,22C 11.87,20.108 10.87,18.4413 9.5,17C 6.15362,17.6954 2.82029,17.5287 -0.5,16.5 Z"/></g>
</svg>
