<?xml version="1.0" encoding="UTF-8" standalone="no"?>
<!-- Created with Inkscape (http://www.inkscape.org/) -->

<svg
   width="21.756277"
   height="22.24505"
   viewBox="0 0 5.7563482 5.8856696"
   version="1.1"
   id="svg1"
   xml:space="preserve"
   xmlns="http://www.w3.org/2000/svg"
   xmlns:svg="http://www.w3.org/2000/svg"><defs
     id="defs1" /><path
     id="primary-1"
     d="m 2.8497166,2.0169959 a 0.19430437,0.16627186 0 0 0 -0.3565218,0 L 1.9940643,2.8605586 v 0 L 1.7373686,2.3632685 a 0.17826089,0.15254299 0 0 0 -0.3208696,0 L 0.66780326,3.7514097 H 3.8764993 Z"
     fill="currentColor"
     stroke="currentColor"
     stroke-linecap="round"
     stroke-linejoin="round"
     stroke-width="0.329803" /><g
     id="g1"
     transform="translate(-0.30779654,-0.26636243)"><path
       style="display:inline;fill:currentColor;fill-opacity:1;stroke-width:0.0223716"
       d="M 12.707095,6.2176154 C 12.241772,6.0954083 11.859125,5.721262 11.75719,5.2888121 11.657113,4.8642474 11.78669,4.4413974 12.111202,4.1335844 12.366775,3.8911609 12.668751,3.7693065 13.012341,3.769953 c 0.374193,7.04e-4 0.663289,0.1190646 0.927723,0.3798246 0.248723,0.2452682 0.377789,0.5395762 0.377789,0.861471 0,0.5566612 -0.414813,1.0603415 -0.994645,1.2077326 -0.165483,0.042065 -0.453172,0.041427 -0.616113,-0.00137 z"
       id="path5"
       transform="scale(0.26458333)" /><path
       style="fill:currentColor;fill-opacity:1;stroke-width:0.00790957"
       d="m 10.56428,5.2364533 c -0.06753,-0.027763 -0.104984,-0.063297 -0.137909,-0.1308251 -0.02846,-0.058368 -0.02895,-0.1356679 -0.0012,-0.1937845 0.02624,-0.055016 0.08457,-0.1098068 0.138291,-0.1299055 0.03981,-0.014896 0.061,-0.016422 0.22806,-0.016422 0.143545,0 0.191894,0.00264 0.219193,0.011948 0.09796,0.033416 0.16902,0.1311396 0.168535,0.2317661 -3.41e-4,0.070517 -0.02382,0.1234184 -0.07718,0.1738788 -0.06971,0.065933 -0.09934,0.072835 -0.311715,0.072613 -0.171561,-1.793e-4 -0.181735,-0.00105 -0.226056,-0.019269 z"
       id="path6"
       transform="scale(0.26458333)" /><path
       style="fill:currentColor;fill-opacity:1;stroke-width:0.00790957"
       d="M 11.453102,3.819468 C 11.400728,3.8004461 11.365889,3.7729699 11.246436,3.6564788 11.122899,3.5360055 11.104199,3.5066147 11.099053,3.4248443 11.088444,3.256272 11.24742,3.1286515 11.414765,3.1714019 c 0.06788,0.017342 0.09169,0.034621 0.221047,0.1604527 0.137886,0.1341253 0.153175,0.1595876 0.153198,0.2551359 1.3e-5,0.054814 -0.0033,0.073506 -0.01803,0.1012035 -0.04714,0.088746 -0.122922,0.1370808 -0.221845,0.1414899 -0.042,0.00187 -0.07135,-0.00125 -0.09604,-0.010216 z"
       id="path7"
       transform="scale(0.26458333)" /><path
       style="fill:currentColor;fill-opacity:1;stroke-width:0.00790957"
       d="M 12.955319,3.2365326 C 12.873719,3.2134716 12.819488,3.1670596 12.78258,3.0886875 12.76247,3.0459945 12.76209,3.0419435 12.76209,2.871008 V 2.6968311 l 0.02587,-0.052547 c 0.04605,-0.093538 0.126191,-0.1435019 0.231037,-0.1440379 0.04783,-2.446e-4 0.06818,0.00373 0.103929,0.02028 0.06005,0.027808 0.104856,0.070106 0.1313,0.1239552 l 0.02199,0.044773 v 0.1819201 0.1819202 l -0.02199,0.044772 c -0.05264,0.1071905 -0.188031,0.1699998 -0.298909,0.1386657 z"
       id="path9"
       transform="scale(0.26458333)" /><path
       style="fill:currentColor;fill-opacity:1;stroke-width:0.00790957"
       d="M 14.425825,3.8216385 C 14.271323,3.7639124 14.205616,3.616866 14.272886,3.4793716 c 0.03008,-0.061483 0.237364,-0.2587084 0.306467,-0.2915961 0.125891,-0.059915 0.275424,-0.00845 0.337728,0.1162279 0.02014,0.040312 0.0241,0.057547 0.0241,0.1050218 0,0.091583 -0.02412,0.1305028 -0.162781,0.2627034 -0.138443,0.1319893 -0.175005,0.1539897 -0.262482,0.1579465 -0.03885,0.00176 -0.07173,-0.00118 -0.09009,-0.00804 z"
       id="path10"
       transform="scale(0.26458333)" /><path
       style="fill:currentColor;fill-opacity:1;stroke-width:0.00790957"
       d="m 15.038659,5.2447809 c -0.179801,-0.057618 -0.236994,-0.2753312 -0.106468,-0.4052825 0.01812,-0.018039 0.0498,-0.041174 0.0704,-0.051412 0.0358,-0.017791 0.04606,-0.018719 0.231912,-0.020971 0.180908,-0.00219 0.197518,-0.00121 0.23845,0.014106 0.200798,0.075128 0.218542,0.3385128 0.02981,0.4424276 l -0.05141,0.028307 -0.189829,0.0017 c -0.140803,0.00126 -0.198361,-0.00103 -0.222859,-0.00888 z"
       id="path11"
       transform="scale(0.26458333)" /><path
       style="fill:currentColor;fill-opacity:1;stroke-width:0.00790957"
       d="m 14.587704,6.8374167 c -0.03128,-0.012314 -0.06945,-0.042779 -0.160396,-0.1279881 -0.06564,-0.061505 -0.129596,-0.1273001 -0.142123,-0.1462112 -0.07938,-0.1198356 -0.03232,-0.2791251 0.103946,-0.3518841 0.02892,-0.01544 0.04574,-0.018138 0.113068,-0.018133 0.109992,8.5e-6 0.129695,0.011524 0.287892,0.1682526 0.140436,0.1391334 0.151156,0.1571876 0.151012,0.254335 -1.33e-4,0.089191 -0.05552,0.1734685 -0.141615,0.2154883 -0.05214,0.02545 -0.155154,0.028436 -0.211784,0.00614 z"
       id="path12"
       transform="scale(0.26458333)" /><path
       style="fill:currentColor;fill-opacity:1;stroke-width:0.00790957"
       d="m 12.932149,7.5048555 c -0.07058,-0.02466 -0.122566,-0.074396 -0.155701,-0.1489543 -0.01204,-0.027092 -0.01408,-0.056077 -0.01421,-0.2016941 -1.25e-4,-0.1443303 0.002,-0.176302 0.01425,-0.2113456 0.01912,-0.05483 0.07373,-0.1144162 0.130326,-0.1422093 0.05992,-0.029426 0.158625,-0.031627 0.216879,-0.00484 0.05255,0.024167 0.111769,0.082321 0.133686,0.1312766 0.01697,0.037911 0.01869,0.054127 0.02132,0.2009423 0.0024,0.1319585 5.61e-4,0.1676049 -0.01036,0.205184 -0.02404,0.082703 -0.08255,0.1448675 -0.163089,0.1732834 -0.04241,0.014962 -0.127898,0.014148 -0.173103,-0.00165 z"
       id="path13"
       transform="scale(0.26458333)" /><path
       style="fill:currentColor;fill-opacity:1;stroke-width:0.00790957"
       d="m 11.279048,6.8466972 c -0.07641,-0.025066 -0.147851,-0.092304 -0.170485,-0.1604482 -0.01942,-0.058479 -0.01262,-0.1340991 0.01696,-0.1884493 0.02769,-0.050873 0.228757,-0.2454101 0.290306,-0.2808768 0.03825,-0.022038 0.04682,-0.023729 0.120276,-0.023729 0.06732,0 0.08415,0.0027 0.113067,0.018139 0.05012,0.026763 0.09501,0.07053 0.118791,0.1158217 0.01793,0.034154 0.02104,0.049947 0.02114,0.1072811 1.58e-4,0.095691 -0.01746,0.1242922 -0.160284,0.2601413 -0.14406,0.1370297 -0.171866,0.1536199 -0.262251,0.1564703 -0.03726,0.00118 -0.07665,-7.827e-4 -0.08752,-0.00435 z"
       id="path14"
       transform="scale(0.26458333)" /></g><path
     style="display:inline;fill:currentColor;fill-opacity:1;stroke-width:0.0118383"
     d="M 1.7262678e-8,2.4682915 V -1.3579853e-8 H 2.4860492 4.9720982 V 1.6462264 c 0,1.3137435 -0.00299,1.6444636 -0.014798,1.637499 -0.00814,-0.0048 -0.048093,-0.029564 -0.088788,-0.055032 L 4.7945231,3.1823881 V 1.7154965 0.24860489 H 2.5274832 0.26044325 V 2.4682915 4.6879782 H 1.8467793 3.4331154 l 1.304e-4,0.079909 c 7.15e-5,0.04395 0.00343,0.099886 0.00747,0.1243023 l 0.00734,0.044394 H 1.7240258 1.7262678e-8 Z"
     id="path15" /><path
     style="display:inline;fill:currentColor;fill-opacity:1;stroke-width:0.011693"
     d="M 3.674077,4.9107317 C 3.669697,4.8994767 3.663097,4.8442277 3.659403,4.7879549 L 3.652683,4.6856408 h 0.4279522 0.4279522 l 0.094119,0.1162206 c 0.051765,0.063922 0.094119,0.1191713 0.094119,0.122777 0,0.00361 -0.2283283,0.00656 -0.5073962,0.00656 -0.4724086,0 -0.507945,-0.0014 -0.515352,-0.020463 z"
     id="path16" /><path
     style="display:inline;fill:currentColor;fill-opacity:1;stroke-width:0.011693"
     d="M 4.4341455,5.8722465 C 4.1713413,5.8294623 3.9455895,5.7123694 3.7663846,5.5258927 3.5919027,5.3443303 3.491043,5.1429721 3.4566035,4.9074392 3.4381541,4.7812559 3.4489094,4.5666699 3.4799239,4.4422162 3.577439,4.0509009 3.8999669,3.7250885 4.3063364,3.607387 4.3869984,3.584024 4.423749,3.580736 4.5974353,3.581344 c 0.1819555,6.35e-4 0.2076897,0.0034 0.3040189,0.03265 0.057881,0.017576 0.1755479,0.065935 0.2614824,0.1074656 0.085935,0.041531 0.1576782,0.075511 0.15943,0.075511 0.00175,0 -0.011832,-0.06972 -0.030189,-0.1549325 -0.047781,-0.2218111 -0.045743,-0.265034 0.013952,-0.2959029 0.049173,-0.025429 0.1039958,-1.05e-4 0.1307438,0.060392 0.023117,0.052282 0.1166469,0.3989816 0.1441585,0.5343628 0.017455,0.085886 0.01733,0.092653 -0.00206,0.1140965 -0.024873,0.027484 -0.1357929,0.06342 -0.434658,0.1408216 -0.2394271,0.062008 -0.2507819,0.062311 -0.2890147,0.00773 -0.00998,-0.014242 -0.017971,-0.039197 -0.017767,-0.055451 7.408e-4,-0.059709 0.037471,-0.083458 0.2159495,-0.1396714 0.064312,-0.020257 0.124823,-0.039739 0.1344699,-0.043297 C 5.2307866,3.9493131 4.9184063,3.8188415 4.7688921,3.790086 4.4208367,3.7231457 4.0289634,3.8785246 3.8267778,4.1636378 3.7105567,4.3275273 3.6579573,4.4794706 3.6478856,4.6803997 3.6247134,5.1427009 3.9299648,5.5533302 4.3728336,5.6556115 4.5352772,5.6931281 4.5965984,5.6954432 4.7260979,5.6689492 5.005582,5.611769 5.122947,5.5549198 5.2746019,5.4032649 5.44009,5.2377768 5.5245186,5.051472 5.5507097,4.7939901 c 0.00676,-0.066481 0.018042,-0.1334852 0.025064,-0.1488996 0.032189,-0.070648 0.1377793,-0.061837 0.1695275,0.014147 0.01365,0.032665 0.014327,0.060374 0.00382,0.1559076 -0.032051,0.29123 -0.1334328,0.5132655 -0.3272924,0.7167891 -0.1564662,0.1642662 -0.288153,0.2413441 -0.5239441,0.3066713 -0.1776053,0.049206 -0.3093918,0.058767 -0.4637249,0.033642 z"
     id="path17" /></svg>
