<?xml version="1.0" encoding="UTF-8" standalone="no"?>
<svg
   xmlns:dc="http://purl.org/dc/elements/1.1/"
   xmlns:cc="http://creativecommons.org/ns#"
   xmlns:rdf="http://www.w3.org/1999/02/22-rdf-syntax-ns#"
   xmlns:svg="http://www.w3.org/2000/svg"
   xmlns="http://www.w3.org/2000/svg"
   xmlns:sodipodi="http://sodipodi.sourceforge.net/DTD/sodipodi-0.dtd"
   xmlns:inkscape="http://www.inkscape.org/namespaces/inkscape"
   enable-background="new 0 0 32 32"
   height="32px"
   id="Layer_1"
   version="1.0"
   viewBox="0 0 32 32"
   width="32px"
   xml:space="preserve"
   inkscape:version="0.91 r13725"
   sodipodi:docname="music.svg"><metadata
     id="metadata21"><rdf:RDF><cc:Work
         rdf:about=""><dc:format>image/svg+xml</dc:format><dc:type
           rdf:resource="http://purl.org/dc/dcmitype/StillImage" /><dc:title></dc:title></cc:Work></rdf:RDF></metadata><defs
     id="defs19" /><sodipodi:namedview
     pagecolor="#ffffff"
     bordercolor="#666666"
     borderopacity="1"
     objecttolerance="10"
     gridtolerance="10"
     guidetolerance="10"
     inkscape:pageopacity="0"
     inkscape:pageshadow="2"
     inkscape:window-width="1024"
     inkscape:window-height="714"
     id="namedview17"
     showgrid="false"
     inkscape:zoom="5.2149125"
     inkscape:cx="10.435028"
     inkscape:cy="-0.66339498"
     inkscape:window-x="0"
     inkscape:window-y="0"
     inkscape:window-maximized="1"
     inkscape:current-layer="Layer_1" /><path
     d="M 16.005,0 C 7.174,0 0.01,7.162 0.01,15.994 0.01,24.828 7.174,31.99 16.005,31.99 24.838,31.99 32,24.828 32,15.994 32,7.162 24.838,0 16.005,0 Z m -1.360796,8.3581186 c -1.231138,1.9262724 0,0 -0.463814,0.8698062 l -0.767324,1.0564662 -0.924573,1.423202 c -1.052035,1.657729 -0.543255,1.031678 -2.083712,2.96439 C 9.6937966,15.70439 8.946,16.568 8.042,17.396 c -0.749,0.687 -0.8369492,0.669136 -2.1372373,1.939169 -0.198,-0.006 -0.8685763,0.842356 -1.0625763,0.775356 C 3.7031864,19.727525 3.366,17.006 3.36,15.995 3.35,14.908 3.483,13.824 3.752,12.771 3.833,12.445 3.934,12.127 4.044,11.809 5.288,8.2 8.166,5.263 11.782,3.981 13.136,3.501 14.568,3.26 16.005,3.26 c 4.229,0 8.251,2.174 10.575,5.705 0.582,0.885 1.049,1.845 1.391,2.845 l -0.005,0 c 0.11,0.318 0.211,0.634 0.295,0.96 0.268,1.055 0.398,2.138 0.392,3.226 -0.017,2.048 -2.060767,6.128145 -1.56012,5.136578 -2.269667,-1.948184 -3.633694,-3.503476 -4.385694,-4.555476 -0.868,-1.21 -1.617406,-2.364102 -2.450813,-3.763288 -0.912,-1.330187 -1.134237,-1.460831 -2.394627,-3.4645767 -0.912407,-1.2549831 -0.901864,-1.2436271 -1.892678,-2.391 -0.740305,0.8452373 -0.389966,0.2680508 -1.324864,1.3998813 z"
     id="path3"
     inkscape:connector-curvature="0"
     style="fill:#f47f1f"
     sodipodi:nodetypes="sssssccccccccccccsccccccccccc" /><g
     id="g5" /><g
     id="g7" /><g
     id="g9" /><g
     id="g11" /><g
     id="g13" /><g
     id="g15" /></svg>