<?xml version="1.0" encoding="UTF-8"?>
<!DOCTYPE svg PUBLIC "-//W3C//DTD SVG 1.1//EN" "http://www.w3.org/Graphics/SVG/1.1/DTD/svg11.dtd">
<svg version="1.1" id="Layer_1" xmlns="http://www.w3.org/2000/svg" xmlns:xlink="http://www.w3.org/1999/xlink" x="0px" y="0px" width="412px" height="323.178px" viewBox="50 94.411 412 323.178" enable-background="new 50 94.411 412 323.178" xml:space="preserve">
    <path id="refresh-3-icon" d="M373.223,142.573l-37.252,37.253c-20.225-20.224-48.162-32.731-79.021-32.731  c-61.719,0-111.752,50.056-111.752,111.776c0,0.016,0-0.016,0,0h43.412l-69.342,69.314L50,258.871h42.514c0-0.008,0,0.006,0,0  c0-90.816,73.621-164.46,164.436-164.46C302.357,94.411,343.467,112.816,373.223,142.573z M462,253.129l-69.268-69.316  l-69.342,69.316h43.411c0,0.016,0-0.017,0,0c0,61.72-50.032,111.776-111.752,111.776c-30.859,0-58.797-12.508-79.021-32.731  l-37.252,37.253c29.758,29.757,70.867,48.162,116.273,48.162c90.813,0,164.437-73.644,164.437-164.459c0-0.007,0,0.008,0,0  L462,253.129L462,253.129z" />
</svg>
