<?xml version="1.0" encoding="utf-8"?>
<!-- Svg Vector Icons : http://www.onlinewebfonts.com/icon -->
<!DOCTYPE svg PUBLIC "-//W3C//DTD SVG 1.1//EN" "http://www.w3.org/Graphics/SVG/1.1/DTD/svg11.dtd">
<svg version="1.1" xmlns="http://www.w3.org/2000/svg" xmlns:xlink="http://www.w3.org/1999/xlink" x="0px" y="0px" viewBox="0 0 1000 1000" enable-background="new 0 0 1000 1000" xml:space="preserve">
    <metadata> Svg Vector Icons : http://www.onlinewebfonts.com/icon </metadata>
    <g>
        <g>
            <path d="M10,470.6c0,241.8,183.7,441.5,418.9,467l-2.5-3.3l-17.3-22.7c-5-6.6-9.7-13.2-14.2-19.9c-22.3-33.4-37.8-68.3-46.6-103.8c-16.7-24.4-33.4-52.2-48.4-83.2c13.3-4.8,27-9.2,41.2-13.1c1.3-14.5,3.8-29,7.4-43.5c-22.7,5.5-44.3,12.2-64.8,19.7c-19.6-48.8-33.9-104-37.5-164.6h181.5c8.4-8.5,17.1-16.3,26.1-23.5c7.5-6,15.1-11.5,22.9-16.7c5.7-3.8,11.5-7.4,17.3-10.9V333.3c66.1-2.6,126.5-16.9,179.9-37.1c7,19.2,13,39.4,18,60.4c12.2-7.7,23.9-16.2,35.3-25.8c-4.6-17.3-9.8-34-15.6-50c33.6-15.3,63.8-32.5,90.4-49.7c4.4-9.2,8.5-19,12.4-29.4c2.8-7.4,5.6-15,8.2-23.1c2.2-7,4.4-14.4,6.4-21.9C742.8,61,618.2,0.8,479.8,0.8C220.7,0.8,10,211.5,10,470.6z M131.1,220.6c30.1,21,66.3,42.7,107.7,61.4c-19.3,53.9-32.3,114.6-33.6,181.1H50.6C52.2,372.6,81.8,289.2,131.1,220.6z M374.7,886.6c-78.6-19.9-148.6-61.2-203.3-117.7c25.9-16.8,56.3-33.9,90.7-49C296.9,793.1,341,849.7,374.7,886.6z M245.9,683c-38.7,17.1-72.9,36.5-101.4,55.4C92,672.9,58.6,591.8,51.9,503.2h154C209.5,569.8,224.8,630.1,245.9,683z M245.4,463c1.3-60.3,13.3-115.9,31.1-165.6c52.4,19.6,111.8,33.6,177.2,35.9V463H245.4z M493.9,293.1V41.7c3.8,0.1,7.5,0.3,11.3,0.6c21,19.3,101.3,97.7,153.6,216.6C609.7,277.4,554.3,290.6,493.9,293.1z M799.2,184.3c-28.9,20.2-63.3,41-102.6,59c-37.7-86.6-89.3-152.4-126-192.4C660.5,70.3,739.8,118.1,799.2,184.3z M453.7,293.2c-59.7-2.3-114.1-15.1-162.3-33.1C343.3,141.6,423.1,62.9,445,42.7c2.9-0.2,5.8-0.3,8.7-0.4V293.2z M377.5,53.8c-36.6,40.4-87,105.6-123.8,190.7c-37.3-17-70-36.5-97.5-55.6C213.4,123.3,290.2,75.3,377.5,53.8z" />
            <path d="M653.3,999.2c84.6,0,196.4-40.1,283.2-214.1c151.5-303.9-66.6-625.5-66.6-625.5c-3.2,12.2-6.7,23.6-10.4,34.7c-5.4,16.4-11.3,31.7-17.7,45.9c-28.2,62.9-64.7,104.2-105,134.3c-12,9-24.4,17-36.9,24.3c-45.7,26.4-94.1,43.4-139.6,64.3c-23.2,10.7-45.6,22.5-66.4,37c-1.5,1-3,2.1-4.5,3.2c-12.6,9.1-24.5,19.3-35.7,31c-16.5,17.3-31.3,37.7-43.8,62.7c-7.2,14.4-12.9,28.6-17.4,42.4c-4.7,14.5-8,28.8-10.1,42.6c-12.7,84.3,20.3,154.8,58.7,205.3c4-2.1,8.4-4.4,12.6-6.7c12.6-6.7,26-14,40.2-21.9c31.8-17.8,66.8-38.6,101.8-61.4c29.1-19.1,58.1-39.6,84.9-61.1c5.8-4.6,11.5-9.2,17-13.9c11.4-9.6,22-19.4,32.2-29.2c23.5-22.8,43.7-46.2,58.1-69.7c0,0-15.7,31.2-43.6,76.9c-6.5,10.7-13.7,22.1-21.5,34.2c-28.4,43.7-65.1,94.9-108,143.7c-16.6,18.9-34.1,37.3-52.4,54.8c-12.5,11.9-25.3,23.4-38.4,34.3c2.9,1.9,5.2,3.3,6.9,4.1C542.1,976.9,590.1,999.2,653.3,999.2z" />
        </g>
        <g></g>
        <g></g>
        <g></g>
        <g></g>
        <g></g>
        <g></g>
        <g></g>
        <g></g>
        <g></g>
        <g></g>
        <g></g>
        <g></g>
        <g></g>
        <g></g>
        <g></g>
    </g>
</svg>
