<?xml version="1.0" encoding="UTF-8"?>
<!-- Svg Vector Icons : http://www.onlinewebfonts.com/icon -->
<!DOCTYPE svg PUBLIC "-//W3C//DTD SVG 1.1//EN" "http://www.w3.org/Graphics/SVG/1.1/DTD/svg11.dtd">
<svg version="1.1" xmlns="http://www.w3.org/2000/svg" xmlns:xlink="http://www.w3.org/1999/xlink" x="0px" y="0px" viewBox="0 0 1000 1000" enable-background="new 0 0 1000 1000" xml:space="preserve">
    <script xmlns="" />
    <metadata> Svg Vector Icons : http://www.onlinewebfonts.com/icon </metadata>
    <g>
        <g>
            <path d="M903.9,748.4c-3.7-69.3-59.3-124.8-128.5-128.5v-51.6h-14.8v51.6c-69.3,3.7-124.8,59.3-128.5,128.5h-51v14.8h51c3.7,69.3,59.3,124.8,128.5,128.6v51.6h14.8v-51.6c69.3-3.7,124.8-59.3,128.5-128.6H966v-14.8H903.9z M760.5,876.9c-61.1-3.7-110-52.7-113.7-113.8h113.7L760.5,876.9L760.5,876.9z M760.5,748.4H646.8c3.7-61.1,52.6-110,113.7-113.7L760.5,748.4L760.5,748.4z M775.4,876.9V763.2h113.7C885.4,824.3,836.5,873.2,775.4,876.9z M775.4,748.4V634.7c61.1,3.7,110,52.6,113.7,113.7H775.4z M701.7,223.7c-1.8-11.1,5.8-21.6,16.9-23.4c4.9-0.8,120.1-20.7,127.1-120c0.8-11.1,10.4-19.6,21.7-18.9c11.2,0.8,19.7,10.6,19,21.8C877.1,215,726.6,240.4,725,240.6c-1,0.2-2.1,0.2-3.2,0.2C711.8,240.9,703.3,233.7,701.7,223.7z M86.9,83.2c-0.8-11.2,7.7-21,18.9-21.8c11.6-0.8,21,7.8,21.8,18.9c6.9,99.3,122.1,119.2,127.1,120c11.1,1.8,18.7,12.3,16.9,23.4c-1.6,9.9-10.1,17.2-20.1,17.2c-1.1,0-2.2-0.1-3.3-0.3C246.6,240.4,96.1,215,86.9,83.2z M794.8,395.9c5.8,0.2,144.6,7.3,172.5,118.8c1.3,5.3,0.5,10.8-2.3,15.4c-2.8,4.7-7.3,8-12.6,9.3c-1.6,0.4-3.3,0.6-4.9,0.6c-9.4,0-17.5-6.4-19.8-15.4c-20.4-81.6-133.6-87.9-134.7-87.9c-5.4-0.2-10.5-2.6-14.1-6.6c-3.7-4-5.6-9.2-5.4-14.7c0.5-11,9.4-19.5,20.3-19.5L794.8,395.9z M184.9,436.7c-1.1,0.1-114.4,6.6-134.8,87.9c-2.3,9.1-10.4,15.4-19.8,15.4c-1.7,0-3.3-0.2-5-0.6c-5.3-1.3-9.7-4.6-12.5-9.3c-2.8-4.7-3.6-10.1-2.3-15.4c27.9-111.5,166.7-118.5,172.6-118.8l0.9,0c11,0,19.9,8.6,20.4,19.5C204.9,426.6,196.2,436.1,184.9,436.7z M392.1,126.6c-0.5-4.1-0.8-8.1-0.8-12.2c0-52.9,43.1-96,96-96c52.9,0,96,43.1,96,96c0,4-0.3,8.1-0.8,12.2c57.6,25.4,107.4,73.9,140.8,137.2l3.8,7.3l-7.3,3.8c-62.6,32.5-132.4,49-207.5,49l0,0c-111.2,0-206.1-35.6-252.8-56.9l-8.1-3.7l4.3-7.7C289,196.4,337.2,150.8,392.1,126.6z M285.4,718.1c2.7,10.9-3.9,22-14.8,24.7c-1,0.3-109.4,29.4-123.5,125.9c-1.5,9.9-10.1,17.5-20.2,17.5c-1,0-2-0.1-3-0.2c-11.1-1.6-18.9-12-17.2-23.1c18.1-124.3,148.4-158.2,153.9-159.6c1.6-0.4,3.3-0.6,5-0.6C275,702.7,283.1,709,285.4,718.1z M768,537.4c-3.4,0-6.7,0.4-10,0.5c6.3-28.4,9.8-58.2,9.8-89c0-54.5-10.2-106.6-30.2-154.8l-3.4-8.2l-7.9,4.1c-52,26.9-136.1,42.5-197.4,48.1l-5.7,0.5l-1.4,5.6c-16.7,64.3-26.5,143.2-32.3,216.4c-9.1-116.4-22.6-215.1-22.8-216.7l-1-7c-106.9-11.4-197.9-48.4-213.9-55.6l-7.5-3.4l-3.4,7.5c-22.3,49.9-34,106.5-34,163.6c0,188.9,125.8,342.7,280.4,342.7c20.6,0,40.6-2.9,59.9-8.1c12,111.2,106.4,198.1,220.7,198.1C890.4,981.6,990,882,990,759.5C990,637.1,890.4,537.4,768,537.4z M768,966.8c-114.3,0-207.3-93-207.3-207.3c0-114.3,93-207.3,207.3-207.3s207.3,93,207.3,207.3C975.2,873.8,882.2,966.8,768,966.8z" />
        </g>
        <g/>
        <g/>
        <g/>
        <g/>
        <g/>
        <g/>
        <g/>
        <g/>
        <g/>
        <g/>
        <g/>
        <g/>
        <g/>
        <g/>
        <g/></g>
</svg>
