<?xml version="1.0" encoding="UTF-8"?>
<!DOCTYPE svg PUBLIC "-//W3C//DTD SVG 1.1//EN" "http://www.w3.org/Graphics/SVG/1.1/DTD/svg11.dtd">
<svg xmlns="http://www.w3.org/2000/svg" version="1.1" width="32px" height="32px" style="shape-rendering:geometricPrecision; text-rendering:geometricPrecision; image-rendering:optimizeQuality; fill-rule:evenodd; clip-rule:evenodd" xmlns:xlink="http://www.w3.org/1999/xlink">
<g><path style="opacity:1" fill="#ffffff" d="M -0.5,15.5 C -0.5,14.1667 -0.5,12.8333 -0.5,11.5C 8.51995,11.2451 17.3533,9.91173 26,7.5C 29.2808,9.05215 30.7808,11.7188 30.5,15.5C 28.6096,15.7035 27.1096,15.0368 26,13.5C 22.1752,16.2743 21.6752,19.4409 24.5,23C 23.2068,23.49 21.8734,23.6567 20.5,23.5C 20.6882,21.8967 20.1882,20.5634 19,19.5C 16.6954,21.9305 13.8621,22.9305 10.5,22.5C 10.5,21.5 10.5,20.5 10.5,19.5C 12.4286,19.7692 14.0953,19.2692 15.5,18C 13.2647,16.643 10.9314,16.8096 8.5,18.5C 7.85244,20.1492 6.85244,21.4825 5.5,22.5C 4.15017,21.0499 2.4835,20.3832 0.5,20.5C 0.350549,19.448 0.517215,18.448 1,17.5C 2.2812,17.6192 3.44786,17.1192 4.5,16C 2.86586,15.5065 1.19919,15.3398 -0.5,15.5 Z"/></g>
</svg>