<?xml version="1.0" encoding="UTF-8" standalone="no"?>
<svg
   version="1.1"
   width="128"
   height="128"
   fill="#ff6e91"
   fill-opacity="1"
   id="svg4"
   sodipodi:docname="light-on.svg"
   inkscape:version="1.2.2 (b0a8486541, 2022-12-01)"
   viewBox="0 0 16.941 24"
   xmlns:inkscape="http://www.inkscape.org/namespaces/inkscape"
   xmlns:sodipodi="http://sodipodi.sourceforge.net/DTD/sodipodi-0.dtd"
   xmlns="http://www.w3.org/2000/svg"
   xmlns:svg="http://www.w3.org/2000/svg">
  <defs
     id="defs8" />
  <sodipodi:namedview
     id="namedview6"
     pagecolor="#ffffff"
     bordercolor="#666666"
     borderopacity="1.0"
     inkscape:showpageshadow="2"
     inkscape:pageopacity="0.0"
     inkscape:pagecheckerboard="0"
     inkscape:deskcolor="#d1d1d1"
     showgrid="false"
     inkscape:zoom="2.32"
     inkscape:cx="19.181034"
     inkscape:cy="9.0517241"
     inkscape:window-width="1920"
     inkscape:window-height="1017"
     inkscape:window-x="1920"
     inkscape:window-y="0"
     inkscape:window-maximized="1"
     inkscape:current-layer="svg4" />
  <path
     d="m 8.4705,0 c 4.678175,0 8.470588,3.792412 8.470588,8.470589 0,3.134117 -1.708236,5.87294 -4.235294,7.341176 v 2.541176 c 0,0.779696 -0.632068,1.411765 -1.411765,1.411765 H 5.646971 c -0.779696,0 -1.411765,-0.632069 -1.411765,-1.411765 V 15.811765 C 1.708147,14.343529 -8.8e-5,11.604706 -8.8e-5,8.470589 -8.8e-5,3.792412 3.792323,0 8.4705,0 m 2.823529,21.176471 v 1.411764 C 11.294029,23.367932 10.661961,24 9.882265,24 H 7.058735 C 6.279039,24 5.646971,23.367932 5.646971,22.588235 v -1.411764 h 5.647058"
     style="stroke-width:1.41177"
     id="path195" />
</svg>
