<?xml version="1.0" encoding="UTF-8" standalone="no"?>
<svg
   version="1.1"
   width="128"
   height="128"
   fill="#e74e6d"
   fill-opacity="1"
   id="svg116"
   sodipodi:docname="light-off.svg"
   inkscape:version="1.2.2 (b0a8486541, 2022-12-01)"
   viewBox="0 0 17.053 24"
   xmlns:inkscape="http://www.inkscape.org/namespaces/inkscape"
   xmlns:sodipodi="http://sodipodi.sourceforge.net/DTD/sodipodi-0.dtd"
   xmlns="http://www.w3.org/2000/svg"
   xmlns:svg="http://www.w3.org/2000/svg">
  <defs
     id="defs120" />
  <sodipodi:namedview
     id="namedview118"
     pagecolor="#ffffff"
     bordercolor="#666666"
     borderopacity="1.0"
     inkscape:showpageshadow="2"
     inkscape:pageopacity="0.0"
     inkscape:pagecheckerboard="0"
     inkscape:deskcolor="#d1d1d1"
     showgrid="false"
     inkscape:zoom="1.7855919"
     inkscape:cx="57.403935"
     inkscape:cy="-22.961574"
     inkscape:window-width="1920"
     inkscape:window-height="1017"
     inkscape:window-x="1920"
     inkscape:window-y="0"
     inkscape:window-maximized="1"
     inkscape:current-layer="svg116" />
  <path
     d="M 8.5270723,9.3451039e-4 C 12.310117,-0.06682549 15.889308,2.6980165 16.77534,6.3513465 c 0.949575,3.441166 -0.603198,7.3467115 -3.638307,9.2386325 -0.559145,0.140022 -0.290472,0.737637 -0.351769,1.154225 -0.06384,0.79601 0.176164,1.665599 -0.24241,2.389228 -0.564889,0.861941 -1.66777,0.570839 -2.535631,0.622116 -1.5344457,-0.01823 -3.0735697,0.03704 -4.6050047,-0.02867 -0.837297,-0.141749 -1.241073,-1.021183 -1.133338,-1.793445 0,-0.709601 0,-1.419206 0,-2.12881 C 1.1494093,14.061263 -0.59205468,10.241041 0.18371032,6.7609505 0.92701432,2.9014755 4.5696003,-0.05905049 8.5270723,9.3451039e-4 Z M 11.365866,21.166589 c -0.06391,0.845351 0.243826,1.879346 -0.516528,2.499876 -0.701543,0.527719 -1.6243947,0.253736 -2.4387267,0.322212 -0.850874,-0.0447 -1.929452,0.226408 -2.479923,-0.622113 -0.405105,-0.661661 -0.186274,-1.46629 -0.242411,-2.199975 1.892529,0 3.78506,0 5.6775887,0 z m -4.2581917,-4.23313 c 0.946266,0 1.892531,0 2.838796,0 0,-1.00184 0,-2.003682 0,-3.005523 2.8129707,-0.642675 4.7353577,-3.659836 4.1695147,-6.4598505 -0.433907,-2.723586 -3.11287,-4.840338 -5.8810807,-4.63772 -2.820959,0.08075 -5.296804,2.542027 -5.378034,5.346383 -0.179868,2.5974675 1.693106,5.1542525 4.250804,5.7511875 0,1.001841 0,2.003683 0,3.005523 z"
     style="stroke-width:1.41521"
     id="path200" />
</svg>
