<?xml version="1.0" encoding="UTF-8"?>
<svg width="24mm" height="24mm" version="1.1" viewBox="0 0 24 24" xmlns="http://www.w3.org/2000/svg">
 <g transform="matrix(.078537 0 0 .078537 .58705 .38762)" style="fill:#bebebe">
  <g style="fill:#bebebe">
   <path d="m153.7 292.14c-84.749 0-153.7-68.953-153.7-153.7 0-58.697 32.675-111.44 85.28-137.63 2.369-1.174 5.215-0.718 7.077 1.144 1.864 1.864 2.345 4.711 1.183 7.074-9.599 19.502-14.463 40.471-14.463 62.305 0 77.972 63.432 141.41 141.4 141.41 22.08 0 43.247-4.978 62.942-14.777 2.366-1.177 5.213-0.721 7.074 1.141 1.873 1.867 2.342 4.714 1.177 7.073-26.055 53.021-78.927 85.964-137.97 85.964z" style="fill:#bebebe"/>
  </g>
 </g>
</svg>
