<?xml version="1.0" encoding="UTF-8"?>
<svg width="85" height="85" version="1.1" viewBox="0 0 85 85" xml:space="preserve" xmlns="http://www.w3.org/2000/svg">
<g transform="matrix(.20712 0 0 .20712 .53909 .53988)"><circle cx="202.98" cy="203.08" r="84.675" style="fill:#bebebe"/><path d="m202.95 98.59c7.749 0 14.03-6.282 14.03-14.029v-70.531c0-7.748-6.281-14.029-14.03-14.029-7.748 0-14.029 6.281-14.029 14.029v70.531c-1e-3 7.747 6.28 14.029 14.029 14.029z" style="fill:#bebebe"/><path d="m286.66 133.27c3.59 0 7.187-1.37 9.926-4.11l49.871-49.878c5.474-5.479 5.474-14.365-8e-3 -19.838-5.479-5.48-14.357-5.48-19.838 0l-49.871 49.877c-5.48 5.48-5.48 14.365 0 19.839 2.74 2.74 6.33 4.11 9.92 4.11z" style="fill:#bebebe"/><path d="m391.87 188.92-70.531 7e-3c-7.754 0-14.028 6.281-14.028 14.029s6.282 14.029 14.028 14.029l70.531-7e-3c7.748 0 14.031-6.28 14.031-14.029 0-7.748-6.283-14.029-14.031-14.029z" style="fill:#bebebe"/><path d="m296.57 276.75c-5.48-5.479-14.357-5.479-19.838 0s-5.48 14.365 0 19.839l49.877 49.87c2.74 2.74 6.33 4.109 9.92 4.109s7.186-1.369 9.926-4.109c5.474-5.479 5.474-14.365-8e-3 -19.838z" style="fill:#bebebe"/><path d="m202.93 307.31c-7.748 0-14.022 6.282-14.022 14.028l7e-3 70.531c0 7.748 6.281 14.031 14.036 14.031 7.748 0 14.023-6.283 14.023-14.031l-8e-3 -70.531c0-7.745-6.282-14.028-14.036-14.028z" style="fill:#bebebe"/><path d="m109.3 276.74-49.863 49.879c-5.474 5.479-5.474 14.365 7e-3 19.838 2.74 2.74 6.329 4.109 9.919 4.109s7.18-1.369 9.919-4.109l49.864-49.877c5.48-5.479 5.48-14.364 0-19.84-5.481-5.48-14.366-5.48-19.846 0z" style="fill:#bebebe"/><path d="m98.589 202.95c0-7.748-6.282-14.029-14.029-14.029h-70.531c-7.748 0-14.029 6.281-14.029 14.029 0 7.749 6.281 14.03 14.029 14.03h70.531c7.747-2e-3 14.029-6.282 14.029-14.03z" style="fill:#bebebe"/><path d="m109.32 129.15c2.74 2.74 6.33 4.11 9.92 4.11 3.589 0 7.179-1.37 9.919-4.11 5.48-5.48 5.48-14.365 0-19.839l-49.871-49.863c-5.479-5.48-14.365-5.48-19.845 0-5.474 5.479-5.474 14.365 7e-3 19.838z" style="fill:#bebebe"/></g>
</svg>
