<?xml version="1.0" encoding="UTF-8" standalone="no"?>
<!-- Created with Inkscape (http://www.inkscape.org/) -->

<svg
   xmlns:svg="http://www.w3.org/2000/svg"
   xmlns="http://www.w3.org/2000/svg"
   xmlns:xlink="http://www.w3.org/1999/xlink"
   version="1.1"
   width="48"
   height="48"
   id="svg2945">
  <defs
     id="defs2947">
    <linearGradient
       id="linearGradient4325">
      <stop
         id="stop4327"
         style="stop-color:#fbfbfb;stop-opacity:0.58823532"
         offset="0" />
      <stop
         id="stop4329"
         style="stop-color:#fbfbfb;stop-opacity:0"
         offset="1" />
    </linearGradient>
    <linearGradient
       id="linearGradient4299">
      <stop
         id="stop4301"
         style="stop-color:#d7e866;stop-opacity:1"
         offset="0" />
      <stop
         id="stop4303"
         style="stop-color:#fbfbfb;stop-opacity:0"
         offset="1" />
    </linearGradient>
    <linearGradient
       id="linearGradient4291">
      <stop
         id="stop4293"
         style="stop-color:#8cab2a;stop-opacity:1"
         offset="0" />
      <stop
         id="stop4295"
         style="stop-color:#d7e866;stop-opacity:1"
         offset="0.37917796" />
      <stop
         id="stop4297"
         style="stop-color:#8cab2a;stop-opacity:1"
         offset="1" />
    </linearGradient>
    <linearGradient
       id="linearGradient4281">
      <stop
         id="stop4283"
         style="stop-color:#69aa28;stop-opacity:1"
         offset="0" />
      <stop
         id="stop4285"
         style="stop-color:#548820;stop-opacity:1"
         offset="1" />
    </linearGradient>
    <linearGradient
       id="linearGradient4253">
      <stop
         id="stop4255"
         style="stop-color:#000000;stop-opacity:0.10588235"
         offset="0" />
      <stop
         id="stop4257"
         style="stop-color:#000000;stop-opacity:0"
         offset="0.5" />
      <stop
         id="stop4259"
         style="stop-color:#000000;stop-opacity:0.10588235"
         offset="1" />
    </linearGradient>
    <linearGradient
       id="linearGradient4241">
      <stop
         id="stop4243"
         style="stop-color:#000000;stop-opacity:0.27058825"
         offset="0" />
      <stop
         id="stop4249"
         style="stop-color:#000000;stop-opacity:0"
         offset="0.5" />
      <stop
         id="stop4245"
         style="stop-color:#000000;stop-opacity:0.27058825"
         offset="1" />
    </linearGradient>
    <linearGradient
       x1="15"
       y1="23"
       x2="32"
       y2="23"
       id="linearGradient4247"
       xlink:href="#linearGradient4241"
       gradientUnits="userSpaceOnUse"
       gradientTransform="matrix(1,0,0,0.92965233,0,-13.781273)" />
    <linearGradient
       x1="15"
       y1="23"
       x2="32"
       y2="23"
       id="linearGradient4261"
       xlink:href="#linearGradient4253"
       gradientUnits="userSpaceOnUse"
       gradientTransform="matrix(1,0,0,0.92965233,0,-13.781273)" />
    <linearGradient
       x1="18.804668"
       y1="5.8000488"
       x2="26.855783"
       y2="43.218105"
       id="linearGradient4287"
       xlink:href="#linearGradient4281"
       gradientUnits="userSpaceOnUse"
       gradientTransform="matrix(1,0,0,0.92965233,0,-13.781273)" />
    <linearGradient
       x1="15"
       y1="23"
       x2="32"
       y2="23"
       id="linearGradient4289"
       xlink:href="#linearGradient4291"
       gradientUnits="userSpaceOnUse"
       gradientTransform="matrix(1,0,0,0.92965233,0,-13.781273)" />
    <linearGradient
       x1="13.775995"
       y1="44.446079"
       x2="32.696804"
       y2="43.445534"
       id="linearGradient4305"
       xlink:href="#linearGradient4299"
       gradientUnits="userSpaceOnUse" />
    <linearGradient
       x1="11.788027"
       y1="43.445534"
       x2="34.649654"
       y2="43.445534"
       id="linearGradient4331"
       xlink:href="#linearGradient4325"
       gradientUnits="userSpaceOnUse" />
    <linearGradient
       x1="102.30806"
       y1="-2.3925467"
       x2="102.30806"
       y2="-24.582239"
       id="linearGradient4086-8"
       xlink:href="#linearGradient3844-9-5"
       gradientUnits="userSpaceOnUse"
       gradientTransform="matrix(0.1792665,0,0,0.14629793,6.3662019,-11.818182)"
       spreadMethod="reflect" />
    <linearGradient
       id="linearGradient3844-9-5">
      <stop
         id="stop3846-5-2"
         style="stop-color:#a5a6a8;stop-opacity:1"
         offset="0" />
      <stop
         id="stop3848-7-9"
         style="stop-color:#e8e8e8;stop-opacity:1"
         offset="1" />
    </linearGradient>
    <linearGradient
       x1="109.95628"
       y1="-24.91135"
       x2="109.95628"
       y2="-2.3757858"
       id="linearGradient4088-8"
       xlink:href="#linearGradient2509-6-3"
       gradientUnits="userSpaceOnUse"
       gradientTransform="matrix(0.1792665,0,0,0.14629793,6.3662019,-11.818182)" />
    <linearGradient
       id="linearGradient2509-6-3">
      <stop
         id="stop2511-4-1"
         style="stop-color:#b3b3b3;stop-opacity:1"
         offset="0" />
      <stop
         id="stop2513-9-0"
         style="stop-color:#dadada;stop-opacity:1"
         offset="1" />
    </linearGradient>
    <linearGradient
       id="linearGradient2793-2-0">
      <stop
         id="stop2795-3-2"
         style="stop-color:#868688;stop-opacity:1"
         offset="0" />
      <stop
         id="stop2797-1-0"
         style="stop-color:#d9d9da;stop-opacity:1"
         offset="1" />
    </linearGradient>
    <linearGradient
       id="linearGradient3858-1-3">
      <stop
         id="stop3860-3-1"
         style="stop-color:#a0a0a0;stop-opacity:1"
         offset="0" />
      <stop
         id="stop3862-8-0"
         style="stop-color:#646464;stop-opacity:1"
         offset="1" />
    </linearGradient>
    <linearGradient
       x1="103.95014"
       y1="-7.6656942"
       x2="89.423676"
       y2="-7.6656942"
       id="linearGradient2900"
       xlink:href="#linearGradient2793-2-0"
       gradientUnits="userSpaceOnUse"
       gradientTransform="matrix(0.17836384,0,0,0.15586184,5.1996357,-7.965557)"
       spreadMethod="reflect" />
    <linearGradient
       x1="89.01844"
       y1="22.536863"
       x2="89.01844"
       y2="27.54611"
       id="linearGradient2902"
       xlink:href="#linearGradient3858-1-3"
       gradientUnits="userSpaceOnUse"
       gradientTransform="matrix(0.3895815,0,0,0.36055258,-12.94142,-18.22603)" />
    <linearGradient
       x1="24.341469"
       y1="38.076511"
       x2="29.624184"
       y2="61.085434"
       id="linearGradient4419"
       xlink:href="#linearGradient4281"
       gradientUnits="userSpaceOnUse"
       gradientTransform="matrix(1,0,0,0.92965233,0,-45.781273)" />
    <linearGradient
       id="linearGradient3280">
      <stop
         id="stop3282"
         style="stop-color:#000000;stop-opacity:1"
         offset="0" />
      <stop
         id="stop3284"
         style="stop-color:#000000;stop-opacity:0"
         offset="1" />
    </linearGradient>
    <radialGradient
       cx="21.34375"
       cy="14.125"
       r="11.96875"
       fx="21.34375"
       fy="14.125"
       id="radialGradient2921"
       xlink:href="#linearGradient3280"
       gradientUnits="userSpaceOnUse"
       gradientTransform="matrix(1.2532643,0,0,0.43050677,-3.2493464,19.784834)" />
    <linearGradient
       id="linearGradient9421">
      <stop
         id="stop9423"
         style="stop-color:#ffffff;stop-opacity:1"
         offset="0" />
      <stop
         id="stop9425"
         style="stop-color:#ffffff;stop-opacity:0"
         offset="1" />
    </linearGradient>
    <filter
       x="-0.82964343"
       y="-0.064677492"
       width="2.6592867"
       height="1.129355"
       color-interpolation-filters="sRGB"
       id="filter9752">
      <feGaussianBlur
         id="feGaussianBlur9754"
         stdDeviation="1.0370543" />
    </filter>
    <linearGradient
       x1="718.5"
       y1="56.875"
       x2="718.5"
       y2="110.92456"
       id="linearGradient4461"
       xlink:href="#linearGradient9421"
       gradientUnits="userSpaceOnUse"
       gradientTransform="translate(-689.65702,-67.585216)" />
  </defs>
  <g
     transform="translate(0,16)"
     id="layer1">
    <path
       d="m 38.5,25.865743 c -2.077393,5.618486 -9.810954,5.962169 -15,6.134462 C 18.19374,31.766072 10.721583,31.497033 8.5000001,25.865743 10.575821,20.246205 18.311068,19.902588 23.5,19.730279 c 5.306109,0.234218 12.780036,0.503043 15,6.135464 z"
       id="path3278"
       style="color:#000000;fill:url(#radialGradient2921);fill-opacity:1;fill-rule:nonzero;stroke:none;stroke-width:1;marker:none;visibility:visible;display:inline;overflow:visible" />
    <path
       d="m 11.5,-9 0,34.728952 C 11.48135,27.986939 18.696271,29.5 23.5,29.5 c 4.893032,0 12.018646,-1.596082 12,-3.771048 L 35.5,-9 c -0.07066,-1.759862 -8,-3.5 -12,-3.5 -4,0 -12.018646,1.657117 -12,3.5 z"
       id="path2957"
       style="opacity:0.6;fill:url(#linearGradient4247);fill-opacity:1;stroke:#242424;stroke-width:0.96418482px;stroke-linecap:butt;stroke-linejoin:round;stroke-opacity:1" />
    <path
       d="m 34.649656,43.445534 a 11.430815,2.9247899 0 1 1 -22.861629,0 11.430815,2.9247899 0 1 1 22.861629,0 z"
       transform="matrix(1.0060525,0,0,1.1426977,0.1406259,-24.051372)"
       id="path4263"
       style="fill:#fbfbfb;fill-opacity:0.49411765;stroke:none" />
    <path
       d="m 14.5,-7.2737069 0,31.1433539 c -0.01865,2.257988 5,2.788956 9,2.788956 4,0 9.018646,-0.613989 9,-2.788956 l 0,-31.1433539 c -0.07066,-1.7598615 -5,-2.7889561 -9,-2.7889561 -4,0 -9.018646,0.9460726 -9,2.7889561 z"
       id="path4265"
       style="fill:url(#linearGradient4289);fill-opacity:1;stroke:url(#linearGradient4287);stroke-width:0.96418482px;stroke-linecap:butt;stroke-linejoin:miter;stroke-opacity:1" />
    <path
       d="M 12,-9.1330114 12,25.264126 C 11.98135,28.020238 19.5,29 23.5,29 c 4,0 11.518646,-0.813716 11.5,-3.735874 l 0,-34.3971374 c 0.01864,1.8100393 -8.035819,2.9394895 -12.035819,2.9394895 -4,0 -10.982827,-1.0464292 -10.964181,-2.9394895 z"
       id="path4251"
       style="fill:url(#linearGradient4261);fill-opacity:1;stroke:none" />
    <path
       d="m 31.667705,43.445534 a 8.448863,2.1432776 0 1 1 -16.897726,0 8.448863,2.1432776 0 1 1 16.897726,0 z"
       transform="matrix(1.0060525,0,0,1.0458588,0.1406259,-52.828382)"
       id="path4271"
       style="fill:url(#linearGradient4305);fill-opacity:1;stroke:none" />
    <path
       d="m 15.5,-6.774 0,29.874 c -0.01865,2.257988 4,2.559 8,2.559 4,0 8.018646,-0.384033 8,-2.559 l 0,-29.874 c -0.07066,-1.7598615 -4,-2.289 -8,-2.289 -4,0 -8.018646,0.4461165 -8,2.289 z"
       id="path2883"
       style="opacity:0.2;fill:none;stroke:#fefefe;stroke-width:0.96418482px;stroke-linecap:butt;stroke-linejoin:miter;stroke-opacity:1" />
    <path
       d="m 14.5,-8.130353 c -0.01865,2.257988 5,2.788956 9,2.788956 4,0 9.018646,-0.613989 9,-2.788956"
       id="path4417"
       style="fill:none;stroke:url(#linearGradient4419);stroke-width:0.96418482px;stroke-linecap:butt;stroke-linejoin:miter;stroke-opacity:1" />
    <path
       d="m 34.649656,43.445534 a 11.430815,2.5340338 0 1 1 -22.861629,0 11.430815,2.5340338 0 1 1 22.861629,0 z"
       transform="matrix(1.0060525,0,0,1.1426977,0.1406259,-58.438284)"
       id="path4273"
       style="fill:url(#linearGradient4331);fill-opacity:1;stroke:none" />
    <path
       d="m 26.5,-10.073 c 0,0.88213 -0.556817,1.598515 -3.028305,1.598515 -2.471492,0 -2.993129,-0.7166454 -2.971695,-1.598515 0.08931,-3.674447 -0.444326,-4.404275 3.060999,-4.412761 C 26.826721,-14.493661 26.5,-13.698622 26.5,-10.073 z"
       id="path3878"
       style="fill:url(#linearGradient2900);fill-opacity:1;stroke:url(#linearGradient2902);stroke-width:0.99999988;stroke-miterlimit:4;stroke-opacity:1;stroke-dasharray:none" />
    <path
       d="m 26.5,-13.796 c 0.03557,0.574908 -0.4789,1.321514 -2.96418,1.321514 -2.485282,0 -3.03582,-0.939484 -3.03582,-1.321395 0,-0.471212 1.668302,-0.767663 3.035821,-0.69627 1.367518,0.07139 2.928605,0.121243 2.964179,0.696151 z"
       id="path3880"
       style="fill:url(#linearGradient4086-8);fill-opacity:1;stroke:url(#linearGradient4088-8);stroke-width:0.9999997;stroke-miterlimit:4;stroke-opacity:1;stroke-dasharray:none" />
    <path
       d="m 35.5,-9 c -0.07066,1.759862 -8,3.5 -12,3.5 -4,0 -12.018646,-1.657117 -12,-3.5"
       id="path4440"
       style="opacity:0.6;fill:none;stroke:#686868;stroke-width:0.96418482px;stroke-linecap:butt;stroke-linejoin:round;stroke-opacity:1" />
    <rect
       width="2.3748715"
       height="32.052338"
       rx="1.1874357"
       ry="0.92807764"
       x="27.968105"
       y="-5.6375523"
       id="rect9419"
       style="fill:url(#linearGradient4461);fill-opacity:1;stroke:none;display:inline;filter:url(#filter9752);enable-background:new" />
  </g>
  <g
     transform="translate(0,-2)"
     id="g3421"
     style="opacity:0.4">
    <path
       d="m 28.769428,17.999999 -4.526732,8 6.757304,0 L 21.212031,40 23.925983,29 17,29 l 3.706427,-11.000001 8.063001,0 0,0 z"
       id="path3419"
       style="fill:#ffffff;fill-opacity:1;stroke:none;display:inline;enable-background:new" />
    <path
       d="m 28.769428,16.999999 -4.526732,8 6.757304,0 L 21.212031,39 23.925983,28 17,28 l 3.706427,-11.000001 8.063001,0 0,0 z"
       id="path2911"
       style="fill:#000000;fill-opacity:1;stroke:none;display:inline;enable-background:new" />
  </g>
</svg>
