<?xml version="1.0" encoding="UTF-8" standalone="no"?>
<!-- Created with Inkscape (http://www.inkscape.org/) -->

<svg
   xmlns:dc="http://purl.org/dc/elements/1.1/"
   xmlns:cc="http://creativecommons.org/ns#"
   xmlns:rdf="http://www.w3.org/1999/02/22-rdf-syntax-ns#"
   xmlns:svg="http://www.w3.org/2000/svg"
   xmlns="http://www.w3.org/2000/svg"
   xmlns:sodipodi="http://sodipodi.sourceforge.net/DTD/sodipodi-0.dtd"
   xmlns:inkscape="http://www.inkscape.org/namespaces/inkscape"
   id="svg7384"
   height="16"
   width="16"
   version="1.1"
   inkscape:version="0.48.4 r9939"
   sodipodi:docname="pin-symbolic.svg">
  <defs
     id="defs10" />
  <sodipodi:namedview
     pagecolor="#ffffff"
     bordercolor="#666666"
     borderopacity="1"
     objecttolerance="10"
     gridtolerance="10"
     guidetolerance="10"
     inkscape:pageopacity="0"
     inkscape:pageshadow="2"
     inkscape:window-width="1366"
     inkscape:window-height="691"
     id="namedview8"
     showgrid="false"
     inkscape:zoom="14.75"
     inkscape:cx="4.2033894"
     inkscape:cy="5.1256096"
     inkscape:window-x="0"
     inkscape:window-y="25"
     inkscape:window-maximized="1"
     inkscape:current-layer="svg7384" />
  <metadata
     id="metadata90">
    <rdf:RDF>
      <cc:Work
         rdf:about="">
        <dc:format>image/svg+xml</dc:format>
        <dc:type
           rdf:resource="http://purl.org/dc/dcmitype/StillImage" />
        <dc:title>Gnome Symbolic Icon Theme</dc:title>
      </cc:Work>
    </rdf:RDF>
  </metadata>
  <title
     id="title9167">Gnome Symbolic Icon Theme</title>
  <path
     transform="matrix(-0.70710678,-0.70710678,0.70710678,-0.70710678,0,0)"
     style="fill:#bebebe;fill-opacity:1;stroke:none"
     d="m -12.313708,-10.313708 0.999999,-1.000001 1.000001,1.000001 0,9.99999969 -2,0 z"
     id="rect2982-6"
     inkscape:connector-curvature="0"
     sodipodi:nodetypes="cccccc" />
  <path
     sodipodi:type="arc"
     style="fill:#bebebe;fill-opacity:1;stroke:none"
     id="path2991"
     sodipodi:cx="7.7288136"
     sodipodi:cy="7.7966104"
     sodipodi:rx="4.8135595"
     sodipodi:ry="2.1694915"
     d="m 12.542373,7.7966104 a 4.8135595,2.1694915 0 1 1 -9.6271189,0 4.8135595,2.1694915 0 1 1 9.6271189,0 z"
     transform="matrix(0.70710678,0.70710678,-0.70710678,0.70710678,7.7822935,-2.7124866)" />
  <path
     style="fill:#bebebe;fill-opacity:1;stroke:none"
     d="m 11.242641,1.9289321 2.828427,2.8284272 c 0,0 -1.767575,1.0608518 -2.474682,1.7679586 C 10.889279,7.2324247 9.8284267,9 9.8284267,9 L 7,6.1715728 c 0,0 1.7679586,-1.0604684 2.475065,-1.7675752 0.707107,-0.7071068 1.767576,-2.4750655 1.767576,-2.4750655 z"
     id="rect3761"
     inkscape:connector-curvature="0"
     sodipodi:nodetypes="ccsccsc" />
  <path
     sodipodi:type="arc"
     style="fill:#bebebe;fill-opacity:1;stroke:none"
     id="path3764"
     sodipodi:cx="10.847458"
     sodipodi:cy="2.5084746"
     sodipodi:rx="4.1355934"
     sodipodi:ry="1.9661016"
     d="m 14.983051,2.5084746 a 4.1355934,1.9661016 0 1 1 -8.2711865,0 4.1355934,1.9661016 0 1 1 8.2711865,0 z"
     transform="matrix(0.70710678,0.70710678,-0.70710678,0.70710678,6.8421586,-6.1827806)" />
</svg>
