<?xml version="1.0" encoding="UTF-8" standalone="no"?>
<!-- Created with Inkscape (http://www.inkscape.org/) -->

<svg
   xmlns:dc="http://purl.org/dc/elements/1.1/"
   xmlns:cc="http://creativecommons.org/ns#"
   xmlns:rdf="http://www.w3.org/1999/02/22-rdf-syntax-ns#"
   xmlns:svg="http://www.w3.org/2000/svg"
   xmlns="http://www.w3.org/2000/svg"
   xmlns:sodipodi="http://sodipodi.sourceforge.net/DTD/sodipodi-0.dtd"
   xmlns:inkscape="http://www.inkscape.org/namespaces/inkscape"
   width="14"
   height="14"
   id="svg3704"
   version="1.1"
   inkscape:version="0.48.3.1 r9886"
   sodipodi:docname="test.svg">
  <defs
     id="defs3706" />
  <sodipodi:namedview
     id="base"
     pagecolor="#555753"
     bordercolor="#666666"
     borderopacity="1.0"
     inkscape:pageopacity="1"
     inkscape:pageshadow="2"
     inkscape:zoom="90.306744"
     inkscape:cx="7.4073509"
     inkscape:cy="10.029525"
     inkscape:document-units="px"
     inkscape:current-layer="layer1"
     showgrid="true"
     inkscape:window-width="1680"
     inkscape:window-height="1024"
     inkscape:window-x="0"
     inkscape:window-y="26"
     inkscape:window-maximized="1">
    <inkscape:grid
       type="xygrid"
       id="grid3712"
       empspacing="5"
       visible="true"
       enabled="true"
       snapvisiblegridlinesonly="true"
       spacingx="0.875px"
       spacingy="0.875px" />
  </sodipodi:namedview>
  <metadata
     id="metadata3709">
    <rdf:RDF>
      <cc:Work
         rdf:about="">
        <dc:format>image/svg+xml</dc:format>
        <dc:type
           rdf:resource="http://purl.org/dc/dcmitype/StillImage" />
        <dc:title></dc:title>
      </cc:Work>
    </rdf:RDF>
  </metadata>
  <g
     inkscape:label="Layer 1"
     inkscape:groupmode="layer"
     id="layer1"
     transform="translate(0,-1038.3622)">
    <path
       style="fill:#bebebe;fill-opacity:1;stroke:none"
       d="m 5.25,1040.1122 c -0.4847584,0 -0.875,0.3903 -0.875,0.875 l 0,2.625 -1.75,0 c -0.4847584,0 -0.875,0.3903 -0.875,0.875 l 0,5.25 0,0.875 0.875,0 6.125,0 0.875,0 0,-0.875 0,-2.625 1.75,0 0.875,0 0,-0.875 0,-5.25 c 0,-0.4847 -0.390241,-0.875 -0.875,-0.875 l -6.125,0 z m 0.875,2.625 4.375,0 0,2.625 -0.875,0 0,-0.875 c 0,-0.4847 -0.390241,-0.875 -0.875,-0.875 l -2.625,0 0,-0.875 z m -2.625,3.5 0.875,0 3.5,0 0,0.875 0,1.75 -4.375,0 0,-2.625 z"
       id="rect5641"
       inkscape:connector-curvature="0" />
  </g>
</svg>
