<?xml version="1.0" encoding="UTF-8" standalone="no"?>
<svg
   height="16px"
   viewBox="0 0 16 16"
   width="16px"
   version="1.1"
   id="svg1"
   sodipodi:docname="night-light-error-symbolic.svg"
   inkscape:version="1.3.2 (1:1.3.2+202404261509+091e20ef0f)"
   xmlns:inkscape="http://www.inkscape.org/namespaces/inkscape"
   xmlns:sodipodi="http://sodipodi.sourceforge.net/DTD/sodipodi-0.dtd"
   xmlns="http://www.w3.org/2000/svg"
   xmlns:svg="http://www.w3.org/2000/svg">
  <defs
     id="defs1" />
  <sodipodi:namedview
     id="namedview1"
     pagecolor="#ffffff"
     bordercolor="#000000"
     borderopacity="0.25"
     inkscape:showpageshadow="2"
     inkscape:pageopacity="0.0"
     inkscape:pagecheckerboard="0"
     inkscape:deskcolor="#d1d1d1"
     inkscape:zoom="22.627417"
     inkscape:cx="7.3362329"
     inkscape:cy="13.147767"
     inkscape:window-width="1536"
     inkscape:window-height="928"
     inkscape:window-x="0"
     inkscape:window-y="0"
     inkscape:window-maximized="1"
     inkscape:current-layer="svg1" />
  <path
     id="path1"
     d="M 8 0 C 7.4492202 0 7 0.4492201 7 1 C 7 1.5507798 7.4492202 2 8 2 C 8.5507798 2 9 1.5507798 9 1 C 9 0.4492201 8.5507798 0 8 0 z M 3.0507812 2.0507812 C 2.7929698 2.0507812 2.5390616 2.1484384 2.34375 2.34375 C 1.9531258 2.7343742 1.9531258 3.3671893 2.34375 3.7578125 C 2.7343742 4.1484377 3.3671893 4.1484377 3.7578125 3.7578125 C 4.1484377 3.3671893 4.1484377 2.7343742 3.7578125 2.34375 C 3.5625009 2.1484384 3.3085938 2.0507813 3.0507812 2.0507812 z M 12.949219 2.0507812 C 12.691406 2.0507812 12.437498 2.1484384 12.242188 2.34375 C 11.851562 2.7343742 11.851562 3.3671893 12.242188 3.7578125 C 12.63281 4.1484377 13.265625 4.1484377 13.65625 3.7578125 C 14.046875 3.3671893 14.046875 2.7343742 13.65625 2.34375 C 13.460938 2.1484384 13.207029 2.0507813 12.949219 2.0507812 z M 8 3 C 5.2382866 3 3 5.2382866 3 8 C 3 10.761713 5.2382866 13 8 13 C 8.5359286 13 9.0493537 12.910064 9.5332031 12.753906 C 9.7548331 11.080448 11.080448 9.7548331 12.753906 9.5332031 C 12.910064 9.0493537 13 8.5359286 13 8 C 13 5.2382866 10.761713 3 8 3 z M 8 5 C 8.1835936 5 8.3671886 5.0195314 8.5507812 5.0507812 C 7.6406272 5.2617188 7 6.0703138 7 7 C 7 8.1054668 7.8945332 9 9 9 C 9.9296862 9 10.738281 8.3554668 10.949219 7.4492188 C 10.980469 7.6289054 11 7.8164064 11 8 C 11 9.6562466 9.6562466 11 8 11 C 6.3437534 11 5 9.6562466 5 8 C 5 6.3437534 6.3437534 5 8 5 z M 1 7 C 0.4492201 7 0 7.4492202 0 8 C 0 8.5507798 0.4492201 9 1 9 C 1.5507798 9 2 8.5507798 2 8 C 2 7.4492202 1.5507798 7 1 7 z M 15 7 C 14.449221 7 14 7.4492202 14 8 C 14 8.5507798 14.449221 9 15 9 C 15.550779 9 16 8.5507798 16 8 C 16 7.4492202 15.550779 7 15 7 z M 3.0507812 11.949219 C 2.7929698 11.949219 2.5390616 12.046879 2.34375 12.242188 C 1.9531258 12.63281 1.9531258 13.265625 2.34375 13.65625 C 2.7343742 14.046875 3.3671893 14.046875 3.7578125 13.65625 C 4.1484377 13.265625 4.1484377 12.63281 3.7578125 12.242188 C 3.5625009 12.046875 3.3085938 11.949219 3.0507812 11.949219 z M 8 14 C 7.4492202 14 7 14.449221 7 15 C 7 15.550779 7.4492202 16 8 16 C 8.5507798 16 9 15.550779 9 15 C 9 14.449221 8.5507798 14 8 14 z " fill="#808080"/>
  <path
     fill="#ef2929"
     d="m 13.250002,10.5 c -1.518785,-10e-7 -2.750003,1.231217 -2.750002,2.750002 10e-7,1.518783 1.231219,2.749999 2.750002,2.749998 1.518782,-10e-7 2.749997,-1.231216 2.749998,-2.749998 1e-6,-1.518783 -1.231215,-2.750001 -2.749998,-2.750002 z"
     class="error"
     id="path5"
     style="stroke-width:0.785714"
     sodipodi:nodetypes="sssss" />
</svg>
