<?xml version="1.0" encoding="UTF-8" standalone="no"?>
<svg xmlns:dc="http://purl.org/dc/elements/1.1/" xmlns:cc="http://creativecommons.org/ns#" xmlns:rdf="http://www.w3.org/1999/02/22-rdf-syntax-ns#" xmlns:svg="http://www.w3.org/2000/svg" xmlns="http://www.w3.org/2000/svg" xmlns:sodipodi="http://sodipodi.sourceforge.net/DTD/sodipodi-0.dtd" xmlns:inkscape="http://www.inkscape.org/namespaces/inkscape" version="1.1" id="layer" x="0px" y="0px" viewBox="0 0 400 400" xml:space="preserve" sodipodi:docname="icon.svg" width="400" height="400" inkscape:version="1.0.1 (1.0.1+r73)" inkscape:export-filename="/home/john/Downloads/ansible-icon.png" inkscape:export-xdpi="48" inkscape:export-ydpi="48"><metadata id="metadata45"><rdf:RDF><cc:Work rdf:about=""><dc:format>image/svg+xml</dc:format><dc:type rdf:resource="http://purl.org/dc/dcmitype/StillImage"/><dc:title/></cc:Work></rdf:RDF></metadata><defs id="defs43">
	
	
	
	
	
	
	
	
	
	
	
	
	
	
	
	
	
</defs><sodipodi:namedview pagecolor="#ffffff" bordercolor="#666666" borderopacity="1" objecttolerance="10" gridtolerance="10" guidetolerance="10" inkscape:pageopacity="0" inkscape:pageshadow="2" inkscape:window-width="1920" inkscape:window-height="977" id="namedview41" showgrid="false" inkscape:pagecheckerboard="true" inkscape:zoom="1.0237865" inkscape:cx="181.46996" inkscape:cy="247.85871" inkscape:window-x="0" inkscape:window-y="34" inkscape:window-maximized="1" inkscape:current-layer="layer" inkscape:document-rotation="0"/>
<style type="text/css" id="style2">
	.st0{fill:#CC0000;}
	.st1{fill:#FFFFFF;}
</style>
<g id="g55" transform="matrix(2.1119435,0,0,2.1119435,-6.9431839,-696.47039)"><circle class="st0" cx="97.987083" cy="424.4765" r="71.024628" id="circle34" style="fill:#cc0000;stroke-width:0.749996"/><path class="st1" d="m 131.88691,452.60133 -28.34985,-68.09964 c -0.675,-1.79999 -2.39999,-3.07499 -4.349982,-2.99999 -2.024989,-0.075 -3.82498,1.2 -4.499976,2.99999 L 63.712264,459.1263 h 10.649944 l 12.224936,-30.74984 36.674806,29.62484 c 1.05,1.05 2.47499,1.65 3.89998,1.725 2.77499,0.075 5.09998,-2.09999 5.17498,-4.94998 v -0.15 c -0.075,-0.67499 -0.225,-1.34999 -0.45,-2.02499 z M 99.262078,396.80162 117.63698,442.17639 89.887127,420.2765 Z" id="path36" inkscape:connector-curvature="0" style="fill:#ffffff;stroke-width:0.749996"/></g>
</svg>