<?xml version="1.0" encoding="UTF-8" standalone="no"?>
<svg
   version="1.1"
   viewBox="0 0 16 16"
   id="svg8"
   xmlns="http://www.w3.org/2000/svg"
   xmlns:svg="http://www.w3.org/2000/svg">
  <defs
     id="defs12" />
  <g
     transform="translate(0.15346531,0.77026434)"
     fill="#808080"
     stroke-width="0.5"
     id="g6">
    <path
       d="m 7.0293167,2 v 4 h 1 V 2 Z m -2,1 v 3 h 1 V 3 Z m 4,0 V 6 H 10.029317 V 3 Z m -6,1 v 2 h 1 V 4 Z m 8.0000003,0 v 2 h 1 V 4 Z m 2.013208,2.0256806 0.02957,0.00894 -0.02886,-0.054929 0.02307,0.055306 z"
       enable-background="new"
       id="path2" />
    <path
       d="m 7.0337497,9.9727913 v -4 h 1 v 4 z m -2,-1 v -3 h 1 v 3 z m 4,0 v -3 H 10.03375 v 3 z m -6,-1 v -2 h 1 v 2 z m 8.0000003,0 v -2 h 1 v 2 z m 1.994151,-1.9716314 0.0058,-0.028369 -0.01859,-0.018348 0.11953,0.039688 z"
       enable-background="new"
       opacity="0.5"
       id="path4" />
  </g>
  <g
     id="layer1"
     transform="matrix(1.0220804,0,0,1,1.0332431,-0.55750194)">
    <path
       style="fill:#808080;stroke-width:0.895267"
       d="m 15.027956,10.009937 -0.02689,-0.004 -0.0322,0.0088 z m -8.8703651,2.399868 -0.00393,0.618313 -4.1438514,0.02565 0.020691,0.820207 4.1327926,-0.02113 0.043188,0.567943 1.1130971,-0.01643 c 0.013,-1.128564 0.010205,-0.951856 0.00231,-1.984122 z"
       id="path391" />
    <path
       style="fill:#808080;stroke-width:0.895267"
       d="m 7.9396755,12.912229 c -0.00983,0.548196 -0.00128,0.351644 0.021923,0.853266 l 3.1098645,0.01821 0.01585,-0.879594 z"
       opacity="0.5"
       id="path392" />
  </g>
</svg>
