<?xml version="1.0" encoding="utf-8"?>
<!-- Generator: Adobe Illustrator 19.2.1, SVG Export Plug-In . SVG Version: 6.00 Build 0)  -->
<svg version="1.1" id="Layer_1" xmlns="http://www.w3.org/2000/svg" xmlns:xlink="http://www.w3.org/1999/xlink" x="0px" y="0px"
	 viewBox="0 0 529 338.5" style="enable-background:new 0 0 529 338.5;" xml:space="preserve">
<style type="text/css">
	.st0{clip-path:url(#SVGID_2_);fill:#16A3C6;}
	.st1{clip-path:url(#SVGID_4_);fill:#16A3C6;}
	.st2{clip-path:url(#SVGID_6_);fill:#16A3C6;}
	.st3{clip-path:url(#SVGID_8_);fill:#269EC7;}
	.st4{clip-path:url(#SVGID_10_);fill:#16A3C6;}
	.st5{clip-path:url(#SVGID_12_);fill:#269EC7;}
	.st6{clip-path:url(#SVGID_14_);fill:#16A3C6;}
	.st7{clip-path:url(#SVGID_16_);fill:#37ACCD;}
	.st8{clip-path:url(#SVGID_18_);fill:#42B2D0;}
	.st9{clip-path:url(#SVGID_20_);fill:#37ACCD;}
	.st10{clip-path:url(#SVGID_22_);fill:#79C9DF;}
	.st11{clip-path:url(#SVGID_24_);fill:#269EC7;}
	.st12{clip-path:url(#SVGID_26_);fill:#42B2D0;}
	.st13{clip-path:url(#SVGID_28_);fill:#1D8BB7;}
	.st14{clip-path:url(#SVGID_30_);fill:#3B4D54;}
	.st15{fill:#1594CD;}
	.st16{clip-path:url(#SVGID_34_);fill:#1594CD;}
	.st17{fill:#15A2D6;}
	.st18{fill:#42B2D0;}
	.st19{fill:#3B4D54;}
	.st20{fill:#269EC7;}
	.st21{clip-path:url(#SVGID_36_);fill:#D4E6E6;}
	.st22{clip-path:url(#SVGID_38_);fill:#3B4D54;}
	.st23{clip-path:url(#SVGID_40_);fill:#BFD9DA;}
	.st24{clip-path:url(#SVGID_42_);fill:#D4E6E6;}
	.st25{clip-path:url(#SVGID_44_);fill:#25A3C9;}
	.st26{clip-path:url(#SVGID_46_);fill:#42B2D0;}
	.st27{clip-path:url(#SVGID_48_);fill:#79C9DF;}
	.st28{clip-path:url(#SVGID_50_);fill:#42B2D0;}
	.st29{clip-path:url(#SVGID_52_);fill:#79C9DF;}
</style>
<g>
	<g>
		<g>
			<defs>
				<path id="SVGID_1_" d="M118.1,273.5c-0.3,2.9-0.9,4.9-0.9,4.9c-11.8-11.8-21.5-6.6-23,0c-1.4,5.7,8.9,12.1,23.5,11.2
					c26.4-1.4,44.2,9.2,44.2,9.2H215c0,0-17.8-10.6-44.2-9.2c-14.6,0.9-25-5.5-23.5-11.2c1.7-6.9,11.5-12.1,23.2,0
					c0,0,4.6-15.8-8.9-23.3c-4.2-2.3-9.6-3.7-15.1-3.7C134.8,251.5,122.4,257.5,118.1,273.5"/>
			</defs>
			<clipPath id="SVGID_2_">
				<use xlink:href="#SVGID_1_"  style="overflow:visible;"/>
			</clipPath>
			<rect x="89.1" y="246.5" class="st0" width="130.9" height="57.3"/>
		</g>
	</g>
</g>
<g>
	<g>
		<g>
			<defs>
				<path id="SVGID_3_" d="M65,273.5c-0.3,2.9-0.9,4.9-0.9,4.9c-11.8-11.8-21.5-6.6-23,0c-1.4,5.7,8.9,12.1,23.5,11.2
					c26.4-1.4,44.2,9.2,44.2,9.2H162c0,0-17.8-10.6-44.2-9.2c-14.6,0.9-25-5.5-23.5-11.2c1.7-6.9,11.5-12.1,23.2,0
					c0,0,4.6-15.8-8.9-23.3c-4.2-2.3-9.6-3.7-15.1-3.7C81.8,251.5,69.3,257.5,65,273.5"/>
			</defs>
			<clipPath id="SVGID_4_">
				<use xlink:href="#SVGID_3_"  style="overflow:visible;"/>
			</clipPath>
			<rect x="36" y="246.5" class="st1" width="130.9" height="57.3"/>
		</g>
	</g>
</g>
<g>
	<g>
		<g>
			<defs>
				<path id="SVGID_5_" d="M171.1,273.5c-0.3,2.9-0.9,4.9-0.9,4.9c-11.8-11.8-21.5-6.6-23,0c-1.4,5.7,8.9,12.1,23.5,11.2
					c26.4-1.4,44.2,9.2,44.2,9.2H268c0,0-17.8-10.6-44.2-9.2c-14.6,0.9-25-5.5-23.5-11.2c1.7-6.9,11.5-12.1,23.2,0
					c0,0,4.6-15.8-8.9-23.3c-4.2-2.3-9.6-3.7-15.1-3.7C187.9,251.5,175.4,257.5,171.1,273.5"/>
			</defs>
			<clipPath id="SVGID_6_">
				<use xlink:href="#SVGID_5_"  style="overflow:visible;"/>
			</clipPath>
			<rect x="142.2" y="246.5" class="st2" width="130.9" height="57.3"/>
		</g>
	</g>
</g>
<g>
	<g>
		<g>
			<defs>
				<path id="SVGID_7_" d="M79.6,274.9c0.9,1,1.4,1.5,1.4,1.5C80.5,275.8,80,275.3,79.6,274.9 M16.8,289.9c7.2,6.3,20.9,9.5,39,9.5
					h53.1c0,0,24.7-17.5-1.7-16.1c-14.6,0.9-26.7,2-25.2-3.7c1.6-6.6-11.4-14.5-2.3-4.7c-3.6-3.7-13.6-13.5-24.4-19.4
					c-4.7-2.7-9.8-3.9-14.8-3.9C20.6,251.6,2.4,270.2,16.8,289.9"/>
			</defs>
			<clipPath id="SVGID_8_">
				<use xlink:href="#SVGID_7_"  style="overflow:visible;"/>
			</clipPath>
			<rect x="6.6" y="246.6" class="st3" width="117.7" height="57.8"/>
		</g>
	</g>
</g>
<g>
	<g>
		<g>
			<defs>
				<path id="SVGID_9_" d="M327.5,255.1c-13.5,7.5-8.9,23.3-8.9,23.3c11.8-12.1,21.5-6.9,23.2,0c1.4,5.7-8.9,12.1-23.5,11.2
					c-26.4-1.4-44.2,9.2-44.2,9.2h53.1c0,0,17.8-10.6,44.2-9.2c14.6,0.9,25-5.5,23.5-11.2c-1.4-6.6-11.2-11.8-23,0
					c0,0-0.6-2-0.9-4.9c-4.3-16-16.8-22-28.5-22C337.1,251.5,331.8,252.8,327.5,255.1"/>
			</defs>
			<clipPath id="SVGID_10_">
				<use xlink:href="#SVGID_9_"  style="overflow:visible;"/>
			</clipPath>
			<rect x="269.2" y="246.5" class="st4" width="130.9" height="57.3"/>
		</g>
	</g>
</g>
<g>
	<g>
		<g>
			<defs>
				<path id="SVGID_11_" d="M340.1,240.8c-20.4,11.2-13.5,35.3-13.5,35.3c18.1-18.1,32.7-10.3,35,0c2,8.6-13.5,18.1-35.9,16.9
					c-40.2-2.3-67.4,14.1-67.4,14.1H339c0,0,27.3-16.4,67.4-14.1c22.1,1.1,37.9-8.3,35.9-16.9c-2-10-16.6-17.8-34.7,0
					c0,0-0.9-2.9-1.1-7.5c-6.4-24.3-25.3-33.5-43.1-33.5C354.9,235.2,346.6,237.3,340.1,240.8"/>
			</defs>
			<clipPath id="SVGID_12_">
				<use xlink:href="#SVGID_11_"  style="overflow:visible;"/>
			</clipPath>
			<rect x="253.4" y="230.2" class="st5" width="194.1" height="81.9"/>
		</g>
	</g>
</g>
<g>
	<g>
		<g>
			<defs>
				<path id="SVGID_13_" d="M274.4,255.1c-13.5,7.5-8.9,23.3-8.9,23.3c11.8-12.1,21.5-6.9,23.2,0c1.4,5.7-8.9,12.1-23.5,11.2
					c-26.4-1.4-44.2,9.2-44.2,9.2h53.1c0,0,17.8-10.6,44.2-9.2c14.6,0.9,25-5.5,23.5-11.2c-1.4-6.6-11.2-11.8-23,0
					c0,0-0.6-2-0.9-4.9c-4.3-16-16.8-22-28.5-22C284,251.5,278.7,252.8,274.4,255.1"/>
			</defs>
			<clipPath id="SVGID_14_">
				<use xlink:href="#SVGID_13_"  style="overflow:visible;"/>
			</clipPath>
			<rect x="216.1" y="246.5" class="st6" width="130.9" height="57.3"/>
		</g>
	</g>
</g>
<g>
	<g>
		<g>
			<defs>
				<path id="SVGID_15_" d="M69.5,292.9c0,2.3-0.6,4-0.6,4c-9.8-10-17.8-5.7-19.2,0.3c-1.1,4.9,7.5,10,19.8,9.5
					c22.1-1.1,37,7.8,37,7.8H151c0,0-14.9-8.9-37-7.8c-12.3,0.6-20.9-4.6-19.8-9.5c1.4-5.7,9.5-10,19.2,0c0,0,3.7-13.2-7.5-19.5
					c-3.6-2-8.1-3.1-12.8-3.1C83.3,274.6,73,279.6,69.5,292.9"/>
			</defs>
			<clipPath id="SVGID_16_">
				<use xlink:href="#SVGID_15_"  style="overflow:visible;"/>
			</clipPath>
			<rect x="44.6" y="269.6" class="st7" width="111.4" height="49.9"/>
		</g>
	</g>
</g>
<g>
	<g>
		<g>
			<defs>
				<path id="SVGID_17_" d="M32,292.9c0,2.3-0.6,4-0.6,4c-9.8-10-17.8-5.7-19.2,0.3c-1.1,4.9,7.5,10,19.8,9.5
					c22.1-1.1,37,7.8,37,7.8h44.5c0,0-14.9-8.9-37-7.8c-12.3,0.6-20.9-4.6-19.8-9.5c1.4-5.7,9.5-10,19.2,0c0,0,3.7-13.2-7.5-19.5
					c-3.6-2-8.1-3.1-12.8-3.1C45.9,274.6,35.5,279.6,32,292.9"/>
			</defs>
			<clipPath id="SVGID_18_">
				<use xlink:href="#SVGID_17_"  style="overflow:visible;"/>
			</clipPath>
			<rect x="7.1" y="269.6" class="st8" width="111.4" height="49.9"/>
		</g>
	</g>
</g>
<g>
	<g>
		<g>
			<defs>
				<path id="SVGID_19_" d="M112.6,294.2c0,2.3-0.6,4-0.6,4c-10-10-18.1-5.7-19.2,0.3c-1.1,4.9,7.5,10,19.8,9.5
					c22.1-1.1,37,7.8,37,7.8h44.5c0,0-14.9-8.9-37-7.8c-12.3,0.6-20.9-4.6-19.8-9.5c1.4-5.7,9.5-10,19.2,0c0,0,3.7-13.2-7.5-19.5
					c-3.6-2-8.1-3.1-12.8-3.1C126.5,275.8,116.1,280.8,112.6,294.2"/>
			</defs>
			<clipPath id="SVGID_20_">
				<use xlink:href="#SVGID_19_"  style="overflow:visible;"/>
			</clipPath>
			<rect x="87.7" y="270.8" class="st9" width="111.4" height="49.9"/>
		</g>
	</g>
</g>
<g>
	<g>
		<g>
			<defs>
				<path id="SVGID_21_" d="M25.6,274.8c-16.8,0-32.4,15.5-20.2,31.9c6,5.2,17.8,7.8,32.7,7.8h44.5c0,0-14.9-8.9-37-7.8
					c-12.3,0.6-20.9-4.6-19.8-9.5c1.4-5.7,9.5-10,19.2,0c0,0,3.7-13.2-7.5-19.5C33.8,275.7,29.7,274.8,25.6,274.8L25.6,274.8"/>
			</defs>
			<clipPath id="SVGID_22_">
				<use xlink:href="#SVGID_21_"  style="overflow:visible;"/>
			</clipPath>
			<rect x="-3.9" y="269.8" class="st10" width="91.6" height="49.7"/>
		</g>
	</g>
</g>
<g>
	<g>
		<g>
			<defs>
				<path id="SVGID_23_" d="M287.9,264.9c-16.4,9.2-10.6,29-10.6,29c14.3-14.9,26.1-8.6,28.1,0c1.7,7.2-10.9,14.9-28.7,14.1
					c-32.1-1.7-53.7,11.5-53.7,11.5h64.6c0,0,22.7-9.5,54.5-7.8c17.8,1.1,29.6-10.6,27.8-17.8c-2.3-8.6-14.1-14.9-28.4,0
					c0,0-0.6-2.6-0.9-6c-5.2-20-20.4-27.5-34.5-27.5C299.5,260.3,293,262,287.9,264.9"/>
			</defs>
			<clipPath id="SVGID_24_">
				<use xlink:href="#SVGID_23_"  style="overflow:visible;"/>
			</clipPath>
			<rect x="218.1" y="255.3" class="st11" width="157.1" height="69.1"/>
		</g>
	</g>
</g>
<g>
	<g>
		<g>
			<defs>
				<path id="SVGID_25_" d="M251.8,279c-11.2,6.3-7.5,19.5-7.5,19.5c9.8-10,17.8-5.7,19.2,0c1.1,4.9-7.5,10-19.8,9.5
					c-22.1-1.1-37,7.8-37,7.8h44.5c0,0,14.9-8.9,37-7.8c12.3,0.6,20.9-4.6,19.8-9.5c-1.4-6-9.5-10.3-19.2-0.3c0,0-0.6-1.7-0.6-4
					c-3.5-13.4-13.9-18.4-23.6-18.4C259.9,275.8,255.3,277,251.8,279"/>
			</defs>
			<clipPath id="SVGID_26_">
				<use xlink:href="#SVGID_25_"  style="overflow:visible;"/>
			</clipPath>
			<rect x="201.7" y="270.8" class="st12" width="111.4" height="49.9"/>
		</g>
	</g>
</g>
<g>
	<g>
		<g>
			<defs>
				<path id="SVGID_27_" d="M40,198.9c2,14.9,6.3,29,12.9,41.6l3.7,6.9c2.3,4,4.9,7.8,7.7,11.5c13.5,0.9,25.5,1.1,37,0.9
					c22.1-0.6,40.2-3.2,53.9-7.8c2-0.6,4.3,0.3,4.9,2.3c0.6,2-0.3,4.3-2.3,4.9c-1.7,0.6-3.7,1.1-5.7,1.7
					c-10.9,3.2-23.2,5.2-38.2,6.3h-2c-5.7,0.3-12.1,0.6-18.6,0.6c-7.2,0-14.3,0-22.1-0.6c27,30.4,69.7,48.8,122.5,48.8
					c96.1,0,179.6-36.5,228.1-117.2L40,198.9L40,198.9z"/>
			</defs>
			<clipPath id="SVGID_28_">
				<use xlink:href="#SVGID_27_"  style="overflow:visible;"/>
			</clipPath>
			<rect x="35" y="193.9" class="st13" width="391.9" height="127.2"/>
		</g>
	</g>
</g>
<g>
	<g>
		<g>
			<defs>
				<path id="SVGID_29_" d="M226.8,1v52H125.5v50.8H75v51.7H31.7l-0.6,7.8c-0.4,5-0.7,9.9-0.7,14.9v0.2c0,20.5,3.9,40.9,12.4,59.6
					l4.6,9.2l0.6,0.9c31,53.1,86.1,75.5,145.8,75.5c115.9,0,211.2-51.7,255.1-161.1c29.6,1.7,59.4-6.9,73.7-35l3.7-7.2l-6.9-4
					c-16.9-9.8-39.6-11.2-58.8-5.5c-2.6-20.4-15.8-38.2-31.8-51.1l-6.3-5.2l-5.5,6c-10.6,12.3-13.8,33-12.3,48.8
					c0.9,11.5,4.6,23.3,11.8,32.7c-5.5,3.2-11.8,5.7-17.2,7.8c-11.2,4-23.5,6-35.3,6h-25.5v-51.7H288l-0.3-0.3V1H226.8z"/>
			</defs>
			<clipPath id="SVGID_30_">
				<use xlink:href="#SVGID_29_"  style="overflow:visible;"/>
			</clipPath>
			<rect x="25.5" y="-4" class="st14" width="505.9" height="332.5"/>
		</g>
	</g>
</g>
<g>
	<g>
		<g>
			<path id="SVGID_31_" class="st15" d="M429.1,143.4c-12.3,10.9-38.4,21-65.1,21H39.5c-2.6,27.9,2.3,53.4,13.5,75.5l3.7,6.9
				c2.3,4,4.9,7.8,7.7,11.5c13.5,0.9,25.5,1.1,37,0.9c22.1-0.6,40.2-3.2,53.9-7.8c2-0.6,4.3,0.3,4.9,2.3c0.6,2-0.3,4.3-2.3,4.9
				c-1.7,0.6-3.7,1.1-5.7,1.7c-10.9,3.2-22.4,5.2-37.3,6H114h-1.7c-5.7,0.3-12.3,0.3-18.7,0.3c-7.2,0-14.1,0-21.8-0.6h-0.3
				c27,30.4,69.4,48.5,122.2,48.5c112.2,0,207.4-49.7,249.3-161.4c29.8,3.2,58.5-4.6,71.7-30.1c-20.7-11.2-47.6-7.5-62.8,0.3
				c3.4-26.4-16.4-47.1-28.7-57.1C409.3,82.6,407,125.3,429.1,143.4"/>
		</g>
		<g>
			<defs>
				<path id="SVGID_32_" d="M429.1,143.4c-12.3,10.9-38.4,21-65.1,21H39.5c-2.6,27.9,2.3,53.4,13.5,75.5l3.7,6.9
					c2.3,4,4.9,7.8,7.7,11.5c13.5,0.9,25.5,1.1,37,0.9c22.1-0.6,40.2-3.2,53.9-7.8c2-0.6,4.3,0.3,4.9,2.3c0.6,2-0.3,4.3-2.3,4.9
					c-1.7,0.6-3.7,1.1-5.7,1.7c-10.9,3.2-22.4,5.2-37.3,6H114h-1.7c-5.7,0.3-12.3,0.3-18.7,0.3c-7.2,0-14.1,0-21.8-0.6h-0.3
					c27,30.4,69.4,48.5,122.2,48.5c112.2,0,207.4-49.7,249.3-161.4c29.8,3.2,58.5-4.6,71.7-30.1c-20.7-11.2-47.6-7.5-62.8,0.3
					c3.4-26.4-16.4-47.1-28.7-57.1C409.3,82.6,407,125.3,429.1,143.4"/>
			</defs>
			<clipPath id="SVGID_34_">
				<use xlink:href="#SVGID_32_"  style="overflow:visible;"/>
			</clipPath>
			<rect x="33.8" y="61.2" class="st16" width="486.1" height="258.4"/>
		</g>
	</g>
</g>
<g>
	<g>
		<g>
			<path id="SVGID_33_" class="st17" d="M113.8,266.6c0.1,0,0.2,0,0.2,0c-0.2-0.1-0.4-0.2-0.5-0.3L113.8,266.6z M429.1,143.4
				c-12.3,10.9-38.4,21-65.1,21H58.7c-1.4,42.8,14.6,74.9,42.5,94.8c22.1-0.6,40.2-3.2,53.9-7.8c2-0.6,4.3,0.3,4.9,2.3
				s-0.3,4.3-2.3,4.9c-1.7,0.6-3.7,1.1-5.7,1.7c-10.8,3.1-23.1,5.4-37.9,6.3c38.1,19.2,93.3,19.1,156.4-5.2
				c71.2-27.3,137.4-79.5,183.6-139c-0.9,0.9-1.4,0.9-2,0.9c3.4-26.4-16.4-47.1-28.7-57.1C409.3,82.6,407,125.3,429.1,143.4"/>
		</g>
	</g>
</g>
<rect x="235.5" y="9.9" class="st18" width="43.9" height="43.6"/>
<rect x="239.1" y="13" class="st19" width="3.4" height="36.8"/>
<rect x="245.7" y="13" class="st19" width="3.7" height="36.8"/>
<rect x="252.3" y="13" class="st19" width="3.7" height="36.8"/>
<rect x="258.9" y="13" class="st19" width="3.7" height="36.8"/>
<rect x="265.5" y="13" class="st19" width="3.7" height="36.8"/>
<rect x="272.4" y="13" class="st19" width="3.4" height="36.8"/>
<rect x="134.2" y="62.6" class="st20" width="43.9" height="43.6"/>
<rect x="137.8" y="64.9" class="st19" width="3.4" height="36.8"/>
<rect x="144.4" y="64.9" class="st19" width="3.7" height="36.8"/>
<rect x="151" y="64.9" class="st19" width="3.7" height="36.8"/>
<rect x="157.6" y="64.9" class="st19" width="3.7" height="36.8"/>
<rect x="164.2" y="64.9" class="st19" width="3.7" height="36.8"/>
<rect x="171.1" y="64.9" class="st19" width="3.4" height="36.8"/>
<rect x="134.2" y="113.2" class="st18" width="43.9" height="43.9"/>
<rect x="137.8" y="115.9" class="st19" width="3.4" height="36.8"/>
<rect x="144.4" y="115.9" class="st19" width="3.7" height="36.8"/>
<rect x="151" y="115.9" class="st19" width="3.7" height="36.8"/>
<rect x="157.6" y="115.9" class="st19" width="3.7" height="36.8"/>
<rect x="164.2" y="115.9" class="st19" width="3.7" height="36.8"/>
<rect x="171.1" y="115.9" class="st19" width="3.4" height="36.8"/>
<rect x="83.7" y="113.2" class="st20" width="43.9" height="43.9"/>
<rect x="87.6" y="115.9" class="st19" width="3.4" height="36.8"/>
<rect x="94.2" y="115.9" class="st19" width="3.7" height="36.8"/>
<rect x="100.8" y="115.9" class="st19" width="3.7" height="36.8"/>
<rect x="107.4" y="115.9" class="st19" width="3.7" height="36.8"/>
<rect x="114" y="115.9" class="st19" width="3.7" height="36.8"/>
<rect x="120.9" y="115.9" class="st19" width="3.4" height="36.8"/>
<rect x="185" y="62.6" class="st18" width="43.9" height="43.6"/>
<rect x="188" y="64.9" class="st19" width="3.4" height="36.8"/>
<rect x="194.6" y="64.9" class="st19" width="3.7" height="36.8"/>
<rect x="201.2" y="64.9" class="st19" width="3.7" height="36.8"/>
<rect x="207.8" y="64.9" class="st19" width="3.7" height="36.8"/>
<rect x="214.4" y="64.9" class="st19" width="3.7" height="36.8"/>
<rect x="221.3" y="64.9" class="st19" width="3.4" height="36.8"/>
<rect x="185" y="113.2" class="st20" width="43.9" height="43.9"/>
<rect x="188.4" y="115.9" class="st19" width="3.4" height="36.8"/>
<rect x="195" y="115.9" class="st19" width="3.7" height="36.8"/>
<rect x="201.6" y="115.9" class="st19" width="3.7" height="36.8"/>
<rect x="208.2" y="115.9" class="st19" width="3.7" height="36.8"/>
<rect x="214.8" y="115.9" class="st19" width="3.7" height="36.8"/>
<rect x="221.7" y="115.9" class="st19" width="3.4" height="36.8"/>
<rect x="235.5" y="62.6" class="st20" width="43.9" height="43.6"/>
<rect x="239.1" y="65.6" class="st19" width="3.4" height="36.8"/>
<rect x="245.7" y="65.6" class="st19" width="3.7" height="36.8"/>
<rect x="252.3" y="65.6" class="st19" width="3.7" height="36.8"/>
<rect x="258.9" y="65.6" class="st19" width="3.7" height="36.8"/>
<rect x="265.5" y="65.6" class="st19" width="3.7" height="36.8"/>
<rect x="272.4" y="65.6" class="st19" width="3.4" height="36.8"/>
<rect x="235.5" y="113.2" class="st18" width="43.9" height="43.9"/>
<rect x="239.1" y="115.9" class="st19" width="3.4" height="36.8"/>
<rect x="245.7" y="115.9" class="st19" width="3.7" height="36.8"/>
<rect x="252.3" y="115.9" class="st19" width="3.7" height="36.8"/>
<rect x="258.9" y="115.9" class="st19" width="3.7" height="36.8"/>
<rect x="265.5" y="115.9" class="st19" width="3.7" height="36.8"/>
<rect x="272.4" y="115.9" class="st19" width="3.4" height="36.8"/>
<rect x="286.3" y="113.2" class="st20" width="43.9" height="43.9"/>
<rect x="289.4" y="115.9" class="st19" width="3.4" height="36.8"/>
<rect x="296" y="115.9" class="st19" width="3.7" height="36.8"/>
<rect x="302.6" y="115.9" class="st19" width="3.7" height="36.8"/>
<rect x="309.2" y="115.9" class="st19" width="3.7" height="36.8"/>
<rect x="315.8" y="115.9" class="st19" width="3.7" height="36.8"/>
<rect x="322.6" y="115.9" class="st19" width="3.4" height="36.8"/>
<g>
	<g>
		<g>
			<defs>
				<path id="SVGID_35_" d="M163.4,239.9c0,6.6,5.5,12.1,12.1,12.1s12.1-5.5,12.1-12.1s-5.5-12.1-12.1-12.1
					C168.6,227.9,163.4,233.3,163.4,239.9"/>
			</defs>
			<clipPath id="SVGID_36_">
				<use xlink:href="#SVGID_35_"  style="overflow:visible;"/>
			</clipPath>
			<rect x="158.4" y="222.9" class="st21" width="34.1" height="34.1"/>
		</g>
	</g>
</g>
<g>
	<g>
		<g>
			<defs>
				<path id="SVGID_37_" d="M166.8,240.5c0,4.6,3.7,8.6,8.6,8.6c4.6,0,8.6-3.7,8.6-8.6c0-1.4-0.3-2.3-0.6-3.4
					c-0.6,0.9-1.7,1.7-3.2,1.7c-1.7,0-3.4-1.4-3.4-3.4c0-1.4,0.6-2.6,1.7-3.2c-0.9-0.3-2-0.6-3.2-0.6
					C170.6,231.6,166.8,235.3,166.8,240.5"/>
			</defs>
			<clipPath id="SVGID_38_">
				<use xlink:href="#SVGID_37_"  style="overflow:visible;"/>
			</clipPath>
			<rect x="161.8" y="226.6" class="st22" width="27.2" height="27.5"/>
		</g>
	</g>
</g>
<g>
	<g>
		<g>
			<defs>
				<path id="SVGID_39_" d="M111.8,266.9c-5.7,0.3-12.1,0.6-18.4,0.6c-7.5,0-15.2-0.3-23.5-0.6c27.5,27.6,61.4,48.8,123.9,49.1
					c4.6-0.3,9.2-0.3,13.8-0.3c-30.1-14.4-46.5-33.6-55.7-54.8C140.7,264,127.5,266,111.8,266.9"/>
			</defs>
			<clipPath id="SVGID_40_">
				<use xlink:href="#SVGID_39_"  style="overflow:visible;"/>
			</clipPath>
			<rect x="64.9" y="255.9" class="st23" width="147.7" height="65.1"/>
		</g>
	</g>
</g>
<g>
	<g>
		<g>
			<defs>
				<path id="SVGID_41_" d="M111.8,266.9c10.9,5.7,26.1,11.5,51.4,13.5c-4-5.7-8-12.6-11.2-19.5C140.7,264,127.3,266,111.8,266.9"/>
			</defs>
			<clipPath id="SVGID_42_">
				<use xlink:href="#SVGID_41_"  style="overflow:visible;"/>
			</clipPath>
			<rect x="106.8" y="255.9" class="st24" width="61.4" height="29.5"/>
		</g>
	</g>
</g>
<g>
	<g>
		<g>
			<defs>
				<path id="SVGID_43_" d="M199,317.8c-0.3,2.1-0.9,3.6-0.9,3.6c-12.4-9-22.7-5.2-24.5,0c-1.5,4.2,9.5,9,24.8,8.4
					c27.8-1,47,6.9,47,6.9h56.1c0,0-18.9-8.2-47-6.9c-15.4,0.6-25.7-4-24.8-8.4c1.8-9.4,10.9-14.4,21.3-8.8
					c-1.2-4.4-6.2-10.1-17.1-12.1c-1.7-0.3-3.6-0.5-5.6-0.5C217.5,300,203.8,305,199,317.8"/>
			</defs>
			<clipPath id="SVGID_44_">
				<use xlink:href="#SVGID_43_"  style="overflow:visible;"/>
			</clipPath>
			<rect x="168.3" y="296.3" class="st25" width="138.3" height="44"/>
		</g>
	</g>
</g>
<g>
	<g>
		<g>
			<defs>
				<path id="SVGID_45_" d="M164.6,314.2c-0.2,2.5-0.7,4.2-0.7,4.2c-10.7-10.2-19.2-5.7-20.4,0c-1.2,5,8,10.7,20.9,10
					c23.7-1.5,39.6,8.2,39.6,8.2h47.4c0,0-16.2-9.5-39.6-8.2c-13,0.7-22.2-5-20.9-10c1.5-6.2,10.2-10.7,20.7,0c0,0,4-14.2-8-20.7
					c-3.8-2-8.6-3.2-13.6-3.2C179.4,294.6,168.3,299.9,164.6,314.2"/>
			</defs>
			<clipPath id="SVGID_46_">
				<use xlink:href="#SVGID_45_"  style="overflow:visible;"/>
			</clipPath>
			<rect x="138.9" y="290.2" class="st26" width="116.7" height="50.8"/>
		</g>
	</g>
</g>
<g>
	<g>
		<g>
			<defs>
				<path id="SVGID_47_" d="M134.1,326.9c7.5,6.6,21.5,9.8,40.2,9.8h54.5c0,0-18.7-10.9-45.6-9.5c-14.9,0.9-25.5-5.7-24.1-11.5
					c1.7-7.2,11.8-12.3,23.8,0c0,0,4.6-16.4-9.2-23.8c-4.8-2.6-10-3.7-15.1-3.7C138.2,288.2,119.2,306.9,134.1,326.9"/>
			</defs>
			<clipPath id="SVGID_48_">
				<use xlink:href="#SVGID_47_"  style="overflow:visible;"/>
			</clipPath>
			<rect x="123.8" y="283.2" class="st27" width="110" height="58.5"/>
		</g>
	</g>
</g>
<g>
	<g>
		<g>
			<defs>
				<path id="SVGID_49_" d="M334.7,277.5c-12.9,7.2-8.6,22.1-8.6,22.1c11.2-11.5,20.7-6.6,22.1,0c1.4,5.5-8.6,11.5-22.7,10.6
					c-25.2-1.4-42.5,8.9-42.5,8.9h50.8c0,0,17.2-10.3,42.5-8.9c14.1,0.9,23.8-5.2,22.7-10.6c-1.4-6.9-10.6-11.5-22.1,0
					c0,0-0.6-2-0.6-4.6c-4.1-15.3-16-21.1-27.1-21.1C343.8,274,338.7,275.3,334.7,277.5"/>
			</defs>
			<clipPath id="SVGID_50_">
				<use xlink:href="#SVGID_49_"  style="overflow:visible;"/>
			</clipPath>
			<rect x="278" y="269" class="st28" width="126" height="55.2"/>
		</g>
	</g>
</g>
<g>
	<g>
		<g>
			<defs>
				<path id="SVGID_51_" d="M378.5,277.5c-12.9,7.2-8.6,22.1-8.6,22.1c11.2-11.5,20.7-6.6,22.1,0c1.4,5.5-8.6,11.5-22.7,10.6
					c-25.2-1.4-42.5,8.9-42.5,8.9h50.8c17.2,0,30.7-3.2,37.6-8.9c14-18.6-3.6-36.3-22.6-36.3C387.8,274,383,275.1,378.5,277.5"/>
			</defs>
			<clipPath id="SVGID_52_">
				<use xlink:href="#SVGID_51_"  style="overflow:visible;"/>
			</clipPath>
			<rect x="321.8" y="269" class="st29" width="103.4" height="55.2"/>
		</g>
	</g>
</g>
</svg>
