<?xml version="1.0" encoding="UTF-8" standalone="no"?>
<!-- Created with Inkscape (http://www.inkscape.org/) -->

<svg
   xmlns:dc="http://purl.org/dc/elements/1.1/"
   xmlns:cc="http://creativecommons.org/ns#"
   xmlns:rdf="http://www.w3.org/1999/02/22-rdf-syntax-ns#"
   xmlns:svg="http://www.w3.org/2000/svg"
   xmlns="http://www.w3.org/2000/svg"
   xmlns:xlink="http://www.w3.org/1999/xlink"
   xmlns:sodipodi="http://sodipodi.sourceforge.net/DTD/sodipodi-0.dtd"
   xmlns:inkscape="http://www.inkscape.org/namespaces/inkscape"
   version="1.0"
   width="96"
   height="96"
   id="svg2408"
   inkscape:version="0.48.4 r9939"
   sodipodi:docname="icon.svg"
   inkscape:export-filename="/home/stephen/.local/share/cinnamon/applets/sticky@scollins/icon.png"
   inkscape:export-xdpi="45"
   inkscape:export-ydpi="45">
  <metadata
     id="metadata67">
    <rdf:RDF>
      <cc:Work
         rdf:about="">
        <dc:format>image/svg+xml</dc:format>
        <dc:type
           rdf:resource="http://purl.org/dc/dcmitype/StillImage" />
        <dc:title></dc:title>
      </cc:Work>
    </rdf:RDF>
  </metadata>
  <sodipodi:namedview
     pagecolor="#ffffff"
     bordercolor="#666666"
     borderopacity="1"
     objecttolerance="10"
     gridtolerance="10"
     guidetolerance="10"
     inkscape:pageopacity="0"
     inkscape:pageshadow="2"
     inkscape:window-width="1440"
     inkscape:window-height="823"
     id="namedview65"
     showgrid="false"
     inkscape:zoom="3.4766083"
     inkscape:cx="58.724296"
     inkscape:cy="50.149086"
     inkscape:window-x="0"
     inkscape:window-y="26"
     inkscape:window-maximized="1"
     inkscape:current-layer="g4651" />
  <defs
     id="defs2410">
    <linearGradient
       id="linearGradient4427">
      <stop
         style="stop-color:#f3f95d;stop-opacity:1;"
         offset="0"
         id="stop4429" />
      <stop
         style="stop-color:#e6c311;stop-opacity:1;"
         offset="1"
         id="stop4431" />
    </linearGradient>
    <filter
       color-interpolation-filters="sRGB"
       id="filter3174">
      <feGaussianBlur
         id="feGaussianBlur3176"
         stdDeviation="1.71" />
    </filter>
    <filter
       x="-0.192"
       y="-0.192"
       width="1.3839999"
       height="1.3839999"
       color-interpolation-filters="sRGB"
       id="filter3794">
      <feGaussianBlur
         id="feGaussianBlur3796"
         stdDeviation="5.28" />
    </filter>
    <clipPath
       id="clipPath3613">
      <rect
         width="84"
         height="84"
         rx="6"
         ry="6"
         x="6"
         y="6"
         id="rect3615"
         style="fill:#ffffff;fill-opacity:1;fill-rule:nonzero;stroke:none" />
    </clipPath>
    <linearGradient
       x1="48"
       y1="90"
       x2="48"
       y2="5.9877172"
       id="linearGradient3617"
       xlink:href="#ButtonColor"
       gradientUnits="userSpaceOnUse" />
    <linearGradient
       x1="58.650177"
       y1="122"
       x2="58.650177"
       y2="5.4252338"
       id="ButtonColor"
       gradientUnits="userSpaceOnUse"
       gradientTransform="matrix(1.0172414,0,0,1.0172414,-1.1034483,-1.1034483)">
      <stop
         id="stop3401"
         style="stop-color:#A849FC;stop-opacity:1"
         offset="0" />
      <stop
         id="stop3403"
         style="stop-color:#BE6BFF;stop-opacity:1"
         offset="1" />
    </linearGradient>
    <clipPath
       id="clipPath3836">
      <path
         d="m 112,6 c -3.324,0 -6,2.676 -6,6 l 0,23.71875 c 4.16476,5.590927 10.83896,9.218751 18.34375,9.21875 12.61273,0 22.84375,-10.231021 22.84375,-22.84375 0,-6.274884 -2.52698,-11.964405 -6.625,-16.09375 l -7.34375,0 c 5.78119,3.1123067 9.71875,9.225149 9.71875,16.25 0,10.181526 -8.25597,18.4375 -18.4375,18.4375 -10.18153,0 -18.4375,-8.255974 -18.4375,-18.4375 0,-7.024851 3.93756,-13.1376933 9.71875,-16.25 L 112,6 z m 34.375,0 0.46875,0.59375 0.5625,-0.40625 0.5,-0.1875 -1.53125,0 z m 5.96875,0 0.40625,0.75 -1.65625,2.15625 -1.4375,1.1875 -0.625,0.28125 1.0625,2.5625 0.65625,-0.25 1.84375,-0.15625 2.71875,0.34375 0.4375,1.71875 -2.15625,1.6875 -1.6875,0.75 -0.6875,0.125 0.375,2.75 0.6875,-0.0625 1.8125,0.3125 2.53125,1.0625 0,1.78125 -2.53125,1.03125 -1.8125,0.3125 -0.6875,-0.0625 -0.375,2.75 0.6875,0.125 1.6875,0.75 2.15625,1.6875 -0.4375,1.71875 -2.71875,0.375 L 150.75,31.5 l -0.65625,-0.21875 -1.0625,2.5625 0.625,0.25 1.4375,1.1875 1.65625,2.1875 L 151.875,39 149.15625,38.65625 147.40625,38 l -0.5625,-0.375 -1.6875,2.1875 0.53125,0.4375 1.0625,1.5 1.0625,2.53125 -1.25,1.28125 L 144,44.5 l -1.5,-1.0625 -0.4375,-0.53125 -2.1875,1.6875 0.375,0.5625 0.65625,1.75 0.34375,2.71875 -1.53125,0.875 -2.1875,-1.65625 -1.15625,-1.4375 -0.3125,-0.625 -2.53125,1.0625 0.21875,0.65625 0.1875,1.84375 -0.375,2.71875 -1.71875,0.46875 -1.65625,-2.1875 -0.78125,-1.6875 -0.125,-0.6875 -2.71875,0.375 0.0625,0.65625 -0.3125,1.84375 -1.0625,2.53125 -1.78125,0 -1.0625,-2.53125 L 122.125,50 l 0.0625,-0.65625 -2.75,-0.375 -0.125,0.6875 -0.75,1.6875 -1.6875,2.1875 -1.71875,-0.46875 -0.375,-2.71875 0.15625,-1.84375 0.25,-0.65625 -2.53125,-1.0625 -0.3125,0.625 -1.1875,1.4375 L 109,50.5 l -1.5625,-0.875 0.375,-2.71875 0.625,-1.75 0.40625,-0.5625 -2.1875,-1.6875 -0.4375,0.53125 L 106,43.59375 106,84 c 0,3.324 2.676,6 6,6 l 25.875,0 -0.25,-0.40625 1.84375,-2.4375 1.59375,-1.28125 0.65625,-0.34375 -1.15625,-2.8125 -0.71875,0.25 -2.03125,0.21875 -3,-0.40625 -0.53125,-1.90625 2.40625,-1.875 1.875,-0.8125 0.75,-0.15625 L 138.90625,75 l -0.75,0.0625 -2.03125,-0.34375 -2.8125,-1.15625 0,-1.96875 2.8125,-1.1875 2.03125,-0.3125 0.75,0.0625 0.40625,-3.03125 -0.75,-0.15625 -1.875,-0.84375 -2.40625,-1.84375 0.53125,-1.90625 3,-0.40625 2.03125,0.1875 0.71875,0.25 1.15625,-2.8125 -0.65625,-0.3125 -1.59375,-1.3125 -1.84375,-2.40625 1,-1.71875 3,0.40625 1.90625,0.71875 0.625,0.4375 1.875,-2.4375 -0.59375,-0.5 L 144.25,50.8125 143.09375,48 144.5,46.625 l 2.8125,1.125 1.65625,1.21875 0.5,0.5625 2.40625,-1.84375 -0.4375,-0.65625 -0.6875,-1.875 -0.40625,-3.03125 1.6875,-1 2.4375,1.84375 1.3125,1.59375 0.3125,0.6875 2.8125,-1.1875 -0.25,-0.6875 -0.1875,-2.0625 0.40625,-3 1.875,-0.5 1.875,2.40625 0.84375,1.875 0.125,0.71875 3.03125,-0.375 -0.0625,-0.78125 0.34375,-2 1.1875,-2.8125 1.96875,0 1.15625,2.8125 0.34375,2 -0.0625,0.78125 3.03125,0.375 0.125,-0.71875 0.84375,-1.875 1.875,-2.40625 1.875,0.5 0.4375,3 -0.21875,2.0625 -0.25,0.6875 2.8125,1.1875 0.34375,-0.6875 1.28125,-1.59375 2.40625,-1.84375 1.71875,1 -0.375,3.03125 -0.75,1.875 -0.40625,0.65625 2.40625,1.84375 0.5,-0.5625 L 190,48.34375 190,12 c 0,-3.324 -2.676,-6 -6,-6 L 152.34375,6 z M 124.5,8.625 c -7.53154,0 -13.65625,6.09346 -13.65625,13.625 0,7.53154 6.12471,13.65625 13.65625,13.65625 7.53154,0 13.625,-6.12471 13.625,-13.65625 0,-7.53154 -6.09346,-13.625 -13.625,-13.625 z m 44.5625,38.53125 c -5.74578,0 -11.05193,1.907852 -15.3125,5.125 l 8.15625,8.78125 c 2.0761,-1.293182 4.53192,-2.03125 7.15625,-2.03125 1.32352,0 2.60305,0.17696 3.8125,0.53125 l 5.5,-10.625 c -2.88236,-1.135296 -6.0278,-1.78125 -9.3125,-1.78125 z m 13.90625,4.15625 -5.5,10.65625 c 3.0873,2.451345 5.10585,6.203919 5.15625,10.4375 L 190,73.75 190,58.1875 c -1.87421,-2.717952 -4.26324,-5.061314 -7.03125,-6.875 z m -62.65625,2.15625 1.21875,0 0.9375,2.09375 0.0625,0.71875 -0.1875,1.28125 2.21875,0.59375 0.46875,-1.1875 0.4375,-0.59375 1.875,-1.3125 1.0625,0.625 -0.25,2.25 -0.28125,0.6875 -0.8125,0.96875 1.625,1.65625 1,-0.78125 0.6875,-0.3125 2.25,-0.21875 0.625,1.0625 -1.34375,1.84375 -0.59375,0.4375 -1.1875,0.46875 0.59375,2.21875 1.25,-0.1875 0.75,0.09375 2.0625,0.9375 0,1.25 -2.09375,0.9375 -0.71875,0.0625 -1.25,-0.1875 -0.625,2.21875 1.1875,0.46875 0.59375,0.4375 1.34375,1.84375 -0.625,1.0625 -2.28125,-0.21875 -0.65625,-0.3125 -1,-0.78125 -1.625,1.625 0.78125,1 0.28125,0.65625 0.21875,2.28125 -1.0625,0.59375 -1.84375,-1.3125 -0.4375,-0.625 -0.46875,-1.15625 -2.21875,0.5625 0.1875,1.28125 -0.0625,0.71875 -0.96875,2.09375 -1.21875,0 -0.9375,-2.09375 -0.0625,-0.75 0.1875,-1.25 -2.21875,-0.59375 -0.5,1.1875 -0.40625,0.59375 -1.875,1.3125 -1.0625,-0.625 0.21875,-2.25 0.3125,-0.6875 0.8125,-1 -1.625,-1.625 -1,0.78125 -0.6875,0.3125 -2.28125,0.21875 -0.59375,-1.0625 1.34375,-1.875 0.59375,-0.40625 1.1875,-0.46875 -0.59375,-2.21875 -1.25,0.15625 -0.75,-0.0625 -2.0625,-0.9375 0,-1.25 2.0625,-0.9375 0.75,-0.0625 1.25,0.1875 0.59375,-2.21875 -1.15625,-0.46875 -0.59375,-0.4375 -1.34375,-1.84375 0.625,-1.0625 2.28125,0.21875 0.65625,0.3125 1,0.78125 1.625,-1.625 -0.78125,-1 L 113.625,57.90625 113.40625,55.625 114.5,55 l 1.84375,1.34375 0.4375,0.59375 0.4375,1.1875 2.25,-0.59375 -0.1875,-1.25 0.0625,-0.71875 0.96875,-2.09375 z m 29.625,2.34375 c -3.93256,4.474843 -6.3125,10.329221 -6.3125,16.75 0,2.868692 0.49734,5.613964 1.375,8.1875 l 10.90625,-4.96875 C 155.65791,74.755862 155.5,73.663871 155.5,72.5625 c 0,-2.983379 0.9581,-5.72947 2.59375,-7.96875 L 149.9375,55.8125 z m -29.09375,8.375 c -1.81315,0 -3.28125,1.468102 -3.28125,3.28125 0,1.813148 1.4681,3.28125 3.28125,3.28125 1.81315,0 3.28125,-1.468102 3.28125,-3.28125 0,-1.813148 -1.4681,-3.28125 -3.28125,-3.28125 z m 48.21875,3.28125 c -2.78946,0 -5.03125,2.241791 -5.03125,5.03125 0,2.789459 2.24179,5.0625 5.03125,5.0625 2.78946,0 5.0625,-2.273041 5.0625,-5.0625 0,-2.789459 -2.27304,-5.03125 -5.0625,-5.03125 z M 181.6875,77.5 c -1.44987,3.708793 -4.49322,6.621554 -8.28125,7.90625 L 174.03125,90 184,90 c 3.324,0 6,-2.676 6,-6 L 190,79.03125 181.6875,77.5 z m -23.625,2.96875 -10.90625,5 c 0.96641,1.636602 2.11102,3.15601 3.40625,4.53125 l 18.25,0 -0.53125,-3.90625 c -4.20392,-0.242792 -7.90236,-2.407521 -10.21875,-5.625 z M 144.15625,89.75 143.8125,90 l 0.53125,0 -0.1875,-0.25 z"
         id="path3838"
         style="fill:#ffffff;fill-opacity:1;fill-rule:nonzero;stroke:none" />
    </clipPath>
    <clipPath
       id="clipPath3867">
      <path
         d="m 115.78125,6 c -5.78119,3.1123067 -9.71875,9.225149 -9.71875,16.25 0,10.181526 8.25597,18.4375 18.4375,18.4375 10.18153,0 18.4375,-8.255974 18.4375,-18.4375 0,-7.024851 -3.93756,-13.1376933 -9.71875,-16.25 l -17.4375,0 z m 24.78125,0 c 4.09802,4.129345 6.625,9.818866 6.625,16.09375 0,12.612729 -10.23102,22.84375 -22.84375,22.84375 -7.50479,10e-7 -14.17899,-3.627823 -18.34375,-9.21875 l 0,7.875 0.21875,-0.15625 0.4375,-0.53125 2.1875,1.6875 -0.40625,0.5625 -0.625,1.75 -0.375,2.71875 1.5625,0.875 2.15625,-1.65625 1.1875,-1.4375 0.3125,-0.625 2.53125,1.0625 -0.25,0.65625 -0.15625,1.84375 0.375,2.71875 1.71875,0.46875 1.6875,-2.1875 0.75,-1.6875 0.125,-0.6875 2.75,0.375 L 122.125,50 l 0.28125,1.84375 1.0625,2.53125 1.78125,0 1.0625,-2.53125 L 126.625,50 l -0.0625,-0.65625 2.71875,-0.375 0.125,0.6875 0.78125,1.6875 1.65625,2.1875 1.71875,-0.46875 0.375,-2.71875 L 133.75,48.5 l -0.21875,-0.65625 2.53125,-1.0625 0.3125,0.625 1.15625,1.4375 2.1875,1.65625 1.53125,-0.875 -0.34375,-2.71875 -0.65625,-1.75 -0.375,-0.5625 2.1875,-1.6875 0.4375,0.53125 1.5,1.0625 2.5625,1.0625 1.25,-1.28125 -1.0625,-2.53125 -1.0625,-1.5 -0.53125,-0.4375 1.6875,-2.1875 0.5625,0.375 1.75,0.65625 L 151.875,39 l 0.875,-1.53125 -1.65625,-2.1875 -1.4375,-1.1875 -0.625,-0.25 1.0625,-2.5625 0.65625,0.21875 1.84375,0.1875 2.71875,-0.375 0.4375,-1.71875 -2.15625,-1.6875 -1.6875,-0.75 -0.6875,-0.125 0.375,-2.75 0.6875,0.0625 1.8125,-0.3125 L 156.625,23 l 0,-1.78125 -2.53125,-1.0625 -1.8125,-0.3125 -0.6875,0.0625 -0.375,-2.75 0.6875,-0.125 1.6875,-0.75 2.15625,-1.6875 -0.4375,-1.71875 -2.71875,-0.34375 -1.84375,0.15625 -0.65625,0.25 -1.0625,-2.5625 0.625,-0.28125 1.4375,-1.1875 L 152.75,6.75 152.34375,6 l -4.4375,0 -0.5,0.1875 -0.5625,0.40625 L 146.375,6 140.5625,6 z M 124.5,8.625 c 7.53154,0 13.625,6.09346 13.625,13.625 0,7.53154 -6.09346,13.65625 -13.625,13.65625 -7.53154,0 -13.65625,-6.12471 -13.65625,-13.65625 0,-7.53154 6.12471,-13.625 13.65625,-13.625 z m 43.59375,28.21875 -1.1875,2.8125 -0.34375,2 0.0625,0.78125 -3.03125,0.375 -0.125,-0.71875 -0.84375,-1.875 -1.875,-2.40625 -1.875,0.5 -0.40625,3 0.1875,2.0625 0.25,0.6875 -2.8125,1.1875 -0.3125,-0.6875 -1.3125,-1.59375 -2.4375,-1.84375 -1.6875,1 0.40625,3.03125 0.6875,1.875 0.4375,0.65625 -2.40625,1.84375 -0.5,-0.5625 L 147.3125,47.75 144.5,46.625 143.09375,48 l 1.15625,2.8125 1.1875,1.65625 0.59375,0.5 -1.875,2.4375 -0.625,-0.4375 -1.90625,-0.71875 -3,-0.40625 -1,1.71875 1.84375,2.40625 1.59375,1.3125 0.65625,0.3125 -1.15625,2.8125 -0.71875,-0.25 -2.03125,-0.1875 -3,0.40625 -0.53125,1.90625 2.40625,1.84375 1.875,0.84375 0.75,0.15625 -0.40625,3.03125 -0.75,-0.0625 -2.03125,0.3125 -2.8125,1.1875 0,1.96875 2.8125,1.15625 2.03125,0.34375 0.75,-0.0625 0.40625,3.03125 -0.75,0.15625 -1.875,0.8125 -2.40625,1.875 0.53125,1.90625 3,0.40625 2.03125,-0.21875 0.71875,-0.25 1.15625,2.8125 -0.65625,0.34375 -1.59375,1.28125 -1.84375,2.4375 0.25,0.40625 5.9375,0 0.34375,-0.25 0.1875,0.25 6.21875,0 c -1.29523,-1.37524 -2.43984,-2.894648 -3.40625,-4.53125 l 10.90625,-5 c 2.31639,3.217479 6.01482,5.382208 10.21875,5.625 L 168.8125,90 l 5.21875,0 -0.625,-4.59375 c 3.78803,-1.284696 6.83138,-4.197457 8.28125,-7.90625 L 190,79.03125 190,73.75 182.625,72.40625 c -0.0504,-4.233581 -2.06895,-7.986155 -5.15625,-10.4375 l 5.5,-10.65625 c 2.76801,1.813686 5.15704,4.157048 7.03125,6.875 l 0,-9.84375 -0.84375,0.625 -0.5,0.5625 -2.40625,-1.84375 0.40625,-0.65625 0.75,-1.875 0.375,-3.03125 -1.71875,-1 -2.40625,1.84375 -1.28125,1.59375 -0.34375,0.6875 -2.8125,-1.1875 0.25,-0.6875 0.21875,-2.0625 -0.4375,-3 -1.875,-0.5 -1.875,2.40625 -0.84375,1.875 -0.125,0.71875 -3.03125,-0.375 0.0625,-0.78125 -0.34375,-2 -1.15625,-2.8125 -1.96875,0 z m 0.96875,10.3125 c 3.2847,0 6.43014,0.645954 9.3125,1.78125 l -5.5,10.625 c -1.20945,-0.35429 -2.48898,-0.53125 -3.8125,-0.53125 -2.62433,0 -5.08015,0.738068 -7.15625,2.03125 L 153.75,52.28125 c 4.26057,-3.217148 9.56672,-5.125 15.3125,-5.125 z m -48.75,6.3125 -0.96875,2.09375 -0.0625,0.71875 0.1875,1.25 -2.25,0.59375 -0.4375,-1.1875 -0.4375,-0.59375 L 114.5,55 l -1.09375,0.625 0.21875,2.28125 0.3125,0.65625 0.78125,1 -1.625,1.625 -1,-0.78125 -0.65625,-0.3125 -2.28125,-0.21875 -0.625,1.0625 1.34375,1.84375 0.59375,0.4375 1.15625,0.46875 -0.59375,2.21875 -1.25,-0.1875 -0.75,0.0625 -2.0625,0.9375 0,1.25 2.0625,0.9375 0.75,0.0625 1.25,-0.15625 0.59375,2.21875 -1.1875,0.46875 -0.59375,0.40625 -1.34375,1.875 0.59375,1.0625 2.28125,-0.21875 0.6875,-0.3125 1,-0.78125 1.625,1.625 -0.8125,1 -0.3125,0.6875 -0.21875,2.25 1.0625,0.625 1.875,-1.3125 0.40625,-0.59375 0.5,-1.1875 2.21875,0.59375 -0.1875,1.25 0.0625,0.75 0.9375,2.09375 1.21875,0 0.96875,-2.09375 0.0625,-0.71875 -0.1875,-1.28125 2.21875,-0.5625 0.46875,1.15625 0.4375,0.625 1.84375,1.3125 1.0625,-0.59375 -0.21875,-2.28125 -0.28125,-0.65625 -0.78125,-1 1.625,-1.625 1,0.78125 0.65625,0.3125 2.28125,0.21875 0.625,-1.0625 L 131.875,72 l -0.59375,-0.4375 -1.1875,-0.46875 0.625,-2.21875 1.25,0.1875 0.71875,-0.0625 2.09375,-0.9375 0,-1.25 -2.0625,-0.9375 -0.75,-0.09375 -1.25,0.1875 -0.59375,-2.21875 1.1875,-0.46875 0.59375,-0.4375 L 133.25,61 l -0.625,-1.0625 -2.25,0.21875 -0.6875,0.3125 -1,0.78125 -1.625,-1.65625 0.8125,-0.96875 0.28125,-0.6875 0.25,-2.25 -1.0625,-0.625 -1.875,1.3125 -0.4375,0.59375 -0.46875,1.1875 -2.21875,-0.59375 0.1875,-1.28125 -0.0625,-0.71875 -0.9375,-2.09375 -1.21875,0 z m 29.625,2.34375 8.15625,8.78125 C 156.4581,66.83303 155.5,69.579121 155.5,72.5625 c 0,1.101371 0.15791,2.193362 0.40625,3.21875 L 145,80.75 c -0.87766,-2.573536 -1.375,-5.318808 -1.375,-8.1875 0,-6.420779 2.37994,-12.275157 6.3125,-16.75 z m -29.09375,8.375 c 1.81315,0 3.28125,1.468102 3.28125,3.28125 0,1.813148 -1.4681,3.28125 -3.28125,3.28125 -1.81315,0 -3.28125,-1.468102 -3.28125,-3.28125 0,-1.813148 1.4681,-3.28125 3.28125,-3.28125 z m 48.21875,3.28125 c 2.78946,0 5.0625,2.241791 5.0625,5.03125 0,2.789459 -2.27304,5.0625 -5.0625,5.0625 -2.78946,0 -5.03125,-2.273041 -5.03125,-5.0625 0,-2.789459 2.24179,-5.03125 5.03125,-5.03125 z"
         id="path3869"
         style="fill:#ffffff;fill-opacity:1;stroke:none;display:inline" />
    </clipPath>
    <filter
       color-interpolation-filters="sRGB"
       id="filter3875">
      <feGaussianBlur
         id="feGaussianBlur3877"
         stdDeviation="0.42" />
    </filter>
    <filter
       x="-0.12"
       y="-0.12"
       width="1.24"
       height="1.24"
       color-interpolation-filters="sRGB"
       id="filter3879">
      <feGaussianBlur
         id="feGaussianBlur3881"
         stdDeviation="4.2" />
    </filter>
    <linearGradient
       x1="45.447727"
       y1="92.539597"
       x2="45.447727"
       y2="7.0165396"
       id="ButtonShadow-0"
       gradientUnits="userSpaceOnUse"
       gradientTransform="matrix(1.0058652,0,0,0.994169,100,0)">
      <stop
         id="stop3750-8"
         style="stop-color:#000000;stop-opacity:1"
         offset="0" />
      <stop
         id="stop3752-5"
         style="stop-color:#000000;stop-opacity:0.58823532"
         offset="1" />
    </linearGradient>
    <linearGradient
       x1="32.251034"
       y1="6.1317081"
       x2="32.251034"
       y2="90.238609"
       id="linearGradient3780"
       xlink:href="#ButtonShadow-0"
       gradientUnits="userSpaceOnUse"
       gradientTransform="matrix(1.0238095,0,0,1.0119048,-1.1428571,-98.071429)" />
    <linearGradient
       x1="32.251034"
       y1="6.1317081"
       x2="32.251034"
       y2="90.238609"
       id="linearGradient3772"
       xlink:href="#ButtonShadow-0"
       gradientUnits="userSpaceOnUse"
       gradientTransform="matrix(1.0238095,0,0,1.0119048,-1.1428571,-98.071429)" />
    <linearGradient
       x1="32.251034"
       y1="6.1317081"
       x2="32.251034"
       y2="90.238609"
       id="linearGradient3725"
       xlink:href="#ButtonShadow-0"
       gradientUnits="userSpaceOnUse"
       gradientTransform="matrix(1.0238095,0,0,1.0119048,-1.1428571,-98.071429)" />
    <linearGradient
       x1="32.251034"
       y1="6.1317081"
       x2="32.251034"
       y2="90.238609"
       id="linearGradient3721"
       xlink:href="#ButtonShadow-0"
       gradientUnits="userSpaceOnUse"
       gradientTransform="translate(0,-97)" />
    <linearGradient
       x1="32.251034"
       y1="6.1317081"
       x2="32.251034"
       y2="90.238609"
       id="linearGradient3811"
       xlink:href="#ButtonShadow-0"
       gradientUnits="userSpaceOnUse"
       gradientTransform="matrix(1.0238095,0,0,1.0119048,-1.1428571,-98.071429)" />
    <linearGradient
       inkscape:collect="always"
       xlink:href="#linearGradient3894"
       id="linearGradient3900"
       x1="51.254238"
       y1="41.694916"
       x2="51.05085"
       y2="60"
       gradientUnits="userSpaceOnUse"
       gradientTransform="translate(-74.311605,5.3811339)" />
    <linearGradient
       inkscape:collect="always"
       xlink:href="#linearGradient3935"
       id="linearGradient3941"
       x1="38.64407"
       y1="20.745762"
       x2="39.050846"
       y2="42.915253"
       gradientUnits="userSpaceOnUse"
       gradientTransform="matrix(1,0,0,0.44064465,-61.708069,37.171387)" />
    <linearGradient
       inkscape:collect="always"
       xlink:href="#linearGradient3935-6"
       id="linearGradient3941-0"
       x1="38.64407"
       y1="20.745762"
       x2="39.050846"
       y2="42.915253"
       gradientUnits="userSpaceOnUse"
       gradientTransform="matrix(1,0,0,0.44064465,-61.708069,37.171387)" />
    <linearGradient
       id="linearGradient3935-6">
      <stop
         style="stop-color:#956200;stop-opacity:1;"
         offset="0"
         id="stop3937-6" />
      <stop
         id="stop3943-3"
         offset="0.5"
         style="stop-color:#d28a00;stop-opacity:1;" />
      <stop
         style="stop-color:#956200;stop-opacity:1;"
         offset="1"
         id="stop3939-5" />
    </linearGradient>
    <linearGradient
       y2="42.915253"
       x2="39.050846"
       y1="20.745762"
       x1="38.64407"
       gradientTransform="matrix(1,0,0,0.44064465,-50.866748,7.0936128)"
       gradientUnits="userSpaceOnUse"
       id="linearGradient3961"
       xlink:href="#linearGradient3935-6"
       inkscape:collect="always" />
    <linearGradient
       inkscape:collect="always"
       xlink:href="#linearGradient3935-6"
       id="linearGradient4001"
       gradientUnits="userSpaceOnUse"
       gradientTransform="matrix(1,0,0,0.44064465,-62.763331,47.519894)"
       x1="38.64407"
       y1="20.745762"
       x2="39.050846"
       y2="42.915253" />
    <linearGradient
       inkscape:collect="always"
       xlink:href="#linearGradient3894"
       id="linearGradient4011"
       gradientUnits="userSpaceOnUse"
       gradientTransform="translate(-74.311605,5.3811339)"
       x1="51.254238"
       y1="41.694916"
       x2="51.05085"
       y2="60" />
    <linearGradient
       inkscape:collect="always"
       xlink:href="#linearGradient3935-6"
       id="linearGradient4013"
       gradientUnits="userSpaceOnUse"
       gradientTransform="matrix(1,0,0,0.44064465,-62.763331,47.519894)"
       x1="38.64407"
       y1="20.745762"
       x2="39.050846"
       y2="42.915253" />
    <linearGradient
       inkscape:collect="always"
       xlink:href="#linearGradient3935"
       id="linearGradient4015"
       gradientUnits="userSpaceOnUse"
       gradientTransform="matrix(1,0,0,0.44064465,-61.708069,37.171387)"
       x1="38.64407"
       y1="20.745762"
       x2="39.050846"
       y2="42.915253" />
    <linearGradient
       inkscape:collect="always"
       xlink:href="#linearGradient3853"
       id="linearGradient4030"
       gradientUnits="userSpaceOnUse"
       x1="31.783852"
       y1="26.823383"
       x2="32.215305"
       y2="50.121952" />
    <linearGradient
       inkscape:collect="always"
       xlink:href="#linearGradient4427-4"
       id="linearGradient4433-8"
       x1="25.024389"
       y1="24.666109"
       x2="71.621529"
       y2="70.975609"
       gradientUnits="userSpaceOnUse" />
    <linearGradient
       id="linearGradient4427-4">
      <stop
         style="stop-color:#f3f95d;stop-opacity:1;"
         offset="0"
         id="stop4429-6" />
      <stop
         style="stop-color:#e6c311;stop-opacity:1;"
         offset="1"
         id="stop4431-5" />
    </linearGradient>
    <linearGradient
       y2="25.529018"
       x2="25.312027"
       y1="70.687981"
       x1="70.183342"
       gradientUnits="userSpaceOnUse"
       id="linearGradient4450-0"
       xlink:href="#linearGradient4427-4-0"
       inkscape:collect="always"
       gradientTransform="translate(-0.5,0.5)" />
    <linearGradient
       id="linearGradient4427-4-0">
      <stop
         style="stop-color:#f3f95d;stop-opacity:1;"
         offset="0"
         id="stop4429-6-8" />
      <stop
         style="stop-color:#e6c311;stop-opacity:1;"
         offset="1"
         id="stop4431-5-8" />
    </linearGradient>
    <linearGradient
       y2="25.529018"
       x2="25.312027"
       y1="70.687981"
       x1="70.183342"
       gradientTransform="translate(-1,1)"
       gradientUnits="userSpaceOnUse"
       id="linearGradient4501-1"
       xlink:href="#linearGradient4427-4-0-7"
       inkscape:collect="always" />
    <linearGradient
       id="linearGradient4427-4-0-7">
      <stop
         style="stop-color:#f3f95d;stop-opacity:1;"
         offset="0"
         id="stop4429-6-8-5" />
      <stop
         style="stop-color:#e6c311;stop-opacity:1;"
         offset="1"
         id="stop4431-5-8-8" />
    </linearGradient>
    <linearGradient
       y2="25.529018"
       x2="25.312027"
       y1="70.687981"
       x1="70.183342"
       gradientTransform="translate(-1.5,1.5)"
       gradientUnits="userSpaceOnUse"
       id="linearGradient4535-4"
       xlink:href="#linearGradient4427-4-0-7-2"
       inkscape:collect="always" />
    <linearGradient
       id="linearGradient4427-4-0-7-2">
      <stop
         style="stop-color:#f3f95d;stop-opacity:1;"
         offset="0"
         id="stop4429-6-8-5-7" />
      <stop
         style="stop-color:#e6c311;stop-opacity:1;"
         offset="1"
         id="stop4431-5-8-8-4" />
    </linearGradient>
    <linearGradient
       inkscape:collect="always"
       xlink:href="#linearGradient4427-4-0-7-2-8"
       id="linearGradient4607-1"
       x1="62.440678"
       y1="63.559322"
       x2="66.406784"
       y2="68.13559"
       gradientUnits="userSpaceOnUse" />
    <linearGradient
       id="linearGradient4427-4-0-7-2-8">
      <stop
         style="stop-color:#f3f95d;stop-opacity:1;"
         offset="0"
         id="stop4429-6-8-5-7-3" />
      <stop
         style="stop-color:#e6c311;stop-opacity:1;"
         offset="1"
         id="stop4431-5-8-8-4-1" />
    </linearGradient>
    <filter
       inkscape:collect="always"
       id="filter4643"
       x="-0.12634951"
       width="1.252699"
       y="-0.16738265"
       height="1.3347653">
      <feGaussianBlur
         inkscape:collect="always"
         stdDeviation="0.67781247"
         id="feGaussianBlur4645" />
    </filter>
    <linearGradient
       inkscape:collect="always"
       xlink:href="#linearGradient4427-4-0-7-2"
       id="linearGradient4662"
       gradientUnits="userSpaceOnUse"
       gradientTransform="translate(-2,2)"
       x1="70.183342"
       y1="70.687981"
       x2="25.312027"
       y2="25.529018" />
    <linearGradient
       inkscape:collect="always"
       xlink:href="#linearGradient4427-4-0-7"
       id="linearGradient4664"
       gradientUnits="userSpaceOnUse"
       gradientTransform="translate(-1.5,1.5)"
       x1="70.183342"
       y1="70.687981"
       x2="25.312027"
       y2="25.529018" />
    <linearGradient
       inkscape:collect="always"
       xlink:href="#linearGradient4427-4-0"
       id="linearGradient4666"
       gradientUnits="userSpaceOnUse"
       gradientTransform="translate(-1,1)"
       x1="70.183342"
       y1="70.687981"
       x2="25.312027"
       y2="25.529018" />
    <linearGradient
       inkscape:collect="always"
       xlink:href="#linearGradient4427-4"
       id="linearGradient4668"
       gradientUnits="userSpaceOnUse"
       gradientTransform="translate(-0.5,0.5)"
       x1="70.183342"
       y1="70.687981"
       x2="25.312027"
       y2="25.529018" />
    <linearGradient
       inkscape:collect="always"
       xlink:href="#linearGradient4427-4-0-7-2"
       id="linearGradient4670"
       gradientUnits="userSpaceOnUse"
       x1="24.449116"
       y1="24.378471"
       x2="70.470985"
       y2="71.838524" />
    <linearGradient
       inkscape:collect="always"
       xlink:href="#linearGradient4427-4-0-7-2"
       id="linearGradient4672"
       gradientUnits="userSpaceOnUse"
       x1="62.440678"
       y1="63.559322"
       x2="66.406784"
       y2="68.13559" />
  </defs>
  <g
     id="layer2"
     style="display:none">
    <rect
       width="86"
       height="85"
       rx="6"
       ry="6"
       x="5"
       y="7"
       id="rect3745"
       style="opacity:0.9;fill:url(#ButtonShadow);fill-opacity:1;fill-rule:nonzero;stroke:none;filter:url(#filter3174)" />
  </g>
  <g
     id="layer4"
     style="display:inline">
    <path
       d="m 12,-95.03125 c -5.5110903,0 -10.03125,4.52016 -10.03125,10.03125 l 0,71 c 0,5.5110902 4.5201598,10.03125 10.03125,10.03125 l 72,0 c 5.51109,0 10.03125,-4.5201597 10.03125,-10.03125 l 0,-71 c 0,-5.51109 -4.52016,-10.03125 -10.03125,-10.03125 l -72,0 z"
       transform="scale(1,-1)"
       id="path3786-2"
       style="opacity:0.07999998;fill:url(#linearGradient3811);fill-opacity:1;fill-rule:nonzero;stroke:none;display:inline" />
    <path
       d="m 12,-94.03125 c -4.971633,0 -9.03125,4.059617 -9.03125,9.03125 l 0,71 c 0,4.9716329 4.0596171,9.03125 9.03125,9.03125 l 72,0 c 4.971633,0 9.03125,-4.059617 9.03125,-9.03125 l 0,-71 c 0,-4.971633 -4.059617,-9.03125 -9.03125,-9.03125 l -72,0 z"
       transform="scale(1,-1)"
       id="path3778"
       style="opacity:0.1;fill:url(#linearGradient3780);fill-opacity:1;fill-rule:nonzero;stroke:none;display:inline" />
    <path
       d="m 12,-93 c -4.4091333,0 -8,3.590867 -8,8 l 0,71 c 0,4.4091333 3.5908667,8 8,8 l 72,0 c 4.409133,0 8,-3.5908667 8,-8 l 0,-71 c 0,-4.409133 -3.590867,-8 -8,-8 l -72,0 z"
       transform="scale(1,-1)"
       id="path3770"
       style="opacity:0.2;fill:url(#linearGradient3772);fill-opacity:1;fill-rule:nonzero;stroke:none;display:inline" />
    <rect
       width="86"
       height="85"
       rx="7"
       ry="7"
       x="5"
       y="-92"
       transform="scale(1,-1)"
       id="rect3723"
       style="opacity:0.3;fill:url(#linearGradient3725);fill-opacity:1;fill-rule:nonzero;stroke:none;display:inline" />
    <rect
       width="84"
       height="84"
       rx="6"
       ry="6"
       x="6"
       y="-91"
       transform="scale(1,-1)"
       id="rect3716"
       style="opacity:0.45;fill:url(#linearGradient3721);fill-opacity:1;fill-rule:nonzero;stroke:none;display:inline" />
  </g>
  <g
     id="layer1">
    <rect
       width="84"
       height="84"
       rx="6"
       ry="6"
       x="6"
       y="6"
       id="rect2419"
       style="fill:url(#linearGradient3617);fill-opacity:1;fill-rule:nonzero;stroke:none" />
  </g>
  <g
     id="layer5">
    <rect
       width="66"
       height="66"
       rx="12"
       ry="12"
       x="15"
       y="15"
       clip-path="url(#clipPath3613)"
       id="rect3171"
       style="opacity:0.1;fill:url(#linearGradient3613);fill-opacity:1;fill-rule:nonzero;stroke:#ffffff;stroke-width:0.5;stroke-linecap:round;stroke-linejoin:miter;stroke-miterlimit:4;stroke-opacity:1;stroke-dasharray:none;stroke-dashoffset:0;filter:url(#filter3794)" />
    <path
       d="M 12,6 C 8.676,6 6,8.676 6,12 l 0,2 0,68 0,2 c 0,0.334721 0.04135,0.6507 0.09375,0.96875 0.0487,0.295596 0.09704,0.596915 0.1875,0.875 0.00988,0.03038 0.020892,0.0636 0.03125,0.09375 0.098865,0.287771 0.2348802,0.547452 0.375,0.8125 0.1445918,0.273507 0.3156161,0.535615 0.5,0.78125 0.1843839,0.245635 0.3737765,0.473472 0.59375,0.6875 0.439947,0.428056 0.94291,0.814526 1.5,1.09375 0.278545,0.139612 0.5734731,0.246947 0.875,0.34375 -0.2562018,-0.100222 -0.4867109,-0.236272 -0.71875,-0.375 -0.00741,-0.0044 -0.023866,0.0045 -0.03125,0 -0.031933,-0.0193 -0.062293,-0.04251 -0.09375,-0.0625 -0.120395,-0.0767 -0.2310226,-0.163513 -0.34375,-0.25 -0.1061728,-0.0808 -0.2132809,-0.161112 -0.3125,-0.25 C 8.4783201,88.557317 8.3087904,88.373362 8.15625,88.1875 8.0486711,88.057245 7.9378561,87.922215 7.84375,87.78125 7.818661,87.74287 7.805304,87.69538 7.78125,87.65625 7.716487,87.553218 7.6510225,87.451733 7.59375,87.34375 7.4927417,87.149044 7.3880752,86.928049 7.3125,86.71875 7.30454,86.69694 7.288911,86.6782 7.28125,86.65625 7.2494249,86.5643 7.2454455,86.469419 7.21875,86.375 7.1884177,86.268382 7.1483606,86.171969 7.125,86.0625 7.0521214,85.720988 7,85.364295 7,85 L 7,83 7,15 7,13 C 7,10.218152 9.2181517,8 12,8 l 2,0 68,0 2,0 c 2.781848,0 5,2.218152 5,5 l 0,2 0,68 0,2 c 0,0.364295 -0.05212,0.720988 -0.125,1.0625 -0.04415,0.206893 -0.08838,0.397658 -0.15625,0.59375 -0.0077,0.02195 -0.0233,0.04069 -0.03125,0.0625 -0.06274,0.173739 -0.138383,0.367449 -0.21875,0.53125 -0.04158,0.0828 -0.07904,0.169954 -0.125,0.25 -0.0546,0.09721 -0.126774,0.18835 -0.1875,0.28125 -0.09411,0.140965 -0.204921,0.275995 -0.3125,0.40625 -0.143174,0.17445 -0.303141,0.346998 -0.46875,0.5 -0.01117,0.0102 -0.01998,0.02115 -0.03125,0.03125 -0.138386,0.125556 -0.285091,0.234436 -0.4375,0.34375 -0.102571,0.07315 -0.204318,0.153364 -0.3125,0.21875 -0.0074,0.0045 -0.02384,-0.0044 -0.03125,0 -0.232039,0.138728 -0.462548,0.274778 -0.71875,0.375 0.301527,-0.0968 0.596455,-0.204138 0.875,-0.34375 0.55709,-0.279224 1.060053,-0.665694 1.5,-1.09375 0.219973,-0.214028 0.409366,-0.441865 0.59375,-0.6875 0.184384,-0.245635 0.355408,-0.507743 0.5,-0.78125 0.14012,-0.265048 0.276135,-0.524729 0.375,-0.8125 0.01041,-0.03078 0.02133,-0.06274 0.03125,-0.09375 0.09046,-0.278085 0.1388,-0.579404 0.1875,-0.875 C 89.95865,84.6507 90,84.334721 90,84 l 0,-2 0,-68 0,-2 C 90,8.676 87.324,6 84,6 L 12,6 z"
       id="rect3728"
       style="opacity:0.5;fill:url(#linearGradient3188);fill-opacity:1;fill-rule:nonzero;stroke:none" />
    <path
       d="M 12,90 C 8.676,90 6,87.324 6,84 L 6,82 6,14 6,12 c 0,-0.334721 0.04135,-0.6507 0.09375,-0.96875 0.0487,-0.295596 0.09704,-0.596915 0.1875,-0.875 C 6.29113,10.12587 6.302142,10.09265 6.3125,10.0625 6.411365,9.774729 6.5473802,9.515048 6.6875,9.25 6.8320918,8.976493 7.0031161,8.714385 7.1875,8.46875 7.3718839,8.223115 7.5612765,7.995278 7.78125,7.78125 8.221197,7.353194 8.72416,6.966724 9.28125,6.6875 9.559795,6.547888 9.8547231,6.440553 10.15625,6.34375 9.9000482,6.443972 9.6695391,6.580022 9.4375,6.71875 c -0.00741,0.0044 -0.023866,-0.0045 -0.03125,0 -0.031933,0.0193 -0.062293,0.04251 -0.09375,0.0625 -0.120395,0.0767 -0.2310226,0.163513 -0.34375,0.25 -0.1061728,0.0808 -0.2132809,0.161112 -0.3125,0.25 C 8.4783201,7.442683 8.3087904,7.626638 8.15625,7.8125 8.0486711,7.942755 7.9378561,8.077785 7.84375,8.21875 7.818661,8.25713 7.805304,8.30462 7.78125,8.34375 7.716487,8.446782 7.6510225,8.548267 7.59375,8.65625 7.4927417,8.850956 7.3880752,9.071951 7.3125,9.28125 7.30454,9.30306 7.288911,9.3218 7.28125,9.34375 7.2494249,9.4357 7.2454455,9.530581 7.21875,9.625 7.1884177,9.731618 7.1483606,9.828031 7.125,9.9375 7.0521214,10.279012 7,10.635705 7,11 l 0,2 0,68 0,2 c 0,2.781848 2.2181517,5 5,5 l 2,0 68,0 2,0 c 2.781848,0 5,-2.218152 5,-5 l 0,-2 0,-68 0,-2 C 89,10.635705 88.94788,10.279012 88.875,9.9375 88.83085,9.730607 88.78662,9.539842 88.71875,9.34375 88.71105,9.3218 88.69545,9.30306 88.6875,9.28125 88.62476,9.107511 88.549117,8.913801 88.46875,8.75 88.42717,8.6672 88.38971,8.580046 88.34375,8.5 88.28915,8.40279 88.216976,8.31165 88.15625,8.21875 88.06214,8.077785 87.951329,7.942755 87.84375,7.8125 87.700576,7.63805 87.540609,7.465502 87.375,7.3125 87.36383,7.3023 87.35502,7.29135 87.34375,7.28125 87.205364,7.155694 87.058659,7.046814 86.90625,6.9375 86.803679,6.86435 86.701932,6.784136 86.59375,6.71875 c -0.0074,-0.0045 -0.02384,0.0044 -0.03125,0 -0.232039,-0.138728 -0.462548,-0.274778 -0.71875,-0.375 0.301527,0.0968 0.596455,0.204138 0.875,0.34375 0.55709,0.279224 1.060053,0.665694 1.5,1.09375 0.219973,0.214028 0.409366,0.441865 0.59375,0.6875 0.184384,0.245635 0.355408,0.507743 0.5,0.78125 0.14012,0.265048 0.276135,0.524729 0.375,0.8125 0.01041,0.03078 0.02133,0.06274 0.03125,0.09375 0.09046,0.278085 0.1388,0.579404 0.1875,0.875 C 89.95865,11.3493 90,11.665279 90,12 l 0,2 0,68 0,2 c 0,3.324 -2.676,6 -6,6 l -72,0 z"
       id="path3615"
       style="opacity:0.2;fill:url(#radialGradient3619);fill-opacity:1;fill-rule:nonzero;stroke:none" />
  </g>
  <g
     id="g4651"
     transform="matrix(1.3,0,0,1.3,-14.157387,-15.7)">
    <rect
       y="26"
       x="22"
       height="48"
       width="48"
       id="rect3034-5-4-6-3"
       style="fill:url(#linearGradient4662);fill-opacity:1" />
    <rect
       y="25.5"
       x="22.5"
       height="48"
       width="48"
       id="rect3034-5-4-6"
       style="fill:url(#linearGradient4664);fill-opacity:1" />
    <rect
       y="25"
       x="23"
       height="48"
       width="48"
       id="rect3034-5-4"
       style="fill:url(#linearGradient4666);fill-opacity:1" />
    <rect
       y="24.5"
       x="23.5"
       height="48"
       width="48"
       id="rect3034-5"
       style="fill:url(#linearGradient4668);fill-opacity:1" />
    <path
       id="path4591"
       d="M 59.125,72 24,72 l 0,-48 0,0 48,0 0,38.281251"
       style="fill:url(#linearGradient4670);fill-opacity:1"
       inkscape:connector-curvature="0" />
    <path
       sodipodi:nodetypes="cccc"
       inkscape:connector-curvature="0"
       id="rect3034-51"
       d="m 72,62.281251 c -2.890313,0.597454 -2.176929,1.455812 -9.727302,1.072201 C 62.115019,66.301502 61.126874,69.578863 59.125,72 65.324674,69.427204 68.842068,66.531755 72,62.281251 z"
       style="opacity:0.35;fill:#3c3c3c;fill-opacity:1;filter:url(#filter4643)" />
    <path
       sodipodi:nodetypes="cccc"
       inkscape:connector-curvature="0"
       id="rect3034"
       d="m 72,62.281251 c -2.890313,0.597454 -2.176929,1.455812 -9.727302,1.072201 C 62.115019,66.301502 61.126874,69.578863 59.125,72 65.324674,69.427204 68.842068,66.531755 72,62.281251 z"
       style="fill:url(#linearGradient4672);fill-opacity:1" />
    <text
       sodipodi:linespacing="125%"
       id="text4647"
       y="46.238857"
       x="26.901068"
       style="font-size:24px;font-style:normal;font-weight:normal;line-height:125%;letter-spacing:0px;word-spacing:0px;fill:#000000;fill-opacity:1;stroke:none;font-family:Sans"
       xml:space="preserve"
       inkscape:export-filename="/home/stephen/.local/share/cinnamon/applets/sticky@scollins/text4647.png"
       inkscape:export-xdpi="45"
       inkscape:export-ydpi="45"><tspan
         style="font-size:22px;font-style:italic;font-variant:normal;font-weight:bold;font-stretch:normal;font-family:URW Chancery L;-inkscape-font-specification:URW Chancery L Bold Italic"
         y="46.238857"
         x="26.901068"
         id="tspan4649"
         sodipodi:role="line">Note</tspan></text>
  </g>
</svg>
