<?xml version="1.0" encoding="UTF-8"?>
<!DOCTYPE svg PUBLIC "-//W3C//DTD SVG 1.1//EN" "http://www.w3.org/Graphics/SVG/1.1/DTD/svg11.dtd">
<svg xmlns="http://www.w3.org/2000/svg" version="1.1" width="32px" height="32px" style="shape-rendering:geometricPrecision; text-rendering:geometricPrecision; image-rendering:optimizeQuality; fill-rule:evenodd; clip-rule:evenodd" xmlns:xlink="http://www.w3.org/1999/xlink">
<g><path style="opacity:1" fill="#000000" d="M -0.5,18.5 C -0.5,17.1667 -0.5,15.8333 -0.5,14.5C 1.06802,11.5459 3.40135,10.5459 6.5,11.5C 12.705,11.0797 18.705,9.74641 24.5,7.5C 28.1656,8.81674 29.8323,11.4834 29.5,15.5C 27.549,15.7733 26.049,15.1066 25,13.5C 24.5,14 24,14.5 23.5,15C 25.0062,17.3333 26.6729,19.5 28.5,21.5C 28.1667,22.1667 27.8333,22.8333 27.5,23.5C 26.1861,22.6872 25.0195,21.6872 24,20.5C 22.8904,22.0368 21.3904,22.7035 19.5,22.5C 19.33,21.1779 19.6634,20.0113 20.5,19C 18.0991,17.9609 15.7657,17.7942 13.5,18.5C 14.5,19.8333 15.5,21.1667 16.5,22.5C 13.2232,23.7731 10.7232,22.7731 9,19.5C 8.50999,20.7932 8.34332,22.1266 8.5,23.5C 7.5,23.5 6.5,23.5 5.5,23.5C 5.24358,21.2075 5.57692,19.0408 6.5,17C 4.24329,17.4371 1.90996,17.9371 -0.5,18.5 Z"/></g>
</svg>
