<?xml version="1.0" encoding="UTF-8" standalone="no"?>
<svg
   viewBox="0 0 16 16"
   version="1.1"
   id="svg8"
   xmlns="http://www.w3.org/2000/svg"
   xmlns:svg="http://www.w3.org/2000/svg">
  <defs
     id="defs12" />
  <g
     fill="gray"
     id="g6">
    <path
       d="M5.5 16s-1-1-4.5-6h2V7h1v4H2.781C5 14 5.5 14.406 5.5 14.406S6 14 8.219 11H7V8h1v2h2c-3.5 5-4.5 6-4.5 6z"
       id="path2"
       style="fill:#008080" />
    <path
       d="M9.5 0s1 1 4.5 6h-2v3h-1V5h1.219C10 2 9.5 1.594 9.5 1.594S9 2 6.781 5H8v3H7V6H5c3.5-5 4.5-6 4.5-6z"
       id="path4"
       style="fill:#ff0000" />
    <rect
       style="fill:#008080"
       id="rect1277"
       width="3.0645516"
       height="0.99636281"
       x="3.9817407"
       y="7.0081196" />
    <rect
       style="fill:#ff0000"
       id="rect1331"
       width="3.0421538"
       height="0.99190688"
       x="8.0071144"
       y="8.0118704" />
    <path
       style="fill:#ff0000;stroke-width:0.0200753"
       d="M 8,6.4946525 V 4.9893051 L 7.4050759,4.9839876 6.8101517,4.97867 7.2999819,4.3262233 C 8.262608,3.0440195 9.1245754,1.973218 9.4250327,1.6863237 l 0.084097,-0.080301 0.1002843,0.110414 c 0.534879,0.5889065 1.231713,1.4617543 2.219741,2.7804266 l 0.360998,0.4818068 -0.599468,0.00531 -0.599468,0.00531 V 6.4946481 8 H 9.4956085 8 Z"
       id="path1463" />
    <path
       style="fill:#008080;stroke-width:0.0200753"
       d="m 5.3480713,14.228813 c -0.2749166,-0.285284 -0.7108354,-0.813024 -1.3228231,-1.60146 -0.3997036,-0.514947 -1.204671,-1.586487 -1.204671,-1.60361 0,-0.0068 0.2664993,-0.01245 0.5922208,-0.01245 H 4.0050188 V 9.5156838 8.0200753 h 1.4956086 1.4956085 v 1.4956085 1.4956082 h 0.5922208 c 0.3257215,0 0.5922208,0.0053 0.5922208,0.01183 0,0.01692 -0.8971916,1.208063 -1.2849361,1.705926 -0.5555673,0.713349 -1.0840166,1.348607 -1.2893524,1.549955 l -0.1079484,0.105852 z"
       id="path1465" />
  </g>
</svg>
