<?xml version="1.0" encoding="UTF-8" standalone="no"?>
<svg
   xmlns:dc="http://purl.org/dc/elements/1.1/"
   xmlns:cc="http://creativecommons.org/ns#"
   xmlns:rdf="http://www.w3.org/1999/02/22-rdf-syntax-ns#"
   xmlns:svg="http://www.w3.org/2000/svg"
   xmlns="http://www.w3.org/2000/svg"
   xmlns:sodipodi="http://sodipodi.sourceforge.net/DTD/sodipodi-0.dtd"
   xmlns:inkscape="http://www.inkscape.org/namespaces/inkscape"
   version="1.1"
   width="24"
   height="24"
   viewBox="0 0 24 24"
   id="svg4"
   sodipodi:docname="lightbulb-on-outline.svg"
   inkscape:version="0.92+devel unknown">
  <metadata
     id="metadata10">
    <rdf:RDF>
      <cc:Work
         rdf:about="">
        <dc:format>image/svg+xml</dc:format>
        <dc:type
           rdf:resource="http://purl.org/dc/dcmitype/StillImage" />
      </cc:Work>
    </rdf:RDF>
  </metadata>
  <defs
     id="defs8" />
  <sodipodi:namedview
     pagecolor="#ffffff"
     bordercolor="#666666"
     inkscape:document-rotation="0"
     borderopacity="1"
     objecttolerance="10"
     gridtolerance="10"
     guidetolerance="10"
     inkscape:pageopacity="0"
     inkscape:pageshadow="2"
     inkscape:window-width="1920"
     inkscape:window-height="1031"
     id="namedview6"
     showgrid="false"
     inkscape:zoom="33.083333"
     inkscape:cx="12"
     inkscape:cy="12.090681"
     inkscape:window-x="0"
     inkscape:window-y="24"
     inkscape:window-maximized="1"
     inkscape:current-layer="svg4" />
  <path
     d="M20,11H23V13H20V11M1,11H4V13H1V11M13,1V4H11V1H13M4.92,3.5L7.05,5.64L5.63,7.05L3.5,4.93L4.92,3.5M16.95,5.63L19.07,3.5L20.5,4.93L18.37,7.05L16.95,5.63M12,6A6,6 0 0,1 18,12C18,14.22 16.79,16.16 15,17.2V19A1,1 0 0,1 14,20H10A1,1 0 0,1 9,19V17.2C7.21,16.16 6,14.22 6,12A6,6 0 0,1 12,6M14,21V22A1,1 0 0,1 13,23H11A1,1 0 0,1 10,22V21H14M11,18H13V15.87C14.73,15.43 16,13.86 16,12A4,4 0 0,0 12,8A4,4 0 0,0 8,12C8,13.86 9.27,15.43 11,15.87V18Z"
     id="path2" />
  <path
     style="fill:#ffffff;stroke:#ff0000;stroke-width:0.0302267"
     d="m 11.020655,16.93076 v -1.066217 l -0.264484,-0.0854 C 10.429343,15.673615 10.022889,15.472296 9.7222102,15.267018 9.4013097,15.047935 8.9226954,14.560445 8.7005995,14.226464 8.2372784,13.529736 8.0285034,12.840962 8.0283082,12.008493 8.0281455,11.315138 8.1466261,10.810236 8.4510906,10.206817 9.1331491,8.8550439 10.487195,8.0227934 12.005253,8.0222878 c 2.195066,-7.311e-4 3.972581,1.7771158 3.972581,3.9733222 0,1.739022 -1.121479,3.274787 -2.7733,3.797786 l -0.219144,0.06939 v 1.067098 1.067098 h -0.982367 -0.982368 z"
     id="path4269"
     inkscape:connector-curvature="0" />
  <path
     style="fill:#ffffff;stroke:#000000;stroke-width:0.0302267"
     d="m 11.043712,16.904 -0.0079,-1.062751 -0.241813,-0.08135 C 10.151506,15.543782 9.6917489,15.257973 9.22143,14.782337 8.6310253,14.185258 8.2949318,13.575003 8.1285628,12.797985 8.0521477,12.441092 8.0520249,11.559721 8.1283403,11.201817 8.2819661,10.481345 8.6413428,9.8103281 9.1684069,9.2598375 9.735516,8.6675219 10.389705,8.3078154 11.233831,8.1241616 c 0.355863,-0.077424 1.17993,-0.078018 1.532965,-0.00111 1.595378,0.3475717 2.765406,1.5177519 3.109742,3.1101474 0.07561,0.349685 0.07561,1.177862 0,1.527547 -0.308211,1.425331 -1.295686,2.541462 -2.649334,2.994508 l -0.256927,0.08599 -0.0079,1.062751 -0.0079,1.062751 H 12.00311 11.051742 Z"
     id="path4304"
     inkscape:connector-curvature="0" />
  <path
     style="fill:#ffffff;stroke:#000000;stroke-width:0.0302267"
     d="M 1.0156171,11.996977 V 11.01461 h 1.4811083 1.4811084 v 0.982367 0.982368 H 2.4967254 1.0156171 Z"
     id="path4306"
     inkscape:connector-curvature="0" />
  <path
     style="fill:#ffffff;stroke:#000000;stroke-width:0.0302267"
     d="M 4.5721808,5.9716785 3.5243517,4.9235286 4.2271633,4.224143 4.9299748,3.5247574 5.9779287,4.5884836 7.0258827,5.6522097 6.3229462,6.336019 5.6200098,7.0198283 Z"
     id="path4308"
     inkscape:connector-curvature="0" />
  <path
     style="fill:#ffffff;stroke:#000000;stroke-width:0.0302267"
     d="M 11.020655,2.4906801 V 1.0095718 h 0.982368 0.982367 v 1.4811083 1.4811083 h -0.982367 -0.982368 z"
     id="path4310"
     inkscape:connector-curvature="0" />
  <path
     style="fill:#ffffff;stroke:#000000;stroke-width:0.0302267"
     d="M 17.677922,6.3217561 16.975389,5.6187455 18.02593,4.5685259 19.076471,3.5183064 19.779005,4.221317 20.481538,4.9243276 19.430997,5.9745471 18.380456,7.0247668 Z"
     id="path4312"
     inkscape:connector-curvature="0" />
  <path
     style="fill:#ffffff;stroke:#000000;stroke-width:0.0302267"
     d="M 20.028212,11.996977 V 11.01461 h 1.481108 1.481108 v 0.982367 0.982368 H 21.50932 20.028212 Z"
     id="path4314"
     inkscape:connector-curvature="0" />
  <path
     style="fill:#ffffff;stroke:#1a1a1a;stroke-width:0.0302267"
     d="m 10.676809,22.92467 c -0.208042,-0.08221 -0.357669,-0.193281 -0.468773,-0.347992 -0.167235,-0.23287 -0.184862,-0.325497 -0.184862,-0.971411 v -0.58562 h 1.979849 1.979849 v 0.573174 c 0,0.512982 -0.0068,0.591464 -0.06517,0.747347 -0.08289,0.221553 -0.306383,0.462226 -0.518155,0.557996 -0.155746,0.07043 -0.168667,0.07117 -1.366301,0.07792 -1.131768,0.0064 -1.21849,0.0031 -1.35644,-0.05142 z"
     id="path4271"
     inkscape:connector-curvature="0" />
  <path
     style="fill:#ffffff;stroke:#1a1a1a;stroke-width:0.0302267"
     d="M 9.7496391,19.951255 C 9.5622758,19.900063 9.4155098,19.804288 9.2612654,19.632554 9.0332726,19.378711 9.0253729,19.330466 9.025543,18.192956 L 9.0256927,17.19498 8.8548082,17.09277 C 8.5563723,16.914267 8.0878774,16.543767 7.8027415,16.260763 5.667185,14.141174 5.4178328,10.84175 7.2098106,8.415113 7.4209519,8.1291923 7.9434311,7.5882834 8.2397985,7.3487939 8.9110423,6.8063726 9.7988249,6.3685847 10.612594,6.1787084 c 0.903639,-0.2108455 1.948963,-0.2055575 2.826197,0.014297 2.37301,0.5947299 4.132072,2.5457008 4.487088,4.9766166 0.05916,0.405077 0.06051,1.238185 0.0027,1.643476 -0.154155,1.080171 -0.600059,2.108964 -1.277346,2.947103 -0.374564,0.463522 -0.992183,1.012776 -1.481936,1.317899 l -0.188917,0.117698 v 0.988876 c 0,0.923494 -0.0041,0.999847 -0.06208,1.154795 -0.08207,0.21934 -0.290295,0.446745 -0.506112,0.55272 l -0.172363,0.08464 -2.176323,0.006 c -1.656407,0.0046 -2.209174,-0.003 -2.3138369,-0.03157 z m 3.2659779,-2.994617 v -1.070566 l 0.24937,-0.08201 c 0.596117,-0.196042 1.079218,-0.496507 1.552355,-0.965489 0.58886,-0.583691 0.94215,-1.229623 1.119923,-2.047598 0.06878,-0.316497 0.07689,-1.200425 0.01392,-1.519441 C 15.627544,9.6316966 14.368303,8.3724551 12.728463,8.0488119 12.405668,7.985104 11.525634,7.993951 11.202015,8.0641573 10.444782,8.2284324 9.7699569,8.5850094 9.2285341,9.1069426 8.6559368,9.6589278 8.2943239,10.282242 8.1007071,11.050984 c -0.1056898,0.419634 -0.1336984,1.167372 -0.059778,1.595867 0.2041317,1.183285 0.8755324,2.172861 1.8935671,2.790925 0.2511618,0.152483 0.6391348,0.326455 0.8918848,0.399932 l 0.164047,0.04769 v 1.070903 1.070903 h 1.012595 1.012594 z"
     id="path4273"
     inkscape:connector-curvature="0" />
  <path
     style="fill:#d40000;stroke:#1a1a1a;stroke-width:0.0302267"
     d="m 11.079366,16.991939 c -9.58e-4,-0.519521 -0.01116,-0.997119 -0.02267,-1.061327 -0.02069,-0.115424 -0.024,-0.117855 -0.293109,-0.215116 C 10.166365,15.499645 9.7491954,15.243108 9.3169691,14.825903 8.5783895,14.112992 8.1892624,13.323293 8.1154703,12.387568 8.0371533,11.394465 8.2296065,10.615667 8.745314,9.8387851 8.9559297,9.5215057 9.3844209,9.0697014 9.6932611,8.8392626 10.11379,8.5254882 10.692464,8.2691043 11.232242,8.1574104 c 0.34439,-0.071263 1.216034,-0.072529 1.536654,-0.00223 1.554934,0.340928 2.742429,1.5287926 3.074966,3.0759246 0.03373,0.156912 0.04765,0.38537 0.04758,0.780986 -9.1e-5,0.523327 -0.0059,0.581562 -0.09068,0.907921 -0.345919,1.331576 -1.254099,2.324114 -2.55769,2.795264 -0.269766,0.0975 -0.273024,0.09989 -0.29372,0.215337 -0.01151,0.06421 -0.02171,0.541806 -0.02267,1.061327 l -0.0017,0.944584 h -0.921914 -0.921915 l -0.0017,-0.944584 z"
     id="path4274"
     inkscape:connector-curvature="0" />
  <path
     style="fill:#d40000;stroke:#1a1a1a;stroke-width:0.0302267"
     d="M 9.947607,19.932619 C 9.6593441,19.909095 9.5217896,19.844604 9.3217967,19.639217 9.0708175,19.381468 9.0727989,19.392299 9.061569,18.216645 L 9.051689,17.181905 8.804436,17.02058 C 6.4922973,15.511985 5.500167,12.732744 6.3508743,10.147465 6.5180147,9.6395293 6.7534144,9.1578151 7.0661591,8.6837302 7.2690708,8.3761395 7.4025822,8.2199352 7.814258,7.8084773 8.3923848,7.2306565 8.714985,6.9976574 9.4035264,6.6606227 9.9028086,6.4162286 10.219985,6.3021697 10.690538,6.1978035 c 2.014183,-0.4467348 4.081415,0.1579241 5.533185,1.6184393 0.815942,0.8208576 1.367558,1.8582823 1.620265,3.0472322 0.07471,0.351491 0.08031,0.430521 0.08031,1.133502 0,0.706107 -0.0054,0.780955 -0.08175,1.141237 -0.112699,0.531513 -0.260075,0.960281 -0.501231,1.458259 -0.475035,0.980926 -1.186263,1.78823 -2.126683,2.413964 l -0.260906,0.173601 -0.0094,1.033674 c -0.0092,1.014565 -0.01065,1.036103 -0.07951,1.165141 -0.106887,0.200297 -0.301556,0.39354 -0.494624,0.491 l -0.174049,0.08786 -2.00338,-0.0047 c -1.10186,-0.0026 -2.112197,-0.01356 -2.245195,-0.02441 z m 3.105412,-2.951456 0.0079,-1.076267 0.27204,-0.09775 c 0.607426,-0.218252 1.043828,-0.496978 1.513525,-0.966675 0.47827,-0.478269 0.781038,-0.959652 0.983315,-1.563408 0.146847,-0.43831 0.178223,-0.666452 0.178223,-1.295887 0,-0.608618 -0.02761,-0.811465 -0.167932,-1.233704 C 15.640002,10.145276 15.316797,9.6281933 14.844492,9.1545978 14.265083,8.573604 13.586284,8.2018312 12.804703,8.0374204 12.514827,7.9764431 11.537097,7.9751113 11.222699,8.0352655 10.690723,8.1370493 10.096669,8.3985086 9.6237727,8.7389967 9.3169701,8.9598962 8.8388883,9.4554299 8.6354216,9.7634261 8.3425877,10.206701 8.1159016,10.772309 8.0249387,11.286649 c -0.053455,0.302257 -0.053867,1.163845 -6.867e-4,1.435769 0.2475318,1.265685 1.0406477,2.319713 2.169238,2.882854 0.168485,0.08407 0.40652,0.186588 0.528967,0.227817 l 0.222631,0.07496 0.0079,1.07469 0.0079,1.074689 h 1.042058 1.042057 l 0.0079,-1.076267 z"
     id="path4276"
     inkscape:connector-curvature="0" />
  <path
     style="fill:#d40000;stroke:#1a1a1a;stroke-width:0.0302267"
     d="M 1.0458437,11.996977 V 11.044836 H 2.4967253 3.947607 v 0.952141 0.952141 H 2.4967253 1.0458437 Z"
     id="path4278"
     inkscape:connector-curvature="0" />
  <path
     style="fill:#d40000;stroke:#1a1a1a;stroke-width:0.0302267"
     d="M 4.5897552,5.9590266 C 4.0370774,5.4061641 3.5848866,4.9402039 3.5848866,4.9235595 c 0,-0.016644 0.3046502,-0.3257137 0.6770005,-0.6868207 L 4.9388876,3.5801807 5.9596294,4.6134387 6.9803712,5.6466968 6.3085498,6.3054639 C 5.9390481,6.6677857 5.6272549,6.9642311 5.6156761,6.9642311 c -0.011579,0 -0.4732432,-0.452342 -1.0259209,-1.0052045 z"
     id="path4280"
     inkscape:connector-curvature="0" />
  <path
     style="fill:#d40000;stroke:#1a1a1a;stroke-width:0.0302267"
     d="M 11.050882,2.4906794 V 1.0397978 h 0.952141 0.952141 V 2.4906794 3.941561 h -0.952141 -0.952141 z"
     id="path4282"
     inkscape:connector-curvature="0" />
  <path
     style="fill:#d40000;stroke:#1a1a1a;stroke-width:0.0302267"
     d="M 17.692941,6.3065484 C 17.331496,5.9448229 17.035768,5.6353009 17.035768,5.6187217 c 0,-0.039504 2.001207,-2.0398811 2.040727,-2.0398811 0.03949,0 1.344664,1.3059962 1.344664,1.3455094 0,0.039504 -2.001207,2.0398811 -2.040727,2.0398811 -0.01667,0 -0.326045,-0.2959572 -0.687491,-0.6576827 z"
     id="path4284"
     inkscape:connector-curvature="0" />
  <path
     style="fill:#d40000;stroke:#1a1a1a;stroke-width:0.0302267"
     d="m 20.058438,11.996977 v -0.952141 h 1.450882 1.450882 v 0.952141 0.952141 H 21.50932 20.058438 Z"
     id="path4286"
     inkscape:connector-curvature="0" />
  <path
     style="fill:#d40000;stroke:#1a1a1a;stroke-width:0.0302267"
     d="m 10.809068,22.92835 c -0.278722,-0.05996 -0.528883,-0.25573 -0.67017,-0.52447 -0.06292,-0.119687 -0.06917,-0.177622 -0.07998,-0.741916 l -0.01172,-0.61209 h 1.955459 1.955459 l -0.01088,0.596977 c -0.01049,0.575669 -0.01372,0.602393 -0.0904,0.748709 -0.09362,0.178636 -0.342355,0.421299 -0.501809,0.489556 -0.09536,0.04082 -0.291878,0.04961 -1.276439,0.05712 -0.64005,0.0049 -1.211335,-0.0014 -1.269521,-0.01389 z"
     id="path4288"
     inkscape:connector-curvature="0" />
</svg>
