<?xml version="1.0" encoding="UTF-8" standalone="no"?>
<svg
   xmlns:dc="http://purl.org/dc/elements/1.1/"
   xmlns:cc="http://creativecommons.org/ns#"
   xmlns:rdf="http://www.w3.org/1999/02/22-rdf-syntax-ns#"
   xmlns:svg="http://www.w3.org/2000/svg"
   xmlns="http://www.w3.org/2000/svg"
   xmlns:sodipodi="http://sodipodi.sourceforge.net/DTD/sodipodi-0.dtd"
   xmlns:inkscape="http://www.inkscape.org/namespaces/inkscape"
   version="1.1"
   width="24"
   height="24"
   viewBox="0 0 24 24"
   id="svg4"
   sodipodi:docname="weather-sunset.svg"
   inkscape:version="0.92+devel unknown">
  <metadata
     id="metadata10">
    <rdf:RDF>
      <cc:Work
         rdf:about="">
        <dc:format>image/svg+xml</dc:format>
        <dc:type
           rdf:resource="http://purl.org/dc/dcmitype/StillImage" />
        <dc:title />
      </cc:Work>
    </rdf:RDF>
  </metadata>
  <defs
     id="defs8" />
  <sodipodi:namedview
     pagecolor="#ffffff"
     bordercolor="#666666"
     inkscape:document-rotation="0"
     borderopacity="1"
     objecttolerance="10"
     gridtolerance="10"
     guidetolerance="10"
     inkscape:pageopacity="0"
     inkscape:pageshadow="2"
     inkscape:window-width="1920"
     inkscape:window-height="1031"
     id="namedview6"
     showgrid="false"
     inkscape:zoom="33.083333"
     inkscape:cx="12"
     inkscape:cy="12.090681"
     inkscape:window-x="0"
     inkscape:window-y="24"
     inkscape:window-maximized="1"
     inkscape:current-layer="svg4" />
  <path
     d="M3,12H7A5,5 0 0,1 12,7A5,5 0 0,1 17,12H21A1,1 0 0,1 22,13A1,1 0 0,1 21,14H3A1,1 0 0,1 2,13A1,1 0 0,1 3,12M5,16H19A1,1 0 0,1 20,17A1,1 0 0,1 19,18H5A1,1 0 0,1 4,17A1,1 0 0,1 5,16M17,20A1,1 0 0,1 18,21A1,1 0 0,1 17,22H7A1,1 0 0,1 6,21A1,1 0 0,1 7,20H17M15,12A3,3 0 0,0 12,9A3,3 0 0,0 9,12H15M12,2L14.39,5.42C13.65,5.15 12.84,5 12,5C11.16,5 10.35,5.15 9.61,5.42L12,2M3.34,7L7.5,6.65C6.9,7.16 6.36,7.78 5.94,8.5C5.5,9.24 5.25,10 5.11,10.79L3.34,7M20.65,7L18.88,10.79C18.74,10 18.47,9.23 18.05,8.5C17.63,7.78 17.1,7.15 16.5,6.64L20.65,7Z"
     id="path2" />
  <path
     style="fill:#d40000;stroke:#d40000;stroke-width:0.0302267"
     d="m 9.6906801,5.3467714 c 0,-0.04742 2.3089259,-3.309554 2.3279019,-3.2889436 0.0651,0.070704 2.296048,3.2849733 2.28659,3.2944309 -0.0061,0.00612 -0.172956,-0.035211 -0.370745,-0.091849 C 13.22066,5.0560177 12.913442,5.0167753 12.018136,5.0156323 11.118497,5.0144836 10.775092,5.057523 10.073653,5.2593358 9.6878349,5.370341 9.6906801,5.3696914 9.6906801,5.3467714 Z"
     id="path4269"
     inkscape:connector-curvature="0" />
  <path
     style="fill:#d40000;stroke:#d40000;stroke-width:0.0302267"
     d="M 5.0836643,10.686251 C 4.9910204,10.536351 3.3799277,7.0368966 3.3968986,7.0224283 3.4088563,7.0122339 4.2823678,6.9334024 5.3380353,6.8472471 6.3937028,6.7610918 7.2987271,6.6840876 7.3492002,6.6761265 c 0.081068,-0.012787 0.043967,0.034009 -0.318162,0.401299 -0.9671093,0.9808912 -1.5729759,2.0687262 -1.8547049,3.3301265 -0.038823,0.173825 -0.080332,0.298662 -0.092669,0.278699 z"
     id="path4271"
     inkscape:connector-curvature="0" />
  <path
     style="fill:#d40000;stroke:#d40000;stroke-width:0.0302267"
     d="M 2.6780856,13.926769 C 2.4224051,13.837717 2.2165568,13.645156 2.0960683,13.382323 2.0029749,13.179249 2.0019797,12.81177 2.0939802,12.611315 2.1856654,12.411546 2.3838627,12.208803 2.5831283,12.110946 l 0.1705241,-0.08374 2.1201536,-0.0085 2.1201537,-0.0085 0.017973,-0.06704 c 0.00988,-0.03687 0.018159,-0.150702 0.018386,-0.252955 6.468e-4,-0.291874 0.1109262,-0.864459 0.2419919,-1.256465 0.5671107,-1.6961794 1.9646418,-2.9387268 3.7332324,-3.3192231 0.428404,-0.092167 1.237995,-0.1147783 1.697059,-0.047397 1.069239,0.1569432 1.979765,0.6063044 2.757098,1.3606776 0.910415,0.8835254 1.446751,2.0374785 1.507439,3.2433305 l 0.01707,0.339089 2.134094,0.0085 2.134095,0.0085 0.175442,0.08883 c 0.34607,0.175223 0.548162,0.50508 0.547438,0.893537 -3.08e-4,0.16522 -0.01773,0.265028 -0.06425,0.36803 -0.08548,0.189284 -0.289631,0.405285 -0.476058,0.503693 l -0.152347,0.08042 -9.234257,0.0062 c -8.3168868,0.0056 -9.2477702,0.0015 -9.3702776,-0.04116 z M 15.010579,11.88003 c 0,-0.197482 -0.07886,-0.609782 -0.16488,-0.862004 C 14.687828,10.555114 14.425798,10.155429 14.044161,9.795413 13.676848,9.448908 13.215831,9.1969076 12.724745,9.0741959 12.3366,8.9772066 11.662004,8.9770204 11.279397,9.0737969 10.553345,9.2574446 9.9046909,9.7162846 9.4899485,10.339604 c -0.287578,0.432203 -0.493073,1.05552 -0.4940853,1.498683 l -3.972e-4,0.173804 h 3.007557 3.007556 z"
     id="path4273"
     inkscape:connector-curvature="0" />
  <path
     style="fill:#d40000;stroke:#d40000;stroke-width:0.0302267"
     d="M 18.868443,10.651889 C 18.540406,9.158839 17.891036,7.9642938 16.857374,6.9524382 l -0.30539,-0.2989472 0.158769,0.016094 c 0.08732,0.00885 0.998693,0.088636 2.025267,0.1772985 1.049092,0.090607 1.866499,0.1738109 1.866499,0.1899909 0,0.026064 -1.534728,3.3337706 -1.66329,3.5847876 -0.05339,0.104253 -0.05443,0.104693 -0.07079,0.03023 z"
     id="path4275"
     inkscape:connector-curvature="0" />
  <path
     style="fill:#d40000;stroke:#d40000;stroke-width:0.0302267"
     d="m 4.804345,17.965499 c -0.602,-0.119102 -0.9563868,-0.809295 -0.7000629,-1.363422 0.1466989,-0.317138 0.4008073,-0.509179 0.7532213,-0.569245 0.1368346,-0.02332 2.2615317,-0.03044 7.2664256,-0.02433 6.892943,0.0084 7.076897,0.01011 7.224182,0.06671 0.220094,0.08458 0.502463,0.375344 0.574702,0.591797 0.143585,0.430222 -0.0073,0.894413 -0.370547,1.139961 -0.30112,0.203554 0.233374,0.190359 -7.563151,0.186702 -3.8825268,-0.0018 -7.1156736,-0.0145 -7.18477,-0.02817 z"
     id="path4277"
     inkscape:connector-curvature="0" />
  <path
     style="fill:#d40000;stroke:#d40000;stroke-width:0.0302267"
     d="M 6.7738035,21.958951 C 6.4913165,21.890084 6.2537178,21.695927 6.1203114,21.42494 5.8811951,20.939226 6.0784897,20.376069 6.5818817,20.107437 l 0.1314684,-0.07016 5.2347439,-0.0079 c 5.208391,-0.0079 5.235576,-0.0076 5.399912,0.05391 0.210041,0.07859 0.405549,0.25044 0.520015,0.457099 0.08175,0.147585 0.08966,0.187227 0.08966,0.44903 0,0.242766 -0.01132,0.310155 -0.07324,0.435957 -0.09777,0.198652 -0.273491,0.368856 -0.481485,0.466371 l -0.170719,0.08004 -5.183879,0.0046 c -2.8511338,0.0025 -5.2246854,-0.0053 -5.2745595,-0.01747 z"
     id="path4279"
     inkscape:connector-curvature="0" />
  <path
     style="fill:#d40000;stroke:#1a1a1a;stroke-width:0.0302267"
     d="M 9.034694,11.732493 C 9.0710209,11.228682 9.3010575,10.64018 9.6347776,10.1973 10.592754,8.9259697 12.426397,8.6474112 13.724887,9.5759499 14.14556,9.87677 14.56462,10.403777 14.754274,10.870501 c 0.107843,0.265395 0.226079,0.781918 0.226079,0.987647 v 0.123716 h -2.98182 -2.9818196 z"
     id="path4270"
     inkscape:connector-curvature="0" />
  <path
     style="fill:#d40000;stroke:#d40000;stroke-width:0.0302267"
     d="m 9.0668696,11.716113 c 0.026957,-0.323242 0.117031,-0.630995 0.2893619,-0.988658 0.1648245,-0.342083 0.2853367,-0.519002 0.5195742,-0.7627633 0.4092763,-0.425917 0.9118733,-0.7099402 1.4924563,-0.8434028 0.353405,-0.08124 0.967776,-0.074515 1.328159,0.014537 1.041415,0.257339 1.868893,1.0744951 2.147386,2.1205961 0.04204,0.157934 0.08512,0.378967 0.09572,0.491183 l 0.01928,0.204031 h -2.95579 -2.9557894 z"
     id="path4272"
     inkscape:connector-curvature="0" />
  <path
     style="fill:#d40000;stroke:#d40000;stroke-width:0.0302267"
     d="m 9.0463485,11.80806 c 0.043098,-0.467716 0.1976943,-0.94541 0.4355195,-1.345729 0.3684224,-0.6201464 0.988555,-1.0886668 1.73526,-1.3110183 0.245814,-0.073198 0.320124,-0.081146 0.770781,-0.08245 0.540963,-0.00157 0.666462,0.020516 1.129024,0.1986487 0.622109,0.2395743 1.224214,0.8134706 1.552425,1.4796946 0.117065,0.237624 0.245346,0.69817 0.277008,0.994489 l 0.02243,0.209942 h -2.96784 -2.9678394 z"
     id="path4274"
     inkscape:connector-curvature="0" />
  <path
     style="fill:#d40000;stroke:#d40000;stroke-width:0.0302267"
     d="M 9.0379448,11.939967 C 9.0107589,11.869121 9.0862742,11.410288 9.1674831,11.152888 9.4797513,10.163122 10.20862,9.4436897 11.1933,9.1533005 c 0.326921,-0.096411 0.898952,-0.1304826 1.272841,-0.075813 0.620162,0.09068 1.171644,0.3827095 1.639915,0.868394 0.383546,0.3978105 0.590073,0.7501785 0.734675,1.2534725 0.08051,0.2802 0.150458,0.710296 0.122804,0.755041 -0.01,0.01617 -1.228881,0.02747 -2.963245,0.02747 -2.4833997,0 -2.9487937,-0.0066 -2.9623452,-0.0419 z"
     id="path4276"
     inkscape:connector-curvature="0" />
  <path
     style="fill:#d40000;stroke:#d40000;stroke-width:0.0302267"
     d="m 9.0377753,11.756509 c 0.1111518,-1.226603 0.9867817,-2.2773587 2.1857457,-2.622896 0.204678,-0.058987 0.306472,-0.067898 0.779502,-0.068237 0.475825,-3.406e-4 0.573614,0.00817 0.779501,0.067847 0.831659,0.2410567 1.517048,0.8241165 1.894339,1.61151 0.133234,0.278055 0.254773,0.71277 0.288836,1.033099 l 0.0217,0.20403 h -2.98502 -2.9850208 z"
     id="path4278"
     inkscape:connector-curvature="0" />
  <path
     style="fill:#d40000;stroke:#d40000;stroke-width:0.0302267"
     d="M 2.9461834,13.949005 C 2.6358874,13.932087 2.619134,13.92754 2.4579839,13.81651 2.1638884,13.613882 2.0327663,13.361919 2.0301875,12.994458 c -0.00144,-0.20497 0.011041,-0.267796 0.081906,-0.412338 0.097215,-0.19829 0.2851871,-0.382802 0.5018073,-0.492572 L 2.766756,12.01209 H 4.8796749 6.992594 L 7.011329,11.89874 C 7.021634,11.8364 7.030214,11.716358 7.030397,11.631986 7.0309381,11.383298 7.1457575,10.814157 7.2714184,10.437301 7.7784773,8.9166333 8.9488225,7.7560979 10.481643,7.2539828 c 0.55327,-0.1812377 0.775159,-0.2121991 1.521379,-0.2122869 0.579002,-6.8e-5 0.706025,0.00882 0.982367,0.068732 0.688819,0.1493411 1.332705,0.4255679 1.865675,0.8003743 0.410861,0.2889344 1.008788,0.9031725 1.286406,1.3215003 0.504887,0.7607853 0.777311,1.5538895 0.831462,2.4206265 l 0.0215,0.344048 2.146096,0.01511 2.146096,0.01511 0.131468,0.07016 c 0.358998,0.191577 0.559442,0.518568 0.55918,0.91221 -2.41e-4,0.371391 -0.187044,0.674911 -0.539456,0.876541 l -0.158551,0.09071 -9.003878,-0.0052 c -4.9521317,-0.0028 -9.1484716,-0.01303 -9.3251992,-0.02267 z M 15.010579,11.894522 c 0,-0.159445 -0.07953,-0.57965 -0.155097,-0.81946 -0.196301,-0.62296 -0.656206,-1.2218426 -1.221037,-1.5900184 -0.261111,-0.1702004 -0.663698,-0.3511892 -0.860641,-0.3869132 -0.05819,-0.010555 0.003,0.019425 0.13602,0.066622 0.658514,0.2336853 1.208406,0.6613484 1.580854,1.2294656 0.244342,0.37271 0.437115,0.928716 0.479276,1.382358 l 0.01908,0.205288 H 12.008943 9.028852 l -0.011102,-0.15869 -0.011102,-0.15869 -0.00559,0.173804 -0.00559,0.173803 h 3.007557 3.007556 z M 9.1754723,11.078413 C 9.3314019,10.617139 9.5804968,10.224409 9.9375149,9.8769532 10.203679,9.6179179 10.444121,9.4520826 10.783153,9.2937069 c 0.440396,-0.2057272 0.566575,-0.2287201 1.255153,-0.2287201 0.335275,0 0.606953,-0.00263 0.603731,-0.00584 -0.0032,-0.00321 -0.148974,-0.020399 -0.32389,-0.038191 -0.572731,-0.058258 -1.134444,0.037749 -1.626046,0.2779219 -0.650921,0.3180083 -1.1708975,0.8625253 -1.445566,1.5137893 -0.1129128,0.267726 -0.2223301,0.656398 -0.2180019,0.774386 0.00156,0.04259 0.020573,-0.01098 0.042248,-0.119043 0.021674,-0.10806 0.068785,-0.283378 0.1046914,-0.389596 z"
     id="path4280"
     inkscape:connector-curvature="0" />
  <path
     style="fill:#d40000;stroke:#d40000;stroke-width:0.0302267"
     d="M 2.8141057,13.949546 C 2.5839573,13.926627 2.3840125,13.812066 2.2266046,13.61293 2.0690932,13.413663 2.028963,13.285282 2.0285545,12.979344 c -2.811e-4,-0.210614 0.012374,-0.281445 0.070204,-0.392947 0.093092,-0.179486 0.285778,-0.375483 0.4772126,-0.485409 l 0.1548129,-0.0889 h 2.120695 c 1.6694478,0 2.1234707,-0.008 2.1337393,-0.03778 0.00717,-0.02078 0.027502,-0.199331 0.045173,-0.396777 C 7.089496,10.917125 7.2479017,10.359245 7.5464079,9.7602009 7.7834729,9.2844577 8.0614936,8.898133 8.4513854,8.5026856 8.9556589,7.9912266 9.4704118,7.6459042 10.128967,7.3772782 10.784047,7.11007 11.239469,7.0253708 12.023505,7.0249325 c 0.514093,-2.874e-4 0.79778,0.032756 1.218812,0.1419633 0.949418,0.246261 1.641508,0.6591314 2.36306,1.409698 0.768708,0.7996189 1.243,1.7974422 1.343226,2.8259002 0.01728,0.177343 0.03767,0.378089 0.04531,0.446102 l 0.01389,0.12366 0.729204,0.01992 c 0.401062,0.01095 1.362895,0.02005 2.137407,0.0202 l 1.408204,2.72e-4 0.151751,0.08704 c 0.19069,0.109381 0.391104,0.324842 0.474646,0.510281 0.0489,0.108537 0.06452,0.204119 0.06532,0.399588 8.98e-4,0.220358 -0.01028,0.278439 -0.07857,0.408061 -0.103244,0.195968 -0.219458,0.318884 -0.427054,0.451682 l -0.168069,0.107524 -9.152585,-0.0046 C 7.1141295,13.969681 2.9138538,13.95948 2.8141057,13.949546 Z M 14.694652,10.684924 c -0.0664,-0.128399 -0.08794,-0.118434 -0.02577,0.01192 0.02765,0.05798 0.05563,0.100048 0.06219,0.09349 0.0066,-0.0066 -0.0098,-0.054 -0.03642,-0.105414 z M 9.7360201,10.077581 c 0.03009,-0.03325 0.047909,-0.06045 0.039596,-0.06045 -0.00831,0 -0.039733,0.0272 -0.069823,0.06045 -0.03009,0.03325 -0.047909,0.06045 -0.039596,0.06045 0.00831,0 0.039733,-0.0272 0.069823,-0.06045 z m 4.5491189,-0.0084 c 0,-0.0046 -0.09181,-0.09645 -0.204031,-0.2040298 l -0.20403,-0.1956004 0.1956,0.2040302 c 0.181683,0.189512 0.212461,0.217848 0.212461,0.1956 z M 10.098741,9.7148608 c 0.03009,-0.033249 0.04791,-0.060453 0.0396,-0.060453 -0.0083,0 -0.03973,0.027204 -0.06982,0.060453 -0.03009,0.033249 -0.04791,0.060453 -0.0396,0.060453 0.0083,0 0.03973,-0.027204 0.06982,-0.060453 z M 12.20831,9.0275263 c -0.103213,-0.00588 -0.280039,-0.00593 -0.392947,-9.67e-5 -0.112908,0.00583 -0.02846,0.010646 0.18766,0.010699 0.216121,5.14e-5 0.3085,-0.00472 0.205287,-0.010602 z"
     id="path4282"
     inkscape:connector-curvature="0" />
  <path
     style="fill:#d40000;stroke:#d40000;stroke-width:0.0302267"
     d="M 2.718468,13.945307 C 2.4822654,13.898588 2.240404,13.69574 2.0973143,13.424348 c -0.056322,-0.106824 -0.067436,-0.176885 -0.068196,-0.42989 -8.214e-4,-0.273667 0.00668,-0.315137 0.079317,-0.438287 0.1061892,-0.180044 0.2782077,-0.349278 0.4638562,-0.456349 l 0.1511335,-0.08716 1.6926952,-0.0041 c 0.9309824,-0.0022 1.8898114,-0.01257 2.1307309,-0.02295 l 0.438036,-0.01887 0.036906,-0.391018 C 7.1381837,10.342584 7.6666928,9.2423434 8.5493626,8.3956587 9.098414,7.8689914 9.6776909,7.5187457 10.432045,7.2573407 c 0.55398,-0.1919698 0.729879,-0.2165094 1.555863,-0.2170585 0.833775,-5.543e-4 0.991891,0.021659 1.605193,0.225513 1.468807,0.4882125 2.693469,1.72849 3.164379,3.2047248 0.121225,0.380023 0.176505,0.660947 0.220607,1.121081 l 0.03647,0.380526 1.378363,0.01994 c 0.7581,0.01097 1.722792,0.01996 2.143761,0.01998 l 0.765399,3e-5 0.132193,0.07747 c 0.321381,0.188342 0.52115,0.488772 0.549448,0.826306 0.03244,0.386955 -0.128689,0.704392 -0.474896,0.93558 l -0.187756,0.125385 -9.238369,-0.0033 c -5.0811033,-0.0018 -9.2950084,-0.01451 -9.3642338,-0.02821 z"
     id="path4284"
     inkscape:connector-curvature="0" />
</svg>
