<?xml version="1.0" encoding="UTF-8" standalone="no"?>
<svg
   xmlns:dc="http://purl.org/dc/elements/1.1/"
   xmlns:cc="http://creativecommons.org/ns#"
   xmlns:rdf="http://www.w3.org/1999/02/22-rdf-syntax-ns#"
   xmlns:svg="http://www.w3.org/2000/svg"
   xmlns="http://www.w3.org/2000/svg"
   xmlns:sodipodi="http://sodipodi.sourceforge.net/DTD/sodipodi-0.dtd"
   xmlns:inkscape="http://www.inkscape.org/namespaces/inkscape"
   version="1.1"
   width="24"
   height="24"
   viewBox="0 0 24 24"
   id="svg4"
   sodipodi:docname="weather-sunset.svg"
   inkscape:version="0.92+devel unknown">
  <metadata
     id="metadata10">
    <rdf:RDF>
      <cc:Work
         rdf:about="">
        <dc:format>image/svg+xml</dc:format>
        <dc:type
           rdf:resource="http://purl.org/dc/dcmitype/StillImage" />
        <dc:title />
      </cc:Work>
    </rdf:RDF>
  </metadata>
  <defs
     id="defs8" />
  <sodipodi:namedview
     pagecolor="#ffffff"
     bordercolor="#666666"
     inkscape:document-rotation="0"
     borderopacity="1"
     objecttolerance="10"
     gridtolerance="10"
     guidetolerance="10"
     inkscape:pageopacity="0"
     inkscape:pageshadow="2"
     inkscape:window-width="1920"
     inkscape:window-height="1031"
     id="namedview6"
     showgrid="false"
     inkscape:zoom="33.083333"
     inkscape:cx="12"
     inkscape:cy="12.090681"
     inkscape:window-x="0"
     inkscape:window-y="24"
     inkscape:window-maximized="1"
     inkscape:current-layer="svg4" />
  <path
     d="m 1.1997115,12 h 4.8 a 6,6 0 0 1 6.0000005,-6 6,6 0 0 1 6,6 h 4.8 a 1.2,1.2 0 0 1 1.2,1.2 1.2,1.2 0 0 1 -1.2,1.2 H 1.1997115 A 1.2,1.2 0 0 1 -2.8848096e-4,13.2 1.2,1.2 0 0 1 1.1997115,12 m 2.4,4.8 H 20.399712 a 1.2,1.2 0 0 1 1.2,1.2 1.2,1.2 0 0 1 -1.2,1.2 H 3.5997115 a 1.2,1.2 0 0 1 -1.2,-1.2 1.2,1.2 0 0 1 1.2,-1.2 m 14.4000005,4.8 a 1.2,1.2 0 0 1 1.2,1.2 1.2,1.2 0 0 1 -1.2,1.2 H 5.9997115 a 1.2,1.2 0 0 1 -1.2,-1.2 1.2,1.2 0 0 1 1.2,-1.2 H 17.999712 m -2.4,-9.6 a 3.6,3.6 0 0 0 -3.6,-3.6 3.6,3.6 0 0 0 -3.6000005,3.6 h 7.2000005 m -3.6,-12 2.868,4.104 c -0.888,-0.324 -1.86,-0.504 -2.868,-0.504 -1.008,0 -1.98,0.18 -2.8680005,0.504 L 11.999712,0 m -10.3920005,6 4.992,-0.42 c -0.72,0.612 -1.368,1.356 -1.872,2.22 -0.528,0.888 -0.828,1.8 -0.996,2.748 L 1.6077115,6 m 20.7720005,0 -2.124,4.548 c -0.168,-0.948 -0.492,-1.872 -0.996,-2.748 -0.504,-0.864 -1.14,-1.62 -1.86,-2.232 z"
     id="path2"
     inkscape:connector-curvature="0"
     style="stroke-width:1.20000005" />
  <path
     style="fill:#d40000;stroke:#d40000;stroke-width:0.03627204"
     d="m 9.2285276,4.0161257 c 0,-0.056904 2.7707114,-3.97146482 2.7934824,-3.94673234 0.07812,0.0848448 2.755258,3.94196794 2.743908,3.95331704 -0.0073,0.00734 -0.207547,-0.042253 -0.444894,-0.1102188 C 13.464504,3.6672212 13.095842,3.6201304 12.021475,3.6187588 10.941908,3.6173803 10.529822,3.6690276 9.6880951,3.911203 9.2251134,4.0444092 9.2285276,4.0436297 9.2285276,4.0161257 Z"
     id="path4269"
     inkscape:connector-curvature="0" />
  <path
     style="fill:#d40000;stroke:#d40000;stroke-width:0.03627204"
     d="M 3.7001087,10.423501 C 3.588936,10.243621 1.6556248,6.0442759 1.6759898,6.026914 1.6903391,6.0146807 2.7385529,5.9200829 4.0053539,5.8166965 5.2721549,5.7133102 6.358184,5.6209051 6.4187518,5.6113518 6.5160334,5.5960074 6.4715122,5.6521626 6.0369574,6.0929106 4.8764262,7.26998 4.1493863,8.575382 3.8113115,10.089062 c -0.046588,0.20859 -0.096398,0.358395 -0.1112028,0.334439 z"
     id="path4271"
     inkscape:connector-curvature="0" />
  <path
     style="fill:#d40000;stroke:#d40000;stroke-width:0.03627204"
     d="M 0.81341424,14.312123 C 0.50659764,14.20526 0.25957968,13.974187 0.11499348,13.658788 0.0032814,13.415099 0.00208716,12.974124 0.11248776,12.733578 0.22251,12.493855 0.46034676,12.250564 0.69946548,12.133135 l 0.20462892,-0.100488 2.5441843,-0.0102 2.5441845,-0.0102 0.021568,-0.08045 c 0.011856,-0.04424 0.021791,-0.180842 0.022063,-0.303546 7.761e-4,-0.350249 0.1331114,-1.037351 0.2903902,-1.507758 0.6805329,-2.0354151 2.3575702,-3.526472 4.4798786,-3.9830675 0.514085,-0.1106004 1.485594,-0.137734 2.036471,-0.056876 1.283087,0.1883318 2.375718,0.7275653 3.308518,1.6328131 1.092498,1.0602305 1.736101,2.4449734 1.808926,3.8919964 l 0.02048,0.406907 2.560913,0.0102 2.560914,0.0102 0.210531,0.106596 c 0.415284,0.210267 0.657794,0.606096 0.656925,1.072244 -3.69e-4,0.198264 -0.02128,0.318034 -0.0771,0.441636 -0.102576,0.227141 -0.347557,0.486342 -0.571269,0.604432 l -0.182817,0.0965 -11.081108,0.0074 C 2.0774866,14.36824 0.96042648,14.36332 0.8134176,14.312128 Z M 15.612406,11.856036 c 0,-0.236978 -0.09463,-0.731738 -0.197856,-1.034405 C 15.225105,10.266137 14.910669,9.7865148 14.452705,9.3544956 14.011929,8.9386896 13.458709,8.6362891 12.869406,8.4890351 12.403632,8.3726479 11.594116,8.3724245 11.134988,8.4885563 10.263726,8.7089335 9.4853406,9.2595415 8.9876497,10.007525 8.6425561,10.526168 8.3959621,11.274149 8.3947474,11.805944 l -4.767e-4,0.208565 h 3.6090683 3.609067 z"
     id="path4273"
     inkscape:connector-curvature="0" />
  <path
     style="fill:#d40000;stroke:#d40000;stroke-width:0.03627204"
     d="M 20.241843,10.382267 C 19.848199,8.5906068 19.068955,7.1571526 17.82856,5.9429258 l -0.366468,-0.3587366 0.190523,0.019313 c 0.104784,0.01062 1.198432,0.1063632 2.430321,0.2127582 1.25891,0.1087284 2.239798,0.2085731 2.239798,0.2279891 0,0.031277 -1.841673,4.0005245 -1.995948,4.3017445 -0.06407,0.125104 -0.06532,0.125632 -0.08495,0.03628 z"
     id="path4275"
     inkscape:connector-curvature="0" />
  <path
     style="fill:#d40000;stroke:#d40000;stroke-width:0.03627204"
     d="m 3.3649255,19.158599 c -0.7224,-0.142923 -1.1476641,-0.971154 -0.8400755,-1.636107 0.1760387,-0.380565 0.4809688,-0.611014 0.9038656,-0.683094 0.1642015,-0.02798 2.713838,-0.03653 8.7197104,-0.0292 8.271532,0.01008 8.492277,0.01213 8.669019,0.08005 0.264113,0.101496 0.602955,0.450413 0.689642,0.710157 0.172302,0.516266 -0.0088,1.073295 -0.444656,1.367953 C 20.701087,19.212623 21.34248,19.196789 11.98665,19.1924 7.3276174,19.1902 3.4478412,19.175 3.3649255,19.1586 Z"
     id="path4277"
     inkscape:connector-curvature="0" />
  <path
     style="fill:#d40000;stroke:#d40000;stroke-width:0.03627204"
     d="M 5.7282757,23.950741 C 5.3892913,23.868101 5.1041729,23.635112 4.9440852,23.309928 4.6571456,22.727071 4.8938992,22.051283 5.4979696,21.728924 l 0.157762,-0.08419 6.2816924,-0.0095 c 6.25007,-0.0095 6.282692,-0.0091 6.479895,0.06469 0.252049,0.09431 0.486659,0.300528 0.624018,0.548519 0.0981,0.177102 0.107592,0.224673 0.107592,0.538836 0,0.291319 -0.01358,0.372186 -0.08789,0.523149 -0.117324,0.238382 -0.328189,0.442627 -0.577782,0.559645 l -0.204863,0.09605 -6.220655,0.0055 c -3.4213604,0.003 -6.2696224,-0.0064 -6.3294713,-0.02096 z"
     id="path4279"
     inkscape:connector-curvature="0" />
  <path
     style="fill:#d40000;stroke:#1a1a1a;stroke-width:0.03627204"
     d="M 8.4413443,11.678992 C 8.4849366,11.074418 8.7609805,10.368216 9.1614446,9.83676 10.311016,8.3111636 12.511388,7.9768934 14.069576,9.0911399 c 0.504808,0.3609841 1.00768,0.9933921 1.235264,1.5534611 0.129412,0.318474 0.271295,0.938302 0.271295,1.185177 v 0.148459 H 11.997951 8.4197676 Z"
     id="path4270"
     inkscape:connector-curvature="0" />
  <path
     style="fill:#d40000;stroke:#d40000;stroke-width:0.03627204"
     d="M 8.479955,11.659336 C 8.512303,11.271445 8.6203922,10.902142 8.8271893,10.472946 9.0249787,10.062446 9.1695934,9.8501436 9.4506784,9.55763 9.9418099,9.0465296 10.544926,8.7057018 11.241626,8.5455467 c 0.424086,-0.097488 1.161331,-0.089418 1.593791,0.017444 1.249698,0.3088068 2.242671,1.2893941 2.576863,2.5447153 0.05045,0.189521 0.102144,0.454761 0.114864,0.58942 l 0.02314,0.244837 H 12.003332 8.4563846 Z"
     id="path4272"
     inkscape:connector-curvature="0" />
  <path
     style="fill:#d40000;stroke:#d40000;stroke-width:0.03627204"
     d="M 8.4553297,11.769672 C 8.5070473,11.208413 8.6925629,10.63518 8.9779531,10.154797 9.42006,9.4106215 10.164219,8.848397 11.060265,8.5815752 c 0.294977,-0.087838 0.384149,-0.097375 0.924937,-0.09894 0.649156,-0.00188 0.799755,0.024619 1.354829,0.2383785 0.746531,0.2874891 1.469057,0.9761647 1.86291,1.7756333 0.140478,0.285149 0.294415,0.837804 0.33241,1.193387 l 0.02692,0.25193 H 12.000859 8.4394514 Z"
     id="path4274"
     inkscape:connector-curvature="0" />
  <path
     style="fill:#d40000;stroke:#d40000;stroke-width:0.03627204"
     d="m 8.4452453,11.92796 c -0.032623,-0.08502 0.057995,-0.635614 0.1554459,-0.944494 0.3747219,-1.1877196 1.2493643,-2.0510384 2.4309808,-2.3995054 0.392305,-0.1156932 1.078742,-0.1565791 1.527409,-0.090976 0.744194,0.108816 1.405973,0.4592514 1.967898,1.0420728 0.460255,0.4773726 0.708087,0.9002146 0.88161,1.5041676 0.09661,0.33624 0.180549,0.852355 0.147365,0.906049 -0.012,0.0194 -1.474658,0.03296 -3.555894,0.03296 -2.9800801,0 -3.5385529,-0.0079 -3.5548147,-0.05028 z"
     id="path4276"
     inkscape:connector-curvature="0" />
  <path
     style="fill:#d40000;stroke:#d40000;stroke-width:0.03627204"
     d="m 8.4450419,11.707811 c 0.1333821,-1.471924 1.184138,-2.7328306 2.6228951,-3.1474754 0.245613,-0.070784 0.367766,-0.081478 0.935402,-0.081884 0.57099,-4.087e-4 0.688337,0.0098 0.935401,0.081416 0.997991,0.289268 1.820458,0.9889398 2.273207,1.9338124 0.159881,0.333666 0.305728,0.855324 0.346603,1.239718 l 0.02604,0.244836 H 12.002566 8.4205414 Z"
     id="path4278"
     inkscape:connector-curvature="0" />
  <path
     style="fill:#d40000;stroke:#d40000;stroke-width:0.03627204"
     d="M 1.1351316,14.338806 C 0.7627764,14.318504 0.74267232,14.313048 0.5492922,14.179812 0.1963776,13.936658 0.03903108,13.634303 0.03593652,13.19335 c -0.001728,-0.245964 0.0132492,-0.321356 0.0982872,-0.494806 0.116658,-0.237948 0.34222452,-0.459362 0.60216876,-0.591086 l 0.18342624,-0.09295 H 3.4553214 5.9908243 l 0.022482,-0.13602 c 0.012366,-0.07481 0.022662,-0.218858 0.022882,-0.320105 6.493e-4,-0.298425 0.1384326,-0.981395 0.2892257,-1.433622 0.6084707,-1.824801 2.0128849,-3.2174435 3.852269,-3.8199816 0.663924,-0.2174853 0.930191,-0.254639 1.825655,-0.2547443 0.694802,-8.16e-5 0.84723,0.010584 1.17884,0.082478 0.826583,0.1792093 1.599246,0.5106815 2.23881,0.9604491 0.493034,0.3467213 1.210546,1.083807 1.543688,1.5858004 0.605864,0.9129424 0.932773,1.8646674 0.997754,2.9047524 l 0.0258,0.412857 2.575315,0.01813 2.575315,0.01813 0.157762,0.08419 c 0.430798,0.229893 0.67133,0.622282 0.671016,1.094652 -2.89e-4,0.44567 -0.224453,0.809894 -0.647347,1.05185 l -0.190261,0.108852 -10.804654,-0.0062 C 6.3828179,14.362582 1.34721,14.350306 1.1351369,14.338738 Z m 14.4772744,-2.46538 c 0,-0.191334 -0.09544,-0.69558 -0.186116,-0.983352 -0.235561,-0.747552 -0.787447,-1.4662107 -1.465244,-1.9080217 -0.313334,-0.2042405 -0.796438,-0.421427 -1.03277,-0.4642958 -0.06983,-0.012666 0.0036,0.02331 0.163224,0.079946 0.790217,0.2804223 1.450088,0.7936181 1.897025,1.4753595 0.293211,0.447252 0.524538,1.114459 0.575131,1.658829 l 0.0229,0.246346 H 12.010443 8.4343339 l -0.013322,-0.190428 -0.013322,-0.190428 -0.00671,0.208565 -0.00671,0.208563 h 3.6090691 3.609067 z M 8.6102783,10.894096 C 8.7973938,10.340567 9.0963077,9.8692908 9.5247294,9.4523438 9.8441263,9.1415015 10.132657,8.9424991 10.539495,8.7524483 c 0.528475,-0.2468727 0.67989,-0.2744641 1.506184,-0.2744641 0.40233,0 0.728343,-0.00316 0.724477,-0.00701 -0.0038,-0.00385 -0.178769,-0.024479 -0.388668,-0.045829 -0.687277,-0.06991 -1.361333,0.045299 -1.951255,0.3335062 -0.7811055,0.38161 -1.4050773,1.0350304 -1.7346795,1.8165466 -0.1354953,0.321272 -0.2667961,0.787678 -0.2616023,0.929264 0.00187,0.05111 0.024688,-0.01318 0.050698,-0.142852 0.026009,-0.129672 0.082542,-0.340054 0.1256291,-0.467514 z"
     id="path4280"
     inkscape:connector-curvature="0" />
  <path
     style="fill:#d40000;stroke:#d40000;stroke-width:0.03627204"
     d="M 0.97663836,14.339455 C 0.70046028,14.311952 0.46052652,14.174479 0.27163704,13.935516 0.08262336,13.696396 0.03446712,13.542338 0.03397692,13.175213 c -3.3732e-4,-0.252737 0.0148488,-0.337734 0.0842448,-0.471537 0.1117104,-0.215383 0.3429336,-0.450579 0.57265512,-0.58249 l 0.18577548,-0.10668 H 3.4214863 c 2.0033374,0 2.5481649,-0.0096 2.5604872,-0.04534 0.0086,-0.02494 0.033002,-0.239198 0.054208,-0.476133 C 6.1071067,10.70055 6.2971936,10.031094 6.655401,9.3122411 6.939879,8.7413492 7.2735038,8.2777596 7.741374,7.8032227 8.3465022,7.1894719 8.9642057,6.775085 9.7544719,6.4527338 10.540568,6.132084 11.087074,6.030445 12.027918,6.029919 c 0.616911,-3.449e-4 0.957336,0.039307 1.462574,0.170356 1.139302,0.2955132 1.96981,0.7909576 2.835672,1.6916376 0.92245,0.9595426 1.4916,2.1569304 1.611871,3.3910804 0.02074,0.212811 0.0452,0.453707 0.05437,0.535322 l 0.01667,0.148392 0.875045,0.0239 c 0.481274,0.01314 1.635474,0.02406 2.564888,0.02424 l 1.689845,3.27e-4 0.182101,0.104448 c 0.228828,0.131257 0.469325,0.38981 0.569576,0.612337 0.05868,0.130244 0.07742,0.244943 0.07838,0.479505 0.0011,0.26443 -0.01234,0.334127 -0.09428,0.489674 -0.123893,0.235161 -0.26335,0.38266 -0.512465,0.542018 l -0.201683,0.129029 -10.983102,-0.0055 C 6.1366669,14.363617 1.0963361,14.351376 0.97663836,14.339455 Z M 15.233294,10.421909 c -0.07968,-0.154079 -0.105528,-0.142121 -0.03092,0.0143 0.03318,0.06958 0.06676,0.120057 0.07463,0.112188 0.0079,-0.0079 -0.01176,-0.0648 -0.0437,-0.126497 z M 9.2829356,9.6930972 c 0.036108,-0.0399 0.057491,-0.07254 0.047515,-0.07254 -0.00997,0 -0.04768,0.03264 -0.083788,0.07254 -0.036108,0.0399 -0.057491,0.07254 -0.047515,0.07254 0.00997,0 0.04768,-0.03264 0.083788,-0.07254 z m 5.4589424,-0.01008 c 0,-0.00552 -0.110172,-0.11574 -0.244837,-0.2448358 l -0.244836,-0.2347204 0.23472,0.2448362 c 0.21802,0.2274144 0.254953,0.2614176 0.254953,0.23472 z M 9.7182007,9.257833 c 0.036108,-0.039899 0.057492,-0.072544 0.04752,-0.072544 -0.00996,0 -0.047676,0.032645 -0.083784,0.072544 -0.036108,0.039899 -0.057492,0.072544 -0.04752,0.072544 0.00996,0 0.047676,-0.032645 0.083784,-0.072544 z M 12.249684,8.4330316 c -0.123856,-0.00706 -0.336047,-0.00712 -0.471537,-1.161e-4 -0.135489,0.007 -0.03415,0.012775 0.225192,0.012839 0.259345,6.17e-5 0.3702,-0.00566 0.246345,-0.012723 z"
     id="path4282"
     inkscape:connector-curvature="0" />
  <path
     style="fill:#d40000;stroke:#d40000;stroke-width:0.03627204"
     d="M 0.86187312,14.334368 C 0.57843,14.278306 0.28819632,14.034888 0.11648868,13.709218 0.04890228,13.581029 0.03556548,13.496956 0.03465348,13.19335 c -9.8568e-4,-0.328401 0.008016,-0.378165 0.0951804,-0.525945 0.12742704,-0.216053 0.33384924,-0.419133 0.55662744,-0.547619 l 0.1813602,-0.104592 2.03123428,-0.0049 c 1.1171788,-0.0026 2.2677736,-0.01508 2.556877,-0.02754 L 5.981576,11.96009 6.0258632,11.490869 C 6.165532,10.011101 6.7997429,8.6908121 7.8589466,7.6747904 8.5178083,7.0427897 9.2129406,6.6224948 10.118166,6.3088088 10.782942,6.0784451 10.99402,6.0489976 11.985201,6.0483386 c 1.00053,-6.651e-4 1.190269,0.025991 1.926232,0.2706156 1.762568,0.585855 3.232163,2.074188 3.797255,3.8456698 0.14547,0.456028 0.211806,0.793136 0.264728,1.345297 l 0.04376,0.456631 1.654036,0.02393 c 0.90972,0.01316 2.06735,0.02395 2.572513,0.02398 l 0.918479,3.6e-5 0.158631,0.09296 c 0.385657,0.226011 0.62538,0.586527 0.659338,0.991568 0.03893,0.464346 -0.154427,0.84527 -0.569875,1.122696 l -0.225308,0.150462 -11.086042,-0.004 C 6.0016276,14.366062 0.94494144,14.35081 0.86187096,14.33437 Z"
     id="path4284"
     inkscape:connector-curvature="0" />
</svg>
