<?xml version="1.0" encoding="UTF-8"?>
<!-- Created with Inkscape (http://www.inkscape.org/) -->
<svg width="48" height="48" version="1.1" viewBox="0 0 48 48" xmlns="http://www.w3.org/2000/svg">
 <defs>
  <linearGradient id="linearGradient840" x2="0" y1="48" y2="4.8941e-7" gradientTransform="matrix(-1,0,0,1,48,0)" gradientUnits="userSpaceOnUse">
   <stop stop-color="#372318" offset="0"/>
   <stop stop-color="#843f18" offset="1"/>
  </linearGradient>
  <filter id="filter4827" color-interpolation-filters="sRGB">
   <feFlood flood-color="rgb(0,0,0)" result="flood"/>
   <feComposite in="flood" in2="SourceGraphic" operator="out" result="composite1"/>
   <feGaussianBlur in="composite1" result="blur" stdDeviation="1"/>
   <feOffset dx="1" dy="1" result="offset"/>
   <feComposite in="offset" in2="SourceGraphic" operator="in" result="composite2"/>
  </filter>
 </defs>
 <rect x="8" y="8" width="32" height="32" rx=".9697" ry=".92419" color="#000000" color-rendering="auto" fill="#fbe9e7" image-rendering="auto" shape-rendering="auto" solid-color="#000000" style="isolation:auto;mix-blend-mode:normal"/>
 <path d="m40 0c4.432 0 8 3.568 8 8v32c0 4.432-3.568 8-8 8h-32c-4.432 0-8-3.568-8-8v-32c0-4.432 3.568-8 8-8zm-16 9.25c-1.245 0-2.25 1.005-2.25 2.25v1.0195c-4.305 1.02-6.75 4.8755-6.75 9.4805v7.5l-3 3v1.5h9c0 1.65 1.35 3 3 3s3-1.35 3-3h9v-1.5l-3-3v-7.5c0-4.62-2.46-8.4605-6.75-9.4805v-1.0195c0-1.245-1.005-2.25-2.25-2.25zm0 6c3.735 0 6 3.03 6 6.75v9h-12v-9c0-3.72 2.265-6.75 6-6.75z" fill="url(#linearGradient840)" style="isolation:auto;mix-blend-mode:normal"/>
 <rect x=".5" y=".5" width="47" height="47" rx="7.5" ry="7.5" color="#000000" color-rendering="auto" fill="none" image-rendering="auto" opacity=".4" shape-rendering="auto" solid-color="#000000" stroke="#000000" style="isolation:auto;mix-blend-mode:normal"/>
 <rect x="1.5" y="1.5" width="45" height="45" rx="6.5" ry="6.5" color="#000000" color-rendering="auto" fill="none" image-rendering="auto" opacity=".15" shape-rendering="auto" solid-color="#000000" stroke="#f8f8f8" stroke-opacity=".95833" style="isolation:auto;mix-blend-mode:normal"/>
 <path d="m24 8.25c-1.7832 0-3.25 1.4668-3.25 3.25v0.38867c-4.239 1.4191-6.75 5.4373-6.75 10.111v7.0859l-3 3v2.9141h9.2031c0.45715 1.7051 1.9553 3 3.7969 3s3.3397-1.2949 3.7969-3h9.2031v-2.9141l-3-3v-7.0859c0-4.6595-2.498-8.691-6.75-10.111v-0.38867c0-1.7832-1.4668-3.25-3.25-3.25zm0 1c1.245 0 2.25 1.005 2.25 2.25v1.0195c4.305 1.02 6.75 4.8755 6.75 9.4805v7.5l3 3v1.5h-9c0 1.65-1.35 3-3 3s-3-1.35-3-3h-9v-1.5l3-3v-7.5c0-4.62 2.46-8.4605 6.75-9.4805v-1.0195c0-1.245 1.005-2.25 2.25-2.25zm0 6c-3.735 0-6 3.03-6 6.75v9h12v-9c0-3.72-2.265-6.75-6-6.75zm0 1c1.5971 0 2.7802 0.61143 3.6367 1.625 0.85656 1.0136 1.3633 2.468 1.3633 4.125v8h-10v-8c0-1.657 0.50672-3.1114 1.3633-4.125 0.85656-1.0136 2.0396-1.625 3.6367-1.625z" color="#000000" color-rendering="auto" dominant-baseline="auto" fill="#000000" image-rendering="auto" opacity=".4" shape-rendering="auto" solid-color="#000000" style="font-feature-settings:normal;font-variant-alternates:normal;font-variant-caps:normal;font-variant-ligatures:normal;font-variant-numeric:normal;font-variant-position:normal;isolation:auto;mix-blend-mode:normal;shape-padding:0;text-decoration-color:#000000;text-decoration-line:none;text-decoration-style:solid;text-indent:0;text-orientation:mixed;text-transform:none;white-space:normal"/>
 <path d="m24 9.25c-1.245 0-2.25 1.005-2.25 2.25v1.0195c-4.29 1.02-6.75 4.8605-6.75 9.4805v7.5l-3 3v1.5h9c0 1.65 1.35 3 3 3s3-1.35 3-3h9v-1.5l-3-3v-7.5c0-4.605-2.445-8.4605-6.75-9.4805v-1.0195c0-1.245-1.005-2.25-2.25-2.25zm0 6c3.735 0 6 3.03 6 6.75v9h-12v-9c0-3.72 2.265-6.75 6-6.75z" fill="#000000" filter="url(#filter4827)" opacity=".25" stroke-width="1.5"/>
</svg>
