<?xml version="1.0" encoding="UTF-8"?>
<!-- Created with Inkscape (http://www.inkscape.org/) -->
<svg width="48" height="48" version="1.1" viewBox="0 0 48 48" xmlns="http://www.w3.org/2000/svg">
 <defs>
  <linearGradient id="linearGradient840" x1="-1" x2="-1" y1="48" gradientUnits="userSpaceOnUse">
   <stop stop-color="#ff7f2a" offset="0"/>
   <stop stop-color="#ffd42a" offset="1"/>
  </linearGradient>
  <linearGradient id="linearGradient918" x1="14.108" x2="28.358" y1="13.57" y2="31.82" gradientUnits="userSpaceOnUse">
   <stop stop-color="#808080" stop-opacity=".95" offset="0"/>
   <stop stop-color="#1a1a1a" stop-opacity=".9" offset="1"/>
  </linearGradient>
 </defs>
 <path d="m24 4.8941e-7c19 0 24 5 24 24s-5 24-24 24-24-5-24-24 5-24 24-24z" fill="url(#linearGradient840)"/>
 <path d="m24 1c-9.4123 0-15.102 1.2659-18.418 4.582-3.3161 3.3161-4.582 9.0057-4.582 18.418s1.2659 15.102 4.582 18.418c3.3161 3.3161 9.0057 4.582 18.418 4.582s15.102-1.2659 18.418-4.582 4.582-9.0057 4.582-18.418-1.2659-15.102-4.582-18.418c-3.3161-3.3161-9.0057-4.582-18.418-4.582zm0 1c9.3246 0 14.704 1.2818 17.711 4.2891 3.0073 3.0073 4.2891 8.3864 4.2891 17.711s-1.2818 14.704-4.2891 17.711c-3.0073 3.0073-8.3864 4.2891-17.711 4.2891s-14.704-1.2818-17.711-4.2891c-3.0073-3.0073-4.2891-8.3864-4.2891-17.711s1.2818-14.704 4.2891-17.711 8.3864-4.2891 17.711-4.2891z" fill="#ffffff" opacity=".3"/>
 <path d="m24 0c-19 0-24 5-24 24s5 24 24 24 24-5 24-24-5-24-24-24zm0 1c9.4123 0 15.102 1.2659 18.418 4.582 3.3161 3.3161 4.582 9.0057 4.582 18.418s-1.2659 15.102-4.582 18.418-9.0057 4.582-18.418 4.582-15.102-1.2659-18.418-4.582c-3.3161-3.3161-4.582-9.0057-4.582-18.418s1.2659-15.102 4.582-18.418c3.3161-3.3161 9.0057-4.582 18.418-4.582z" fill="#020603" opacity=".25"/>
 <path d="m30.472 12.791c-1.0058-0.58069-2.2864-0.23754-2.8671 0.76824l-0.47621 0.82482c-3.9536-1.1839-7.7193 0.77707-9.8742 4.5094l-3.4981 6.0589-3.8228 1.0243-0.69962 1.2118 9.6943 5.597c-0.76958 1.333-0.32076 3.0462 1.0243 3.8228 1.333 0.76959 3.0532 0.30864 3.8228-1.0243l4.8471 2.7985 0.69962-1.2118-1.0243-3.8228 3.4981-6.0589c2.1478-3.7202 1.9581-7.981-1.0319-10.806l0.47621-0.82482c0.58068-1.0058 0.23754-2.2864-0.76824-2.8671z" fill="url(#linearGradient918)" stroke-width="1.3992"/>
 <path d="m29.209 11.521c-0.19879 0.014277-0.39587 0.048158-0.58789 0.09961-0.76808 0.20581-1.4579 0.70158-1.8828 1.4375l-0.16016 0.27734c-4.1054-0.81323-8.0081 1.2784-10.189 5.0566l-3.291 5.7012-3.8242 1.0234-1.4062 2.4375 9.8711 5.6992c-0.40608 1.6028 0.20811 3.3519 1.7129 4.2207 1.499 0.86547 3.3261 0.52842 4.5137-0.62695l5.0234 2.9004 1.4062-2.4355-1.0234-3.8242 3.291-5.6992c2.1765-3.7698 2.0328-8.2071-0.7168-11.354l0.16016-0.27734c0.84976-1.4718 0.33707-3.3827-1.1348-4.2324-0.55194-0.31866-1.1654-0.44713-1.7617-0.4043zm0.066407 0.99219c0.40307-0.028297 0.81814 0.059586 1.1953 0.27734 1.0058 0.58068 1.3502 1.8614 0.76953 2.8672l-0.47656 0.82422c2.99 2.8249 3.1791 7.0865 1.0312 10.807l-3.498 6.0586 1.0254 3.8223-0.70117 1.2129-4.8457-2.7988c-0.76959 1.333-2.4913 1.793-3.8242 1.0234-1.3451-0.77658-1.793-2.4893-1.0234-3.8223l-9.6934-5.5977 0.69922-1.2109 3.8223-1.0234 3.498-6.0605c2.1548-3.7323 5.9214-5.6917 9.875-4.5078l0.47461-0.82617c0.36293-0.62861 1.0001-0.99776 1.6719-1.0449z" color="#000000" color-rendering="auto" dominant-baseline="auto" fill="#ffffff" image-rendering="auto" opacity=".2" shape-rendering="auto" solid-color="#000000" style="font-feature-settings:normal;font-variant-alternates:normal;font-variant-caps:normal;font-variant-ligatures:normal;font-variant-numeric:normal;font-variant-position:normal;isolation:auto;mix-blend-mode:normal;shape-padding:0;text-decoration-color:#000000;text-decoration-line:none;text-decoration-style:solid;text-indent:0;text-orientation:mixed;text-transform:none;white-space:normal"/>
 <path d="m29.275 12.514c-0.67178 0.047161-1.3089 0.41631-1.6719 1.0449l-0.47461 0.82617c-3.9536-1.1839-7.7202 0.77552-9.875 4.5078l-3.498 6.0605-3.8223 1.0234-0.69922 1.2109 9.6934 5.5977c-0.76958 1.333-0.32164 3.0457 1.0234 3.8223 1.333 0.76959 3.0546 0.30952 3.8242-1.0234l4.8457 2.7988 0.70117-1.2129-1.0254-3.8223 3.498-6.0586c2.1478-3.7202 1.9587-7.9817-1.0312-10.807l0.47656-0.82422c0.58068-1.0058 0.23625-2.2865-0.76953-2.8672-0.37717-0.21776-0.79225-0.30564-1.1953-0.27734zm0.27734 0.99805c0.14164 0.018826 0.28304 0.066627 0.41797 0.14453 0.53972 0.31161 0.71395 0.96223 0.40234 1.502l-0.87109 1.5098 0.57422 0.54102c2.6404 2.4947 2.8233 6.1683 0.85352 9.5801l-3.7051 6.418 1.0176 3.8008-4.834-2.7891-0.5 0.86523c-0.49686 0.86058-1.5964 1.1551-2.457 0.6582-0.87696-0.50631-1.1581-1.5912-0.6582-2.457l0.5-0.86523-9.6797-5.5898 3.8008-1.0195 3.7051-6.418c1.9784-3.4267 5.227-5.0976 8.7227-4.0508l0.75781 0.22656 0.87109-1.5098c0.15581-0.26986 0.39521-0.44749 0.66406-0.51953 0.13443-0.03602 0.27632-0.046169 0.41797-0.027343z" color="#000000" color-rendering="auto" dominant-baseline="auto" fill="#131313" image-rendering="auto" opacity=".4" shape-rendering="auto" solid-color="#000000" style="font-feature-settings:normal;font-variant-alternates:normal;font-variant-caps:normal;font-variant-ligatures:normal;font-variant-numeric:normal;font-variant-position:normal;isolation:auto;mix-blend-mode:normal;shape-padding:0;text-decoration-color:#000000;text-decoration-line:none;text-decoration-style:solid;text-indent:0;text-orientation:mixed;text-transform:none;white-space:normal"/>
</svg>
