<?xml version="1.0" encoding="UTF-8" standalone="no"?>
<!-- Created with Inkscape (http://www.inkscape.org/) -->

<svg
   xmlns:dc="http://purl.org/dc/elements/1.1/"
   xmlns:cc="http://creativecommons.org/ns#"
   xmlns:rdf="http://www.w3.org/1999/02/22-rdf-syntax-ns#"
   xmlns:svg="http://www.w3.org/2000/svg"
   xmlns="http://www.w3.org/2000/svg"
   xmlns:sodipodi="http://sodipodi.sourceforge.net/DTD/sodipodi-0.dtd"
   xmlns:inkscape="http://www.inkscape.org/namespaces/inkscape"
   id="svg3042"
   version="1.1"
   inkscape:version="0.48.3.1 r9886"
   width="512"
   height="512"
   sodipodi:docname="Ambiance-icon.png">
  <metadata
     id="metadata3048">
    <rdf:RDF>
      <cc:Work
         rdf:about="">
        <dc:format>image/svg+xml</dc:format>
        <dc:type
           rdf:resource="http://purl.org/dc/dcmitype/StillImage" />
        <dc:title></dc:title>
      </cc:Work>
    </rdf:RDF>
  </metadata>
  <defs
     id="defs3046" />
  <sodipodi:namedview
     pagecolor="#ffffff"
     bordercolor="#666666"
     borderopacity="1"
     objecttolerance="10"
     gridtolerance="10"
     guidetolerance="10"
     inkscape:pageopacity="0"
     inkscape:pageshadow="2"
     inkscape:window-width="1366"
     inkscape:window-height="712"
     id="namedview3044"
     showgrid="false"
     inkscape:zoom="0.65186406"
     inkscape:cx="-6.1027121"
     inkscape:cy="278.87546"
     inkscape:window-x="0"
     inkscape:window-y="0"
     inkscape:window-maximized="1"
     inkscape:current-layer="layer1" />
  <g
     inkscape:groupmode="layer"
     id="layer1"
     inkscape:label="Layer">
    <path
       style="fill:#eae3d1;fill-opacity:1"
       d="m 233.5545,491.19239 c -0.37691,-0.37692 -0.6853,-12.05875 -0.6853,-25.95962 0,-17.41593 -0.34456,-25.48727 -1.1082,-25.95922 -0.6095,-0.3767 -5.447,-1.52362 -10.75,-2.54872 -50.20221,-9.70436 -95.37577,-40.96187 -121.582717,-84.12826 -8.79814,-14.49173 -20.55909,-41.91823 -20.55909,-47.94374 0,-1.69734 1.46012,-1.81241 22.998187,-1.81241 l 22.99817,0 4.41569,9.25 c 20.70088,43.36432 61.23695,74.54862 105.75725,81.3588 19.04409,2.91314 44.06794,0.82769 62.58289,-5.21556 12.28841,-4.01092 32.88899,-14.61593 42.41641,-21.83562 16.26574,-12.32585 31.28638,-30.92203 39.89376,-49.39014 2.2218,-4.76711 4.59613,-9.79248 5.2763,-11.16748 l 1.23667,-2.5 23.34315,-0.26875 23.34314,-0.26875 -0.62092,3.76875 c -1.80446,10.95224 -13.73381,36.76015 -24.16052,52.26875 -26.69639,39.708 -70.69078,69.10219 -115.98017,77.49041 -15.03898,2.78543 -13.42362,-0.65283 -13.73306,29.23043 l -0.26694,25.77916 -22.0647,0.26864 c -12.13558,0.14775 -22.37308,-0.0398 -22.75,-0.41667 z m 8.3147,-133.91707 c -25.73592,-3.30449 -35.89413,-8.45679 -57.69054,-29.26095 -14.36867,-13.71455 -15.49088,-15.05806 -18.38531,-22.0108 -1.69543,-4.07259 -2.70944,-7.75871 -2.25337,-8.19138 0.45607,-0.43266 11.17922,-1.24871 23.82922,-1.81343 l 23,-1.02676 4.5,4.33643 c 9.25751,8.92101 26.75555,15.53199 41.11033,15.53199 16.11724,0 21.65315,-2.13872 35.98985,-13.90419 5.1231,-4.2043 12.28876,-13.78742 16.29779,-21.79615 3.40489,-6.80186 9.62242,-6.26047 -75.14797,-6.54345 l -76.75,-0.25621 -0.27958,-13.32896 c -0.25414,-12.11634 0.0447,-14.8367 3.28473,-29.90168 1.96037,-9.115 3.84161,-17.06696 4.18055,-17.67104 0.33894,-0.60408 3.73117,-6.13364 7.5383,-12.28792 6.02723,-9.74311 8.29533,-12.38691 17.5453,-20.4516 9.65083,-8.41418 11.81817,-9.78168 23.67698,-14.93924 12.52165,-5.44583 13.64474,-5.7407 27.55372,-7.23424 28.94811,-3.10845 45.9605,-0.0931 64.31832,11.3999 5.40008,3.38076 12.48937,8.61975 15.75399,11.64221 10.80165,10.00042 25.17116,30.45157 23.40452,33.31006 -0.35107,0.56805 -9.34451,0.96251 -21.94445,0.96251 l -21.34959,0 -9.02912,-7.53364 c -8.39399,-7.0037 -9.74525,-7.74789 -19.20952,-10.5793 -9.88893,-2.95847 -10.45805,-3.01545 -19.87887,-1.99058 -13.58114,1.47747 -21.72054,4.76688 -30.48025,12.31811 -11.76681,10.14347 -21.58503,22.30903 -21.58503,26.74557 0,0.71066 24.0407,1.03984 75.94098,1.03984 57.10217,0 76.12119,0.29157 76.6674,1.17536 0.39953,0.64645 1.51079,5.01401 2.46948,9.70568 1.68706,8.25622 1.67965,8.86913 -0.23065,19.07464 -4.1251,22.03777 -7.84111,32.31093 -17.49273,48.35979 -7.80379,12.97624 -22.22176,27.5129 -32.35448,32.6208 -18.74236,9.44802 -25.80596,11.86005 -38.05295,12.99402 -13.20592,1.22276 -11.26575,1.26129 -24.94705,-0.49539 z M 78.869193,207.02801 c 0,-6.02551 11.76095,-33.45201 20.55909,-47.94374 26.257657,-43.24992 71.366337,-74.420818 121.808817,-84.172048 5.42735,-1.04918 10.25692,-2.29661 10.73237,-2.77207 0.47546,-0.47546 0.98491,-12.3249 1.1321,-26.3321 l 0.26763,-25.46763 22.5,0 22.5,0 0.26694,25.77916 c 0.30944,29.88327 -1.30592,26.44501 13.73306,29.23043 45.28939,8.38823 89.28378,37.782408 115.98017,77.490408 10.42671,15.5086 22.35606,41.31651 24.16052,52.26875 l 0.62092,3.76875 -23.34314,-0.26875 -23.34315,-0.26875 -1.23667,-2.5 c -0.68017,-1.375 -3.0545,-6.40037 -5.2763,-11.16748 -8.60738,-18.46811 -23.62802,-37.06429 -39.89376,-49.39014 -9.52742,-7.21969 -30.128,-17.8247 -42.41641,-21.83562 -18.51495,-6.04325 -43.5388,-8.1287 -62.58289,-5.21556 -44.5203,6.81018 -85.05637,37.99448 -105.75725,81.3588 l -4.41569,9.25 -22.99817,0 c -21.538066,0 -22.998186,-0.11507 -22.998186,-1.81241 z"
       id="path3056"
       inkscape:connector-curvature="0" />
  </g>
</svg>
