<?xml version="1.0" encoding="UTF-8" standalone="no"?>
<!-- Created with Inkscape (http://www.inkscape.org/) -->

<svg
   xmlns:dc="http://purl.org/dc/elements/1.1/"
   xmlns:cc="http://creativecommons.org/ns#"
   xmlns:rdf="http://www.w3.org/1999/02/22-rdf-syntax-ns#"
   xmlns:svg="http://www.w3.org/2000/svg"
   xmlns="http://www.w3.org/2000/svg"
   xmlns:sodipodi="http://sodipodi.sourceforge.net/DTD/sodipodi-0.dtd"
   xmlns:inkscape="http://www.inkscape.org/namespaces/inkscape"
   id="svg3042"
   version="1.1"
   inkscape:version="0.48.3.1 r9886"
   width="256"
   height="256"
   sodipodi:docname="Ambiance-alt.svg">
  <metadata
     id="metadata3048">
    <rdf:RDF>
      <cc:Work
         rdf:about="">
        <dc:format>image/svg+xml</dc:format>
        <dc:type
           rdf:resource="http://purl.org/dc/dcmitype/StillImage" />
        <dc:title></dc:title>
      </cc:Work>
    </rdf:RDF>
  </metadata>
  <defs
     id="defs3046" />
  <sodipodi:namedview
     pagecolor="#ffffff"
     bordercolor="#666666"
     borderopacity="1"
     objecttolerance="10"
     gridtolerance="10"
     guidetolerance="10"
     inkscape:pageopacity="0"
     inkscape:pageshadow="2"
     inkscape:window-width="1366"
     inkscape:window-height="712"
     id="namedview3044"
     showgrid="false"
     inkscape:zoom="0.65186406"
     inkscape:cx="-6.1027121"
     inkscape:cy="278.87546"
     inkscape:window-x="0"
     inkscape:window-y="0"
     inkscape:window-maximized="1"
     inkscape:current-layer="layer1">
    <sodipodi:guide
       position="0,0"
       orientation="0,512"
       id="guide3929" />
    <sodipodi:guide
       position="512,0"
       orientation="-512,0"
       id="guide3931" />
    <sodipodi:guide
       position="512,512"
       orientation="0,-512"
       id="guide3933" />
    <sodipodi:guide
       position="0,512"
       orientation="512,0"
       id="guide3935" />
    <sodipodi:guide
       position="0,0"
       orientation="0,512"
       id="guide3937" />
    <sodipodi:guide
       position="512,0"
       orientation="-512,0"
       id="guide3939" />
    <sodipodi:guide
       position="512,512"
       orientation="0,-512"
       id="guide3941" />
    <sodipodi:guide
       position="0,512"
       orientation="512,0"
       id="guide3943" />
  </sodipodi:namedview>
  <g
     inkscape:groupmode="layer"
     id="layer1"
     inkscape:label="Layer"
     transform="translate(0,-256)">
    <path
       style="fill:#eae3d1;fill-opacity:1"
       d="m 113.713,484.13017 c -11.62623,-1.35801 -24.89666,-5.33932 -33.58544,-10.0761 -6.05978,-3.30355 -11.57221,-7.79275 -23.52217,-19.15593 -14.71487,-13.99232 -15.76508,-15.24256 -18.36044,-21.8577 -1.51405,-3.85906 -2.52803,-7.24125 -2.2533,-7.51599 0.27474,-0.27473 10.69515,-0.96663 23.15646,-1.53755 l 22.65694,-1.03804 4.83206,4.51982 c 5.91351,5.5314 15.93321,10.68878 26.57589,13.67927 6.77887,1.90479 9.53224,2.16218 18.03818,1.68626 11.88392,-0.66493 15.96379,-1.92132 23.97358,-7.38264 9.54771,-6.50992 15.18898,-12.00232 20.05733,-19.52802 6.12854,-9.47374 8.20588,-14.68288 6.32923,-15.87111 -0.77922,-0.49338 -34.93649,-0.89215 -77.14832,-0.90069 l -75.75,-0.0153 0,-14.02066 c 0,-12.22465 0.44192,-16.07124 3.44983,-30.02853 3.4339,-15.93398 3.48295,-16.06094 10.62631,-27.50431 6.24738,-10.00805 8.58122,-12.73161 18.02665,-21.03688 10.01228,-8.8037 11.83655,-9.96148 23.62368,-14.9928 11.90526,-5.08174 13.72517,-5.55972 26.77353,-7.03176 18.87662,-2.12955 33.88939,-1.30524 46.25875,2.53994 10.73536,3.33724 24.53043,11.64434 33.98041,20.46231 10.02966,9.35888 23.26084,27.31808 23.26084,31.57285 0,0.68758 -7.29244,1.03984 -21.52679,1.03984 l -21.52679,0 -8.9037,-7.41055 c -4.89703,-4.0758 -9.72247,-7.6577 -10.72321,-7.95977 -17.34499,-5.2356 -18.7635,-5.46968 -27.37387,-4.51712 -9.68378,1.0713 -10.08083,1.16581 -19.3037,4.59497 -6.15596,2.28885 -8.05056,3.73967 -18.50604,14.17119 -10.97199,10.94684 -17.51775,20.07229 -15.70145,21.88938 0.40236,0.40255 35.0054,0.9569 76.89562,1.2319 l 76.16405,0.5 1.791,8 c 1.55821,6.96014 1.63579,9.03986 0.59687,16 -4.65531,31.18747 -14.97974,53.22325 -33.60005,71.71373 -9.39538,9.32987 -10.35975,9.99049 -24.40346,16.71697 -8.04184,3.85179 -16.61742,7.45053 -19.05685,7.99722 -6.51422,1.45987 -27.18311,2.07483 -35.82163,1.06581 z"
       id="path3927"
       inkscape:connector-curvature="0" />
  </g>
</svg>
