<?xml version="1.0" encoding="UTF-8" standalone="no"?>
<!-- Created with Inkscape (http://www.inkscape.org/) -->

<svg
   xmlns:dc="http://purl.org/dc/elements/1.1/"
   xmlns:cc="http://creativecommons.org/ns#"
   xmlns:rdf="http://www.w3.org/1999/02/22-rdf-syntax-ns#"
   xmlns:svg="http://www.w3.org/2000/svg"
   xmlns="http://www.w3.org/2000/svg"
   version="1.1"
   width="512"
   height="512"
   id="svg3042">
  <metadata
     id="metadata3048">
    <rdf:RDF>
      <cc:Work
         rdf:about="">
        <dc:format>image/svg+xml</dc:format>
        <dc:type
           rdf:resource="http://purl.org/dc/dcmitype/StillImage" />
        <dc:title></dc:title>
      </cc:Work>
    </rdf:RDF>
  </metadata>
  <defs
     id="defs3046" />
  <g
     id="layer1">
    <path
       d="m 98.816116,490.76148 c -39.69874,-8.53494 -70.110473,-39.29452 -78.100613,-78.99392 -1.41205,-7.01588 -1.55413,-24.36258 -1.30531,-159.37278 l 0.2792,-151.5 2.71333,-8.63857 C 27.996573,74.4468 36.300033,60.35311 48.223883,48.42926 60.157636,36.4955 74.279426,28.17888 92.050836,22.61863 l 8.638564,-2.7028 66,-0.0105 66,-0.0105 0.26725,25.93275 c 0.14867,14.42612 -0.1318,26.3318 -0.63209,26.8321 -0.49465,0.49464 -5.33991,1.75777 -10.76726,2.80695 -50.44248,9.75124 -95.55116,40.92214 -121.808814,84.17206 -8.79814,14.49173 -20.55909,41.91823 -20.55909,47.94374 0,1.69734 1.46012,1.81241 22.998184,1.81241 l 22.99817,0 4.41569,-9.25 c 20.70088,-43.36432 61.23695,-74.54862 105.75725,-81.3588 19.04409,-2.91314 44.06794,-0.82769 62.58289,5.21556 12.28841,4.01092 32.88899,14.61593 42.41641,21.83562 16.26574,12.32585 31.28638,30.92203 39.89376,49.39014 2.2218,4.76711 4.59613,9.79248 5.2763,11.16748 l 1.23667,2.5 23.34315,0.26875 23.34314,0.26875 -0.62092,-3.76875 c -1.80446,-10.95224 -13.73381,-36.76015 -24.16052,-52.26875 -26.69639,-39.708 -70.69078,-69.10219 -115.98017,-77.49041 -4.95,-0.91681 -10.01998,-2.07529 -11.26663,-2.5744 l -2.26663,-0.90747 0.26663,-26.26386 0.26663,-26.26387 66,0.0105 66,0.0105 8.63857,2.7028 c 17.7714,5.56025 31.89319,13.87687 43.82695,25.81063 11.92385,11.92385 20.22731,26.01754 25.82115,43.82695 l 2.71333,8.63857 0,155 0,155 -2.71333,8.63857 c -5.59384,17.80941 -13.8973,31.9031 -25.82115,43.82695 -11.93376,11.93375 -26.05555,20.25038 -43.82695,25.81062 l -8.63857,2.7028 -66,0.0105 -66,0.0105 -0.26691,-25.76373 -0.26691,-25.76374 2.26691,-0.9076 c 1.2468,-0.49912 6.31691,-1.65765 11.26691,-2.57446 45.28939,-8.38822 89.28378,-37.78241 115.98017,-77.49041 10.42671,-15.5086 22.35606,-41.31651 24.16052,-52.26875 l 0.62092,-3.76875 -23.34314,0.26875 -23.34315,0.26875 -1.23667,2.5 c -0.68017,1.375 -3.0545,6.40037 -5.2763,11.16748 -8.60738,18.46811 -23.62802,37.06429 -39.89376,49.39014 -9.52742,7.21969 -30.128,17.8247 -42.41641,21.83562 -18.51495,6.04325 -43.5388,8.1287 -62.58289,5.21556 -44.5203,-6.81018 -85.05637,-37.99448 -105.75725,-81.3588 l -4.41569,-9.25 -22.99817,0 c -26.699694,0 -24.652294,-1.26868 -20.028364,12.4107 21.040314,62.24549 74.682624,109.0071 139.398084,121.5175 5.42735,1.04918 10.27275,2.31245 10.76756,2.80726 0.50007,0.50007 0.78082,12.19535 0.63209,26.33209 l -0.26755,25.43245 -63.5,0.1722 c -52.73165,0.14301 -64.66557,-0.0784 -70.373284,-1.3055 z M 289.6894,352.08053 c 21.09326,-9.48492 23.41998,-10.93746 32.61139,-20.35887 17.51666,-17.955 29.04602,-42.92519 32.93337,-71.32688 1.01684,-7.42923 0.92932,-9.57077 -0.69477,-17 l -1.85817,-8.5 -76.24591,-0.25625 c -71.75059,-0.24114 -76.24536,-0.35905 -76.23653,-2 0.0214,-3.97666 6.41679,-12.4787 16.60332,-22.07249 9.80903,-9.23826 11.43226,-10.36022 18.89638,-13.06106 6.1801,-2.23622 10.69738,-3.1076 18.57823,-3.58372 9.69496,-0.58572 11.04602,-0.42705 19.60086,2.30189 8.22425,2.62347 10.13046,3.73041 18.17,10.5513 l 8.98181,7.62033 21.08001,0 c 23.40911,0 22.56352,0.29365 19.33982,-6.71607 -2.3341,-5.07534 -14.63642,-20.45406 -21.89594,-27.37139 -9.10444,-8.67528 -23.14276,-16.98625 -34.99952,-20.72042 -9.11208,-2.86976 -11.3843,-3.1924 -22.5,-3.19486 -6.80039,-0.002 -17.31435,0.48517 -23.36435,1.08151 -9.81434,0.96738 -12.45513,1.68975 -24.5,6.70177 -12.7952,5.32424 -14.08131,6.12696 -24.63477,15.37565 -9.79879,8.58732 -12.02423,11.17307 -18.548,21.55097 l -7.41323,11.79284 -3.75711,18 c -3.35284,16.06316 -3.72428,19.29122 -3.452,30 l 0.30511,12 76.4563,0.2563 c 42.05096,0.14096 76.84876,0.64876 77.32844,1.12844 1.03136,1.03136 -2.96412,9.25919 -8.36297,17.22174 -4.23072,6.23971 -9.8472,11.23446 -20.71278,18.41992 l -7.29101,4.82157 -13.46321,0.45661 c -10.80903,0.36659 -14.69451,0.1119 -19.70899,-1.29191 -9.23693,-2.5859 -19.6268,-8.10705 -24.90722,-13.23563 l -4.66145,-4.52741 -23.58855,0.73708 c -19.01264,0.59409 -23.58856,1.00431 -23.58856,2.11466 0,0.75767 1.17161,4.30421 2.60358,7.8812 2.31704,5.78788 4.18424,8.061 16.96655,20.65499 12.0939,11.91572 15.85078,14.97345 23.78054,19.35505 9.41592,5.20279 21.15941,9.01603 32.64933,10.60162 3.025,0.41744 12.7,0.58541 21.5,0.37325 l 16,-0.38573 12,-5.396 z"
       id="path3875"
       style="fill:#eae3d1;fill-opacity:1" />
  </g>
</svg>
