<?xml version="1.0" encoding="UTF-8" standalone="no"?>
<!-- Generator: Adobe Illustrator 22.0.1, SVG Export Plug-In . SVG Version: 6.00 Build 0)  -->

<svg
   version="1.1"
   id="Layer_1"
   x="0px"
   y="0px"
   viewBox="0 0 30 30"
   style="enable-background:new 0 0 30 30;"
   xml:space="preserve"
   sodipodi:docname="direction-down-symbolic.svg"
   inkscape:version="1.3.2 (091e20ef0f, 2023-11-25, custom)"
   xmlns:inkscape="http://www.inkscape.org/namespaces/inkscape"
   xmlns:sodipodi="http://sodipodi.sourceforge.net/DTD/sodipodi-0.dtd"
   xmlns="http://www.w3.org/2000/svg"
   xmlns:svg="http://www.w3.org/2000/svg"><defs
   id="defs1" /><sodipodi:namedview
   id="namedview1"
   pagecolor="#ffffff"
   bordercolor="#111111"
   borderopacity="1"
   inkscape:showpageshadow="0"
   inkscape:pageopacity="0"
   inkscape:pagecheckerboard="1"
   inkscape:deskcolor="#d1d1d1"
   inkscape:zoom="27.5"
   inkscape:cx="15"
   inkscape:cy="15"
   inkscape:window-width="1920"
   inkscape:window-height="1018"
   inkscape:window-x="0"
   inkscape:window-y="0"
   inkscape:window-maximized="1"
   inkscape:current-layer="Layer_1" />
<path
   d="m 20.080178,16.626318 c 0.01,-0.350002 -0.1,-0.650001 -0.339999,-0.900001 -0.23998,-0.250021 -0.530001,-0.370001 -0.889999,-0.36 -0.340002,-0.02 -0.630001,0.1 -0.880002,0.37 l -1.659997,1.64 -1e-6,-10.2999992 c 0.01,-0.3500007 -0.11,-0.6399997 -0.36,-0.8800006 -0.250021,-0.23998 -0.55,-0.3499998 -0.92,-0.3399991 -0.340001,-0.02 -0.64,0.090001 -0.89,0.3200001 -0.249997,0.2300009 -0.390002,0.5299959 -0.399999,0.8800001 l 0,10.2999997 -1.640001,-1.64 c -0.229979,-0.24002 -0.530001,-0.37 -0.880001,-0.370001 -0.359998,10e-7 -0.659999,0.120002 -0.9,0.360001 -0.239999,0.24 -0.3599997,0.529998 -0.3599997,0.889999 0.020001,0.360001 0.1499997,0.640002 0.4000007,0.850001 l 3.740001,3.84 c 0.240019,0.229978 0.549999,0.37 0.919999,0.399999 0.369998,-0.02 0.679999,-0.159999 0.919999,-0.41 l 3.749997,-3.810002 c 0.259997,-0.220003 0.390001,-0.499999 0.39,-0.84 z"
   id="path1" />
</svg>
