<?xml version="1.0" encoding="UTF-8" standalone="no"?>
<!-- Generator: Adobe Illustrator 22.0.1, SVG Export Plug-In . SVG Version: 6.00 Build 0)  -->

<svg
   version="1.1"
   id="Layer_1"
   x="0px"
   y="0px"
   viewBox="0 0 30 30"
   style="enable-background:new 0 0 30 30;"
   xml:space="preserve"
   sodipodi:docname="direction-down-right-symbolic.svg"
   inkscape:version="1.3.2 (091e20ef0f, 2023-11-25, custom)"
   xmlns:inkscape="http://www.inkscape.org/namespaces/inkscape"
   xmlns:sodipodi="http://sodipodi.sourceforge.net/DTD/sodipodi-0.dtd"
   xmlns="http://www.w3.org/2000/svg"
   xmlns:svg="http://www.w3.org/2000/svg"><defs
   id="defs1" /><sodipodi:namedview
   id="namedview1"
   pagecolor="#ffffff"
   bordercolor="#111111"
   borderopacity="1"
   inkscape:showpageshadow="0"
   inkscape:pageopacity="0"
   inkscape:pagecheckerboard="1"
   inkscape:deskcolor="#d1d1d1"
   inkscape:zoom="27.5"
   inkscape:cx="15"
   inkscape:cy="15"
   inkscape:window-width="1920"
   inkscape:window-height="1018"
   inkscape:window-x="0"
   inkscape:window-y="0"
   inkscape:window-maximized="1"
   inkscape:current-layer="Layer_1" />
<path
   d="m 20.639841,12.206628 c -0.240417,-0.25456 -0.530331,-0.388909 -0.876813,-0.395981 -0.346483,-0.0071 -0.636397,0.113137 -0.883883,0.374766 -0.25456,0.226275 -0.374767,0.516188 -0.360625,0.883885 l -0.01414,2.33345 -7.2832,-7.2831988 C 10.980763,7.8649904 10.69085,7.744783 10.344367,7.7518534 9.9978841,7.7589534 9.7079711,7.8932748 9.4534132,8.1619759 9.1988541,8.3882508 9.0645052,8.6781646 9.0503624,9.0175752 c -0.01414,0.3394103 0.09899,0.6505373 0.339412,0.905096 l 7.2831996,7.2831998 -2.319311,1e-6 c -0.33234,-0.0071 -0.636397,0.113137 -0.883885,0.360624 -0.254556,0.254558 -0.381836,0.551544 -0.381837,0.890955 10e-7,0.339411 0.120207,0.629324 0.374766,0.883883 0.268702,0.240417 0.558616,0.346484 0.883885,0.318198 l 5.35987,0.07071 c 0.332338,-0.0071 0.650537,-0.127278 0.933379,-0.367695 0.247486,-0.275771 0.367696,-0.593969 0.360624,-0.940452 l -0.04243,-5.345726 c 0.02828,-0.339411 -0.07778,-0.629325 -0.318198,-0.869741 z"
   id="path1" />
</svg>
