<?xml version="1.0" encoding="UTF-8" standalone="no"?>
<!-- Generator: Adobe Illustrator 22.0.1, SVG Export Plug-In . SVG Version: 6.00 Build 0)  -->

<svg
   version="1.1"
   id="Layer_1"
   x="0px"
   y="0px"
   viewBox="0 0 30 30"
   style="enable-background:new 0 0 30 30;"
   xml:space="preserve"
   sodipodi:docname="direction-left-symbolic.svg"
   inkscape:version="1.3.2 (091e20ef0f, 2023-11-25, custom)"
   xmlns:inkscape="http://www.inkscape.org/namespaces/inkscape"
   xmlns:sodipodi="http://sodipodi.sourceforge.net/DTD/sodipodi-0.dtd"
   xmlns="http://www.w3.org/2000/svg"
   xmlns:svg="http://www.w3.org/2000/svg"><defs
   id="defs1" /><sodipodi:namedview
   id="namedview1"
   pagecolor="#ffffff"
   bordercolor="#111111"
   borderopacity="1"
   inkscape:showpageshadow="0"
   inkscape:pageopacity="0"
   inkscape:pagecheckerboard="1"
   inkscape:deskcolor="#d1d1d1"
   inkscape:zoom="27.5"
   inkscape:cx="15"
   inkscape:cy="15"
   inkscape:window-width="1920"
   inkscape:window-height="1018"
   inkscape:window-x="0"
   inkscape:window-y="0"
   inkscape:window-maximized="1"
   inkscape:current-layer="Layer_1" />
<path
   d="m 12.158933,18.807845 c 0.350001,0.01 0.650001,-0.1 0.9,-0.339998 0.250021,-0.23998 0.370002,-0.530002 0.360001,-0.889999 0.02,-0.340002 -0.100001,-0.630001 -0.37,-0.880002 l -1.640001,-1.659998 10.3,0 c 0.350001,0.01 0.639999,-0.110001 0.88,-0.36 0.23998,-0.250021 0.35,-0.550001 0.339999,-0.92 0.02,-0.340002 -0.09,-0.64 -0.32,-0.89 -0.230001,-0.249997 -0.529996,-0.390002 -0.88,-0.399999 l -10.3,-10e-7 1.640001,-1.64 c 0.24002,-0.229979 0.369999,-0.530001 0.370001,-0.8800018 -10e-7,-0.3599972 -0.120003,-0.6599986 -0.360002,-0.8999991 -0.239999,-0.2399995 -0.529997,-0.3600004 -0.889999,-0.3599998 -0.360001,0.020001 -0.640001,0.1499993 -0.85,0.4000002 L 7.4989329,12.827848 c -0.229978,0.240019 -0.3700004,0.55 -0.3999994,0.92 0.02,0.369998 0.1599994,0.679998 0.4099998,0.919999 l 3.8100027,3.749997 c 0.220003,0.259997 0.499998,0.390001 0.839999,0.39 z"
   id="path1" />
</svg>
