<?xml version="1.0" encoding="UTF-8" standalone="no"?>
<!-- Generator: Adobe Illustrator 22.0.1, SVG Export Plug-In . SVG Version: 6.00 Build 0)  -->

<svg
   version="1.1"
   id="Layer_1"
   x="0px"
   y="0px"
   viewBox="0 0 30 30"
   style="enable-background:new 0 0 30 30;"
   xml:space="preserve"
   xmlns="http://www.w3.org/2000/svg"
   xmlns:svg="http://www.w3.org/2000/svg"><defs
   id="defs1" />
<path
   d="m 17.865844,8.6664683 c -0.35,-0.01 -0.65,0.1 -0.9,0.34 -0.25,0.24 -0.37,0.53 -0.36,0.89 -0.02,0.3399997 0.1,0.6299997 0.37,0.8799997 l 1.64,1.66 h -10.3 c -0.35,-0.01 -0.64,0.11 -0.88,0.36 -0.24,0.25 -0.35,0.55 -0.34,0.92 -0.02,0.34 0.09,0.64 0.32,0.89 0.23,0.25 0.53,0.39 0.88,0.4 h 10.3 l -1.64,1.64 c -0.24,0.23 -0.37,0.53 -0.37,0.88 0,0.36 0.12,0.66 0.36,0.9 0.24,0.24 0.53,0.36 0.89,0.36 0.36,-0.02 0.64,-0.15 0.85,-0.4 l 3.84,-3.74 c 0.23,-0.24 0.37,-0.55 0.4,-0.92 -0.02,-0.37 -0.16,-0.68 -0.41,-0.92 l -3.81,-3.7499997 c -0.22,-0.26 -0.5,-0.39 -0.84,-0.39 z"
   id="path1" />
</svg>
