<?xml version="1.0" encoding="UTF-8" standalone="no"?>
<!-- Generator: Adobe Illustrator 22.0.1, SVG Export Plug-In . SVG Version: 6.00 Build 0)  -->

<svg
   version="1.1"
   id="Layer_1"
   x="0px"
   y="0px"
   viewBox="0 0 30 30"
   style="enable-background:new 0 0 30 30;"
   xml:space="preserve"
   sodipodi:docname="direction-up-right-symbolic.svg"
   inkscape:version="1.3.2 (091e20ef0f, 2023-11-25, custom)"
   xmlns:inkscape="http://www.inkscape.org/namespaces/inkscape"
   xmlns:sodipodi="http://sodipodi.sourceforge.net/DTD/sodipodi-0.dtd"
   xmlns="http://www.w3.org/2000/svg"
   xmlns:svg="http://www.w3.org/2000/svg"><defs
   id="defs1" /><sodipodi:namedview
   id="namedview1"
   pagecolor="#ffffff"
   bordercolor="#111111"
   borderopacity="1"
   inkscape:showpageshadow="0"
   inkscape:pageopacity="0"
   inkscape:pagecheckerboard="1"
   inkscape:deskcolor="#d1d1d1"
   inkscape:zoom="27.5"
   inkscape:cx="15"
   inkscape:cy="15"
   inkscape:window-width="1920"
   inkscape:window-height="1018"
   inkscape:window-x="0"
   inkscape:window-y="0"
   inkscape:window-maximized="1"
   inkscape:current-layer="Layer_1" />
<path
   d="m 13.498338,8.1571482 c -0.25456,0.240417 -0.388909,0.5303301 -0.395981,0.8768121 -0.0071,0.346483 0.113137,0.6363972 0.374766,0.8838842 0.226275,0.2545585 0.516188,0.3747665 0.883885,0.3606235 l 2.333451,0.01414 -7.2831992,7.2832 c -0.2545585,0.240416 -0.3747662,0.530329 -0.3676955,0.876812 0.0071,0.346483 0.1414212,0.636396 0.4101222,0.890954 0.2262735,0.25456 0.516188,0.388909 0.8555995,0.403051 0.33941,0.01414 0.650537,-0.09899 0.905096,-0.339411 l 7.2832,-7.2832 v 2.31931 c -0.0071,0.332341 0.113137,0.636397 0.360624,0.883885 0.254559,0.254557 0.551545,0.381837 0.890955,0.381838 0.339411,-10e-7 0.629325,-0.120208 0.883883,-0.374767 0.240417,-0.268702 0.346484,-0.558615 0.318198,-0.883884 l 0.07071,-5.3598699 C 21.014882,8.7581894 20.894674,8.4399907 20.654257,8.1571487 20.378486,7.9096613 20.060288,7.7894524 19.713805,7.7965242 l -5.345726,0.042426 c -0.339411,-0.028284 -0.629325,0.077782 -0.869741,0.3181984 z"
   id="path1" />
</svg>
