<?xml version="1.0" encoding="UTF-8" standalone="no"?>
<!-- Generator: Adobe Illustrator 22.0.1, SVG Export Plug-In . SVG Version: 6.00 Build 0)  -->

<svg
   version="1.1"
   id="Layer_1"
   x="0px"
   y="0px"
   viewBox="0 0 30 30"
   style="enable-background:new 0 0 30 30;"
   xml:space="preserve"
   sodipodi:docname="direction-up-left-symbolic.svg"
   inkscape:version="1.3.2 (091e20ef0f, 2023-11-25, custom)"
   xmlns:inkscape="http://www.inkscape.org/namespaces/inkscape"
   xmlns:sodipodi="http://sodipodi.sourceforge.net/DTD/sodipodi-0.dtd"
   xmlns="http://www.w3.org/2000/svg"
   xmlns:svg="http://www.w3.org/2000/svg"><defs
   id="defs1" /><sodipodi:namedview
   id="namedview1"
   pagecolor="#ffffff"
   bordercolor="#111111"
   borderopacity="1"
   inkscape:showpageshadow="0"
   inkscape:pageopacity="0"
   inkscape:pagecheckerboard="1"
   inkscape:deskcolor="#d1d1d1"
   inkscape:zoom="27.5"
   inkscape:cx="15"
   inkscape:cy="15"
   inkscape:window-width="1920"
   inkscape:window-height="1018"
   inkscape:window-x="0"
   inkscape:window-y="0"
   inkscape:window-maximized="1"
   inkscape:current-layer="Layer_1" />
<path
   d="m 9.4123411,15.284288 c 0.2404163,0.254559 0.53033,0.388909 0.8768119,0.39598 0.346483,0.0071 0.636397,-0.113137 0.883884,-0.374766 0.254558,-0.226275 0.374767,-0.516188 0.360624,-0.883884 l 0.01414,-2.333452 7.283199,7.2832 c 0.240417,0.254558 0.53033,0.374766 0.876813,0.367695 0.346482,-0.0071 0.636396,-0.141421 0.890954,-0.410122 0.254559,-0.226274 0.388909,-0.516188 0.403051,-0.855599 0.01414,-0.339411 -0.09899,-0.650538 -0.339411,-0.905097 l -7.2832,-7.2832 h 2.31931 c 0.332341,0.0071 0.636396,-0.113137 0.883884,-0.3606242 0.254558,-0.2545585 0.381838,-0.5515433 0.381838,-0.8909546 0,-0.3394112 -0.120208,-0.6293251 -0.374767,-0.8838835 -0.2687,-0.2404163 -0.558614,-0.3464823 -0.883883,-0.318198 l -5.35987,-0.07071 C 10.013382,7.7677432 9.6951838,7.8879514 9.4123411,8.1283677 9.1648537,8.4041393 9.0446455,8.7223374 9.0517166,9.0688197 l 0.042426,5.3457273 c -0.028284,0.339411 0.077782,0.629325 0.3181981,0.869741 z"
   id="path1" />
</svg>
