<?xml version="1.0" encoding="UTF-8" standalone="no"?>
<!-- Generator: Adobe Illustrator 22.0.1, SVG Export Plug-In . SVG Version: 6.00 Build 0)  -->

<svg
   version="1.1"
   id="Layer_1"
   x="0px"
   y="0px"
   viewBox="0 0 30 30"
   style="enable-background:new 0 0 30 30;"
   xml:space="preserve"
   sodipodi:docname="direction-down-left-symbolic.svg"
   inkscape:version="1.3.2 (091e20ef0f, 2023-11-25, custom)"
   xmlns:inkscape="http://www.inkscape.org/namespaces/inkscape"
   xmlns:sodipodi="http://sodipodi.sourceforge.net/DTD/sodipodi-0.dtd"
   xmlns="http://www.w3.org/2000/svg"
   xmlns:svg="http://www.w3.org/2000/svg"><defs
   id="defs1" /><sodipodi:namedview
   id="namedview1"
   pagecolor="#ffffff"
   bordercolor="#111111"
   borderopacity="1"
   inkscape:showpageshadow="0"
   inkscape:pageopacity="0"
   inkscape:pagecheckerboard="1"
   inkscape:deskcolor="#d1d1d1"
   inkscape:zoom="27.5"
   inkscape:cx="15"
   inkscape:cy="15"
   inkscape:window-width="1920"
   inkscape:window-height="1018"
   inkscape:window-x="0"
   inkscape:window-y="0"
   inkscape:window-maximized="1"
   inkscape:current-layer="Layer_1" />
<path
   d="m 16.578622,19.367508 c 0.25456,-0.240417 0.38891,-0.530331 0.395981,-0.876812 0.0071,-0.346483 -0.113137,-0.636398 -0.374765,-0.883883 -0.226276,-0.25456 -0.516189,-0.374767 -0.883885,-0.360626 l -2.333451,-0.01414 7.283199,-7.2831998 C 20.92026,9.7084304 21.040467,9.4185173 21.033397,9.0720344 21.026297,8.7255513 20.891975,8.4356384 20.623274,8.1810805 20.396999,7.9265213 20.107086,7.7921724 19.767675,7.7780297 c -0.33941,-0.014139 -0.650537,0.098991 -0.905096,0.339412 l -7.2832,7.2831993 0,-2.319311 c 0.0071,-0.332339 -0.113138,-0.636396 -0.360625,-0.883885 -0.254557,-0.254556 -0.551544,-0.381835 -0.890955,-0.381836 -0.3394105,0 -0.6293234,0.120206 -0.8838826,0.374766 -0.2404163,0.268702 -0.3464839,0.558615 -0.3181982,0.883884 l -0.07071,5.35987 c 0.0071,0.332338 0.1272785,0.650538 0.3676955,0.93338 0.2757703,0.247486 0.5939683,0.367695 0.9404513,0.360624 l 5.345727,-0.04243 c 0.339411,0.02828 0.629325,-0.07778 0.869741,-0.318198 z"
   id="path1" />
</svg>
