<?xml version="1.0" encoding="UTF-8" standalone="no"?>
<!-- Generator: Adobe Illustrator 22.0.1, SVG Export Plug-In . SVG Version: 6.00 Build 0)  -->

<svg
   version="1.1"
   id="Layer_1"
   x="0px"
   y="0px"
   viewBox="0 0 30 30"
   style="enable-background:new 0 0 30 30;"
   xml:space="preserve"
   sodipodi:docname="no-moonrise-symbolic.svg"
   inkscape:version="1.3.2 (091e20ef0f, 2023-11-25, custom)"
   xmlns:inkscape="http://www.inkscape.org/namespaces/inkscape"
   xmlns:sodipodi="http://sodipodi.sourceforge.net/DTD/sodipodi-0.dtd"
   xmlns="http://www.w3.org/2000/svg"
   xmlns:svg="http://www.w3.org/2000/svg"><defs
   id="defs1" /><sodipodi:namedview
   id="namedview1"
   pagecolor="#ffffff"
   bordercolor="#111111"
   borderopacity="1"
   inkscape:showpageshadow="0"
   inkscape:pageopacity="0"
   inkscape:pagecheckerboard="1"
   inkscape:deskcolor="#d1d1d1"
   inkscape:zoom="27.5"
   inkscape:cx="14.981818"
   inkscape:cy="15"
   inkscape:window-width="1920"
   inkscape:window-height="1018"
   inkscape:window-x="0"
   inkscape:window-y="0"
   inkscape:window-maximized="1"
   inkscape:current-layer="Layer_1" />
<path
   d="M7.8,14.86c0-0.98,0.19-1.92,0.58-2.82c0.38-0.9,0.9-1.67,1.55-2.32c0.65-0.65,1.43-1.17,2.32-1.56s1.84-0.58,2.83-0.58  h1.17c0.16,0.04,0.24,0.14,0.24,0.28l0.04,0.9c0.04,1.3,0.51,2.41,1.41,3.33s2,1.41,3.28,1.46l0.85,0.07c0.16,0,0.23,0.08,0.23,0.23  v1.01c0.01,1.03-0.19,2-0.58,2.92h-2.05c0.51-0.74,0.83-1.59,0.97-2.53c-1.67-0.35-3.02-1.07-4.03-2.16s-1.59-2.37-1.75-3.83  c-0.97,0.05-1.85,0.35-2.66,0.9c-0.8,0.55-1.43,1.24-1.87,2.08c-0.44,0.84-0.66,1.72-0.66,2.63c0,1.07,0.28,2.04,0.83,2.92H8.4  C8,16.85,7.8,15.88,7.8,14.86z M8.09,20.87c0-0.29,0.09-0.52,0.28-0.68c0.18-0.18,0.41-0.26,0.69-0.26h2.63L14.8,17  c0.1-0.08,0.22-0.08,0.35,0l3.16,2.92h2.77c0.27,0,0.5,0.09,0.69,0.28c0.19,0.18,0.29,0.41,0.29,0.67c0,0.27-0.1,0.5-0.29,0.69  c-0.19,0.19-0.42,0.29-0.69,0.29h-3.38c-0.1,0-0.2-0.02-0.29-0.07l-2.41-2.27l-2.39,2.27c-0.08,0.05-0.17,0.07-0.28,0.07H9.06  c-0.27,0-0.5-0.1-0.69-0.29S8.09,21.14,8.09,20.87z"
   id="path1" />
<g
   inkscape:groupmode="layer"
   id="layer1"
   inkscape:label="circle slash"><g
     style="fill:currentColor"
     id="g1"
     transform="matrix(1.8480905,0,0,1.8480905,0.19709443,0.21527623)"><path
       d="M 8,1 A 7,7 0 1 1 1,8 7.008,7.008 0 0 1 8,1 Z M 2,8 c 0,1.418 0.504,2.79 1.423,3.87 L 11.87,3.423 A 5.993,5.993 0 0 0 2,8 Z M 14,8 C 14,6.582 13.496,5.21 12.577,4.13 L 4.13,12.577 A 5.993,5.993 0 0 0 14,8 Z"
       id="path1-7" /></g></g></svg>
