<?xml version="1.0" encoding="UTF-8" standalone="no"?>
<!-- Generator: Adobe Illustrator 22.0.1, SVG Export Plug-In . SVG Version: 6.00 Build 0)  -->

<svg
   version="1.1"
   id="Layer_1"
   x="0px"
   y="0px"
   viewBox="0 0 30 30"
   style="enable-background:new 0 0 30 30;"
   xml:space="preserve"
   sodipodi:docname="no-moonset-symbolic.svg"
   inkscape:version="1.3.2 (091e20ef0f, 2023-11-25, custom)"
   xmlns:inkscape="http://www.inkscape.org/namespaces/inkscape"
   xmlns:sodipodi="http://sodipodi.sourceforge.net/DTD/sodipodi-0.dtd"
   xmlns="http://www.w3.org/2000/svg"
   xmlns:svg="http://www.w3.org/2000/svg"><defs
   id="defs1" /><sodipodi:namedview
   id="namedview1"
   pagecolor="#ffffff"
   bordercolor="#111111"
   borderopacity="1"
   inkscape:showpageshadow="0"
   inkscape:pageopacity="0"
   inkscape:pagecheckerboard="1"
   inkscape:deskcolor="#d1d1d1"
   inkscape:zoom="27.5"
   inkscape:cx="15.018182"
   inkscape:cy="15"
   inkscape:window-width="1920"
   inkscape:window-height="1018"
   inkscape:window-x="0"
   inkscape:window-y="0"
   inkscape:window-maximized="1"
   inkscape:current-layer="layer2" />

<g
   inkscape:groupmode="layer"
   id="layer1"
   inkscape:label="circle slash"
   style="display:inline"><path
     d="M 8,1 A 7,7 0 1 1 1,8 7.008,7.008 0 0 1 8,1 Z M 2,8 c 0,1.418 0.504,2.79 1.423,3.87 L 11.87,3.423 A 5.993,5.993 0 0 0 2,8 Z M 14,8 C 14,6.582 13.496,5.21 12.577,4.13 L 4.13,12.577 A 5.993,5.993 0 0 0 14,8 Z"
     id="path1-7"
     style="fill:currentColor"
     transform="matrix(1.8480905,0,0,1.8480905,0.19709443,0.21527623)" /></g><g
   inkscape:groupmode="layer"
   id="layer2"
   inkscape:label="moon set"
   style="display:inline"><path
     d="m 7.7630032,13.68625 c 0,-0.98 0.19,-1.92 0.58,-2.82 0.38,-0.9 0.9,-1.67 1.55,-2.32 0.6499998,-0.65 1.4299998,-1.17 2.3199998,-1.56 0.9,-0.39 1.84,-0.58 2.83,-0.58 h 1.17 c 0.16,0.04 0.24,0.14 0.24,0.28 l 0.05,0.9 c 0.02,0.64 0.15,1.25 0.4,1.83 0.25,0.58 0.58,1.08 1,1.5 0.42,0.43 0.91,0.77 1.48,1.03 0.57,0.26 1.17,0.4 1.8,0.43 l 0.85,0.07 c 0.16,0 0.24,0.08 0.24,0.23 v 1.01 c 0.01,1.01 -0.19,1.98 -0.59,2.92 h -2.05 c 0.51,-0.74 0.83,-1.59 0.97,-2.53 -1.68,-0.35 -3.02,-1.07 -4.03,-2.16 -1.01,-1.09 -1.59,-2.37 -1.75,-3.83 -0.97,0.05 -1.85,0.35 -2.66,0.9 -0.8,0.55 -1.42,1.24 -1.87,2.08 -0.4399998,0.84 -0.6599998,1.72 -0.6599998,2.63 0,1.07 0.28,2.04 0.8299998,2.92 H 8.3630032 c -0.4,-0.94 -0.6,-1.91 -0.6,-2.93 z m 0.25,6.03 c 0,-0.26 0.1,-0.49 0.3,-0.69 0.18,-0.18 0.41,-0.27 0.68,-0.27 h 3.2199998 c 0.11,0 0.2,0.02 0.28,0.08 l 2.35,2.22 2.39,-2.23 c 0.07,-0.05 0.17,-0.08 0.29,-0.08 h 3.3 c 0.27,0 0.5,0.09 0.69,0.28 0.19,0.19 0.29,0.42 0.29,0.68 0,0.27 -0.1,0.5 -0.29,0.69 -0.19,0.19 -0.42,0.29 -0.69,0.29 h -2.68 l -3.13,2.84 c -0.12,0.09 -0.24,0.09 -0.34,0 l -3.08,-2.84 H 8.9930032 c -0.27,0 -0.5,-0.1 -0.69,-0.29 -0.19,-0.18 -0.29,-0.41 -0.29,-0.68 z"
     id="path1-6" /></g><g
   inkscape:groupmode="layer"
   id="layer3"
   inkscape:label="moon rise"
   style="display:none"
   transform="translate(0,0.06517556)"><path
     d="m 7.8,13.697093 c 0,-0.98 0.19,-1.92 0.58,-2.82 0.38,-0.9000003 0.9,-1.6700003 1.55,-2.3200003 0.65,-0.65 1.43,-1.17 2.32,-1.56 0.89,-0.39 1.84,-0.58 2.83,-0.58 h 1.17 c 0.16,0.04 0.24,0.14 0.24,0.28 l 0.04,0.9 c 0.04,1.3 0.51,2.4100003 1.41,3.3300003 0.9,0.92 2,1.41 3.28,1.46 l 0.85,0.07 c 0.16,0 0.23,0.08 0.23,0.23 v 1.01 c 0.01,1.03 -0.19,2 -0.58,2.92 h -2.05 c 0.51,-0.74 0.83,-1.59 0.97,-2.53 -1.67,-0.35 -3.02,-1.07 -4.03,-2.16 -1.01,-1.09 -1.59,-2.3700003 -1.75,-3.8300003 -0.97,0.05 -1.85,0.35 -2.66,0.9 -0.8,0.55 -1.43,1.2400003 -1.87,2.0800003 -0.44,0.84 -0.66,1.72 -0.66,2.63 0,1.07 0.28,2.04 0.83,2.92 H 8.4 c -0.4,-0.94 -0.6,-1.91 -0.6,-2.93 z m 0.29,6.01 c 0,-0.29 0.09,-0.52 0.28,-0.68 0.18,-0.18 0.41,-0.26 0.69,-0.26 h 2.63 l 3.11,-2.93 c 0.1,-0.08 0.22,-0.08 0.35,0 l 3.16,2.92 h 2.77 c 0.27,0 0.5,0.09 0.69,0.28 0.19,0.18 0.29,0.41 0.29,0.67 0,0.27 -0.1,0.5 -0.29,0.69 -0.19,0.19 -0.42,0.29 -0.69,0.29 H 17.7 c -0.1,0 -0.2,-0.02 -0.29,-0.07 l -2.41,-2.27 -2.39,2.27 c -0.08,0.05 -0.17,0.07 -0.28,0.07 H 9.06 c -0.27,0 -0.5,-0.1 -0.69,-0.29 -0.19,-0.19 -0.28,-0.42 -0.28,-0.69 z"
     id="path1" /></g></svg>
