<?xml version="1.0" encoding="UTF-8" standalone="no"?>
<svg
   xmlns="http://www.w3.org/2000/svg" version="1.1"
   width="24"
   height="24"
   fill="#e74e6d"
   fill-opacity="1"
   viewBox="-3.5 -1 19 19">

  <path d="m 6,0 c 3.313708,0 6,2.6862915 6,6 0,2.22 -1.21,4.16 -3,5.2 V 13 c 0,0.552285 -0.447715,1 -1,1 H 4 C 3.4477153,14 3,13.552285 3,13 V 11.2 C 1.21,10.16 0,8.22 0,6 0,2.6862915 2.6862915,0 6,0 m 2,15 v 1 c 0,0.552285 -0.447715,1 -1,1 H 5 C 4.447715,17 4,16.552285 4,16 V 15 H 8 M 5,12 H 7 V 9.87 C 8.73,9.43 10,7.86 10,6 10,3.790861 8.209139,2 6,2 3.790861,2 2,3.790861 2,6 2,7.86 3.27,9.43 5,9.87 Z" />
</svg>
