<?xml version="1.0" encoding="UTF-8" standalone="no"?>
<svg
   width="16"
   height="16"
   version="1.1"
   id="svg4"
   sodipodi:docname="gpu.svg"
   inkscape:version="1.2.2 (b0a8486541, 2022-12-01)"
   xmlns:inkscape="http://www.inkscape.org/namespaces/inkscape"
   xmlns:sodipodi="http://sodipodi.sourceforge.net/DTD/sodipodi-0.dtd"
   xmlns="http://www.w3.org/2000/svg"
   xmlns:svg="http://www.w3.org/2000/svg">
  <defs
     id="defs8" />
  <sodipodi:namedview
     id="namedview6"
     pagecolor="#ffffff"
     bordercolor="#000000"
     borderopacity="0.25"
     inkscape:showpageshadow="2"
     inkscape:pageopacity="0.0"
     inkscape:pagecheckerboard="0"
     inkscape:deskcolor="#d1d1d1"
     showgrid="false"
     inkscape:zoom="32.5625"
     inkscape:cx="7.9846449"
     inkscape:cy="8.0614203"
     inkscape:window-width="1366"
     inkscape:window-height="691"
     inkscape:window-x="0"
     inkscape:window-y="20"
     inkscape:window-maximized="1"
     inkscape:current-layer="svg4" />
  <path
     fill="#222"
     d="M0 0v2h.086c.5 0 .914.414.914.914V16h2v-2.008h1c0 1.11.89 2 2 2h5c1.11 0 2-.89 2-2 1.66 0 3-1.34 3-3v-6c0-1.66-1.34-3-3-3H2.848A2.9 2.9 0 0 0 .086 0zm3 3.992h10c.547 0 1 .453 1 1v6c0 .547-.453 1-1 1h-2v2h-1v-2H9v2H8v-2H7v2H6v-2H3zm3 1v1H5v3h1v1h1v-1h1v1h1v-1h1v1h1v-1h1v-3h-1v-1h-1v1H9v-1H8v1H7v-1zm0 0"
     id="path2" />
  <path
     style="fill:#000000;stroke-width:0.0307102"
     d="M 1.0060326,9.328215 0.99808061,2.6564299 0.91508124,2.499091 C 0.75732837,2.2000445 0.44016811,1.9961612 0.1327251,1.9961612 H 0 V 1.0009846 0.00580795 L 0.25335893,0.02221792 C 0.81501423,0.05859613 1.3809361,0.2700353 1.8375437,0.6140995 2.2252206,0.9062228 2.5199531,1.282945 2.7354093,1.7617366 L 2.8402226,1.994655 8.1226064,2.004756 c 4.7798646,0.00914 5.3013736,0.014907 5.4820006,0.06062 1.365531,0.3455901 2.244728,1.3519373 2.364659,2.706637 0.03682,0.4159042 0.03883,5.986198 0.0023,6.421845 -0.06002,0.716193 -0.320787,1.32025 -0.787537,1.824334 -0.491218,0.530508 -1.229825,0.889716 -1.942443,0.944669 l -0.236712,0.01825 -0.04843,0.29775 c -0.107405,0.660342 -0.508024,1.209639 -1.087445,1.491021 -0.420567,0.204238 -0.322637,0.198448 -3.3650637,0.19895 -2.6385971,4.36e-4 -2.7610272,-0.002 -2.9881145,-0.06011 C 4.8117985,15.728666 4.263656,15.180524 4.0835931,14.476484 4.0502848,14.34625 4.0230326,14.179718 4.0230326,14.106412 V 13.973129 H 3.5009597 2.9788868 V 14.986564 16 H 1.9964357 1.0139846 Z m 5.9958868,3.677543 v -0.99808 h 0.4913627 0.4913628 v 0.99808 0.998081 h 0.522073 0.5220729 v -0.998081 -0.99808 h 0.4760077 0.4760076 v 0.99808 0.998081 h 0.5220729 0.522073 v -0.996651 -0.99665 l 1.113244,-0.0091 1.113244,-0.0091 0.168905,-0.0801 c 0.200539,-0.0951 0.400977,-0.290455 0.498026,-0.485398 l 0.07011,-0.140839 0.0081,-3.2453468 c 0.008,-3.2049824 0.0073,-3.2474367 -0.05477,-3.4133463 C 13.861897,4.4137173 13.687348,4.215102 13.477325,4.0987731 L 13.31286,4.0076775 8.1458733,3.9996487 2.9788868,3.9916198 v 4.0080289 4.0080293 h 1.5047984 1.5047985 v 0.99808 0.998081 h 0.5067178 0.5067179 z"
     id="path129" />
  <path
     style="fill:#000000;stroke-width:0.0307102"
     d="M 6.0191939,9.4740883 V 8.9673704 H 5.512476 5.0057582 V 7.4932821 6.0191939 H 5.512476 6.0191939 V 5.512476 5.0057582 H 6.4952015 6.9712092 V 5.512476 6.0191939 h 0.5220729 0.522073 V 5.512476 5.0057582 H 8.5067179 8.9980806 V 5.512476 6.0191939 H 9.5047985 10.011516 V 5.512476 5.0057582 h 0.491363 0.491363 V 5.512476 6.0191939 h 0.491363 0.491362 V 7.4932821 8.9673704 H 11.485605 10.994242 V 9.4740883 9.9808061 H 10.502879 10.011516 V 9.4740883 8.9673704 H 9.5047985 8.9980806 V 9.4740883 9.9808061 H 8.5067179 8.0153551 V 9.4740883 8.9673704 H 7.4932821 6.9712092 V 9.4740883 9.9808061 H 6.4952015 6.0191939 Z"
     id="path131" />
  <path
     style="fill:#666666;stroke-width:0.0307102"
     d="M 1.0134357,9.3244054 V 2.6488109 L 0.93272473,2.5044033 C 0.7605416,2.1963342 0.4577994,1.9970131 0.16122841,1.9964612 L 0,1.9961612 V 1.0089051 0.02164899 L 0.26570435,0.04207265 C 0.91037411,0.09162589 1.5405862,0.36062145 2.0335897,0.79666515 2.2473375,0.98571731 2.531129,1.3788615 2.6908484,1.7071836 c 0.077319,0.1589377 0.1426636,0.2905458 0.145211,0.2924625 0.00255,0.00192 2.4092381,0.013134 5.3482016,0.024927 l 5.34357,0.021442 0.261037,0.085466 c 1.09026,0.3569633 1.792107,1.075862 2.082974,2.1335824 l 0.08123,0.2953975 0.01029,3.2552783 c 0.0075,2.3780607 5.22e-4,3.3297587 -0.02596,3.5316697 -0.182482,1.391566 -1.250019,2.43552 -2.651799,2.593215 -0.150112,0.01689 -0.27783,0.0356 -0.283817,0.04159 -0.006,0.006 -0.03026,0.120404 -0.05394,0.254259 -0.124219,0.70211 -0.490314,1.21455 -1.075042,1.504784 -0.203329,0.100924 -0.338421,0.146207 -0.494687,0.16582 -0.299073,0.03754 -3.1267326,0.05776 -4.6065259,0.03294 l -1.2284069,-0.0206 -0.2106991,-0.08245 C 4.6282773,15.56138 4.1623886,14.974513 4.0527899,14.224963 l -0.036823,-0.251834 h -0.51854 -0.51854 V 14.986564 16 H 1.9961612 1.0134357 Z m 5.9884837,3.6813526 v -0.99808 h 0.4913627 0.4913628 v 0.99808 0.998081 h 0.522073 0.5220729 v -0.998081 -0.99808 h 0.4760077 0.4760076 v 0.99808 0.998081 h 0.5220729 0.522073 v -0.978448 -0.978448 l 0.161228,-0.01937 c 0.08868,-0.01065 0.593641,-0.01949 1.122145,-0.01963 0.884985,-2.45e-4 0.96992,-0.0049 1.074856,-0.05888 0.220391,-0.113371 0.379166,-0.252899 0.499311,-0.438787 l 0.121347,-0.187748 V 8.0622329 c 0,-2.8295131 -0.0062,-3.2810939 -0.04674,-3.417685 C 13.898774,4.4481422 13.655565,4.1727306 13.447218,4.067153 L 13.299547,3.9923225 H 8.1392166 2.9788868 V 8 12.007678 h 1.5047984 1.5047985 v 0.99808 0.998081 h 0.5067178 0.5067179 z"
     id="path540" />
  <path
     style="fill:#808080;stroke-width:0.0307102"
     d="M 6.0191939,9.4740883 V 8.9673704 H 5.512476 5.0057582 V 7.4932821 6.0191939 H 5.512476 6.0191939 V 5.512476 5.0057582 H 6.4952015 6.9712092 V 5.512476 6.0191939 h 0.5220729 0.522073 V 5.512476 5.0057582 H 8.5067179 8.9980806 V 5.512476 6.0191939 H 9.5047985 10.011516 V 5.512476 5.0057582 h 0.491363 0.491363 V 5.512476 6.0191939 h 0.491363 0.491362 V 7.4932821 8.9673704 H 11.485605 10.994242 V 9.4740883 9.9808061 H 10.502879 10.011516 V 9.4740883 8.9673704 H 9.5047985 8.9980806 V 9.4740883 9.9808061 H 8.5067179 8.0153551 V 9.4740883 8.9673704 H 7.4932821 6.9712092 V 9.4740883 9.9808061 H 6.4952015 6.0191939 Z"
     id="path542" />
  <path
     style="fill:#4d4d4d;stroke-width:0.0307102"
     d="m 1.0099372,11.339731 c -0.00192,-2.5631475 -5.285e-4,-5.5758858 0.0031,-6.6949734 L 1.0196372,2.6100528 0.9217484,2.4575065 C 0.86791085,2.373606 0.7739352,2.2611247 0.71291489,2.2075482 0.58972966,2.0993901 0.36489483,1.9896843 0.28326271,1.9979039 c -0.029115,0.00293 -0.10475983,0.00374 -0.16809956,0.00179 L 0,1.9961612 V 1.0107363 0.02531146 L 0.11516315,0.04179947 C 0.17850288,0.05086788 0.31310351,0.06731071 0.41427562,0.0783391 0.68188536,0.1075102 1.0853912,0.2319476 1.3636054,0.37110348 1.9649613,0.67188686 2.3505303,1.0760647 2.6969352,1.7687842 l 0.1243316,0.2486307 5.3532821,0.022194 5.3532821,0.022193 0.230326,0.076234 c 1.096542,0.3629365 1.791839,1.0726707 2.101078,2.1447057 l 0.07935,0.275064 -4.03e-4,3.3640915 c -3.77e-4,3.1592709 -0.0039,3.3809439 -0.05753,3.6408819 -0.259896,1.2592 -1.261777,2.182062 -2.55596,2.354371 -0.154307,0.02054 -0.297343,0.05414 -0.317858,0.07465 -0.02051,0.02051 -0.05908,0.145626 -0.0857,0.278026 -0.13334,0.663114 -0.473313,1.144289 -1.003317,1.420028 -0.468927,0.243962 -0.280467,0.231439 -3.4878614,0.231772 l -2.856046,3.07e-4 -0.2394997,-0.102647 c -0.657491,-0.281804 -1.0981381,-0.804161 -1.2335377,-1.462283 -0.0278,-0.135125 -0.056947,-0.276776 -0.064772,-0.31478 -0.014069,-0.06834 -0.01989,-0.0691 -0.5280362,-0.06911 l -0.5138104,-1.5e-5 0.00849,1.013451 L 3.01122,16 H 2.0123278 1.0134357 Z m 5.9919822,1.666027 v -0.99808 h 0.4913627 0.4913628 v 0.99808 0.998081 h 0.522073 0.5220729 v -0.998081 -0.99808 h 0.4760077 0.4760076 v 0.99808 0.998081 h 0.5220729 0.522073 v -0.965301 c 0,-0.893056 0.004,-0.966442 0.05374,-0.980539 0.02956,-0.0084 0.544338,-0.02475 1.143954,-0.03638 0.996134,-0.01931 1.100412,-0.02632 1.208427,-0.08114 0.149929,-0.0761 0.369113,-0.277431 0.484302,-0.444852 l 0.08915,-0.12958 -0.008,-3.3567276 -0.008,-3.3567272 L 13.91727,4.519149 C 13.826749,4.3495288 13.615639,4.1377066 13.455879,4.0562036 13.332323,3.9931701 13.319121,3.993011 8.1710323,3.9925009 l -5.1609812,-5.113e-4 -0.0079,4.0078452 -0.0079,4.0078452 1.497121,-1e-6 1.4971209,-10e-7 v 0.99808 0.998081 h 0.5067178 0.5067179 z"
     id="path544" />
</svg>
