<?xml version="1.0" encoding="UTF-8" standalone="no"?>
<svg
   width="16"
   height="16"
   version="1.1"
   id="svg10"
   sodipodi:docname="ram.svg"
   inkscape:version="1.2.2 (b0a8486541, 2022-12-01)"
   xmlns:inkscape="http://www.inkscape.org/namespaces/inkscape"
   xmlns:sodipodi="http://sodipodi.sourceforge.net/DTD/sodipodi-0.dtd"
   xmlns="http://www.w3.org/2000/svg"
   xmlns:svg="http://www.w3.org/2000/svg">
  <defs
     id="defs14" />
  <sodipodi:namedview
     id="namedview12"
     pagecolor="#ffffff"
     bordercolor="#000000"
     borderopacity="0.25"
     inkscape:showpageshadow="2"
     inkscape:pageopacity="0.0"
     inkscape:pagecheckerboard="0"
     inkscape:deskcolor="#d1d1d1"
     showgrid="false"
     inkscape:zoom="32.5625"
     inkscape:cx="7.9846449"
     inkscape:cy="8.0614203"
     inkscape:window-width="1366"
     inkscape:window-height="691"
     inkscape:window-x="0"
     inkscape:window-y="20"
     inkscape:window-maximized="1"
     inkscape:current-layer="svg10" />
  <g
     fill="#222"
     id="g8">
    <path
       d="M3 2C1.34 2 0 3.34 0 5v4c0 1.66 1.34 3 3 3h10c1.66 0 3-1.34 3-3V5c0-1.66-1.34-3-3-3zm0 2h10c.555 0 1 .445 1 1v4c0 .555-.445 1-1 1H3c-.555 0-1-.445-1-1V5c0-.555.445-1 1-1"
       id="path2" />
    <path
       fill-opacity=".5"
       d="M4 5h2v4H4zm3 0h2v4H7zm3 0h2v4h-2z"
       id="path4" />
    <path
       d="M2 10h12v4H2z"
       id="path6" />
  </g>
  <path
     style="fill:#000000;stroke-width:0.0307102"
     d="m 2.0195867,12.895517 -0.00807,-1.077612 -0.1776804,-0.07492 C 1.1269713,11.444937 0.49317359,10.790355 0.21707319,10.073204 0.02238143,9.5675068 0.02333891,9.5801588 0.00842191,7.3161781 -0.00605287,5.1193127 0.01302731,4.605348 0.12375795,4.2093595 0.40639275,3.1986175 1.2227745,2.3922207 2.2468598,2.1122249 L 2.5028791,2.0422265 H 8 13.497121 l 0.258984,0.070767 c 1.022484,0.2793917 1.838207,1.0860348 2.119965,2.0963661 0.10275,0.3684444 0.122959,0.827454 0.122944,2.7925599 -1.5e-5,1.9858423 -0.01893,2.41189 -0.123702,2.786837 -0.238934,0.8550355 -0.885571,1.6027435 -1.678666,1.9410445 l -0.208162,0.08879 -0.0081,1.077267 -0.0081,1.077268 H 8 2.0276571 Z M 13.435701,9.9208402 c 0.214769,-0.1053506 0.42673,-0.3321462 0.504378,-0.53968 0.06237,-0.1666951 0.06376,-0.2185944 0.06376,-2.3792408 0,-2.1862082 -6.78e-4,-2.2106388 -0.06614,-2.3856121 C 13.848447,4.3777677 13.618394,4.1477148 13.379854,4.0584657 L 13.20307,3.9923225 H 8 2.7969298 L 2.620146,4.0584657 c -0.2385396,0.089249 -0.4685924,0.319302 -0.5578415,0.5578416 -0.065467,0.1749755 -0.066143,0.1993843 -0.066143,2.3864348 0,2.079462 0.00336,2.2185038 0.057092,2.359906 0.1079953,0.2842205 0.3510617,0.5175724 0.6307018,0.6054947 0.1011651,0.031808 1.1589131,0.038479 5.3621098,0.033821 l 5.2360849,-0.0058 z"
     id="path135" />
  <path
     style="fill:#1a1a1a;stroke-width:0.0307102"
     d="M 4.0230326,7.0019194 V 5.0057582 H 5.0057582 5.9884837 V 7.0019194 8.9980806 H 5.0057582 4.0230326 Z"
     id="path208" />
  <path
     style="fill:#1a1a1a;stroke-width:0.0307102"
     d="M 7.0019194,7.0019194 V 5.0057582 H 8 8.9980806 V 7.0019194 8.9980806 H 8 7.0019194 Z"
     id="path210" />
  <path
     style="fill:#333333;stroke-width:0.0307102"
     d="M 10.011516,7.0019194 V 5.0057582 h 0.982726 0.982725 v 1.9961612 1.9961612 h -0.982725 -0.982726 z"
     id="path243" />
  <path
     style="fill:#333333;stroke-width:0.0307102"
     d="M 4.0230326,7.0019194 V 5.0057582 H 5.0057582 5.9884837 V 7.0019194 8.9980806 H 5.0057582 4.0230326 Z"
     id="path314" />
  <path
     style="fill:#333333;stroke-width:0.0307102"
     d="M 7.0019194,7.0019194 V 5.0057582 H 8 8.9980806 V 7.0019194 8.9980806 H 8 7.0019194 Z"
     id="path316" />
  <path
     style="fill:#4d4d4d"
     d="M 10.011516,7.0019194 V 5.0057582 h 0.982726 0.982725 v 1.9961612 1.9961612 h -0.982725 -0.982726 z"
     id="path318" />
  <path
     style="fill:#4d4d4d;stroke-width:0.0307102"
     d="M 2.0268714,12.889751 V 11.806374 L 1.8236598,11.717845 C 1.0618835,11.38598 0.4141584,10.664331 0.15430025,9.8579655 0.04482619,9.5182566 0.0259658,9.0041268 0.03882634,6.7101727 0.05192652,4.373473 0.04979151,4.4040745 0.23196641,3.9418699 0.42536955,3.4511776 0.79995587,2.9588271 1.2260702,2.6352352 1.476156,2.4453196 1.9669205,2.203718 2.2719355,2.1203595 2.4993295,2.0582143 2.5572568,2.0575816 8.0196459,2.0575816 h 5.5180021 l 0.276226,0.090266 c 0.546856,0.1787044 0.969073,0.4406629 1.334357,0.827884 0.328839,0.3485858 0.562294,0.7448863 0.695006,1.1798037 0.108339,0.3550395 0.127952,0.7962368 0.127733,2.8733531 -2.45e-4,2.4504356 -0.01577,2.6299101 -0.275162,3.1834376 -0.311295,0.664286 -0.812733,1.174913 -1.438072,1.464426 l -0.283625,0.131309 -4.92e-4,1.082534 -4.9e-4,1.082534 H 8 2.0268714 Z M 13.462672,9.9212656 c 0.193443,-0.1109949 0.359353,-0.2799905 0.45409,-0.4625324 l 0.07172,-0.1381958 0.0085,-2.2543527 c 0.0073,-1.9510642 0.0021,-2.2761234 -0.03859,-2.4161735 -0.06161,-0.2119354 -0.296764,-0.472724 -0.522581,-0.5795526 L 13.270598,3.9923225 H 8 2.7294019 L 2.5642356,4.0704586 C 2.3384186,4.1772872 2.1032665,4.4380758 2.0416552,4.6500112 2.0009416,4.7900613 1.9957498,5.1151205 2.0030645,7.0661847 l 0.00845,2.2543527 0.0818,0.1535509 c 0.1351292,0.253659 0.3872059,0.4595203 0.6187007,0.5052692 0.070771,0.013986 2.48323,0.026943 5.3610204,0.028793 l 5.2323464,0.0034 z"
     id="path189" />
  <path
     style="fill:#4d4d4d"
     d="M 4.0230326,7.0019194 V 5.0057582 H 5.0057582 5.9884837 V 7.0019194 8.9980806 H 5.0057582 4.0230326 Z"
     id="path275" />
  <path
     style="fill:#4d4d4d"
     d="M 7.0019194,7.0019194 V 5.0057582 H 8 8.9980806 V 7.0019194 8.9980806 H 8 7.0019194 Z"
     id="path277" />
  <path
     style="fill:#808080;stroke-width:0.0307102"
     d="M 10.011516,7.0019194 V 5.0057582 h 0.982726 0.982725 v 1.9961612 1.9961612 h -0.982725 -0.982726 z"
     id="path279" />
  <path
     style="fill:#808080;stroke-width:0.0307102"
     d="M 7.0019194,7.0019194 V 5.0057582 H 8 8.9980806 V 7.0019194 8.9980806 H 8 7.0019194 Z"
     id="path350" />
  <path
     style="fill:#808080;stroke-width:0.0307102"
     d="M 4.0230326,7.0019194 V 5.0057582 H 5.0057582 5.9884837 V 7.0019194 8.9980806 H 5.0057582 4.0230326 Z"
     id="path352" />
</svg>
